<svg width="154" height="42" viewBox="0 0 154 42" fill="none" xmlns="http://www.w3.org/2000/svg">
    <path d="M21.1399 24.5316C22.4172 24.8544 25.2086 25.5598 25.6524 23.8535C26.1072 22.1089 23.3999 21.5277 22.0789 21.2441C21.9313 21.2124 21.801 21.1844 21.6943 21.1589L20.8348 24.4558C20.9223 24.4766 21.025 24.5025 21.1399 24.5316Z" fill="#808085"/>
    <path d="M22.3443 19.7141C23.4092 19.986 25.732 20.5791 26.1366 19.0283C26.5498 17.442 24.2922 16.9639 23.1896 16.7303C23.0656 16.7041 22.9562 16.6809 22.8669 16.6596L22.0875 19.6498C22.1612 19.6673 22.2475 19.6894 22.3443 19.7141Z" fill="#808085"/>
    <path fill-rule="evenodd" clip-rule="evenodd" d="M19.4888 34.2409C27.1326 36.0645 34.8736 31.6142 36.7791 24.3017C38.6846 16.9888 34.0337 9.58119 26.3903 7.75808C18.7487 5.93497 11.0077 10.3857 9.1031 17.699C7.19671 25.0111 11.8481 32.4178 19.4888 34.2409ZM26.0911 15.6111C28.0675 16.2625 29.5129 17.2389 29.2289 19.0551C29.0234 20.3847 28.253 21.0284 27.2302 21.254C28.6346 21.9536 29.3493 23.0264 28.6685 24.8862C27.8236 27.196 25.8165 27.3909 23.1473 26.9076L22.4995 29.3915L20.9342 29.0183L21.5735 26.5677C21.1678 26.4713 20.7532 26.3689 20.3261 26.258L19.6845 28.7201L18.121 28.3469L18.7688 25.8583C18.6226 25.8225 18.4756 25.7858 18.3275 25.7489C18.1051 25.6934 17.8803 25.6373 17.6528 25.5828L15.6158 25.0969L16.3929 23.3826C16.3929 23.3826 17.5463 23.676 17.5307 23.6543C17.9738 23.7592 18.1704 23.4828 18.248 23.2985L19.2717 19.3721C19.3101 19.3809 19.3477 19.3899 19.384 19.3986C19.402 19.403 19.4197 19.4072 19.4371 19.4113C19.3746 19.3874 19.318 19.3721 19.2743 19.3614L20.0046 16.5585C20.0238 16.2403 19.9092 15.8389 19.2752 15.6875C19.2997 15.6717 18.1383 15.417 18.1383 15.417L18.5548 13.8174L20.7135 14.3331L20.7117 14.3408C21.0363 14.418 21.3706 14.4914 21.7113 14.5656L22.3528 12.1061L23.9172 12.4793L23.2886 14.8907C23.7086 14.9824 24.1312 15.0749 24.5428 15.173L25.1669 12.7775L26.7322 13.1507L26.0911 15.6111Z" fill="#808085"/>
    <path d="M50.4823 15.6102C51.6392 15.6102 52.6388 15.8085 53.4787 16.198C54.3227 16.5912 55.0191 17.121 55.5777 17.7873C56.1288 18.457 56.539 19.2397 56.8038 20.1368C57.0668 21.0364 57.1988 22.0034 57.1988 23.0387C57.1988 24.6289 56.8943 26.1312 56.2795 27.5474C55.6647 28.9657 54.8305 30.1959 53.7694 31.2452C52.7092 32.2933 51.4573 33.1195 50.0137 33.7299C48.5723 34.3408 47.0052 34.6462 45.3227 34.6462C45.1051 34.6462 44.7226 34.6402 44.1822 34.6295C43.6419 34.6189 43.0208 34.5655 42.3253 34.4755C41.6254 34.3821 40.8853 34.2439 40.1037 34.0588C39.3226 33.8771 38.5808 33.6224 37.8821 33.2991L44.1292 8.18506L49.7244 7.3554L47.4876 16.2675C47.9665 16.061 48.4488 15.9011 48.9304 15.7846C49.4123 15.6699 49.9295 15.6102 50.4823 15.6102ZM45.789 30.3994C46.6316 30.3994 47.4257 30.201 48.1715 29.8116C48.9196 29.4217 49.5652 28.8953 50.106 28.2397C50.6468 27.5811 51.0748 26.8393 51.3869 26.0105C51.699 25.1817 51.8568 24.3171 51.8568 23.4174C51.8568 22.3122 51.6638 21.4502 51.279 20.827C50.8942 20.2063 50.1822 19.8941 49.1484 19.8941C48.8095 19.8941 48.373 19.9559 47.8318 20.0664C47.2888 20.1837 46.8028 20.4273 46.3673 20.7937L43.9856 30.2582C44.1292 30.2825 44.2562 30.3055 44.3646 30.3273C44.4707 30.3507 44.5879 30.3674 44.7047 30.3789C44.8282 30.3921 44.9696 30.3989 45.1403 30.3989C45.3111 30.3989 45.5246 30.3994 45.789 30.3994Z" fill="#808085"/>
    <path d="M63.0027 34.1633H57.6584L62.1716 15.9932H67.5524L63.0027 34.1633ZM65.6032 13.7794C64.8573 13.7794 64.181 13.5669 63.5809 13.1412C62.9759 12.7181 62.6763 12.0667 62.6763 11.1889C62.6763 10.706 62.7788 10.253 62.9821 9.8256C63.1886 9.39904 63.4583 9.03177 63.7962 8.71953C64.1337 8.40985 64.5247 8.16245 64.9688 7.97604C65.4155 7.79262 65.8908 7.70091 66.3972 7.70091C67.1427 7.70091 67.8154 7.91334 68.4178 8.33905C69.0178 8.76688 69.3197 9.41824 69.3197 10.2914C69.3197 10.776 69.2176 11.2307 69.0125 11.6572C68.8088 12.0838 68.539 12.4511 68.2011 12.7633C67.8663 13.0734 67.4717 13.32 67.0285 13.5047C66.5814 13.6911 66.1079 13.7794 65.6032 13.7794Z" fill="#808085"/>
    <path d="M72.235 11.467L77.8324 10.6373L76.4579 15.9932H82.4526L81.3701 20.2067H75.4116L73.8244 26.5625C73.6782 27.0922 73.5952 27.5871 73.5721 28.0469C73.5457 28.5088 73.6068 28.9055 73.7513 29.2395C73.8948 29.5744 74.153 29.8325 74.5275 30.015C74.9002 30.2006 75.4339 30.294 76.1338 30.294C76.7103 30.294 77.272 30.2415 77.8151 30.1374C78.355 30.0351 78.902 29.8926 79.4557 29.7062L79.8543 33.6459C79.132 33.8993 78.3501 34.1172 77.5074 34.3007C76.6635 34.4866 75.6643 34.5762 74.5096 34.5762C72.8493 34.5762 71.5622 34.3403 70.6451 33.8707C69.7294 33.3976 69.0821 32.7514 68.6946 31.9333C68.3125 31.1181 68.1418 30.1784 68.1895 29.1197C68.239 28.0584 68.4062 26.943 68.6946 25.7682L72.235 11.467Z" fill="#808085"/>
    <path d="M82.2168 26.9097C82.2168 25.3446 82.4816 23.8687 83.0108 22.4871C83.5391 21.1042 84.3001 19.8949 85.2877 18.8571C86.2716 17.8244 87.4705 17.0063 88.8815 16.4057C90.2859 15.8085 91.8584 15.5074 93.5913 15.5074C94.676 15.5074 95.6448 15.6055 96.4973 15.8021C97.3533 16.0005 98.1277 16.2568 98.8281 16.5784L96.985 20.5881C96.5035 20.4013 96.0037 20.2366 95.487 20.0873C94.9698 19.935 94.3385 19.8617 93.5918 19.8617C91.808 19.8617 90.3978 20.4499 89.3483 21.6225C88.3028 22.796 87.7763 24.3755 87.7763 26.3569C87.7763 27.5312 88.0411 28.4807 88.5726 29.2071C89.1013 29.9336 90.0782 30.2948 91.4964 30.2948C92.1963 30.2948 92.8717 30.2249 93.5187 30.0884C94.1705 29.9502 94.746 29.7762 95.253 29.5706L95.652 33.6809C94.9761 33.9317 94.2307 34.1582 93.413 34.3565C92.5936 34.5481 91.6181 34.6474 90.487 34.6474C88.9939 34.6474 87.73 34.4384 86.6961 34.0268C85.6617 33.6088 84.8071 33.0538 84.1339 32.3509C83.4571 31.6462 82.9711 30.8234 82.6706 29.879C82.3701 28.9354 82.2168 27.9441 82.2168 26.9097Z" fill="#808085"/>
    <path d="M105.957 34.6466C104.681 34.6466 103.573 34.4606 102.633 34.0925C101.696 33.7244 100.92 33.2078 100.306 32.5381C99.6912 31.8718 99.2311 31.0823 98.9159 30.1724C98.6007 29.263 98.4492 28.2559 98.4492 27.1524C98.4492 25.7682 98.6814 24.3845 99.1509 23.0045C99.6181 21.6216 100.311 20.3791 101.229 19.2747C102.139 18.1687 103.262 17.2643 104.585 16.5592C105.906 15.8588 107.425 15.5065 109.132 15.5065C110.384 15.5065 111.486 15.6929 112.439 16.061C113.387 16.4283 114.168 16.9491 114.786 17.6154C115.397 18.2851 115.861 19.0712 116.173 19.9824C116.487 20.8901 116.642 21.8998 116.642 23.0041C116.642 24.384 116.413 25.7678 115.958 27.152C115.503 28.5293 114.828 29.7749 113.936 30.8818C113.046 31.9861 111.933 32.89 110.597 33.5921C109.262 34.2943 107.714 34.6466 105.957 34.6466ZM108.628 19.8612C107.835 19.8612 107.135 20.0813 106.535 20.516C105.933 20.9558 105.428 21.5086 105.02 22.1753C104.608 22.845 104.303 23.5753 104.097 24.3691C103.892 25.1646 103.792 25.9167 103.792 26.6311C103.792 27.7841 103.986 28.682 104.368 29.3283C104.755 29.9711 105.451 30.2944 106.463 30.2944C107.258 30.2944 107.955 30.076 108.558 29.6367C109.156 29.2003 109.662 28.6471 110.073 27.9791C110.482 27.3128 110.79 26.5804 110.997 25.7853C111.199 24.9923 111.302 24.236 111.302 23.5228C111.302 22.3728 111.108 21.4728 110.723 20.8274C110.337 20.1846 109.638 19.8612 108.628 19.8612Z" fill="#808085"/>
    <path d="M122.468 34.1633H117.119L121.632 15.9932H127.016L122.468 34.1633ZM125.064 13.7794C124.319 13.7794 123.643 13.5669 123.044 13.1412C122.442 12.7181 122.139 12.0667 122.139 11.1889C122.139 10.706 122.243 10.253 122.447 9.8256C122.651 9.39904 122.922 9.03177 123.26 8.71953C123.596 8.40985 123.991 8.16245 124.434 7.97604C124.878 7.79262 125.353 7.70091 125.858 7.70091C126.605 7.70091 127.28 7.91334 127.881 8.33905C128.482 8.76688 128.786 9.41824 128.786 10.2914C128.786 10.776 128.678 11.2307 128.476 11.6572C128.274 12.0838 128.003 12.4511 127.666 12.7633C127.327 13.0734 126.938 13.32 126.493 13.5047C126.046 13.6911 125.571 13.7794 125.064 13.7794Z" fill="#808085"/>
    <path d="M130.865 16.8212C131.271 16.7077 131.724 16.5712 132.216 16.4227C132.711 16.2743 133.263 16.1361 133.88 16.0115C134.49 15.8832 135.179 15.7791 135.937 15.6985C136.694 15.6161 137.557 15.576 138.516 15.576C141.335 15.576 143.278 16.3613 144.35 17.9272C145.422 19.4931 145.608 21.6361 144.912 24.3525L142.454 34.1633H137.074L139.457 24.5589C139.602 23.9592 139.716 23.3795 139.801 22.813C139.886 22.2517 139.881 21.7569 139.782 21.3286C139.687 20.9054 139.463 20.5591 139.115 20.2908C138.763 20.0267 138.23 19.8941 137.507 19.8941C136.811 19.8941 136.102 19.9657 135.378 20.1039L131.875 34.1629H126.493L130.865 16.8212Z" fill="#808085"/>
</svg>
