<svg width="127" height="64" viewBox="0 0 127 64" fill="none" xmlns="http://www.w3.org/2000/svg">
    <path d="M30.6495 38.8217V42.5003C29.1312 41.5957 27.5218 41.1434 25.791 41.1434C24.8496 41.1434 24.0905 41.3545 23.5743 41.7766C23.0277 42.1988 22.7544 42.7415 22.7544 43.4049C22.7544 44.0682 23.0581 44.611 23.635 45.0331C24.212 45.4854 25.0622 45.9679 26.2161 46.4805C27.036 46.8423 27.6736 47.1438 28.1898 47.4152C28.7061 47.6866 29.2526 48.0785 29.8599 48.561C30.4369 49.0434 30.8924 49.6163 31.196 50.2797C31.4693 50.9732 31.6212 51.727 31.6212 52.6015C31.6212 54.4106 30.9835 55.8579 29.6778 56.9133C28.372 57.9988 26.6412 58.5415 24.5156 58.5415C22.2078 58.5415 20.2948 58.1194 18.7765 57.245V53.3553C20.5074 54.5915 22.4204 55.2247 24.4852 55.2247C25.4266 55.2247 26.1554 54.9835 26.7323 54.5312C27.3092 54.1091 27.5825 53.4759 27.5825 52.7221C27.5825 52.3602 27.5218 52.0286 27.37 51.7572C27.2181 51.4858 26.9449 51.1843 26.5197 50.9129C26.0643 50.6415 25.7302 50.4305 25.5177 50.3098C25.2748 50.1892 24.7889 49.9782 24.0601 49.6465C23.8476 49.556 23.6957 49.4656 23.6046 49.4354C22.8455 49.1037 22.2382 48.7721 21.7827 48.5007C21.3272 48.2293 20.811 47.8675 20.2644 47.4152C19.7179 46.9629 19.2927 46.39 19.0498 45.7568C18.7765 45.1236 18.6247 44.3698 18.6247 43.5556C18.6247 41.8369 19.2624 40.4499 20.5681 39.3946C21.8434 38.3392 23.5439 37.8266 25.6695 37.8266C27.5825 37.8266 29.2526 38.1583 30.6495 38.8217Z" fill="#808085"/>
    <path d="M37.7553 50.7031C37.7857 52.1505 38.2412 53.3264 39.0914 54.2008C39.9113 55.0753 41.0652 55.5276 42.4924 55.5276C43.7373 55.5276 44.9216 55.1959 45.9844 54.5024V57.6382C44.9216 58.2715 43.5855 58.573 41.9761 58.573C39.6076 58.573 37.6946 57.8192 36.2371 56.3417C34.7491 54.8642 34.0204 52.9646 34.0204 50.7031C34.0507 48.4718 34.7795 46.6023 36.2371 45.0646C37.6642 43.5268 39.638 42.773 42.1583 42.773C43.6463 42.773 44.9216 43.0443 45.9844 43.6172V46.8134C44.9823 46.1802 43.8284 45.8485 42.5227 45.8485C41.0955 45.8485 39.972 46.3008 39.0914 47.1753C38.2108 48.0497 37.7857 49.2256 37.7553 50.7031Z" fill="#808085"/>
    <path d="M52.7541 43.0134V45.7272C53.4525 43.8276 54.7582 42.8928 56.6409 42.8928C57.066 42.8928 57.4 42.923 57.6733 42.9833V46.481C57.2178 46.2699 56.7016 46.1795 56.1247 46.1795C55.1226 46.1795 54.3331 46.5715 53.6954 47.3856C53.0578 48.1997 52.7541 49.1947 52.7541 50.4008V58.3009H49.0799L49.1102 43.0134H52.7541Z" fill="#808085"/>
    <path d="M69.3665 43.0137H73.0407V58.3011H69.3665V55.7985C68.5466 57.5775 66.9676 58.4519 64.6295 58.4519C63.0808 58.4519 61.8662 57.9996 60.9856 57.1252C60.105 56.2507 59.6799 54.9843 59.6799 53.3561V43.0137H63.3237V52.5118C63.3237 53.4767 63.5667 54.2004 64.0525 54.713C64.508 55.2256 65.176 55.4668 65.9959 55.4668C67.0587 55.4668 67.8786 55.1049 68.4859 54.4114C69.0628 53.7179 69.3665 52.6324 69.3665 51.2152V43.0137Z" fill="#808085"/>
    <path d="M81.4194 45.7279V53.5073C81.4194 54.1405 81.6016 54.623 81.9356 54.9546C82.2696 55.3165 82.7554 55.4672 83.3628 55.4672C84.1219 55.4672 84.8507 55.2562 85.4883 54.834V57.9398C84.7899 58.2714 83.879 58.4524 82.7554 58.4524C79.4456 58.4524 77.7755 56.794 77.7755 53.447V45.7279H75.4677V43.0142H77.7755V39.3355H81.4194V43.0142H85.2454V45.7279H81.4194Z" fill="#808085"/>
    <path d="M88.6464 58.3009V45.7875H92.2903V58.3009H88.6464ZM88.282 41.6264C88.282 41.0233 88.4946 40.5107 88.9197 40.0886C89.3448 39.6665 89.861 39.4554 90.4683 39.4554C91.0757 39.4554 91.5919 39.6665 92.017 40.0886C92.4421 40.5107 92.6547 41.0233 92.6547 41.6264C92.6547 42.2596 92.4421 42.7722 92.017 43.1943C91.5919 43.6165 91.0757 43.8275 90.4683 43.8275C89.861 43.8275 89.3448 43.6165 88.9197 43.1943C88.4946 42.7722 88.282 42.2596 88.282 41.6264Z" fill="#808085"/>
    <path d="M100.034 43.014V45.6373C100.914 43.7678 102.493 42.8331 104.771 42.8331C106.319 42.8331 107.534 43.2854 108.414 44.2201C109.295 45.1549 109.751 46.4514 109.751 48.14V58.3014H106.107V48.8938C106.107 47.8987 105.864 47.1148 105.378 46.6022C104.892 46.0896 104.224 45.8484 103.404 45.8484C102.463 45.8484 101.643 46.2102 101.005 46.9339C100.368 47.6877 100.034 48.743 100.034 50.0999V58.3014H96.3897V43.014H100.034Z" fill="#808085"/>
    <path d="M117.83 57.9996L111.756 43.0137H115.795L117.587 47.8984C118.133 49.3458 118.589 50.5519 118.923 51.5469C119.257 52.542 119.439 53.145 119.53 53.4164L119.621 53.8385C119.834 53.145 120.471 51.1549 121.565 47.8984L123.174 43.0137H127L121.443 57.879C119.894 61.9496 117.556 64 114.398 64C113.821 64 113.305 63.9397 112.88 63.8492V60.8641C113.214 60.9546 113.548 60.9847 113.912 60.9847C115.765 60.9847 117.07 59.9897 117.83 57.9996Z" fill="#808085"/>
    <path fill-rule="evenodd" clip-rule="evenodd" d="M2.75415 47.517C2.69121 47.7268 2.4785 47.8551 2.26214 47.8138C2.04557 47.7725 1.89588 47.5752 1.9158 47.3572C2.10721 45.4139 2.54686 43.4629 3.25374 41.5449C7.75412 29.3336 21.392 23.0476 33.6897 27.5166C36.1819 28.4222 38.429 29.7006 40.3908 31.2649C40.5607 31.4046 40.596 31.6496 40.472 31.8308C40.348 32.0119 40.1058 32.0698 39.9123 31.9643C23.5567 23.0567 7.95581 30.6444 2.75415 47.517Z" fill="#808085"/>
    <path fill-rule="evenodd" clip-rule="evenodd" d="M23.5963 11.6078L28.6462 9.05143L27.6757 14.5968L23.5963 11.6078Z" fill="#808085"/>
    <path fill-rule="evenodd" clip-rule="evenodd" d="M17.308 24.637C17.9876 24.4005 18.5921 23.9795 19.0493 23.4162C19.3417 23.0557 19.2845 22.527 18.9215 22.2365C18.5583 21.9458 18.026 22.0028 17.7334 22.3633C17.475 22.6818 17.1331 22.9199 16.7489 23.0536C16.309 23.2068 16.0768 23.6858 16.2312 24.123C16.3856 24.5598 16.868 24.7902 17.308 24.637ZM12.0471 22.7447C12.5088 23.1222 12.9467 23.4804 13.3516 23.8115C13.7114 24.1059 14.2445 24.0549 14.5408 23.6972C14.8373 23.3399 14.7859 22.8107 14.4259 22.5164C14.0212 22.1852 13.5831 21.8271 13.1215 21.4494C12.7615 21.155 12.2286 21.2062 11.9321 21.5635C11.6356 21.9211 11.6872 22.4502 12.0471 22.7447ZM21.08 20.6889C21.4055 20.2511 21.7414 19.7991 22.0834 19.3388C22.3603 18.9661 22.2805 18.4404 21.9052 18.1655C21.5301 17.8906 21.0007 17.9699 20.7237 18.3426C20.3817 18.8026 20.0458 19.2546 19.7204 19.6928C19.4436 20.0653 19.5233 20.5911 19.8986 20.8661C20.2737 21.141 20.8033 21.0617 21.08 20.6889ZM8.13395 19.5442C8.5703 19.9011 9.00703 20.2583 9.43825 20.6109C9.79818 20.9054 10.3312 20.854 10.6276 20.4967C10.9242 20.1392 10.8727 19.6102 10.5128 19.3157C10.0814 18.9629 9.64486 18.6059 9.20833 18.2489C8.8483 17.9545 8.31539 18.0057 8.01894 18.363C7.7224 18.7205 7.77403 19.2497 8.13395 19.5442ZM4.22087 16.3435C4.63793 16.6846 5.07493 17.0421 5.52507 17.4104C5.8851 17.7047 6.41801 17.6535 6.71445 17.2962C7.011 16.9387 6.95937 16.4096 6.59963 16.1151C6.14939 15.7471 5.7122 15.3895 5.29514 15.0484C4.93522 14.7538 4.40231 14.805 4.10576 15.1625C3.80932 15.5198 3.86084 16.0491 4.22087 16.3435ZM24.0902 16.6382C24.428 16.1835 24.7638 15.7317 25.0935 15.288C25.3095 14.9973 25.3085 14.6132 25.1193 14.328C25.0661 14.2477 24.9979 14.1751 24.9153 14.1147C24.5402 13.8399 24.0106 13.9191 23.7337 14.2918C23.404 14.7355 23.0684 15.1874 22.7305 15.642C22.4537 16.0145 22.5334 16.5404 22.9085 16.8153C23.2838 17.0902 23.8132 17.0109 24.0902 16.6382ZM0.307687 13.143C0.307687 13.143 0.800605 13.5462 1.61189 14.2099C1.97191 14.5042 2.50483 14.453 2.80127 14.0957C3.09781 13.7382 3.04629 13.2089 2.68645 12.9146C1.87498 12.2509 1.38196 11.8478 1.38196 11.8478C1.02204 11.5533 0.489121 11.6045 0.192576 11.962C-0.103866 12.3193 -0.0523408 12.8486 0.307687 13.143Z" fill="#808085"/>
    <path fill-rule="evenodd" clip-rule="evenodd" d="M40.4004 2.55612L45.4502 0L44.4798 5.54512L40.4004 2.55612Z" fill="#808085"/>
    <path fill-rule="evenodd" clip-rule="evenodd" d="M28.1289 23.6415C28.8085 23.4049 29.4131 22.9838 29.8703 22.4205C30.1628 22.0601 30.1056 21.5313 29.7424 21.2408C29.3792 20.9501 28.847 21.0072 28.5545 21.3676C28.296 21.6861 27.954 21.9241 27.5699 22.0579C27.13 22.2112 26.8979 22.6902 27.0523 23.1272C27.2065 23.5643 27.689 23.7946 28.1289 23.6415ZM22.868 21.749C23.3299 22.1266 23.7676 22.4848 24.1727 22.8159C24.5324 23.1103 25.0654 23.0593 25.3618 22.7015C25.6583 22.3443 25.6069 21.8151 25.2469 21.5207C24.8423 21.1896 24.4041 20.8313 23.9425 20.4538C23.5825 20.1594 23.0495 20.2107 22.7531 20.5679C22.4566 20.9254 22.5083 21.4544 22.868 21.749ZM31.901 19.6933C32.223 19.2604 32.5585 18.8088 32.9043 18.3432C33.1813 17.9707 33.1014 17.4448 32.7263 17.1698C32.3512 16.8951 31.8216 16.9742 31.5447 17.3469C31.1985 17.8125 30.8631 18.2638 30.5414 18.697C30.2646 19.0695 30.3443 19.5956 30.7197 19.8704C31.0948 20.1454 31.6243 20.066 31.901 19.6933ZM19.416 18.9256L18.9549 18.5485C18.5951 18.2539 18.5435 17.7249 18.8399 17.3674C19.1364 17.0102 19.6693 16.9589 20.0293 17.2533L20.5048 17.6422C20.3835 17.724 20.2564 17.8396 20.129 18.0009C19.8749 18.3229 19.6243 18.6501 19.416 18.9256ZM15.0418 15.3478C15.459 15.6891 15.896 16.0466 16.3461 16.4147C16.7061 16.7091 17.2391 16.658 17.5355 16.3005C17.832 15.943 17.7803 15.4141 17.4206 15.1195C16.9704 14.7516 16.5332 14.3938 16.1162 14.0528C15.7562 13.7582 15.2232 13.8095 14.9268 14.1669C14.6303 14.5242 14.6817 15.0534 15.0418 15.3478ZM34.9112 15.6426C35.242 15.1976 35.5769 14.7467 35.9145 14.2925C36.1912 13.92 36.1116 13.3942 35.7362 13.1191C35.3611 12.8441 34.8316 12.9235 34.5546 13.2962C34.2173 13.7502 33.8821 14.2013 33.5513 14.6463C33.2746 15.0188 33.3545 15.5447 33.7296 15.8197C34.1047 16.0947 34.6343 16.0154 34.9112 15.6426ZM11.1286 12.1473C11.1286 12.1473 11.6216 12.5505 12.4327 13.2142C12.793 13.5086 13.3257 13.4573 13.6222 13.1C13.9188 12.7425 13.8672 12.2133 13.5074 11.919C12.6961 11.2552 12.203 10.8523 12.203 10.8523C11.843 10.5577 11.3101 10.609 11.0136 10.9665C10.7172 11.3237 10.7686 11.8529 11.1286 12.1473ZM37.9214 11.5919C38.2575 11.1396 38.5927 10.6885 38.9247 10.2418C39.2017 9.86906 39.1218 9.34322 38.7464 9.06845C38.3713 8.79344 37.8418 8.87277 37.5648 9.2455C37.2328 9.69225 36.8979 10.1431 36.5615 10.5957C36.2845 10.9684 36.3644 11.494 36.7395 11.769C37.1149 12.0438 37.6444 11.9647 37.9214 11.5919ZM40.9313 7.54125C41.2748 7.07878 41.6102 6.62793 41.9347 6.19086C42.2116 5.81837 42.132 5.29253 41.7566 5.01752C41.3812 4.74275 40.8519 4.82208 40.575 5.19481C40.2505 5.6314 39.9151 6.08274 39.5717 6.54496C39.2947 6.91745 39.3744 7.44329 39.7497 7.7183C40.1251 7.99307 40.6544 7.91374 40.9313 7.54125Z" fill="#808085"/>
    <path d="M60.6126 35.534H59.8015L56.6956 24.7102C56.4384 23.8262 56.2406 23.0994 56.1219 22.5297C56.023 23.0798 55.8647 23.728 55.6867 24.4548C55.4888 25.162 54.4602 28.8551 52.561 35.534H51.7302L47.8528 21.5082H48.8815L51.3543 30.5445C51.4532 30.9177 51.5521 31.2517 51.6312 31.566C51.7104 31.8606 51.7895 32.1553 51.8489 32.4303C51.928 32.7053 51.9873 32.9607 52.0467 33.2161C52.0862 33.4714 52.1456 33.7268 52.1852 33.9822C52.3434 33.1178 52.6797 31.782 53.1743 30.0141L55.5878 21.5082H56.6758L59.5047 31.2713C59.841 32.391 60.0784 33.3143 60.2169 34.0018C60.296 33.5304 60.4147 33.0589 60.5334 32.5285C60.6719 32.0178 61.661 28.3443 63.5206 21.5082H64.5097L60.6126 35.534Z" fill="#808085"/>
    <path d="M72.7433 35.5334L72.506 33.8833H72.4268C71.8927 34.5512 71.3586 35.0227 70.8046 35.3174C70.2507 35.5924 69.5781 35.7299 68.8264 35.7299C67.7977 35.7299 66.9866 35.4549 66.4129 34.9441C65.8392 34.4137 65.5623 33.6869 65.5623 32.7636C65.5623 31.7421 65.9777 30.9564 66.8481 30.3867C67.6988 29.8367 68.9253 29.5224 70.5475 29.5027L72.5455 29.4438V28.7563C72.5455 27.7544 72.3477 27.008 71.9323 26.5169C71.5366 26.0061 70.8838 25.7507 69.9738 25.7507C69.0044 25.7507 67.9955 26.0258 66.947 26.5561L66.591 25.7311C67.7383 25.2007 68.8857 24.9257 70.0133 24.9257C71.1607 24.9257 72.0312 25.2203 72.6049 25.8097C73.1588 26.4186 73.4555 27.3419 73.4555 28.5991V35.5334H72.7433ZM68.8857 34.8655C69.9936 34.8655 70.8838 34.5512 71.5366 33.903C72.1894 33.2744 72.506 32.3904 72.506 31.251V30.2296L70.6662 30.3081C69.2023 30.3671 68.134 30.6028 67.5207 30.9957C66.8877 31.3689 66.5712 31.9779 66.5712 32.8029C66.5712 33.4512 66.769 33.9619 67.1844 34.3155C67.5801 34.6887 68.1538 34.8655 68.8857 34.8655Z" fill="#808085"/>
    <path fill-rule="evenodd" clip-rule="evenodd" d="M76.8548 20.604H77.8044V35.5334H76.8548V20.604Z" fill="#808085"/>
    <path fill-rule="evenodd" clip-rule="evenodd" d="M81.3257 20.604H82.2753V35.5334H81.3257V20.604Z" fill="#808085"/>
    <path d="M90.0304 35.7308C88.5071 35.7308 87.3202 35.2593 86.4695 34.3164C85.6189 33.3931 85.1837 32.077 85.1837 30.4072C85.1837 28.7375 85.5991 27.4017 86.43 26.3999C87.241 25.398 88.3489 24.9069 89.7534 24.9069C90.9997 24.9069 91.9691 25.3391 92.6813 26.1838C93.3934 27.0481 93.7495 28.2071 93.7495 29.6804V30.4465H86.1926C86.2123 31.8805 86.5487 32.9806 87.2015 33.7271C87.8543 34.4932 88.8039 34.8664 90.0304 34.8664C90.6239 34.8664 91.158 34.8271 91.613 34.7289C92.068 34.6503 92.6417 34.4735 93.3341 34.1985V35.0629C92.7406 35.3182 92.2065 35.495 91.6921 35.5932C91.1976 35.6718 90.6437 35.7308 90.0304 35.7308ZM89.7534 25.7516C88.7445 25.7516 87.9334 26.0856 87.3202 26.7338C86.7069 27.4017 86.3508 28.3643 86.2519 29.6018H92.7406C92.7406 28.4035 92.4834 27.4606 91.9493 26.7731C91.4152 26.0856 90.6832 25.7516 89.7534 25.7516Z" fill="#808085"/>
    <path d="M99.4262 34.8852C100.039 34.8852 100.554 34.8263 101.009 34.728V35.4942C100.554 35.6513 100.02 35.7299 99.4064 35.7299C98.4766 35.7299 97.804 35.4745 97.349 34.9834C96.9138 34.4923 96.6962 33.7262 96.6962 32.6654V25.9275H95.1334V25.3775L96.6962 24.9453L97.171 22.5881H97.6655V25.1025H100.752V25.9275H97.6655V32.5279C97.6655 33.3333 97.804 33.9226 98.1007 34.2959C98.3777 34.6887 98.8129 34.8852 99.4262 34.8852Z" fill="#808085"/>
</svg>
