<svg width="16" height="16" viewBox="0 0 16 16" fill="none" xmlns="http://www.w3.org/2000/svg">
    <path d="M13 11.7513C12.9568 11.8729 12.915 12.0034 12.8669 12.1316C12.4686 13.2076 11.8638 14.1629 11.13 15.0383C10.9884 15.2087 10.8234 15.363 10.653 15.5061C10.3162 15.7904 9.92867 15.9622 9.4804 15.9779C9.14364 15.9887 8.82036 15.9277 8.50878 15.8012C8.28307 15.7092 8.06096 15.6065 7.83211 15.5236C7.08934 15.2545 6.35062 15.2899 5.61999 15.5778C5.35652 15.6819 5.09664 15.7967 4.82822 15.8868C4.51708 15.9909 4.19426 16.0331 3.86559 15.9712C3.57873 15.9178 3.32785 15.7846 3.09495 15.6128C2.80584 15.3993 2.56305 15.1392 2.33599 14.8638C1.26096 13.556 0.539325 12.0774 0.190872 10.4211C0.0407004 9.7089 -0.0312382 8.99087 0.0128242 8.26297C0.0645301 7.39021 0.267757 6.55916 0.735358 5.81018C1.32211 4.8688 2.14985 4.25213 3.23882 3.99784C3.89392 3.844 4.53102 3.90679 5.15554 4.14674C5.48421 4.27231 5.81378 4.39654 6.1438 4.51988C6.44774 4.6338 6.75033 4.6338 7.05472 4.51764C7.39148 4.38937 7.7287 4.26155 8.06681 4.13642C8.41346 4.01039 8.76596 3.90724 9.13375 3.87809C9.68408 3.83369 10.2209 3.905 10.7434 4.07946C11.4839 4.32658 12.0864 4.76386 12.5414 5.40071C12.5535 5.4182 12.567 5.43749 12.576 5.45139C11.4286 6.24925 10.7753 7.30321 10.8702 8.7303C10.9659 10.1583 11.7366 11.1243 13 11.7513ZM6.56374 3.70139C6.9023 3.71036 7.22782 3.64532 7.5412 3.52109C8.97054 2.9551 9.7178 1.44683 9.69532 0.293312C9.69352 0.200475 9.68723 0.107638 9.68318 0C9.53615 0.021976 9.40217 0.0322913 9.27358 0.0645825C8.23002 0.319773 7.427 0.900567 6.89915 1.84105C6.59027 2.3918 6.41851 2.97663 6.47112 3.61572C6.47471 3.68345 6.49944 3.70049 6.56374 3.70139Z" fill="#13151A"/>
</svg>
