<svg width="20" height="21" viewBox="0 0 20 21" fill="none" xmlns="http://www.w3.org/2000/svg">
    <path d="M17.7803 9.96918C17.921 10.1098 18 10.3006 18 10.4995C18 10.6984 17.921 10.8892 17.7803 11.0298L13.1841 15.626C12.8912 15.9189 12.4164 15.9189 12.1235 15.626C11.8306 15.3331 11.8306 14.8583 12.1235 14.5654L15.4394 11.2495L2.75 11.2495C2.33578 11.2495 2 10.9137 2 10.4995C2 10.0852 2.33579 9.74945 2.75 9.74946L15.4393 9.74947L12.1235 6.43364C11.8306 6.14075 11.8306 5.66588 12.1235 5.37298C12.4164 5.08009 12.8912 5.08009 13.1841 5.37298L17.7803 9.96918Z" fill="#FFA800"/>
</svg>
