<svg width="18" height="16" viewBox="0 0 18 16" fill="none" xmlns="http://www.w3.org/2000/svg">
    <path fill-rule="evenodd" clip-rule="evenodd" d="M8.99656 4.5C9.41078 4.5 9.74656 4.83579 9.74656 5.25V8.98831C9.74656 9.40252 9.41078 9.73831 8.99656 9.73831C8.58235 9.73831 8.24656 9.40252 8.24656 8.98831V5.25C8.24656 4.83579 8.58235 4.5 8.99656 4.5Z" fill="#F43A4F"/>
    <path d="M7.99656 11.9883C7.99656 12.5406 8.44428 12.9883 8.99656 12.9883C9.54885 12.9883 9.99656 12.5406 9.99656 11.9883C9.99656 11.436 9.54885 10.9883 8.99656 10.9883C8.44428 10.9883 7.99656 11.436 7.99656 11.9883Z" fill="#F43A4F"/>
    <path fill-rule="evenodd" clip-rule="evenodd" d="M16.281 12.2256L10.2868 2.22999C9.70401 1.25814 8.29604 1.25813 7.71323 2.22998L1.71899 12.2256C1.11899 13.2261 1.83944 14.4989 3.00579 14.4989H14.9942C16.1606 14.4989 16.881 13.2261 16.281 12.2256ZM11.5736 1.45778C10.408 -0.485923 7.59206 -0.485929 6.42644 1.45777L0.432202 11.4534C-0.767798 13.4544 0.673113 16 3.00579 16H14.9942C17.3269 16 18.7678 13.4544 17.5678 11.4534L11.5736 1.45778Z" fill="#F43A4F"/>
</svg>
