<svg width="24" height="24" viewBox="0 0 24 24" fill="none" xmlns="http://www.w3.org/2000/svg">
    <path fill-rule="evenodd" clip-rule="evenodd" d="M20.7859 8.78689C21.0999 8.9359 21.3 9.25241 21.3 9.59998V20.4C21.3 20.897 20.8971 21.3 20.4 21.3H3.59999C3.10294 21.3 2.69999 20.897 2.69999 20.4V15.6C2.69999 15.3219 2.82854 15.0594 3.04823 14.889L7.77326 11.2223C8.09796 10.9703 8.5521 10.9703 8.87679 11.2223L13.0358 14.4498L19.8309 8.90279C20.1001 8.68299 20.4719 8.63788 20.7859 8.78689ZM19.5 11.4965L13.6192 16.2972C13.2944 16.5623 12.8295 16.5681 12.4983 16.311L8.32502 13.0725L4.49999 16.0408V19.5H19.5V11.4965Z" fill="#FFA800"/>
    <path fill-rule="evenodd" clip-rule="evenodd" d="M21.0972 3.03084C21.4115 3.41589 21.3542 3.98285 20.9691 4.29717L13.6192 10.2972C13.2944 10.5623 12.8295 10.5681 12.4983 10.311L8.32502 7.07251L4.15176 10.311C3.75907 10.6157 3.1937 10.5444 2.88897 10.1517C2.58424 9.75905 2.65554 9.19368 3.04823 8.88895L7.77326 5.22229C8.09796 4.97032 8.5521 4.97032 8.87679 5.22229L13.0358 8.44976L19.8309 2.90278C20.2159 2.58846 20.7829 2.64579 21.0972 3.03084Z" fill="#FFA800"/>
</svg>
