<svg width="24" height="24" viewBox="0 0 24 24" fill="none" xmlns="http://www.w3.org/2000/svg">
    <path fill-rule="evenodd" clip-rule="evenodd" d="M11.1515 7.7999C11.6202 7.33127 12.38 7.33127 12.8486 7.7999L16.2427 11.194C16.7113 11.6626 16.7113 12.4224 16.2427 12.8911L12.8486 16.2852C12.38 16.7538 11.6202 16.7538 11.1515 16.2852L7.75742 12.8911C7.28879 12.4224 7.28878 11.6626 7.75741 11.194L11.1515 7.7999ZM9.45447 12.0425L12.0001 9.49696L14.5456 12.0425L12.0001 14.5881L9.45447 12.0425Z" fill="#FFA800"/>
    <path fill-rule="evenodd" clip-rule="evenodd" d="M12 21.5999C17.3019 21.5999 21.6 17.3018 21.6 11.9999C21.6 6.69797 17.3019 2.3999 12 2.3999C6.69806 2.3999 2.39999 6.69797 2.39999 11.9999C2.39999 17.3018 6.69806 21.5999 12 21.5999ZM19.8 11.9999C19.8 16.3077 16.3078 19.7999 12 19.7999C7.69217 19.7999 4.19999 16.3077 4.19999 11.9999C4.19999 7.69208 7.69217 4.1999 12 4.1999C16.3078 4.1999 19.8 7.69208 19.8 11.9999Z" fill="#FFA800"/>
</svg>
