<svg width="10" height="15" viewBox="0 0 10 15" fill="none" xmlns="http://www.w3.org/2000/svg">
    <path fill-rule="evenodd" clip-rule="evenodd" d="M9.67459 5.2722C10.1085 5.70178 10.1085 6.39826 9.67456 6.82783L5.78563 10.6778C5.35173 11.1074 4.64826 11.1074 4.21437 10.6778L0.325443 6.82783C-0.108468 6.39826 -0.108483 5.70178 0.325411 5.2722C0.759305 4.84261 1.4628 4.8426 1.89671 5.27217L5 8.3444L8.10329 5.27217C8.5372 4.8426 9.24069 4.84261 9.67459 5.2722Z" fill="#808085"/>
    <path fill-rule="evenodd" clip-rule="evenodd" d="M4.99959 0C5.61322 2.65552e-08 6.11067 0.492487 6.11067 1.1L6.11069 9.9C6.11069 10.5075 5.61324 11 4.99961 11C4.38598 11 3.88854 10.5075 3.88854 9.9L3.88851 1.1C3.88851 0.492487 4.38596 -2.65552e-08 4.99959 0Z" fill="#808085"/>
    <path fill-rule="evenodd" clip-rule="evenodd" d="M10 14C10 14.5523 9.55228 15 9 15L1.00021 15C0.447926 15 0.000209847 14.5523 0.000209896 14C0.000209944 13.4477 0.447926 13 1.00021 13L9 13C9.55228 13 10 13.4477 10 14Z" fill="#808085"/>
</svg>
