<svg width="20" height="20" viewBox="0 0 20 20" fill="none" xmlns="http://www.w3.org/2000/svg">
    <path d="M18.6485 2.0253C18.857 1.73601 18.6871 1.48144 18.6408 1.42744C18.6408 1.42744 18.6331 1.43515 18.6331 1.43901C18.6331 1.43515 18.6369 1.42743 18.6408 1.42358C18.5558 1.32329 18.4362 1.25386 18.2624 1.25C18.1157 1.25386 17.9767 1.31944 17.8879 1.43901L16.247 3.56045C16.1659 3.67231 16.1157 3.75331 16.0887 3.81117H3.91901C3.89198 3.75331 3.84179 3.67231 3.76071 3.56045L2.1198 1.43901C2.031 1.31944 1.89201 1.25386 1.74529 1.25C1.57155 1.25386 1.45185 1.32329 1.36691 1.42358V1.42744L1.36305 1.43129C1.36305 1.43129 1.35919 1.439 1.35533 1.44286C1.35147 1.44672 1.35147 1.45058 1.34761 1.45444C1.2897 1.53158 1.15842 1.76302 1.35147 2.03302L2.95377 4.10432C2.74528 4.28175 2.61786 4.52474 2.61786 4.79474V7.07819C2.61786 7.62205 3.13522 8.05792 3.77614 8.05792H16.1312C16.7721 8.05792 17.2895 7.62205 17.2895 7.07819V4.79474C17.2895 4.54788 17.1775 4.32418 17.0038 4.15446H17.0076L18.6485 2.0253ZM6.23943 7.47548C5.52129 7.47548 4.93443 6.89305 4.93443 6.17176C4.93443 5.45046 5.51743 4.86803 6.23943 4.86803C6.96143 4.86803 7.54443 5.45046 7.54443 6.17176C7.54443 6.89305 6.96143 7.47548 6.23943 7.47548ZM13.7683 7.47548C13.0501 7.47548 12.4633 6.89305 12.4633 6.17176C12.4633 5.45046 13.0463 4.86803 13.7683 4.86803C14.4903 4.86803 15.0733 5.45046 15.0733 6.17176C15.0733 6.89305 14.4903 7.47548 13.7683 7.47548Z" fill="#808085"/>
    <path d="M9.89962 11.3249C8.78766 11.3249 7.84559 12.0887 7.57147 13.1185H8.81083C9.02318 12.7367 9.42858 12.4821 9.89962 12.4821C10.5984 12.4821 11.1544 13.0375 11.1544 13.7357C11.1544 14.4338 10.5984 14.9893 9.89962 14.9893C9.39383 14.9893 8.96913 14.7 8.76836 14.2757H7.55217C7.79927 15.3441 8.76064 16.1464 9.89962 16.1464C11.2239 16.1464 12.3127 15.0587 12.3127 13.7357C12.3127 12.4127 11.2239 11.3249 9.89962 11.3249Z" fill="#808085"/>
    <path d="M16.0771 8.72135H3.7221C3.08118 8.72135 2.56382 9.23821 2.56382 9.8785V17.5928C2.56382 18.2331 3.08118 18.75 3.7221 18.75H16.0771C16.7181 18.75 17.2354 18.2331 17.2354 17.5928V9.8785C17.2354 9.23821 16.7181 8.72135 16.0771 8.72135ZM13.5868 13.7357C13.5868 15.7684 11.9343 17.4193 9.89962 17.4193C7.8649 17.4193 6.21242 15.7684 6.21242 13.7357C6.21242 11.7029 7.86104 10.0521 9.89962 10.0521C11.9343 10.0521 13.5868 11.6991 13.5868 13.7357Z" fill="#808085"/>
</svg>
