<svg width="20" height="20" viewBox="0 0 20 20" fill="none" xmlns="http://www.w3.org/2000/svg">
    <g clip-path="url(#clip0_13958_238205)">
        <path fill-rule="evenodd" clip-rule="evenodd" d="M10 0C4.47507 0 0 4.47833 0 10.0073C0 14.4331 2.86089 18.176 6.83727 19.5024C7.33596 19.5812 7.53281 19.2923 7.53281 19.0296C7.53281 18.7932 7.51968 18.0053 7.51968 17.1648C5.01312 17.6244 4.35696 16.5475 4.1601 15.9959C4.04199 15.707 3.55643 14.814 3.13648 14.5776C2.78215 14.3937 2.28346 13.9209 3.12336 13.9078C3.91076 13.8947 4.47507 14.6301 4.65879 14.9322C5.5643 16.4424 6.99475 16.0222 7.57218 15.7595C7.66404 15.116 7.92651 14.6695 8.21522 14.42C5.99738 14.1704 3.66142 13.3037 3.66142 9.48199C3.66142 8.39195 4.05512 7.48578 4.68504 6.78973C4.58005 6.54021 4.23884 5.51584 4.79003 4.13688C4.79003 4.13688 5.62992 3.87422 7.54593 5.16125C8.34646 4.93799 9.19947 4.81979 10.0394 4.81979C10.8924 4.81979 11.7323 4.93799 12.5328 5.16125C14.4488 3.86109 15.2756 4.13688 15.2756 4.13688C15.8268 5.51584 15.4724 6.54021 15.3806 6.78973C16.0236 7.48578 16.4042 8.37882 16.4042 9.48199C16.4042 13.3168 14.0682 14.1704 11.8373 14.42C12.2047 14.7352 12.5197 15.3261 12.5197 16.2717C12.5197 17.6113 12.5066 18.6882 12.5066 19.0165C12.5066 19.2792 12.6903 19.5943 13.189 19.4893C17.2572 18.1103 20 14.2886 20 9.99417C20 4.47833 15.5249 0 10 0Z" fill="#808085"/>
    </g>
    <defs>
        <clipPath id="clip0_13958_238205">
            <rect width="20" height="20" fill="white"/>
        </clipPath>
    </defs>
</svg>
