<svg width="20" height="20" viewBox="0 0 20 20" fill="none" xmlns="http://www.w3.org/2000/svg">
    <path d="M18.7002 8.19308L18.676 8.12835L16.2261 1.73622C16.1765 1.61071 16.0883 1.50423 15.9742 1.43221C15.889 1.3777 15.7923 1.34389 15.6918 1.3335C15.5912 1.32312 15.4896 1.33643 15.3951 1.37239C15.3007 1.40835 15.2159 1.46595 15.1477 1.54057C15.0795 1.6152 15.0297 1.70477 15.0023 1.8021L13.3487 6.8661H6.65195L4.99828 1.8021C4.9707 1.70491 4.92079 1.61551 4.85254 1.54103C4.78429 1.46655 4.69958 1.40905 4.60518 1.37312C4.51078 1.33719 4.40929 1.32383 4.3088 1.33409C4.20832 1.34434 4.11162 1.37795 4.02642 1.43221C3.91232 1.50423 3.82408 1.61071 3.7745 1.73622L1.32578 8.1295L1.30036 8.19308C0.947812 9.11468 0.90438 10.126 1.17661 11.0744C1.44883 12.0229 2.02196 12.8571 2.80957 13.4513L2.81882 13.4582L2.83962 13.4744L6.56643 16.2682L8.41539 17.6657L9.53864 18.5153C9.67043 18.6148 9.83109 18.6687 9.99625 18.6687C10.1614 18.6687 10.3221 18.6148 10.4539 18.5153L11.5771 17.6657L13.4261 16.2682L17.1795 13.4582L17.1899 13.4501C17.9774 12.8561 18.5506 12.0222 18.8231 11.074C19.0955 10.1258 19.0524 9.11465 18.7002 8.19308Z" fill="#808085"/>
</svg>
