<svg width="24" height="24" viewBox="0 0 24 24" fill="none" xmlns="http://www.w3.org/2000/svg">
    <path fill-rule="evenodd" clip-rule="evenodd" d="M21.6 11.9999C21.6 17.3018 17.3019 21.5999 12 21.5999C6.69807 21.5999 2.4 17.3018 2.4 11.9999C2.4 6.69797 6.69807 2.3999 12 2.3999C17.3019 2.3999 21.6 6.69797 21.6 11.9999ZM14.3924 19.4262C17.2549 18.5047 19.3954 15.9742 19.7486 12.8999H16.4732C16.3273 15.3331 15.5912 17.54 14.3924 19.4262ZM9.60763 19.4262C6.74512 18.5047 4.60456 15.9742 4.25136 12.8999H7.5268C7.67266 15.3331 8.40884 17.54 9.60763 19.4262ZM9.33048 12.8999C9.50985 15.5255 10.4727 17.8215 12 19.6579C13.5273 17.8215 14.4902 15.5255 14.6695 12.8999H9.33048ZM14.6695 11.0999H9.33048C9.50984 8.47433 10.4727 6.17831 12 4.34189C13.5273 6.17831 14.4902 8.47433 14.6695 11.0999ZM16.4732 11.0999H19.7486C19.3954 8.02566 17.2549 5.49511 14.3924 4.57365C15.5912 6.4598 16.3274 8.66671 16.4732 11.0999ZM9.6076 4.57365C8.40882 6.4598 7.67265 8.66671 7.52679 11.0999H4.25136C4.60456 8.02566 6.74511 5.49511 9.6076 4.57365Z" fill="#FFA800"/>
</svg>
