<svg width="16" height="16" viewBox="0 0 16 16" fill="none" xmlns="http://www.w3.org/2000/svg">
    <path d="M0.757957 0.0107518C1.06819 -0.0278162 1.38278 0.0380765 1.64787 0.197149L10.686 5.1167L8.39867 7.3335L0.757957 0.0107518ZM0.0627145 0.676456C0.0191272 0.821387 -0.00195587 0.97167 0.000142523 1.12248V14.8759C-0.00195587 15.0267 0.0191272 15.177 0.0627145 15.3219L7.71038 7.9992L0.0627145 0.676456ZM8.40562 8.6649L0.757957 15.9876C1.06834 16.0297 1.38417 15.9636 1.64787 15.8013L10.686 10.8817L8.40562 8.6649ZM11.5898 5.61598L9.08696 7.9992L11.5829 10.3891L14.3221 8.8979C15.226 8.40528 15.226 7.59312 14.3221 7.1005L11.5898 5.61598Z" fill="#13151A"/>
</svg>
