<svg width="24" height="24" viewBox="0 0 24 24" fill="none" xmlns="http://www.w3.org/2000/svg">
    <path d="M7.5602 4.72719C7.59358 4.59364 7.71358 4.49995 7.85124 4.49995H8.71431C8.80873 4.49995 8.89765 4.54441 8.95431 4.61995L10.9943 7.33995C11.2925 7.7376 11.8567 7.81818 12.2543 7.51995C12.652 7.22172 12.7325 6.6576 12.4343 6.25995L10.3943 3.53995C9.99771 3.01116 9.3753 2.69995 8.71431 2.69995H7.85124C6.88762 2.69995 6.04765 3.35578 5.81394 4.29063L4.44118 9.78167C4.43131 9.82112 4.42422 9.86062 4.41977 9.89995H3.00001C2.50295 9.89995 2.10001 10.3029 2.10001 10.8C2.10001 11.297 2.50295 11.7 3.00001 11.7H21C21.4971 11.7 21.9 11.297 21.9 10.8C21.9 10.3029 21.4971 9.89995 21 9.89995H19.4945C19.4901 9.86062 19.483 9.82112 19.4731 9.78167L18.1004 4.29063C17.8667 3.35578 17.0267 2.69995 16.0631 2.69995H14.6C14.103 2.69995 13.7 3.10289 13.7 3.59995C13.7 4.09701 14.103 4.49995 14.6 4.49995H16.0631C16.2007 4.49995 16.3207 4.59364 16.3541 4.72719L17.6473 9.89995H6.267L7.5602 4.72719Z" fill="#FFA800"/>
    <path fill-rule="evenodd" clip-rule="evenodd" d="M6.80001 13.5C4.53564 13.5 2.70001 15.3356 2.70001 17.6C2.70001 19.8643 4.53564 21.7 6.80001 21.7C9.01156 21.7 10.8141 19.9489 10.897 17.7577L11.8658 17.2733C11.9503 17.231 12.0497 17.231 12.1342 17.2733L13.103 17.7577C13.1859 19.949 14.9885 21.7 17.2 21.7C19.4644 21.7 21.3 19.8643 21.3 17.6C21.3 15.3356 19.4644 13.5 17.2 13.5C15.5333 13.5 14.0988 14.4945 13.4577 15.9226L12.9392 15.6633C12.3479 15.3677 11.6521 15.3677 11.0609 15.6633L10.5423 15.9226C9.90123 14.4945 8.46677 13.5 6.80001 13.5ZM4.50001 17.6C4.50001 16.3297 5.52975 15.3 6.80001 15.3C8.07026 15.3 9.10001 16.3297 9.10001 17.6C9.10001 18.8702 8.07026 19.9 6.80001 19.9C5.52975 19.9 4.50001 18.8702 4.50001 17.6ZM17.2 15.3C15.9298 15.3 14.9 16.3297 14.9 17.6C14.9 18.8702 15.9298 19.9 17.2 19.9C18.4703 19.9 19.5 18.8702 19.5 17.6C19.5 16.3297 18.4703 15.3 17.2 15.3Z" fill="#FFA800"/>
</svg>
