<svg width="30" height="30" viewBox="0 0 30 30" fill="none" xmlns="http://www.w3.org/2000/svg">
    <path d="M10 30L1 30C0.447716 30 -3.91405e-08 29.5523 -8.74228e-08 29L-8.74228e-07 20L5.17157 20C5.702 20 6.21071 20.2107 6.58579 20.5858L9.41421 23.4142C9.78929 23.7893 10 24.298 10 24.8284L10 30Z" fill="#808085"/>
    <path d="M20 0H29C29.5523 0 30 0.447715 30 1V10H24.8284C24.298 10 23.7893 9.78929 23.4142 9.41421L20.5858 6.58579C20.2107 6.21071 20 5.70201 20 5.17157L20 0Z" fill="#808085"/>
    <path d="M29.9999 28.9999C29.9999 29.5522 29.5522 29.9999 28.9999 29.9999H19.9999V20.9999C19.9999 20.4476 19.5522 19.9999 18.9999 19.9999L10.8284 19.9999C10.298 19.9999 9.78926 19.7892 9.41418 19.4141L0.585787 10.5858C0.210714 10.2107 7.33521e-07 9.70197 6.88809e-07 9.17154L0 1C-4.65541e-08 0.447716 0.447715 8.05195e-07 1 7.5864e-07L9.99997 0L9.99997 8.99997C9.99997 9.55225 10.4477 9.99997 11 9.99997L19.1715 9.99997C19.7019 9.99997 20.2106 10.2107 20.5857 10.5858L29.4141 19.4141C29.7892 19.7892 29.9999 20.2979 29.9999 20.8284V28.9999Z" fill="#808085"/>
</svg>
