<svg width="48" height="48" viewBox="0 0 48 48" fill="none" xmlns="http://www.w3.org/2000/svg">
    <path d="M26 32C26 30.8954 25.1046 30 24 30C22.8954 30 22 30.8954 22 32V36C22 37.1046 22.8954 38 24 38C25.1046 38 26 37.1046 26 36V32Z" fill="#05C46B"/>
    <path fill-rule="evenodd" clip-rule="evenodd" d="M24 6C21.3841 6 19.0616 7.25349 17.5986 9.20116C16.8993 10.1322 16.3997 11.2185 16.1603 12.3979C15.9406 13.4804 14.8849 14.1798 13.8024 13.96C12.7199 13.7403 12.0205 12.6846 12.2403 11.6021C12.6008 9.82601 13.3529 8.19341 14.4004 6.79884C16.5863 3.88872 20.0727 2 24 2C27.9273 2 31.414 3.88868 33.5999 6.79884C35.1065 8.80462 36 11.3008 36 14V22C39.3137 22 42 24.6863 42 28V40C42 43.3137 39.3137 46 36 46H12C8.68629 46 6 43.3137 6 40V28C6 24.6863 8.68629 22 12 22H32V14C32 12.1967 31.4058 10.538 30.4016 9.20116C28.9387 7.25353 26.616 6 24 6ZM12 26H36C37.1046 26 38 26.8954 38 28V40C38 41.1046 37.1046 42 36 42H12C10.8954 42 10 41.1046 10 40V28C10 26.8954 10.8954 26 12 26Z" fill="#05C46B"/>
</svg>
