<svg width="32" height="32" viewBox="0 0 32 32" fill="none" xmlns="http://www.w3.org/2000/svg">
    <rect width="32" height="32" rx="8" fill="#3396FF"/>
    <path d="M9.62377 11.98C13.1452 8.54053 18.8533 8.54053 22.3792 11.98L22.8029 12.3934C22.9806 12.5661 22.9806 12.8432 22.8029 13.0159L21.3542 14.4335C21.2677 14.5198 21.1219 14.5198 21.0353 14.4335L20.4522 13.8655C17.9968 11.4665 14.0107 11.4665 11.5553 13.8655L10.9312 14.4743C10.8446 14.5607 10.6989 14.5607 10.6123 14.4743L9.1591 13.0568C8.98144 12.8841 8.98144 12.607 9.1591 12.4343L9.62377 11.98ZM25.3768 14.906L26.666 16.1645C26.8436 16.3372 26.8436 16.6143 26.666 16.787L20.8486 22.4709C20.6709 22.6436 20.3885 22.6436 20.2108 22.4709L16.0789 18.4363C16.0334 18.3954 15.9651 18.3954 15.9195 18.4363L11.7922 22.4709C11.6145 22.6436 11.3321 22.6436 11.1544 22.4709L5.33247 16.7915C5.1548 16.6189 5.1548 16.3417 5.33247 16.1691L6.62168 14.9105C6.79935 14.7379 7.08179 14.7379 7.25945 14.9105L11.3913 18.9451C11.4369 18.986 11.5052 18.986 11.5508 18.9451L15.6781 14.9105C15.8557 14.7379 16.1382 14.7379 16.3158 14.9105L20.4477 18.9451C20.4932 18.986 20.5616 18.986 20.6071 18.9451L24.739 14.9105C24.9121 14.7333 25.1991 14.7333 25.3768 14.906Z" fill="white"/>
</svg>
