<svg width="24" height="24" viewBox="0 0 24 24" fill="none" xmlns="http://www.w3.org/2000/svg">
    <path fill-rule="evenodd" clip-rule="evenodd" d="M2.40002 6.3001V18.0001C2.40002 19.3256 3.47454 20.4001 4.80002 20.4001H19.2C20.5255 20.4001 21.6 19.3256 21.6 18.0001V9.6001C21.6 8.27461 20.5255 7.2001 19.2 7.2001H18V6.0001C18 4.67461 16.9255 3.6001 15.6 3.6001H5.10002C3.60886 3.6001 2.40002 4.80893 2.40002 6.3001ZM16.2 7.2001V6.0001C16.2 5.66873 15.9314 5.4001 15.6 5.4001H5.10002C4.60297 5.4001 4.20002 5.80304 4.20002 6.3001C4.20002 6.79715 4.60297 7.2001 5.10002 7.2001H16.2ZM19.8 10.8001V9.6001C19.8 9.26873 19.5314 9.0001 19.2 9.0001H4.20002V18.0001C4.20002 18.3315 4.46865 18.6001 4.80002 18.6001H19.2C19.5314 18.6001 19.8 18.3315 19.8 18.0001V16.8001H18.6C16.9432 16.8001 15.6 15.457 15.6 13.8001C15.6 12.1432 16.9432 10.8001 18.6 10.8001H19.8ZM19.8 15.0001V12.6001H18.6C17.9373 12.6001 17.4 13.1374 17.4 13.8001C17.4 14.4628 17.9373 15.0001 18.6 15.0001H19.8Z" fill="#FFA800"/>
</svg>
