<svg width="110" height="43" viewBox="0 0 110 43" fill="none" xmlns="http://www.w3.org/2000/svg">
    <path d="M39.0266 17.8203H37.1634V23.5851C37.1634 25.5499 38.6132 26.8907 40.8959 26.8907C43.1725 26.8907 44.6223 25.5499 44.6223 23.5851V17.8203H42.7591V23.3997C42.7591 24.5428 42.0866 25.2904 40.8959 25.2904C39.6991 25.2904 39.0266 24.5428 39.0266 23.3997V17.8203Z" fill="#F5F5F5"/>
    <path d="M45.9549 26.7362H47.7564V22.9363C47.7564 22.0775 48.2684 21.4843 49.0766 21.4843C49.8848 21.4843 50.292 21.9786 50.292 22.8436V26.7362H52.0935V22.4667C52.0935 20.9159 51.2668 19.989 49.7984 19.989C48.7805 19.989 48.0833 20.471 47.7317 21.2928H47.6947V20.1126H45.9549V26.7362Z" fill="#F5F5F5"/>
    <path d="M53.1238 22.0589C53.1238 23.0537 53.7716 23.6963 55.0486 23.9681L56.1777 24.2029C56.8254 24.3512 57.0537 24.5489 57.0537 24.9011C57.0537 25.3336 56.6342 25.6117 55.9556 25.6117C55.2399 25.6117 54.8265 25.3027 54.7155 24.7219H52.9572C53.0744 26.0257 54.1294 26.8783 55.9556 26.8783C57.6583 26.8783 58.849 26.0195 58.849 24.7158C58.849 23.7457 58.2814 23.202 56.8995 22.9116L55.7705 22.6706C55.1042 22.5285 54.8574 22.2999 54.8574 21.9601C54.8574 21.5214 55.2707 21.2371 55.8939 21.2371C56.5602 21.2371 56.9612 21.6017 57.0167 22.1392H58.6763C58.6393 20.8417 57.5905 19.9705 55.8939 19.9705C54.2096 19.9705 53.1238 20.7985 53.1238 22.0589Z" fill="#F5F5F5"/>
    <path d="M60.2186 18.5865V20.1126H59.2871V21.4719H60.2186V24.9506C60.2186 26.2419 60.8232 26.7609 62.378 26.7609C62.7419 26.7609 63.0504 26.73 63.2355 26.6868V25.3584C63.1245 25.3769 62.9579 25.3892 62.7975 25.3892C62.2669 25.3892 62.0201 25.1483 62.0201 24.6416V21.4719H63.2417V20.1126H62.0201V18.5865H60.2186Z" fill="#F5F5F5"/>
    <path d="M67.1654 26.8783C69.1643 26.8783 70.4414 25.5993 70.4414 23.4182C70.4414 21.268 69.1458 19.9705 67.1654 19.9705C65.185 19.9705 63.8895 21.2742 63.8895 23.4182C63.8895 25.5931 65.1665 26.8783 67.1654 26.8783ZM67.1654 25.5005C66.277 25.5005 65.7156 24.7528 65.7156 23.4244C65.7156 22.1083 66.2894 21.3484 67.1654 21.3484C68.0415 21.3484 68.6091 22.1083 68.6091 23.4244C68.6091 24.7528 68.0477 25.5005 67.1654 25.5005Z" fill="#F5F5F5"/>
    <path d="M75.2351 20.0076C74.2788 20.0076 73.5447 20.4895 73.1868 21.268H73.1498V20.1126H71.373V28.8988H73.1745V25.624H73.2115C73.5632 26.3717 74.3035 26.8412 75.2659 26.8412C76.9193 26.8412 77.9435 25.5561 77.9435 23.4244C77.9435 21.2866 76.9132 20.0076 75.2351 20.0076ZM74.6305 25.3892C73.7482 25.3892 73.1683 24.6231 73.1683 23.4244C73.1683 22.2381 73.7482 21.4534 74.6305 21.4534C75.5312 21.4534 76.0988 22.2257 76.0988 23.4244C76.0988 24.6293 75.5312 25.3892 74.6305 25.3892Z" fill="#F5F5F5"/>
    <path d="M82.7371 20.0076C81.7809 20.0076 81.0467 20.4895 80.6889 21.268H80.6519V20.1126H78.8751V28.8988H80.6765V25.624H80.7136C81.0652 26.3717 81.8055 26.8412 82.768 26.8412C84.4214 26.8412 85.4455 25.5561 85.4455 23.4244C85.4455 21.2866 84.4152 20.0076 82.7371 20.0076ZM82.1325 25.3892C81.2503 25.3892 80.6704 24.6231 80.6704 23.4244C80.6704 22.2381 81.2503 21.4534 82.1325 21.4534C83.0333 21.4534 83.6008 22.2257 83.6008 23.4244C83.6008 24.6293 83.0333 25.3892 82.1325 25.3892Z" fill="#F5F5F5"/>
    <path d="M88.9313 25.5375C88.3205 25.5375 87.9133 25.2286 87.9133 24.7343C87.9133 24.2647 88.2958 23.962 88.9683 23.9125L90.3626 23.826V24.308C90.3626 25.0247 89.7148 25.5375 88.9313 25.5375ZM88.339 26.8412C89.1657 26.8412 89.9862 26.4273 90.3564 25.7229H90.3934V26.7362H92.1332V22.1825C92.1332 20.8479 91.0289 19.9705 89.3323 19.9705C87.5801 19.9705 86.4882 20.8541 86.4203 22.1392H88.0675C88.1539 21.6511 88.5796 21.3175 89.2521 21.3175C89.9307 21.3175 90.3626 21.6758 90.3626 22.2937V22.7324L88.6968 22.8313C87.0496 22.9301 86.1242 23.6283 86.1242 24.8332C86.1242 26.0257 87.0804 26.8412 88.339 26.8412Z" fill="#F5F5F5"/>
    <path d="M97.2292 26.8412C98.8949 26.8412 99.9129 25.5561 99.9129 23.4244C99.9129 21.2866 98.8887 20.0076 97.223 20.0076C96.2791 20.0076 95.5449 20.4772 95.1809 21.2619H95.1439V17.8203H93.3424V26.7362H95.1192V25.5993H95.1562C95.5202 26.3717 96.2606 26.8412 97.2292 26.8412ZM96.606 21.4534C97.5006 21.4534 98.0682 22.2196 98.0682 23.4244C98.0682 24.6354 97.5068 25.3892 96.606 25.3892C95.73 25.3892 95.1377 24.6231 95.1377 23.4244C95.1377 22.2381 95.7362 21.4534 96.606 21.4534Z" fill="#F5F5F5"/>
    <path d="M100.894 26.7362H102.695V17.8203H100.894V26.7362Z" fill="#F5F5F5"/>
    <path d="M106.878 21.3051C107.68 21.3051 108.229 21.8859 108.266 22.7324H105.459C105.521 21.9044 106.088 21.3051 106.878 21.3051ZM108.291 24.7096C108.124 25.2162 107.619 25.5437 106.958 25.5437C106.039 25.5437 105.441 24.8949 105.441 23.9496V23.8384H110V23.2885C110 21.2742 108.785 19.9705 106.86 19.9705C104.904 19.9705 103.67 21.3422 103.67 23.4553C103.67 25.5746 104.892 26.8783 106.928 26.8783C108.562 26.8783 109.747 26.0071 109.944 24.7096H108.291Z" fill="#F5F5F5"/>
    <path d="M42.2137 35.9032H42.2692L43.9596 41.9955H45.7179L48.0808 33.0796H46.1498L44.7431 39.5363H44.6938L43.028 33.0796H41.4548L39.7891 39.5363H39.7397L38.3392 33.0796H36.4082L38.7649 41.9955H40.5232L42.2137 35.9032Z" fill="#F5F5F5"/>
    <path d="M50.6473 40.7968C50.0365 40.7968 49.6293 40.4879 49.6293 39.9936C49.6293 39.524 50.0118 39.2212 50.6843 39.1718L52.0786 39.0853V39.5672C52.0786 40.284 51.4308 40.7968 50.6473 40.7968ZM50.055 42.1005C50.8817 42.1005 51.7023 41.6865 52.0724 40.9822H52.1094V41.9955H53.8492V37.4417C53.8492 36.1071 52.7449 35.2298 51.0483 35.2298C49.2962 35.2298 48.2042 36.1133 48.1363 37.3985H49.7836C49.8699 36.9104 50.2956 36.5767 50.9681 36.5767C51.6467 36.5767 52.0786 36.9351 52.0786 37.553V37.9916L50.4128 38.0905C48.7656 38.1894 47.8402 38.8876 47.8402 40.0924C47.8402 41.2849 48.7965 42.1005 50.055 42.1005Z" fill="#F5F5F5"/>
    <path d="M55.0584 41.9955H56.8599V33.0796H55.0584V41.9955Z" fill="#F5F5F5"/>
    <path d="M58.1185 41.9955H59.92V33.0796H58.1185V41.9955Z" fill="#F5F5F5"/>
    <path d="M64.1029 36.5644C64.9049 36.5644 65.454 37.1452 65.491 37.9916H62.6839C62.7456 37.1637 63.3132 36.5644 64.1029 36.5644ZM65.5157 39.9688C65.3491 40.4755 64.8432 40.803 64.1831 40.803C63.2638 40.803 62.6654 40.1542 62.6654 39.2089V39.0976H67.2246V38.5477C67.2246 36.5335 66.0092 35.2298 64.0843 35.2298C62.1286 35.2298 60.8947 36.6014 60.8947 38.7146C60.8947 40.8339 62.1163 42.1376 64.1522 42.1376C65.7871 42.1376 66.9716 41.2664 67.1691 39.9688H65.5157Z" fill="#F5F5F5"/>
    <path d="M68.6374 33.8457V35.3719H67.7058V36.7312H68.6374V40.2098C68.6374 41.5012 69.242 42.0202 70.7967 42.0202C71.1607 42.0202 71.4692 41.9893 71.6543 41.946V40.6176C71.5432 40.6361 71.3766 40.6485 71.2162 40.6485C70.6857 40.6485 70.4389 40.4075 70.4389 39.9009V36.7312H71.6604V35.3719H70.4389V33.8457H68.6374Z" fill="#F5F5F5"/>
    <path d="M12.5493 31.1986C12.5493 32.3728 11.6131 33.324 10.4578 33.324C9.3024 33.324 8.36622 32.3728 8.36622 31.1986L8.36621 0H0L4.98665e-06 31.1986C4.98665e-06 37.0702 4.68174 41.8308 10.4578 41.8308C16.233 41.8308 20.9155 37.0702 20.9155 31.1986L20.9155 0H12.5493L12.5493 31.1986Z" fill="#FFA800"/>
</svg>
