<svg width="127" height="34" viewBox="0 0 127 34" fill="none" xmlns="http://www.w3.org/2000/svg">
<path d="M47.53 1.68H48.97V7.224H49.042C49.27 6.696 49.588 6.276 49.996 5.964C50.416 5.652 50.974 5.496 51.67 5.496C52.63 5.496 53.386 5.808 53.938 6.432C54.502 7.044 54.784 7.914 54.784 9.042V15H53.344V9.294C53.344 7.626 52.642 6.792 51.238 6.792C50.95 6.792 50.668 6.828 50.392 6.9C50.128 6.972 49.888 7.08 49.672 7.224C49.456 7.368 49.282 7.554 49.15 7.782C49.03 7.998 48.97 8.256 48.97 8.556V15H47.53V1.68Z" fill="#808085"/>
<path d="M61.2705 15.216C60.6465 15.216 60.0765 15.102 59.5605 14.874C59.0445 14.646 58.6005 14.322 58.2285 13.902C57.8685 13.47 57.5865 12.96 57.3825 12.372C57.1785 11.772 57.0765 11.1 57.0765 10.356C57.0765 9.624 57.1785 8.958 57.3825 8.358C57.5865 7.758 57.8685 7.248 58.2285 6.828C58.6005 6.396 59.0445 6.066 59.5605 5.838C60.0765 5.61 60.6465 5.496 61.2705 5.496C61.8945 5.496 62.4585 5.61 62.9625 5.838C63.4785 6.066 63.9225 6.396 64.2945 6.828C64.6665 7.248 64.9545 7.758 65.1585 8.358C65.3625 8.958 65.4645 9.624 65.4645 10.356C65.4645 11.1 65.3625 11.772 65.1585 12.372C64.9545 12.96 64.6665 13.47 64.2945 13.902C63.9225 14.322 63.4785 14.646 62.9625 14.874C62.4585 15.102 61.8945 15.216 61.2705 15.216ZM61.2705 13.938C62.0505 13.938 62.6865 13.698 63.1785 13.218C63.6705 12.738 63.9165 12.006 63.9165 11.022V9.69C63.9165 8.706 63.6705 7.974 63.1785 7.494C62.6865 7.014 62.0505 6.774 61.2705 6.774C60.4905 6.774 59.8545 7.014 59.3625 7.494C58.8705 7.974 58.6245 8.706 58.6245 9.69V11.022C58.6245 12.006 58.8705 12.738 59.3625 13.218C59.8545 13.698 60.4905 13.938 61.2705 13.938Z" fill="#808085"/>
<path d="M67.8327 15V5.712H69.2727V7.422H69.3627C69.5307 6.978 69.8307 6.582 70.2627 6.234C70.6947 5.886 71.2887 5.712 72.0447 5.712H72.6027V7.152H71.7567C70.9767 7.152 70.3647 7.302 69.9207 7.602C69.4887 7.89 69.2727 8.256 69.2727 8.7V15H67.8327Z" fill="#808085"/>
<path d="M75.1621 3.534C74.8501 3.534 74.6221 3.462 74.4781 3.318C74.3461 3.162 74.2801 2.964 74.2801 2.724V2.49C74.2801 2.25 74.3461 2.058 74.4781 1.914C74.6221 1.758 74.8501 1.68 75.1621 1.68C75.4741 1.68 75.6961 1.758 75.8281 1.914C75.9721 2.058 76.0441 2.25 76.0441 2.49V2.724C76.0441 2.964 75.9721 3.162 75.8281 3.318C75.6961 3.462 75.4741 3.534 75.1621 3.534ZM74.4421 5.712H75.8821V15H74.4421V5.712Z" fill="#808085"/>
<path d="M78.0061 15V13.794L83.2801 6.972H78.1681V5.712H85.0261V6.792L79.6441 13.74H85.1701V15H78.0061Z" fill="#808085"/>
<path d="M90.6259 15.216C90.0019 15.216 89.4319 15.102 88.9159 14.874C88.3999 14.646 87.9559 14.322 87.5839 13.902C87.2239 13.47 86.9419 12.96 86.7379 12.372C86.5339 11.772 86.4319 11.1 86.4319 10.356C86.4319 9.624 86.5339 8.958 86.7379 8.358C86.9419 7.758 87.2239 7.248 87.5839 6.828C87.9559 6.396 88.3999 6.066 88.9159 5.838C89.4319 5.61 90.0019 5.496 90.6259 5.496C91.2499 5.496 91.8139 5.61 92.3179 5.838C92.8339 6.066 93.2779 6.396 93.6499 6.828C94.0219 7.248 94.3099 7.758 94.5139 8.358C94.7179 8.958 94.8199 9.624 94.8199 10.356C94.8199 11.1 94.7179 11.772 94.5139 12.372C94.3099 12.96 94.0219 13.47 93.6499 13.902C93.2779 14.322 92.8339 14.646 92.3179 14.874C91.8139 15.102 91.2499 15.216 90.6259 15.216ZM90.6259 13.938C91.4059 13.938 92.0419 13.698 92.5339 13.218C93.0259 12.738 93.2719 12.006 93.2719 11.022V9.69C93.2719 8.706 93.0259 7.974 92.5339 7.494C92.0419 7.014 91.4059 6.774 90.6259 6.774C89.8459 6.774 89.2099 7.014 88.7179 7.494C88.2259 7.974 87.9799 8.706 87.9799 9.69V11.022C87.9799 12.006 88.2259 12.738 88.7179 13.218C89.2099 13.698 89.8459 13.938 90.6259 13.938Z" fill="#808085"/>
<path d="M97.1882 15V5.712H98.6282V7.224H98.7002C98.9282 6.696 99.2462 6.276 99.6542 5.964C100.074 5.652 100.632 5.496 101.328 5.496C102.288 5.496 103.044 5.808 103.596 6.432C104.16 7.044 104.442 7.914 104.442 9.042V15H103.002V9.294C103.002 7.626 102.3 6.792 100.896 6.792C100.608 6.792 100.326 6.828 100.05 6.9C99.7862 6.972 99.5462 7.08 99.3302 7.224C99.1142 7.368 98.9402 7.554 98.8082 7.782C98.6882 7.998 98.6282 8.256 98.6282 8.556V15H97.1882Z" fill="#808085"/>
<path d="M109.471 15C108.967 15 108.583 14.862 108.319 14.586C108.067 14.298 107.941 13.926 107.941 13.47V6.972H106.411V5.712H107.275C107.587 5.712 107.797 5.652 107.905 5.532C108.025 5.4 108.085 5.178 108.085 4.866V3.138H109.381V5.712H111.415V6.972H109.381V13.74H111.271V15H109.471Z" fill="#808085"/>
<path d="M120.479 15C119.939 15 119.549 14.856 119.309 14.568C119.081 14.28 118.937 13.92 118.877 13.488H118.787C118.583 14.064 118.247 14.496 117.779 14.784C117.311 15.072 116.753 15.216 116.105 15.216C115.121 15.216 114.353 14.964 113.801 14.46C113.261 13.956 112.991 13.272 112.991 12.408C112.991 11.532 113.309 10.86 113.945 10.392C114.593 9.924 115.595 9.69 116.951 9.69H118.787V8.772C118.787 8.112 118.607 7.608 118.247 7.26C117.887 6.912 117.335 6.738 116.591 6.738C116.027 6.738 115.553 6.864 115.169 7.116C114.797 7.368 114.485 7.704 114.233 8.124L113.369 7.314C113.621 6.81 114.023 6.384 114.575 6.036C115.127 5.676 115.823 5.496 116.663 5.496C117.791 5.496 118.667 5.772 119.291 6.324C119.915 6.876 120.227 7.644 120.227 8.628V13.74H121.289V15H120.479ZM116.339 13.992C116.699 13.992 117.029 13.95 117.329 13.866C117.629 13.782 117.887 13.662 118.103 13.506C118.319 13.35 118.487 13.17 118.607 12.966C118.727 12.762 118.787 12.54 118.787 12.3V10.77H116.879C116.051 10.77 115.445 10.89 115.061 11.13C114.689 11.37 114.503 11.718 114.503 12.174V12.552C114.503 13.008 114.665 13.362 114.989 13.614C115.325 13.866 115.775 13.992 116.339 13.992Z" fill="#808085"/>
<path d="M124.874 15C124.37 15 123.986 14.862 123.722 14.586C123.47 14.298 123.344 13.938 123.344 13.506V1.68H124.784V13.74H126.152V15H124.874Z" fill="#808085"/>
<path d="M50.32 30.216C49.456 30.216 48.73 30.054 48.142 29.73C47.566 29.394 47.068 28.95 46.648 28.398L47.674 27.57C48.034 28.026 48.436 28.38 48.88 28.632C49.324 28.872 49.84 28.992 50.428 28.992C51.04 28.992 51.514 28.86 51.85 28.596C52.198 28.332 52.372 27.96 52.372 27.48C52.372 27.12 52.252 26.814 52.012 26.562C51.784 26.298 51.364 26.118 50.752 26.022L50.014 25.914C49.582 25.854 49.186 25.764 48.826 25.644C48.466 25.512 48.148 25.344 47.872 25.14C47.608 24.924 47.398 24.66 47.242 24.348C47.098 24.036 47.026 23.664 47.026 23.232C47.026 22.776 47.11 22.38 47.278 22.044C47.446 21.696 47.674 21.408 47.962 21.18C48.262 20.952 48.616 20.784 49.024 20.676C49.432 20.556 49.87 20.496 50.338 20.496C51.094 20.496 51.724 20.628 52.228 20.892C52.744 21.156 53.194 21.522 53.578 21.99L52.624 22.854C52.42 22.566 52.12 22.308 51.724 22.08C51.328 21.84 50.83 21.72 50.23 21.72C49.63 21.72 49.174 21.852 48.862 22.116C48.562 22.368 48.412 22.716 48.412 23.16C48.412 23.616 48.562 23.946 48.862 24.15C49.174 24.354 49.618 24.504 50.194 24.6L50.914 24.708C51.946 24.864 52.678 25.164 53.11 25.608C53.542 26.04 53.758 26.61 53.758 27.318C53.758 28.218 53.452 28.926 52.84 29.442C52.228 29.958 51.388 30.216 50.32 30.216Z" fill="#808085"/>
<path d="M61.7091 20.712H63.1311L58.9731 32.16C58.8651 32.436 58.7571 32.664 58.6491 32.844C58.5411 33.036 58.4091 33.186 58.2531 33.294C58.0971 33.402 57.8991 33.48 57.6591 33.528C57.4311 33.576 57.1491 33.6 56.8131 33.6H56.0751V32.34H57.5331L58.2351 30.36L54.7611 20.712H56.2011L58.4331 27.03L58.8651 28.542H58.9551L59.4591 27.03L61.7091 20.712Z" fill="#808085"/>
<path d="M67.6872 30.216C66.8232 30.216 66.0972 30.054 65.5092 29.73C64.9332 29.394 64.4352 28.95 64.0152 28.398L65.0412 27.57C65.4012 28.026 65.8032 28.38 66.2472 28.632C66.6912 28.872 67.2072 28.992 67.7952 28.992C68.4072 28.992 68.8812 28.86 69.2172 28.596C69.5652 28.332 69.7392 27.96 69.7392 27.48C69.7392 27.12 69.6192 26.814 69.3792 26.562C69.1512 26.298 68.7312 26.118 68.1192 26.022L67.3812 25.914C66.9492 25.854 66.5532 25.764 66.1932 25.644C65.8332 25.512 65.5152 25.344 65.2392 25.14C64.9752 24.924 64.7652 24.66 64.6092 24.348C64.4652 24.036 64.3932 23.664 64.3932 23.232C64.3932 22.776 64.4772 22.38 64.6452 22.044C64.8132 21.696 65.0412 21.408 65.3292 21.18C65.6292 20.952 65.9832 20.784 66.3912 20.676C66.7992 20.556 67.2372 20.496 67.7052 20.496C68.4612 20.496 69.0912 20.628 69.5952 20.892C70.1112 21.156 70.5612 21.522 70.9452 21.99L69.9912 22.854C69.7872 22.566 69.4872 22.308 69.0912 22.08C68.6952 21.84 68.1972 21.72 67.5972 21.72C66.9972 21.72 66.5412 21.852 66.2292 22.116C65.9292 22.368 65.7792 22.716 65.7792 23.16C65.7792 23.616 65.9292 23.946 66.2292 24.15C66.5412 24.354 66.9852 24.504 67.5612 24.6L68.2812 24.708C69.3132 24.864 70.0452 25.164 70.4772 25.608C70.9092 26.04 71.1252 26.61 71.1252 27.318C71.1252 28.218 70.8192 28.926 70.2072 29.442C69.5952 29.958 68.7552 30.216 67.6872 30.216Z" fill="#808085"/>
<path d="M75.5976 30C75.0936 30 74.7096 29.862 74.4456 29.586C74.1936 29.298 74.0676 28.926 74.0676 28.47V21.972H72.5376V20.712H73.4016C73.7136 20.712 73.9236 20.652 74.0316 20.532C74.1516 20.4 74.2116 20.178 74.2116 19.866V18.138H75.5076V20.712H77.5416V21.972H75.5076V28.74H77.3976V30H75.5976Z" fill="#808085"/>
<path d="M83.2779 30.216C82.6419 30.216 82.0659 30.102 81.5499 29.874C81.0459 29.646 80.6079 29.322 80.2359 28.902C79.8759 28.47 79.5939 27.96 79.3899 27.372C79.1979 26.772 79.1019 26.1 79.1019 25.356C79.1019 24.624 79.1979 23.958 79.3899 23.358C79.5939 22.758 79.8759 22.248 80.2359 21.828C80.6079 21.396 81.0459 21.066 81.5499 20.838C82.0659 20.61 82.6419 20.496 83.2779 20.496C83.9019 20.496 84.4599 20.61 84.9519 20.838C85.4439 21.066 85.8639 21.384 86.2119 21.792C86.5599 22.188 86.8239 22.662 87.0039 23.214C87.1959 23.766 87.2919 24.372 87.2919 25.032V25.716H80.6139V26.148C80.6139 26.544 80.6739 26.916 80.7939 27.264C80.9259 27.6 81.1059 27.894 81.3339 28.146C81.5739 28.398 81.8619 28.596 82.1979 28.74C82.5459 28.884 82.9359 28.956 83.3679 28.956C83.9559 28.956 84.4659 28.818 84.8979 28.542C85.3419 28.266 85.6839 27.87 85.9239 27.354L86.9499 28.092C86.6499 28.728 86.1819 29.244 85.5459 29.64C84.9099 30.024 84.1539 30.216 83.2779 30.216ZM83.2779 21.702C82.8819 21.702 82.5219 21.774 82.1979 21.918C81.8739 22.05 81.5919 22.242 81.3519 22.494C81.1239 22.746 80.9439 23.046 80.8119 23.394C80.6799 23.73 80.6139 24.102 80.6139 24.51V24.636H85.7439V24.438C85.7439 23.61 85.5159 22.95 85.0599 22.458C84.6159 21.954 84.0219 21.702 83.2779 21.702Z" fill="#808085"/>
<path d="M89.6648 30V20.712H91.1048V22.224H91.1768C91.2848 21.984 91.4048 21.762 91.5368 21.558C91.6808 21.342 91.8488 21.156 92.0408 21C92.2448 20.844 92.4788 20.724 92.7428 20.64C93.0068 20.544 93.3188 20.496 93.6788 20.496C94.2908 20.496 94.8548 20.646 95.3708 20.946C95.8868 21.234 96.2708 21.714 96.5228 22.386H96.5588C96.7268 21.882 97.0388 21.444 97.4948 21.072C97.9628 20.688 98.5928 20.496 99.3848 20.496C100.333 20.496 101.071 20.808 101.599 21.432C102.139 22.044 102.409 22.914 102.409 24.042V30H100.969V24.294C100.969 23.466 100.807 22.842 100.483 22.422C100.159 22.002 99.6428 21.792 98.9348 21.792C98.6468 21.792 98.3708 21.828 98.1068 21.9C97.8548 21.972 97.6268 22.08 97.4228 22.224C97.2188 22.368 97.0568 22.554 96.9368 22.782C96.8168 22.998 96.7568 23.256 96.7568 23.556V30H95.3168V24.294C95.3168 23.466 95.1548 22.842 94.8308 22.422C94.5068 22.002 94.0028 21.792 93.3188 21.792C93.0308 21.792 92.7548 21.828 92.4908 21.9C92.2268 21.972 91.9928 22.08 91.7888 22.224C91.5848 22.368 91.4168 22.554 91.2848 22.782C91.1648 22.998 91.1048 23.256 91.1048 23.556V30H89.6648Z" fill="#808085"/>
<path d="M108.17 30.216C107.306 30.216 106.58 30.054 105.992 29.73C105.416 29.394 104.918 28.95 104.498 28.398L105.524 27.57C105.884 28.026 106.286 28.38 106.73 28.632C107.174 28.872 107.69 28.992 108.278 28.992C108.89 28.992 109.364 28.86 109.7 28.596C110.048 28.332 110.222 27.96 110.222 27.48C110.222 27.12 110.102 26.814 109.862 26.562C109.634 26.298 109.214 26.118 108.602 26.022L107.864 25.914C107.432 25.854 107.036 25.764 106.676 25.644C106.316 25.512 105.998 25.344 105.722 25.14C105.458 24.924 105.248 24.66 105.092 24.348C104.948 24.036 104.876 23.664 104.876 23.232C104.876 22.776 104.96 22.38 105.128 22.044C105.296 21.696 105.524 21.408 105.812 21.18C106.112 20.952 106.466 20.784 106.874 20.676C107.282 20.556 107.72 20.496 108.188 20.496C108.944 20.496 109.574 20.628 110.078 20.892C110.594 21.156 111.044 21.522 111.428 21.99L110.474 22.854C110.27 22.566 109.97 22.308 109.574 22.08C109.178 21.84 108.68 21.72 108.08 21.72C107.48 21.72 107.024 21.852 106.712 22.116C106.412 22.368 106.262 22.716 106.262 23.16C106.262 23.616 106.412 23.946 106.712 24.15C107.024 24.354 107.468 24.504 108.044 24.6L108.764 24.708C109.796 24.864 110.528 25.164 110.96 25.608C111.392 26.04 111.608 26.61 111.608 27.318C111.608 28.218 111.302 28.926 110.69 29.442C110.078 29.958 109.238 30.216 108.17 30.216Z" fill="#808085"/>
<path d="M10.0001 30H1.00012C0.447838 30 0.000122905 29.5523 0.000122857 29L0.00012207 20H5.17169C5.70213 20 6.21084 20.2107 6.58591 20.5858L9.41434 23.4142C9.78941 23.7893 10.0001 24.298 10.0001 24.8284L10.0001 30Z" fill="#808085"/>
<path d="M20.0001 0H29.0001C29.5524 0 30.0001 0.447715 30.0001 1V10H24.8286C24.2981 10 23.7894 9.78929 23.4143 9.41421L20.5859 6.58579C20.2108 6.21071 20.0001 5.70201 20.0001 5.17157V0Z" fill="#808085"/>
<path d="M30 28.9999C30 29.5522 29.5523 29.9999 29 29.9999H20.0001V20.9999C20.0001 20.4476 19.5523 19.9999 19.0001 19.9999L10.8285 19.9999C10.2981 19.9999 9.78938 19.7892 9.41431 19.4141L0.58591 10.5858C0.210837 10.2107 0.000123599 9.70197 0.000123554 9.17154L0.000122865 1C0.000122819 0.447716 0.447838 8.05195e-07 1.00012 7.5864e-07L10.0001 0L10.0001 8.99997C10.0001 9.55225 10.4478 9.99997 11.0001 9.99997L19.1716 9.99997C19.7021 9.99997 20.2108 10.2107 20.5858 10.5858L29.4142 19.4141C29.7893 19.7892 30 20.2979 30 20.8284V28.9999Z" fill="#808085"/>
</svg>
