<svg width="436" height="100" viewBox="0 0 436 100" fill="none" xmlns="http://www.w3.org/2000/svg">
    <path fill-rule="evenodd" clip-rule="evenodd" d="M56.6654 28.7474V69.8307C56.6654 73.7427 53.4941 76.9141 49.582 76.9141H18.4154C14.5034 76.9141 11.332 73.7427 11.332 69.8307V28.7474C11.332 24.8354 14.5033 21.6641 18.4154 21.6641H49.582C53.494 21.6641 56.6654 24.8354 56.6654 28.7474ZM18.4154 27.3307C17.633 27.3307 16.9987 27.965 16.9987 28.7474V69.8307C16.9987 70.6131 17.633 71.2474 18.4154 71.2474H49.582C50.3644 71.2474 50.9987 70.6131 50.9987 69.8307V28.7474C50.9987 27.965 50.3644 27.3307 49.582 27.3307H18.4154Z" fill="#808085"/>
    <path d="M22.6654 38.6641C22.6654 37.0993 23.9339 35.8307 25.4987 35.8307H42.4987C44.0635 35.8307 45.332 37.0993 45.332 38.6641C45.332 40.2289 44.0635 41.4974 42.4987 41.4974H25.4987C23.9339 41.4974 22.6654 40.2289 22.6654 38.6641Z" fill="#808085"/>
    <path d="M22.6654 49.9974C22.6654 48.4326 23.9339 47.1641 25.4987 47.1641H42.4987C44.0635 47.1641 45.332 48.4326 45.332 49.9974C45.332 51.5622 44.0635 52.8307 42.4987 52.8307H25.4987C23.9339 52.8307 22.6654 51.5622 22.6654 49.9974Z" fill="#808085"/>
    <path d="M22.6654 61.3307C22.6654 59.7659 23.9339 58.4974 25.4987 58.4974H42.4987C44.0635 58.4974 45.332 59.7659 45.332 61.3307C45.332 62.8955 44.0635 64.1641 42.4987 64.1641H25.4987C23.9339 64.1641 22.6654 62.8955 22.6654 61.3307Z" fill="#808085"/>
    <path fill-rule="evenodd" clip-rule="evenodd" d="M430.335 67C430.335 71.6944 426.529 75.5 421.835 75.5H382.168C377.474 75.5 373.668 71.6944 373.668 67V33C373.668 28.3056 377.474 24.5 382.168 24.5H413.335C416.464 24.5 419.001 27.0371 419.001 30.1667V35.8333H421.835C426.529 35.8333 430.335 39.6389 430.335 44.3333V67ZM382.168 35.8333H413.335V30.1667H382.168C380.603 30.1667 379.335 31.4352 379.335 33C379.335 34.5648 380.603 35.8333 382.168 35.8333ZM382.168 41.5H421.835C423.399 41.5 424.668 42.7685 424.668 44.3333V47.1667H420.418C415.724 47.1667 411.918 50.9722 411.918 55.6667C411.918 60.3611 415.724 64.1667 420.418 64.1667H424.668V67C424.668 68.5648 423.399 69.8333 421.835 69.8333H382.168C380.603 69.8333 379.335 68.5648 379.335 67V41.0163C380.221 41.3296 381.175 41.5 382.168 41.5ZM424.668 58.5V52.8333H420.418C418.853 52.8333 417.585 54.1019 417.585 55.6667C417.585 57.2315 418.853 58.5 420.418 58.5H424.668Z" fill="#808085"/>
    <path d="M194.56 35.9525C207.506 23.3075 228.492 23.3075 241.455 35.9525L243.012 37.4725C243.666 38.1073 243.666 39.1262 243.012 39.761L237.686 44.9727C237.368 45.29 236.832 45.29 236.514 44.9727L234.37 42.8846C225.343 34.0649 210.688 34.0649 201.661 42.8846L199.366 45.123C199.048 45.4404 198.512 45.4404 198.194 45.123L192.851 39.9113C192.198 39.2766 192.198 38.2576 192.851 37.6229L194.56 35.9525ZM252.475 46.7099L257.215 51.3369C257.868 51.9716 257.868 52.9906 257.215 53.6253L235.827 74.5221C235.174 75.1569 234.136 75.1569 233.483 74.5221L218.292 59.6889C218.124 59.5386 217.873 59.5386 217.706 59.6889L202.532 74.5221C201.879 75.1569 200.84 75.1569 200.187 74.5221L178.783 53.642C178.13 53.0073 178.13 51.9883 178.783 51.3536L183.523 46.7266C184.176 46.0918 185.214 46.0918 185.867 46.7266L201.058 61.5598C201.225 61.7101 201.477 61.7101 201.644 61.5598L216.818 46.7266C217.471 46.0918 218.51 46.0918 219.163 46.7266L234.354 61.5598C234.521 61.7101 234.772 61.7101 234.94 61.5598L250.13 46.7266C250.767 46.0751 251.822 46.0751 252.475 46.7099Z" fill="#808085"/>
    <rect x="72" y="45" width="90" height="5" rx="2.5" fill="red"/>
    <rect x="274" y="45" width="90" height="5" rx="2.5" fill="red"/>
</svg>
