<svg width="38" height="38" viewBox="0 0 38 38" fill="none" xmlns="http://www.w3.org/2000/svg">
    <rect width="38" height="38" rx="12" fill="#6E7899" fill-opacity="0.2"/>
    <path d="M16 10H10V16H16V10ZM14 14H12V12H14V14ZM10 28H16V22H10V28ZM12 24H14V26H12V24ZM22 10V16H28V10H22ZM26 14H24V12H26V14ZM18 10H20V14H18V10ZM18 16H20V18H18V16ZM10 18H12V20H10V18ZM14 18H18V20H14V18ZM22 22H24V24H22V22ZM18 24V26H20V22H18V24ZM20 26H22V28H20V26ZM20 18H22V22H20V18ZM26 18H24V20H26V22H28V18H26ZM26 26H24V28H28V24H26V26Z" fill="#FFA800"/>
</svg>
