<svg width="24" height="24" viewBox="0 0 24 24" fill="none" xmlns="http://www.w3.org/2000/svg">
    <path fill-rule="evenodd" clip-rule="evenodd" d="M24 12C24 18.6274 18.6274 24 12 24C5.37258 24 0 18.6274 0 12C0 5.37258 5.37258 0 12 0C18.6274 0 24 5.37258 24 12ZM19.872 11.3308C19.9597 11.5429 20.0046 11.7703 20.0043 11.9998C20.0042 12.3378 19.9069 12.6686 19.7242 12.953C19.5415 13.2373 19.2809 13.4632 18.9735 13.6037C19.002 13.7753 19.0164 13.9616 19.0164 14.1335C19.0164 16.8399 15.8804 19.0166 12.014 19.0166C8.14765 19.0166 5.01158 16.8254 5.01158 14.1335C5.01097 13.956 5.02534 13.7788 5.05456 13.6037C4.45292 13.3314 4.02344 12.7301 4.02344 12.0142C4.02312 11.7847 4.06809 11.5574 4.15578 11.3453C4.24346 11.1332 4.37213 10.9404 4.53442 10.7782C4.69671 10.6159 4.88942 10.4872 5.10152 10.3995C5.31362 10.3118 5.54093 10.2669 5.77044 10.2672C6.22375 10.2665 6.6598 10.4409 6.98761 10.754C8.20477 9.8804 9.88024 9.322 11.7417 9.26462L12.6298 5.08329C12.6439 4.99734 12.6869 4.9258 12.7585 4.88283C12.8158 4.83986 12.9018 4.82544 12.9877 4.83986L15.8945 5.45564C15.9963 5.2458 16.155 5.06876 16.3525 4.94469C16.55 4.82062 16.7784 4.75452 17.0116 4.75391C17.3419 4.75412 17.6586 4.88543 17.8922 5.119C18.1258 5.35258 18.2571 5.66931 18.2573 5.99963C18.2572 6.32521 18.1298 6.63784 17.9022 6.87067C17.6746 7.1035 17.365 7.23805 17.0395 7.24555C16.714 7.25304 16.3985 7.13289 16.1604 6.91079C15.9224 6.68868 15.7807 6.38225 15.7656 6.05702L13.1594 5.49862L12.3575 9.25047C14.1905 9.322 15.8374 9.8804 17.0401 10.7396C17.3551 10.4388 17.7849 10.2528 18.2573 10.2528C18.4868 10.2524 18.7141 10.2974 18.9262 10.3851C19.1383 10.4728 19.331 10.6015 19.4933 10.7637C19.6556 10.926 19.7843 11.1187 19.872 11.3308ZM8.3695 12.3648C8.13587 12.5983 8.00452 12.9151 8.00431 13.2455C8.00431 13.9328 8.56271 14.5056 9.2503 14.4915C9.93762 14.4915 10.496 13.9328 10.496 13.2455C10.496 12.5582 9.93762 11.9998 9.2503 11.9998C8.91993 11.9999 8.60313 12.1312 8.3695 12.3648ZM12.014 17.4701C12.4865 17.4701 14.119 17.4127 14.9782 16.5534C15.0336 16.49 15.0641 16.4086 15.0641 16.3243C15.0641 16.24 15.0336 16.1586 14.9782 16.0951C14.9483 16.0646 14.9127 16.0403 14.8733 16.0237C14.834 16.0072 14.7917 15.9986 14.749 15.9986C14.7063 15.9986 14.6641 16.0072 14.6247 16.0237C14.5853 16.0403 14.5497 16.0646 14.5199 16.0951C13.99 16.6394 12.8303 16.8254 12.014 16.8254C11.1978 16.8254 10.0521 16.6394 9.50788 16.0951C9.47805 16.0646 9.4424 16.0403 9.40305 16.0237C9.3637 16.0072 9.32143 15.9986 9.27873 15.9986C9.23603 15.9986 9.19376 16.0072 9.1544 16.0237C9.11505 16.0403 9.07941 16.0646 9.04958 16.0951C9.01903 16.125 8.99475 16.1606 8.97818 16.2C8.9616 16.2393 8.95307 16.2816 8.95307 16.3243C8.95307 16.367 8.9616 16.4093 8.97818 16.4486C8.99475 16.488 9.01903 16.5236 9.04958 16.5534C9.89465 17.3983 11.5271 17.4701 12.014 17.4701ZM13.5032 13.2599C13.5032 13.9472 14.0616 14.5056 14.7489 14.5056C15.4365 14.5056 15.9949 13.9328 15.9949 13.2599C15.9947 12.9295 15.8633 12.6128 15.6297 12.3792C15.3961 12.1456 15.0793 12.0143 14.7489 12.0142C14.0616 12.0142 13.5032 12.5726 13.5032 13.2599Z" fill="#FF4500"/>
</svg>
