<svg width="24" height="24" viewBox="0 0 24 24" fill="none" xmlns="http://www.w3.org/2000/svg">
    <g clip-path="url(#clip0_17707_83734)">
        <path fill-rule="evenodd" clip-rule="evenodd" d="M12 24C18.6274 24 24 18.6274 24 12C24 5.37258 18.6274 0 12 0C5.37258 0 0 5.37258 0 12C0 18.6274 5.37258 24 12 24ZM9.75985 13.8266C9.75985 13.8266 13.7243 10.3392 15.9844 8.35273C16.0511 8.29409 16.0592 8.19613 16.0035 8.12748C15.9499 8.05884 15.8473 8.0431 15.7747 8.08958C13.1567 9.71994 8.50512 12.6145 8.50512 12.6145L9.53179 15.9167L9.75985 13.8266ZM18.0099 6.02948C18.1771 5.97013 18.3626 6.00159 18.4976 6.11314C18.631 6.22469 18.6934 6.39845 18.656 6.56578C18.4235 7.6287 18.006 9.60179 17.5757 11.6351C17.1101 13.8354 16.6296 16.1061 16.3525 17.3704C16.3034 17.6014 16.1369 17.788 15.9103 17.8717C15.6852 17.9546 15.4307 17.921 15.2349 17.7859C13.9956 16.9257 11.8139 15.3661 11.8139 15.3661C11.8139 15.3661 10.6648 16.423 9.92192 17.1066C9.78992 17.2281 9.60292 17.2746 9.42545 17.231C9.24945 17.1859 9.11525 17.0529 9.05659 16.887C8.59532 15.5599 7.70725 12.9463 7.70725 12.9463C7.70725 12.9463 5.80937 12.3585 4.3625 11.9374C4.15277 11.8751 4.00683 11.6921 4.00023 11.4826C3.99363 11.2716 4.1271 11.08 4.33097 11.0049C6.0991 10.3676 9.26834 9.21224 12.1937 8.14577C14.6056 7.26647 16.8517 6.44762 18.0099 6.02948Z" fill="#54A6E4"/>
    </g>
    <defs>
        <clipPath id="clip0_17707_83734">
            <rect width="24" height="24" rx="4" fill="white"/>
        </clipPath>
    </defs>
</svg>
