<svg width="24" height="24" viewBox="0 0 24 24" fill="none" xmlns="http://www.w3.org/2000/svg">
    <g clip-path="url(#clip0_17707_83732)">
        <path fill-rule="evenodd" clip-rule="evenodd" d="M12 24C18.6274 24 24 18.6274 24 12C24 5.37258 18.6274 0 12 0C5.37258 0 0 5.37258 0 12C0 18.6274 5.37258 24 12 24ZM7.51244 8.56938C6.2249 6.73767 5.13287 5.18521 5.08572 5.11949L5 5L7.08881 5.00015L9.17762 5.00032L10.9615 7.53883C11.9426 8.935 12.7563 10.091 12.7698 10.1076C12.7932 10.1365 12.8074 10.123 13.0851 9.80849C13.7177 9.09193 13.8557 8.93513 13.9912 8.77847C14.0687 8.68891 14.1364 8.61217 14.1417 8.60793C14.147 8.60369 14.41 8.30534 14.7261 7.94493C15.0422 7.58453 15.351 7.23376 15.4122 7.16545C15.4735 7.09715 15.5592 7.00024 15.6026 6.9501C15.646 6.89996 15.7492 6.78238 15.832 6.68882C16.0192 6.47708 16.6788 5.72775 17.0437 5.31222L17.3178 5H17.9342C18.5146 5 18.5493 5.00154 18.5289 5.02647C18.517 5.04104 18.2903 5.29949 18.0251 5.60081L17.0957 6.65749C16.8496 6.93734 16.6112 7.20793 16.5659 7.25881C16.5205 7.30969 16.3249 7.53172 16.1312 7.7522C15.9374 7.97269 15.5474 8.41617 15.2645 8.73771C13.6152 10.6122 13.3643 10.8988 13.3575 10.9162C13.3505 10.934 13.5954 11.2859 15.4372 13.9042C17.9957 17.5413 18.993 18.9621 18.9999 18.9798C19.0065 18.9964 18.6381 18.9999 16.9264 18.9997L14.8448 18.9993L14.8041 18.9419C14.7817 18.9102 13.9233 17.6892 12.8966 16.2285C11.8698 14.7678 11.0247 13.5727 11.0185 13.5727C11.0123 13.5727 10.8726 13.7265 10.7081 13.9145C10.5435 14.1026 10.4016 14.2639 10.3926 14.273C10.3836 14.2822 10.1568 14.5394 9.88865 14.8447C9.62048 15.15 9.37565 15.4278 9.34459 15.4621C9.31353 15.4963 9.25536 15.5622 9.21531 15.6085C9.11071 15.7295 7.86629 17.1437 7.70311 17.3271C7.62765 17.4119 7.26569 17.823 6.89876 18.2406L6.23162 19H5.6248C5.23335 19 5.01796 18.9946 5.01796 18.9847C5.01796 18.9763 5.06622 18.9155 5.1252 18.8498C5.18418 18.784 5.513 18.411 5.85591 18.0209C6.49811 17.2904 6.61985 17.152 7.46348 16.1941L8.37342 15.1608L9.14737 14.2819L9.84677 13.4879C10.0335 13.2759 10.2488 13.0319 10.3252 12.9457C10.4016 12.8595 10.4642 12.7842 10.4642 12.7783C10.4642 12.7725 10.3268 12.5724 10.1588 12.3337C9.99085 12.0951 8.79999 10.4011 7.51244 8.56938ZM7.58328 7.1663C7.12196 6.52181 6.73169 5.97536 6.716 5.95197L6.68751 5.90945L7.6384 5.91342L8.5893 5.9174L10.4866 8.56938L14.8492 14.6674L17.3145 18.1134L16.3724 18.1174C15.6319 18.1205 15.4262 18.1172 15.4111 18.102C15.4006 18.0913 14.8139 17.2743 14.1073 16.2863C11.8963 13.1947 8.45819 8.38862 7.58328 7.1663Z" fill="#E1E1E5"/>
    </g>
    <defs>
        <clipPath id="clip0_17707_83732">
            <rect width="24" height="24" fill="white"/>
        </clipPath>
    </defs>
</svg>
