<svg width="24" height="24" viewBox="0 0 24 24" fill="none" xmlns="http://www.w3.org/2000/svg">
    <path fill-rule="evenodd" clip-rule="evenodd" d="M11.1519 7.80039C11.6206 7.33176 12.3804 7.33176 12.849 7.80039L16.2431 11.1945C16.7117 11.6631 16.7117 12.4229 16.2431 12.8916L12.849 16.2857C12.3804 16.7543 11.6206 16.7543 11.1519 16.2857L7.75781 12.8916C7.28918 12.4229 7.28918 11.6631 7.75781 11.1945L11.1519 7.80039ZM9.45487 12.043L12.0005 9.49745L14.546 12.043L12.0005 14.5886L9.45487 12.043Z" fill="#808085"/>
    <path fill-rule="evenodd" clip-rule="evenodd" d="M12.0004 21.6004C17.3023 21.6004 21.6004 17.3023 21.6004 12.0004C21.6004 6.69846 17.3023 2.40039 12.0004 2.40039C6.69846 2.40039 2.40039 6.69846 2.40039 12.0004C2.40039 17.3023 6.69846 21.6004 12.0004 21.6004ZM19.8004 12.0004C19.8004 16.3082 16.3082 19.8004 12.0004 19.8004C7.69257 19.8004 4.20039 16.3082 4.20039 12.0004C4.20039 7.69257 7.69257 4.20039 12.0004 4.20039C16.3082 4.20039 19.8004 7.69257 19.8004 12.0004Z" fill="#808085"/>
</svg>
