<svg width="24" height="24" viewBox="0 0 24 24" fill="none" xmlns="http://www.w3.org/2000/svg">
    <path d="M17.2071 1.29289C16.8166 0.902369 16.1834 0.902369 15.7929 1.29289C15.4024 1.68342 15.4024 2.31658 15.7929 2.70711L18.0858 5H7.5C4.73858 5 2.5 7.23858 2.5 10V11C2.5 11.5523 2.94772 12 3.5 12C4.05228 12 4.5 11.5523 4.5 11V10C4.5 8.34315 5.84315 7 7.5 7H18.0858L15.7929 9.29289C15.4024 9.68342 15.4024 10.3166 15.7929 10.7071C16.1834 11.0976 16.8166 11.0976 17.2071 10.7071L21.2071 6.70711C21.4024 6.51184 21.5 6.25592 21.5 6C21.5 5.74408 21.4024 5.48816 21.2071 5.29289L17.2071 1.29289Z" fill="#808085"/>
    <path d="M8.20711 14.7071C8.59763 14.3166 8.59763 13.6834 8.20711 13.2929C7.81658 12.9024 7.18342 12.9024 6.79289 13.2929L2.79289 17.2929C2.59763 17.4882 2.5 17.7441 2.5 18C2.5 18.2559 2.59763 18.5118 2.79289 18.7071L6.79289 22.7071C7.18342 23.0976 7.81658 23.0976 8.20711 22.7071C8.59763 22.3166 8.59763 21.6834 8.20711 21.2929L5.91421 19H16.5C19.2614 19 21.5 16.7614 21.5 14V13C21.5 12.4477 21.0523 12 20.5 12C19.9477 12 19.5 12.4477 19.5 13V14C19.5 15.6569 18.1569 17 16.5 17H5.91421L8.20711 14.7071Z" fill="#808085"/>
</svg>
