<svg width="24" height="24" viewBox="0 0 24 24" fill="none" xmlns="http://www.w3.org/2000/svg">
    <path d="M17.9996 3.59961C18.4967 3.59961 18.8996 4.00255 18.8996 4.49961V19.4996C18.8996 19.9967 18.4967 20.3996 17.9996 20.3996C17.5026 20.3996 17.0996 19.9967 17.0996 19.4996V4.49961C17.0996 4.00255 17.5026 3.59961 17.9996 3.59961Z" fill="#808085"/>
    <path d="M5.99961 13.1996C6.49667 13.1996 6.89961 13.6025 6.89961 14.0996V19.4996C6.89961 19.9966 6.49667 20.3996 5.99961 20.3996C5.50255 20.3996 5.09961 19.9966 5.09961 19.4996V14.0996C5.09961 13.6025 5.50255 13.1996 5.99961 13.1996Z" fill="#808085"/>
    <path d="M12.8996 10.4996C12.8996 10.0025 12.4967 9.59957 11.9996 9.59957C11.5026 9.59957 11.0996 10.0025 11.0996 10.4996V19.4996C11.0996 19.9966 11.5026 20.3996 11.9996 20.3996C12.4967 20.3996 12.8996 19.9966 12.8996 19.4996V10.4996Z" fill="#808085"/>
</svg>
