<svg width="24" height="24" viewBox="0 0 24 24" fill="none" xmlns="http://www.w3.org/2000/svg">
    <path fill-rule="evenodd" clip-rule="evenodd" d="M8.00005 4.10526C7.48269 4.10526 7.16957 4.33382 7.05553 4.49113L4.34395 12.7964C4.86915 12.6211 5.42836 12.5271 6 12.5271C7.0965 12.5271 8.14723 12.8731 9 13.4751V6.21072V4.63263L9 4.62834C8.99901 4.59408 8.98112 4.48893 8.81426 4.3572C8.64145 4.22077 8.35689 4.10526 8.00005 4.10526ZM11 6.21072V4.64227L11.0001 4.63158C11.0001 3.78996 10.5656 3.10827 10.0143 2.67299C9.46322 2.23795 8.74778 2 8.00005 2C6.89542 2 5.78132 2.535 5.26617 3.53805L5.22695 3.61442L1.39801 15.3421C1.38392 15.3853 1.37264 15.4287 1.36408 15.4723C1.13043 16.0175 1 16.62 1 17.2639C1 20.0077 3.36818 22.0008 6 22.0008C8.63064 22.0008 10.9979 20.0094 11 17.2676L11 17.2642V17.2639V13.5791H13V17.2639V17.2642L13 17.2676C13.0021 20.0094 15.3694 22.0008 18 22.0008C20.6318 22.0008 23 20.0077 23 17.2639C23 16.62 22.8696 16.0175 22.6359 15.4723C22.6274 15.4287 22.6161 15.3853 22.602 15.3421L18.773 3.61442L18.7338 3.53805C18.2187 2.535 17.1046 2 15.9999 2C15.2522 2 14.5368 2.23795 13.9857 2.67299C13.4344 3.10827 12.9999 3.78996 12.9999 4.63158L13 4.64237V6.21072H11ZM11 8.31598V11.4739H13V8.31598H11ZM15 6.21072L15 13.4751C15.8528 12.8731 16.9035 12.5271 18 12.5271C18.5716 12.5271 19.1308 12.6211 19.656 12.7964L16.9445 4.49113C16.8304 4.33382 16.5173 4.10526 15.9999 4.10526C15.6431 4.10526 15.3585 4.22077 15.1857 4.3572C15.0189 4.48893 15.001 4.59408 15 4.62834L15 4.63263L15 6.21072ZM9 17.2639C9 15.9382 7.78646 14.6324 6 14.6324C4.21354 14.6324 3 15.9382 3 17.2639C3 18.5897 4.21354 19.8955 6 19.8955C7.78646 19.8955 9 18.5897 9 17.2639ZM18 14.6324C19.7865 14.6324 21 15.9382 21 17.2639C21 18.5897 19.7865 19.8955 18 19.8955C16.2135 19.8955 15 18.5897 15 17.2639C15 15.9382 16.2135 14.6324 18 14.6324Z" fill="#808085"/>
</svg>
