<svg width="32" height="32" viewBox="0 0 32 32" fill="none" xmlns="http://www.w3.org/2000/svg">
    <path fill-rule="evenodd" clip-rule="evenodd" d="M32 16.0013C32 7.16 24.8336 -0.00133296 15.998 1.86103e-07C7.16504 1.86103e-07 0 7.15867 0 16.0013C0 24.8373 7.1637 32 15.998 32C24.8336 32 32 24.8373 32 16.0013ZM22.6205 11.8534C22.8939 12.448 22.9659 13.0614 22.8445 13.6854C22.7619 14.1374 22.5819 14.5534 22.3099 14.9347C22.0406 15.3014 21.6913 15.6187 21.2633 15.8587C20.838 16.0987 20.3046 16.272 19.6673 16.364C20.278 16.644 20.742 16.9214 21.0459 17.1854C21.4873 17.5534 21.8099 18.0107 22.0099 18.568C22.2046 19.12 22.2472 19.6987 22.1339 20.3174C21.9966 21.0494 21.6473 21.684 21.0939 22.2054C20.5366 22.752 19.8233 23.1054 18.9554 23.2734C18.638 23.3307 18.2727 23.3667 17.8727 23.372L17.4074 25.8334L15.0702 25.4027L15.4955 23.1267C15.4561 23.1124 15.4185 23.1077 15.3802 23.1029C15.3616 23.1006 15.3428 23.0982 15.3235 23.0947L13.9902 22.848L13.5676 25.1187L11.2304 24.6814L11.6517 22.4054L8.09048 21.7374L8.44514 19.8294L8.99445 19.9254C9.3571 20.0027 9.60509 20.0174 9.74775 19.9707C9.88908 19.9347 9.99574 19.86 10.0691 19.76C10.1477 19.656 10.2197 19.3987 10.2917 18.9987L11.7317 11.3014C11.8117 10.8974 11.8303 10.628 11.7997 10.5027C11.7677 10.3787 11.6943 10.2747 11.577 10.1907C11.465 10.096 11.2197 10.0107 10.8584 9.95471L10.3117 9.84404L10.6677 7.93604L14.2342 8.60804L14.6649 6.32804L17.0034 6.76938L16.5768 9.03604L18.0781 9.31871L18.5034 7.04938L20.8393 7.48538L20.3846 9.91471C20.718 10.0467 21.0246 10.184 21.2646 10.348C21.8912 10.764 22.3459 11.26 22.6205 11.8534ZM19.3073 12.5894C19.174 12.304 18.9473 12.076 18.6193 11.8907C18.302 11.7214 17.702 11.5494 16.8127 11.3854L15.3008 11.1027L14.6701 14.4654L16.1874 14.7507C16.9754 14.896 17.5767 14.936 17.982 14.872C18.3847 14.8187 18.7033 14.672 18.9473 14.4414C19.1806 14.2147 19.3406 13.9227 19.4059 13.568C19.4766 13.2054 19.4433 12.88 19.3073 12.5894ZM18.5326 18.188C18.386 17.8654 18.1433 17.596 17.7887 17.384C17.4327 17.168 16.8687 16.9934 16.0834 16.8467L14.2942 16.516L13.7355 19.4987C13.6689 19.9147 13.6382 20.1774 13.6462 20.2454C13.6622 20.3454 13.7048 20.4187 13.7728 20.4667C13.8448 20.5134 14.0448 20.5774 14.3808 20.6347L15.3874 20.8294C15.9768 20.9307 16.4714 20.9694 16.878 20.9307C17.286 20.896 17.654 20.7294 17.99 20.4374C18.3207 20.1334 18.5313 19.7587 18.6246 19.2734C18.6966 18.864 18.6673 18.5054 18.5326 18.188Z" fill="#F7931A"/>
</svg>
