<svg width="32" height="34" viewBox="0 0 32 34" fill="none" xmlns="http://www.w3.org/2000/svg">
    <g clip-path="url(#clip0_19674_213665)">
        <path fill-rule="evenodd" clip-rule="evenodd" d="M0 16.7442C0 7.70404 7.16533 0.37207 16 0.37207C24.8347 0.37207 32 7.70267 32 16.7428C32 18.5505 31.7133 20.2887 31.1853 21.915H26.4V8.13926L16 18.7811L5.6 8.13926V21.9164H0.814667C0.286667 20.2901 0 18.5519 0 16.7442Z" fill="#E9702D"/>
        <path d="M9.06946 16.5845L13.6081 21.2287L16.0001 23.675L18.3908 21.2287L22.9295 16.5845V25.2521H29.6708C26.8615 29.9673 21.7881 33.1162 15.9988 33.1162C10.2095 33.1162 5.13613 29.9673 2.32812 25.2521H9.06946V16.5845Z" fill="#808085" fill-opacity="0.5"/>
    </g>
    <defs>
        <clipPath id="clip0_19674_213665">
            <rect width="32" height="32.7442" fill="white" transform="translate(0 0.37207)"/>
        </clipPath>
    </defs>
</svg>
