<svg width="32" height="34" viewBox="0 0 32 34" fill="none" xmlns="http://www.w3.org/2000/svg">
    <path fill-rule="evenodd" clip-rule="evenodd" d="M16 33.1163C24.8366 33.1163 32 25.7862 32 16.7442C32 7.70211 24.8366 0.37207 16 0.37207C7.16344 0.37207 0 7.70211 0 16.7442C0 25.7862 7.16344 33.1163 16 33.1163ZM14.8044 30.3876L5.33333 5.82943L23.3283 9.24219L28 13.8191L14.8044 30.3876ZM21.6618 10.2432L8.69096 7.7829L16.627 14.5664L21.6618 10.2432ZM16.0622 15.7664L7.79148 8.69662L14.769 26.7907L16.0622 15.7664ZM25.7913 13.4426L23.0386 10.7457L18.2629 14.8478L25.7913 13.4426ZM25.596 14.7958L17.2593 16.3513L16.0338 26.8024L25.596 14.7958Z" fill="#EB332A"/>
</svg>
