<svg width="124" height="47" viewBox="0 0 124 47" fill="none" xmlns="http://www.w3.org/2000/svg">
    <path d="M53.5391 11.951H58.1946V31.635H62.8501V7.03003H58.1946C55.634 7.03003 53.5391 9.24448 53.5391 11.951Z" fill="#808085"/>
    <path d="M67.5039 31.635H72.1594V21.4805C72.1594 18.6881 70.0644 16.4033 67.5039 16.4033V31.635Z" fill="#808085"/>
    <path d="M76.8164 16.4033V31.635H81.4719V21.4805H86.1274V26.5578C86.1274 29.3502 88.2224 31.635 90.7829 31.635V21.4805C90.7829 18.6881 88.6879 16.4033 86.1274 16.4033H76.8164Z" fill="#808085"/>
    <path d="M117.745 16.872H113.284V11.951C113.284 9.24448 111.276 7.03003 108.822 7.03003V26.714H99.899V21.793H104.361V16.872H99.899C97.4452 16.872 95.4375 19.0865 95.4375 21.793V26.714C95.4375 29.4206 97.4452 31.635 99.899 31.635H113.284V21.793H117.745V26.714C117.745 29.4206 119.753 31.635 122.207 31.635V21.793C122.207 19.0865 120.199 16.872 117.745 16.872Z" fill="#808085"/>
    <path d="M67.5039 11.7167H72.1594C72.1594 9.13903 70.0644 7.03003 67.5039 7.03003V11.7167Z" fill="#808085"/>
    <path fill-rule="evenodd" clip-rule="evenodd" d="M60.7496 36.3217V39.7295H60.3307L58.685 37.3683V39.7295H58.1934V36.3217H58.6123L60.258 38.6926V36.3217H60.7496ZM70.0505 39.7295H68.2766V36.3217H70.0079V36.8816H68.8024V37.7286H69.8796V38.2885H68.8024V39.1697H70.0505V39.7295ZM77.5775 36.8816H78.5479V39.7295H79.0736V36.8816H80.044V36.3217H77.5775V36.8816ZM91.2344 36.3217H91.7388L90.8838 39.7295H90.3923L89.6698 37.2661L88.9602 39.7295H88.4643L87.5709 36.3217H88.1608L88.7636 38.751L89.4305 36.3217H89.9519L90.6359 38.7559L91.2344 36.3217ZM99.7017 36.8279C99.411 37.1655 99.2657 37.5826 99.2657 38.0792C99.2657 38.6017 99.4125 39.0252 99.706 39.3498C99.9995 39.6743 100.371 39.8367 100.822 39.8367C101.269 39.8367 101.641 39.6712 101.937 39.3401C102.234 39.0091 102.382 38.5887 102.382 38.0792C102.382 37.5598 102.234 37.1364 101.937 36.8085C101.644 36.484 101.272 36.3217 100.822 36.3217C100.371 36.3217 99.9981 36.4904 99.7017 36.8279ZM100.108 38.936C99.917 38.7089 99.8214 38.4232 99.8214 38.0792C99.8214 37.7286 99.9155 37.4414 100.104 37.2175C100.295 36.9935 100.534 36.8816 100.822 36.8816C101.104 36.8816 101.342 36.9935 101.536 37.2175C101.729 37.4446 101.826 37.7318 101.826 38.0792C101.826 38.4232 101.735 38.7089 101.553 38.936C101.373 39.1632 101.13 39.2767 100.822 39.2767C100.537 39.2767 100.299 39.1632 100.108 38.936ZM110.435 38.4637V39.7393H109.909V36.3314C110.057 36.3314 110.218 36.3297 110.392 36.3265C110.566 36.3232 110.708 36.3217 110.819 36.3217C111.543 36.3217 111.905 36.6722 111.905 37.3733C111.905 37.6329 111.847 37.847 111.73 38.0159C111.613 38.1781 111.479 38.2885 111.328 38.3469L112.264 39.7393H111.627L110.802 38.4637H110.435ZM110.794 36.8816C110.78 36.8816 110.757 36.8831 110.725 36.8864C110.694 36.8864 110.65 36.888 110.593 36.8912H110.435V37.9039H110.777C110.945 37.9039 111.082 37.8568 111.187 37.7627C111.295 37.6686 111.349 37.5403 111.349 37.3781C111.349 37.047 111.164 36.8816 110.794 36.8816ZM119.791 39.7295H120.317V37.972L121.54 39.7295H122.206L120.899 37.9087L122.13 36.3217H121.497L120.317 37.938V36.3217H119.791V39.7295Z" fill="#808085" fill-opacity="0.5"/>
    <path d="M29.0961 8.52857C27.1064 8.09913 24.9288 8.21625 24.9288 8.21625C24.9288 8.21625 24.2154 11.6517 19.7852 12.5497C19.8228 12.5497 25.6421 14.6187 29.0961 8.52857Z" fill="#808085" fill-opacity="0.5"/>
    <path d="M30.4066 39.5983C32.7686 37.6125 34.5401 34.8719 35.352 31.774C35.3889 31.6549 35.721 31.4562 35.9425 31.2974C36.3115 31.0591 36.6806 30.8604 36.7545 30.5427C36.902 29.6292 36.9758 28.676 36.9758 27.7228C36.9758 27.3653 36.6437 27.0079 36.3115 26.6504C36.0532 26.4121 35.7948 26.1341 35.7948 25.9355C35.4258 22.3212 33.8758 18.9453 31.4032 16.4828L31.1448 16.7608C33.5437 19.1836 35.0937 22.4801 35.4258 25.9752C35.4627 26.293 35.7579 26.6107 36.0532 26.9285C36.3115 27.1668 36.6068 27.5242 36.6068 27.683C36.6068 28.5966 36.533 29.5101 36.3853 30.4236C36.3484 30.5824 36.0163 30.7413 35.7579 30.9001C35.3889 31.0988 35.0568 31.2974 34.983 31.6152C34.0972 34.9911 32.0674 37.9302 29.3733 39.8367C29.853 38.7245 31.3661 35.1103 32.1781 33.2832L32.0305 27.405L27.3435 22.5198L24.6863 22.917L21.7708 28.0008C21.7708 28.0008 23.1363 29.8675 21.2172 32.052C19.335 34.1968 17.8588 34.6733 17.8588 34.6733L16.4932 33.879C16.8992 33.323 17.7111 32.4888 18.3385 31.9329C19.4088 30.9797 20.4791 30.9001 20.4791 29.8675C20.516 27.7227 18.3754 28.3185 18.3754 28.3185L17.6004 29.1129L17.2683 32.052L15.6444 34.2365L15.4599 34.1968L12.8027 33.5613C12.8027 33.5613 14.4265 32.6478 14.6849 31.6152C14.9432 30.6222 14.1682 27.3256 14.1313 27.1271C14.1682 27.1668 14.9063 27.842 15.2385 28.954C15.829 27.2065 16.6039 25.5384 16.8254 25.3795C17.0468 25.2207 20.0362 23.5127 20.0362 23.5127L19.0398 26.3327L19.7778 25.8958L21.5493 21.2092C21.5493 21.2092 23.2839 20.2956 24.5755 20.2956C26.9006 20.2559 30.3328 17.1976 28.7828 11.7167C29.2257 11.9153 36.902 16.0459 38.2307 24.1482C39.2271 30.3839 35.9425 36.2223 30.4066 39.5983Z" fill="#808085" fill-opacity="0.3"/>
    <path fill-rule="evenodd" clip-rule="evenodd" d="M35.305 5.83166C35.305 5.83166 37.1782 5.90974 39.1262 6.14401C34.7431 2.55201 30.5846 1.49784 27.213 1.49784C22.6006 1.49784 19.4656 3.46074 19.2377 3.60339L19.2333 3.60618L20.6944 1.18549C20.6944 1.18549 14.8501 0.599839 12.7896 7.042C12.2652 5.67549 11.7781 3.68427 11.7781 3.68427C11.7781 3.68427 8.74361 6.45635 10.1672 11.0635C6.68313 9.736 1.70053 7.90096 1.51322 7.86192C1.25098 7.82286 1.17605 7.94 1.17605 7.94C1.17605 7.94 1.10112 8.05713 1.32591 8.25234C1.73799 8.60373 9.60526 14.6555 11.3286 15.8267C10.9539 17.2323 10.9539 17.8961 11.3286 18.5598C11.853 19.4578 11.8905 19.9263 11.8156 20.5901C11.7407 21.2538 11.0663 26.9932 10.9165 27.6959C10.856 27.9796 10.5636 28.5558 10.2412 29.1911H10.2412C9.76497 30.1297 9.22341 31.1969 9.2681 31.6393C9.34302 32.3811 10.3171 35.5436 11.1787 35.8951C11.8156 36.1293 13.3891 36.6369 14.438 36.6369C14.8126 36.6369 15.1498 36.5588 15.2997 36.4026C15.9365 35.8169 16.1239 35.6999 16.5734 35.6999H16.6859C16.7716 35.6999 16.8651 35.7081 16.9666 35.7169H16.9667C17.0869 35.7275 17.218 35.7389 17.3602 35.7389C17.9596 35.7389 18.7462 35.6218 19.3082 35.0752C19.6967 34.6702 20.2184 34.1959 20.7085 33.7505C21.258 33.2508 21.7679 32.7872 22.0055 32.4983C22.5675 31.7564 22.8672 30.7413 22.7174 29.7262C22.6049 28.7892 23.092 27.9692 23.654 27.1494C24.3657 26.1732 25.6769 24.4163 25.6769 24.4163C28.2619 26.4465 29.8728 29.531 29.8728 32.9668C29.8728 39.0576 24.7779 43.977 18.4841 43.977C17.51 43.977 16.5734 43.8599 15.6368 43.6256C18.5215 44.6799 20.9566 45.0312 22.9421 45.0312C27.1754 45.0312 29.4233 43.4305 29.4233 43.4305C29.4233 43.4305 28.6365 44.4846 27.3628 45.695H27.4002C34.4059 44.6799 37.815 38.6671 37.815 38.6671C37.815 38.6671 37.5528 40.6194 37.2156 41.9468C46.3065 34.8315 45.0436 25.9734 44.9386 25.2379L44.9357 25.217C44.9345 25.2084 44.9336 25.2019 44.933 25.1971C44.9794 25.2696 45.3556 25.7457 45.7511 26.2461L45.7512 26.2463L45.7513 26.2464L45.7514 26.2465L45.7528 26.2483C45.996 26.556 46.2463 26.8727 46.4316 27.1102C47.9301 11.0244 35.305 5.83166 35.305 5.83166ZM20.9566 31.5223C20.8412 31.6725 20.4369 32.0545 20.0517 32.4184C19.9368 32.5269 19.8236 32.6339 19.7204 32.7325C19.5642 32.8818 19.4034 33.031 19.2445 33.1786L19.2444 33.1787H19.2442C18.9458 33.4558 18.6535 33.7272 18.4091 33.9819C18.2593 34.1381 17.9596 34.2162 17.51 34.2162H17.0979H16.8731H16.7233H16.386C16.948 33.4354 18.5964 31.6393 19.1584 31.2489C19.8327 30.7804 20.1699 30.3119 19.7578 29.4919C19.3456 28.672 18.2593 28.8672 18.2593 28.8672C18.2593 28.8672 18.8961 28.5939 19.4581 28.5939C18.7462 28.3988 17.8471 28.5939 17.4351 29.0235C17.1354 29.3098 17.0688 30.0819 17.0021 30.8541C16.9689 31.2402 16.9355 31.6264 16.8731 31.9517C16.7054 32.8608 16.1771 33.3628 15.369 34.1307L15.3683 34.1315L15.3678 34.1318L15.3654 34.1341L15.3649 34.1347C15.2718 34.2231 15.1751 34.3149 15.0749 34.4114C14.5504 34.9189 14.1757 35.0752 13.876 35.0752C13.2392 34.9581 12.4899 34.7628 11.9655 34.5675C11.5907 34.0601 11.0289 32.3811 10.879 31.6784C10.9599 31.3974 11.2154 30.894 11.4361 30.4592L11.4361 30.4591L11.4363 30.4587C11.5221 30.2895 11.6027 30.1308 11.6658 29.9995L11.7282 29.8748C12.1397 29.0537 12.3811 28.5718 12.4524 28.1255C12.6023 27.4617 13.0894 23.3621 13.2766 21.6442C13.7637 22.308 14.438 23.4012 14.2882 24.104C15.3746 22.5032 14.5879 20.9415 14.2132 20.3168C13.876 19.6921 13.4265 18.4427 13.8011 17.1151C14.1757 15.7877 15.5245 12.1176 15.5245 12.1176C15.5245 12.1176 15.974 12.9375 16.6108 12.7814C17.2477 12.6252 22.3801 4.58227 22.3801 4.58227C22.3801 4.58227 23.7663 7.74478 22.3052 10.0483C20.8067 12.3519 19.3456 12.7814 19.3456 12.7814C19.3456 12.7814 21.4061 13.1718 23.3168 11.7272C24.1035 13.6403 24.8528 15.6316 24.8902 15.9049C24.8713 15.9509 24.8128 16.0961 24.728 16.3067L24.7275 16.3078L24.7273 16.3083L24.7272 16.3086L24.7271 16.309C24.3089 17.3473 23.2539 19.966 23.1295 20.1606C23.0546 20.2386 22.53 20.3948 22.1554 20.4729C21.5186 20.6682 21.1439 20.7852 20.9941 20.9025C20.7318 21.1366 19.533 24.5724 18.971 26.2514C18.2967 26.4465 17.6224 26.837 17.1354 27.6179C17.3976 27.4226 18.2218 27.3055 18.8212 27.2274C19.3456 27.1884 20.9566 28.0864 21.3687 29.7653V29.8433C21.4436 30.468 21.2563 31.0537 20.9566 31.5223ZM17.4351 31.9907C17.7004 31.5913 17.7337 30.9743 17.7542 30.5963C17.7597 30.4939 17.7642 30.4091 17.7722 30.3509C17.8097 30.0776 17.8847 29.57 18.1844 29.4919C18.4841 29.4139 19.1958 29.531 19.1958 30.0776C19.1958 30.4271 18.9472 30.5915 18.67 30.7748C18.5446 30.8576 18.4134 30.9443 18.2967 31.0537C18.1258 31.2318 17.8437 31.5424 17.6471 31.7589L17.647 31.759C17.5418 31.8747 17.4612 31.9635 17.4351 31.9907ZM32.3829 24.5334C32.7575 22.5422 32.7949 20.8243 32.6826 19.4188C34.1437 21.449 35.0428 23.9087 35.305 26.4465C35.3425 26.7589 35.6422 27.0712 35.9419 27.3836C36.2041 27.6179 36.5038 27.9302 36.5038 28.1255C36.5038 29.0235 36.4288 29.9214 36.279 30.8194C36.2435 30.9304 35.9387 31.1116 35.6837 31.2632L35.6422 31.288C35.2675 31.4831 34.9303 31.6784 34.8554 31.9907C34.0312 34.9971 32.2704 37.652 29.9103 39.5261C33.3943 35.7389 35.0802 29.4919 32.3829 24.5334ZM30.0227 39.8774C32.4578 37.9253 34.3309 35.1922 35.1551 32.1078C35.1841 32.0172 35.3923 31.8801 35.5891 31.7502L35.5892 31.7501L35.5901 31.7495L35.5905 31.7494L35.5913 31.7488C35.6482 31.7112 35.7042 31.6743 35.7545 31.6393C36.1291 31.4441 36.5038 31.2099 36.5787 30.8976C36.7285 29.9995 36.8035 29.0625 36.8035 28.1255C36.8035 27.7741 36.4664 27.4226 36.1291 27.0712C36.0819 27.0121 36.0274 26.9506 35.9725 26.8883V26.8882C35.8097 26.704 35.6422 26.5145 35.6422 26.3685C35.3425 23.5183 34.256 20.8243 32.5702 18.5988C31.833 13.9893 28.9201 12.5166 28.7548 12.433C28.7522 12.4316 28.7501 12.4306 28.749 12.4299L28.7535 12.4372C28.8815 12.6349 30.7518 15.5269 29.4233 18.9112C28.1844 22.0169 25.2098 21.9102 24.3778 21.8803C24.2788 21.8769 24.2102 21.8744 24.1785 21.8785C23.8788 21.8785 22.7174 23.4403 21.2563 26.3294C21.069 26.2514 20.2822 26.0561 19.3831 26.2124C20.0575 24.2601 21.069 21.488 21.2563 21.2538C21.316 21.1916 21.6849 21.0797 22.0219 20.9777C22.1078 20.9516 22.1916 20.9262 22.2678 20.9025C22.9795 20.7072 23.3168 20.5901 23.4292 20.4339C23.5041 20.3168 23.8787 19.4188 24.2534 18.4817C24.5905 18.4817 25.4522 18.4037 25.5271 18.3645C25.602 18.2865 26.3139 16.3734 26.3139 16.1391C26.3139 15.9439 24.8528 12.1567 24.2908 10.7121C24.5531 10.3997 24.8153 10.0093 25.0775 9.57983C32.7575 10.4388 38.7516 17.2323 38.7516 25.4705C38.7516 31.7955 35.1926 37.3006 30.0227 39.8774ZM22.0055 6.92483C22.0055 6.92483 22.3428 8.48656 21.4811 9.54074C20.3947 10.8292 19.4581 10.7901 19.4955 10.7901L22.0055 6.92483ZM13.3515 29.1015L13.0518 30.6633C13.0518 30.6633 13.6512 30.5852 13.6512 31.288C13.6512 31.8346 13.0518 32.5764 12.5649 32.6154C12.0778 32.6546 11.8906 32.0299 12.0029 31.6784C12.1153 31.366 13.3515 29.1015 13.3515 29.1015ZM19.0835 16.061C20.3947 16.3343 20.7693 17.9351 20.0575 18.7941C19.3456 19.6139 17.5474 20.7852 16.4985 21.0586C16.2737 21.9566 14.3631 21.5662 15.0749 18.7159C15.0749 18.7159 15.412 20.0825 15.7492 19.9653C16.0864 19.8482 19.9076 13.6013 19.9076 13.6013C19.9076 13.6013 19.4206 15.2411 19.0835 16.061ZM18.7462 16.8419L16.7982 20.3168C16.7982 20.3168 18.5964 19.4578 19.3082 18.3646C19.8701 17.4276 18.7462 16.8419 18.7462 16.8419ZM18.4841 2.55204C15.1123 4.66038 15.7867 9.69697 15.7867 9.69697C12.711 4.81429 17.7269 2.84931 18.4164 2.57919V2.57918L18.4165 2.57917V2.57914C18.4491 2.56634 18.4722 2.55734 18.4841 2.55204ZM34.818 4.62139C29.2359 3.52818 25.6394 4.07478 23.0546 5.08992C22.9797 4.77757 22.7174 4.15287 22.4926 3.64531C21.7349 4.58529 20.9426 5.70632 20.4166 6.45048L20.3572 6.53452C18.9336 7.54964 18.3342 8.52573 18.3342 8.52573C19.1584 5.59748 21.556 3.41105 24.4782 2.86443C25.3023 2.70826 26.2014 2.63018 27.1755 2.63018C29.7604 2.66922 32.3454 3.33297 34.818 4.62139ZM36.0168 11.5711C41.2991 15.202 43.6968 19.2235 45.3825 23.9477C45.3076 18.9502 43.6968 14.6554 40.5873 11.2196L40.5124 11.1415C37.7776 8.1352 33.769 6.72964 29.7979 7.31529C28.2993 7.5105 26.8008 7.82285 25.6394 8.21328C25.4522 8.25233 25.2648 8.29137 25.0776 8.36945H25.1525C25.4522 8.33041 30.9218 8.05711 36.0168 11.5711ZM38.9389 38.7843C39.6881 38.0034 40.325 37.1835 40.887 36.4026C44.1088 31.7174 43.6593 25.2753 39.9504 20.9805C39.6507 20.6291 39.3135 20.2386 38.9764 19.8872C39.1637 20.2386 43.7717 29.1015 38.9389 38.7843ZM11.3193 6.37661C11.1771 6.9422 9.91416 11.9659 14.1757 12.1177C11.6283 10.5169 11.3286 6.37834 11.3286 6.3393C11.3265 6.34797 11.3234 6.36047 11.3193 6.37661ZM13.1268 14.5773C13.389 14.0698 13.1643 13.7185 12.9395 13.5232L12.8646 13.4451C12.415 13.2109 9.60526 12.1176 6.83298 11.1025C9.26808 12.7814 11.9655 14.4212 12.415 14.6555C12.7521 14.8116 12.9769 14.8507 13.1268 14.5773Z" fill="#808085"/>
</svg>
