<svg width="168" height="62" viewBox="0 0 168 62" fill="none" xmlns="http://www.w3.org/2000/svg">
    <g clip-path="url(#clip0_12992_608990)">
        <path d="M83.487 23.0145H77.2439L76.2432 25.9399H71.978L78.0304 9.37841H82.7485L88.8009 25.9399H84.488L83.487 23.0145ZM82.4387 19.9004L80.3655 13.8373L78.3164 19.9004H82.4387Z" fill="#808085"/>
        <path d="M94.7174 8.48193V25.9399H90.6428V8.48193H94.7174Z" fill="#808085"/>
        <path d="M101.745 14.6394C102.142 14.026 102.69 13.5306 103.389 13.1531C104.088 12.7757 104.906 12.5869 105.843 12.5869C106.939 12.5869 107.932 12.8622 108.822 13.4126C109.711 13.9631 110.41 14.7495 110.919 15.7718C111.443 16.7941 111.705 17.9816 111.705 19.3342C111.705 20.6868 111.443 21.8821 110.919 22.9201C110.41 23.9425 109.711 24.7367 108.822 25.3029C107.932 25.8534 106.939 26.1286 105.843 26.1286C104.922 26.1286 104.104 25.9399 103.389 25.5624C102.69 25.185 102.142 24.6974 101.745 24.0997V32.2153H97.6704V12.7757H101.745V14.6394ZM107.559 19.3342C107.559 18.3276 107.273 17.5412 106.701 16.975C106.145 16.393 105.454 16.1021 104.628 16.1021C103.818 16.1021 103.127 16.393 102.555 16.975C101.999 17.5569 101.721 18.3512 101.721 19.3578C101.721 20.3644 101.999 21.1586 102.555 21.7406C103.127 22.3225 103.818 22.6134 104.628 22.6134C105.438 22.6134 106.129 22.3225 106.701 21.7406C107.273 21.1429 107.559 20.3408 107.559 19.3342Z" fill="#808085"/>
        <path d="M113.033 19.3342C113.033 17.9816 113.287 16.7941 113.795 15.7718C114.319 14.7495 115.026 13.9631 115.916 13.4126C116.805 12.8622 117.798 12.5869 118.894 12.5869C119.832 12.5869 120.65 12.7757 121.349 13.1531C122.064 13.5306 122.611 14.026 122.993 14.6394V12.7757H127.067V25.9399H122.993V24.0761C122.596 24.6895 122.04 25.185 121.325 25.5624C120.626 25.9399 119.808 26.1286 118.871 26.1286C117.79 26.1286 116.805 25.8534 115.916 25.3029C115.026 24.7367 114.319 23.9425 113.795 22.9201C113.287 21.8821 113.033 20.6868 113.033 19.3342ZM122.993 19.3578C122.993 18.3512 122.707 17.5569 122.135 16.975C121.579 16.393 120.896 16.1021 120.086 16.1021C119.276 16.1021 118.585 16.393 118.013 16.975C117.457 17.5412 117.179 18.3276 117.179 19.3342C117.179 20.3408 117.457 21.1429 118.013 21.7406C118.585 22.3225 119.276 22.6134 120.086 22.6134C120.896 22.6134 121.579 22.3225 122.135 21.7406C122.707 21.1586 122.993 20.3644 122.993 19.3578Z" fill="#808085"/>
        <path d="M129.205 19.3578C129.205 17.9895 129.483 16.7941 130.039 15.7718C130.611 14.7495 131.397 13.9631 132.398 13.4126C133.415 12.8622 134.574 12.5869 135.877 12.5869C137.545 12.5869 138.935 13.0194 140.047 13.8845C141.175 14.7495 141.913 15.9684 142.263 17.5412H137.926C137.561 16.5346 136.854 16.0313 135.806 16.0313C135.059 16.0313 134.463 16.3223 134.018 16.9042C133.574 17.4704 133.351 18.2883 133.351 19.3578C133.351 20.4273 133.574 21.253 134.018 21.8349C134.463 22.4011 135.059 22.6842 135.806 22.6842C136.854 22.6842 137.561 22.1809 137.926 21.1743H142.263C141.913 22.7157 141.175 23.9267 140.047 24.8075C138.919 25.6882 137.529 26.1286 135.877 26.1286C134.574 26.1286 133.415 25.8534 132.398 25.3029C131.397 24.7524 130.611 23.966 130.039 22.9437C129.483 21.9214 129.205 20.7261 129.205 19.3578Z" fill="#808085"/>
        <path d="M143.632 19.3342C143.632 17.9816 143.887 16.7941 144.395 15.7718C144.919 14.7495 145.626 13.9631 146.516 13.4126C147.405 12.8622 148.398 12.5869 149.494 12.5869C150.431 12.5869 151.249 12.7757 151.948 13.1531C152.663 13.5306 153.211 14.026 153.593 14.6394V12.7757H157.667V25.9399H153.593V24.0761C153.195 24.6895 152.64 25.185 151.925 25.5624C151.226 25.9399 150.408 26.1286 149.47 26.1286C148.39 26.1286 147.405 25.8534 146.516 25.3029C145.626 24.7367 144.919 23.9425 144.395 22.9201C143.887 21.8821 143.632 20.6868 143.632 19.3342ZM153.593 19.3578C153.593 18.3512 153.307 17.5569 152.735 16.975C152.179 16.393 151.496 16.1021 150.686 16.1021C149.876 16.1021 149.184 16.393 148.613 16.975C148.056 17.5412 147.779 18.3276 147.779 19.3342C147.779 20.3408 148.056 21.1429 148.613 21.7406C149.184 22.3225 149.876 22.6134 150.686 22.6134C151.496 22.6134 152.179 22.3225 152.735 21.7406C153.307 21.1586 153.593 20.3644 153.593 19.3578Z" fill="#808085"/>
        <path d="M82.8677 34.8865V38.1187H76.0526V41.6103H81.152V44.7478H76.0526V51.448H71.978V34.8865H82.8677Z" fill="#808085"/>
        <path d="M87.0584 36.9154C86.3434 36.9154 85.7556 36.711 85.295 36.3019C84.8502 35.8773 84.628 35.3584 84.628 34.7449C84.628 34.1159 84.8502 33.5967 85.295 33.1878C85.7556 32.7632 86.3434 32.5508 87.0584 32.5508C87.7573 32.5508 88.3293 32.7632 88.7741 33.1878C89.2346 33.5967 89.4649 34.1159 89.4649 34.7449C89.4649 35.3584 89.2346 35.8773 88.7741 36.3019C88.3293 36.711 87.7573 36.9154 87.0584 36.9154ZM89.0839 38.2838V51.448H85.009V38.2838H89.0839Z" fill="#808085"/>
        <path d="M100.138 38.1422C101.695 38.1422 102.934 38.6453 103.855 39.6518C104.793 40.643 105.261 42.0113 105.261 43.757V51.448H101.211V44.2997C101.211 43.419 100.98 42.7346 100.519 42.247C100.059 41.7596 99.4391 41.5156 98.661 41.5156C97.8825 41.5156 97.2629 41.7596 96.8023 42.247C96.3414 42.7346 96.1111 43.419 96.1111 44.2997V51.448H92.0366V38.2838H96.1111V40.0294C96.5244 39.4474 97.0802 38.9913 97.7791 38.6611C98.478 38.315 99.2646 38.1422 100.138 38.1422Z" fill="#808085"/>
        <path d="M107.283 44.8421C107.283 43.4895 107.537 42.302 108.045 41.2797C108.569 40.2577 109.276 39.4713 110.166 38.9205C111.056 38.3701 112.048 38.0948 113.144 38.0948C114.082 38.0948 114.9 38.2838 115.599 38.6611C116.313 39.0386 116.862 39.534 117.243 40.1476V38.2838H121.317V51.448H117.243V49.5842C116.846 50.1974 116.29 50.6928 115.575 51.0704C114.876 51.448 114.058 51.6366 113.121 51.6366C112.04 51.6366 111.056 51.3614 110.166 50.811C109.276 50.2448 108.569 49.4503 108.045 48.4283C107.537 47.3902 107.283 46.1947 107.283 44.8421ZM117.243 44.8659C117.243 43.8593 116.957 43.0649 116.385 42.4829C115.829 41.9009 115.146 41.6103 114.336 41.6103C113.525 41.6103 112.835 41.9009 112.263 42.4829C111.707 43.0491 111.429 43.8355 111.429 44.8421C111.429 45.8486 111.707 46.6508 112.263 47.2486C112.835 47.8306 113.525 48.1216 114.336 48.1216C115.146 48.1216 115.829 47.8306 116.385 47.2486C116.957 46.6666 117.243 45.8725 117.243 44.8659Z" fill="#808085"/>
        <path d="M132.367 38.1422C133.924 38.1422 135.163 38.6453 136.084 39.6518C137.021 40.643 137.49 42.0113 137.49 43.757V51.448H133.439V44.2997C133.439 43.419 133.209 42.7346 132.748 42.247C132.287 41.7596 131.668 41.5156 130.889 41.5156C130.111 41.5156 129.492 41.7596 129.031 42.247C128.57 42.7346 128.34 43.419 128.34 44.2997V51.448H124.265V38.2838H128.34V40.0294C128.753 39.4474 129.309 38.9913 130.008 38.6611C130.707 38.315 131.493 38.1422 132.367 38.1422Z" fill="#808085"/>
        <path d="M139.511 44.8659C139.511 43.4975 139.789 42.302 140.345 41.2797C140.917 40.2577 141.704 39.4713 142.704 38.9205C143.721 38.3701 144.881 38.0948 146.183 38.0948C147.851 38.0948 149.241 38.5275 150.353 39.3924C151.481 40.2577 152.22 41.4763 152.569 43.0491H148.232C147.867 42.0426 147.16 41.5394 146.112 41.5394C145.365 41.5394 144.769 41.8304 144.325 42.4121C143.88 42.9783 143.657 43.7962 143.657 44.8659C143.657 45.9352 143.88 46.7609 144.325 47.3429C144.769 47.9091 145.365 48.1924 146.112 48.1924C147.16 48.1924 147.867 47.6889 148.232 46.6824H152.569C152.22 48.2236 151.481 49.4349 150.353 50.3156C149.225 51.1963 147.835 51.6366 146.183 51.6366C144.881 51.6366 143.721 51.3614 142.704 50.811C141.704 50.2605 140.917 49.4742 140.345 48.4518C139.789 47.4295 139.511 46.2343 139.511 44.8659Z" fill="#808085"/>
        <path d="M167.282 44.6535C167.282 45.031 167.259 45.4241 167.211 45.8332H157.989C158.053 46.6508 158.315 47.2801 158.776 47.7205C159.252 48.145 159.832 48.3575 160.515 48.3575C161.532 48.3575 162.239 47.9326 162.636 47.0834H166.973C166.75 47.9484 166.345 48.727 165.757 49.4191C165.185 50.1112 164.463 50.6536 163.589 51.0469C162.715 51.44 161.738 51.6366 160.658 51.6366C159.356 51.6366 158.196 51.3614 157.179 50.811C156.163 50.2605 155.368 49.4742 154.796 48.4518C154.224 47.4295 153.939 46.2343 153.939 44.8659C153.939 43.4975 154.217 42.302 154.773 41.2797C155.345 40.2577 156.139 39.4713 157.155 38.9205C158.172 38.3701 159.34 38.0948 160.658 38.0948C161.945 38.0948 163.088 38.3623 164.089 38.897C165.09 39.4317 165.869 40.1946 166.424 41.1854C166.996 42.1765 167.282 43.3324 167.282 44.6535ZM163.112 43.5918C163.112 42.8998 162.874 42.3493 162.398 41.9405C161.921 41.5314 161.325 41.327 160.61 41.327C159.927 41.327 159.348 41.5237 158.871 41.9167C158.41 42.3101 158.124 42.8682 158.013 43.5918H163.112Z" fill="#808085"/>
        <path fill-rule="evenodd" clip-rule="evenodd" d="M61.5378 32.158C61.5605 31.6765 61.5719 31.1922 61.5719 30.7051C61.5719 13.9294 47.9705 0.330078 31.1922 0.330078C14.414 0.330078 0.8125 13.9294 0.8125 30.7051C0.8125 42.8715 7.96653 53.3672 18.298 58.2163L19.6773 55.6172C19.6027 55.523 19.5356 55.4273 19.4752 55.3301C19.0911 54.7112 19.012 54.0776 19.012 53.5234C19.012 52.8086 19.2976 52.2573 19.5664 51.9244C19.2143 51.4113 19.02 50.7669 19.012 50.12C19.0023 49.3247 19.3596 48.7608 19.8724 48.4328C20.271 48.1779 20.7477 48.0745 21.1902 48.0894C21.1988 47.859 21.2041 47.6247 21.2041 47.3743C21.2041 46.7382 21.1339 46.2804 21.0614 45.8635L21.0389 45.7356C20.9734 45.3643 20.9077 44.9929 20.9077 44.5591C20.9077 44.0562 20.9959 43.79 21.0935 43.4973L21.0951 43.4925C21.1826 43.2299 21.2848 42.9234 21.3546 42.2956C21.426 41.6535 21.4264 41.1173 21.4081 40.5141C21.4033 40.3557 21.3971 40.1915 21.3907 40.0196L21.3907 40.0194C21.3727 39.5389 21.3523 38.9959 21.3523 38.3359C21.3523 36.5303 21.5036 35.4627 21.808 34.2454C21.9392 33.7205 21.9088 33.2202 21.8383 32.7617C21.8125 32.5941 21.7826 32.4392 21.7534 32.2877L21.7534 32.2874L21.7533 32.2868C21.7419 32.2279 21.7307 32.1695 21.7198 32.111C21.683 31.9131 21.6487 31.7064 21.6487 31.52C21.6487 31.2147 21.6848 30.9453 21.7193 30.6883L21.7261 30.6376C21.7627 30.3628 21.7969 30.0866 21.7969 29.742C21.7969 29.4572 21.774 29.1043 21.7455 28.6649C21.7384 28.5563 21.731 28.4424 21.7235 28.323C21.6863 27.728 21.6487 27.0154 21.6487 26.1859C21.6487 24.9063 22.0352 23.5162 22.3349 22.704C21.0723 21.189 19.8644 18.4321 19.2342 16.0379C18.9063 14.7918 18.7233 13.6023 18.7853 12.7069C18.8161 12.262 18.9098 11.8485 19.1122 11.5359C19.3292 11.2009 19.6627 10.9984 20.0927 10.9984C20.3708 10.9984 20.658 11.0856 20.9369 11.2153C21.2187 11.3463 21.5139 11.5311 21.8141 11.7504C22.4141 12.1889 23.0646 12.7884 23.7094 13.4425C24.8117 14.5606 25.9275 15.8695 26.7802 16.8699L26.7802 16.87L26.7856 16.8763L27.0083 17.1374C27.762 16.808 29.2215 16.3325 31.059 16.3325C32.8965 16.3325 34.356 16.808 35.1097 17.1374L35.3313 16.8776L35.3378 16.87C36.1905 15.8696 37.3063 14.5606 38.4086 13.4425C39.0534 12.7884 39.7039 12.1889 40.3039 11.7504C40.6041 11.5311 40.8993 11.3463 41.1811 11.2153C41.46 11.0856 41.7472 10.9984 42.0253 10.9984C42.4553 10.9984 42.7889 11.2009 43.0058 11.5359C43.2082 11.8485 43.3019 12.262 43.3327 12.7069C43.3947 13.6023 43.2117 14.7918 42.8838 16.0379C42.2536 18.4321 41.0457 21.189 39.7831 22.704C40.0828 23.5162 40.4693 24.9063 40.4693 26.1859C40.4693 27.0154 40.4317 27.728 40.3945 28.323C40.3871 28.4415 40.3797 28.5547 40.3727 28.6626L40.3725 28.665C40.344 29.1044 40.3211 29.4572 40.3211 29.742C40.3211 30.0866 40.3553 30.3628 40.392 30.6376L40.3987 30.6884C40.4332 30.9453 40.4693 31.2147 40.4693 31.52C40.4693 31.7064 40.435 31.9131 40.3982 32.111C40.3873 32.1697 40.376 32.2283 40.3646 32.2874C40.3354 32.439 40.3056 32.5939 40.2798 32.7617C40.2092 33.2202 40.1788 33.7205 40.31 34.2454C40.6144 35.4627 40.7657 36.5303 40.7657 38.3359C40.7657 38.996 40.7453 39.539 40.7273 40.0196L40.7273 40.0203C40.7209 40.192 40.7147 40.3558 40.7099 40.5141C40.6917 41.1173 40.6921 41.6535 40.7634 42.2956L40.7652 42.3112C44.2626 39.0882 48.9324 36.9691 53.7571 35.0972C54.9986 34.6155 56.2496 34.1504 57.4951 33.6873L57.4956 33.6871L57.4957 33.6871C58.8559 33.1813 60.2097 32.6779 61.5378 32.158ZM61.4886 32.9724C61.1667 37.3338 59.9237 41.4391 57.9534 45.0946C55.01 46.2026 52.592 47.5682 50.5671 48.7117L50.3581 48.8298C49.2063 49.4799 48.1944 50.0445 47.2788 50.4479C46.5763 50.7573 45.9499 50.9628 45.3793 51.042C45.3389 50.6725 45.1909 50.3081 44.9019 49.9679C44.6083 49.6222 44.1788 49.3123 43.5939 49.0392C43.6674 48.846 43.708 48.6591 43.7136 48.4785C43.728 48.0148 43.5101 47.6554 43.175 47.4092C42.8554 47.1744 42.4307 47.0406 41.9859 46.9713C41.6543 46.9196 41.2944 46.9012 40.927 46.9104C40.9507 46.5021 41.003 46.1716 41.0566 45.8635L41.0652 45.8145L41.0791 45.7356C41.1446 45.3643 41.2103 44.9929 41.2103 44.5591C41.2103 44.0562 41.1221 43.79 41.0245 43.4973L41.0229 43.4925C40.9914 43.398 40.958 43.2978 40.9249 43.179C44.3415 39.8787 49.0411 37.7216 54.0251 35.7879C55.242 35.3158 56.4767 34.8567 57.7124 34.3974L57.7136 34.3969L57.7141 34.3967L57.7142 34.3967C58.9774 33.9271 60.2416 33.4571 61.4886 32.9724ZM57.3775 46.1154C54.5903 50.8397 50.5607 54.7439 45.738 57.3786L43.7244 53.6667C43.8097 53.6048 43.8924 53.5424 43.9722 53.4795C44.6044 52.9818 45.1146 52.4132 45.3076 51.7967C46.0299 51.723 46.7845 51.4752 47.5775 51.1259C48.5328 50.705 49.5771 50.1213 50.7223 49.4749L50.9202 49.3632C52.7497 48.3301 54.8625 47.1369 57.3775 46.1154ZM39.4434 19.2305C39.1853 19.7267 38.9165 20.1657 38.6567 20.5019C38.2779 19.9443 37.8383 19.4214 37.3116 18.8779C37.7089 18.1242 38.3229 17.0702 38.9647 16.1852C39.308 15.7119 39.6539 15.2945 39.9742 14.9976C40.1343 14.8493 40.2829 14.7359 40.4168 14.6605C40.5521 14.5844 40.6594 14.5545 40.7409 14.5545C40.7577 14.5545 40.7616 14.558 40.7636 14.5597L40.7639 14.56C40.7696 14.5648 40.7859 14.5824 40.8023 14.6303C40.8369 14.7307 40.8511 14.9018 40.8306 15.1472C40.7902 15.6302 40.6244 16.305 40.3749 17.0389C40.1263 17.7698 39.799 18.5466 39.4434 19.2305ZM24.7424 18.9443C24.3468 18.187 23.7154 17.0965 23.0544 16.1852C22.7112 15.7119 22.3653 15.2945 22.045 14.9976C21.8849 14.8493 21.7363 14.7359 21.6024 14.6605C21.4671 14.5844 21.3598 14.5545 21.2782 14.5545C21.2615 14.5545 21.2576 14.558 21.2556 14.5597L21.2552 14.56C21.2496 14.5648 21.2333 14.5824 21.2168 14.6303C21.1823 14.7307 21.168 14.9018 21.1885 15.1472C21.2289 15.6302 21.3947 16.305 21.6443 17.0389C21.8929 17.7698 22.2201 18.5466 22.5758 19.2305C22.8515 19.7607 23.1396 20.2257 23.4157 20.5696C23.7895 20.0094 24.223 19.486 24.7424 18.9443ZM43.0907 49.8968C43.1438 49.8279 43.1936 49.7596 43.2402 49.6919C43.7814 49.9394 44.1258 50.1986 44.3372 50.4474C44.5759 50.7285 44.6568 51.0098 44.6496 51.2914C44.6381 51.7445 44.2759 52.2975 43.5138 52.8975C42.7713 53.482 41.7296 54.047 40.5453 54.5379C38.4082 55.4237 35.8786 56.0391 33.9421 56.1124C33.9664 55.9987 33.9796 55.8767 33.9796 55.746C33.9796 55.4073 33.8794 55.1292 33.7176 54.9079C33.9329 54.7496 34.1686 54.5783 34.4196 54.3959L34.4234 54.3932L34.4252 54.3919L34.4256 54.3916C35.1792 53.844 36.0702 53.1967 36.9599 52.5C38.3136 51.4399 39.707 50.234 40.6971 49.0155C40.8034 48.8847 40.8454 48.7066 40.8676 48.5864C40.8935 48.4463 40.9078 48.2868 40.9163 48.1323C40.9251 47.9709 40.928 47.8025 40.9287 47.6515C41.2652 47.6422 41.586 47.6588 41.8718 47.7033C42.2589 47.7636 42.5516 47.8706 42.7362 48.0062C42.9053 48.1304 42.9787 48.2711 42.973 48.4556C42.9664 48.6677 42.8529 48.9909 42.5034 49.4451C42.3787 49.6073 42.409 49.8398 42.5712 49.9646C42.7334 50.0893 42.966 50.059 43.0907 49.8968ZM21.2732 48.8369C23.8749 51.293 26.4081 53.6444 30.204 55.2827C30.1542 55.4248 30.1265 55.5796 30.1265 55.746C30.1265 56.0611 30.1952 56.3322 30.3188 56.56C30.0917 56.6233 29.7677 56.6931 29.3591 56.758C28.7139 56.8604 27.901 56.9441 27.0238 56.9757C25.2559 57.0392 23.2853 56.8883 21.8995 56.2945C20.9109 55.8709 20.3876 55.3949 20.1048 54.9394C19.8221 54.484 19.753 54.0064 19.753 53.5234C19.753 53.0677 19.9157 52.7119 20.0708 52.4861C20.2297 52.625 20.3935 52.739 20.5506 52.8175C20.7336 52.909 20.9561 52.8348 21.0476 52.6519C21.1391 52.4689 21.0649 52.2464 20.8819 52.1549C20.7316 52.0797 20.5297 51.9249 20.3328 51.704C19.9786 51.3068 19.7605 50.7208 19.753 50.1109C19.7463 49.5727 19.9735 49.2476 20.2717 49.057C20.5581 48.8738 20.9316 48.8031 21.2732 48.8369ZM30.8675 55.746C30.8675 55.5138 30.9789 55.321 31.1792 55.1742C31.3858 55.0227 31.6771 54.931 31.9789 54.931C32.3096 54.931 32.6451 54.9986 32.884 55.1392C33.1042 55.2687 33.2386 55.4527 33.2386 55.746C33.2386 56.1161 33.0636 56.3418 32.8336 56.4907C32.5863 56.6506 32.2878 56.7091 32.1271 56.7091C31.9302 56.7091 31.5922 56.6763 31.3171 56.5325C31.1845 56.4631 31.0758 56.3729 30.9995 56.2559C30.9246 56.1412 30.8675 55.9803 30.8675 55.746Z" fill="#808085"/>
        <path fill-rule="evenodd" clip-rule="evenodd" d="M32.0277 28.3506C32.2591 28.2565 32.5349 28.1861 32.808 28.1861C33.1577 28.1861 33.5041 28.3163 33.7654 28.5339C34.0278 28.7526 34.2158 29.0706 34.2158 29.4455C34.2158 29.9804 33.9991 30.5053 33.841 30.837C34.1017 31.0001 34.3525 31.2213 34.5596 31.4535C34.814 31.7387 35.0264 32.0671 35.0984 32.355C35.1676 32.6318 35.2085 33.0284 35.1281 33.412C35.0529 33.771 34.8664 34.1349 34.4842 34.3583C34.3147 35.0007 33.6099 36.0671 31.9347 36.1867C31.046 36.2502 30.4073 35.9733 29.9748 35.5865C29.6127 35.2627 29.4021 34.8684 29.3047 34.5509C28.7814 34.4644 28.4203 34.0813 28.2598 33.6201C28.0841 33.1151 28.1371 32.4941 28.4736 31.9893C28.723 31.6153 28.9496 31.3192 29.3091 30.9906C29.2564 30.6468 29.1773 30.0295 29.1773 29.5937C29.1773 29.2579 29.2655 28.9756 29.4317 28.7583C29.5979 28.5409 29.8295 28.4052 30.0866 28.3409C30.4336 28.2541 30.7841 28.2995 31.0709 28.3795C31.2773 28.4371 31.4594 28.515 31.5965 28.5849C31.7158 28.4979 31.8664 28.4163 32.0277 28.3506ZM29.781 34.5631C29.8716 34.7834 30.0289 35.0386 30.2712 35.2552C30.6123 35.5603 31.132 35.7984 31.903 35.7434C33.0976 35.658 33.6911 35.0333 33.9375 34.5466C33.9162 34.5499 33.8947 34.553 33.8729 34.5557C33.3149 34.6255 32.8114 34.3768 32.4258 34.0725C32.1806 33.8791 31.9711 33.654 31.8098 33.4475C31.5315 33.9209 30.9625 34.4567 29.8643 34.5565C29.8361 34.5591 29.8083 34.5613 29.781 34.5631ZM32.1953 28.7624C31.9989 28.8423 31.8502 28.9394 31.7796 29.01L31.6569 29.1327L31.5081 29.0434C31.3985 28.9777 31.1945 28.8754 30.9514 28.8076C30.7072 28.7395 30.4402 28.7107 30.1944 28.7721C30.0203 28.8157 29.8813 28.9022 29.7849 29.0283C29.6884 29.1544 29.6218 29.3368 29.6218 29.5937C29.6218 30.0484 29.7179 30.7444 29.767 31.0389L29.7874 31.1611L29.6941 31.2427C29.3182 31.5716 29.0996 31.8518 28.8435 32.2359C28.5873 32.6201 28.5479 33.0951 28.6797 33.4741C28.8103 33.8493 29.0967 34.1076 29.4903 34.1238C29.5893 34.1279 29.7001 34.1251 29.824 34.1138C31.0233 34.0048 31.4337 33.3095 31.5598 32.9313L31.7126 32.4729L31.9613 32.8873C32.0981 33.1153 32.3627 33.4566 32.7012 33.7236C33.0417 33.9922 33.4274 34.1634 33.8178 34.1146C33.9687 34.0958 34.0923 34.0584 34.1936 34.0097C34.4826 33.8708 34.6308 33.6177 34.693 33.3209C34.7562 33.0193 34.7246 32.6928 34.6671 32.4629C34.6205 32.2766 34.4624 32.0124 34.2278 31.7494C33.9965 31.4901 33.7143 31.2584 33.4496 31.126L33.2507 31.0266L33.3502 30.8278C33.5016 30.525 33.7713 29.9779 33.7713 29.4455C33.7713 29.2278 33.663 29.0272 33.4808 28.8754C33.2974 28.7227 33.0511 28.6306 32.808 28.6306C32.6069 28.6306 32.3888 28.6836 32.1953 28.7624Z" fill="#808085"/>
        <path d="M30.4369 30.6309C30.2887 30.3346 30.2707 29.8466 30.5851 29.7419C31.1683 29.5475 31.4467 30.7929 31.1779 30.9272C30.8815 31.0754 30.5851 30.9272 30.4369 30.6309Z" fill="#808085"/>
        <path d="M32.2152 30.3346C32.2152 30.0382 32.3634 29.5937 32.6598 29.5937C32.808 29.5937 32.9562 29.7419 32.9562 30.0382C32.9562 30.4827 32.808 30.7791 32.5116 30.7791C32.3634 30.7791 32.2152 30.6309 32.2152 30.3346Z" fill="#808085"/>
        <path fill-rule="evenodd" clip-rule="evenodd" d="M39.9213 26.0376C39.4273 26.1858 38.2319 26.5414 37.402 26.7785C37.124 26.8579 36.8461 26.9266 36.5881 26.9905C35.8832 27.1648 35.3273 27.3024 35.3273 27.5193C35.3273 27.6331 35.4585 27.7107 35.5783 27.7816C35.6791 27.8413 35.7719 27.8961 35.7719 27.9638C35.7719 28.112 36.0683 29.5937 37.6984 29.5937C39.8105 29.5937 39.9213 27.5672 39.9213 26.0376ZM37.2538 28.2602C37.4993 28.2602 37.6984 28.0611 37.6984 27.8156C37.6984 27.5702 37.4993 27.3711 37.2538 27.3711C37.0083 27.3711 36.8092 27.5702 36.8092 27.8156C36.8092 28.0611 37.0083 28.2602 37.2538 28.2602Z" fill="#808085"/>
        <path fill-rule="evenodd" clip-rule="evenodd" d="M27.473 27.8156C27.473 27.9638 27.3248 28.112 27.0285 28.112C26.7321 28.112 26.6579 28.1864 26.5839 28.4083C26.4357 28.8528 25.8429 29.89 24.361 29.7419C22.429 29.5487 22.4317 28.0734 22.4343 26.6391C22.4344 26.5867 22.4345 26.5344 22.4345 26.4821C23.7826 26.7044 25.4006 27.0686 26.8468 27.4789C27.2376 27.5897 27.473 27.6963 27.473 27.8156ZM24.0646 28.112C24.3101 28.112 24.5092 27.913 24.5092 27.6675C24.5092 27.422 24.3101 27.223 24.0646 27.223C23.8191 27.223 23.62 27.422 23.62 27.6675C23.62 27.913 23.8191 28.112 24.0646 28.112Z" fill="#808085"/>
    </g>
    <defs>
        <clipPath id="clip0_12992_608990">
            <rect width="166.5" height="60.75" fill="white" transform="translate(0.8125 0.330078)"/>
        </clipPath>
    </defs>
</svg>
