<svg width="170" height="42" viewBox="0 0 170 42" fill="none" xmlns="http://www.w3.org/2000/svg">
    <path d="M20.7064 22.1279L11.1797 28.1046C11.1991 28.228 11.2091 28.3538 11.2091 28.4811V40.1374L20.7141 34.1744V22.3153C20.7141 22.2525 20.7115 22.1899 20.7064 22.1279Z" fill="#808085" fill-opacity="0.7"/>
    <path d="M0.748047 34.6427L9.5044 29.1086V40.136L0.748047 34.6427Z" fill="#808085" fill-opacity="0.7"/>
    <path d="M0 18.8513V6.99216L9.50502 1.02917V12.6855C9.50502 12.8123 9.51492 12.9376 9.53419 13.0606L0.00754395 19.0371C0.00253867 18.9756 0 18.9136 0 18.8513Z" fill="#808085" fill-opacity="0.7"/>
    <path d="M0.779297 20.5667C0.867829 20.6439 0.962935 20.7146 1.0641 20.7779L10.0786 26.4337C10.1692 26.4906 10.2553 26.5531 10.3364 26.6206L19.9353 20.5987C19.8466 20.5213 19.7514 20.4503 19.65 20.3866L10.6363 14.7331C10.5453 14.6759 10.4589 14.6131 10.3775 14.5453L0.779297 20.5667Z" fill="#808085" fill-opacity="0.9"/>
    <path d="M44.2704 19.8768C44.4407 19.716 44.5907 19.5389 44.7236 19.3439C44.8877 19.1003 45.0003 18.8306 45.0706 18.5415C45.1472 18.2313 45.1847 17.908 45.1847 17.5831C45.1847 17.0568 45.1018 16.5727 44.9393 16.1439C44.7736 15.7118 44.5298 15.3252 44.2157 14.9987C43.8156 14.5829 43.3357 14.2677 42.7918 14.0598C42.2589 13.8567 41.6915 13.7528 41.1055 13.7528H34.674C34.4458 13.7528 34.2598 13.9461 34.2598 14.1833V27.1183C34.2598 27.3555 34.4458 27.5487 34.674 27.5487H41.3539C41.9979 27.5487 42.6027 27.4335 43.1545 27.2061C43.703 26.9803 44.1969 26.657 44.6189 26.2492C45.0174 25.8659 45.3332 25.4046 45.5566 24.8782C45.7786 24.352 45.8912 23.772 45.8912 23.1564C45.8912 22.2516 45.6567 21.4508 45.1878 20.7669C44.9284 20.4112 44.6205 20.1123 44.2704 19.8768ZM41.3805 24.7094H37.2841V21.6068H41.4852C41.704 21.6068 41.9104 21.6539 42.1151 21.7529C42.3245 21.8537 42.498 21.982 42.6325 22.133C42.8325 22.3735 42.9294 22.7016 42.9294 23.137C42.9294 23.3595 42.895 23.5706 42.8293 23.7623C42.7653 23.9443 42.6809 24.0888 42.5808 24.1944C42.4215 24.3487 42.2339 24.4754 42.0213 24.5713C41.8119 24.6639 41.604 24.7094 41.3805 24.7094ZM41.9495 18.4522C41.8712 18.5448 41.7759 18.6194 41.6602 18.6829C41.5587 18.738 41.4462 18.764 41.3165 18.764H37.2841V16.5923H40.9866C41.3852 16.5923 41.69 16.6978 41.9197 16.9171C42.1104 17.0958 42.2026 17.3476 42.2026 17.6887C42.2011 17.9941 42.1167 18.2459 41.9495 18.4522Z" fill="#808085"/>
    <path d="M51.399 13.7528H49.2031C48.9733 13.7528 48.7889 13.9461 48.7889 14.1833V27.1183C48.7889 27.3555 48.9749 27.5487 49.2031 27.5487H58.5932C58.8229 27.5487 59.0073 27.3555 59.0073 27.1183V25.0748C59.0073 24.8377 58.8214 24.6444 58.5932 24.6444H51.8131V14.1849C51.8131 13.9461 51.6272 13.7528 51.399 13.7528Z" fill="#808085"/>
    <path d="M71.8735 15.4031C71.2561 14.7615 70.5153 14.2579 69.6698 13.9055C68.8289 13.5563 67.8865 13.3792 66.8706 13.3792C65.8218 13.3792 64.8481 13.5758 63.9791 13.9639C63.107 14.3522 62.3521 14.898 61.7363 15.5834C61.1487 16.2235 60.6876 16.974 60.3656 17.8121C60.0437 18.6503 59.8795 19.56 59.8795 20.5168C59.8795 21.4313 60.0467 22.3199 60.3766 23.1597C60.7063 23.9962 61.1549 24.7353 61.7128 25.3591C62.3286 26.0446 63.0851 26.6033 63.9588 27.0209C64.8388 27.4399 65.8187 27.6528 66.8706 27.6528C67.9161 27.6528 68.8773 27.4643 69.7291 27.0907C70.5778 26.717 71.328 26.1875 71.9594 25.5183C72.5627 24.8766 73.0316 24.1213 73.3552 23.2734C73.6771 22.4287 73.8412 21.5011 73.8412 20.5168C73.8412 19.5308 73.6708 18.5919 73.3333 17.7244C72.9957 16.8554 72.5065 16.0757 71.8735 15.4031ZM70.8169 20.5151C70.8169 21.121 70.7216 21.6814 70.5325 22.1769C70.3434 22.674 70.0839 23.1093 69.7604 23.4716C69.3978 23.8744 68.9633 24.1912 68.4695 24.4105C67.4691 24.8571 66.2297 24.8506 65.2544 24.4007C64.7622 24.1749 64.3355 23.8566 63.9822 23.4505C63.6572 23.0866 63.393 22.6496 63.1961 22.1509C63.0023 21.6571 62.9038 21.1064 62.9038 20.5135C62.9038 19.9076 63.0023 19.3488 63.1961 18.855C63.3915 18.3563 63.6572 17.9178 63.9807 17.5555C64.3432 17.1527 64.7762 16.8375 65.2701 16.6166C65.7655 16.3956 66.3032 16.2836 66.8689 16.2836C67.4207 16.2836 67.9521 16.3956 68.4476 16.6166C68.943 16.8392 69.379 17.1494 69.7417 17.5392C70.0652 17.8885 70.3277 18.319 70.5215 18.8209C70.7185 19.3261 70.8169 19.8963 70.8169 20.5151Z" fill="#808085"/>
    <path d="M79.7098 17.5977C80.0724 17.2192 80.496 16.9268 80.9711 16.7254C82.0276 16.2755 83.3732 16.3437 84.3624 16.7855C84.7882 16.9756 85.6892 17.6903 86.0851 18.0119C86.1962 18.1013 86.351 18.085 86.4441 17.9762L87.9514 16.2153C88.0531 16.0968 88.0403 15.9165 87.9197 15.8173C87.4042 15.395 86.1005 14.3538 85.4456 14.0663C84.6095 13.7007 83.628 13.5155 82.5247 13.5155C81.5088 13.5155 80.5616 13.6975 79.713 14.0533C78.8627 14.4123 78.1187 14.9191 77.4983 15.5639C76.8825 16.2202 76.3964 16.9836 76.0541 17.8332C75.7087 18.6876 75.5337 19.6282 75.5337 20.6304C75.5337 21.6473 75.7087 22.5992 76.0525 23.4585C76.3964 24.3211 76.8997 25.091 77.5452 25.7457C78.175 26.3856 78.9174 26.8909 79.752 27.2482C80.5866 27.6056 81.5197 27.7875 82.5231 27.7875C83.622 27.7875 84.6035 27.6089 85.4396 27.2547C86.1022 26.9737 87.4085 25.8902 87.918 25.4565C88.0352 25.3574 88.0463 25.1788 87.9445 25.0601L86.4433 23.3269C86.351 23.2197 86.1979 23.2035 86.0868 23.2912C85.691 23.6064 84.7864 24.3113 84.3581 24.5063C83.3698 24.9595 82.0433 25.039 80.9461 24.5485C80.4491 24.326 80.0146 24.0141 79.6457 23.6177C79.3237 23.2831 79.0596 22.8591 78.8596 22.3555C78.6595 21.8536 78.5579 21.2769 78.5579 20.6402C78.5579 20.0343 78.6626 19.4609 78.8705 18.9362C79.0784 18.4115 79.3613 17.9616 79.7098 17.5977Z" fill="#808085"/>
    <path d="M102.534 13.7528H99.6484C99.4527 13.7528 99.2697 13.8518 99.156 14.0159L95.927 18.7446H93.9546V14.1833C93.9546 13.9461 93.7683 13.7528 93.54 13.7528H91.3446C91.1163 13.7528 90.9299 13.9461 90.9299 14.1833V27.1183C90.9299 27.3555 91.1163 27.5487 91.3446 27.5487H93.54C93.7683 27.5487 93.9546 27.3555 93.9546 27.1183V21.649H95.9594L99.5014 27.2645C99.6125 27.4415 99.8032 27.5471 100.006 27.5471H102.825C102.983 27.5471 103.079 27.3652 102.993 27.2272L98.5319 20.1188L102.696 14.0776C102.789 13.9444 102.696 13.7528 102.534 13.7528Z" fill="#808085"/>
    <path d="M108.41 17.5977C108.772 17.2192 109.198 16.9252 109.672 16.7254C110.727 16.2771 112.073 16.3437 113.063 16.7855C113.488 16.9756 114.39 17.6903 114.785 18.0119C114.896 18.1013 115.051 18.085 115.145 17.9762L116.651 16.2153C116.753 16.0968 116.74 15.9165 116.62 15.8173C116.104 15.395 114.801 14.3521 114.146 14.0663C113.309 13.7007 112.328 13.5155 111.225 13.5155C110.208 13.5155 109.262 13.6975 108.413 14.0533C107.562 14.4123 106.819 14.9191 106.198 15.5639C105.582 16.2186 105.097 16.982 104.754 17.8332C104.409 18.6876 104.233 19.6299 104.233 20.6304C104.233 21.6457 104.409 22.5976 104.752 23.4585C105.098 24.3211 105.6 25.091 106.245 25.7457C106.875 26.3856 107.616 26.8909 108.451 27.2482C109.287 27.6056 110.22 27.7875 111.223 27.7875C112.322 27.7875 113.303 27.6089 114.139 27.2547C114.802 26.9737 116.109 25.8902 116.62 25.4565C116.738 25.3574 116.748 25.1788 116.647 25.0601L115.145 23.3269C115.052 23.2197 114.898 23.2035 114.788 23.2912C114.392 23.6064 113.486 24.3113 113.06 24.5063C112.07 24.9595 110.744 25.0374 109.648 24.5485C109.153 24.326 108.717 24.0141 108.347 23.6177C108.027 23.2847 107.762 22.8591 107.562 22.3555C107.362 21.852 107.26 21.2753 107.26 20.6402C107.26 20.0327 107.364 19.4592 107.572 18.9362C107.78 18.4115 108.062 17.9616 108.41 17.5977Z" fill="#808085"/>
    <path d="M128.201 18.6082H122.451V14.0469C122.451 13.8097 122.265 13.6164 122.037 13.6164H119.841C119.613 13.6164 119.427 13.8097 119.427 14.0469V26.9819C119.427 27.2191 119.613 27.4123 119.841 27.4123H122.037C122.265 27.4123 122.451 27.2191 122.451 26.9819V21.5126H128.201V26.9819C128.201 27.2191 128.388 27.4123 128.616 27.4123H130.81C131.04 27.4123 131.224 27.2191 131.224 26.9819V14.0469C131.224 13.8097 131.038 13.6164 130.81 13.6164H128.616C128.388 13.6164 128.201 13.8097 128.201 14.0469V18.6082Z" fill="#808085"/>
    <path d="M139.134 14.1264L133.532 27.2596C133.474 27.3961 133.57 27.5504 133.715 27.5504H136.241C136.479 27.5504 136.694 27.4059 136.791 27.1784L137.651 25.1723H143.786L144.667 27.1833C144.765 27.4075 144.979 27.5504 145.215 27.5504H147.783C147.927 27.5504 148.024 27.3961 147.966 27.2596L142.365 14.1264C142.267 13.9006 142.052 13.7544 141.812 13.7544H139.685C139.447 13.7528 139.231 13.899 139.134 14.1264ZM142.619 22.2662H138.83L140.698 17.3199L142.619 22.2662Z" fill="#808085"/>
    <path d="M150.693 27.5504H152.847C153.077 27.5504 153.262 27.3571 153.262 27.1199V14.1849C153.262 13.9477 153.075 13.7544 152.847 13.7544H150.693C150.465 13.7544 150.28 13.9477 150.28 14.1849V27.1199C150.28 27.3571 150.465 27.5504 150.693 27.5504Z" fill="#808085"/>
    <path d="M166.406 23.3107C166.635 23.1824 166.848 23.0362 167.04 22.877C167.34 22.6268 167.614 22.3426 167.854 22.0307C168.501 21.1665 168.83 20.1221 168.83 18.9232C168.83 18.1776 168.695 17.4873 168.431 16.8732C168.169 16.2673 167.809 15.7232 167.356 15.2537C166.876 14.7713 166.318 14.396 165.698 14.1394C165.079 13.8844 164.41 13.7544 163.71 13.7544H157.57C157.34 13.7544 157.157 13.9477 157.157 14.1849V27.1199C157.157 27.3571 157.342 27.5504 157.57 27.5504H159.765C159.993 27.5504 160.179 27.3571 160.179 27.1199V24.0287H163.388L165.235 27.2466C165.344 27.4366 165.54 27.552 165.753 27.552H168.63C168.743 27.552 168.811 27.4237 168.754 27.3229L166.406 23.3107ZM160.18 16.7027H163.653C163.985 16.7027 164.3 16.7709 164.588 16.9041C164.872 17.0373 165.095 17.2111 165.287 17.4613C165.637 17.8479 165.806 18.3287 165.806 18.9346C165.806 19.2173 165.757 19.4982 165.663 19.7679C165.57 20.0359 165.432 20.2666 165.229 20.4924C165.074 20.6873 164.872 20.8368 164.618 20.9505C164.355 21.0658 164.066 21.1226 163.758 21.1226H160.18V16.7027Z" fill="#808085"/>
</svg>
