<svg width="164" height="46" viewBox="0 0 164 46" fill="none" xmlns="http://www.w3.org/2000/svg">
    <g clip-path="url(#clip0)">
        <path fill-rule="evenodd" clip-rule="evenodd" d="M114.129 27.8852H115.819L115.814 19.9359H109.396V21.9421H113.412C113.368 24.501 111.889 26.128 109.185 26.0858C105.95 26.0858 104.598 23.2309 104.598 20.3353C104.598 17.4397 105.95 14.5865 109.185 14.5865C111.087 14.5865 112.819 15.6012 113.072 17.5885H115.65C115.249 14.184 112.472 12.4301 109.185 12.4301C104.669 12.4301 101.958 16.0287 101.958 20.3368C101.958 24.6451 104.669 28.2469 109.188 28.2438C111.023 28.2438 112.32 27.716 113.728 26.1093L114.129 27.8852ZM67.8292 17.598C67.3846 15.8644 66.2638 14.5958 64.0723 14.5958C60.8381 14.5958 59.4857 17.4492 59.4857 20.3448C59.4857 23.2404 60.8381 26.0953 64.0723 26.0953C66.4204 26.0953 67.7071 24.3412 67.9169 22.1426H70.4951C70.2838 25.757 67.7275 28.2501 64.0769 28.2501C59.5546 28.2501 56.8496 24.656 56.8496 20.3431C56.8496 16.0304 59.5452 12.4301 64.0676 12.4301C67.4691 12.4505 70.1522 14.3328 70.47 17.5886L67.8292 17.598ZM72.0556 22.4088C72.0556 19.0684 74.0625 16.6599 77.5705 16.6599C81.0785 16.6599 83.0853 19.0684 83.0853 22.4088C83.0853 25.7491 81.0785 28.1811 77.5705 28.1811C74.0625 28.1811 72.0556 25.771 72.0556 22.4088ZM80.6762 22.4088C80.6762 20.5295 79.726 18.5626 77.5705 18.5626C75.4149 18.5626 74.4647 20.528 74.4647 22.4088C74.4647 24.2895 75.4149 26.2784 77.5705 26.2784C79.726 26.2784 80.6762 24.3115 80.6762 22.4088ZM87.5654 12.7902H85.1563V15.0735H87.5654V12.7902ZM87.5654 16.9559H85.1563V27.8852H87.5654V16.9559ZM90.1859 16.9559H92.4682V18.5626L92.5105 18.6049C92.8566 18.0097 93.3534 17.5164 93.9509 17.1746C94.5484 16.8328 95.2254 16.6547 95.9137 16.6583C98.2805 16.6583 99.7802 17.9267 99.7802 20.3776V27.8836H97.371V21.0135C97.3288 19.3018 96.6525 18.5626 95.2374 18.5626C93.6314 18.5626 92.595 19.8295 92.595 21.4363V27.8852H90.1859V16.9559ZM120.236 23.043C120.236 24.7563 121.166 26.2784 123.174 26.2784C124.569 26.2784 125.413 25.6645 125.835 24.4602H128.119C127.591 26.8484 125.562 28.1811 123.174 28.1811C119.751 28.1811 117.828 25.7914 117.828 22.4306C117.828 19.3221 119.863 16.6599 123.111 16.6599C126.555 16.6599 128.668 19.7669 128.267 23.043H120.236ZM125.858 21.4582C125.773 19.9361 124.737 18.5626 123.111 18.5626C121.441 18.5626 120.3 19.8295 120.236 21.4582H125.858ZM134.988 18.5626C136.317 18.5626 137.29 19.2799 137.481 20.6126H139.89C139.662 17.9284 137.501 16.6599 134.965 16.6599C131.375 16.6599 129.578 19.2375 129.578 22.5356C129.578 25.7491 131.457 28.1811 134.881 28.1811C137.699 28.1811 139.445 26.6167 139.89 23.7837H137.481C137.247 25.3482 136.276 26.2784 134.881 26.2784C132.79 26.2784 131.986 24.3537 131.986 22.5356C131.986 19.2172 133.735 18.5626 134.988 18.5626ZM141.925 12.7902H144.335V21.3736L148.687 16.9559H151.646L147.461 20.9711L152.047 27.8852H149.105L145.765 22.5779L144.328 23.9732V27.8882H141.925V12.7902ZM158.212 16.6599C154.704 16.6599 152.696 19.0684 152.696 22.4088C152.696 25.771 154.704 28.1811 158.212 28.1811C161.719 28.1811 163.728 25.7491 163.728 22.4088C163.728 19.0684 161.719 16.6599 158.212 16.6599ZM158.212 18.5626C160.367 18.5626 161.318 20.5295 161.318 22.4088C161.318 24.3115 160.367 26.2784 158.212 26.2784C156.056 26.2784 155.106 24.2895 155.106 22.4088C155.106 20.528 156.056 18.5626 158.212 18.5626Z" fill="#808085"/>
        <path fill-rule="evenodd" clip-rule="evenodd" d="M43.2059 22.5053C43.2246 26.7517 41.9761 30.9082 39.618 34.4493C37.2598 37.9905 33.8981 40.757 29.9578 42.3993C26.0176 44.0417 21.6758 44.4858 17.4815 43.6757C13.2874 42.8655 9.42904 40.8375 6.39453 37.8479C3.36002 34.8585 1.28568 31.0419 0.433763 26.8807C-0.418153 22.7196 -0.00933507 18.4008 1.60855 14.4705C3.22631 10.5403 5.98054 7.17514 9.5228 4.80058C13.0651 2.42602 17.2362 1.14875 21.5089 1.13021C27.2381 1.10541 32.7426 3.34345 36.8116 7.35199C40.8805 11.3605 43.1805 16.8113 43.2059 22.5053ZM41.5856 22.513C41.6035 26.4404 40.4492 30.2847 38.2688 33.56C36.0882 36.8353 32.9794 39.3944 29.3354 40.9137C27.981 41.4783 26.5754 41.89 25.1444 42.1459L25.1442 42.1455L25.15 42.1442C24.3126 36.3332 29.4221 30.6421 32.301 27.7297C32.5723 27.4565 32.904 27.1408 33.2663 26.7959L33.2664 26.7957C33.754 26.3316 34.2968 25.8148 34.8218 25.279C38.6303 21.785 39.4419 17.5896 31.7374 15.5042C30.2987 15.0904 28.8075 14.5049 27.2975 13.9121L27.2634 13.8987L27.2617 13.8913L27.2634 13.8924L27.2585 13.8785C27.2317 13.7722 27.1856 13.6587 27.1179 13.5378C26.1922 11.6064 23.7269 11.3732 21.678 12.0068L21.698 12.0083L21.678 12.0131C19.8965 11.5961 18.137 11.4482 16.4479 11.8574C9.1039 13.868 7.87757 17.4172 7.57814 21.6947L7.52445 22.3377C7.15873 26.7275 6.87909 30.0827 5.17273 33.8966C3.64395 31.6993 2.56948 29.207 2.02821 26.5645C1.23981 22.7162 1.6175 18.7218 3.11327 15.0868C4.60903 11.4517 7.15596 8.33906 10.4317 6.1426C13.7075 3.94602 17.5651 2.76431 21.5168 2.74665C26.8153 2.72348 31.9061 4.79294 35.6697 8.49975C39.4332 12.2064 41.5611 17.2471 41.5856 22.513ZM25.8108 4.03331C24.5407 3.80925 23.2408 3.80925 21.9707 4.03331L21.9692 4.16244C23.2184 4.40668 24.4143 4.6588 25.5916 4.99484C26.6301 5.2913 27.6235 5.68219 28.6181 6.07347C28.7509 6.12582 28.8837 6.17805 29.0168 6.23015C30.1455 6.67202 31.3117 7.13719 32.326 7.85598C33.3328 8.57916 34.2129 9.46228 34.9309 10.4696C35.637 11.4661 36.2862 12.5014 36.8752 13.5704C37.4398 14.6392 37.9334 15.7436 38.353 16.8764C39.2469 19.1261 39.8136 21.4909 40.2315 23.9724H40.3552C40.7716 21.4691 40.482 18.8445 39.6476 16.4081C39.2084 15.1966 38.6306 14.0393 37.9256 12.9589C37.2409 11.8699 36.414 10.8759 35.4663 10.003C34.538 9.11609 33.5627 8.3055 32.5828 7.51368C32.4621 7.41624 32.3415 7.31792 32.2204 7.21935L32.2196 7.2186C31.3576 6.51672 30.4775 5.80018 29.4786 5.2546C28.3326 4.6479 27.0931 4.23509 25.8108 4.03331ZM21.4901 17.7461C21.4901 18.2803 21.3307 18.8025 21.0321 19.2466C20.7334 19.6908 20.3091 20.037 19.8125 20.2414C19.3159 20.4458 18.7695 20.4993 18.2423 20.3951C17.7152 20.2909 17.2309 20.0336 16.8509 19.6559C16.4708 19.2782 16.212 18.797 16.1071 18.273C16.0023 17.7491 16.0561 17.2061 16.2618 16.7126C16.4674 16.219 16.8158 15.7972 17.2626 15.5004C17.7096 15.2036 18.235 15.0453 18.7725 15.0453C19.4932 15.0453 20.1845 15.3299 20.6941 15.8364C21.2037 16.3429 21.4901 17.0298 21.4901 17.7461ZM22.636 17.7119C22.6363 18.4714 22.41 19.2139 21.9856 19.8455C21.5613 20.4771 20.958 20.9696 20.2521 21.2604C19.5462 21.5513 18.7692 21.6275 18.0198 21.4796C17.2702 21.3316 16.5816 20.966 16.0412 20.429C15.5007 19.8921 15.1326 19.208 14.9834 18.4632C14.8342 17.7182 14.9105 16.9462 15.2029 16.2444C15.4953 15.5428 15.9906 14.943 16.626 14.521C17.2612 14.0991 18.0083 13.8737 18.7725 13.8737C19.2798 13.8736 19.7822 13.9727 20.2509 14.1654C20.7196 14.3583 21.1455 14.641 21.5043 14.9973C21.8631 15.3538 22.1477 15.777 22.3419 16.2428C22.5361 16.7086 22.636 17.2077 22.636 17.7119ZM33.4435 21.5422C33.4445 21.7069 33.3962 21.8681 33.305 22.0055C33.2137 22.1429 33.0836 22.2503 32.9308 22.3141C32.7782 22.378 32.6098 22.3954 32.4473 22.3642C32.2846 22.3329 32.135 22.2545 32.0172 22.1388C31.8993 22.0231 31.8188 21.8752 31.7855 21.714C31.7523 21.5526 31.768 21.3852 31.8305 21.2328C31.893 21.0803 31.9996 20.9497 32.1369 20.8575C32.274 20.7652 32.4357 20.7155 32.6013 20.7146C32.8233 20.7137 33.0366 20.8004 33.1945 20.9556C33.3522 21.1106 33.4419 21.3217 33.4435 21.5422ZM33.1444 25.4863C34.3217 24.9106 35.4785 24.2587 36.4507 23.3781L36.4084 23.3299C35.3909 24.1389 34.209 24.7067 33.0145 25.1968C31.8209 25.6892 30.5835 26.0694 29.3185 26.3326C28.0663 26.5779 26.7904 26.6823 25.5146 26.6437C24.2559 26.608 22.9911 26.359 21.8952 25.6527L21.853 25.701C22.7469 26.7059 24.126 27.1618 25.4754 27.2832C26.8249 27.4046 28.1571 27.1572 29.4344 26.8289C30.7108 26.498 31.9529 26.0485 33.1444 25.4863Z" fill="#808085"/>
    </g>
    <defs>
        <clipPath id="clip0">
            <rect width="163.728" height="45.2" fill="white"/>
        </clipPath>
    </defs>
</svg>
