<svg width="119" height="47" viewBox="0 0 119 47" fill="none" xmlns="http://www.w3.org/2000/svg">
    <path d="M26.0979 9.40002H12.8936L11.7993 15.2565L23.7146 15.2702C29.5828 15.2702 31.318 17.31 31.2686 20.6964C31.243 22.4312 30.4576 25.3636 30.1184 26.3144C29.214 28.8486 27.3567 31.7405 20.3917 31.7291L8.80933 31.7245L7.71263 37.5832H20.8874C25.5344 37.5832 27.5123 37.0658 29.6035 36.1395C34.2434 34.0883 37.0043 29.7038 38.1098 23.9819C39.7572 15.4613 37.7059 9.40002 26.0979 9.40002Z" fill="#808085"/>
    <path d="M66.9347 37.597L67.8654 32.5048H79.1453C80.0312 32.5048 80.6522 31.995 80.7847 31.1467C80.9619 30.2976 80.5189 29.7886 79.633 29.7886H74.2397C69.9846 29.7886 67.946 27.4126 68.6995 23.3384C69.453 19.2642 72.3783 16.8889 76.6326 16.8889H88.8871L87.9125 21.9811H77.1123C76.2255 21.9811 75.6053 22.4901 75.472 23.3384C75.2949 24.1875 75.7378 24.6965 76.6246 24.6965H82.0179C86.2722 24.6965 88.3108 27.0733 87.5581 31.1467C86.8054 35.2202 83.9232 37.597 79.6689 37.597H66.9347Z" fill="#808085"/>
    <path d="M49.756 37.5962C42.7527 37.5962 39.6055 33.9462 40.8466 27.2406C42.0439 20.5359 46.5648 16.8858 53.5673 16.8858H65.9782L62.1661 37.597L49.756 37.5962ZM57.8224 21.9788H54.6297C50.8183 21.9788 48.5635 23.5914 47.9018 27.2406C47.193 30.8907 48.6114 32.5033 52.4227 32.5033H55.9155L57.8224 21.9788Z" fill="#808085"/>
    <path d="M104.267 37.5962L106.484 25.5432C106.883 23.1664 105.876 22.1485 103.393 22.1485H99.8637L97.027 37.5962H89.8433L95.0371 9.40002H102.221L100.838 16.8897H106.218C112.512 16.8897 114.772 19.521 113.664 25.5471L111.448 37.6L104.267 37.5962Z" fill="#808085"/>
    <path d="M7.19625 20.5497C3.73773 20.5497 3.24206 22.7079 2.91481 24.0117C2.48618 25.7198 2.3457 26.4115 2.3457 26.4115H15.8653C19.3238 26.4115 19.8195 24.2532 20.1467 22.9494C20.5754 21.2413 20.7158 20.5497 20.7158 20.5497H7.19625Z" fill="#808085"/>
</svg>
