<svg width="147" height="41" viewBox="0 0 147 41" fill="none" xmlns="http://www.w3.org/2000/svg">
    <path d="M50.0153 17.7038C49.6653 17.3022 49.2396 16.9859 48.7668 16.7763C48.294 16.5667 47.7851 16.4686 47.2742 16.4885C47.0086 16.4885 46.7594 16.4885 46.5225 16.5149C46.2837 16.5314 46.0462 16.5652 45.8117 16.6162V26.1491C46.0418 26.2046 46.2752 26.2429 46.5102 26.2635C46.7839 26.29 47.0454 26.3032 47.2987 26.3032C47.8118 26.3286 48.3238 26.2325 48.7988 26.0218C49.2737 25.8111 49.7001 25.4908 50.048 25.0835C50.7261 24.2733 51.0693 23.0492 51.0693 21.4113C51.0693 20.1172 50.8678 18.6868 50.0153 17.7038ZM54.129 24.925C53.8112 25.8882 53.2992 26.7634 52.6298 27.4876C51.9703 28.1815 51.1745 28.7067 50.3013 29.0243C49.3258 29.3759 48.3026 29.5486 47.2742 29.5351C47.025 29.5351 46.739 29.5351 46.4204 29.5087C46.1017 29.4823 45.779 29.4602 45.4481 29.4206C45.1172 29.381 44.7781 29.3149 44.4391 29.2401C44.1211 29.1718 43.8094 29.073 43.5077 28.9451C43.1611 28.8312 42.8594 28.5964 42.6501 28.2776C42.4409 27.9587 42.3358 27.574 42.3516 27.1838V15.0355C42.3355 14.7493 42.4185 14.4669 42.5844 14.2429C42.7754 14.041 43.0077 13.8902 43.2626 13.8026C43.8864 13.5725 44.5339 13.4246 45.1907 13.3623C45.873 13.2918 46.4939 13.261 47.0536 13.261C48.1056 13.2457 49.1534 13.4091 50.1583 13.7453C51.0606 14.0431 51.8865 14.5622 52.5712 15.2621C53.2559 15.9619 53.7808 16.8233 54.1045 17.7786C54.9138 20.1485 54.8928 22.5664 54.129 24.925Z" fill="#808085"/>
    <path d="M59.6276 24.6388C59.7035 24.9576 59.8381 25.2568 60.0234 25.5185C60.2086 25.7802 60.4408 25.9991 60.7061 26.1623C61.261 26.4664 61.8771 26.6176 62.4995 26.6026C63.0943 26.6069 63.6859 26.5088 64.252 26.312C64.7283 26.1588 65.1842 25.9398 65.6083 25.6603C65.8338 25.8372 66.0218 26.0639 66.1598 26.3252C66.307 26.5915 66.3847 26.8958 66.3844 27.2058C66.3908 27.5743 66.2814 27.9343 66.074 28.2274C65.8399 28.546 65.5407 28.8022 65.1998 28.9759C64.7933 29.1903 64.3597 29.3387 63.9129 29.4162C63.373 29.5136 62.8263 29.5607 62.2789 29.5571C61.4554 29.5601 60.6374 29.4112 59.8605 29.1168C59.1488 28.8528 58.4991 28.4245 57.9568 27.8619C57.4083 27.2817 56.9832 26.5801 56.7108 25.8056C56.3915 24.864 56.2377 23.8666 56.2574 22.8643C56.2376 21.8936 56.3915 20.9278 56.7108 20.0199C56.9837 19.2689 57.4014 18.589 57.9364 18.0252C58.4337 17.5041 59.0304 17.106 59.6848 16.8584C60.3413 16.6111 61.032 16.486 61.7274 16.4885C62.4347 16.4795 63.1373 16.6139 63.7986 16.8848C64.4078 17.1326 64.9638 17.5117 65.4326 17.9988C65.889 18.4868 66.2465 19.0715 66.4825 19.716C66.7403 20.4072 66.8694 21.1463 66.8624 21.8912C66.8782 22.1129 66.8528 22.3358 66.7875 22.5468C66.7223 22.7577 66.6186 22.9525 66.4825 23.1197C66.1902 23.4156 65.8183 23.6037 65.4204 23.6569L59.6562 24.6564L59.6276 24.6388ZM61.7315 19.355C61.4384 19.3457 61.1466 19.401 60.874 19.5177C60.6014 19.6343 60.3539 19.8096 60.1464 20.0331C59.6918 20.5711 59.4284 21.2652 59.4029 21.9925L63.6392 21.1999C63.6009 20.7327 63.4216 20.2918 63.1286 19.945C62.9515 19.7403 62.734 19.581 62.4922 19.4789C62.2504 19.3768 61.9905 19.3344 61.7315 19.355Z" fill="#808085"/>
    <path d="M72.0669 17.7522H75.8211C75.912 17.9592 75.9898 18.1725 76.054 18.3907C76.1382 18.6632 76.1796 18.9489 76.1765 19.2361C76.2132 19.6574 76.0992 20.078 75.8579 20.4117C75.7521 20.5293 75.625 20.6221 75.4844 20.6842C75.3438 20.7464 75.1928 20.7765 75.0409 20.7728H72.2262V29.1388C72.0229 29.2031 71.8153 29.2502 71.6053 29.2797C71.3116 29.3242 71.0153 29.3448 70.7188 29.3414C70.217 29.3863 69.7149 29.2583 69.2849 28.9759C68.9867 28.7293 68.8396 28.245 68.8396 27.5317V16.6514C68.8234 15.907 68.9485 15.1667 69.2073 14.4763C69.4287 13.8968 69.7745 13.3823 70.2163 12.9748C70.6598 12.5827 71.1727 12.2921 71.7237 12.1206C72.3283 11.9276 72.9561 11.8326 73.5865 11.8388C74.3896 11.7848 75.1926 11.9467 75.9232 12.3099C76.1736 12.4642 76.3785 12.6914 76.5144 12.9656C76.6503 13.2398 76.7116 13.5498 76.6913 13.8598C76.6996 14.1634 76.6423 14.4649 76.5238 14.7405C76.4322 14.9592 76.3002 15.1555 76.1357 15.3173C75.8418 15.2094 75.5415 15.1226 75.2369 15.0575C74.8826 14.9871 74.5229 14.9532 74.1626 14.9562C73.6149 14.9221 73.0713 15.0763 72.6102 15.3965C72.4216 15.5696 72.2747 15.7895 72.1822 16.0372C72.0897 16.2849 72.0544 16.5531 72.0791 16.8188V17.7919L72.0669 17.7522ZM81.622 29.1432C81.4187 29.2075 81.2111 29.2546 81.0011 29.2841C80.7075 29.3287 80.4111 29.3493 80.1146 29.3458C79.6134 29.3925 79.1117 29.2627 78.6848 28.9759C78.3948 28.7293 78.2518 28.245 78.2518 27.5317V16.9993C78.456 16.9359 78.6633 16.8844 78.8727 16.8452C79.1658 16.7937 79.4623 16.7687 79.7592 16.7703C80.2621 16.7219 80.7656 16.8568 81.189 17.1534C81.479 17.4088 81.622 17.8975 81.622 18.6108V29.1432ZM78.0516 13.3226C78.0302 12.1844 78.8748 11.2216 79.9389 11.2216C81.0048 11.2216 81.8433 12.1841 81.8222 13.3226C81.8492 14.4673 80.9998 15.4502 79.9389 15.4502C78.8629 15.4502 78.0234 14.47 78.0516 13.3226Z" fill="#808085"/>
    <path d="M90.8013 29.2181C90.553 29.2311 90.305 29.1867 90.074 29.088C89.8429 28.9893 89.634 28.8385 89.4614 28.6456C89.1162 28.2175 88.9377 27.6623 88.963 27.0957V13.6044C89.1264 13.5692 89.3715 13.5252 89.6616 13.4768C89.9587 13.4243 90.2592 13.3978 90.5603 13.3975C91.0663 13.3504 91.5724 13.4868 91.9983 13.785C92.2965 14.0404 92.4436 14.5423 92.4436 15.2953V25.9685H97.7542C97.8569 26.1816 97.9417 26.4041 98.0075 26.6334C98.09 26.9184 98.1314 27.2155 98.1301 27.514C98.1616 27.9629 98.0476 28.4096 97.8073 28.7777C97.7038 28.9198 97.5707 29.0336 97.4189 29.1101C97.267 29.1866 97.1007 29.2236 96.9331 29.2181H90.8013Z" fill="#808085"/>
    <path d="M101.966 29.3281C101.465 29.3755 100.963 29.2457 100.536 28.9583C100.246 28.7117 100.103 28.2273 100.103 27.514V12.5037C100.311 12.4374 100.522 12.3859 100.736 12.3495C101.033 12.2961 101.334 12.2711 101.635 12.2747C102.134 12.2299 102.632 12.3646 103.053 12.6578C103.347 12.9131 103.494 13.3975 103.494 14.1152V29.1432C103.283 29.2058 103.069 29.2528 102.852 29.2841C102.558 29.3228 102.262 29.3376 101.966 29.3281Z" fill="#808085"/>
    <path d="M110.545 26.6862C110.87 26.6857 111.195 26.6473 111.513 26.5718C111.767 26.5201 112.01 26.4202 112.232 26.2767V23.9211L110.414 24.1016C110.011 24.1265 109.619 24.2532 109.27 24.4715C109.132 24.5631 109.019 24.6933 108.944 24.8482C108.868 25.0032 108.833 25.1773 108.841 25.3521C108.835 25.5373 108.868 25.7217 108.939 25.8906C109.01 26.0596 109.116 26.2083 109.25 26.3252C109.632 26.5988 110.088 26.726 110.545 26.6862ZM112.51 16.7395C113.092 16.8955 113.639 17.1788 114.115 17.5717C114.564 17.9518 114.918 18.4447 115.149 19.0071C115.405 19.6535 115.529 20.3519 115.512 21.0546V26.8404C115.531 27.2207 115.425 27.5961 115.214 27.9015C115.011 28.169 114.768 28.3982 114.495 28.5796C113.981 28.9308 113.414 29.184 112.82 29.3281C112.077 29.506 111.318 29.5917 110.557 29.5835C109.037 29.5835 107.825 29.2459 106.921 28.5708C106.023 27.8971 105.569 26.8712 105.569 25.4886C105.538 24.9971 105.603 24.5041 105.76 24.0415C105.917 23.5788 106.162 23.1568 106.48 22.8027C107.085 22.1862 108.016 21.8017 109.274 21.649L112.224 21.2924V21.0106C112.237 20.7728 112.191 20.5356 112.089 20.324C111.988 20.1124 111.835 19.9343 111.648 19.8085C111.134 19.5213 110.559 19.389 109.981 19.4254C109.43 19.4257 108.88 19.5027 108.347 19.6544C107.842 19.7891 107.348 19.9657 106.868 20.1828C106.671 20.0182 106.515 19.8033 106.415 19.5575C106.288 19.2732 106.224 18.9614 106.227 18.6461C106.217 18.2956 106.311 17.9509 106.495 17.6614C106.678 17.3719 106.942 17.1525 107.248 17.0345C107.729 16.8243 108.23 16.6765 108.743 16.5942C109.991 16.387 111.281 16.4038 112.51 16.7395Z" fill="#808085"/>
    <path d="M134.128 29.1432C133.918 29.2058 133.703 29.2528 133.487 29.2841C133.194 29.3225 132.899 29.3372 132.605 29.3281C132.103 29.3755 131.601 29.2457 131.175 28.9583C130.885 28.7117 130.742 28.2273 130.742 27.514V21.1823C130.758 20.956 130.731 20.7285 130.66 20.5145C130.59 20.3006 130.478 20.105 130.333 19.9406C130.032 19.663 129.643 19.5211 129.247 19.5443C128.966 19.5432 128.688 19.6031 128.43 19.7204C128.178 19.8292 127.942 19.9775 127.731 20.1608C127.731 23.1502 127.764 26.1506 127.764 29.1432C127.552 29.2053 127.336 29.2523 127.118 29.2841C126.825 29.3287 126.528 29.3493 126.232 29.3458C125.731 29.3931 125.229 29.2633 124.802 28.9759C124.512 28.7293 124.369 28.245 124.369 27.5316V21.1823C124.387 20.9529 124.357 20.722 124.28 20.507C124.204 20.292 124.083 20.0984 123.928 19.9406C123.622 19.6713 123.236 19.5305 122.841 19.5443C122.552 19.5386 122.264 19.5955 121.995 19.7116C121.782 19.8028 121.575 19.9086 121.375 20.0287V29.1432C121.171 29.2075 120.964 29.2546 120.754 29.2841C120.46 29.3287 120.164 29.3493 119.867 29.3458C119.362 29.3906 118.857 29.2611 118.425 28.9759C118.131 28.7293 117.984 28.245 117.984 27.5316V19.6412C117.968 19.2651 118.053 18.8919 118.229 18.5668C118.411 18.2676 118.644 18.0078 118.915 17.8007C119.462 17.3748 120.073 17.0531 120.721 16.8496C121.45 16.6099 122.209 16.4897 122.972 16.4929C123.571 16.4885 124.167 16.5881 124.737 16.7879C125.29 16.9854 125.804 17.2931 126.252 17.695C126.72 17.3345 127.228 17.0386 127.764 16.8144C128.4 16.5727 129.071 16.4564 129.745 16.4709C130.297 16.4712 130.847 16.5527 131.379 16.7131C131.89 16.8667 132.364 17.1387 132.768 17.5101C133.184 17.9035 133.514 18.3925 133.732 18.9411C133.991 19.6175 134.115 20.3452 134.096 21.0766V29.1432H134.128Z" fill="#808085"/>
    <path d="M141.069 26.6862C141.393 26.6859 141.717 26.6475 142.033 26.5718C142.288 26.52 142.533 26.4201 142.756 26.2767V23.9211L140.938 24.1016C140.535 24.1265 140.144 24.2532 139.794 24.4715C139.655 24.5625 139.542 24.6925 139.465 24.8475C139.389 25.0025 139.353 25.1769 139.361 25.3521C139.355 25.5373 139.389 25.7216 139.459 25.8904C139.53 26.0593 139.637 26.2081 139.77 26.3252C140.155 26.6017 140.616 26.729 141.077 26.6862H141.069ZM140.938 16.4709C141.645 16.4621 142.349 16.5524 143.034 16.7395C143.616 16.8965 144.162 17.1796 144.639 17.5717C145.089 17.9513 145.446 18.4442 145.677 19.0071C145.932 19.6541 146.056 20.352 146.041 21.0546V26.8404C146.059 27.2207 145.954 27.5961 145.742 27.9015C145.538 28.1691 145.293 28.3982 145.019 28.5796C144.502 28.9335 143.931 29.1869 143.332 29.3281C142.589 29.506 141.83 29.5917 141.069 29.5835C139.549 29.5835 138.337 29.2459 137.433 28.5708C136.53 27.8971 136.081 26.8712 136.081 25.4886C136.05 24.9971 136.115 24.5041 136.272 24.0415C136.429 23.5788 136.674 23.1568 136.992 22.8027C137.597 22.1862 138.527 21.8017 139.782 21.649L142.732 21.2924C142.732 20.9573 142.745 20.6323 142.597 20.324C142.496 20.1124 142.343 19.9343 142.156 19.8085C141.644 19.5213 141.069 19.3889 140.493 19.4254C139.941 19.4257 139.392 19.5027 138.859 19.6544C138.362 19.7932 137.876 19.9728 137.405 20.1916C137.208 20.027 137.052 19.8121 136.951 19.5663C136.825 19.282 136.76 18.9702 136.763 18.6549C136.754 18.3044 136.847 17.9597 137.031 17.6702C137.214 17.3807 137.478 17.1613 137.785 17.0433C138.265 16.8331 138.767 16.6853 139.28 16.603C139.834 16.511 140.394 16.4639 140.955 16.4621L140.938 16.4709Z" fill="#808085"/>
    <path fill-rule="evenodd" clip-rule="evenodd" d="M19.184 18.1245L18.2209 19.0268C18.1363 19.1068 18.0758 19.2091 18.0476 19.322C17.983 19.5815 17.857 20.0919 17.7542 20.5753C17.7219 20.7068 17.6041 20.7996 17.469 20.7996C17.3243 20.7996 17.2024 20.7206 17.1669 20.5753L16.8558 19.322C16.8285 19.2087 16.768 19.1059 16.6824 19.0268L15.7048 18.1245C15.6093 18.0345 15.5875 17.8969 15.6411 17.7791C15.6889 17.6749 15.7904 17.5995 15.9059 17.615C16.2657 17.6644 17.0477 17.7823 17.4676 17.8248L18.9579 17.6173C19.0807 17.605 19.1976 17.6708 19.2518 17.7827C19.3054 17.8988 19.2786 18.0377 19.184 18.1245ZM20.652 17.7941C20.6588 17.1595 20.8462 16.5409 21.1747 15.9985C21.3493 15.7102 21.3776 15.3392 21.2688 15.0222C20.6715 15.5695 19.7426 15.5882 19.1048 15.1021C19.1048 15.8587 18.2933 16.338 17.6045 16.2992C16.7793 16.2992 16.107 15.7568 16.107 15.087C15.809 15.3146 15.4442 15.4375 15.0702 15.4375C14.5989 15.4375 14.0744 15.2273 13.7901 14.8367C13.5408 15.1953 13.5158 15.6719 13.7255 16.0543C14.0067 16.5852 14.1545 17.1787 14.1545 17.7804C14.1545 18.9894 13.5099 19.497 13.5099 20.1851C13.5099 21.5311 16.2353 22.9082 17.4112 22.9082C18.7391 22.9082 21.2684 21.6371 21.2684 20.1024C21.2684 19.3691 20.6456 18.4041 20.652 17.7941ZM8.39899 14.102C8.20747 14.4986 7.6816 14.7549 7.15117 14.3706L4.9758 12.793C4.73151 12.6143 4.661 12.2739 4.81522 12.0144C4.96124 11.7686 5.27831 11.6503 5.56263 11.7782L8.00868 12.8811C8.47223 13.0927 8.59096 13.7054 8.39899 14.102ZM8.00595 28.3078L5.5599 29.4134C5.28013 29.5487 4.94122 29.4409 4.79065 29.1649C4.6469 28.9017 4.72514 28.5673 4.97261 28.3959L7.14844 26.8215C7.55832 26.5245 8.14106 26.6465 8.39626 27.0897C8.64191 27.5288 8.47223 28.098 8.00595 28.3078ZM3.1316 21.124C2.84273 21.0248 2.64848 20.7521 2.64848 20.4455C2.64848 20.1389 2.84273 19.8662 3.1316 19.767L4.06552 19.4458C4.74061 19.2165 5.45436 19.7168 5.45436 20.4455C5.45436 21.0285 4.98353 21.5014 4.40307 21.5014C4.10419 21.5014 3.4282 21.2259 3.1316 21.124ZM11.0215 19.947C10.2787 19.5783 9.74734 18.5992 9.74734 17.4551C9.74734 16.1662 10.417 15.0957 11.3009 14.854C11.42 14.0791 11.6948 13.3335 12.1047 12.6659C11.7135 12.6175 11.3659 12.3909 11.1621 12.0523C10.3633 10.8731 9.28606 9.66369 8.46085 7.70863C8.26206 7.26956 8.41082 6.45903 8.98036 6.45903C9.1232 6.45903 9.25922 6.51888 9.35612 6.62351C10.6335 7.83839 12.1693 8.20117 13.0177 9.36579C13.4162 8.45886 14.4579 8.02526 15.3641 8.41042C15.5925 7.63553 16.3017 7.1037 17.1064 7.1037C17.9116 7.1037 18.6208 7.63553 18.8492 8.41042C19.1803 8.26285 19.5302 8.23132 19.86 8.29529C20.415 5.95278 22.1855 4.13114 23.4114 3.16161C20.753 1.80143 17.8211 1.02334 14.9078 1.02014H9.25604C8.74063 4.62002 6.83456 10.2883 0.00363728 10.5624L0 34.7271C2.99194 35.009 7.78213 34.2675 10.6048 32.349L11.0215 19.947Z" fill="#808085" fill-opacity="0.8"/>
    <path fill-rule="evenodd" clip-rule="evenodd" d="M2.2022e-05 34.7271C2.99196 35.009 7.78215 34.2675 10.6049 32.349L10.3547 39.7854H3.48372C0.694214 39.7854 -0.00452707 38.1095 2.2022e-05 36.2906V34.7271ZM19.86 8.29529C20.415 5.95278 22.1855 4.13114 23.4115 3.16161C23.5384 3.22695 23.6649 3.2932 23.7909 3.36082C29.8016 6.59381 34.0186 12.6513 34.1833 19.5833C34.3621 27.1797 30.5572 34.0747 23.7731 37.6092L23.1858 19.947C24.0688 19.5367 24.4605 18.3493 24.4605 17.4391C24.4605 16.4303 23.9615 15.1437 22.907 14.8545C22.7942 14.0796 22.5253 13.3335 22.1173 12.6659C22.5139 12.6216 22.8674 12.395 23.0744 12.0523C24.1111 10.5144 25.0432 9.42016 25.7966 7.65563C25.9394 7.34768 25.8343 6.94699 25.5495 6.75875C25.2607 6.55588 24.864 6.59426 24.6188 6.85058C23.3915 8.02435 21.9912 8.27199 21.1952 9.36579C20.9418 8.79879 20.4305 8.4054 19.86 8.29529ZM9.25606 1.02014C8.74065 4.62002 6.83458 10.2883 0.0036593 10.5624L0.00457 4.51493C0.00457 2.58501 1.56264 1.02014 3.48417 1.02014H9.25606ZM30.0845 21.4598C29.9936 21.4854 29.8989 21.4982 29.8043 21.4982C29.2239 21.4982 28.753 21.0253 28.753 20.4428C28.753 19.8598 29.2239 19.3869 29.8043 19.3869C29.919 19.3869 30.0336 19.4061 30.1419 19.4431L31.0785 19.7643C31.3678 19.863 31.5621 20.1357 31.5621 20.4428C31.5621 20.7379 31.3838 21.0084 31.1104 21.1098C30.7928 21.2254 30.4043 21.3712 30.0845 21.4598ZM28.3541 29.4107L25.908 28.3046C25.4404 28.0962 25.262 27.5251 25.5173 27.0869C25.7715 26.6437 26.3534 26.5218 26.7623 26.8183L28.9382 28.3932C29.1934 28.5787 29.2562 28.9342 29.0837 29.1964C28.9245 29.4381 28.6156 29.5281 28.3541 29.4107ZM25.908 12.8843L28.3541 11.7814C28.617 11.6617 28.9086 11.7554 29.0665 11.9651C29.2616 12.225 29.2038 12.6038 28.9414 12.7957L26.7655 14.3734C26.3556 14.6662 25.7765 14.5447 25.5204 14.1052C25.2611 13.6656 25.4395 13.0954 25.908 12.8843Z" fill="#808085"/>
</svg>
