<svg width="165" height="42" viewBox="0 0 165 42" fill="none" xmlns="http://www.w3.org/2000/svg">
    <g clip-path="url(#clip0)">
        <path fill-rule="evenodd" clip-rule="evenodd" d="M33.1531 8.1531L22.2929 2.03265C19.9347 0.703635 17.0293 0.703635 14.6711 2.03265L3.81092 8.1531C1.45271 9.48211 0 11.9382 0 14.5963V26.8371C0 29.4952 1.45271 31.9513 3.81092 33.2803L14.6711 39.4007C17.0293 40.7298 19.9347 40.7298 22.2929 39.4007L33.1531 33.2803C35.5113 31.9513 36.964 29.4952 36.964 26.8371V14.5963C36.964 11.9382 35.5113 9.48211 33.1531 8.1531ZM27.7095 20.6413C27.7184 20.457 27.723 20.2702 27.723 20.0806C27.723 14.681 24.0567 11.3942 18.958 11.3942H12.1597V20.6413H16.3359V15.3068H18.9824C21.9445 15.3068 23.4498 17.3937 23.4498 20.0805C23.4498 20.2696 23.441 20.4568 23.4234 20.6413H27.7095ZM8.21421 22.5389V31.0751H15.0378C20.039 31.0751 23.6726 27.8359 23.7775 22.5389H19.5015C19.4045 25.0367 17.7683 27.1355 15.0136 27.1355H12.391V22.5389H8.21421Z" fill="#808085"/>
        <path d="M66.5796 20.1607C66.5796 21.3399 66.3469 22.3606 65.8814 23.2228C65.4291 24.0723 64.824 24.7761 64.0659 25.334C63.3211 25.8792 62.4765 26.285 61.5323 26.5512C60.5879 26.8048 59.6303 26.9317 58.6594 26.9317H53.3926V13.4658H58.4998C59.4973 13.4658 60.4815 13.5799 61.4524 13.8082C62.4233 14.0238 63.2878 14.3915 64.046 14.9113C64.8041 15.4185 65.4158 16.1032 65.8814 16.9654C66.3469 17.8276 66.5796 18.8927 66.5796 20.1607ZM63.0285 20.1607C63.0285 19.3999 62.8955 18.7723 62.6295 18.2777C62.3768 17.7706 62.031 17.3712 61.5921 17.0796C61.1665 16.7752 60.6744 16.5597 60.1158 16.4329C59.5705 16.306 59.0052 16.2427 58.42 16.2427H56.7242V24.1167H58.3402C58.952 24.1167 59.5372 24.0533 60.0958 23.9266C60.6677 23.787 61.1665 23.5652 61.5921 23.2609C62.031 22.9566 62.3768 22.5508 62.6295 22.0436C62.8955 21.5364 63.0285 20.9088 63.0285 20.1607Z" fill="#808085"/>
        <path d="M70.0892 26.9317V13.4658H79.5853V16.2236H73.3809V18.7533H79.2466V21.3589H73.3809V24.1547H79.9443V26.9317H70.0892Z" fill="#808085"/>
        <path d="M86.826 16.2427V19.0195H92.2919V21.7012H86.826V26.9317H83.454V13.4658H92.7511V16.2427H86.826Z" fill="#808085"/>
        <path d="M96.1958 26.9317V13.4658H99.6273V26.9317H96.1958Z" fill="#808085"/>
        <path d="M110.657 21.2258V26.9317H107.245V21.2258L101.939 13.4658H106.069L109.081 18.449L112.093 13.4658H116.083L110.657 21.2258Z" fill="#808085"/>
        <path d="M118.386 26.9317V13.4658H121.818V26.9317H118.386Z" fill="#808085"/>
        <path d="M125.985 26.9317V13.4658H135.481V16.2236H129.276V18.7533H135.142V21.3589H129.276V24.1547H135.84V26.9317H125.985Z" fill="#808085"/>
        <path d="M139.35 26.9317V13.4658H142.781V24.0977H148.247V26.9317H139.35Z" fill="#808085"/>
        <path d="M164.284 20.1607C164.284 21.3399 164.052 22.3606 163.587 23.2228C163.134 24.0723 162.529 24.7761 161.771 25.334C161.026 25.8792 160.182 26.285 159.237 26.5512C158.293 26.8048 157.336 26.9317 156.364 26.9317H151.098V13.4658H156.204C157.203 13.4658 158.187 13.5799 159.157 13.8082C160.129 14.0238 160.993 14.3915 161.751 14.9113C162.509 15.4185 163.121 16.1032 163.587 16.9654C164.052 17.8276 164.284 18.8927 164.284 20.1607ZM160.733 20.1607C160.733 19.3999 160.6 18.7723 160.334 18.2777C160.082 17.7706 159.736 17.3712 159.297 17.0796C158.872 16.7752 158.38 16.5597 157.82 16.4329C157.275 16.306 156.711 16.2427 156.125 16.2427H154.429V24.1167H156.045C156.657 24.1167 157.242 24.0533 157.801 23.9266C158.373 23.787 158.872 23.5652 159.297 23.2609C159.736 22.9566 160.082 22.5508 160.334 22.0436C160.6 21.5364 160.733 20.9088 160.733 20.1607Z" fill="#808085"/>
    </g>
    <defs>
        <clipPath id="clip0">
            <rect width="164.284" height="41.4333" fill="white"/>
        </clipPath>
    </defs>
</svg>
