<svg width="163" height="72" viewBox="0 0 163 72" fill="none" xmlns="http://www.w3.org/2000/svg">
    <path d="M93.8423 24.4927V26.4975L78.2751 46.3684H94.1675V48.305H75.7551V46.3002L91.3223 26.4293H76.8118V24.4927H93.8423Z" fill="#808085"/>
    <path d="M106.727 33.4666C105.955 32.7302 104.871 32.362 103.475 32.362C102.568 32.3483 101.66 32.5665 100.86 33.0029C100.129 33.4121 99.4785 33.9849 98.9907 34.6668C98.4894 35.376 98.0965 36.167 97.8662 37.0126C97.3649 38.7719 97.3649 40.6267 97.8662 42.386C98.1101 43.2316 98.4894 44.0226 98.9907 44.7318C99.492 45.4137 100.129 45.9865 100.86 46.3957C101.66 46.8321 102.568 47.0503 103.475 47.023C104.099 47.023 104.722 46.9003 105.304 46.6548C105.873 46.4093 106.388 46.0683 106.822 45.6319C107.269 45.1819 107.648 44.6636 107.919 44.0772C108.204 43.4634 108.393 42.7952 108.448 42.1133H110.534C110.25 44.1999 109.491 45.8365 108.244 46.9957C106.998 48.155 105.413 48.7414 103.475 48.7414C102.175 48.7414 101.023 48.4959 100.02 48.0322C99.0449 47.5822 98.1778 46.9139 97.4869 46.082C96.7823 45.2364 96.2539 44.2545 95.9288 43.2043C95.2243 40.9131 95.2243 38.4582 95.9288 36.167C96.2539 35.1169 96.7823 34.1349 97.4869 33.2893C98.1778 32.4574 99.0449 31.7891 100.02 31.3254C101.023 30.8345 102.175 30.589 103.475 30.589C105.304 30.589 106.862 31.08 108.122 32.0619C109.396 33.0439 110.155 34.5168 110.385 36.4943H108.299C108.028 35.2123 107.499 34.2031 106.727 33.4666Z" fill="#808085"/>
    <path d="M113.542 33.7667C113.867 33.0575 114.368 32.4438 114.978 31.9665C115.615 31.4891 116.346 31.1345 117.119 30.93C117.999 30.6981 118.921 30.589 119.828 30.6026C120.587 30.6026 121.346 30.6845 122.091 30.8209C122.809 30.9572 123.5 31.23 124.11 31.6391C124.733 32.0619 125.234 32.6484 125.573 33.3303C125.952 34.0531 126.142 34.9941 126.142 36.1398V45.2773C126.142 46.1229 126.548 46.5457 127.361 46.5457C127.592 46.5457 127.808 46.5048 128.025 46.4093V48.1686C127.781 48.2095 127.565 48.2505 127.375 48.2641C127.145 48.2914 126.901 48.305 126.67 48.2914C126.237 48.305 125.803 48.2368 125.397 48.0732C125.099 47.9504 124.841 47.7322 124.652 47.4594C124.462 47.173 124.354 46.8457 124.299 46.5048C124.245 46.0956 124.218 45.7001 124.218 45.291H124.15C123.798 45.8092 123.419 46.3002 123.012 46.7775C122.633 47.2003 122.199 47.5686 121.725 47.8549C121.224 48.155 120.668 48.3868 120.099 48.5232C119.395 48.6869 118.663 48.7687 117.932 48.7551C117.173 48.7551 116.428 48.6596 115.696 48.4687C115.032 48.2914 114.409 47.9913 113.881 47.5685C113.352 47.1458 112.946 46.6139 112.661 46.0002C112.35 45.291 112.201 44.5272 112.214 43.7499C112.214 42.5497 112.485 41.6087 113.013 40.9404C113.569 40.2448 114.287 39.713 115.113 39.3856C116.062 39.0174 117.051 38.7583 118.067 38.6355C119.164 38.4855 120.262 38.3491 121.4 38.2264C121.847 38.1855 122.226 38.1309 122.565 38.0627C122.863 38.0082 123.148 37.8854 123.392 37.7081C123.622 37.5308 123.798 37.299 123.906 37.0262C124.042 36.658 124.096 36.2761 124.083 35.8943C124.083 35.1851 123.961 34.5986 123.73 34.1486C123.514 33.7122 123.175 33.3303 122.768 33.0712C122.335 32.7984 121.847 32.6075 121.346 32.5256C120.777 32.4165 120.194 32.3756 119.612 32.3756C118.284 32.3756 117.2 32.6893 116.36 33.3303C115.52 33.9713 115.086 34.9805 115.032 36.3852H112.946C112.959 35.4715 113.176 34.585 113.542 33.7667ZM123.974 38.8947C123.839 39.1402 123.581 39.3174 123.215 39.4266C122.89 39.522 122.552 39.6038 122.226 39.6584C121.346 39.8084 120.438 39.9584 119.49 40.0675C118.623 40.1767 117.755 40.3539 116.929 40.6131C116.224 40.8176 115.574 41.1722 115.019 41.6632C114.517 42.1133 114.273 42.7679 114.273 43.6135C114.26 44.1045 114.368 44.5954 114.585 45.0318C114.788 45.441 115.073 45.8092 115.425 46.0956C115.791 46.3957 116.197 46.6275 116.644 46.7775C117.105 46.9276 117.579 47.0094 118.067 47.0094C118.839 47.0094 119.612 46.8866 120.357 46.6412C121.061 46.4093 121.698 46.0547 122.267 45.5774C123.419 44.5954 124.069 43.1361 124.042 41.6087V38.881L123.974 38.8947Z" fill="#808085"/>
    <path d="M139.812 34.4486C139.582 33.9849 139.243 33.5758 138.837 33.2621C138.417 32.9484 137.943 32.7166 137.428 32.5802C136.872 32.4302 136.303 32.362 135.734 32.362C135.26 32.362 134.786 32.4165 134.325 32.512C133.865 32.6075 133.417 32.7711 133.011 33.0166C132.618 33.2348 132.293 33.5485 132.049 33.9304C131.792 34.3532 131.67 34.8441 131.683 35.3351C131.67 35.7579 131.792 36.167 132.036 36.5216C132.266 36.8489 132.577 37.1217 132.916 37.3399C133.282 37.5718 133.675 37.7491 134.068 37.8854C134.488 38.0355 134.881 38.1446 135.233 38.24L138.01 38.8674C138.62 38.9629 139.216 39.1265 139.785 39.3447C140.354 39.5629 140.869 39.8766 141.343 40.2585C141.804 40.6404 142.183 41.1177 142.454 41.6632C142.752 42.2769 142.901 42.9452 142.888 43.6271C142.888 44.5545 142.671 45.3592 142.251 46.0138C141.845 46.6548 141.289 47.214 140.639 47.6231C139.961 48.0459 139.216 48.3459 138.43 48.5096C137.631 48.6869 136.832 48.7824 136.019 48.7824C134.014 48.7824 132.388 48.305 131.141 47.3504C129.895 46.3957 129.19 44.8682 129.001 42.7543H131.087C131.182 44.1727 131.697 45.2501 132.632 45.9729C133.567 46.6957 134.732 47.0503 136.127 47.0503C136.656 47.0503 137.184 46.9958 137.699 46.8867C138.227 46.7775 138.742 46.5866 139.203 46.3139C139.65 46.0547 140.043 45.7138 140.341 45.291C140.652 44.8409 140.801 44.309 140.788 43.7771C140.801 43.3271 140.693 42.877 140.476 42.4952C140.259 42.1406 139.975 41.8542 139.636 41.6223C139.257 41.3768 138.85 41.1859 138.43 41.0359C137.983 40.8858 137.523 40.7495 137.048 40.6404L134.366 40.0403C133.716 39.8766 133.092 39.6584 132.469 39.4129C131.927 39.1947 131.426 38.9083 130.965 38.5401C130.545 38.1991 130.193 37.7627 129.949 37.2717C129.692 36.6853 129.57 36.0579 129.583 35.4169C129.556 34.6259 129.759 33.8622 130.166 33.1803C130.545 32.5665 131.06 32.0483 131.67 31.6801C132.307 31.2982 133.011 31.0118 133.743 30.8481C134.488 30.6708 135.247 30.5754 136.005 30.5754C136.818 30.5617 137.631 30.6845 138.403 30.9027C139.121 31.1073 139.785 31.4619 140.354 31.9392C140.923 32.4165 141.384 33.003 141.696 33.6712C142.048 34.435 142.238 35.2669 142.265 36.0988H140.178C140.192 35.5397 140.056 34.9669 139.812 34.4486Z" fill="#808085"/>
    <path d="M147.63 24.4927V34.0667H147.698C148.104 33.0166 148.849 32.1301 149.811 31.5436C150.814 30.9163 151.979 30.5753 153.158 30.589C154.35 30.589 155.353 30.739 156.152 31.0527C156.897 31.3254 157.561 31.7755 158.089 32.3756C158.591 32.9757 158.943 33.6848 159.119 34.4622C159.322 35.376 159.431 36.3034 159.417 37.2308V48.305H157.331V37.5717C157.331 36.8898 157.263 36.1943 157.127 35.526C157.005 34.9396 156.775 34.3668 156.436 33.8758C156.098 33.3984 155.637 33.0166 155.095 32.7711C154.526 32.4983 153.835 32.3756 152.995 32.3756C152.223 32.3619 151.464 32.512 150.76 32.8256C150.123 33.112 149.567 33.5348 149.107 34.0667C148.633 34.6122 148.28 35.2532 148.05 35.9351C147.793 36.6852 147.643 37.4899 147.63 38.2809V48.3186H145.543V24.4927H147.63Z" fill="#808085"/>
    <path d="M35.2991 4.54004C17.808 4.54004 3.58203 18.8601 3.58203 36.467C3.58203 54.074 17.808 68.3941 35.2991 68.3941C52.7902 68.3941 67.0161 54.074 67.0161 36.467C67.0161 18.8601 52.7902 4.54004 35.2991 4.54004ZM35.2991 63.1297C20.6938 63.1297 8.81175 51.169 8.81175 36.467C8.81175 21.7651 20.6938 9.81802 35.2991 9.81802C49.9044 9.81802 61.7864 21.7787 61.7864 36.4807C61.7864 51.1827 49.9044 63.1297 35.2991 63.1297ZM37.9546 21.656H46.6121V26.5248L33.1991 44.8545H46.6121V51.3054H37.9546V56.6379H32.6436V51.3054H23.9861V46.4366L37.3991 28.1068H23.9861V21.656H32.6436V16.2962H37.9546V21.656Z" fill="#808085"/>
</svg>
