<svg width="99" height="27" viewBox="0 0 99 27" fill="none" xmlns="http://www.w3.org/2000/svg">
    <path d="M13.5908 15.7721C14.4119 15.9796 16.2064 16.4331 16.4917 15.3362C16.784 14.2147 15.0436 13.841 14.1944 13.6587C14.0995 13.6383 14.0157 13.6204 13.9472 13.604L13.3946 15.7234C13.4509 15.7368 13.5169 15.7534 13.5908 15.7721Z" fill="white"/>
    <path d="M14.365 12.6752C15.0496 12.8499 16.5428 13.2312 16.8029 12.2343C17.0686 11.2145 15.6173 10.9072 14.9085 10.757C14.8287 10.7401 14.7584 10.7252 14.701 10.7115L14.2 12.6338C14.2473 12.6451 14.3028 12.6593 14.365 12.6752Z" fill="white"/>
    <path fill-rule="evenodd" clip-rule="evenodd" d="M12.5294 22.0138C17.4432 23.1861 22.4196 20.3252 23.6446 15.6243C24.8695 10.9232 21.8796 6.16115 16.966 4.98915C12.0536 3.81715 7.07722 6.67832 5.85283 11.3798C4.62729 16.0804 7.61747 20.8418 12.5294 22.0138ZM16.7737 10.0375C18.0442 10.4563 18.9734 11.0839 18.7909 12.2515C18.6587 13.1063 18.1635 13.5201 17.506 13.6651C18.4088 14.1148 18.8682 14.8045 18.4306 16.0001C17.8875 17.485 16.5972 17.6103 14.8812 17.2996L14.4648 18.8963L13.4585 18.6564L13.8695 17.081C13.6087 17.0191 13.3422 16.9533 13.0676 16.882L12.6552 18.4647L11.65 18.2248L12.0665 16.625C11.9725 16.602 11.878 16.5784 11.7828 16.5547C11.6398 16.519 11.4953 16.4829 11.3491 16.4479L10.0396 16.1355L10.5391 15.0335C10.5391 15.0335 11.2806 15.2221 11.2706 15.2081C11.5554 15.2756 11.6818 15.0979 11.7317 14.9794L12.3898 12.4553C12.4144 12.461 12.4386 12.4668 12.462 12.4724C12.4736 12.4751 12.485 12.4779 12.4961 12.4805C12.456 12.4652 12.4196 12.4553 12.3915 12.4484L12.8609 10.6466C12.8733 10.442 12.7996 10.184 12.3921 10.0866C12.4078 10.0765 11.6612 9.91276 11.6612 9.91276L11.9289 8.88445L13.3166 9.21598L13.3155 9.22091C13.5242 9.27055 13.7391 9.31771 13.9581 9.36542L14.3705 7.78429L15.3762 8.02423L14.9721 9.57438C15.2421 9.63333 15.5138 9.69284 15.7783 9.75591L16.1796 8.21591L17.1859 8.45585L16.7737 10.0375Z" fill="white"/>
    <path d="M32.4537 10.0369C33.1975 10.0369 33.8401 10.1644 34.38 10.4148C34.9226 10.6676 35.3703 11.0082 35.7294 11.4365C36.0836 11.867 36.3473 12.3702 36.5176 12.9469C36.6867 13.5252 36.7715 14.1469 36.7715 14.8124C36.7715 15.8347 36.5757 16.8004 36.1805 17.7108C35.7853 18.6226 35.249 19.4135 34.5669 20.088C33.8853 20.7618 33.0806 21.2929 32.1525 21.6853C31.2259 22.078 30.2185 22.2743 29.1368 22.2743C28.997 22.2743 28.7511 22.2705 28.4037 22.2637C28.0563 22.2568 27.6571 22.2225 27.21 22.1647C26.76 22.1046 26.2842 22.0158 25.7818 21.8968C25.2797 21.7799 24.8027 21.6162 24.3536 21.4084L28.3696 5.26364L31.9665 4.73029L30.5286 10.4595C30.8364 10.3268 31.1465 10.2239 31.4561 10.1491C31.7659 10.0753 32.0983 10.0369 32.4537 10.0369ZM29.4366 19.5443C29.9783 19.5443 30.4888 19.4167 30.9683 19.1664C31.4492 18.9158 31.8642 18.5774 32.2118 18.1559C32.5595 17.7325 32.8346 17.2556 33.0353 16.7228C33.2359 16.19 33.3374 15.6342 33.3374 15.0559C33.3374 14.3454 33.2133 13.7912 32.9659 13.3906C32.7186 12.9916 32.2609 12.7909 31.5962 12.7909C31.3784 12.7909 31.0978 12.8306 30.7499 12.9016C30.4008 12.9771 30.0884 13.1336 29.8084 13.3692L28.2773 19.4535C28.3696 19.4691 28.4513 19.4839 28.5209 19.4979C28.5891 19.513 28.6645 19.5237 28.7396 19.5311C28.819 19.5396 28.9098 19.544 29.0196 19.544C29.1294 19.544 29.2667 19.5443 29.4366 19.5443Z" fill="white"/>
    <path d="M40.5025 21.9639H37.067L39.9683 10.2832H43.4274L40.5025 21.9639ZM42.1743 8.85998C41.6948 8.85998 41.26 8.72342 40.8743 8.44975C40.4853 8.17773 40.2927 7.759 40.2927 7.19467C40.2927 6.88425 40.3587 6.59303 40.4894 6.31827C40.6221 6.04405 40.7955 5.80795 41.0127 5.60723C41.2297 5.40815 41.481 5.2491 41.7665 5.12927C42.0537 5.01136 42.3592 4.9524 42.6848 4.9524C43.164 4.9524 43.5965 5.08896 43.9837 5.36263C44.3694 5.63767 44.5635 6.05639 44.5635 6.61771C44.5635 6.92922 44.4979 7.22154 44.366 7.49575C44.235 7.76997 44.0616 8.00607 43.8444 8.2068C43.6291 8.40615 43.3755 8.56465 43.0906 8.68338C42.8031 8.80322 42.4988 8.85998 42.1743 8.85998Z" fill="white"/>
    <path d="M46.4376 7.37345L50.036 6.8401L49.1524 10.2832H53.0061L52.3102 12.9919H48.4797L47.4594 17.0777C47.3654 17.4183 47.3121 17.7363 47.2972 18.032C47.2802 18.3289 47.3195 18.584 47.4124 18.7987C47.5047 19.0139 47.6706 19.1798 47.9114 19.2972C48.151 19.4165 48.494 19.4765 48.944 19.4765C49.3146 19.4765 49.6757 19.4428 50.0248 19.3759C50.3719 19.3101 50.7235 19.2185 51.0795 19.0987L51.3357 21.6313C50.8714 21.7942 50.3687 21.9343 49.827 22.0522C49.2845 22.1718 48.6422 22.2294 47.8999 22.2294C46.8326 22.2294 46.0051 22.0777 45.4156 21.7758C44.8269 21.4717 44.4107 21.0563 44.1617 20.5303C43.916 20.0063 43.8063 19.4022 43.8369 18.7216C43.8688 18.0394 43.9762 17.3223 44.1617 16.5671L46.4376 7.37345Z" fill="white"/>
    <path d="M52.8545 17.3009C52.8545 16.2948 53.0247 15.346 53.3649 14.4578C53.7045 13.5688 54.1938 12.7914 54.8286 12.1242C55.4612 11.4604 56.2319 10.9344 57.139 10.5483C58.0418 10.1644 59.0526 9.97083 60.1667 9.97083C60.864 9.97083 61.4868 10.0339 62.0348 10.1603C62.5851 10.2878 63.0829 10.4526 63.5332 10.6594L62.3483 13.237C62.0388 13.1169 61.7175 13.0111 61.3853 12.9151C61.0529 12.8172 60.647 12.77 60.167 12.77C59.0203 12.77 58.1137 13.1482 57.439 13.902C56.7669 14.6564 56.4285 15.6718 56.4285 16.9455C56.4285 17.7004 56.5987 18.3108 56.9404 18.7778C57.2803 19.2448 57.9082 19.4771 58.8199 19.4771C59.2699 19.4771 59.7041 19.4321 60.12 19.3444C60.539 19.2555 60.909 19.1436 61.2349 19.0115L61.4914 21.6538C61.0569 21.815 60.5777 21.9606 60.0521 22.0882C59.5253 22.2113 58.8982 22.2752 58.171 22.2752C57.2112 22.2752 56.3987 22.1408 55.734 21.8762C55.0691 21.6075 54.5197 21.2507 54.0869 20.7988C53.6518 20.3458 53.3394 19.8168 53.1462 19.2097C52.9531 18.6031 52.8545 17.9659 52.8545 17.3009Z" fill="white"/>
    <path d="M68.1158 22.2746C67.2958 22.2746 66.5835 22.1551 65.9794 21.9184C65.3769 21.6818 64.878 21.3497 64.4833 20.9192C64.0881 20.4908 63.7923 19.9833 63.5897 19.3984C63.387 18.8137 63.2896 18.1663 63.2896 17.4569C63.2896 16.5671 63.4389 15.6775 63.7407 14.7904C64.0411 13.9014 64.4867 13.1026 65.0766 12.3927C65.6618 11.6817 66.3838 11.1003 67.2339 10.647C68.0831 10.1968 69.0599 9.97028 70.157 9.97028C70.9621 9.97028 71.6706 10.0901 72.283 10.3268C72.8927 10.5629 73.3948 10.8977 73.7917 11.326C74.1844 11.7565 74.4828 12.2619 74.6834 12.8476C74.8854 13.4312 74.9852 14.0802 74.9852 14.7902C74.9852 15.6773 74.8379 16.5668 74.5455 17.4566C74.2529 18.3421 73.8187 19.1428 73.2455 19.8544C72.6734 20.5643 71.958 21.1454 71.0988 21.5968C70.2407 22.0481 69.2456 22.2746 68.1158 22.2746ZM69.8328 12.7697C69.3235 12.7697 68.8733 12.9112 68.4878 13.1907C68.1009 13.4734 67.7758 13.8288 67.5139 14.2574C67.2491 14.6879 67.0527 15.1573 66.92 15.6677C66.7885 16.1791 66.724 16.6625 66.724 17.1218C66.724 17.863 66.849 18.4403 67.0946 18.8557C67.3437 19.2689 67.791 19.4768 68.4413 19.4768C68.9524 19.4768 69.4003 19.3364 69.7881 19.054C70.1727 18.7734 70.498 18.4178 70.762 17.9884C71.0251 17.56 71.2232 17.0892 71.3559 16.5781C71.4857 16.0683 71.5519 15.5821 71.5519 15.1236C71.5519 14.3843 71.4275 13.8057 71.1796 13.3908C70.932 12.9776 70.4826 12.7697 69.8328 12.7697Z" fill="white"/>
    <path d="M78.73 21.9639H75.2916L78.1929 10.2832H81.6537L78.73 21.9639ZM80.3992 8.85998C79.92 8.85998 79.4855 8.72342 79.1003 8.44975C78.7134 8.17773 78.5191 7.759 78.5191 7.19467C78.5191 6.88425 78.5858 6.59303 78.7168 6.31827C78.8478 6.04405 79.0223 5.80795 79.2396 5.60723C79.4554 5.40815 79.709 5.2491 79.9939 5.12927C80.2794 5.01136 80.5849 4.9524 80.9094 4.9524C81.3897 4.9524 81.8236 5.08896 82.21 5.36263C82.5966 5.63767 82.7918 6.05639 82.7918 6.61771C82.7918 6.92922 82.7224 7.22154 82.5926 7.49575C82.4628 7.76997 82.2882 8.00607 82.0718 8.2068C81.854 8.40615 81.6035 8.56465 81.3181 8.68338C81.0303 8.80322 80.7254 8.85998 80.3992 8.85998Z" fill="white"/>
    <path d="M84.1282 10.8154C84.3891 10.7425 84.6803 10.6547 84.9969 10.5593C85.3148 10.4639 85.6699 10.375 86.0666 10.2949C86.4589 10.2124 86.9017 10.1455 87.3887 10.0937C87.8756 10.0408 88.4305 10.015 89.047 10.015C90.8589 10.015 92.108 10.5198 92.7976 11.5265C93.4866 12.5331 93.6058 13.9108 93.1587 15.657L91.5783 21.9639H88.1201L89.6517 15.7897C89.7452 15.4041 89.8186 15.0315 89.8727 14.6673C89.9275 14.3065 89.9243 13.9884 89.8604 13.7131C89.7993 13.441 89.6555 13.2184 89.4322 13.0459C89.2055 12.8761 88.863 12.7909 88.3984 12.7909C87.9504 12.7909 87.4947 12.8369 87.0296 12.9258L84.7777 21.9637H81.3181L84.1282 10.8154Z" fill="white"/>
</svg>
