<svg width="97" height="23" viewBox="0 0 97 23" fill="none" xmlns="http://www.w3.org/2000/svg">
    <path fill-rule="evenodd" clip-rule="evenodd" d="M19.9551 3.52879L20.0769 4.26067C20.173 4.94152 20.2175 5.62857 20.21 6.31604C20.2092 7.83526 20.0248 9.34888 19.6607 10.8244C19.1684 12.829 18.3107 14.727 17.1303 16.4245C15.7663 18.3741 13.7941 20.2916 10.9193 21.8323L10.5676 22.0207L10.2159 21.8323C7.34108 20.2916 5.36968 18.3741 4.00487 16.4245C2.82449 14.727 1.96688 12.8289 1.47447 10.8244C1.11046 9.34914 0.926035 7.83579 0.925159 6.31684C0.917727 5.62937 0.962216 4.94232 1.05825 4.26147L1.18005 3.52959C1.19045 3.4699 1.18886 3.40876 1.17537 3.34969C1.16188 3.29061 1.13676 3.23478 1.10146 3.18539C1.06616 3.13601 1.02138 3.09406 0.969687 3.06196C0.917997 3.02986 0.860425 3.00824 0.80029 2.99835C0.740155 2.98846 0.678644 2.99049 0.619304 3.00434C0.559964 3.01818 0.503966 3.04355 0.454539 3.079C0.405112 3.11445 0.363233 3.15927 0.331314 3.21087C0.299396 3.26248 0.278069 3.31985 0.268564 3.37969L0.146763 4.11157C0.0419973 4.84193 -0.00680966 5.57914 0.000762967 6.31684C0.00134382 7.91061 0.194709 9.49853 0.576696 11.0464C1.09667 13.1602 2.00186 15.1615 3.24744 16.9512C4.68728 19.0106 6.77564 21.0355 9.78113 22.6427L10.3522 22.9482C10.4195 22.9843 10.4948 23.0032 10.5712 23.0032C10.6477 23.0032 10.723 22.9843 10.7902 22.9482L11.3605 22.6427C14.3628 21.0347 16.452 19.0106 17.8942 16.9512C19.1392 15.1617 20.0438 13.1607 20.5633 11.0472C20.9453 9.49933 21.1387 7.91141 21.1393 6.31764C21.1468 5.57994 21.098 4.84273 20.9933 4.11237L20.8715 3.38049C20.862 3.32065 20.8406 3.26328 20.8087 3.21167C20.7768 3.16007 20.7349 3.11525 20.6855 3.0798C20.6361 3.04436 20.5801 3.01898 20.5207 3.00514C20.4614 2.99129 20.3999 2.98926 20.3397 2.99915C20.2796 3.00904 20.222 3.03066 20.1703 3.06276C20.1187 3.09486 20.0739 3.13681 20.0386 3.1862C20.0033 3.23558 19.9782 3.29141 19.9647 3.35049C19.9512 3.40956 19.9496 3.4707 19.96 3.53039L19.9551 3.52879Z" fill="white"/>
    <path fill-rule="evenodd" clip-rule="evenodd" d="M3.70262 3.02695L10.567 0.942722L17.5847 3.07184C17.7022 3.10675 17.8288 3.09398 17.9368 3.03633C18.0449 2.97868 18.1255 2.88085 18.1612 2.76424C18.1968 2.64764 18.1845 2.52175 18.1269 2.41414C18.0694 2.30653 17.9713 2.22595 17.8541 2.19005L10.7017 0.0200509C10.6139 -0.00668364 10.5201 -0.00668364 10.4323 0.0200509L3.4324 2.14356C3.37391 2.16094 3.31944 2.18963 3.27213 2.22798C3.22482 2.26633 3.1856 2.3136 3.15672 2.36705C3.12784 2.42051 3.10987 2.47911 3.10383 2.53949C3.0978 2.59987 3.10382 2.66084 3.12156 2.71889C3.1393 2.77695 3.1684 2.83096 3.2072 2.87781C3.24599 2.92466 3.29372 2.96344 3.34763 2.99191C3.40155 3.02038 3.46059 3.03799 3.52137 3.04373C3.58215 3.04947 3.64347 3.04322 3.70182 3.02534L3.70262 3.02695Z" fill="white"/>
    <path fill-rule="evenodd" clip-rule="evenodd" d="M0.315003 3.65892L10.1559 22.7472C10.1942 22.8218 10.2524 22.8846 10.3241 22.9286C10.3959 22.9727 10.4783 22.9963 10.5626 22.9971C10.6469 22.9978 10.7298 22.9756 10.8023 22.9328C10.8748 22.89 10.9341 22.8283 10.9738 22.7544L16.9751 11.5998L16.984 11.5822L20.8251 3.64609C20.8772 3.53657 20.8837 3.41106 20.8431 3.29683C20.8026 3.1826 20.7183 3.08889 20.6086 3.03608C20.4989 2.98327 20.3727 2.97562 20.2574 3.01479C20.142 3.05396 20.0469 3.1368 19.9927 3.24528L16.158 11.175L10.581 21.548L1.13696 3.23887C1.10974 3.1845 1.07194 3.13605 1.02574 3.09631C0.979545 3.05657 0.925872 3.02634 0.867833 3.00736C0.809795 2.98839 0.748544 2.98104 0.687629 2.98576C0.626715 2.99048 0.567348 3.00717 0.512969 3.03485C0.45859 3.06253 0.410279 3.10067 0.370836 3.14704C0.331393 3.19341 0.301602 3.2471 0.283189 3.305C0.264775 3.3629 0.258106 3.42385 0.263567 3.48433C0.269028 3.5448 0.286511 3.6036 0.315003 3.65732V3.65892Z" fill="white"/>
    <path fill-rule="evenodd" clip-rule="evenodd" d="M5.0243 12.161H15.9678C16.0903 12.161 16.2078 12.1126 16.2944 12.0265C16.381 11.9405 16.4296 11.8237 16.4296 11.702C16.4296 11.5803 16.381 11.4636 16.2944 11.3775C16.2078 11.2915 16.0903 11.2431 15.9678 11.2431H5.0243C4.90182 11.2431 4.78436 11.2915 4.69776 11.3775C4.61115 11.4636 4.5625 11.5803 4.5625 11.702C4.5625 11.8237 4.61115 11.9405 4.69776 12.0265C4.78436 12.1126 4.90182 12.161 5.0243 12.161ZM35.5487 8.20093H28.4294C28.3064 8.20156 28.1886 8.25041 28.1016 8.33687C28.0146 8.42332 27.9654 8.5404 27.9648 8.66267V14.3414C27.9657 14.4636 28.0149 14.5805 28.1018 14.6669C28.1888 14.7534 28.3065 14.8023 28.4294 14.8031H35.5487V15.7651H28.4294C28.2416 15.7659 28.0554 15.7298 27.8817 15.6587C27.708 15.5877 27.5502 15.4831 27.4174 15.3511C27.2846 15.2191 27.1794 15.0623 27.1079 14.8897C27.0364 14.7171 27 14.5321 27.0009 14.3454V8.66668C27 8.48 27.0364 8.29501 27.1079 8.12238C27.1794 7.94976 27.2846 7.79292 27.4174 7.66092C27.5502 7.52892 27.708 7.42438 27.8817 7.35333C28.0554 7.28229 28.2416 7.24615 28.4294 7.247H35.5487V8.20093ZM48.917 7.24219V8.20414H42.0606V11.0154H47.5715V11.9854H42.0598V14.8015H48.9162V15.7635H41.0919V7.24219H48.917Z" fill="white"/>
    <path d="M63.0355 8.6775V11.1738C63.0363 11.3604 62.9998 11.5453 62.9283 11.7179C62.8568 11.8905 62.7516 12.0473 62.6188 12.1793C62.486 12.3113 62.3282 12.4158 62.1545 12.4869C61.9809 12.558 61.7948 12.5942 61.607 12.5934H60.2978L62.9879 15.7639H61.7143L59.0354 12.5934H55.8896C55.734 12.5856 55.5789 12.5698 55.425 12.5461V15.7639H54.457V7.25782H61.5997C61.7875 7.25708 61.9736 7.2933 62.1473 7.36438C62.3209 7.43546 62.4787 7.54001 62.6115 7.67198C62.7443 7.80396 62.8495 7.96076 62.921 8.13334C62.9926 8.30592 63.029 8.49086 63.0282 8.6775H63.0355ZM55.8928 11.6235H61.607C61.6666 11.6242 61.7258 11.6131 61.781 11.5908C61.8363 11.5684 61.8865 11.5353 61.9286 11.4934C61.9708 11.4515 62.0041 11.4016 62.0266 11.3467C62.0491 11.2918 62.0603 11.233 62.0595 11.1738V8.6775C62.0604 8.61736 62.0493 8.55764 62.0269 8.50178C62.0045 8.44592 61.9712 8.39503 61.9288 8.35204C61.8877 8.30804 61.8377 8.27315 61.7821 8.24967C61.7265 8.22618 61.6666 8.21463 61.6062 8.21577H55.892C55.769 8.2164 55.6512 8.26525 55.5642 8.3517C55.4772 8.43816 55.428 8.55524 55.4274 8.6775V11.1738C55.4262 11.2338 55.4377 11.2934 55.4614 11.3487C55.485 11.404 55.5202 11.4536 55.5645 11.4944C55.6079 11.5365 55.6592 11.5697 55.7156 11.5918C55.772 11.614 55.8322 11.6247 55.8928 11.6235Z" fill="white"/>
    <path fill-rule="evenodd" clip-rule="evenodd" d="M68.1562 7.24219H76.7243V8.20414H72.9331V15.7643H71.9651V8.20414H68.1562V7.24219ZM81.9173 15.7603V7.24219H82.8853V15.7603H81.9173ZM95.7502 7.24219H96.9884L93.4053 11.5012L97.0005 15.7603H95.7502L92.56 11.9862H89.7981V15.7603H88.8237V7.24219H89.7997V11.0154H92.5616L95.7502 7.24219Z" fill="white"/>
</svg>
