<svg width="99" height="23" viewBox="0 0 99 23" fill="none" xmlns="http://www.w3.org/2000/svg">
    <path fill-rule="evenodd" clip-rule="evenodd" d="M20.7148 11.5517L24.6446 15.5096L18.2063 21.9941L16.55 20.3704L21.3762 15.5096L19.1033 13.2204L13.5108 18.8531V21.8324H11.28V18.9547L5.51361 13.147L3.2684 15.4083L8.16792 20.343L6.51166 21.9667L0 15.4083L3.92987 11.4502L0.000129251 7.49226L6.43838 1.00781L8.09464 2.63152L3.26853 7.49226L5.54145 9.78152L11.28 4.00172V1.16946H13.5108V4.19431L19.1311 9.85496L21.3763 7.59357L16.4768 2.65889L18.133 1.03518L24.6447 7.59357L20.7148 11.5517ZM17.5195 11.5237L12.3449 16.7354L7.12519 11.4782L12.2998 6.2665L17.5195 11.5237Z" fill="white"/>
    <path d="M32.1617 6.12558H29.9388V17.1992H32.1617V6.12558Z" fill="white"/>
    <path d="M43.4372 9.04776C42.4268 9.04776 41.463 9.47844 40.9811 10.4166C40.4837 9.47844 39.551 9.04776 38.4629 9.04776C37.4836 9.04776 36.7375 9.41689 36.3488 10.0782L36.1157 9.2016H34.0949V17.1992H36.2711V12.7236C36.2711 11.5394 36.8929 10.9703 37.81 10.9703C38.6805 10.9703 39.2712 11.5086 39.2712 12.8159V17.1992H41.3697V12.7697C41.4008 11.524 42.0537 10.9703 42.9086 10.9703C43.7947 10.9703 44.3699 11.5086 44.3699 12.7082V17.2146H46.5616V12.2776C46.5616 10.0628 45.0538 9.04776 43.4372 9.04776Z" fill="white"/>
    <path d="M57.6307 9.04776C56.6201 9.04776 55.6565 9.47844 55.1748 10.4166C54.6771 9.47844 53.7443 9.04776 52.6564 9.04776C51.6771 9.04776 50.931 9.41689 50.5424 10.0782L50.3092 9.2016H48.2884V17.1992H50.4647V12.7236C50.4647 11.5394 51.0864 10.9703 52.0035 10.9703C52.8741 10.9703 53.4648 11.5086 53.4648 12.8159V17.1992H55.5634V12.7697C55.5941 11.524 56.2474 10.9703 57.1024 10.9703C57.9881 10.9703 58.5635 11.5086 58.5635 12.7082V17.2146H60.7553V12.2776C60.7553 10.0628 59.2475 9.04776 57.6307 9.04776Z" fill="white"/>
    <path d="M67.7827 9.2016V13.5849C67.7827 14.7692 67.2231 15.4766 66.1505 15.492C65.1245 15.5228 64.4718 14.923 64.4718 13.6772V9.2016H62.4044V13.954C62.4044 15.9995 63.6009 17.353 65.6688 17.353C66.6323 17.353 67.3317 16.9223 67.7515 16.3225L67.8605 17.1992H69.8501V9.2016H67.7827Z" fill="white"/>
    <path d="M76.2364 9.04776C75.024 9.04776 74.2156 9.49378 73.7958 10.1551L73.6714 9.2016H71.6506V17.1992H73.827V12.9697C73.827 11.6778 74.4485 10.8934 75.599 10.8934C76.6562 10.8934 77.2936 11.5701 77.2936 12.8928V17.1992H79.4854V12.4468C79.4854 10.4012 78.3037 9.04776 76.2364 9.04776Z" fill="white"/>
    <path d="M89.0026 13.0774C89.0026 10.6319 87.4011 9.04776 84.9918 9.04776C82.5824 9.04776 80.9661 10.7088 80.9661 13.2004C80.9661 15.7074 82.5824 17.3684 85.0077 17.3684C87.0438 17.3684 88.5828 16.2456 88.9401 14.5846H86.7484C86.5001 15.2767 85.8627 15.6304 85.0696 15.6304C84.0282 15.6304 83.1886 14.9691 83.1579 13.7848H89.0026V13.0774ZM84.9918 10.7242C85.9399 10.7242 86.733 11.2625 86.8262 12.3699H83.1732C83.2664 11.2625 84.0595 10.7242 84.9918 10.7242Z" fill="white"/>
    <path d="M89.8523 9.2016V11.0779H91.0959V17.1992H93.2877V11.0779H95.1374V9.2016H93.2877V8.38645C93.2877 7.81738 93.4428 7.38676 94.329 7.38676H95.1374V5.63341H93.8472C91.8106 5.63341 91.0959 6.61775 91.0959 8.17111V9.2016H89.8523Z" fill="white"/>
    <path d="M96.5748 7.97117H98.7819L98.8131 5.63341H96.606L96.5748 7.97117ZM96.606 17.1992H98.7819V9.2016H96.606V17.1992Z" fill="white"/>
</svg>
