<svg width="117" height="27" viewBox="0 0 117 27" fill="none" xmlns="http://www.w3.org/2000/svg">
    <path d="M28.5886 19.9236C28.5019 19.9236 28.4489 19.8846 28.4296 19.8066L25.7121 9.847L25.6976 9.80312C25.6976 9.72512 25.7458 9.68612 25.8422 9.68612H27.013C27.0997 9.68612 27.1527 9.73 27.172 9.81775L29.0656 17.101C29.0752 17.1205 29.0849 17.1302 29.0945 17.1302C29.1138 17.1302 29.1282 17.1205 29.1379 17.101L30.9303 9.81775C30.9496 9.73 31.0026 9.68612 31.0893 9.68612H32.2312C32.318 9.68612 32.3709 9.73 32.3902 9.81775L34.2838 17.1156C34.2935 17.1351 34.3031 17.1449 34.3127 17.1449C34.3224 17.1449 34.332 17.1351 34.3416 17.1156L36.2497 9.81775C36.269 9.73 36.322 9.68612 36.4087 9.68612H37.5073C37.5554 9.68612 37.5892 9.70075 37.6084 9.73C37.6374 9.75925 37.647 9.79825 37.6374 9.847L35.021 19.792C35.0017 19.8797 34.9487 19.9236 34.862 19.9236H33.749C33.6623 19.9236 33.6093 19.8797 33.59 19.792L31.6964 12.2455C31.6868 12.2162 31.6771 12.2016 31.6675 12.2016C31.6578 12.2016 31.6482 12.2162 31.6386 12.2455L29.8028 19.792C29.7932 19.8797 29.7402 19.9236 29.6438 19.9236H28.5886Z" fill="white"/>
    <path d="M40.9789 12.3625C41.5668 12.3625 42.0775 12.4697 42.5111 12.6842C42.9544 12.889 43.2917 13.1815 43.523 13.5618C43.7639 13.9323 43.8844 14.3564 43.8844 14.8341V19.7774C43.8844 19.8749 43.8362 19.9236 43.7398 19.9236H42.6412C42.5449 19.9236 42.4967 19.8749 42.4967 19.7774V19.2509C42.4967 19.2021 42.4726 19.1924 42.4244 19.2216C42.1739 19.4849 41.8655 19.6896 41.4993 19.8359C41.1427 19.9724 40.7428 20.0406 40.2995 20.0406C39.5864 20.0406 38.9938 19.8602 38.5216 19.4995C38.059 19.129 37.8278 18.5732 37.8278 17.8323C37.8278 17.0718 38.0879 16.477 38.6083 16.048C39.1383 15.6093 39.8755 15.3899 40.8199 15.3899H42.4389C42.4774 15.3899 42.4967 15.3704 42.4967 15.3314V14.9365C42.4967 14.5075 42.3714 14.176 42.1209 13.942C41.8799 13.6983 41.5089 13.5764 41.0078 13.5764C40.6031 13.5764 40.2706 13.6593 40.0104 13.825C39.7599 13.981 39.6057 14.1955 39.5479 14.4685C39.519 14.566 39.4612 14.6099 39.3744 14.6001L38.2036 14.4392C38.1072 14.4198 38.0638 14.3808 38.0735 14.3223C38.1506 13.747 38.4541 13.279 38.9841 12.9182C39.5142 12.5477 40.1791 12.3625 40.9789 12.3625ZM40.6031 18.856C41.1138 18.856 41.5571 18.7195 41.9329 18.4465C42.3088 18.1735 42.4967 17.8274 42.4967 17.4081V16.5452C42.4967 16.5063 42.4774 16.4867 42.4389 16.4867H41.0801C40.5115 16.4867 40.0586 16.5989 39.7213 16.8231C39.3841 17.0474 39.2154 17.3594 39.2154 17.7591C39.2154 18.1199 39.3407 18.3929 39.5912 18.5781C39.8514 18.7634 40.1887 18.856 40.6031 18.856Z" fill="white"/>
    <path d="M45.9023 19.9236C45.8059 19.9236 45.7577 19.8749 45.7577 19.7774V9.83237C45.7577 9.73487 45.8059 9.68612 45.9023 9.68612H47.0009C47.0972 9.68612 47.1454 9.73487 47.1454 9.83237V19.7774C47.1454 19.8749 47.0972 19.9236 47.0009 19.9236H45.9023Z" fill="white"/>
    <path d="M49.3043 19.9236C49.2079 19.9236 49.1597 19.8749 49.1597 19.7774V9.83237C49.1597 9.73487 49.2079 9.68612 49.3043 9.68612H50.4028C50.4992 9.68612 50.5474 9.73487 50.5474 9.83237V19.7774C50.5474 19.8749 50.4992 19.9236 50.4028 19.9236H49.3043Z" fill="white"/>
    <path d="M58.5171 15.2729C58.5557 15.6726 58.5701 16.1211 58.5605 16.6184C58.5605 16.7159 58.5123 16.7646 58.4159 16.7646H53.8048C53.7663 16.7646 53.747 16.7841 53.747 16.8231C53.747 17.1546 53.7759 17.4081 53.8337 17.5836C53.9397 17.9736 54.1517 18.2808 54.4697 18.505C54.7974 18.7195 55.207 18.8267 55.6984 18.8267C56.4115 18.8267 56.9608 18.5294 57.3463 17.9346C57.3945 17.8371 57.4571 17.8225 57.5342 17.8907L58.3581 18.4465C58.4256 18.505 58.44 18.5684 58.4015 18.6366C58.1317 19.0754 57.7462 19.4215 57.2451 19.675C56.7536 19.9285 56.1947 20.0553 55.5683 20.0553C54.8648 20.0553 54.2722 19.8993 53.7904 19.5872C53.3085 19.2753 52.9472 18.8316 52.7063 18.2564C52.475 17.6811 52.3593 16.984 52.3593 16.165C52.3593 15.4532 52.4123 14.9121 52.5183 14.5416C52.6918 13.8689 53.0387 13.3375 53.5591 12.9475C54.0795 12.5575 54.7107 12.3625 55.4527 12.3625C56.426 12.3625 57.1535 12.6111 57.6354 13.1084C58.1172 13.5959 58.4111 14.3174 58.5171 15.2729ZM55.4527 13.5764C55.0383 13.5764 54.6962 13.6836 54.4264 13.8981C54.1566 14.1029 53.9735 14.3807 53.8771 14.7317C53.8096 14.9462 53.7663 15.2193 53.747 15.5507C53.747 15.5898 53.7663 15.6093 53.8048 15.6093H57.115C57.1535 15.6093 57.1728 15.5898 57.1728 15.5507C57.1535 15.229 57.1246 14.9901 57.0861 14.8341C56.9897 14.4539 56.797 14.1516 56.5079 13.9274C56.2284 13.6934 55.8767 13.5764 55.4527 13.5764Z" fill="white"/>
    <path d="M63.8267 13.4886C63.8267 13.5861 63.7785 13.6349 63.6822 13.6349H62.121C62.0825 13.6349 62.0632 13.6544 62.0632 13.6934V17.569C62.0632 17.9785 62.1547 18.2759 62.3378 18.4611C62.5209 18.6366 62.8052 18.7244 63.1907 18.7244H63.6099C63.7062 18.7244 63.7544 18.7731 63.7544 18.8706V19.7774C63.7544 19.8749 63.7062 19.9236 63.6099 19.9236C63.3015 19.9431 63.0799 19.9529 62.945 19.9529C62.2126 19.9529 61.6585 19.8213 61.2826 19.558C60.9164 19.285 60.7334 18.7877 60.7334 18.0662V13.6934C60.7334 13.6544 60.7141 13.6349 60.6755 13.6349H59.7938C59.6974 13.6349 59.6492 13.5861 59.6492 13.4886V12.6257C59.6492 12.5282 59.6974 12.4795 59.7938 12.4795H60.6755C60.7141 12.4795 60.7334 12.46 60.7334 12.421V10.6952C60.7334 10.5977 60.7815 10.549 60.8779 10.549H61.9187C62.015 10.549 62.0632 10.5977 62.0632 10.6952V12.421C62.0632 12.46 62.0825 12.4795 62.121 12.4795H63.6822C63.7785 12.4795 63.8267 12.5282 63.8267 12.6257V13.4886Z" fill="white"/>
    <path d="M68.8301 20.0406C68.0881 20.0406 67.4425 19.9236 66.8932 19.6896C66.3535 19.4556 65.9343 19.1241 65.6356 18.6951C65.3465 18.2661 65.202 17.764 65.202 17.1888V16.7646C65.202 16.6671 65.2501 16.6184 65.3465 16.6184H66.4017C66.4981 16.6184 66.5462 16.6671 66.5462 16.7646V17.1156C66.5462 17.6129 66.7583 18.0224 67.1823 18.3441C67.6063 18.6659 68.1893 18.8267 68.9313 18.8267C69.5962 18.8267 70.0973 18.6854 70.4346 18.4026C70.7719 18.1199 70.9405 17.7494 70.9405 17.2911C70.9405 16.9889 70.8538 16.7305 70.6804 16.516C70.5069 16.3015 70.2515 16.1065 69.9142 15.931C69.5866 15.7458 69.1048 15.5264 68.4688 15.2729C67.7653 14.9999 67.2064 14.7513 66.792 14.527C66.3872 14.3027 66.05 14.0103 65.7801 13.6495C65.5103 13.279 65.3754 12.8159 65.3754 12.2601C65.3754 11.4216 65.6693 10.7635 66.2572 10.2857C66.8546 9.808 67.6593 9.56913 68.6711 9.56913C69.3842 9.56913 70.0106 9.691 70.5503 9.93475C71.0899 10.1785 71.5043 10.5197 71.7934 10.9585C72.0921 11.3973 72.2415 11.9042 72.2415 12.4795V12.772C72.2415 12.8695 72.1933 12.9182 72.0969 12.9182H71.0128C70.9165 12.9182 70.8683 12.8695 70.8683 12.772V12.5526C70.8683 12.0456 70.6659 11.6264 70.2612 11.2949C69.8661 10.9536 69.3168 10.783 68.6133 10.783C68.0158 10.783 67.5533 10.9097 67.2256 11.1632C66.898 11.407 66.7342 11.7629 66.7342 12.2309C66.7342 12.5526 66.8161 12.8159 66.9799 13.0206C67.1437 13.2254 67.3846 13.4106 67.7026 13.5764C68.0303 13.7324 68.5266 13.9371 69.1915 14.1906C69.8757 14.4636 70.4298 14.7171 70.8538 14.9511C71.2778 15.1754 71.6296 15.4776 71.909 15.8579C72.1885 16.2284 72.3282 16.6915 72.3282 17.2472C72.3282 18.1052 72.015 18.7878 71.3886 19.2948C70.7719 19.792 69.9191 20.0406 68.8301 20.0406Z" fill="white"/>
    <path d="M76.9811 20.0406C76.2487 20.0406 75.6223 19.8554 75.102 19.4849C74.5816 19.1046 74.225 18.5928 74.0323 17.9492C73.8878 17.5007 73.8155 16.9109 73.8155 16.1796C73.8155 15.5069 73.8878 14.917 74.0323 14.41C74.225 13.786 74.5816 13.2887 75.102 12.9182C75.632 12.5477 76.2584 12.3625 76.9811 12.3625C77.7039 12.3625 78.3351 12.5477 78.8747 12.9182C79.4144 13.2887 79.7661 13.7568 79.9299 14.3223C79.9877 14.4783 80.0263 14.6391 80.0456 14.8049C80.0456 14.8829 80.0022 14.9316 79.9155 14.9511L78.8313 15.112H78.8024C78.735 15.112 78.6868 15.0681 78.6579 14.9804L78.6145 14.7464C78.5374 14.4149 78.3495 14.137 78.0508 13.9127C77.752 13.6885 77.3907 13.5764 76.9667 13.5764C76.5523 13.5764 76.2005 13.6885 75.9114 13.9127C75.6224 14.137 75.4344 14.4344 75.3477 14.8049C75.261 15.1559 75.2176 15.619 75.2176 16.1943C75.2176 16.7598 75.261 17.218 75.3477 17.569C75.4441 17.959 75.632 18.2661 75.9114 18.4904C76.2005 18.7146 76.5523 18.8267 76.9667 18.8267C77.3907 18.8267 77.752 18.7146 78.0508 18.4904C78.3591 18.2661 78.5519 17.9736 78.629 17.6129C78.6386 17.6031 78.6386 17.5934 78.629 17.5836C78.629 17.5641 78.6338 17.5495 78.6434 17.5397V17.4812C78.6723 17.4032 78.7253 17.374 78.8024 17.3935L79.8865 17.569C79.9636 17.5885 80.0022 17.6275 80.0022 17.686V17.7445C80.0022 17.8322 79.9781 17.9395 79.9299 18.0662C79.7661 18.661 79.4144 19.1387 78.8747 19.4995C78.3351 19.8602 77.7039 20.0406 76.9811 20.0406Z" fill="white"/>
    <path d="M84.8643 12.4064C85.1727 12.4064 85.4522 12.4698 85.7027 12.5965C85.7702 12.6257 85.7943 12.6842 85.775 12.772L85.5437 13.8689C85.5341 13.9566 85.4763 13.9859 85.3703 13.9566C85.2064 13.8884 85.0137 13.8543 84.7921 13.8543L84.5897 13.8689C84.1368 13.8884 83.7609 14.0492 83.4622 14.3515C83.1731 14.644 83.0286 15.0291 83.0286 15.5069V19.7774C83.0286 19.8749 82.9804 19.9236 82.884 19.9236H81.7854C81.6891 19.9236 81.6409 19.8749 81.6409 19.7774V12.6257C81.6409 12.5282 81.6891 12.4795 81.7854 12.4795H82.884C82.9804 12.4795 83.0286 12.5282 83.0286 12.6257V13.4009C83.0286 13.4301 83.0334 13.4496 83.043 13.4594C83.0623 13.4594 83.0768 13.4496 83.0864 13.4301C83.52 12.7476 84.1127 12.4064 84.8643 12.4064Z" fill="white"/>
    <path d="M91.3849 12.6257C91.3849 12.5282 91.433 12.4795 91.5294 12.4795H92.6135C92.7099 12.4795 92.7581 12.5282 92.7581 12.6257V19.7774C92.7581 19.8749 92.7099 19.9236 92.6135 19.9236H91.5294C91.433 19.9236 91.3849 19.8749 91.3849 19.7774V19.2363C91.3849 19.2168 91.3752 19.207 91.3559 19.207C91.3463 19.1973 91.3319 19.2021 91.3126 19.2216C90.9271 19.7579 90.3345 20.026 89.5346 20.026C89.0624 20.026 88.624 19.9334 88.2192 19.7481C87.8241 19.5629 87.5061 19.2899 87.2652 18.9291C87.0243 18.5684 86.9038 18.1296 86.9038 17.6129V12.6257C86.9038 12.5282 86.952 12.4795 87.0484 12.4795H88.1325C88.2289 12.4795 88.277 12.5282 88.277 12.6257V17.1741C88.277 17.6811 88.4071 18.0809 88.6673 18.3734C88.9372 18.6659 89.313 18.8121 89.7948 18.8121C90.2766 18.8121 90.6621 18.6659 90.9512 18.3734C91.2403 18.0711 91.3849 17.6714 91.3849 17.1741V12.6257Z" fill="white"/>
    <path d="M98.4112 13.4886C98.4112 13.5861 98.363 13.6349 98.2666 13.6349H96.7055C96.667 13.6349 96.6477 13.6544 96.6477 13.6934V17.569C96.6477 17.9785 96.7392 18.2759 96.9223 18.4611C97.1054 18.6366 97.3897 18.7244 97.7752 18.7244H98.1944C98.2907 18.7244 98.3389 18.7731 98.3389 18.8706V19.7774C98.3389 19.8749 98.2907 19.9236 98.1944 19.9236C97.886 19.9431 97.6643 19.9529 97.5294 19.9529C96.7971 19.9529 96.243 19.8213 95.8671 19.558C95.5009 19.285 95.3178 18.7877 95.3178 18.0662V13.6934C95.3178 13.6544 95.2986 13.6349 95.26 13.6349H94.3783C94.2819 13.6349 94.2337 13.5861 94.2337 13.4886V12.6257C94.2337 12.5282 94.2819 12.4795 94.3783 12.4795H95.26C95.2986 12.4795 95.3178 12.46 95.3178 12.421V10.6952C95.3178 10.5977 95.366 10.549 95.4624 10.549H96.5031C96.5995 10.549 96.6477 10.5977 96.6477 10.6952V12.421C96.6477 12.46 96.667 12.4795 96.7055 12.4795H98.2666C98.363 12.4795 98.4112 12.5282 98.4112 12.6257V13.4886Z" fill="white"/>
    <path d="M100.957 11.3095C100.687 11.3095 100.466 11.2217 100.292 11.0462C100.119 10.8708 100.032 10.6465 100.032 10.3735C100.032 10.1005 100.119 9.87625 100.292 9.70075C100.466 9.52525 100.687 9.4375 100.957 9.4375C101.227 9.4375 101.449 9.52525 101.622 9.70075C101.796 9.87625 101.882 10.1005 101.882 10.3735C101.882 10.6465 101.796 10.8708 101.622 11.0462C101.449 11.2217 101.227 11.3095 100.957 11.3095ZM100.379 19.909C100.283 19.909 100.235 19.8603 100.235 19.7628V12.6257C100.235 12.5282 100.283 12.4795 100.379 12.4795H101.478C101.574 12.4795 101.622 12.5282 101.622 12.6257V19.7628C101.622 19.8603 101.574 19.909 101.478 19.909H100.379Z" fill="white"/>
    <path d="M107.084 12.3771C107.875 12.3771 108.501 12.6111 108.964 13.0791C109.426 13.5374 109.657 14.1614 109.657 14.9511V19.7774C109.657 19.8749 109.609 19.9236 109.513 19.9236H108.414C108.318 19.9236 108.27 19.8749 108.27 19.7774V15.229C108.27 14.7415 108.13 14.3466 107.851 14.0444C107.571 13.7421 107.2 13.591 106.738 13.591C106.285 13.591 105.914 13.7421 105.625 14.0444C105.335 14.3466 105.191 14.7366 105.191 15.2144V19.7774C105.191 19.8749 105.143 19.9236 105.046 19.9236H103.948C103.851 19.9236 103.803 19.8749 103.803 19.7774V12.6257C103.803 12.5282 103.851 12.4795 103.948 12.4795H105.046C105.143 12.4795 105.191 12.5282 105.191 12.6257V13.1522C105.191 13.1718 105.196 13.1864 105.205 13.1961C105.225 13.2059 105.239 13.201 105.249 13.1815C105.663 12.6452 106.275 12.3771 107.084 12.3771Z" fill="white"/>
    <path d="M111.223 22.834C111.156 22.834 111.122 22.7852 111.122 22.6877V21.8249C111.122 21.7274 111.17 21.6786 111.267 21.6786H111.295C111.681 21.6689 111.984 21.6201 112.206 21.5324C112.428 21.4446 112.611 21.2789 112.755 21.0351C112.9 20.8011 113.04 20.4452 113.175 19.9675C113.184 19.9577 113.184 19.9431 113.175 19.9236C113.175 19.8944 113.175 19.8798 113.175 19.8798L110.761 12.6404L110.746 12.5819C110.746 12.5136 110.79 12.4795 110.876 12.4795H112.047C112.134 12.4795 112.192 12.5185 112.221 12.5965L113.854 18.1101C113.864 18.1296 113.878 18.1394 113.897 18.1394C113.917 18.1394 113.931 18.1296 113.941 18.1101L115.56 12.5965C115.589 12.5185 115.646 12.4795 115.733 12.4795H116.875C116.981 12.4795 117.02 12.5331 116.991 12.6404L114.36 20.4355C114.138 21.1082 113.917 21.6055 113.695 21.9273C113.473 22.2588 113.184 22.4928 112.828 22.6292C112.471 22.7658 111.97 22.834 111.324 22.834H111.223Z" fill="white"/>
    <path fill-rule="evenodd" clip-rule="evenodd" d="M7.88021 20.6517V26.5H19.2732L15.5652 14.004C15.3897 13.4125 15.4615 12.774 15.7639 12.2376L16.1453 11.5613C16.31 11.2693 16.3586 10.9269 16.2728 10.602C15.7959 8.79675 14.0374 2.65193 11.6779 0.5C12.2336 4.25451 11.6779 7.16428 11.2147 8.85375C8.76224 8.85375 6.18287 10.3961 5.36563 10.9284C5.19407 11.0402 5.08505 11.2224 5.0562 11.427L4.86821 12.7606C4.8405 12.9571 4.7141 13.1238 4.53328 13.2003C3.69016 13.5571 1.22395 14.6031 0.00694579 15.1426C-0.213901 20.0664 4.89008 20.0687 6.99389 19.8623C7.45738 19.8168 7.88021 20.1799 7.88021 20.6517ZM9.26955 0.5C9.26955 2.84657 9.54741 6.50719 10.0105 8.10287C9.0741 8.16345 8.12569 8.42319 7.25418 8.78687C7.0114 6.80541 8.15802 1.53249 9.26955 0.5ZM7.31543 13.1234C7.38336 12.7162 7.45084 12.3119 7.76424 12.1786C8.07264 12.0473 8.75801 11.8686 9.36114 11.7113C9.53106 11.6671 9.69449 11.6244 9.84112 11.5851C9.98506 11.5464 10.1128 11.7145 10.04 11.8462C10.0279 11.868 10.0157 11.89 10.0035 11.9121C9.73484 12.3985 9.42817 12.9538 9.12478 13.0733C8.78129 13.2086 7.97623 13.4975 7.44847 13.6166C7.33301 13.6426 7.23872 13.5293 7.26329 13.4121C7.28292 13.3181 7.29914 13.2206 7.31543 13.1234Z" fill="white"/>
</svg>
