<svg width="198" height="56" viewBox="0 0 198 56" fill="none" xmlns="http://www.w3.org/2000/svg">
    <path d="M27.1804 32.7093C28.8225 33.1396 32.4116 34.0802 32.9822 31.8052C33.5668 29.479 30.0861 28.7041 28.3876 28.3259C28.1978 28.2837 28.0303 28.2464 27.8931 28.2124L26.788 32.6082C26.9006 32.636 27.0326 32.6706 27.1804 32.7093Z" fill="#808085"/>
    <path d="M28.7289 26.2859C30.098 26.6485 33.0845 27.4393 33.6047 25.3715C34.1359 23.2565 31.2333 22.619 29.8157 22.3076C29.6562 22.2726 29.5156 22.2417 29.4007 22.2133L28.3987 26.2002C28.4934 26.2236 28.6044 26.253 28.7289 26.2859Z" fill="#808085"/>
    <path fill-rule="evenodd" clip-rule="evenodd" d="M25.0575 45.6551C34.8853 48.0865 44.838 42.1528 47.2879 32.4028C49.7378 22.6522 43.7581 12.7754 33.9309 10.3446C24.1059 7.9138 14.1532 13.8481 11.7044 23.5992C9.25336 33.3486 15.2337 43.2243 25.0575 45.6551ZM33.5462 20.8153C36.0873 21.6838 37.9456 22.9857 37.5805 25.4074C37.3162 27.1801 36.3257 28.0384 35.0108 28.3392C36.8164 29.272 37.7353 30.7024 36.86 33.1821C35.7737 36.2618 33.1931 36.5218 29.7613 35.8774L28.9284 39.1892L26.9158 38.6915L27.7378 35.4241C27.2162 35.2955 26.6831 35.159 26.1339 35.0112L25.3091 38.294L23.2988 37.7963L24.1317 34.4783C23.9438 34.4305 23.7548 34.3816 23.5644 34.3323C23.2784 34.2584 22.9894 34.1836 22.697 34.1109L20.0779 33.4631L21.077 31.1773C21.077 31.1773 22.56 31.5686 22.5399 31.5396C23.1097 31.6795 23.3625 31.3109 23.4622 31.0652L24.7783 25.8299C24.8277 25.8417 24.876 25.8537 24.9227 25.8653C24.9459 25.8711 24.9687 25.8768 24.991 25.8823C24.9107 25.8504 24.8379 25.8299 24.7817 25.8157L25.7207 22.0785C25.7453 21.6542 25.598 21.119 24.7829 20.9171C24.8144 20.8961 23.3212 20.5565 23.3212 20.5565L23.8566 18.4238L26.6321 19.1114L26.6298 19.1216C27.0471 19.2245 27.477 19.3224 27.9149 19.4213L28.7398 16.142L30.7512 16.6396L29.943 19.8547C30.4829 19.977 31.0263 20.1004 31.5554 20.2312L32.3579 17.0372L34.3705 17.5348L33.5462 20.8153Z" fill="#808085"/>
    <path d="M64.9063 20.814C66.3938 20.814 67.6789 21.0785 68.7588 21.5978C69.8439 22.1222 70.7393 22.8285 71.4575 23.7169C72.166 24.6098 72.6934 25.6535 73.0339 26.8496C73.3721 28.049 73.5418 29.3384 73.5418 30.7187C73.5418 32.839 73.1503 34.8421 72.3598 36.7304C71.5693 38.6214 70.4968 40.2617 69.1326 41.6608C67.7695 43.0582 66.1599 44.1599 64.3038 44.9737C62.4506 45.7882 60.4357 46.1954 58.2724 46.1954C57.9927 46.1954 57.5009 46.1874 56.8062 46.1732C56.1114 46.159 55.3129 46.0879 54.4187 45.9679C53.5188 45.8433 52.5672 45.6591 51.5624 45.4122C50.5581 45.17 49.6043 44.8304 48.706 44.3993L56.7379 10.9139L63.9318 9.80771L61.056 21.6905C61.6716 21.4152 62.2918 21.2019 62.9109 21.0467C63.5305 20.8937 64.1955 20.814 64.9063 20.814ZM58.872 40.533C59.9554 40.533 60.9763 40.2685 61.9353 39.7493C62.8971 39.2294 63.7272 38.5276 64.4225 37.6534C65.1178 36.7753 65.6681 35.7862 66.0693 34.6812C66.4706 33.5761 66.6735 32.4233 66.6735 31.2238C66.6735 29.7502 66.4253 28.6007 65.9306 27.7698C65.4359 26.9423 64.5205 26.5259 63.1912 26.5259C62.7556 26.5259 62.1944 26.6084 61.4985 26.7557C60.8003 26.9121 60.1755 27.2369 59.6155 27.7254L56.5534 40.3447C56.7379 40.3771 56.9013 40.4079 57.0406 40.4369C57.177 40.4681 57.3278 40.4903 57.478 40.5057C57.6367 40.5233 57.8185 40.5324 58.038 40.5324C58.2575 40.5324 58.5321 40.533 58.872 40.533Z" fill="#808085"/>
    <path d="M81.0039 45.5516H74.1327L79.9354 21.3248H86.8535L81.0039 45.5516ZM84.3474 18.373C83.3884 18.373 82.5189 18.0898 81.7473 17.5222C80.9695 16.958 80.5843 16.0895 80.5843 14.919C80.5843 14.2752 80.7161 13.6712 80.9775 13.1013C81.2429 12.5326 81.5897 12.0429 82.0242 11.6266C82.4581 11.2136 82.9608 10.8838 83.5317 10.6352C84.1061 10.3907 84.7172 10.2684 85.3683 10.2684C86.3268 10.2684 87.1917 10.5516 87.9661 11.1192C88.7377 11.6897 89.1258 12.5582 89.1258 13.7224C89.1258 14.3685 88.9945 14.9748 88.7308 15.5435C88.4688 16.1122 88.1221 16.6019 87.6876 17.0182C87.2571 17.4317 86.7498 17.7605 86.18 18.0067C85.6051 18.2553 84.9963 18.373 84.3474 18.373Z" fill="#808085"/>
    <path d="M92.874 15.2898L100.071 14.1836L98.3035 21.3248H106.011L104.619 26.9428H96.9582L94.9175 35.4171C94.7295 36.1235 94.6229 36.7832 94.5931 37.3964C94.5593 38.0123 94.6378 38.5412 94.8235 38.9866C95.0081 39.433 95.34 39.7771 95.8215 40.0205C96.3007 40.2679 96.9868 40.3925 97.8868 40.3925C98.6279 40.3925 99.3502 40.3225 100.048 40.1838C100.743 40.0473 101.446 39.8573 102.158 39.6088L102.67 44.8617C101.742 45.1995 100.736 45.4902 99.6529 45.7347C98.5678 45.9827 97.2832 46.1021 95.7986 46.1021C93.6639 46.1021 92.009 45.7876 90.8299 45.1614C89.6525 44.5307 88.8202 43.669 88.3221 42.5782C87.8309 41.4913 87.6113 40.2384 87.6727 38.8267C87.7363 37.4117 87.9512 35.9244 88.3221 34.3581L92.874 15.2898Z" fill="#808085"/>
    <path d="M105.708 35.8801C105.708 33.7934 106.048 31.8255 106.729 29.9833C107.408 28.1395 108.386 26.5271 109.656 25.1433C110.921 23.7664 112.462 22.6755 114.277 21.8748C116.082 21.0785 118.104 20.677 120.332 20.677C121.727 20.677 122.972 20.8078 124.068 21.07C125.169 21.3344 126.165 21.6763 127.065 22.1051L124.695 27.4513C124.076 27.2022 123.434 26.9827 122.769 26.7836C122.105 26.5805 121.293 26.4827 120.333 26.4827C118.039 26.4827 116.226 27.267 114.877 28.8305C113.533 30.3951 112.856 32.5012 112.856 35.143C112.856 36.7087 113.196 37.9748 113.879 38.9433C114.559 39.9119 115.815 40.3936 117.639 40.3936C118.539 40.3936 119.407 40.3004 120.239 40.1184C121.077 39.9341 121.817 39.702 122.469 39.4279L122.982 44.9083C122.113 45.2427 121.154 45.5448 120.103 45.8092C119.049 46.0646 117.795 46.1971 116.341 46.1971C114.421 46.1971 112.796 45.9184 111.467 45.3696C110.137 44.8122 109.038 44.0723 108.173 43.135C107.302 42.1954 106.678 41.0983 106.291 39.8391C105.905 38.5811 105.708 37.2593 105.708 35.8801Z" fill="#808085"/>
    <path d="M136.23 46.196C134.59 46.196 133.166 45.948 131.958 45.4572C130.753 44.9663 129.755 44.2776 128.965 43.3847C128.175 42.4963 127.583 41.4435 127.178 40.2304C126.773 39.0178 126.578 37.675 126.578 36.2037C126.578 34.3581 126.877 32.5131 127.48 30.6732C128.081 28.8294 128.972 27.1726 130.152 25.7001C131.322 24.2254 132.766 23.0196 134.467 22.0795C136.165 21.1456 138.118 20.6758 140.313 20.6758C141.923 20.6758 143.34 20.9244 144.565 21.4152C145.784 21.9049 146.788 22.5993 147.582 23.4877C148.368 24.3806 148.964 25.4288 149.366 26.6437C149.77 27.854 149.969 29.2002 149.969 30.6727C149.969 32.5125 149.674 34.3576 149.09 36.2031C148.505 38.0396 147.636 39.7003 146.49 41.1762C145.346 42.6487 143.915 43.8539 142.196 44.79C140.48 45.7262 138.49 46.196 136.23 46.196ZM139.664 26.4822C138.646 26.4822 137.745 26.7756 136.974 27.3552C136.201 27.9415 135.55 28.6786 135.027 29.5676C134.497 30.4605 134.104 31.4342 133.839 32.4926C133.576 33.5534 133.447 34.556 133.447 35.5087C133.447 37.046 133.697 38.2432 134.188 39.1049C134.686 39.962 135.581 40.3931 136.881 40.3931C137.904 40.3931 138.799 40.1019 139.575 39.5161C140.344 38.9342 140.995 38.1966 141.523 37.3059C142.049 36.4175 142.445 35.441 142.71 34.3809C142.97 33.3236 143.103 32.3152 143.103 31.3643C143.103 29.8309 142.854 28.6309 142.358 27.7704C141.863 26.9133 140.964 26.4822 139.664 26.4822Z" fill="#808085"/>
    <path d="M157.459 45.5516H150.582L156.385 21.3248H163.306L157.459 45.5516ZM160.797 18.373C159.839 18.373 158.97 18.0898 158.199 17.5222C157.426 16.958 157.037 16.0895 157.037 14.919C157.037 14.2752 157.17 13.6712 157.432 13.1013C157.694 12.5326 158.043 12.0429 158.478 11.6266C158.91 11.2136 159.417 10.8838 159.987 10.6352C160.558 10.3907 161.169 10.2684 161.817 10.2684C162.778 10.2684 163.646 10.5516 164.419 11.1192C165.192 11.6897 165.582 12.5582 165.582 13.7224C165.582 14.3685 165.444 14.9748 165.184 15.5435C164.924 16.1122 164.575 16.6019 164.142 17.0182C163.707 17.4317 163.206 17.7605 162.635 18.0067C162.059 18.2553 161.449 18.373 160.797 18.373Z" fill="#808085"/>
    <path d="M168.255 22.4287C168.777 22.2774 169.359 22.0954 169.993 21.8975C170.628 21.6996 171.339 21.5153 172.132 21.3492C172.917 21.178 173.802 21.0393 174.776 20.9318C175.75 20.822 176.86 20.7685 178.093 20.7685C181.717 20.7685 184.215 21.8156 185.594 23.9035C186.972 25.9913 187.21 28.8487 186.316 32.4705L183.155 45.5516H176.239L179.302 32.7457C179.489 31.9461 179.636 31.1732 179.744 30.4179C179.854 29.6694 179.847 29.0097 179.72 28.4386C179.597 27.8744 179.31 27.4126 178.863 27.0549C178.41 26.7028 177.725 26.5259 176.796 26.5259C175.9 26.5259 174.988 26.6215 174.058 26.8058L169.554 45.551H162.635L168.255 22.4287Z" fill="#808085"/>
</svg>
