<svg width="208" height="51" viewBox="0 0 208 51" fill="none" xmlns="http://www.w3.org/2000/svg">
    <path fill-rule="evenodd" clip-rule="evenodd" d="M42.7904 7.8176L43.0516 9.44047C43.2575 10.9502 43.3529 12.4736 43.337 13.998C43.3353 17.3667 42.9398 20.723 42.1591 23.9948C41.1033 28.4397 39.2643 32.6484 36.7331 36.4125C33.8082 40.7354 29.5791 44.9873 23.4146 48.4036L22.6604 48.8214L21.9063 48.4036C15.7417 44.9873 11.5144 40.7354 8.58776 36.4125C6.05664 32.6483 4.21764 28.4397 3.16176 23.9948C2.38119 20.7236 1.98573 17.3679 1.98385 13.9998C1.96791 12.4754 2.06331 10.952 2.26924 9.44225L2.53042 7.81938C2.55272 7.68703 2.54931 7.55145 2.52038 7.42046C2.49146 7.28947 2.4376 7.16566 2.3619 7.05616C2.2862 6.94666 2.19017 6.85364 2.07933 6.78246C1.96849 6.71127 1.84504 6.66334 1.71609 6.64141C1.58714 6.61948 1.45524 6.62399 1.32799 6.65468C1.20075 6.68538 1.08067 6.74165 0.974682 6.82025C0.868694 6.89885 0.77889 6.99823 0.710447 7.11266C0.642003 7.22709 0.596272 7.35431 0.575889 7.48698L0.314708 9.10985C0.090056 10.7293 -0.0146022 12.364 0.00163605 13.9998C0.00288159 17.5338 0.417519 21.0549 1.23663 24.4871C2.35162 29.1743 4.29264 33.6119 6.96359 37.5803C10.0511 42.1468 14.5292 46.6368 20.974 50.2007L22.1986 50.8779C22.3428 50.9581 22.5042 51 22.6682 51C22.8322 51 22.9936 50.9581 23.1378 50.8779L24.3607 50.2007C30.7985 46.635 35.2784 42.1468 38.3711 37.5803C41.0406 33.6122 42.9805 29.1752 44.0946 24.4889C44.9137 21.0566 45.3283 17.5356 45.3296 14.0016C45.3458 12.3658 45.2411 10.7311 45.0165 9.11163L44.7553 7.48876C44.7349 7.35608 44.6892 7.22886 44.6208 7.11443C44.5523 7 44.4625 6.90062 44.3565 6.82202C44.2505 6.74342 44.1305 6.68715 44.0032 6.65646C43.876 6.62577 43.7441 6.62125 43.6151 6.64318C43.4862 6.66511 43.3627 6.71305 43.2519 6.78423C43.141 6.85542 43.045 6.94844 42.9693 7.05794C42.8936 7.16744 42.8397 7.29125 42.8108 7.42224C42.7819 7.55323 42.7785 7.6888 42.8008 7.82115L42.7904 7.8176Z" fill="#808085"/>
    <path fill-rule="evenodd" clip-rule="evenodd" d="M7.94256 6.71193L22.6621 2.09038L37.7103 6.81147C37.9622 6.88887 38.2337 6.86056 38.4654 6.73273C38.6971 6.60491 38.87 6.38797 38.9464 6.12941C39.0228 5.87085 38.9964 5.59171 38.873 5.3531C38.7496 5.11448 38.5393 4.93581 38.288 4.8562L22.951 0.0444608C22.7627 -0.0148202 22.5615 -0.0148202 22.3733 0.0444608L7.36312 4.7531C7.23768 4.79164 7.12089 4.85526 7.01944 4.94031C6.918 5.02535 6.83389 5.13015 6.77196 5.24869C6.71003 5.36722 6.67149 5.49716 6.65855 5.63104C6.64562 5.76493 6.65854 5.90012 6.69657 6.02885C6.73461 6.15759 6.79702 6.27734 6.88021 6.38123C6.9634 6.48512 7.06573 6.5711 7.18134 6.63423C7.29695 6.69737 7.42356 6.73642 7.55389 6.74915C7.68422 6.76187 7.81572 6.74801 7.94083 6.70837L7.94256 6.71193Z" fill="#808085"/>
    <path fill-rule="evenodd" clip-rule="evenodd" d="M0.676638 8.11621L21.7787 50.4424C21.861 50.6079 21.9858 50.747 22.1395 50.8446C22.2933 50.9423 22.4702 50.9948 22.6509 50.9965C22.8317 50.9981 23.0095 50.9488 23.1649 50.854C23.3203 50.7591 23.4475 50.6223 23.5326 50.4584L36.4014 25.7243L36.4204 25.6852L44.6571 8.08777C44.7688 7.84492 44.7827 7.5666 44.6957 7.31332C44.6088 7.06003 44.428 6.85224 44.1928 6.73514C43.9576 6.61803 43.687 6.60106 43.4396 6.68792C43.1923 6.77479 42.9884 6.95846 42.8721 7.19901L34.6492 24.7822L22.6902 47.7833L2.43918 7.18479C2.38082 7.06425 2.29976 6.95681 2.20069 6.86869C2.10163 6.78057 1.98654 6.71353 1.86209 6.67146C1.73763 6.62938 1.60629 6.6131 1.47567 6.62356C1.34505 6.63402 1.21775 6.67102 1.10114 6.7324C0.984535 6.79379 0.88094 6.87835 0.796361 6.98117C0.711783 7.084 0.6479 7.20305 0.608416 7.33143C0.568932 7.45981 0.554631 7.59497 0.566342 7.72907C0.578052 7.86317 0.615542 7.99355 0.676638 8.11266V8.11621Z" fill="#808085"/>
    <path fill-rule="evenodd" clip-rule="evenodd" d="M10.7733 26.9667H34.2399C34.5025 26.9667 34.7544 26.8595 34.9401 26.6687C35.1258 26.4778 35.2301 26.219 35.2301 25.9491C35.2301 25.6792 35.1258 25.4204 34.9401 25.2295C34.7544 25.0387 34.5025 24.9315 34.2399 24.9315H10.7733C10.5107 24.9315 10.2588 25.0387 10.0731 25.2295C9.88741 25.4204 9.78308 25.6792 9.78308 25.9491C9.78308 26.219 9.88741 26.4778 10.0731 26.6687C10.2588 26.8595 10.5107 26.9667 10.7733 26.9667ZM76.2278 18.1858H60.9617C60.6978 18.1872 60.4452 18.2955 60.2587 18.4872C60.0721 18.6789 59.9667 18.9385 59.9654 19.2096V31.8016C59.9672 32.0725 60.0727 32.3319 60.2592 32.5235C60.4456 32.7151 60.698 32.8236 60.9617 32.8254H76.2278V34.9584H60.9617C60.5589 34.9603 60.1597 34.8802 59.7872 34.7226C59.4148 34.5651 59.0763 34.3333 58.7915 34.0406C58.5067 33.7479 58.2811 33.4001 58.1278 33.0174C57.9745 32.6346 57.8966 32.2244 57.8984 31.8105V19.2185C57.8966 18.8046 57.9745 18.3944 58.1278 18.0116C58.2811 17.6288 58.5067 17.2811 58.7915 16.9884C59.0763 16.6957 59.4148 16.4639 59.7872 16.3063C60.1597 16.1488 60.5589 16.0687 60.9617 16.0705H76.2278V18.1858ZM104.894 16.0599V18.1929H90.1915V24.4266H102.009V26.5774H90.1898V32.8219H104.892V34.9549H88.1141V16.0599H104.894Z" fill="#808085"/>
    <path d="M135.17 19.2345V24.7697C135.172 25.1835 135.093 25.5936 134.94 25.9763C134.787 26.359 134.561 26.7067 134.276 26.9993C133.992 27.292 133.653 27.5238 133.281 27.6814C132.909 27.839 132.509 27.9193 132.107 27.9177H129.299L135.068 34.9477H132.337L126.593 27.9177H119.847C119.513 27.9002 119.181 27.8652 118.851 27.8128V34.9477H116.775V16.0865H132.091C132.494 16.0849 132.893 16.1652 133.265 16.3228C133.638 16.4804 133.976 16.7122 134.261 17.0049C134.546 17.2975 134.771 17.6452 134.925 18.0279C135.078 18.4105 135.156 18.8206 135.154 19.2345H135.17ZM119.854 25.7669H132.107C132.235 25.7685 132.362 25.7439 132.48 25.6944C132.598 25.6448 132.706 25.5715 132.797 25.4785C132.887 25.3856 132.958 25.275 133.007 25.1533C133.055 25.0315 133.079 24.9011 133.077 24.7697V19.2345C133.079 19.1011 133.055 18.9687 133.007 18.8448C132.959 18.721 132.888 18.6081 132.797 18.5128C132.709 18.4152 132.602 18.3379 132.482 18.2858C132.363 18.2337 132.235 18.2081 132.105 18.2106H119.852C119.588 18.212 119.336 18.3204 119.149 18.5121C118.962 18.7038 118.857 18.9634 118.856 19.2345V24.7697C118.853 24.9028 118.878 25.035 118.929 25.1576C118.979 25.2801 119.055 25.3903 119.15 25.4807C119.243 25.5741 119.353 25.6475 119.474 25.6967C119.595 25.7458 119.724 25.7697 119.854 25.7669Z" fill="#808085"/>
    <path fill-rule="evenodd" clip-rule="evenodd" d="M146.149 16.0599H164.521V18.1929H156.392V34.9567H154.316V18.1929H146.149V16.0599ZM175.657 34.9478V16.0599H177.732V34.9478H175.657ZM205.319 16.0599H207.974L200.291 25.5038L208 34.9478H205.319L198.478 26.5792H192.556V34.9478H190.466V16.0599H192.559V24.4266H198.482L205.319 16.0599Z" fill="#808085"/>
</svg>
