<svg width="150" height="36" viewBox="0 0 150 36" fill="none" xmlns="http://www.w3.org/2000/svg">
    <path fill-rule="evenodd" clip-rule="evenodd" d="M30.8585 5.51763L31.0468 6.66319C31.1953 7.72887 31.2641 8.80425 31.2526 9.88028C31.2514 12.2582 30.9662 14.6273 30.4032 16.9368C29.6418 20.0744 28.3156 23.0452 26.4902 25.7023C24.3809 28.7537 21.3311 31.755 16.8855 34.1666L16.3416 34.4615L15.7978 34.1666C11.3522 31.755 8.30363 28.7537 6.19309 25.7023C4.36777 23.0452 3.04157 20.0744 2.28011 16.9368C1.71721 14.6277 1.43201 12.259 1.43066 9.88154C1.41917 8.8055 1.48796 7.73012 1.63647 6.66444L1.82483 5.51889C1.8409 5.42546 1.83844 5.32976 1.81758 5.2373C1.79673 5.14484 1.75788 5.05744 1.70329 4.98015C1.6487 4.90285 1.57945 4.83719 1.49952 4.78694C1.41958 4.73669 1.33055 4.70286 1.23756 4.68738C1.14457 4.6719 1.04945 4.67508 0.957687 4.69675C0.865923 4.71841 0.779329 4.75813 0.702896 4.81362C0.626462 4.8691 0.5617 4.93925 0.512341 5.02002C0.462983 5.1008 0.430004 5.1906 0.415305 5.28425L0.226953 6.42981C0.0649442 7.57298 -0.0105304 8.72687 0.00117985 9.88154C0.00207807 12.3761 0.301096 14.8616 0.891798 17.2844C1.69588 20.593 3.09565 23.7254 5.02182 26.5266C7.24836 29.75 10.4778 32.9194 15.1255 35.4351L16.0086 35.9132C16.1126 35.9697 16.229 35.9993 16.3473 35.9993C16.4655 35.9993 16.5819 35.9697 16.6859 35.9132L17.5678 35.4351C22.2105 32.9182 25.4412 29.75 27.6715 26.5266C29.5966 23.7256 30.9955 20.5936 31.799 17.2856C32.3897 14.8628 32.6887 12.3774 32.6896 9.88279C32.7013 8.72813 32.6258 7.57424 32.4638 6.43106L32.2755 5.28551C32.2608 5.19185 32.2278 5.10205 32.1784 5.02128C32.1291 4.9405 32.0643 4.87035 31.9879 4.81487C31.9114 4.75939 31.8249 4.71967 31.7331 4.698C31.6413 4.67634 31.5462 4.67315 31.4532 4.68863C31.3602 4.70411 31.2712 4.73795 31.1913 4.7882C31.1113 4.83844 31.0421 4.90411 30.9875 4.9814C30.9329 5.05869 30.894 5.14609 30.8732 5.23855C30.8523 5.33102 30.8499 5.42672 30.866 5.52014L30.8585 5.51763Z" fill="#808085"/>
    <path fill-rule="evenodd" clip-rule="evenodd" d="M5.7283 4.73783L16.3434 1.47556L27.1954 4.80809C27.3771 4.86273 27.5729 4.84275 27.74 4.75252C27.907 4.66229 28.0318 4.50916 28.0869 4.32664C28.142 4.14413 28.1229 3.94709 28.0339 3.77866C27.945 3.61022 27.7933 3.4841 27.612 3.4279L16.5517 0.0313841C16.4159 -0.0104614 16.2708 -0.0104614 16.1351 0.0313841L5.31044 3.35513C5.21998 3.38233 5.13575 3.42724 5.06259 3.48727C4.98944 3.54731 4.92878 3.62128 4.88412 3.70495C4.83946 3.78863 4.81167 3.88035 4.80234 3.97485C4.79301 4.06936 4.80233 4.16479 4.82976 4.25566C4.85719 4.34654 4.90219 4.43106 4.96218 4.5044C5.02218 4.57773 5.09598 4.63842 5.17935 4.68299C5.26272 4.72756 5.35402 4.75512 5.44801 4.7641C5.542 4.77308 5.63683 4.7633 5.72706 4.73532L5.7283 4.73783Z" fill="#808085"/>
    <path fill-rule="evenodd" clip-rule="evenodd" d="M0.487672 5.72964L15.7055 35.607C15.7648 35.7237 15.8548 35.8219 15.9657 35.8909C16.0766 35.9598 16.2042 35.9969 16.3345 35.9981C16.4649 35.9992 16.5931 35.9644 16.7052 35.8975C16.8173 35.8305 16.909 35.734 16.9703 35.6183L26.2507 18.1589L26.2644 18.1313L32.2044 5.70956C32.2849 5.53814 32.2949 5.34168 32.2322 5.16289C32.1695 4.98409 32.0392 4.83742 31.8696 4.75476C31.6999 4.67209 31.5047 4.66012 31.3264 4.72143C31.148 4.78275 31.0009 4.9124 30.9171 5.0822L24.9871 17.4939L16.3629 33.7299L1.75874 5.07216C1.71665 4.98707 1.65819 4.91123 1.58675 4.84903C1.51531 4.78683 1.43231 4.73951 1.34256 4.70981C1.25281 4.68011 1.1581 4.66861 1.0639 4.676C0.969701 4.68339 0.877897 4.7095 0.793805 4.75283C0.709713 4.79616 0.635006 4.85585 0.574012 4.92843C0.513017 5.00102 0.466948 5.08505 0.438474 5.17567C0.41 5.2663 0.399687 5.3617 0.408132 5.45636C0.416577 5.55102 0.443613 5.64305 0.487672 5.72713V5.72964Z" fill="#808085"/>
    <path fill-rule="evenodd" clip-rule="evenodd" d="M7.7688 19.0349H24.6918C24.8812 19.0349 25.0628 18.9592 25.1967 18.8245C25.3307 18.6898 25.4059 18.5071 25.4059 18.3166C25.4059 18.126 25.3307 17.9433 25.1967 17.8086C25.0628 17.6739 24.8812 17.5982 24.6918 17.5982H7.7688C7.57941 17.5982 7.39777 17.6739 7.26385 17.8086C7.12992 17.9433 7.05469 18.126 7.05469 18.3166C7.05469 18.5071 7.12992 18.6898 7.26385 18.8245C7.39777 18.9592 7.57941 19.0349 7.7688 19.0349ZM54.9715 12.8366H43.9623C43.7721 12.8376 43.5899 12.914 43.4554 13.0494C43.3208 13.1847 43.2448 13.3679 43.2438 13.5593V22.4477C43.2451 22.639 43.3213 22.8221 43.4557 22.9573C43.5902 23.0926 43.7722 23.1691 43.9623 23.1704H54.9715V24.6761H43.9623C43.6718 24.6774 43.384 24.6209 43.1154 24.5097C42.8468 24.3985 42.6027 24.2348 42.3973 24.0282C42.1919 23.8216 42.0292 23.5761 41.9187 23.3059C41.8081 23.0357 41.7519 22.7462 41.7532 22.454V13.5656C41.7519 13.2734 41.8081 12.9838 41.9187 12.7136C42.0292 12.4434 42.1919 12.1979 42.3973 11.9913C42.6027 11.7847 42.8468 11.6211 43.1154 11.5099C43.384 11.3987 43.6718 11.3421 43.9623 11.3435H54.9715V12.8366ZM75.6441 11.3359V12.8416H65.0415V17.2419H73.5635V18.7601H65.0403V23.1679H75.6429V24.6736H63.5434V11.3359H75.6441Z" fill="#808085"/>
    <path d="M97.4786 13.5776V17.4848C97.4797 17.7769 97.4234 18.0664 97.3128 18.3365C97.2022 18.6066 97.0395 18.8521 96.8341 19.0586C96.6288 19.2652 96.3848 19.4288 96.1162 19.5401C95.8477 19.6514 95.5599 19.708 95.2695 19.7069H93.245L97.405 24.6693H95.4354L91.2929 19.7069H86.4282C86.1876 19.6946 85.9478 19.6699 85.7097 19.6329V24.6693H84.2129V11.3555H95.2583C95.5487 11.3543 95.8365 11.411 96.105 11.5223C96.3736 11.6335 96.6175 11.7972 96.8229 12.0037C97.0283 12.2103 97.1909 12.4557 97.3015 12.7259C97.4122 12.996 97.4685 13.2855 97.4674 13.5776H97.4786ZM86.4332 18.1887H95.2695C95.3617 18.1899 95.4532 18.1725 95.5387 18.1375C95.6241 18.1025 95.7017 18.0507 95.7669 17.9851C95.8321 17.9195 95.8836 17.8415 95.9184 17.7555C95.9531 17.6696 95.9704 17.5775 95.9693 17.4848V13.5776C95.9707 13.4835 95.9536 13.39 95.9189 13.3025C95.8842 13.2151 95.8327 13.1355 95.7672 13.0682C95.7037 12.9993 95.6264 12.9447 95.5404 12.9079C95.4544 12.8712 95.3617 12.8531 95.2683 12.8549H86.4319C86.2417 12.8559 86.0595 12.9323 85.925 13.0676C85.7905 13.203 85.7144 13.3862 85.7135 13.5776V17.4848C85.7115 17.5788 85.7294 17.6721 85.766 17.7586C85.8025 17.8451 85.8569 17.9228 85.9255 17.9867C85.9925 18.0526 86.0719 18.1044 86.1591 18.1391C86.2463 18.1738 86.3395 18.1907 86.4332 18.1887Z" fill="#808085"/>
    <path fill-rule="evenodd" clip-rule="evenodd" d="M105.396 11.3359H118.645V12.8416H112.782V24.6748H111.286V12.8416H105.396V11.3359ZM126.676 24.6686V11.3359H128.172V24.6686H126.676ZM148.067 11.3359H149.981L144.44 18.0023L150 24.6686H148.067L143.133 18.7614H138.862V24.6686H137.355V11.3359H138.865V17.2419H143.136L148.067 11.3359Z" fill="#808085"/>
</svg>
