<svg width="154" height="35" viewBox="0 0 154 35" fill="none" xmlns="http://www.w3.org/2000/svg">
    <path fill-rule="evenodd" clip-rule="evenodd" d="M32.2231 17.581L38.336 23.8777L28.3209 34.1939L25.7445 31.6108L33.2518 23.8777L29.7162 20.2358L21.0168 29.1969V33.9367H17.5466V29.3586L8.57673 20.1189L5.08418 23.7165L12.7057 31.5672L10.1292 34.1504L0 23.7165L6.11314 17.4195L0.000201057 11.1228L10.0153 0.806641L12.5917 3.38981L5.08437 11.1228L8.62003 14.7648L17.5466 5.56968V1.0638H21.0168V5.87607L29.7595 14.8816L33.252 11.284L25.6305 3.43336L28.2069 0.850187L38.3362 11.284L32.2231 17.581ZM27.2526 17.5365L19.2032 25.8279L11.0836 17.4641L19.133 9.17273L27.2526 17.5365Z" fill="#808085"/>
    <path d="M50.0293 8.94855H46.5714V26.5657H50.0293V8.94855Z" fill="#808085"/>
    <path d="M67.569 13.5975C65.9972 13.5975 64.498 14.2826 63.7484 15.7752C62.9747 14.2826 61.5238 13.5975 59.8312 13.5975C58.3078 13.5975 57.1472 14.1847 56.5426 15.2369L56.18 13.8422H53.0365V26.5657H56.4218V19.4454C56.4218 17.5614 57.389 16.656 58.8156 16.656C60.1697 16.656 61.0886 17.5125 61.0886 19.5922V26.5657H64.3529V19.5188C64.4013 17.5369 65.4168 16.656 66.7467 16.656C68.1251 16.656 69.0198 17.5125 69.0198 19.421V26.5901H72.4292V18.7359C72.4292 15.2124 70.0837 13.5975 67.569 13.5975Z" fill="#808085"/>
    <path d="M89.6478 13.5975C88.0757 13.5975 86.5768 14.2826 85.8274 15.7752C85.0533 14.2826 83.6023 13.5975 81.91 13.5975C80.3866 13.5975 79.2259 14.1847 78.6215 15.2369L78.2587 13.8422H75.1153V26.5657H78.5006V19.4454C78.5006 17.5614 79.4677 16.656 80.8944 16.656C82.2485 16.656 83.1674 17.5125 83.1674 19.5922V26.5657H86.4319V19.5188C86.4797 17.5369 87.4959 16.656 88.8259 16.656C90.2037 16.656 91.0988 17.5125 91.0988 19.421V26.5901H94.5083V18.7359C94.5083 15.2124 92.1628 13.5975 89.6478 13.5975Z" fill="#808085"/>
    <path d="M105.44 13.8422V20.8156C105.44 22.6997 104.569 23.8252 102.901 23.8497C101.305 23.8986 100.289 22.9444 100.289 20.9625V13.8422H97.0736V21.4029C97.0736 24.6571 98.9347 26.8104 102.151 26.8104C103.65 26.8104 104.738 26.1252 105.391 25.171L105.561 26.5657H108.656V13.8422H105.44Z" fill="#808085"/>
    <path d="M118.59 13.5975C116.704 13.5975 115.446 14.307 114.793 15.3592L114.6 13.8422H111.456V26.5657H114.842V19.8369C114.842 17.7815 115.809 16.5337 117.598 16.5337C119.243 16.5337 120.234 17.6103 120.234 19.7145V26.5657H123.644V19.005C123.644 15.7507 121.806 13.5975 118.59 13.5975Z" fill="#808085"/>
    <path d="M138.449 20.0082C138.449 16.1177 135.957 13.5975 132.209 13.5975C128.462 13.5975 125.947 16.24 125.947 20.204C125.947 24.1923 128.462 26.8348 132.234 26.8348C135.401 26.8348 137.795 25.0486 138.351 22.406H134.942C134.556 23.5071 133.564 24.0699 132.33 24.0699C130.711 24.0699 129.404 23.0178 129.357 21.1337H138.449V20.0082ZM132.209 16.2645C133.684 16.2645 134.918 17.121 135.063 18.8826H129.381C129.526 17.121 130.759 16.2645 132.209 16.2645Z" fill="#808085"/>
    <path d="M139.77 13.8422V16.8273H141.705V26.5657H145.114V16.8273H147.992V13.8422H145.114V12.5454C145.114 11.64 145.355 10.955 146.734 10.955H147.992V8.16555H145.985C142.816 8.16555 141.705 9.73155 141.705 12.2028V13.8422H139.77Z" fill="#808085"/>
    <path d="M150.227 11.8847H153.661L153.709 8.16555H150.276L150.227 11.8847ZM150.276 26.5657H153.661V13.8422H150.276V26.5657Z" fill="#808085"/>
</svg>
