<svg width="234" height="320" viewBox="0 0 234 320" fill="none" xmlns="http://www.w3.org/2000/svg">
    <path opacity="0.8" d="M201.416 107.04C216.068 93.034 223.394 74.2529 223.394 50.6968C223.394 30.0055 216.58 13.1066 202.951 1.29757e-07L40.6349 0C25.3954 0 12.1152 8.38921 5.16071 20.8014L27.0574 52.6067C35.523 47.1952 45.7794 41.7837 57.8266 36.3721C70.1994 30.6423 84.6887 27.7773 101.294 27.7773C119.202 27.7773 131.901 31.2789 139.39 38.2821C147.204 44.9669 151.111 54.3575 151.111 66.4539C151.111 75.367 148.995 83.3251 144.762 90.3283C140.855 97.0131 133.203 102.425 121.807 106.563C110.737 110.383 94.4567 112.293 72.967 112.293H46.105V167.681H72.4786C94.2939 167.681 111.225 169.432 123.272 172.934C135.645 176.117 144.274 181.051 149.158 187.736C154.042 194.102 156.484 202.06 156.484 211.61C156.484 227.845 151.111 240.419 140.366 249.332C129.947 258.245 111.551 262.701 85.1771 262.701C71.1762 262.701 55.873 260.792 39.2674 256.972C25.7279 253.795 12.6387 249.407 5.07827e-08 243.808L0 304.43C27.4581 314.81 58.4552 320 92.9915 320C125.552 320 152.088 315.543 172.601 306.63C193.439 297.399 208.742 284.984 218.51 269.386C228.604 253.47 233.651 235.644 233.651 215.908C233.651 193.307 226.325 175.321 211.673 161.951C197.346 148.582 176.182 140.305 148.181 137.122V135.69C169.345 130.596 187.09 121.047 201.416 107.04Z" fill="url(#paint0_linear)"/>
    <defs>
        <linearGradient id="paint0_linear" x1="116.825" y1="0" x2="116.825" y2="320" gradientUnits="userSpaceOnUse">
            <stop stop-color="#252934" stop-opacity="0"/>
            <stop offset="0.5" stop-color="#252934"/>
            <stop offset="0.994792" stop-color="#252934" stop-opacity="0"/>
        </linearGradient>
    </defs>
</svg>
