<svg width="92" height="126" viewBox="0 0 92 126" fill="none" xmlns="http://www.w3.org/2000/svg">
    <path d="M0 126H92V102.319H33.0279V101.014L50.4731 84.9779C58.4371 77.768 65.2003 71.1796 70.7625 65.2127C76.4511 59.2459 80.7492 53.2169 83.6567 47.1257C86.6906 41.0345 88.2076 34.3218 88.2076 26.9876C88.2076 20.1506 86.4378 14.0594 82.8982 8.71409C80.8097 5.36722 78.1531 2.46252 74.9286 0L16 5.42277e-08C7.94447 5.42277e-08 1.27937 5.95311 0.164094 13.6999L12.5489 28.1064C17.9847 23.7555 23.1677 20.3992 28.0978 18.0373C33.0279 15.6754 38.0845 14.4945 43.2675 14.4945C48.324 14.4945 52.3061 15.7997 55.2136 18.4102C58.2475 21.0207 59.7645 24.9986 59.7645 30.3439C59.7645 34.6948 58.8164 38.797 56.9202 42.6506C55.024 46.3798 51.99 50.6064 47.8184 55.3301C43.6467 59.9296 38.1477 65.7099 31.3214 72.6713L0 103.815V126Z" fill="black"/>
</svg>

