<svg width="92" height="126" viewBox="0 0 92 126" fill="none" xmlns="http://www.w3.org/2000/svg">
    <path d="M79.3077 42.1471C85.0769 36.6322 87.9615 29.2371 87.9615 19.9619C87.9615 11.8147 85.2784 5.16073 79.912 5.10918e-08L16 0C9.99942 0 4.77037 3.30325 2.03203 8.19055L10.6538 20.7139C13.9872 18.5831 18.0256 16.4523 22.7692 14.3215C27.641 12.0654 33.3462 10.9373 39.8846 10.9373C46.9359 10.9373 51.9359 12.3161 54.8846 15.0736C57.9615 17.7057 59.5 21.4033 59.5 26.1662C59.5 29.6757 58.6667 32.8093 57 35.5668C55.4615 38.1989 52.4487 40.3297 47.9615 41.9591C43.6026 43.4632 37.1923 44.2153 28.7308 44.2153H18.1538V66.0245H28.5385C37.1282 66.0245 43.7949 66.7139 48.5385 68.0926C53.4103 69.346 56.8077 71.2888 58.7308 73.921C60.6538 76.4278 61.6154 79.5613 61.6154 83.3215C61.6154 89.7139 59.5 94.6648 55.2692 98.1744C51.1667 101.684 43.9231 103.439 33.5385 103.439C28.0256 103.439 22 102.687 15.4615 101.183C10.1303 99.9317 4.9765 98.2039 1.99957e-08 95.9994L0 119.869C10.8116 123.956 23.0167 126 36.6154 126C49.4359 126 59.8846 124.245 67.9615 120.736C76.1667 117.101 82.1923 112.213 86.0385 106.071C90.0128 99.8038 92 92.7847 92 85.0136C92 76.1144 89.1154 69.0327 83.3462 63.7684C77.7051 58.5041 69.3718 55.2452 58.3462 53.9918V53.4278C66.6795 51.4223 73.6667 47.6621 79.3077 42.1471Z" fill="black"/>
</svg>
