<svg width="234" height="320" viewBox="0 0 234 320" fill="none" xmlns="http://www.w3.org/2000/svg">
    <path opacity="0.8" d="M0 320H233.651V259.858H83.8805V256.543L128.186 215.817C148.412 197.506 165.588 180.773 179.714 165.62C194.162 150.466 205.077 135.154 212.461 119.684C220.167 104.215 224.019 87.1665 224.019 68.5399C224.019 51.176 219.525 35.7064 210.535 22.131C205.231 13.631 198.484 6.25403 190.295 0L40.6349 1.37721e-07C20.1764 1.37721e-07 3.24919 15.119 0.416747 34.7934L31.8702 71.3812C45.6754 60.3315 58.8385 51.8074 71.3595 45.809C83.8805 39.8106 96.7225 36.8114 109.886 36.8114C122.728 36.8114 132.841 40.1263 140.225 46.7561C147.93 53.386 151.783 63.4885 151.783 77.0639C151.783 88.1137 149.375 98.532 144.559 108.319C139.743 117.79 132.038 128.524 121.443 140.521C110.849 152.202 96.8831 166.882 79.5463 184.562L0 263.658V320Z" fill="url(#paint0_linear)"/>
    <defs>
        <linearGradient id="paint0_linear" x1="116.825" y1="0" x2="116.825" y2="320" gradientUnits="userSpaceOnUse">
            <stop stop-color="#252934" stop-opacity="0"/>
            <stop offset="0.5" stop-color="#252934"/>
            <stop offset="0.994792" stop-color="#252934" stop-opacity="0"/>
        </linearGradient>
    </defs>
</svg>
