<svg width="163" height="82" viewBox="0 0 163 82" fill="none" xmlns="http://www.w3.org/2000/svg">
    <path d="M39.3375 49.7402V54.4535C37.3888 53.2945 35.3233 52.715 33.1018 52.715C31.8936 52.715 30.9193 52.9854 30.2568 53.5263C29.5552 54.0672 29.2045 54.7626 29.2045 55.6125C29.2045 56.4624 29.5942 57.1578 30.3347 57.6987C31.0752 58.2782 32.1664 58.8963 33.6474 59.5531C34.6997 60.0167 35.5181 60.403 36.1807 60.7507C36.8432 61.0984 37.5447 61.6006 38.3242 62.2188C39.0647 62.8369 39.6493 63.5709 40.039 64.4209C40.3898 65.3094 40.5846 66.2753 40.5846 67.3956C40.5846 69.7136 39.7662 71.568 38.0904 72.9202C36.4145 74.311 34.193 75.0064 31.4649 75.0064C28.503 75.0064 26.0477 74.4655 24.099 73.3451V68.3614C26.3205 69.9454 28.7758 70.7567 31.4259 70.7567C32.6341 70.7567 33.5695 70.4476 34.31 69.8681C35.0504 69.3273 35.4012 68.516 35.4012 67.5501C35.4012 67.0865 35.3233 66.6616 35.1284 66.3139C34.9335 65.9662 34.5828 65.5798 34.0371 65.2322C33.4525 64.8845 33.0238 64.614 32.751 64.4595C32.4393 64.305 31.8157 64.0345 30.8803 63.6096C30.6075 63.4937 30.4126 63.3778 30.2957 63.3391C29.3214 62.9142 28.5419 62.4892 27.9573 62.1415C27.3727 61.7938 26.7102 61.3302 26.0087 60.7507C25.3072 60.1712 24.7615 59.4372 24.4498 58.6259C24.099 57.8146 23.9041 56.8488 23.9041 55.8057C23.9041 53.6036 24.7226 51.8264 26.3984 50.4743C28.0353 49.1221 30.2178 48.4654 32.9459 48.4654C35.4012 48.4654 37.5447 48.8903 39.3375 49.7402Z" fill="#808085"/>
    <path d="M48.4576 64.9634C48.4966 66.8178 49.0812 68.3245 50.1725 69.4448C51.2247 70.5652 52.7057 71.1447 54.5374 71.1447C56.1353 71.1447 57.6553 70.7197 59.0193 69.8312V73.849C57.6553 74.6603 55.9405 75.0466 53.8749 75.0466C50.835 75.0466 48.3797 74.0808 46.509 72.1878C44.5993 70.2948 43.6639 67.8609 43.6639 64.9634C43.7029 62.1045 44.6383 59.7093 46.509 57.739C48.3407 55.7687 50.874 54.8028 54.1087 54.8028C56.0184 54.8028 57.6553 55.1505 59.0193 55.8846V59.9797C57.7332 59.1684 56.2523 58.7434 54.5764 58.7434C52.7447 58.7434 51.3027 59.3229 50.1725 60.4433C49.0422 61.5637 48.4966 63.0703 48.4576 64.9634Z" fill="#808085"/>
    <path d="M67.708 55.111V58.5879C68.6044 56.1541 70.2802 54.9564 72.6966 54.9564C73.2422 54.9564 73.6709 54.9951 74.0217 55.0723V59.5538C73.4371 59.2833 72.7745 59.1674 72.034 59.1674C70.7479 59.1674 69.7346 59.6697 68.9162 60.7128C68.0977 61.7559 67.708 63.0308 67.708 64.5761V74.698H62.9923L63.0312 55.111H67.708Z" fill="#808085"/>
    <path d="M89.0294 55.1113H93.7452V74.6983H89.0294V71.4918C87.9771 73.7711 85.9506 74.8915 82.9496 74.8915C80.962 74.8915 79.4031 74.312 78.2729 73.1916C77.1426 72.0713 76.597 70.4487 76.597 68.3625V55.1113H81.2738V67.2808C81.2738 68.517 81.5856 69.4442 82.2091 70.101C82.7937 70.7577 83.6511 71.0668 84.7034 71.0668C86.0675 71.0668 87.1197 70.6032 87.8992 69.7146C88.6397 68.8261 89.0294 67.4353 89.0294 65.6195V55.1113Z" fill="#808085"/>
    <path d="M104.499 58.5889V68.5563C104.499 69.3675 104.733 69.9857 105.161 70.4106C105.59 70.8742 106.214 71.0674 106.993 71.0674C107.967 71.0674 108.903 70.797 109.721 70.2561V74.2353C108.825 74.6603 107.656 74.8921 106.214 74.8921C101.966 74.8921 99.8221 72.7673 99.8221 68.479V58.5889H96.8601V55.1119H99.8221V50.3986H104.499V55.1119H109.409V58.5889H104.499Z" fill="#808085"/>
    <path d="M113.775 74.698V58.6652H118.451V74.698H113.775ZM113.307 53.3338C113.307 52.5612 113.58 51.9044 114.125 51.3635C114.671 50.8227 115.333 50.5522 116.113 50.5522C116.892 50.5522 117.555 50.8227 118.101 51.3635C118.646 51.9044 118.919 52.5612 118.919 53.3338C118.919 54.1451 118.646 54.8019 118.101 55.3427C117.555 55.8836 116.892 56.154 116.113 56.154C115.333 56.154 114.671 55.8836 114.125 55.3427C113.58 54.8019 113.307 54.1451 113.307 53.3338Z" fill="#808085"/>
    <path d="M128.39 55.1117V58.4728C129.52 56.0775 131.546 54.8799 134.469 54.8799C136.457 54.8799 138.016 55.4594 139.146 56.657C140.276 57.8547 140.861 59.5159 140.861 61.6793V74.6987H136.184V62.6452C136.184 61.3703 135.872 60.3658 135.249 59.709C134.625 59.0523 133.768 58.7432 132.716 58.7432C131.507 58.7432 130.455 59.2068 129.637 60.134C128.818 61.0998 128.39 62.452 128.39 64.1905V74.6987H123.713V55.1117H128.39Z" fill="#808085"/>
    <path d="M151.23 74.312L143.436 55.1113H148.619L150.918 61.3699C151.62 63.2243 152.204 64.7696 152.633 66.0445C153.062 67.3194 153.296 68.0921 153.413 68.4398L153.53 68.9806C153.802 68.0921 154.621 65.5423 156.024 61.3699L158.089 55.1113H163L155.868 74.1575C153.88 79.3729 150.879 82 146.826 82C146.086 82 145.423 81.9227 144.878 81.8068V77.9821C145.306 78.0981 145.735 78.1367 146.203 78.1367C148.58 78.1367 150.256 76.8618 151.23 74.312Z" fill="#808085"/>
    <path fill-rule="evenodd" clip-rule="evenodd" d="M3.53486 60.8812C3.45407 61.1499 3.18106 61.3143 2.90338 61.2615C2.62541 61.2085 2.43329 60.9557 2.45886 60.6764C2.70452 58.1866 3.2688 55.6869 4.17606 53.2294C9.95214 37.5837 27.4559 29.5298 43.2396 35.2556C46.4382 36.416 49.3223 38.054 51.8401 40.0581C52.0582 40.2371 52.1035 40.551 51.9443 40.7832C51.7852 41.0153 51.4743 41.0894 51.2261 40.9543C30.2342 29.5413 10.211 39.2631 3.53486 60.8812Z" fill="#808085"/>
    <path fill-rule="evenodd" clip-rule="evenodd" d="M30.2851 14.8724L36.7664 11.5971L35.5208 18.7021L30.2851 14.8724Z" fill="#808085"/>
    <path fill-rule="evenodd" clip-rule="evenodd" d="M22.2142 31.5662C23.0864 31.2632 23.8623 30.7238 24.4491 30.002C24.8244 29.5401 24.751 28.8627 24.2851 28.4905C23.8189 28.1181 23.1357 28.1911 22.7602 28.653C22.4285 29.0611 21.9897 29.3661 21.4967 29.5374C20.932 29.7337 20.634 30.3475 20.8322 30.9076C21.0303 31.4673 21.6495 31.7625 22.2142 31.5662ZM15.4621 29.1417C16.0546 29.6253 16.6166 30.0843 17.1363 30.5085C17.598 30.8857 18.2823 30.8203 18.6626 30.3621C19.0431 29.9043 18.9772 29.2262 18.5151 28.8491C17.9958 28.4247 17.4334 27.966 16.841 27.482C16.3789 27.1049 15.6949 27.1705 15.3145 27.6283C14.9339 28.0864 15.0001 28.7643 15.4621 29.1417ZM27.0555 26.5077C27.4732 25.9467 27.9043 25.3676 28.3432 24.7778C28.6987 24.3003 28.5962 23.6268 28.1145 23.2745C27.6331 22.9223 26.9536 23.0239 26.5982 23.5015C26.1591 24.0908 25.7281 24.67 25.3104 25.2314C24.9551 25.7086 25.0575 26.3824 25.5391 26.7347C26.0206 27.0869 26.7003 26.9854 27.0555 26.5077ZM10.4396 25.041C10.9997 25.4983 11.5602 25.9559 12.1137 26.4077C12.5756 26.7851 13.2597 26.7193 13.6402 26.2614C14.0208 25.8034 13.9548 25.1256 13.4928 24.7482C12.9391 24.2962 12.3788 23.8388 11.8186 23.3814C11.3565 23.0043 10.6725 23.0698 10.292 23.5276C9.91143 23.9857 9.97769 24.6636 10.4396 25.041ZM5.41734 20.9401C5.95262 21.3771 6.51349 21.8352 7.09123 22.3071C7.55331 22.6842 8.23729 22.6186 8.61776 22.1608C8.99837 21.7027 8.9321 21.0248 8.4704 20.6475C7.89252 20.1759 7.33141 19.7178 6.79613 19.2807C6.33418 18.9033 5.6502 18.9689 5.2696 19.427C4.88913 19.8848 4.95526 20.563 5.41734 20.9401ZM30.9189 21.3177C31.3525 20.7351 31.7835 20.1563 32.2066 19.5878C32.4839 19.2153 32.4825 18.7232 32.2397 18.3578C32.1714 18.2548 32.0839 18.1618 31.9779 18.0845C31.4965 17.7323 30.8168 17.8338 30.4613 18.3113C30.0382 18.8798 29.6075 19.4588 29.1738 20.0414C28.8185 20.5186 28.9209 21.1924 29.4023 21.5446C29.884 21.8969 30.5634 21.7953 30.9189 21.3177ZM0.394905 16.8394C0.394905 16.8394 1.02755 17.3561 2.0688 18.2064C2.53088 18.5835 3.21486 18.5179 3.59533 18.0601C3.97593 17.6021 3.90981 16.9239 3.44796 16.5469C2.40647 15.6964 1.7737 15.18 1.7737 15.18C1.31175 14.8027 0.62777 14.8682 0.247165 15.3263C-0.133308 15.7841 -0.0671775 16.4623 0.394905 16.8394Z" fill="#808085"/>
    <path fill-rule="evenodd" clip-rule="evenodd" d="M51.8525 3.27502L58.3337 0L57.0882 7.10469L51.8525 3.27502Z" fill="#808085"/>
    <path fill-rule="evenodd" clip-rule="evenodd" d="M36.1025 30.2906C36.9747 29.9875 37.7507 29.448 38.3375 28.7262C38.7129 28.2645 38.6395 27.587 38.1733 27.2148C37.7072 26.8423 37.0241 26.9155 36.6486 27.3772C36.3169 27.7854 35.878 28.0903 35.385 28.2617C34.8204 28.4582 34.5225 29.0718 34.7207 29.6318C34.9186 30.1918 35.5379 30.4868 36.1025 30.2906ZM29.3503 27.8659C29.9431 28.3497 30.5049 28.8087 31.0248 29.2329C31.4865 29.6101 32.1706 29.5447 32.551 29.0863C32.9315 28.6286 32.8655 27.9505 32.4035 27.5734C31.8842 27.1491 31.3218 26.6902 30.7293 26.2064C30.2673 25.8293 29.5832 25.8949 29.2028 26.3527C28.8223 26.8107 28.8886 27.4885 29.3503 27.8659ZM40.9438 25.2321C41.3571 24.6773 41.7876 24.0987 42.2316 23.5022C42.587 23.0249 42.4845 22.3512 42.003 21.9988C41.5216 21.6468 40.8419 21.7481 40.4865 22.2257C40.0422 22.8223 39.6117 23.4005 39.1987 23.9556C38.8436 24.4328 38.9458 25.1069 39.4276 25.4589C39.909 25.8113 40.5887 25.7096 40.9438 25.2321ZM24.9197 24.2484L24.3279 23.7653C23.8662 23.3878 23.7999 22.7101 24.1804 22.252C24.5609 21.7943 25.2449 21.7286 25.7069 22.1058L26.3172 22.6041C26.1615 22.7088 25.9983 22.857 25.8348 23.0637C25.5087 23.4762 25.187 23.8955 24.9197 24.2484ZM19.3056 19.6643C19.8411 20.1016 20.4019 20.5597 20.9797 21.0313C21.4418 21.4085 22.1258 21.3431 22.5063 20.8851C22.8867 20.427 22.8204 19.7493 22.3587 19.3718C21.781 18.9004 21.2198 18.4421 20.6846 18.0051C20.2225 17.6277 19.5385 17.6934 19.158 18.1514C18.7775 18.6091 18.8435 19.2872 19.3056 19.6643ZM44.8073 20.0421C45.2319 19.4719 45.6617 18.8942 46.095 18.3122C46.4502 17.835 46.3479 17.1613 45.8662 16.8089C45.3847 16.4565 44.7051 16.5582 44.3496 17.0357C43.9166 17.6174 43.4865 18.1954 43.0619 18.7656C42.7068 19.2429 42.8093 19.9166 43.2907 20.269C43.7722 20.6213 44.4519 20.5197 44.8073 20.0421ZM14.2832 15.5637C14.2832 15.5637 14.9159 16.0803 15.957 16.9307C16.4194 17.3078 17.1031 17.2421 17.4836 16.7844C17.8643 16.3264 17.7981 15.6483 17.3363 15.2712C16.2949 14.4208 15.6622 13.9045 15.6622 13.9045C15.2001 13.527 14.5161 13.5927 14.1356 14.0508C13.7551 14.5085 13.8211 15.1866 14.2832 15.5637ZM48.6708 14.8522C49.1022 14.2727 49.5324 13.6947 49.9585 13.1223C50.3139 12.6447 50.2114 11.971 49.7296 11.619C49.2482 11.2666 48.5686 11.3682 48.2131 11.8458C47.787 12.4182 47.3571 12.9959 46.9254 13.5757C46.5699 14.0532 46.6725 14.7267 47.1539 15.079C47.6357 15.4311 48.3153 15.3297 48.6708 14.8522ZM52.5339 9.66222C52.9747 9.06969 53.4052 8.49203 53.8216 7.93203C54.1771 7.45478 54.0749 6.78105 53.5931 6.42869C53.1114 6.07664 52.432 6.17829 52.0765 6.65585C51.6601 7.21523 51.2296 7.79351 50.7888 8.38573C50.4334 8.86298 50.5356 9.53671 51.0174 9.88907C51.4991 10.2411 52.1785 10.1395 52.5339 9.66222Z" fill="#808085"/>
    <path d="M77.7941 45.528H76.7531L72.7668 31.66C72.4367 30.5274 72.1828 29.5961 72.0305 28.8662C71.9035 29.5709 71.7004 30.4015 71.4719 31.3328C71.218 32.2388 69.8977 36.9706 67.4602 45.528H66.3938L61.4173 27.5574H62.7376L65.9114 39.1351C66.0384 39.6133 66.1653 40.0412 66.2669 40.4439C66.3684 40.8214 66.47 41.1989 66.5462 41.5513C66.6477 41.9037 66.7239 42.2309 66.8001 42.5581C66.8508 42.8853 66.927 43.2125 66.9778 43.5397C67.1809 42.4322 67.6126 40.7207 68.2473 38.4555L71.3449 27.5574H72.7414L76.3722 40.0664C76.8038 41.501 77.1085 42.6839 77.2863 43.5648C77.3878 42.9608 77.5402 42.3567 77.6925 41.6772C77.8702 41.0228 79.1397 36.3162 81.5264 27.5574H82.796L77.7941 45.528Z" fill="#808085"/>
    <path d="M93.3635 45.5272L93.0588 43.413H92.9573C92.2717 44.2688 91.5862 44.8728 90.8753 45.2504C90.1643 45.6027 89.3011 45.7789 88.3362 45.7789C87.0159 45.7789 85.9749 45.4265 85.2386 44.7721C84.5023 44.0926 84.1468 43.1613 84.1468 41.9784C84.1468 40.6696 84.68 39.6629 85.7972 38.933C86.889 38.2282 88.4632 37.8256 90.5452 37.8004L93.1096 37.7249V36.844C93.1096 35.5604 92.8557 34.6039 92.3225 33.9747C91.8147 33.3203 90.9768 32.9931 89.8089 32.9931C88.5647 32.9931 87.2698 33.3455 85.9242 34.0251L85.4671 32.968C86.9398 32.2884 88.4124 31.936 89.8596 31.936C91.3323 31.936 92.4495 32.3136 93.1858 33.0686C93.8967 33.8489 94.2776 35.0318 94.2776 36.6426V45.5272H93.3635ZM88.4124 44.6715C89.8343 44.6715 90.9768 44.2688 91.8147 43.4382C92.6526 42.6328 93.0588 41.5002 93.0588 40.0404V38.7316L90.6975 38.8323C88.8186 38.9078 87.4476 39.2098 86.6605 39.7132C85.848 40.1914 85.4417 40.9717 85.4417 42.0287C85.4417 42.8593 85.6956 43.5137 86.2288 43.9667C86.7366 44.445 87.473 44.6715 88.4124 44.6715Z" fill="#808085"/>
    <path fill-rule="evenodd" clip-rule="evenodd" d="M98.6405 26.3989H99.8592V45.5272H98.6405V26.3989Z" fill="#808085"/>
    <path fill-rule="evenodd" clip-rule="evenodd" d="M104.379 26.3989H105.597V45.5272H104.379V26.3989Z" fill="#808085"/>
    <path d="M115.551 45.78C113.596 45.78 112.072 45.176 110.981 43.9679C109.889 42.7849 109.33 41.0986 109.33 38.9593C109.33 36.8199 109.863 35.1084 110.93 33.8248C111.971 32.5412 113.393 31.912 115.195 31.912C116.795 31.912 118.039 32.4657 118.953 33.548C119.867 34.6554 120.324 36.1404 120.324 38.028V39.0096H110.625C110.65 40.8469 111.082 42.2564 111.92 43.2128C112.758 44.1944 113.977 44.6726 115.551 44.6726C116.313 44.6726 116.998 44.6223 117.582 44.4964C118.166 44.3957 118.902 44.1692 119.791 43.8169V44.9243C119.029 45.2515 118.344 45.478 117.684 45.6038C117.049 45.7045 116.338 45.78 115.551 45.78ZM115.195 32.9943C113.9 32.9943 112.859 33.4221 112.072 34.2527C111.285 35.1084 110.828 36.3417 110.701 37.9273H119.029C119.029 36.392 118.699 35.1839 118.014 34.303C117.328 33.4221 116.389 32.9943 115.195 32.9943Z" fill="#808085"/>
    <path d="M127.61 44.6967C128.397 44.6967 129.057 44.6211 129.641 44.4953V45.4769C129.057 45.6782 128.372 45.7789 127.585 45.7789C126.391 45.7789 125.528 45.4517 124.944 44.8225C124.385 44.1933 124.106 43.2117 124.106 41.8526V33.2197H122.1V32.5149L124.106 31.9612L124.715 28.941H125.35V32.1626H129.311V33.2197H125.35V41.6764C125.35 42.7083 125.528 43.4634 125.909 43.9416C126.264 44.445 126.823 44.6967 127.61 44.6967Z" fill="#808085"/>
</svg>
