<svg width="25" height="25" viewBox="0 0 25 25" fill="none" xmlns="http://www.w3.org/2000/svg">
    <path d="M13.3423 13.0385C13.6083 13.1975 13.7903 13.3995 13.9003 13.6415C14.0013 13.8795 14.0233 14.1485 13.9693 14.4555C13.8993 14.8195 13.7413 15.1005 13.4933 15.3285C13.2413 15.5475 12.9653 15.6725 12.6593 15.6985C12.3543 15.7275 11.9833 15.6985 11.5413 15.6225L10.7863 15.4765C10.5343 15.4335 10.3843 15.3855 10.3303 15.3505C10.2793 15.3145 10.2473 15.2595 10.2353 15.1845C10.2293 15.1335 10.2523 14.9365 10.3023 14.6245L10.7213 12.3875L12.0633 12.6355C12.6523 12.7455 13.0753 12.8765 13.3423 13.0385ZM13.9653 8.9185C14.2113 9.0575 14.3813 9.2285 14.4813 9.4425C14.5833 9.6605 14.6083 9.9045 14.5553 10.1765C14.5063 10.4425 14.3863 10.6615 14.2113 10.8315C14.0283 11.0045 13.7893 11.1145 13.4873 11.1545C13.1833 11.2025 12.7323 11.1725 12.1413 11.0635L11.0033 10.8495L11.4763 8.3275L12.6103 8.5395C13.2773 8.6625 13.7273 8.7915 13.9653 8.9185ZM12.0273 0.0625001C18.6543 0.0615001 24.0293 5.4325 24.0293 12.0635C24.0293 18.6905 18.6543 24.0625 12.0273 24.0625C5.40132 24.0625 0.0283203 18.6905 0.0283203 12.0635C0.0283203 5.4315 5.40232 0.0625001 12.0273 0.0625001ZM17.1343 10.2645C17.2253 9.7965 17.1713 9.3365 16.9663 8.8905C16.7603 8.4455 16.4193 8.0735 15.9493 7.7615C15.7693 7.6385 15.5393 7.5355 15.2893 7.4365L15.6303 5.6145L13.8783 5.2875L13.5593 6.9895L12.4333 6.7775L12.7533 5.0775L10.9993 4.7465L10.6763 6.4565L8.00132 5.9525L7.73432 7.3835L8.14432 7.4665C8.41532 7.5085 8.59932 7.5725 8.68332 7.6435C8.77132 7.7065 8.82632 7.7845 8.85032 7.8775C8.87332 7.9715 8.85932 8.1735 8.79932 8.4765L7.71932 14.2495C7.66532 14.5495 7.61132 14.7425 7.55232 14.8205C7.49732 14.8955 7.41732 14.9515 7.31132 14.9785C7.20432 15.0135 7.01832 15.0025 6.74632 14.9445L6.33432 14.8725L6.06832 16.3035L8.73932 16.8045L8.42332 18.5115L10.1763 18.8395L10.4933 17.1365L11.4933 17.3215C11.5373 17.3295 11.5783 17.3295 11.6223 17.3455L11.3033 19.0525L13.0563 19.3755L13.4053 17.5295C13.7053 17.5255 13.9793 17.4985 14.2173 17.4555C14.8683 17.3295 15.4033 17.0645 15.8213 16.6545C16.2363 16.2635 16.4983 15.7875 16.6013 15.2385C16.6863 14.7745 16.6543 14.3405 16.5083 13.9265C16.3583 13.5085 16.1163 13.1655 15.7853 12.8895C15.5573 12.6915 15.2093 12.4835 14.7513 12.2735C15.2293 12.2045 15.6293 12.0745 15.9483 11.8945C16.2693 11.7145 16.5313 11.4765 16.7333 11.2015C16.9373 10.9155 17.0723 10.6035 17.1343 10.2645Z" fill="#8A8A8F"/>
</svg>
