<svg width="24" height="24" viewBox="0 0 24 24" fill="none" xmlns="http://www.w3.org/2000/svg">
    <path fill-rule="evenodd" clip-rule="evenodd" d="M2.40039 6.29961V17.9996C2.40039 19.3251 3.47491 20.3996 4.80039 20.3996H19.2004C20.5259 20.3996 21.6004 19.3251 21.6004 17.9996V9.59961C21.6004 8.27413 20.5259 7.19961 19.2004 7.19961H18.0004V5.99961C18.0004 4.67413 16.9259 3.59961 15.6004 3.59961H5.10039C3.60922 3.59961 2.40039 4.80844 2.40039 6.29961ZM16.2004 7.19961V5.99961C16.2004 5.66824 15.9318 5.39961 15.6004 5.39961H5.10039C4.60333 5.39961 4.20039 5.80255 4.20039 6.29961C4.20039 6.79667 4.60333 7.19961 5.10039 7.19961H16.2004ZM19.8004 10.7996V9.59961C19.8004 9.26824 19.5318 8.99961 19.2004 8.99961H4.20039V17.9996C4.20039 18.331 4.46902 18.5996 4.80039 18.5996H19.2004C19.5318 18.5996 19.8004 18.331 19.8004 17.9996V16.7996H18.6004C16.9435 16.7996 15.6004 15.4565 15.6004 13.7996C15.6004 12.1428 16.9435 10.7996 18.6004 10.7996H19.8004ZM19.8004 14.9996V12.5996H18.6004C17.9376 12.5996 17.4004 13.1369 17.4004 13.7996C17.4004 14.4624 17.9376 14.9996 18.6004 14.9996H19.8004Z" fill="#808085"/>
</svg>
