<svg width="24" height="24" viewBox="0 0 24 24" fill="none" xmlns="http://www.w3.org/2000/svg">
    <path fill-rule="evenodd" clip-rule="evenodd" d="M10.8004 2.40039C6.1612 2.40039 2.40039 6.1612 2.40039 10.8004C2.40039 15.4396 6.1612 19.2004 10.8004 19.2004C12.7958 19.2004 14.6287 18.5046 16.0697 17.3425L20.064 21.3368C20.4155 21.6883 20.9853 21.6883 21.3368 21.3368C21.6883 20.9853 21.6883 20.4155 21.3368 20.064L17.3425 16.0697C18.5046 14.6287 19.2004 12.7958 19.2004 10.8004C19.2004 6.1612 15.4396 2.40039 10.8004 2.40039ZM4.20039 10.8004C4.20039 7.15531 7.15531 4.20039 10.8004 4.20039C14.4455 4.20039 17.4004 7.15531 17.4004 10.8004C17.4004 14.4455 14.4455 17.4004 10.8004 17.4004C7.15531 17.4004 4.20039 14.4455 4.20039 10.8004Z" fill="#808085"/>
</svg>
