<svg width="20" height="20" viewBox="0 0 20 20" fill="none" xmlns="http://www.w3.org/2000/svg">
    <path fill-rule="evenodd" clip-rule="evenodd" d="M13.2813 1.11983C13.4413 0.960057 13.6797 0.960057 13.8398 1.11983C14 1.27871 14 1.5145 13.8398 1.67332L12.8007 2.70377C13.1355 2.92542 13.4392 3.19665 13.703 3.50687C14.335 4.24962 14.7382 5.21648 14.7935 6.26399C14.7938 6.26877 14.7942 6.27352 14.7946 6.27828C14.795 6.28437 14.7955 6.29045 14.7958 6.29658C14.799 6.3679 14.8008 6.43961 14.8008 6.51157H5.19917C5.19917 6.43961 5.20077 6.3679 5.20416 6.29658C5.20441 6.29113 5.20481 6.28571 5.20521 6.28029C5.20561 6.27486 5.20601 6.26944 5.20627 6.26399C5.2617 5.21648 5.6648 4.24968 6.29678 3.50681C6.56076 3.19659 6.86432 2.92536 7.19907 2.70371L6.16015 1.67325C5.99994 1.5145 5.99994 1.27871 6.16015 1.11983C6.32024 0.960057 6.55846 0.960057 6.71868 1.11983L7.84231 2.23042C8.47909 1.91418 9.1931 1.75625 9.98817 1.75472L9.99994 1.7546L10.0117 1.75472C10.8068 1.75625 11.5208 1.91418 12.1577 2.23042L12.2072 2.18135L13.2813 1.11983ZM7.39861 4.53016C7.39861 4.85871 7.66719 5.12506 7.9985 5.12506C8.3298 5.12506 8.59839 4.85871 8.59839 4.53016C8.59839 4.20162 8.3298 3.93527 7.9985 3.93527C7.66719 3.93527 7.39861 4.20162 7.39861 4.53016ZM11.4015 4.53016C11.4015 4.85871 11.6701 5.12506 12.0014 5.12506C12.3327 5.12506 12.6013 4.85871 12.6013 4.53016C12.6013 4.20162 12.3327 3.93527 12.0014 3.93527C11.6701 3.93527 11.4015 4.20162 11.4015 4.53016Z" fill="#808085"/>
    <path d="M3.19914 15.2392C3.83981 15.2392 4.3984 14.6852 4.3984 14.0499V8.49501C4.3984 7.86309 3.83988 7.30624 3.19914 7.30624C2.55852 7.30624 2 7.86309 2 8.49501V14.0499C2 14.6852 2.55852 15.2392 3.19914 15.2392Z" fill="#808085"/>
    <path d="M13.1992 18.8107C13.1992 19.4459 12.6406 19.9999 12 19.9999C11.3594 19.9999 10.8007 19.4459 10.8008 18.8107V16.0333H9.19917V18.8107C9.19917 19.446 8.64058 20 8.00003 20C7.35929 20 6.80077 19.446 6.80077 18.8107V16.0333H5.99994C5.51948 16.0333 5.19917 15.7156 5.19917 15.2392V7.30624H14.8008V15.2391C14.8008 15.7155 14.4805 16.0332 14 16.0332H13.1992V18.8107Z" fill="#808085"/>
    <path d="M18 14.0499C18 14.6852 17.4415 15.2392 16.8009 15.2392C16.1601 15.2392 15.6016 14.6852 15.6016 14.0499V8.49501C15.6016 7.86309 16.1602 7.30624 16.8009 7.30624C17.4415 7.30624 18 7.86309 18 8.49501V14.0499Z" fill="#808085"/>
</svg>
