<svg width="36" height="36" viewBox="0 0 36 36" fill="none" xmlns="http://www.w3.org/2000/svg">
    <path fill-rule="evenodd" clip-rule="evenodd" d="M11.3423 3.90002C10.654 3.90002 10.0541 4.36847 9.88711 5.03622L7.92116 12.9H28.0788L26.1129 5.03622C25.9459 4.36847 25.346 3.90002 24.6577 3.90002H22.5C21.6716 3.90002 21 3.22845 21 2.40002C21 1.5716 21.6716 0.900024 22.5 0.900024H24.6577C26.7226 0.900024 28.5225 2.30536 29.0233 4.30861L31.1712 12.9H34.5C35.3284 12.9 36 13.5716 36 14.4C36 15.2285 35.3284 15.9 34.5 15.9H30.0314C30.0096 15.9005 29.988 15.9005 29.9664 15.9H6.03364C6.01203 15.9005 5.99035 15.9005 5.96862 15.9H1.5C0.671573 15.9 0 15.2285 0 14.4C0 13.5716 0.671573 12.9 1.5 12.9H4.82884L6.97669 4.30861C7.4775 2.30536 9.27742 0.900024 11.3423 0.900024H12C13.4164 0.900024 14.7502 1.5669 15.6 2.70002L19.2 7.50003C19.6971 8.16277 19.5627 9.10297 18.9 9.60003C18.2373 10.0971 17.2971 9.96277 16.8 9.30002L13.2 4.50002C12.9167 4.12232 12.4721 3.90002 12 3.90002H11.3423ZM9 23.1C6.51472 23.1 4.5 25.1147 4.5 27.6C4.5 30.0853 6.51472 32.1 9 32.1C11.4853 32.1 13.5 30.0853 13.5 27.6C13.5 25.1147 11.4853 23.1 9 23.1ZM1.5 27.6C1.5 23.4579 4.85786 20.1 9 20.1C10.9133 20.1 12.6593 20.8165 13.9843 21.9957C14.0852 21.903 14.2005 21.8227 14.3292 21.7584L15.9875 20.9292C17.2544 20.2958 18.7456 20.2958 20.0125 20.9292L21.6708 21.7584C21.7995 21.8227 21.9148 21.903 22.0157 21.9957C23.3407 20.8165 25.0867 20.1 27 20.1C31.1421 20.1 34.5 23.4579 34.5 27.6C34.5 31.7422 31.1421 35.1 27 35.1C22.8579 35.1 19.5 31.7422 19.5 27.6C19.5 26.4504 19.7586 25.3613 20.2209 24.3875L18.6708 23.6125C18.2485 23.4013 17.7515 23.4013 17.3292 23.6125L15.7791 24.3875C16.2414 25.3613 16.5 26.4504 16.5 27.6C16.5 31.7422 13.1421 35.1 9 35.1C4.85786 35.1 1.5 31.7422 1.5 27.6ZM27 23.1C24.5147 23.1 22.5 25.1147 22.5 27.6C22.5 30.0853 24.5147 32.1 27 32.1C29.4853 32.1 31.5 30.0853 31.5 27.6C31.5 25.1147 29.4853 23.1 27 23.1Z" fill="#FFA800"/>
</svg>
