<svg width="40" height="40" viewBox="0 0 40 40" fill="none" xmlns="http://www.w3.org/2000/svg">
    <path fill-rule="evenodd" clip-rule="evenodd" d="M12.6026 3.33333C11.8378 3.33333 11.1712 3.85383 10.9857 4.59577L8.80129 13.3333H31.1987L29.0143 4.59577C28.8288 3.85383 28.1622 3.33333 27.3974 3.33333H25C24.0795 3.33333 23.3333 2.58714 23.3333 1.66667C23.3333 0.746192 24.0795 0 25 0H27.3974C29.6917 0 31.6917 1.56149 32.2481 3.78732L34.6346 13.3333H38.3333C39.2538 13.3333 40 14.0795 40 15C40 15.9205 39.2538 16.6667 38.3333 16.6667H33.3682C33.344 16.6672 33.32 16.6672 33.296 16.6667H6.70405C6.68004 16.6672 6.65595 16.6672 6.6318 16.6667H1.66667C0.746192 16.6667 0 15.9205 0 15C0 14.0795 0.746192 13.3333 1.66667 13.3333H5.36537L7.75187 3.78732C8.30833 1.56149 10.3083 0 12.6026 0H13.3333C14.9071 0 16.3891 0.74097 17.3333 2L21.3333 7.33333C21.8856 8.06971 21.7364 9.11438 21 9.66667C20.2636 10.219 19.219 10.0697 18.6667 9.33333L14.6667 4C14.3519 3.58032 13.8579 3.33333 13.3333 3.33333H12.6026ZM10 25C7.23858 25 5 27.2386 5 30C5 32.7614 7.23858 35 10 35C12.7614 35 15 32.7614 15 30C15 27.2386 12.7614 25 10 25ZM1.66667 30C1.66667 25.3976 5.39763 21.6667 10 21.6667C12.1259 21.6667 14.0659 22.4627 15.5381 23.773C15.6502 23.67 15.7784 23.5808 15.9213 23.5093L17.7639 22.588C19.1716 21.8842 20.8284 21.8842 22.2361 22.588L24.0787 23.5093C24.2216 23.5808 24.3498 23.67 24.4619 23.773C25.9341 22.4627 27.8741 21.6667 30 21.6667C34.6024 21.6667 38.3333 25.3976 38.3333 30C38.3333 34.6024 34.6024 38.3333 30 38.3333C25.3976 38.3333 21.6667 34.6024 21.6667 30C21.6667 28.7227 21.954 27.5125 22.4677 26.4306L20.7454 25.5694C20.2761 25.3348 19.7239 25.3348 19.2546 25.5694L17.5323 26.4306C18.046 27.5125 18.3333 28.7227 18.3333 30C18.3333 34.6024 14.6024 38.3333 10 38.3333C5.39763 38.3333 1.66667 34.6024 1.66667 30ZM30 25C27.2386 25 25 27.2386 25 30C25 32.7614 27.2386 35 30 35C32.7614 35 35 32.7614 35 30C35 27.2386 32.7614 25 30 25Z" fill="#FFA800"/>
</svg>
