<svg width="20" height="13" viewBox="0 0 20 13" fill="none" xmlns="http://www.w3.org/2000/svg">
    <path d="M14.7072 0.792893C14.3166 0.402369 13.6835 0.402369 13.2929 0.792893C12.9024 1.18342 12.9024 1.81658 13.2929 2.20711L16.5858 5.50001L1 5.49999C0.447716 5.49999 0 5.94771 0 6.49999C0 7.05228 0.447714 7.49999 0.999999 7.49999L16.5858 7.50001L13.2929 10.7929C12.9023 11.1834 12.9023 11.8166 13.2928 12.2071C13.6834 12.5976 14.3165 12.5976 14.7071 12.2071L19.7072 7.20711C19.8947 7.01958 20.0001 6.76522 20.0001 6.5C20.0001 6.23479 19.8947 5.98043 19.7072 5.79289L14.7072 0.792893Z" fill="#05C46B"/>
</svg>
