<svg width="20" height="21" viewBox="0 0 20 21" fill="none" xmlns="http://www.w3.org/2000/svg">
    <path d="M10.5289 18.2803C10.3882 18.421 10.1975 18.5 9.99854 18.5C9.79963 18.5 9.60886 18.421 9.46821 18.2803L4.87201 13.6841C4.57912 13.3912 4.57912 12.9164 4.87201 12.6235C5.16491 12.3306 5.63978 12.3306 5.93267 12.6235L9.24857 15.9394L9.24859 3.24999C9.24859 2.83578 9.58437 2.49999 9.99859 2.5C10.4128 2.5 10.7486 2.83578 10.7486 3.25L10.7486 15.9393L14.0644 12.6235C14.3573 12.3306 14.8322 12.3306 15.1251 12.6235C15.418 12.9164 15.418 13.3912 15.1251 13.6841L10.5289 18.2803Z" fill="#FFA800"/>
</svg>
