<svg width="24" height="24" viewBox="0 0 24 24" fill="none" xmlns="http://www.w3.org/2000/svg">
    <path fill-rule="evenodd" clip-rule="evenodd" d="M12 1.96069L16.3641 4.48031V9.51954L12 12.0392L7.6359 9.51954V4.48031L12 1.96069ZM12 4.03915L9.4359 5.51954V8.48031L12 9.96069L14.5641 8.48031V5.51954L12 4.03915Z" fill="#FFA800"/>
    <path fill-rule="evenodd" clip-rule="evenodd" d="M18 11.9607L22.3641 14.4803V19.5196L18 22.0392L13.6359 19.5196V14.4803L18 11.9607ZM15.4359 15.5196V18.4803L18 19.9607L20.5641 18.4803V15.5196L18 14.0392L15.4359 15.5196Z" fill="#FFA800"/>
    <path fill-rule="evenodd" clip-rule="evenodd" d="M10.3641 14.4803L6 11.9607L1.63589 14.4803V19.5196L6 22.0392L10.3641 19.5196V14.4803ZM3.43589 18.4803V15.5196L6 14.0392L8.5641 15.5196V18.4803L6 19.9607L3.43589 18.4803Z" fill="#FFA800"/>
</svg>
