<svg width="20" height="20" viewBox="0 0 20 20" fill="none" xmlns="http://www.w3.org/2000/svg">
    <path fill-rule="evenodd" clip-rule="evenodd" d="M10 1.63403L13.6368 3.73371V7.93307L10 10.0328L6.36328 7.93307V3.73371L10 1.63403ZM10 3.36608L7.86328 4.59974V7.06705L10 8.3007L12.1368 7.06705V4.59974L10 3.36608Z" fill="#FFA800"/>
    <path fill-rule="evenodd" clip-rule="evenodd" d="M15 9.96738L18.6368 12.0671V16.2664L15 18.3661L11.3633 16.2664V12.0671L15 9.96738ZM12.8633 12.9331V15.4004L15 16.634L17.1368 15.4004V12.9331L15 11.6994L12.8633 12.9331Z" fill="#FFA800"/>
    <path fill-rule="evenodd" clip-rule="evenodd" d="M8.63678 12.0671L5.00003 9.96738L1.36328 12.0671V16.2664L5.00003 18.3661L8.63678 16.2664V12.0671ZM2.86328 15.4004V12.9331L5.00003 11.6994L7.13678 12.9331V15.4004L5.00003 16.634L2.86328 15.4004Z" fill="#FFA800"/>
</svg>
