<svg width="20" height="20" viewBox="0 0 20 20" fill="none" xmlns="http://www.w3.org/2000/svg">
    <path fill-rule="evenodd" clip-rule="evenodd" d="M10 20C15.5228 20 20 15.5228 20 10C20 4.47715 15.5228 0 10 0C4.47715 0 0 4.47715 0 10C0 15.5228 4.47715 20 10 20ZM6.57476 5.22127L10 3.125L13.4252 5.22127L12.1691 6.01135L10 4.68934L7.83089 6.01135L6.57476 5.22127ZM8.74388 6.55931L10 5.76923L11.2561 6.55931L10 7.3494L8.74388 6.55931ZM7.83701 7.10727L10 8.45169L12.163 7.10727L13.4559 7.89736V9.43929L11.2132 10.7837V13.4725L10 14.2394L8.78677 13.4725V10.7837L6.54412 9.43929V7.89736L7.83701 7.10727ZM8.74388 14.543L10 15.3331L11.2561 14.543V16.0849L10 16.875L8.74388 16.0849V14.543ZM4.375 9.20992L5.63113 10V12.6442L7.79412 13.9886V15.5306L4.375 13.4343V9.20992ZM6.54412 10.548L7.80025 11.338V12.88L6.54412 12.0899V10.548ZM5.63113 5.76923L6.92402 6.55931L5.63113 7.3494V8.89133L4.375 8.10125V6.55931L5.63113 5.76923ZM14.3689 10L15.625 9.20992V13.4343L12.2059 15.5306V13.9886L14.3689 12.6442V10ZM12.1998 11.338L13.4559 10.548V12.0899L12.1998 12.88V11.338ZM13.076 6.55931L14.3689 5.76923L15.625 6.55931V8.10125L14.3689 8.89133V7.3494L13.076 6.55931Z" fill="#F0B90B"/>
</svg>
