<svg width="24" height="24" viewBox="0 0 24 24" fill="none" xmlns="http://www.w3.org/2000/svg">
    <path fill-rule="evenodd" clip-rule="evenodd" d="M12 24C18.6274 24 24 18.6274 24 12C24 5.37258 18.6274 0 12 0C5.37258 0 0 5.37258 0 12C0 18.6274 5.37258 24 12 24ZM7.88971 6.26552L12 3.75L16.1103 6.26552L14.6029 7.21362L12 5.62721L9.39706 7.21362L7.88971 6.26552ZM10.4927 7.87118L12 6.92308L13.5073 7.87118L12 8.81928L10.4927 7.87118ZM9.40442 8.52873L12 10.142L14.5956 8.52873L16.1471 9.47683V11.3272L13.4559 12.9405V16.1671L12 17.0873L10.5441 16.1671V12.9405L7.85294 11.3272V9.47683L9.40442 8.52873ZM10.4927 17.4516L12 18.3997L13.5073 17.4516V19.3019L12 20.25L10.4927 19.3019V17.4516ZM5.25 11.0519L6.75735 12V15.1731L9.35294 16.7864V18.6367L5.25 16.1212V11.0519ZM7.85294 12.6576L9.3603 13.6057V15.456L7.85294 14.5079V12.6576ZM6.75735 6.92308L8.30883 7.87118L6.75735 8.81928V10.6696L5.25 9.7215V7.87118L6.75735 6.92308ZM17.2426 12L18.75 11.0519V16.1212L14.6471 18.6367V16.7864L17.2426 15.1731V12ZM14.6397 13.6057L16.1471 12.6576V14.5079L14.6397 15.456V13.6057ZM15.6912 7.87118L17.2426 6.92308L18.75 7.87118V9.7215L17.2426 10.6696V8.81928L15.6912 7.87118Z" fill="#F0B90B"/>
</svg>
