<svg width="28" height="27" viewBox="0 0 28 27" fill="none" xmlns="http://www.w3.org/2000/svg">
    <path fill-rule="evenodd" clip-rule="evenodd" d="M23.762 9.76339C24.1108 9.92896 24.3332 10.2806 24.3332 10.6668V22.6668C24.3332 23.2191 23.8855 23.6668 23.3332 23.6668H4.66655C4.11427 23.6668 3.66655 23.2191 3.66655 22.6668V17.3335C3.66655 17.0245 3.80938 16.7329 4.05348 16.5435L9.30352 12.4694C9.66429 12.1894 10.1689 12.1894 10.5297 12.4694L15.1508 16.0555L22.7008 9.89216C23 9.64794 23.4131 9.59782 23.762 9.76339ZM22.3332 12.774L15.799 18.1081C15.4381 18.4028 14.9216 18.4091 14.5535 18.1235L9.91658 14.5252L5.66655 17.8233V21.6668H22.3332V12.774Z" fill="#FFA800"/>
    <path fill-rule="evenodd" clip-rule="evenodd" d="M24.1079 3.36777C24.4571 3.79561 24.3934 4.42556 23.9656 4.77481L15.799 11.4415C15.4381 11.7361 14.9216 11.7425 14.5535 11.4568L9.91658 7.85852L5.27962 11.4568C4.8433 11.7954 4.21511 11.7162 3.87652 11.2799C3.53793 10.8436 3.61716 10.2154 4.05348 9.87679L9.30352 5.80272C9.66429 5.52275 10.1689 5.52276 10.5297 5.80272L15.1508 9.3888L22.7008 3.22549C23.1287 2.87624 23.7586 2.93994 24.1079 3.36777Z" fill="#FFA800"/>
</svg>
