<svg width="24" height="24" viewBox="0 0 24 24" fill="none" xmlns="http://www.w3.org/2000/svg">
    <path fill-rule="evenodd" clip-rule="evenodd" d="M11.1514 7.7999C11.6201 7.33127 12.3799 7.33127 12.8485 7.7999L16.2426 11.194C16.7112 11.6626 16.7112 12.4224 16.2426 12.8911L12.8485 16.2852C12.3799 16.7538 11.6201 16.7538 11.1514 16.2852L7.75732 12.8911C7.28869 12.4224 7.28869 11.6626 7.75732 11.194L11.1514 7.7999ZM9.45438 12.0425L12 9.49696L14.5455 12.0425L12 14.5881L9.45438 12.0425Z" fill="#FFA800"/>
    <path fill-rule="evenodd" clip-rule="evenodd" d="M11.9999 21.5999C17.3018 21.5999 21.5999 17.3018 21.5999 11.9999C21.5999 6.69797 17.3018 2.3999 11.9999 2.3999C6.69797 2.3999 2.3999 6.69797 2.3999 11.9999C2.3999 17.3018 6.69797 21.5999 11.9999 21.5999ZM19.7999 11.9999C19.7999 16.3077 16.3077 19.7999 11.9999 19.7999C7.69208 19.7999 4.1999 16.3077 4.1999 11.9999C4.1999 7.69208 7.69208 4.1999 11.9999 4.1999C16.3077 4.1999 19.7999 7.69208 19.7999 11.9999Z" fill="#FFA800"/>
</svg>
