<svg width="25" height="24" viewBox="0 0 25 24" fill="none" xmlns="http://www.w3.org/2000/svg">
    <path d="M7.96282 8.73561C7.61135 8.38414 7.61135 7.81429 7.96282 7.46282C8.31429 7.11135 8.88414 7.11135 9.23561 7.46282L12.4992 10.7264L15.7628 7.46282C16.1143 7.11135 16.6841 7.11135 17.0356 7.46282C17.3871 7.81429 17.3871 8.38414 17.0356 8.73561L13.772 11.9992L17.0356 15.2628C17.3871 15.6143 17.3871 16.1841 17.0356 16.5356C16.6841 16.8871 16.1143 16.8871 15.7628 16.5356L12.4992 13.272L9.23561 16.5356C8.88414 16.8871 8.31429 16.8871 7.96282 16.5356C7.61135 16.1841 7.61135 15.6143 7.96282 15.2628L11.2264 11.9992L7.96282 8.73561Z" fill="#808085"/>
</svg>
