<svg width="36" height="35" viewBox="0 0 36 35" fill="none" xmlns="http://www.w3.org/2000/svg">
    <path fill-rule="evenodd" clip-rule="evenodd" d="M18 12C14.6863 12 12 9.31371 12 6C12 2.68629 14.6863 0 18 0C21.3137 0 24 2.68629 24 6C24 6.15146 23.9944 6.30161 23.9834 6.45025C24.6759 6.73525 25.3552 7.07553 26.0155 7.47226C29.3077 9.45042 31.5691 12.4956 32.6201 15.8971C32.8647 16.6886 32.4213 17.5285 31.6298 17.773C30.8383 18.0176 29.9984 17.5742 29.7538 16.7827C28.9123 14.0592 27.1056 11.6272 24.4704 10.0438C23.995 9.75814 23.5084 9.50953 23.0138 9.29693C21.9409 10.9253 20.0959 12 18 12ZM15 6C15 7.65685 16.3431 9 18 9C19.6569 9 21 7.65685 21 6C21 4.34315 19.6569 3 18 3C16.3431 3 15 4.34315 15 6Z" fill="#FFA800"/>
    <path fill-rule="evenodd" clip-rule="evenodd" d="M6.09277 21.0007C6.03157 20.5096 6 20.0088 6 19.5C6 16.4257 7.15417 13.6244 9.05522 11.5004C9.60771 10.8831 9.55518 9.93482 8.93789 9.38234C8.3206 8.82985 7.37231 8.88238 6.81982 9.49967C4.44551 12.1525 3 15.6592 3 19.5C3 20.2509 3.05529 20.9896 3.16219 21.7122C1.27972 22.7246 0 24.7128 0 27C0 30.3137 2.68629 33 6 33C9.31371 33 12 30.3137 12 27C12 23.7173 9.3637 21.0503 6.09277 21.0007ZM6 30C4.34315 30 3 28.6569 3 27C3 25.3431 4.34315 24 6 24C7.65685 24 9 25.3431 9 27C9 28.6569 7.65685 30 6 30Z" fill="#FFA800"/>
    <path fill-rule="evenodd" clip-rule="evenodd" d="M24.5348 29.4797C24.1477 29.7375 23.7413 29.9758 23.316 30.1925C20.5767 31.5882 17.5569 31.8316 14.8013 31.102C14.0004 30.89 13.1794 31.3673 12.9673 32.1681C12.7553 32.969 13.2326 33.79 14.0335 34.0021C17.475 34.9133 21.2558 34.6092 24.678 32.8655C25.2918 32.5527 25.8753 32.2032 26.4272 31.8207C27.4253 32.5617 28.6615 33 30 33C33.3137 33 36 30.3137 36 27C36 23.6863 33.3137 21 30 21C26.6863 21 24 23.6863 24 27C24 27.8843 24.1913 28.7239 24.5348 29.4797ZM30 30C28.3431 30 27 28.6569 27 27C27 25.3431 28.3431 24 30 24C31.6569 24 33 25.3431 33 27C33 28.6569 31.6569 30 30 30Z" fill="#FFA800"/>
</svg>
