<svg width="40" height="40" viewBox="0 0 40 40" fill="none" xmlns="http://www.w3.org/2000/svg">
    <path fill-rule="evenodd" clip-rule="evenodd" d="M20 13.3333C16.3181 13.3333 13.3333 10.3486 13.3333 6.66667C13.3333 2.98477 16.3181 0 20 0C23.6819 0 26.6667 2.98477 26.6667 6.66667C26.6667 6.83496 26.6604 7.00179 26.6482 7.16695C27.4177 7.48361 28.1725 7.86169 28.9061 8.30251C32.5641 10.5005 35.0768 13.884 36.2446 17.6634C36.5163 18.5428 36.0237 19.4761 35.1442 19.7478C34.2648 20.0196 33.3316 19.5269 33.0598 18.6475C32.1248 15.6214 30.1174 12.9191 27.1893 11.1597C26.6611 10.8424 26.1205 10.5661 25.5709 10.3299C24.3787 12.1392 22.3288 13.3333 20 13.3333ZM16.6667 6.66667C16.6667 8.50762 18.159 10 20 10C21.8409 10 23.3333 8.50762 23.3333 6.66667C23.3333 4.82572 21.8409 3.33333 20 3.33333C18.159 3.33333 16.6667 4.82572 16.6667 6.66667Z" fill="#FFA800"/>
    <path fill-rule="evenodd" clip-rule="evenodd" d="M6.76974 23.3341C6.70175 22.7884 6.66667 22.232 6.66667 21.6667C6.66667 18.2507 7.94908 15.1383 10.0614 12.7782C10.6752 12.0924 10.6169 11.0387 9.93099 10.4248C9.24511 9.81094 8.19145 9.86931 7.57757 10.5552C4.93946 13.5027 3.33333 17.3991 3.33333 21.6667C3.33333 22.501 3.39476 23.3218 3.51354 24.1247C1.42191 25.2495 0 27.4587 0 30C0 33.6819 2.98477 36.6667 6.66667 36.6667C10.3486 36.6667 13.3333 33.6819 13.3333 30C13.3333 26.3525 10.4041 23.3892 6.76974 23.3341ZM6.66667 33.3333C4.82572 33.3333 3.33333 31.8409 3.33333 30C3.33333 28.159 4.82572 26.6667 6.66667 26.6667C8.50762 26.6667 10 28.159 10 30C10 31.8409 8.50762 33.3333 6.66667 33.3333Z" fill="#FFA800"/>
    <path fill-rule="evenodd" clip-rule="evenodd" d="M27.2609 32.7552C26.8308 33.0417 26.3792 33.3064 25.9067 33.5472C22.8631 35.098 19.5076 35.3684 16.4459 34.5578C15.556 34.3222 14.6437 34.8525 14.4081 35.7424C14.1725 36.6322 14.7029 37.5445 15.5927 37.7801C19.4167 38.7925 23.6176 38.4546 27.42 36.5172C28.102 36.1697 28.7504 35.7813 29.3635 35.3564C30.4725 36.1796 31.8461 36.6667 33.3333 36.6667C37.0152 36.6667 40 33.6819 40 30C40 26.3181 37.0152 23.3333 33.3333 23.3333C29.6514 23.3333 26.6667 26.3181 26.6667 30C26.6667 30.9826 26.8792 31.9155 27.2609 32.7552ZM33.3333 33.3333C31.4924 33.3333 30 31.8409 30 30C30 28.159 31.4924 26.6667 33.3333 26.6667C35.1743 26.6667 36.6667 28.159 36.6667 30C36.6667 31.8409 35.1743 33.3333 33.3333 33.3333Z" fill="#FFA800"/>
</svg>
