<svg width="120" height="120" viewBox="0 0 120 120" fill="none" xmlns="http://www.w3.org/2000/svg">
    <path fill-rule="evenodd" clip-rule="evenodd" d="M92.4097 38.5812C93.1932 39.3598 93.1973 40.6261 92.4188 41.4097L53.6688 80.4097C53.2933 80.7875 52.7827 81 52.25 81C51.7173 81 51.2067 80.7875 50.8312 80.4097L27.5812 57.0096C26.8027 56.2261 26.8068 54.9598 27.5903 54.1812C28.3739 53.4027 29.6402 53.4068 30.4188 54.1903L52.25 76.1624L89.5812 38.5903C90.3598 37.8068 91.6261 37.8027 92.4097 38.5812Z" fill="#05C46B"/>
    <path fill-rule="evenodd" clip-rule="evenodd" d="M60 116C90.9279 116 116 90.9279 116 60C116 29.0721 90.9279 4 60 4C29.0721 4 4 29.0721 4 60C4 90.9279 29.0721 116 60 116ZM60 120C93.1371 120 120 93.1371 120 60C120 26.8629 93.1371 0 60 0C26.8629 0 0 26.8629 0 60C0 93.1371 26.8629 120 60 120Z" fill="#05C46B"/>
</svg>
