<svg width="36" height="36" viewBox="0 0 36 36" fill="none" xmlns="http://www.w3.org/2000/svg">
    <g clip-path="url(#clip0)">
        <path d="M1.5 21.0007C0.671573 21.0007 0 21.6723 0 22.5007V30.0007C0 30.8292 0.671573 31.5007 1.5 31.5007C2.32843 31.5007 3 30.8292 3 30.0007V25.9691L7.41599 30.1197C9.20422 31.9036 11.4139 33.207 13.8403 33.9091C16.2744 34.6133 18.8473 34.6893 21.3187 34.13C23.7901 33.5707 26.0796 32.3942 27.9734 30.7105C29.8673 29.0267 31.3039 26.8906 32.1491 24.5014C32.4254 23.7204 32.0163 22.8633 31.2353 22.587C30.4543 22.3107 29.5972 22.7198 29.3209 23.5008C28.6446 25.4124 27.4953 27.1214 25.9802 28.4684C24.465 29.8154 22.6335 30.7565 20.6565 31.204C18.6794 31.6514 16.6213 31.5906 14.6741 31.0273C12.7269 30.4639 10.9541 29.4163 9.52107 27.9822L9.48731 27.9494L5.28614 24.0007H9C9.82843 24.0007 10.5 23.3292 10.5 22.5007C10.5 21.6723 9.82843 21.0007 9 21.0007H1.5Z"
              fill="#FFA800"/>
        <path d="M34.5 15C35.3284 15 36 14.3284 36 13.5V6C36 5.17157 35.3284 4.5 34.5 4.5C33.6716 4.5 33 5.17157 33 6V10.0316L28.584 5.88102C26.7958 4.09717 24.5861 2.79369 22.1597 2.09167C19.7256 1.38741 17.1527 1.3114 14.6813 1.87075C12.2099 2.43008 9.92043 3.60653 8.02655 5.29027C6.13268 6.97401 4.69612 9.11015 3.85088 11.4994C3.57459 12.2804 3.98373 13.1375 4.76472 13.4138C5.54572 13.69 6.40282 13.2809 6.67911 12.4999C7.35538 10.5884 8.50471 8.87934 10.0198 7.53233C11.535 6.18531 13.3665 5.24419 15.3435 4.79674C17.3206 4.3493 19.3787 4.4101 21.3259 4.97347C23.2731 5.53685 25.0459 6.58445 26.4789 8.01856L26.5127 8.0513L30.7139 12H27C26.1716 12 25.5 12.6716 25.5 13.5C25.5 14.3284 26.1716 15 27 15H34.5Z"
              fill="#FFA800"/>
    </g>
    <defs>
        <clipPath id="clip0">
            <rect width="36" height="36" fill="white"/>
        </clipPath>
    </defs>
</svg>
