<svg width="18" height="18" viewBox="0 0 18 18" fill="none" xmlns="http://www.w3.org/2000/svg">
    <path d="M17.6485 1.0253C17.857 0.736007 17.6871 0.481439 17.6408 0.427438C17.6408 0.427438 17.6331 0.435152 17.6331 0.439009C17.6331 0.435152 17.6369 0.427435 17.6408 0.423577C17.5558 0.323291 17.4362 0.253857 17.2624 0.25C17.1157 0.253857 16.9767 0.319437 16.8879 0.439009L15.247 2.56045C15.1659 2.67231 15.1157 2.75331 15.0887 2.81117H2.91901C2.89198 2.75331 2.84179 2.67231 2.76071 2.56045L1.1198 0.439009C1.031 0.319437 0.892007 0.253857 0.745291 0.25C0.571549 0.253857 0.451855 0.323291 0.366914 0.423577V0.427438L0.363049 0.431288C0.363049 0.431288 0.359193 0.439001 0.355332 0.442859C0.351471 0.446716 0.351475 0.450584 0.347614 0.454441C0.2897 0.531585 0.15842 0.763015 0.351467 1.03302L1.95377 3.10432C1.74528 3.28175 1.61786 3.52474 1.61786 3.79474V6.07819C1.61786 6.62205 2.13522 7.05792 2.77614 7.05792H15.1312C15.7721 7.05792 16.2895 6.62205 16.2895 6.07819V3.79474C16.2895 3.54788 16.1775 3.32418 16.0038 3.15446H16.0076L17.6485 1.0253ZM5.23943 6.47548C4.52129 6.47548 3.93443 5.89305 3.93443 5.17176C3.93443 4.45046 4.51743 3.86803 5.23943 3.86803C5.96143 3.86803 6.54443 4.45046 6.54443 5.17176C6.54443 5.89305 5.96143 6.47548 5.23943 6.47548ZM12.7683 6.47548C12.0501 6.47548 11.4633 5.89305 11.4633 5.17176C11.4633 4.45046 12.0463 3.86803 12.7683 3.86803C13.4903 3.86803 14.0733 4.45046 14.0733 5.17176C14.0733 5.89305 13.4903 6.47548 12.7683 6.47548Z" fill="#808085"/>
    <path d="M8.89962 10.3249C7.78766 10.3249 6.84559 11.0887 6.57147 12.1185H7.81083C8.02318 11.7367 8.42858 11.4821 8.89962 11.4821C9.59845 11.4821 10.1544 12.0375 10.1544 12.7357C10.1544 13.4338 9.59845 13.9893 8.89962 13.9893C8.39383 13.9893 7.96913 13.7 7.76836 13.2757H6.55217C6.79927 14.3441 7.76064 15.1464 8.89962 15.1464C10.2239 15.1464 11.3127 14.0587 11.3127 12.7357C11.3127 11.4127 10.2239 10.3249 8.89962 10.3249Z" fill="#808085"/>
    <path d="M15.0771 7.72135H2.7221C2.08118 7.72135 1.56382 8.23821 1.56382 8.8785V16.5928C1.56382 17.2331 2.08118 17.75 2.7221 17.75H15.0771C15.7181 17.75 16.2354 17.2331 16.2354 16.5928V8.8785C16.2354 8.23821 15.7181 7.72135 15.0771 7.72135ZM12.5868 12.7357C12.5868 14.7684 10.9343 16.4193 8.89962 16.4193C6.8649 16.4193 5.21242 14.7684 5.21242 12.7357C5.21242 10.7029 6.86104 9.05207 8.89962 9.05207C10.9343 9.05207 12.5868 10.6991 12.5868 12.7357Z" fill="#808085"/>
</svg>
