<svg width="24" height="24" viewBox="0 0 24 24" fill="none" xmlns="http://www.w3.org/2000/svg">
    <path fill-rule="evenodd" clip-rule="evenodd" d="M21.6 11.9999C21.6 17.3018 17.302 21.5999 12 21.5999C6.69809 21.5999 2.40002 17.3018 2.40002 11.9999C2.40002 6.69797 6.69809 2.3999 12 2.3999C17.302 2.3999 21.6 6.69797 21.6 11.9999ZM14.3924 19.4262C17.2549 18.5047 19.3955 15.9742 19.7487 12.8999H16.4732C16.3274 15.3331 15.5912 17.54 14.3924 19.4262ZM9.60765 19.4262C6.74514 18.5047 4.60459 15.9742 4.25139 12.8999H7.52682C7.67268 15.3331 8.40886 17.54 9.60765 19.4262ZM9.3305 12.8999C9.50987 15.5255 10.4727 17.8215 12 19.6579C13.5273 17.8215 14.4902 15.5255 14.6695 12.8999H9.3305ZM14.6695 11.0999H9.3305C9.50986 8.47433 10.4727 6.17831 12 4.34189C13.5273 6.17831 14.4902 8.47433 14.6695 11.0999ZM16.4732 11.0999H19.7487C19.3955 8.02566 17.2549 5.49511 14.3924 4.57365C15.5912 6.4598 16.3274 8.66671 16.4732 11.0999ZM9.60762 4.57365C8.40884 6.4598 7.67267 8.66671 7.52682 11.0999H4.25139C4.60459 8.02566 6.74513 5.49511 9.60762 4.57365Z" fill="#FFA800"/>
</svg>
