<svg width="40" height="40" viewBox="0 0 40 40" fill="none" xmlns="http://www.w3.org/2000/svg">
    <path fill-rule="evenodd" clip-rule="evenodd" d="M16.4247 3.71773C8.9381 5.35412 3.33333 12.0225 3.33333 20C3.33333 27.9775 8.93809 34.6459 16.4247 36.2823C13.5587 31.8159 11.9851 26.7697 11.7039 21.6667H7.6481C6.72762 21.6667 5.98143 20.9205 5.98143 20C5.98143 19.0795 6.72762 18.3333 7.6481 18.3333H11.7039C11.9851 13.2303 13.5587 8.18412 16.4247 3.71773ZM20 4.38311C16.9998 8.57285 15.3474 13.4197 15.043 18.3333H24.957C24.6526 13.4197 23.0002 8.57285 20 4.38311ZM28.2961 21.6667H31.8673C32.7878 21.6667 33.534 20.9205 33.534 20C33.534 19.0795 32.7878 18.3333 31.8673 18.3333H28.2961C28.0149 13.2303 26.4413 8.18412 23.5753 3.71773C31.0619 5.35412 36.6667 12.0225 36.6667 20C36.6667 27.9775 31.0619 34.6459 23.5753 36.2823C26.4413 31.8159 28.0149 26.7697 28.2961 21.6667ZM24.957 21.6667H15.043C15.3474 26.5803 16.9998 31.4272 20 35.6169C23.0002 31.4272 24.6526 26.5803 24.957 21.6667ZM0 20C0 8.95431 8.95431 0 20 0C31.0457 0 40 8.95431 40 20C40 31.0457 31.0457 40 20 40C8.95431 40 0 31.0457 0 20Z" fill="#FFA800"/>
</svg>
