<svg width="36" height="36" viewBox="0 0 36 36" fill="none" xmlns="http://www.w3.org/2000/svg">
    <path fill-rule="evenodd" clip-rule="evenodd" d="M7.5 1.5C7.5 0.671573 8.17157 0 9 0H16.5C17.3284 0 18 0.671573 18 1.5V9C18 9.82843 17.3284 10.5 16.5 10.5C15.6716 10.5 15 9.82843 15 9V5.12132L2.56066 17.5607C1.97487 18.1464 1.02513 18.1464 0.43934 17.5607C-0.146447 16.9749 -0.146447 16.0251 0.43934 15.4393L12.8787 3H9C8.17157 3 7.5 2.32843 7.5 1.5ZM21 7.5C21 6.67157 21.6716 6 22.5 6H34.5C35.3284 6 36 6.67157 36 7.5V28.5C36 29.3284 35.3284 30 34.5 30C33.6716 30 33 29.3284 33 28.5V9H24V28.5C24 29.3284 23.3284 30 22.5 30C21.6716 30 21 29.3284 21 28.5V18H12V28.5C12 29.3284 11.3284 30 10.5 30C9.67157 30 9 29.3284 9 28.5V24H3V28.5C3 29.3284 2.32843 30 1.5 30C0.671573 30 2.23517e-08 29.3284 2.23517e-08 28.5V22.5C2.23517e-08 21.6716 0.671573 21 1.5 21H9V16.5C9 15.6716 9.67157 15 10.5 15H21V7.5ZM2.23517e-08 34.5C2.23517e-08 33.6716 0.671573 33 1.5 33H34.5C35.3284 33 36 33.6716 36 34.5C36 35.3284 35.3284 36 34.5 36H1.5C0.671573 36 2.23517e-08 35.3284 2.23517e-08 34.5Z" fill="#FFA800"/>
</svg>
