<svg width="40" height="40" viewBox="0 0 40 40" fill="none" xmlns="http://www.w3.org/2000/svg">
    <path fill-rule="evenodd" clip-rule="evenodd" d="M8.33333 1.66667C8.33333 0.746192 9.07952 0 10 0H18.3333C19.2538 0 20 0.746192 20 1.66667V10C20 10.9205 19.2538 11.6667 18.3333 11.6667C17.4129 11.6667 16.6667 10.9205 16.6667 10V5.69036L2.84518 19.5118C2.1943 20.1627 1.13903 20.1627 0.488155 19.5118C-0.162718 18.861 -0.162718 17.8057 0.488155 17.1548L14.3096 3.33333H10C9.07952 3.33333 8.33333 2.58714 8.33333 1.66667ZM23.3333 8.33333C23.3333 7.41286 24.0795 6.66667 25 6.66667H38.3333C39.2538 6.66667 40 7.41286 40 8.33333V31.6667C40 32.5871 39.2538 33.3333 38.3333 33.3333C37.4129 33.3333 36.6667 32.5871 36.6667 31.6667V10H26.6667V31.6667C26.6667 32.5871 25.9205 33.3333 25 33.3333C24.0795 33.3333 23.3333 32.5871 23.3333 31.6667V20H13.3333V31.6667C13.3333 32.5871 12.5871 33.3333 11.6667 33.3333C10.7462 33.3333 10 32.5871 10 31.6667V26.6667H3.33333V31.6667C3.33333 32.5871 2.58714 33.3333 1.66667 33.3333C0.746192 33.3333 2.48353e-08 32.5871 2.48353e-08 31.6667V25C2.48353e-08 24.0795 0.746192 23.3333 1.66667 23.3333H10V18.3333C10 17.4129 10.7462 16.6667 11.6667 16.6667H23.3333V8.33333ZM2.48353e-08 38.3333C2.48353e-08 37.4129 0.746192 36.6667 1.66667 36.6667H38.3333C39.2538 36.6667 40 37.4129 40 38.3333C40 39.2538 39.2538 40 38.3333 40H1.66667C0.746192 40 2.48353e-08 39.2538 2.48353e-08 38.3333Z" fill="#FFA800"/>
</svg>
