<svg width="40" height="40" viewBox="0 0 40 40" fill="none" xmlns="http://www.w3.org/2000/svg">
    <path fill-rule="evenodd" clip-rule="evenodd" d="M7.5707 0.184727C8.12582 -0.100947 8.79404 -0.0524239 9.30206 0.31045L20 7.95183L30.6979 0.31045C31.206 -0.0524239 31.8742 -0.100947 32.4293 0.184727C32.9844 0.470401 33.3333 1.04236 33.3333 1.66667V23.3333C33.3333 23.8716 33.0734 24.3767 32.6354 24.6896L22.9062 31.639C21.1677 32.8808 18.8323 32.8808 17.0938 31.639L7.3646 24.6896C6.92661 24.3767 6.66667 23.8716 6.66667 23.3333V1.66667C6.66667 1.04236 7.01558 0.470401 7.5707 0.184727ZM18.3333 10.8577L10 4.90532V22.4756L19.0313 28.9266C19.6108 29.3405 20.3892 29.3405 20.9687 28.9266L30 22.4756V4.90532L21.6667 10.8577V23.3333C21.6667 24.2538 20.9205 25 20 25C19.0795 25 18.3333 24.2538 18.3333 23.3333V10.8577ZM1.66667 8.33334C2.58714 8.33334 3.33333 9.07953 3.33333 10V31.6667C3.33333 32.5871 4.07953 33.3333 5 33.3333H13.3333C13.6624 33.3333 13.9841 33.4307 14.2578 33.6133L17.8711 36.0221C18.5015 36.4424 19.2423 36.6667 20 36.6667C20.7577 36.6667 21.4985 36.4424 22.1289 36.0221L25.7422 33.6133C26.0159 33.4307 26.3376 33.3333 26.6667 33.3333H35C35.9205 33.3333 36.6667 32.5871 36.6667 31.6667V10C36.6667 9.07953 37.4129 8.33334 38.3333 8.33334C39.2538 8.33334 40 9.07953 40 10V31.6667C40 34.4281 37.7614 36.6667 35 36.6667H27.1713L23.9779 38.7956C22.7999 39.5809 21.4158 40 20 40C18.5842 40 17.2001 39.5809 16.0221 38.7956L12.8287 36.6667H5C2.23858 36.6667 0 34.4281 0 31.6667V10C0 9.07953 0.746192 8.33334 1.66667 8.33334Z" fill="#FFA800"/>
</svg>
