<svg width="36" height="36" viewBox="0 0 36 36" fill="none" xmlns="http://www.w3.org/2000/svg">
    <path fill-rule="evenodd" clip-rule="evenodd" d="M6.81363 0.166254C7.31323 -0.0908525 7.91464 -0.0471815 8.37186 0.279405L18 7.15665L27.6281 0.279405C28.0854 -0.0471815 28.6868 -0.0908525 29.1864 0.166254C29.686 0.423361 30 0.938124 30 1.50001V21C30 21.4844 29.7661 21.939 29.3719 22.2206L20.6156 28.4751C19.0509 29.5927 16.9491 29.5927 15.3844 28.4751L6.62814 22.2206C6.23395 21.939 6 21.4844 6 21V1.50001C6 0.938124 6.31402 0.423361 6.81363 0.166254ZM16.5 9.77193L9 4.41479V20.2281L17.1281 26.0339C17.6497 26.4064 18.3503 26.4064 18.8719 26.0339L27 20.2281V4.41479L19.5 9.77193V21C19.5 21.8284 18.8284 22.5 18 22.5C17.1716 22.5 16.5 21.8284 16.5 21V9.77193ZM1.5 7.50001C2.32843 7.50001 3 8.17158 3 9.00001V28.5C3 29.3284 3.67157 30 4.5 30H12C12.2961 30 12.5856 30.0877 12.8321 30.2519L16.084 32.4199C16.6514 32.7982 17.3181 33 18 33C18.6819 33 19.3486 32.7982 19.916 32.4199L23.1679 30.2519C23.4144 30.0877 23.7039 30 24 30H31.5C32.3284 30 33 29.3284 33 28.5V9.00001C33 8.17158 33.6716 7.50001 34.5 7.50001C35.3284 7.50001 36 8.17158 36 9.00001V28.5C36 30.9853 33.9853 33 31.5 33H24.4542L21.5801 34.916C20.5199 35.6228 19.2742 36 18 36C16.7258 36 15.4801 35.6228 14.4199 34.916L11.5458 33H4.5C2.01472 33 0 30.9853 0 28.5V9.00001C0 8.17158 0.671573 7.50001 1.5 7.50001Z" fill="#FFA800"/>
</svg>
