<svg width="27" height="28" viewBox="0 0 27 28" fill="none" xmlns="http://www.w3.org/2000/svg">
    <path d="M8.39988 5.9189C8.43698 5.77051 8.57031 5.66641 8.72327 5.66641H9.68223C9.78715 5.66641 9.88595 5.71581 9.9489 5.79975L12.2156 8.82197C12.5469 9.2638 13.1737 9.35334 13.6156 9.02197C14.0574 8.6906 14.1469 8.0638 13.8156 7.62197L11.5489 4.59975C11.1082 4.0122 10.4167 3.66641 9.68223 3.66641H8.72327C7.65257 3.66641 6.71928 4.39511 6.4596 5.43383L4.93431 11.535C4.92335 11.5788 4.91547 11.6227 4.91053 11.6664H3.33301C2.78072 11.6664 2.33301 12.1141 2.33301 12.6664C2.33301 13.2187 2.78072 13.6664 3.33301 13.6664H23.333C23.8853 13.6664 24.333 13.2187 24.333 12.6664C24.333 12.1141 23.8853 11.6664 23.333 11.6664H21.6603C21.6553 11.6227 21.6475 11.5788 21.6365 11.535L20.1112 5.43383C19.8515 4.39511 18.9182 3.66641 17.8475 3.66641H16.2219C15.6696 3.66641 15.2219 4.11413 15.2219 4.66641C15.2219 5.2187 15.6696 5.66641 16.2219 5.66641H17.8475C18.0005 5.66641 18.1338 5.77051 18.1709 5.9189L19.6078 11.6664H6.96301L8.39988 5.9189Z" fill="#FFA800"/>
    <path fill-rule="evenodd" clip-rule="evenodd" d="M7.55523 15.6664C5.03927 15.6664 2.99967 17.706 2.99967 20.222C2.99967 22.7379 5.03927 24.7775 7.55523 24.7775C10.0125 24.7775 12.0154 22.832 12.1075 20.3972L13.1839 19.859C13.2778 19.8121 13.3882 19.8121 13.4821 19.859L14.5586 20.3972C14.6507 22.832 16.6535 24.7775 19.1108 24.7775C21.6268 24.7775 23.6664 22.7379 23.6664 20.222C23.6664 17.706 21.6268 15.6664 19.1108 15.6664C17.2589 15.6664 15.665 16.7715 14.9527 18.3582L14.3765 18.0701C13.7196 17.7417 12.9464 17.7417 12.2895 18.0701L11.7133 18.3582C11.001 16.7715 9.40718 15.6664 7.55523 15.6664ZM4.99967 20.222C4.99967 18.8106 6.14384 17.6664 7.55523 17.6664C8.96662 17.6664 10.1108 18.8106 10.1108 20.222C10.1108 21.6334 8.96662 22.7775 7.55523 22.7775C6.14384 22.7775 4.99967 21.6334 4.99967 20.222ZM19.1108 17.6664C17.6994 17.6664 16.5553 18.8106 16.5553 20.222C16.5553 21.6334 17.6994 22.7775 19.1108 22.7775C20.5222 22.7775 21.6664 21.6334 21.6664 20.222C21.6664 18.8106 20.5222 17.6664 19.1108 17.6664Z" fill="#FFA800"/>
</svg>
