<svg width="48" height="48" viewBox="0 0 48 48" fill="none" xmlns="http://www.w3.org/2000/svg">
<g id="icon / 48 / lock">
<g id="Union">
<path d="M24 28C25.1046 28 26 28.8954 26 30V34C26 35.1046 25.1046 36 24 36C22.8954 36 22 35.1046 22 34V30C22 28.8954 22.8954 28 24 28Z" fill="#808085"/>
<path fill-rule="evenodd" clip-rule="evenodd" d="M36 16C36 9.37258 30.6274 4 24 4C17.3726 4 12 9.37258 12 16L12 20C8.68629 20 6 22.6863 6 26V38C6 41.3137 8.68629 44 12 44H36C39.3137 44 42 41.3137 42 38V26C42 22.6863 39.3137 20 36 20V16ZM32 20V16C32 11.5817 28.4183 8 24 8C19.5817 8 16 11.5817 16 16V20H32ZM12 24C10.8954 24 10 24.8954 10 26V38C10 39.1046 10.8954 40 12 40H36C37.1046 40 38 39.1046 38 38V26C38 24.8954 37.1046 24 36 24H12Z" fill="#808085"/>
</g>
</g>
</svg>
