<svg width="20" height="18" viewBox="0 0 20 18" fill="none" xmlns="http://www.w3.org/2000/svg">
    <path d="M17.7971 8.48704C18.0676 8.77554 18.0676 9.22446 17.7972 9.51296L14.0472 13.513C13.7639 13.8152 13.2892 13.8305 12.9871 13.5472C12.6849 13.264 12.6695 12.7893 12.9528 12.4871L15.5189 9.75H6.75C6.33579 9.75 6 9.41421 6 9C6 8.58579 6.33579 8.25 6.75 8.25L15.5188 8.25L12.9529 5.51305C12.6696 5.21087 12.6849 4.73624 12.987 4.45294C13.2892 4.16964 13.7638 4.18495 14.0471 4.48713L17.7971 8.48704Z" fill="#FFA800"/>
    <path d="M7.25 15.5C7.66421 15.5 8 15.8358 8 16.25C8 16.6642 7.66421 17 7.25 17H4.75C3.23122 17 2 15.7688 2 14.25L2 3.75C2 2.23122 3.23122 1 4.75 1L7.25 1C7.66421 1 8 1.33579 8 1.75C8 2.16421 7.66421 2.5 7.25 2.5L4.75 2.5C4.05964 2.5 3.5 3.05964 3.5 3.75L3.5 14.25C3.5 14.9404 4.05964 15.5 4.75 15.5H7.25Z" fill="#FFA800"/>
</svg>
