<svg width="40" height="40" viewBox="0 0 40 40" fill="none" xmlns="http://www.w3.org/2000/svg">
    <path fill-rule="evenodd" clip-rule="evenodd" d="M8.3326 3.33333C5.57118 3.33333 3.3326 5.57191 3.3326 8.33333V15C3.3326 17.7614 5.57128 20 8.33275 20C9.25323 20 9.99942 20.7462 9.99942 21.6667C9.99942 22.5871 9.25323 23.3333 8.33275 23.3333C3.73043 23.3333 -0.000732422 19.6024 -0.000732422 15V8.33333C-0.000732422 3.73096 3.73023 0 8.3326 0H31.6659C36.2683 0 39.9993 3.73096 39.9993 8.33333V15C39.9993 19.6024 36.2683 23.3333 31.6659 23.3333H28.3318V33.3333C28.3318 33.8579 28.0848 34.3519 27.6652 34.6667L20.9985 39.6667C20.4059 40.1111 19.5911 40.1111 18.9985 39.6667L12.3318 34.6667C11.9453 34.3768 11.7036 33.9334 11.6694 33.4514C11.6351 32.9694 11.8118 32.4963 12.1535 32.1547L14.3088 29.9999L12.1541 27.8452C11.5032 27.1943 11.5032 26.139 12.1541 25.4882L15.4874 22.1548C16.1383 21.5039 17.1936 21.5039 17.8444 22.1548C18.4953 22.8057 18.4953 23.861 17.8444 24.5118L15.6896 26.6667L17.8444 28.8215C18.157 29.1341 18.3326 29.558 18.3326 30.0001C18.3326 30.4422 18.1569 30.8661 17.8443 31.1786L15.8694 33.1531L19.9985 36.25L24.9985 32.5V21.6667C24.9985 20.7462 25.7447 20 26.6652 20H31.6659C34.4274 20 36.6659 17.7614 36.6659 15V8.33333C36.6659 5.57191 34.4274 3.33333 31.6659 3.33333H8.3326ZM16.6659 10C15.7455 10 14.9993 10.7462 14.9993 11.6667C14.9993 12.5871 15.7455 13.3333 16.6659 13.3333H23.3326C24.2531 13.3333 24.9993 12.5871 24.9993 11.6667C24.9993 10.7462 24.2531 10 23.3326 10H16.6659ZM11.6659 11.6667C11.6659 8.90524 13.9045 6.66667 16.6659 6.66667H23.3326C26.094 6.66667 28.3326 8.90524 28.3326 11.6667C28.3326 14.4281 26.094 16.6667 23.3326 16.6667H16.6659C13.9045 16.6667 11.6659 14.4281 11.6659 11.6667Z" fill="#FFA800"/>
</svg>
