<svg width="36" height="36" viewBox="0 0 36 36" fill="none" xmlns="http://www.w3.org/2000/svg">
    <path fill-rule="evenodd" clip-rule="evenodd" d="M7.5 3C5.01472 3 3 5.01472 3 7.5V13.5C3 15.9852 5.01481 18 7.50013 18C8.32856 18 9.00013 18.6716 9.00013 19.5C9.00013 20.3284 8.32856 21 7.50013 21C3.35804 21 0 17.6422 0 13.5V7.5C0 3.35786 3.35786 0 7.5 0H28.5C32.6421 0 36 3.35786 36 7.5V13.5C36 17.6421 32.6421 21 28.5 21H25.4993V30C25.4993 30.4721 25.277 30.9167 24.8993 31.2L18.8993 35.7C18.366 36.1 17.6326 36.1 17.0993 35.7L11.0993 31.2C10.7514 30.9391 10.5339 30.54 10.5031 30.1062C10.4723 29.6725 10.6312 29.2467 10.9388 28.9392L12.8786 26.9999L10.9393 25.0607C10.3536 24.4749 10.3536 23.5251 10.9393 22.9393L13.9393 19.9393C14.5251 19.3536 15.4749 19.3536 16.0607 19.9393C16.6464 20.5251 16.6464 21.4749 16.0607 22.0607L14.1213 24L16.0607 25.9393C16.342 26.2207 16.5 26.6022 16.5 27.0001C16.5 27.3979 16.3419 27.7795 16.0605 28.0608L14.2831 29.8378L17.9993 32.625L22.4993 29.25V19.5C22.4993 18.6716 23.1709 18 23.9993 18H28.5C30.9853 18 33 15.9853 33 13.5V7.5C33 5.01472 30.9853 3 28.5 3H7.5ZM15 9C14.1716 9 13.5 9.67157 13.5 10.5C13.5 11.3284 14.1716 12 15 12H21C21.8284 12 22.5 11.3284 22.5 10.5C22.5 9.67157 21.8284 9 21 9H15ZM10.5 10.5C10.5 8.01472 12.5147 6 15 6H21C23.4853 6 25.5 8.01472 25.5 10.5C25.5 12.9853 23.4853 15 21 15H15C12.5147 15 10.5 12.9853 10.5 10.5Z" fill="#FFA800"/>
</svg>
