<svg width="24" height="24" viewBox="0 0 24 24" fill="none" xmlns="http://www.w3.org/2000/svg">
    <path fill-rule="evenodd" clip-rule="evenodd" d="M21.3364 2.66351C21.6879 3.01498 21.6879 3.58483 21.3364 3.9363L19.8061 5.46657L21.8096 7.47004C22.1611 7.82152 22.1611 8.39136 21.8096 8.74284L18.5098 12.0427C18.1583 12.3941 17.5885 12.3941 17.237 12.0427L15.2335 10.0392L12.7167 12.5561C13.3982 13.4953 13.8 14.6507 13.8 15.8999C13.8 19.0479 11.248 21.5999 8.10002 21.5999C4.952 21.5999 2.40002 19.0479 2.40002 15.8999C2.40002 12.7519 4.952 10.1999 8.10002 10.1999C9.34924 10.1999 10.5046 10.6018 11.4439 11.2833L20.0636 2.66351C20.4151 2.31203 20.9849 2.31203 21.3364 2.66351ZM16.5063 8.76641L17.8734 10.1335L19.9004 8.10644L18.5334 6.73937L16.5063 8.76641ZM8.10002 11.9999C5.94611 11.9999 4.20002 13.746 4.20002 15.8999C4.20002 18.0538 5.94611 19.7999 8.10002 19.7999C10.2539 19.7999 12 18.0538 12 15.8999C12 13.746 10.2539 11.9999 8.10002 11.9999Z" fill="#FFA800"/>
</svg>
