<svg width="27" height="28" viewBox="0 0 27 28" fill="none" xmlns="http://www.w3.org/2000/svg">
    <path fill-rule="evenodd" clip-rule="evenodd" d="M24.0404 3.6259C24.431 4.01643 24.431 4.64959 24.0404 5.04011L22.3401 6.74042L24.5662 8.9665C24.9567 9.35702 24.9567 9.99019 24.5662 10.3807L20.8997 14.0472C20.5092 14.4377 19.8761 14.4377 19.4855 14.0472L17.2594 11.8211L14.4629 14.6176C15.2202 15.6613 15.6667 16.945 15.6667 18.333C15.6667 21.8308 12.8311 24.6663 9.33333 24.6663C5.83553 24.6663 3 21.8308 3 18.333C3 14.8352 5.83553 11.9997 9.33333 11.9997C10.7214 11.9997 12.0051 12.4462 13.0487 13.2034L22.6262 3.6259C23.0168 3.23538 23.6499 3.23538 24.0404 3.6259ZM18.6737 10.4069L20.1926 11.9259L22.4449 9.6736L20.9259 8.15464L18.6737 10.4069ZM9.33333 13.9997C6.9401 13.9997 5 15.9398 5 18.333C5 20.7262 6.9401 22.6663 9.33333 22.6663C11.7266 22.6663 13.6667 20.7262 13.6667 18.333C13.6667 15.9398 11.7266 13.9997 9.33333 13.9997Z" fill="#FFA800"/>
</svg>
