<svg width="34" height="36" viewBox="0 0 34 36" fill="none" xmlns="http://www.w3.org/2000/svg">
    <path fill-rule="evenodd" clip-rule="evenodd" d="M31.1377 22.7939C31.313 21.8657 30.6425 20.9997 29.7486 20.9997L4.25144 20.9997C3.35746 20.9997 2.68696 21.8657 2.86228 22.7939L5.18354 31.7941C5.31598 32.4952 5.8974 32.9999 6.5727 32.9999L27.4271 32.9999C28.1024 32.9999 28.6839 32.4952 28.8163 31.7941L31.1377 22.7939ZM29.7486 17.9996C32.1445 17.9996 34.0053 20.073 34 22.5005C33.9994 22.7903 33.9721 23.0852 33.916 23.3822L31.5946 32.3824C31.1973 34.4859 29.453 36 27.4271 36L6.5727 36C4.5468 36 2.80254 34.4859 2.40523 32.3824L0.083972 23.3822C0.027873 23.0852 0.00063993 22.7903 6.70219e-06 22.5005C-0.00529181 20.073 1.85554 17.9996 4.25144 17.9996L29.7486 17.9996ZM26.9166 8.99938C29.2638 8.99938 31.1666 11.0141 31.1666 13.4995L31.1666 14.9995C31.1666 15.828 30.5323 16.4995 29.7499 16.4995C28.9675 16.4995 28.3332 15.828 28.3332 14.9995L28.3332 13.4995C28.3332 12.671 27.699 11.9994 26.9166 11.9994L22.6666 11.9994C21.8842 11.9994 21.2499 11.3279 21.2499 10.4994C21.2499 9.67097 21.8842 8.99938 22.6666 8.99938L26.9166 8.99938ZM22.4287 5.33217C21.9947 6.02148 21.1151 6.20775 20.4641 5.74821L18.4166 4.30287L18.4166 14.9996C18.4166 15.828 17.7823 16.4996 16.9999 16.4996C16.2175 16.4996 15.5833 15.828 15.5833 14.9996L15.5832 4.3027L13.5357 5.74791C12.8847 6.20741 12.0051 6.0211 11.5711 5.33177C11.1372 4.64243 11.3131 3.71112 11.9642 3.25161L16.2142 0.251886C16.69 -0.0839788 17.3099 -0.0839617 17.7857 0.251929L22.0357 3.252C22.6867 3.71154 22.8627 4.64286 22.4287 5.33217ZM19.8332 25.4998C19.8332 26.3282 19.199 26.9998 18.4166 26.9998L15.5833 26.9998C14.8008 26.9998 14.1666 26.3282 14.1666 25.4998C14.1666 24.6713 14.8008 23.9997 15.5833 23.9997L18.4166 23.9997C19.199 23.9997 19.8332 24.6713 19.8332 25.4998ZM12.7499 10.4994C12.7499 11.3279 12.1157 11.9994 11.3333 11.9994L7.08326 11.9994C6.30085 11.9994 5.66659 12.671 5.66659 13.4995L5.66659 14.9995C5.66659 15.828 5.03233 16.4995 4.24992 16.4995C3.46752 16.4995 2.83326 15.828 2.83326 14.9995L2.83326 13.4995C2.83326 11.0141 4.73605 8.99938 7.08326 8.99938L11.3333 8.99938C12.1157 8.99938 12.7499 9.67097 12.7499 10.4994Z" fill="#FFA800"/>
</svg>
