<svg width="40" height="40" viewBox="0 0 40 40" fill="none" xmlns="http://www.w3.org/2000/svg">
    <path fill-rule="evenodd" clip-rule="evenodd" d="M35.801 25.3265C35.9969 24.2952 35.2475 23.3329 34.2484 23.3329L5.75161 23.3329C4.75245 23.3329 4.00307 24.2952 4.19903 25.3265L6.79338 35.3268C6.94139 36.1058 7.59122 36.6666 8.34596 36.6666L31.6539 36.6666C32.4086 36.6666 33.0584 36.1058 33.2064 35.3268L35.801 25.3265ZM34.2484 19.9995C36.9262 19.9995 39.0059 22.3033 39 25.0006C38.9993 25.3226 38.9688 25.6503 38.9061 25.9803L36.3116 35.9805C35.8676 38.3177 33.9181 40 31.6539 40L8.34596 40C6.08172 40 4.13225 38.3177 3.6882 35.9805L1.09385 25.9803C1.03115 25.6502 1.00072 25.3226 1.00001 25.0006C0.994086 22.3033 3.07384 19.9995 5.75161 19.9995L34.2484 19.9995ZM31.0832 9.99931C33.7066 9.99931 35.8332 12.2379 35.8332 14.9994L35.8332 16.6661C35.8332 17.5866 35.1244 18.3328 34.2499 18.3328C33.3755 18.3328 32.6666 17.5866 32.6666 16.6661L32.6666 14.9994C32.6666 14.0789 31.9577 13.3327 31.0832 13.3327L26.3332 13.3327C25.4588 13.3327 24.7499 12.5865 24.7499 11.666C24.7499 10.7455 25.4588 9.99931 26.3332 9.99931L31.0832 9.99931ZM26.0673 5.92464C25.5823 6.69053 24.5992 6.8975 23.8716 6.3869L21.5832 4.78097L21.5832 16.6662C21.5832 17.5867 20.8744 18.3329 19.9999 18.3329C19.1255 18.3329 18.4166 17.5867 18.4166 16.6662L18.4166 4.78078L16.1281 6.38657C15.4005 6.89712 14.4175 6.69011 13.9324 5.92418C13.4474 5.15826 13.6441 4.12346 14.3717 3.6129L19.1217 0.279873C19.6535 -0.0933098 20.3464 -0.0932908 20.8782 0.279922L25.6282 3.61333C26.3558 4.12393 26.5524 5.15874 26.0673 5.92464ZM23.1666 28.3331C23.1666 29.2536 22.4577 29.9998 21.5832 29.9998L18.4166 29.9998C17.5421 29.9998 16.8332 29.2536 16.8332 28.3331C16.8332 27.4126 17.5421 26.6664 18.4166 26.6664L21.5832 26.6664C22.4577 26.6664 23.1666 27.4126 23.1666 28.3331ZM15.2499 11.666C15.2499 12.5865 14.541 13.3327 13.6666 13.3327L8.91658 13.3327C8.04213 13.3327 7.33325 14.0789 7.33325 14.9994L7.33325 16.6661C7.33325 17.5866 6.62437 18.3328 5.74992 18.3328C4.87546 18.3328 4.16658 17.5866 4.16658 16.6661L4.16658 14.9994C4.16658 12.2379 6.29323 9.99931 8.91658 9.99931L13.6666 9.99931C14.541 9.99931 15.2499 10.7455 15.2499 11.666Z" fill="#FFA800"/>
</svg>
