<svg width="36" height="36" viewBox="0 0 36 36" fill="none" xmlns="http://www.w3.org/2000/svg">
    <path fill-rule="evenodd" clip-rule="evenodd" d="M0 4.5C0 2.01472 2.01472 0 4.5 0H19.5C21.9853 0 24 2.01472 24 4.5V31.5C24 33.9853 21.9853 36 19.5 36H4.5C2.01472 36 0 33.9853 0 31.5V4.5ZM4.5 3C3.67157 3 3 3.67157 3 4.5V31.5C3 32.3284 3.67157 33 4.5 33H19.5C20.3284 33 21 32.3284 21 31.5V4.5C21 3.67157 20.3284 3 19.5 3H4.5Z" fill="#FFA800"/>
    <path fill-rule="evenodd" clip-rule="evenodd" d="M9 6C9 5.17157 9.67157 4.5 10.5 4.5H13.5C14.3284 4.5 15 5.17157 15 6C15 6.82843 14.3284 7.5 13.5 7.5H10.5C9.67157 7.5 9 6.82843 9 6Z" fill="#FFA800"/>
    <path d="M14.25 29.25C14.25 30.4926 13.2426 31.5 12 31.5C10.7574 31.5 9.75 30.4926 9.75 29.25C9.75 28.0074 10.7574 27 12 27C13.2426 27 14.25 28.0074 14.25 29.25Z" fill="#FFA800"/>
    <path d="M27.3 0C26.4716 0 25.8 0.671573 25.8 1.5C25.8 2.32843 26.4716 3 27.3 3H33V6H28.5C27.6716 6 27 6.67157 27 7.5C27 8.32843 27.6716 9 28.5 9H33V27H28.5C27.6716 27 27 27.6716 27 28.5C27 29.3284 27.6716 30 28.5 30H33V33H27.3C26.4716 33 25.8 33.6716 25.8 34.5C25.8 35.3284 26.4716 36 27.3 36H34.5C35.3284 36 36 35.3284 36 34.5V1.5C36 0.671573 35.3284 0 34.5 0H27.3Z" fill="#FFA800"/>
</svg>
