<svg width="20" height="18" viewBox="0 0 20 18" fill="none" xmlns="http://www.w3.org/2000/svg">
    <path fill-rule="evenodd" clip-rule="evenodd" d="M10 9C12.2091 9 14 7.20914 14 5C14 2.79086 12.2091 1 10 1C7.79086 1 6 2.79086 6 5C6 7.20914 7.79086 9 10 9ZM12.5 5C12.5 6.38071 11.3807 7.5 10 7.5C8.61929 7.5 7.5 6.38071 7.5 5C7.5 3.61929 8.61929 2.5 10 2.5C11.3807 2.5 12.5 3.61929 12.5 5Z" fill="#FFA800"/>
    <path d="M7 10.5C4.92893 10.5 3.25 12.1789 3.25 14.25V16.25C3.25 16.6642 3.58579 17 4 17C4.41421 17 4.75 16.6642 4.75 16.25V14.25C4.75 13.0074 5.75736 12 7 12H13C14.2426 12 15.25 13.0074 15.25 14.25V16.25C15.25 16.6642 15.5858 17 16 17C16.4142 17 16.75 16.6642 16.75 16.25V14.25C16.75 12.1789 15.0711 10.5 13 10.5H7Z" fill="#FFA800"/>
</svg>
