<svg width="27" height="27" viewBox="0 0 27 27" fill="none" xmlns="http://www.w3.org/2000/svg">
    <path d="M6.06068 2.74749C6.56831 2.96505 6.80346 3.55293 6.58591 4.06056L4.58591 8.72722C4.36835 9.23485 3.78047 9.47001 3.27284 9.25245C2.76521 9.03489 2.53006 8.44702 2.74762 7.93939L4.74762 3.27272C4.96517 2.76509 5.55305 2.52994 6.06068 2.74749Z" fill="#FFA800"/>
    <path d="M20.6062 2.74749C21.1138 2.52994 21.7017 2.76509 21.9192 3.27272L23.9192 7.93939C24.1368 8.44702 23.9016 9.03489 23.394 9.25245C22.8864 9.47001 22.2985 9.23485 22.0809 8.72722L20.0809 4.06056C19.8634 3.55293 20.0985 2.96505 20.6062 2.74749Z" fill="#FFA800"/>
    <path fill-rule="evenodd" clip-rule="evenodd" d="M5.5537 16.9851C6.66683 15.3333 6.80004 12.7613 6.80004 9.30238C6.80004 7.54243 7.48837 5.85456 8.71361 4.61008C9.93884 3.3656 11.6007 2.66646 13.3335 2.66646C15.0662 2.66646 16.7281 3.3656 17.9534 4.61008C19.1786 5.85456 19.867 7.54243 19.867 9.30238C19.867 12.7613 20.4157 15.6094 21.1133 16.9851C21.2351 17.2255 21.3131 17.3478 21.534 17.4876C21.8142 17.6648 22.0002 17.9773 22.0002 18.3333C22.0002 18.8856 21.5524 19.3333 21.0002 19.3333H5.66683C5.11454 19.3333 4.66683 18.8856 4.66683 18.3333C4.66683 17.9773 4.85283 17.6648 5.13296 17.4876C5.35388 17.3478 5.43184 17.2255 5.5537 16.9851ZM16.5282 6.01323C15.6756 5.14722 14.5257 4.66646 13.3335 4.66646C12.1413 4.66646 10.9914 5.14723 10.1388 6.01323C9.2851 6.88033 8.80004 8.06289 8.80004 9.30238C8.80004 11.0335 8.7685 12.6604 8.57644 14.0881C8.42465 15.2164 8.16012 16.3292 7.65953 17.3333H19.0771C18.3183 15.4717 17.867 12.5274 17.867 9.30238C17.867 8.06289 17.3819 6.88033 16.5282 6.01323Z" fill="#FFA800"/>
    <path d="M11.9431 21.3378C11.6364 20.8785 11.0154 20.7549 10.5561 21.0616C10.0968 21.3683 9.97316 21.9893 10.2799 22.4485C10.9264 23.4167 12.0827 24 13.3337 24C14.5847 24 15.741 23.4167 16.3875 22.4485C16.6943 21.9893 16.5706 21.3683 16.1113 21.0616C15.652 20.7549 15.031 20.8785 14.7243 21.3378C14.4837 21.6981 13.9818 22 13.3337 22C12.6856 22 12.1837 21.6981 11.9431 21.3378Z" fill="#FFA800"/>
</svg>
