<svg width="24" height="24" viewBox="0 0 24 24" fill="none" xmlns="http://www.w3.org/2000/svg">
    <path d="M5.45448 2.4729C5.91134 2.6687 6.12298 3.19779 5.92718 3.65466L4.12718 7.85466C3.93138 8.31153 3.40229 8.52316 2.94542 8.32736C2.48856 8.13156 2.27692 7.60247 2.47272 7.14561L4.27272 2.94561C4.46852 2.48874 4.99761 2.2771 5.45448 2.4729Z" fill="#FFA800"/>
    <path d="M18.5454 2.4729C19.0023 2.2771 19.5314 2.48874 19.7272 2.94561L21.5272 7.14561C21.723 7.60247 21.5113 8.13156 21.0545 8.32736C20.5976 8.52316 20.0685 8.31153 19.8727 7.85466L18.0727 3.65466C17.8769 3.19779 18.0886 2.6687 18.5454 2.4729Z" fill="#FFA800"/>
    <path fill-rule="evenodd" clip-rule="evenodd" d="M4.9982 15.2868C6.00001 13.8001 6.1199 11.4853 6.1199 8.3723C6.1199 6.78834 6.7394 5.26926 7.84211 4.14923C8.94483 3.0292 10.4405 2.39998 12 2.39998C13.5595 2.39998 15.0552 3.0292 16.1579 4.14923C17.2606 5.26926 17.8801 6.78834 17.8801 8.3723C17.8801 11.4853 18.374 14.0486 19.0018 15.2868C19.1115 15.5031 19.1817 15.6132 19.3805 15.739C19.6326 15.8985 19.8 16.1797 19.8 16.5001C19.8 16.9972 19.3971 17.4001 18.9 17.4001H5.10001C4.60296 17.4001 4.20001 16.9972 4.20001 16.5001C4.20001 16.1797 4.36742 15.8985 4.61953 15.739C4.81835 15.6132 4.88853 15.5031 4.9982 15.2868ZM14.8752 5.41207C14.1079 4.63266 13.073 4.19998 12 4.19998C10.927 4.19998 9.89214 4.63266 9.12478 5.41207C8.35646 6.19245 7.9199 7.25676 7.9199 8.3723C7.9199 9.9303 7.89151 11.3945 7.71866 12.6794C7.58205 13.6949 7.34397 14.6965 6.89344 15.6001H17.1693C16.4864 13.9247 16.0801 11.2748 16.0801 8.3723C16.0801 7.25676 15.6436 6.19245 14.8752 5.41207Z" fill="#FFA800"/>
    <path d="M10.7487 19.2042C10.4726 18.7908 9.91374 18.6795 9.50039 18.9556C9.08703 19.2316 8.97571 19.7905 9.25176 20.2038C9.83363 21.0752 10.8743 21.6001 12.0002 21.6001C13.1261 21.6001 14.1668 21.0752 14.7487 20.2038C15.0247 19.7905 14.9134 19.2316 14.5 18.9556C14.0867 18.6795 13.5278 18.7908 13.2518 19.2042C13.0352 19.5285 12.5835 19.8001 12.0002 19.8001C11.4169 19.8001 10.9652 19.5285 10.7487 19.2042Z" fill="#FFA800"/>
</svg>
