<svg width="40" height="40" viewBox="0 0 40 40" fill="none" xmlns="http://www.w3.org/2000/svg">
    <path fill-rule="evenodd" clip-rule="evenodd" d="M3.33043 6.66667C3.33043 2.98477 6.3152 -3.97364e-07 9.9971 0C13.679 2.98023e-07 16.6638 2.98477 16.6638 6.66667C16.6638 10.3486 13.679 13.3333 9.9971 13.3333C6.3152 13.3333 3.33043 10.3486 3.33043 6.66667ZM9.9971 3.33333C8.15615 3.33333 6.66376 4.82572 6.66376 6.66667C6.66376 8.50762 8.15615 10 9.9971 10C11.838 10 13.3304 8.50762 13.3304 6.66667C13.3304 4.82572 11.838 3.33333 9.9971 3.33333ZM29.9978 1.66666C30.9183 1.66666 31.6645 2.41285 31.6645 3.33333L31.6645 17.6426L35.4856 13.8215C36.1364 13.1706 37.1917 13.1706 37.8426 13.8215C38.4935 14.4724 38.4935 15.5276 37.8426 16.1785L31.1759 22.8452C30.525 23.4961 29.4698 23.4961 28.8189 22.8452L22.1522 16.1785C21.5013 15.5276 21.5013 14.4724 22.1522 13.8215C22.8031 13.1706 23.8584 13.1706 24.5092 13.8215L28.3311 17.6434L28.3311 3.33333C28.3311 2.41285 29.0773 1.66666 29.9978 1.66666ZM9.9974 16.6667C10.4394 16.6667 10.8633 16.8423 11.1759 17.1548L17.8426 23.8215C18.4934 24.4724 18.4934 25.5277 17.8426 26.1785C17.1917 26.8294 16.1364 26.8294 15.4856 26.1785L11.6645 22.3574L11.6645 36.6667C11.6645 37.5872 10.9183 38.3334 9.99779 38.3334C9.07732 38.3334 8.33113 37.5872 8.33113 36.6667L8.33113 22.3566L4.50924 26.1785C3.85837 26.8294 2.80309 26.8294 2.15222 26.1785C1.50134 25.5277 1.50134 24.4724 2.15222 23.8215L8.81888 17.1548C9.13145 16.8423 9.55537 16.6667 9.9974 16.6667ZM29.9971 30C28.1562 30 26.6638 31.4924 26.6638 33.3333C26.6638 35.1743 28.1562 36.6667 29.9971 36.6667C31.838 36.6667 33.3304 35.1743 33.3304 33.3333C33.3304 31.4924 31.8381 30 29.9971 30ZM23.3304 33.3333C23.3304 29.6514 26.3152 26.6667 29.9971 26.6667C33.679 26.6667 36.6638 29.6514 36.6638 33.3333C36.6638 37.0152 33.679 40 29.9971 40C26.3152 40 23.3304 37.0152 23.3304 33.3333Z" fill="#FFA800"/>
</svg>
