<svg width="34" height="36" viewBox="0 0 34 36" fill="none" xmlns="http://www.w3.org/2000/svg">
    <path fill-rule="evenodd" clip-rule="evenodd" d="M1.99983 6C1.99983 2.68629 4.68612 -3.57628e-07 7.99983 0C11.3135 2.68221e-07 13.9998 2.68629 13.9998 6C13.9998 9.31371 11.3135 12 7.99983 12C4.68612 12 1.99983 9.31371 1.99983 6ZM7.99983 3C6.34297 3 4.99983 4.34314 4.99983 6C4.99983 7.65685 6.34297 9 7.99983 9C9.65668 9 10.9998 7.65686 10.9998 6C10.9998 4.34315 9.65668 3 7.99983 3ZM26.0005 1.49999C26.8289 1.49999 27.5005 2.17157 27.5005 2.99999L27.5005 15.8783L30.9394 12.4393C31.5252 11.8536 32.475 11.8536 33.0608 12.4393C33.6466 13.0251 33.6466 13.9749 33.0608 14.5607L27.0608 20.5607C26.475 21.1464 25.5252 21.1464 24.9394 20.5607L18.9394 14.5607C18.3537 13.9749 18.3537 13.0251 18.9394 12.4393C19.5252 11.8536 20.475 11.8536 21.0608 12.4393L24.5005 15.879L24.5005 2.99999C24.5005 2.17157 25.172 1.49999 26.0005 1.49999ZM8.0001 15C8.39792 15 8.77945 15.1581 9.06076 15.4394L15.0608 21.4394C15.6465 22.0251 15.6465 22.9749 15.0608 23.5607C14.475 24.1465 13.5252 24.1465 12.9394 23.5607L9.50045 20.1217L9.50045 33C9.50045 33.8285 8.82888 34.5 8.00045 34.5C7.17203 34.5 6.50045 33.8285 6.50045 33L6.50045 20.121L3.06076 23.5607C2.47497 24.1465 1.52522 24.1465 0.939437 23.5607C0.353651 22.9749 0.353651 22.0251 0.939437 21.4394L6.93944 15.4394C7.22074 15.1581 7.60227 15 8.0001 15ZM25.9998 27C24.343 27 22.9998 28.3431 22.9998 30C22.9998 31.6569 24.343 33 25.9998 33C27.6567 33 28.9998 31.6569 28.9998 30C28.9998 28.3431 27.6567 27 25.9998 27ZM19.9998 30C19.9998 26.6863 22.6861 24 25.9998 24C29.3135 24 31.9998 26.6863 31.9998 30C31.9998 33.3137 29.3135 36 25.9998 36C22.6861 36 19.9998 33.3137 19.9998 30Z" fill="#FFA800"/>
</svg>
