<svg width="27" height="27" viewBox="0 0 27 27" fill="none" xmlns="http://www.w3.org/2000/svg">
    <path fill-rule="evenodd" clip-rule="evenodd" d="M13.6667 24.3331C19.5577 24.3331 24.3333 19.5575 24.3333 13.6664C24.3333 7.77539 19.5577 2.99976 13.6667 2.99976C7.77563 2.99976 3 7.77539 3 13.6664C3 19.5575 7.77563 24.3331 13.6667 24.3331ZM19.0471 20.4611C17.569 21.6331 15.6996 22.3331 13.6667 22.3331C8.8802 22.3331 5 18.4529 5 13.6664C5 11.6335 5.69995 9.76407 6.87199 8.28596L19.0471 20.4611ZM20.4613 19.0469L8.2862 6.87174C9.76431 5.6997 11.6337 4.99976 13.6667 4.99976C18.4531 4.99976 22.3333 8.87995 22.3333 13.6664C22.3333 15.6993 21.6334 17.5688 20.4613 19.0469Z" fill="#FFA800"/>
</svg>
