<svg width="24" height="24" viewBox="0 0 24 24" fill="none" xmlns="http://www.w3.org/2000/svg">
    <path fill-rule="evenodd" clip-rule="evenodd" d="M12 21.6C17.3019 21.6 21.6 17.302 21.6 12C21.6 6.69809 17.3019 2.40002 12 2.40002C6.69806 2.40002 2.39999 6.69809 2.39999 12C2.39999 17.302 6.69806 21.6 12 21.6ZM16.8424 18.1152C15.5121 19.1701 13.8296 19.8 12 19.8C7.69217 19.8 4.19999 16.3078 4.19999 12C4.19999 10.1704 4.82994 8.4879 5.88478 7.1576L16.8424 18.1152ZM18.1152 16.8424L7.15757 5.88481C8.48787 4.82997 10.1704 4.20002 12 4.20002C16.3078 4.20002 19.8 7.6922 19.8 12C19.8 13.8297 19.17 15.5121 18.1152 16.8424Z" fill="#FFA800"/>
</svg>
