<svg width="24" height="24" viewBox="0 0 24 24" fill="none" xmlns="http://www.w3.org/2000/svg">
    <path d="M21.6 13.2001C21.6 12.703 21.1971 12.3001 20.7 12.3001C20.2029 12.3001 19.8 12.703 19.8 13.2001V15.0001C19.8 16.4912 18.5912 17.7001 17.1 17.7001H5.69531L8.69266 15.0774C9.06673 14.7501 9.10463 14.1815 8.77732 13.8074C8.45001 13.4333 7.88142 13.3954 7.50735 13.7227L2.70735 17.9227C2.51203 18.0936 2.4 18.3405 2.4 18.6001C2.4 18.8596 2.51203 19.1065 2.70735 19.2774L7.50735 23.4774C7.88142 23.8047 8.45001 23.7668 8.77732 23.3927C9.10463 23.0186 9.06673 22.4501 8.69266 22.1227L5.6953 19.5001H17.1C19.5853 19.5001 21.6 17.4853 21.6 15.0001V13.2001Z" fill="#FFA800"/>
    <path d="M16.4927 0.522742C16.1186 0.195428 15.55 0.233334 15.2227 0.607407C14.8954 0.98148 14.9333 1.55007 15.3073 1.87738L18.3047 4.50006H6.9C4.41472 4.50006 2.4 6.51478 2.4 9.00006V10.8001C2.4 11.2971 2.80295 11.7001 3.3 11.7001C3.79706 11.7001 4.2 11.2971 4.2 10.8001V9.00006C4.2 7.5089 5.40883 6.30006 6.9 6.30006H18.3047L15.3073 8.92274C14.9333 9.25006 14.8954 9.81864 15.2227 10.1927C15.55 10.5668 16.1186 10.6047 16.4927 10.2774L21.2927 6.07738C21.488 5.90648 21.6 5.65959 21.6 5.40006C21.6 5.14053 21.488 4.89364 21.2927 4.72274L16.4927 0.522742Z" fill="#FFA800"/>
</svg>
