<svg width="27" height="27" viewBox="0 0 27 27" fill="none" xmlns="http://www.w3.org/2000/svg">
    <g clip-path="url(#clip0)">
        <path d="M24.3333 14.6667C24.3333 14.1144 23.8856 13.6667 23.3333 13.6667C22.781 13.6667 22.3333 14.1144 22.3333 14.6667V16.6667C22.3333 18.3236 20.9902 19.6667 19.3333 19.6667H6.66145L9.99184 16.7526C10.4075 16.389 10.4496 15.7572 10.0859 15.3416C9.72223 14.9259 9.09047 14.8838 8.67483 15.2475L3.3415 19.9142C3.12448 20.104 3 20.3784 3 20.6667C3 20.9551 3.12448 21.2294 3.3415 21.4193L8.67483 26.086C9.09047 26.4497 9.72223 26.4075 10.0859 25.9919C10.4496 25.5763 10.4075 24.9445 9.99184 24.5808L6.66145 21.6667H19.3333C22.0948 21.6667 24.3333 19.4282 24.3333 16.6667V14.6667Z" fill="#FFA800"/>
        <path d="M18.6585 0.580811C18.2429 0.217129 17.6111 0.259246 17.2474 0.674883C16.8837 1.09052 16.9259 1.72228 17.3415 2.08596L20.6719 5.00006H8C5.23857 5.00006 3 7.23864 3 10.0001V12.0001C3 12.5523 3.44772 13.0001 4 13.0001C4.55228 13.0001 5 12.5523 5 12.0001V10.0001C5 8.3432 6.34315 7.00006 8 7.00006H20.6719L17.3415 9.91414C16.9259 10.2778 16.8837 10.9096 17.2474 11.3252C17.6111 11.7409 18.2429 11.783 18.6585 11.4193L23.9918 6.75263C24.2089 6.56274 24.3333 6.28842 24.3333 6.00005C24.3333 5.71169 24.2089 5.43737 23.9918 5.24748L18.6585 0.580811Z" fill="#FFA800"/>
    </g>
    <defs>
        <clipPath id="clip0">
            <rect width="26.6667" height="26.6667" fill="white" transform="translate(0.333496)"/>
        </clipPath>
    </defs>
</svg>
