<svg width="36" height="36" viewBox="0 0 36 36" fill="none" xmlns="http://www.w3.org/2000/svg">
    <path fill-rule="evenodd" clip-rule="evenodd" d="M18 0C18.8284 0 19.5 0.671573 19.5 1.5V21C19.5 21.8284 18.8284 22.5 18 22.5C17.1716 22.5 16.5 21.8284 16.5 21V1.5C16.5 0.671573 17.1716 0 18 0ZM7.93934 1.93934C8.52513 1.35355 9.47487 1.35355 10.0607 1.93934L13.0607 4.93934C13.342 5.22064 13.5 5.60218 13.5 6V9.1979C13.5 9.92489 12.9787 10.5472 12.2629 10.6747C6.9976 11.6122 3 16.2158 3 21.75C3 27.9632 8.0368 33 14.25 33H21.75C27.9632 33 33 27.9632 33 21.75C33 16.2158 29.0024 11.6122 23.7371 10.6747C23.0213 10.5472 22.5 9.92489 22.5 9.1979V6C22.5 5.60218 22.658 5.22064 22.9393 4.93934L25.9393 1.93934C26.5251 1.35355 27.4749 1.35355 28.0607 1.93934C28.6464 2.52513 28.6464 3.47487 28.0607 4.06066L25.5 6.62132V7.99896C31.5509 9.64561 36 15.1769 36 21.75C36 29.6201 29.6201 36 21.75 36H14.25C6.37994 36 0 29.6201 0 21.75C0 15.1769 4.44913 9.64561 10.5 7.99896V6.62132L7.93934 4.06066C7.35355 3.47487 7.35355 2.52513 7.93934 1.93934ZM13.3549 16.3616C13.7104 17.1099 13.3919 18.0047 12.6436 18.3601C11.3732 18.9636 10.5 20.2563 10.5 21.75C10.5 23.8211 12.1789 25.5 14.25 25.5H21.75C23.8211 25.5 25.5 23.8211 25.5 21.75C25.5 20.2563 24.6268 18.9636 23.3564 18.3601C22.6081 18.0047 22.2896 17.1099 22.6451 16.3616C23.0006 15.6133 23.8954 15.2949 24.6436 15.6503C26.9206 16.732 28.5 19.0551 28.5 21.75C28.5 25.4779 25.4779 28.5 21.75 28.5H14.25C10.5221 28.5 7.5 25.4779 7.5 21.75C7.5 19.0551 9.07936 16.732 11.3564 15.6503C12.1046 15.2949 12.9994 15.6133 13.3549 16.3616Z" fill="#FFA800"/>
</svg>
