<svg width="40" height="40" viewBox="0 0 40 40" fill="none" xmlns="http://www.w3.org/2000/svg">
    <path fill-rule="evenodd" clip-rule="evenodd" d="M20 0C20.9205 0 21.6667 0.746192 21.6667 1.66667V23.3333C21.6667 24.2538 20.9205 25 20 25C19.0795 25 18.3333 24.2538 18.3333 23.3333V1.66667C18.3333 0.746192 19.0795 0 20 0ZM8.82149 2.15482C9.47236 1.50395 10.5276 1.50395 11.1785 2.15482L14.5118 5.48816C14.8244 5.80072 15 6.22464 15 6.66667V10.2199C15 11.0277 14.4208 11.7192 13.6255 11.8607C7.77511 12.9024 3.33333 18.0175 3.33333 24.1667C3.33333 31.0702 8.92977 36.6667 15.8333 36.6667H24.1667C31.0702 36.6667 36.6667 31.0702 36.6667 24.1667C36.6667 18.0175 32.2249 12.9024 26.3745 11.8607C25.5792 11.7192 25 11.0277 25 10.2199V6.66667C25 6.22464 25.1756 5.80072 25.4882 5.48816L28.8215 2.15482C29.4724 1.50395 30.5276 1.50395 31.1785 2.15482C31.8294 2.8057 31.8294 3.86097 31.1785 4.51184L28.3333 7.35702V8.88773C35.0565 10.7173 40 16.8632 40 24.1667C40 32.9112 32.9112 40 24.1667 40H15.8333C7.08882 40 0 32.9112 0 24.1667C0 16.8632 4.94348 10.7173 11.6667 8.88773V7.35702L8.82149 4.51184C8.17062 3.86097 8.17062 2.8057 8.82149 2.15482ZM14.8388 18.1796C15.2337 19.011 14.8799 20.0052 14.0485 20.4001C12.6369 21.0707 11.6667 22.507 11.6667 24.1667C11.6667 26.4679 13.5321 28.3333 15.8333 28.3333H24.1667C26.4679 28.3333 28.3333 26.4679 28.3333 24.1667C28.3333 22.507 27.3631 21.0707 25.9515 20.4001C25.1201 20.0052 24.7663 19.011 25.1612 18.1796C25.5562 17.3481 26.5504 16.9943 27.3818 17.3893C29.9118 18.5911 31.6667 21.1723 31.6667 24.1667C31.6667 28.3088 28.3088 31.6667 24.1667 31.6667H15.8333C11.6912 31.6667 8.33333 28.3088 8.33333 24.1667C8.33333 21.1723 10.0882 18.5911 12.6182 17.3893C13.4496 16.9943 14.4438 17.3481 14.8388 18.1796Z" fill="#FFA800"/>
</svg>
