<svg width="24" height="24" viewBox="0 0 24 24" fill="none" xmlns="http://www.w3.org/2000/svg">
    <path fill-rule="evenodd" clip-rule="evenodd" d="M12 12C14.651 12 16.8 9.85099 16.8 7.20002C16.8 4.54906 14.651 2.40002 12 2.40002C9.34903 2.40002 7.19999 4.54906 7.19999 7.20002C7.19999 9.85099 9.34903 12 12 12ZM15 7.20002C15 8.85688 13.6568 10.2 12 10.2C10.3431 10.2 8.99999 8.85688 8.99999 7.20002C8.99999 5.54317 10.3431 4.20002 12 4.20002C13.6568 4.20002 15 5.54317 15 7.20002Z" fill="#FFA800"/>
    <path d="M8.39999 13.8C5.91471 13.8 3.89999 15.8147 3.89999 18.3V20.7C3.89999 21.1971 4.30294 21.6 4.79999 21.6C5.29705 21.6 5.69999 21.1971 5.69999 20.7V18.3C5.69999 16.8089 6.90883 15.6 8.39999 15.6H15.6C17.0912 15.6 18.3 16.8089 18.3 18.3V20.7C18.3 21.1971 18.7029 21.6 19.2 21.6C19.697 21.6 20.1 21.1971 20.1 20.7V18.3C20.1 15.8147 18.0853 13.8 15.6 13.8H8.39999Z" fill="#FFA800"/>
</svg>
