<svg width="28" height="28" viewBox="0 0 28 28" fill="none" xmlns="http://www.w3.org/2000/svg">
    <path fill-rule="evenodd" clip-rule="evenodd" d="M14 13.9997C16.9455 13.9997 19.3333 11.6119 19.3333 8.6664C19.3333 5.72088 16.9455 3.33307 14 3.33307C11.0545 3.33307 8.66667 5.72088 8.66667 8.6664C8.66667 11.6119 11.0545 13.9997 14 13.9997ZM17.3333 8.6664C17.3333 10.5074 15.8409 11.9997 14 11.9997C12.1591 11.9997 10.6667 10.5074 10.6667 8.6664C10.6667 6.82545 12.1591 5.33307 14 5.33307C15.841 5.33307 17.3333 6.82545 17.3333 8.6664Z" fill="#FFA800"/>
    <path d="M10 15.9997C7.23858 15.9997 5 18.2383 5 20.9997V23.6664C5 24.2187 5.44772 24.6664 6 24.6664C6.55228 24.6664 7 24.2187 7 23.6664V20.9997C7 19.3429 8.34315 17.9997 10 17.9997H18C19.6569 17.9997 21 19.3429 21 20.9997V23.6664C21 24.2187 21.4477 24.6664 22 24.6664C22.5523 24.6664 23 24.2187 23 23.6664V20.9997C23 18.2383 20.7614 15.9997 18 15.9997H10Z" fill="#FFA800"/>
</svg>
