<svg width="36" height="36" viewBox="0 0 36 36" fill="none" xmlns="http://www.w3.org/2000/svg">
    <path fill-rule="evenodd" clip-rule="evenodd"
          d="M30 9H33C33.8284 9 34.5 8.32843 34.5 7.5C34.5 6.67157 33.8284 6 33 6H30C30 3.51472 27.9853 1.5 25.5 1.5H13C10.5147 1.5 8.5 3.51472 8.5 6H5.25001C2.35051 6 0 8.35051 0 11.25V27C0 31.1421 3.35786 34.5 7.5 34.5H31.5C33.9853 34.5 36 32.4853 36 30V16C36 13.5147 33.9853 11.5 31.5 11.5H30V9ZM11.5 6C11.5 5.17157 12.1716 4.5 13 4.5H25.5C26.3284 4.5 27 5.17157 27 6V11.5H11.5V6ZM33 16V19H28.5C26.0147 19 24 21.0147 24 23.5C24 25.9853 26.0147 28 28.5 28H33V30C33 30.8284 32.3284 31.5 31.5 31.5H7.5C5.01472 31.5 3 29.4853 3 27V11.25C3 10.0074 4.00736 9 5.25001 9H8.5V11.5H7C6.17157 11.5 5.5 12.1716 5.5 13C5.5 13.8284 6.17157 14.5 7 14.5H31.5C32.3284 14.5 33 15.1716 33 16ZM28.5 22H33V25H28.5C27.6716 25 27 24.3284 27 23.5C27 22.6716 27.6716 22 28.5 22Z"
          fill="#FFA800"/>
</svg>
