<svg width="20" height="20" viewBox="0 0 20 20" fill="none" xmlns="http://www.w3.org/2000/svg">
    <path d="M4.68712 6.64964C7.62164 3.78345 12.3784 3.78345 15.3167 6.64964L15.6697 6.99419C15.8178 7.13807 15.8178 7.36903 15.6697 7.51291L14.4625 8.69422C14.3904 8.76616 14.2689 8.76616 14.1968 8.69422L13.7108 8.22094C11.6647 6.2218 8.34293 6.2218 6.29674 8.22094L5.77665 8.72829C5.70452 8.80023 5.58304 8.80023 5.51091 8.72829L4.2999 7.54698C4.15185 7.40311 4.15185 7.17215 4.2999 7.02827L4.68712 6.64964ZM17.8146 9.08799L18.889 10.1368C19.037 10.2807 19.037 10.5116 18.889 10.6555L14.0411 15.3921C13.8931 15.536 13.6577 15.536 13.5096 15.3921L10.0664 12.0299C10.0285 11.9958 9.97153 11.9958 9.93357 12.0299L6.49415 15.3921C6.34609 15.536 6.11072 15.536 5.96267 15.3921L1.11104 10.6593C0.962986 10.5154 0.962986 10.2844 1.11104 10.1406L2.18538 9.09177C2.33344 8.9479 2.56881 8.9479 2.71686 9.09177L6.16008 12.454C6.19804 12.488 6.25498 12.488 6.29295 12.454L9.73236 9.09177C9.88042 8.9479 10.1158 8.9479 10.2638 9.09177L13.7071 12.454C13.745 12.488 13.802 12.488 13.8399 12.454L17.2831 9.09177C17.4274 8.94411 17.6666 8.94411 17.8146 9.08799Z" fill="#FFA800"/>
</svg>
