<svg width="28" height="28" viewBox="0 0 28 28" fill="none" xmlns="http://www.w3.org/2000/svg">
    <path fill-rule="evenodd" clip-rule="evenodd" d="M3.3335 7.66626V20.6663C3.3335 22.139 4.5274 23.3329 6.00016 23.3329H22.0002C23.4729 23.3329 24.6668 22.139 24.6668 20.6663V11.3329C24.6668 9.86017 23.4729 8.66626 22.0002 8.66626H20.6668V7.33293C20.6668 5.86017 19.4729 4.66626 18.0002 4.66626H6.3335C4.67664 4.66626 3.3335 6.00941 3.3335 7.66626ZM18.6668 8.66626V7.33293C18.6668 6.96474 18.3684 6.66626 18.0002 6.66626H6.3335C5.78121 6.66626 5.3335 7.11398 5.3335 7.66626C5.3335 8.21854 5.78121 8.66626 6.3335 8.66626H18.6668ZM22.6668 12.6663V11.3329C22.6668 10.9647 22.3684 10.6663 22.0002 10.6663H5.3335V20.6663C5.3335 21.0345 5.63197 21.3329 6.00016 21.3329H22.0002C22.3684 21.3329 22.6668 21.0345 22.6668 20.6663V19.3329H21.3335C19.4925 19.3329 18.0002 17.8405 18.0002 15.9996C18.0002 14.1586 19.4925 12.6663 21.3335 12.6663H22.6668ZM22.6668 17.3329V14.6663H21.3335C20.5971 14.6663 20.0002 15.2632 20.0002 15.9996C20.0002 16.736 20.5971 17.3329 21.3335 17.3329H22.6668Z" fill="#FFA800"/>
</svg>
