<svg width="128" height="48" viewBox="0 0 128 48" fill="none" xmlns="http://www.w3.org/2000/svg">
    <path d="M56.2543 14.1188H60.702V31.9378H65.1498V9.66406H60.702C58.2558 9.66406 56.2543 11.6687 56.2543 14.1188Z" fill="#808085"/>
    <path d="M69.5975 31.9378H74.0453V23.0282C74.0453 20.5781 72.0438 18.5735 69.5975 18.5735V31.9378Z" fill="#808085"/>
    <path d="M78.493 18.5735V31.9378H82.9408V23.0282H87.3886V27.483C87.3886 29.9331 89.3901 31.9378 91.8364 31.9378V23.0282C91.8364 20.5781 89.8349 18.5735 87.3886 18.5735H78.493Z" fill="#808085"/>
    <path d="M118.523 18.5736H114.075V14.1188C114.075 11.6687 112.074 9.66406 109.628 9.66406V27.4831H100.732V23.0283H105.18V18.5736H100.732C98.2858 18.5736 96.2843 20.5782 96.2843 23.0283V27.4831C96.2843 29.9332 98.2858 31.9378 100.732 31.9378H114.075V23.0283H118.523V27.4831C118.523 29.9332 120.525 31.9378 122.971 31.9378V23.0283C122.971 20.5782 120.969 18.5736 118.523 18.5736Z" fill="#808085"/>
    <path d="M69.5975 14.1188H74.0453C74.0453 11.6687 72.0438 9.66406 69.5975 9.66406V14.1188Z" fill="#808085"/>
    <path fill-rule="evenodd" clip-rule="evenodd" d="M63.1888 36.3926V39.3079H62.7812L61.1804 37.288V39.3079H60.7021V36.3926H61.1097L62.7105 38.4208V36.3926H63.1888ZM72.2362 39.3079H70.5106V36.3926H72.1947V36.8716H71.022V37.5961H72.0699V38.0751H71.022V38.829H72.2362V39.3079ZM79.5581 36.8716H80.502V39.3079H81.0134V36.8716H81.9573V36.3926H79.5581V36.8716ZM92.8427 36.3926H93.3334L92.5017 39.3079H92.0235L91.3208 37.2006L90.6305 39.3079H90.1482L89.2791 36.3926H89.8529L90.4393 38.4708L91.088 36.3926H91.5952L92.2605 38.475L92.8427 36.3926ZM101.079 36.8257C100.797 37.1145 100.655 37.4713 100.655 37.8961C100.655 38.3431 100.798 38.7054 101.084 38.983C101.369 39.2607 101.731 39.3995 102.169 39.3995C102.604 39.3995 102.966 39.258 103.254 38.9748C103.542 38.6916 103.687 38.332 103.687 37.8961C103.687 37.4518 103.542 37.0895 103.254 36.8091C102.969 36.5315 102.607 36.3926 102.169 36.3926C101.731 36.3926 101.368 36.5369 101.079 36.8257ZM101.474 38.6291C101.289 38.4347 101.196 38.1904 101.196 37.8961C101.196 37.5961 101.287 37.3505 101.47 37.1589C101.656 36.9674 101.889 36.8716 102.169 36.8716C102.443 36.8716 102.675 36.9674 102.863 37.1589C103.052 37.3532 103.146 37.5989 103.146 37.8961C103.146 38.1904 103.057 38.4347 102.88 38.6291C102.705 38.8234 102.468 38.9205 102.169 38.9205C101.892 38.9205 101.66 38.8234 101.474 38.6291ZM111.52 38.225V39.3162H111.008V36.4009C111.152 36.4009 111.309 36.3995 111.478 36.3967C111.647 36.3939 111.786 36.3926 111.894 36.3926C112.598 36.3926 112.95 36.6925 112.95 37.2922C112.95 37.5143 112.893 37.6975 112.78 37.8419C112.666 37.9807 112.536 38.0751 112.389 38.1251L113.299 39.3162H112.68L111.877 38.225H111.52ZM111.869 36.8716C111.855 36.8716 111.833 36.8729 111.802 36.8757C111.772 36.8757 111.729 36.877 111.674 36.8798H111.52V37.7462H111.852C112.016 37.7462 112.149 37.7058 112.252 37.6253C112.357 37.5448 112.41 37.4351 112.41 37.2963C112.41 37.0131 112.229 36.8716 111.869 36.8716ZM120.621 39.3079H121.133V37.8044L122.322 39.3079H122.971L121.699 37.7503L122.896 36.3926H122.28L121.133 37.7753V36.3926H120.621V39.3079Z" fill="#808085" fill-opacity="0.5"/>
    <path d="M31.8069 10.7872C29.8733 10.3852 27.7572 10.4949 27.7572 10.4949C27.7572 10.4949 27.0639 13.7107 22.7585 14.5512C22.7951 14.5512 28.4503 16.4879 31.8069 10.7872Z" fill="#808085"/>
    <path d="M33.558 39.9486C35.8931 38.1214 37.6444 35.5999 38.4471 32.7496C38.4836 32.64 38.812 32.4572 39.0309 32.3111C39.3957 32.0918 39.7606 31.9091 39.8336 31.6167C39.9795 30.7762 40.0524 29.8992 40.0524 29.0222C40.0524 28.6933 39.7241 28.3644 39.3957 28.0355C39.1403 27.8163 38.8849 27.5604 38.8849 27.3778C38.5201 24.0523 36.9877 20.9462 34.5432 18.6806L34.2878 18.9364C36.6594 21.1655 38.1917 24.1986 38.5201 27.4143C38.5565 27.7067 38.8484 27.999 39.1403 28.2914C39.3957 28.5106 39.6876 28.8395 39.6876 28.9856C39.6876 29.8261 39.6147 30.6666 39.4687 31.5071C39.4322 31.6532 39.1038 31.7995 38.8484 31.9456C38.4836 32.1284 38.1552 32.3111 38.0823 32.6035C37.2067 35.7095 35.1999 38.4138 32.5365 40.1678C33.0108 39.1446 34.5066 35.8192 35.3094 34.1382L35.1635 28.7298L30.5298 24.2351L27.9028 24.6005L25.0205 29.278C25.0205 29.278 26.3705 30.9955 24.4732 33.0054C22.6125 34.9787 21.153 35.4172 21.153 35.4172L19.803 34.6864C20.2043 34.1748 21.007 33.4073 21.6273 32.8958C22.6854 32.0188 23.7435 31.9456 23.7435 30.9955C23.78 29.0222 21.6638 29.5703 21.6638 29.5703L20.8976 30.3012L20.5693 33.0054L18.9639 35.0153L18.7815 34.9787L16.1545 34.394C16.1545 34.394 17.7598 33.5535 18.0153 32.6035C18.2707 31.6899 17.5044 28.6568 17.468 28.4741C17.5044 28.5106 18.2342 29.1319 18.5626 30.155C19.1463 28.5472 19.9124 27.0124 20.1314 26.8662C20.3503 26.7201 23.3056 25.1486 23.3056 25.1486L22.3206 27.7432L23.0502 27.3413L24.8015 23.0292C24.8015 23.0292 26.5164 22.1887 27.7933 22.1887C30.0919 22.1522 33.4851 19.3383 31.9527 14.2954C32.3905 14.4782 39.9795 18.2786 41.293 25.7333C42.2781 31.4706 39.0309 36.8424 33.558 39.9486Z" fill="#808085" fill-opacity="0.3"/>
    <path fill-rule="evenodd" clip-rule="evenodd" d="M38.3379 8.11964C38.3379 8.11964 40.1621 8.19272 42.0593 8.41198C37.7906 5.05004 33.7407 4.06337 30.457 4.06337C25.965 4.06337 22.9118 5.90056 22.6899 6.03408L22.6856 6.03669L24.1085 3.77103C24.1085 3.77103 18.4167 3.22288 16.41 9.25246C15.8993 7.97347 15.4249 6.10978 15.4249 6.10978C15.4249 6.10978 12.4696 8.70433 13.8561 13.0164C10.4629 11.7739 5.61036 10.0564 5.42794 10.0199C5.17254 9.98332 5.09957 10.093 5.09957 10.093C5.09957 10.093 5.02659 10.2026 5.24551 10.3853C5.64684 10.7142 13.3088 16.3784 14.9871 17.4746C14.6223 18.7902 14.6223 19.4114 14.9871 20.0326C15.4979 20.8731 15.5344 21.3116 15.4614 21.9329C15.3885 22.5541 14.7317 27.9259 14.5858 28.5836C14.5269 28.8491 14.2421 29.3885 13.9282 29.9831H13.9282C13.4643 30.8616 12.9369 31.8604 12.9804 32.2745C13.0534 32.9688 14.002 35.9287 14.8412 36.2577C15.4614 36.4769 16.9939 36.952 18.0154 36.952C18.3802 36.952 18.7086 36.8789 18.8546 36.7327C19.4748 36.1846 19.6573 36.075 20.0951 36.075H20.2046C20.2881 36.075 20.3792 36.0827 20.478 36.0909H20.4781C20.5952 36.1008 20.7229 36.1115 20.8613 36.1115C21.4451 36.1115 22.2112 36.0019 22.7585 35.4903C23.1369 35.1113 23.6449 34.6674 24.1223 34.2504C24.6575 33.7828 25.1541 33.3489 25.3855 33.0785C25.9328 32.3841 26.2246 31.434 26.0788 30.4839C25.9692 29.6069 26.4436 28.8394 26.9909 28.0721C27.6841 27.1584 28.961 25.5141 28.961 25.5141C31.4785 27.4143 33.0474 30.3012 33.0474 33.5169C33.0474 39.2177 28.0855 43.822 21.9559 43.822C21.0072 43.822 20.0951 43.7124 19.183 43.4931C21.9924 44.4799 24.3639 44.8087 26.2976 44.8087C30.4204 44.8087 32.6096 43.3105 32.6096 43.3105C32.6096 43.3105 31.8434 44.2971 30.6029 45.43H30.6394C37.4622 44.4799 40.7824 38.8522 40.7824 38.8522C40.7824 38.8522 40.5269 40.6794 40.1986 41.9218C49.0523 35.2622 47.8223 26.9715 47.7201 26.2831L47.7172 26.2635C47.7161 26.2555 47.7152 26.2493 47.7146 26.2449C47.7598 26.3127 48.1262 26.7583 48.5113 27.2267L48.5114 27.2268L48.5115 27.2269L48.5117 27.227L48.513 27.2287C48.7498 27.5167 48.9936 27.8132 49.174 28.0355C50.6335 12.9798 38.3379 8.11964 38.3379 8.11964ZM24.3639 32.1649C24.2515 32.3056 23.8578 32.6631 23.4826 33.0036C23.3707 33.1052 23.2604 33.2053 23.1599 33.2977C23.0078 33.4374 22.8512 33.5771 22.6965 33.7152L22.6963 33.7153H22.6962C22.4056 33.9747 22.1209 34.2287 21.8829 34.467C21.737 34.6133 21.4451 34.6863 21.0072 34.6863H20.6059H20.387H20.2411H19.9126C20.4599 33.9555 22.0653 32.2745 22.6126 31.9091C23.2693 31.4705 23.5977 31.0321 23.1964 30.2646C22.795 29.4972 21.737 29.6799 21.737 29.6799C21.737 29.6799 22.3572 29.4241 22.9045 29.4241C22.2112 29.2415 21.3356 29.4241 20.9343 29.8262C20.6424 30.0941 20.5776 30.8168 20.5126 31.5396C20.4803 31.901 20.4478 32.2624 20.387 32.5669C20.2236 33.4177 19.7091 33.8876 18.9221 34.6064L18.9214 34.607L18.921 34.6074L18.9186 34.6095L18.9181 34.61C18.8275 34.6928 18.7333 34.7788 18.6357 34.8691C18.1248 35.3441 17.76 35.4903 17.4681 35.4903C16.8479 35.3807 16.1181 35.1979 15.6074 35.0152C15.2425 34.5402 14.6952 32.9688 14.5493 32.311C14.6281 32.0481 14.8769 31.5769 15.0918 31.17L15.0919 31.1698L15.0921 31.1695C15.1756 31.0111 15.2541 30.8626 15.3155 30.7397L15.3763 30.623C15.7771 29.8545 16.0122 29.4034 16.0817 28.9857C16.2276 28.3645 16.702 24.5274 16.8844 22.9195C17.3587 23.5407 18.0154 24.564 17.8695 25.2217C18.9275 23.7235 18.1614 22.2618 17.7965 21.6771C17.4681 21.0924 17.0304 19.923 17.3952 18.6805C17.76 17.4381 19.0735 14.003 19.0735 14.003C19.0735 14.003 19.5113 14.7704 20.1316 14.6243C20.7518 14.4781 25.7503 6.95027 25.7503 6.95027C25.7503 6.95027 27.1003 9.91024 25.6773 12.0663C24.2179 14.2223 22.795 14.6243 22.795 14.6243C22.795 14.6243 24.8017 14.9897 26.6625 13.6376C27.4286 15.4282 28.1584 17.2919 28.1949 17.5478C28.1764 17.5909 28.1195 17.7267 28.0369 17.9238L28.0364 17.9248L28.0362 17.9253L28.0361 17.9256L28.036 17.926C27.6287 18.8978 26.6013 21.3488 26.4801 21.5309C26.4071 21.6039 25.8963 21.7501 25.5315 21.8232C24.9112 22.006 24.5463 22.1155 24.4004 22.2252C24.145 22.4444 22.9774 25.6602 22.4302 27.2316C21.7734 27.4143 21.1167 27.7798 20.6424 28.5106C20.8978 28.3278 21.7005 28.2182 22.2843 28.1452C22.795 28.1086 24.3639 28.9491 24.7652 30.5204V30.5935C24.8382 31.1782 24.6558 31.7264 24.3639 32.1649ZM20.9343 32.6034C21.1927 32.2295 21.2251 31.6521 21.245 31.2982C21.2504 31.2025 21.2548 31.1231 21.2626 31.0686C21.2991 30.8128 21.3721 30.3377 21.664 30.2646C21.9559 30.1916 22.6491 30.3012 22.6491 30.8128C22.6491 31.1399 22.4069 31.2938 22.1369 31.4653C22.0148 31.5428 21.8871 31.624 21.7734 31.7264C21.607 31.8931 21.3322 32.1837 21.1407 32.3864L21.1406 32.3865C21.0382 32.4948 20.9597 32.5779 20.9343 32.6034ZM35.492 25.6237C35.8568 23.76 35.8933 22.1521 35.7839 20.8366C37.2068 22.7368 38.0825 25.039 38.3379 27.4143C38.3743 27.7066 38.6662 27.9989 38.9581 28.2913C39.2135 28.5106 39.5054 28.8029 39.5054 28.9857C39.5054 29.8262 39.4324 30.6666 39.2865 31.5071C39.2519 31.611 38.955 31.7806 38.7067 31.9225L38.6662 31.9456C38.3013 32.1283 37.9729 32.311 37.9 32.6034C37.0973 35.4172 35.3825 37.9021 33.084 39.6562C36.477 36.1115 38.1189 30.2646 35.492 25.6237ZM33.1934 39.985C35.5649 38.1579 37.3892 35.5999 38.1919 32.713C38.2201 32.6282 38.4228 32.4998 38.6145 32.3783L38.6146 32.3782L38.6155 32.3776L38.6159 32.3775L38.6166 32.377C38.6721 32.3418 38.7266 32.3073 38.7756 32.2745C39.1405 32.0918 39.5054 31.8726 39.5783 31.5802C39.7242 30.7397 39.7973 29.8627 39.7973 28.9857C39.7973 28.6568 39.4689 28.3278 39.1405 27.9989C39.0944 27.9436 39.0414 27.886 38.9879 27.8278V27.8277C38.8293 27.6553 38.6662 27.4778 38.6662 27.3412C38.3743 24.6736 37.3162 22.1521 35.6744 20.0691C34.9565 15.7548 32.1196 14.3764 31.9586 14.2982C31.956 14.2969 31.954 14.296 31.9529 14.2953L31.9573 14.3021C32.082 14.4872 33.9035 17.1939 32.6096 20.3615C31.403 23.2683 28.5061 23.1684 27.6958 23.1405C27.5994 23.1372 27.5326 23.1349 27.5017 23.1388C27.2098 23.1388 26.0788 24.6005 24.6558 27.3047C24.4733 27.2316 23.7071 27.0489 22.8314 27.1951C23.4883 25.3679 24.4733 22.7733 24.6558 22.5541C24.714 22.4959 25.0732 22.3912 25.4014 22.2956C25.4851 22.2712 25.5667 22.2475 25.6409 22.2252C26.3341 22.0425 26.6625 21.9329 26.7719 21.7867C26.8449 21.6771 27.2097 20.8366 27.5746 19.9596C27.903 19.9596 28.7422 19.8865 28.8151 19.8499C28.8881 19.7768 29.5814 17.9862 29.5814 17.7669C29.5814 17.5843 28.1584 14.0396 27.6111 12.6875C27.8665 12.3952 28.1219 12.0297 28.3772 11.6278C35.8568 12.4317 41.6945 18.7902 41.6945 26.5007C41.6945 32.4206 38.2283 37.5732 33.1934 39.985ZM25.3855 9.1428C25.3855 9.1428 25.7139 10.6045 24.8747 11.5912C23.8166 12.7971 22.9045 12.7606 22.941 12.7606L25.3855 9.1428ZM16.9573 29.8992L16.6654 31.361C16.6654 31.361 17.2492 31.2879 17.2492 31.9456C17.2492 32.4573 16.6654 33.1515 16.1912 33.1881C15.7168 33.2247 15.5345 32.64 15.6439 32.311C15.7533 32.0187 16.9573 29.8992 16.9573 29.8992ZM22.5397 17.6939C23.8166 17.9497 24.1815 19.4479 23.4883 20.2519C22.795 21.0192 21.0437 22.1155 20.0221 22.3714C19.8032 23.2119 17.9425 22.8465 18.6357 20.1787C18.6357 20.1787 18.964 21.4578 19.2924 21.3481C19.6208 21.2385 23.3423 15.3917 23.3423 15.3917C23.3423 15.3917 22.868 16.9264 22.5397 17.6939ZM22.2112 18.4248L20.314 21.6771C20.314 21.6771 22.0653 20.8731 22.7585 19.85C23.3058 18.9729 22.2112 18.4248 22.2112 18.4248ZM21.9559 5.05006C18.6721 7.02337 19.329 11.7374 19.329 11.7374C16.3335 7.16743 21.2185 5.32829 21.89 5.07547V5.07546L21.8901 5.07545V5.07543C21.9219 5.06344 21.9443 5.05502 21.9559 5.05006ZM37.8635 6.98689C32.4271 5.96368 28.9245 6.47528 26.4071 7.4254C26.3342 7.13306 26.0788 6.54837 25.8598 6.07332C25.1219 6.9531 24.3502 8.00232 23.838 8.69883L23.7802 8.77749C22.3937 9.7276 21.8099 10.6412 21.8099 10.6412C22.6126 7.90046 24.9477 5.85405 27.7936 5.34245C28.5962 5.19627 29.4718 5.12319 30.4205 5.12319C32.938 5.15973 35.4555 5.78097 37.8635 6.98689ZM39.0311 13.4915C44.1755 16.8899 46.5106 20.6538 48.1524 25.0755C48.0794 20.398 46.5106 16.3783 43.4823 13.1625L43.4093 13.0894C40.7459 10.2757 36.842 8.96011 32.9744 9.50825C31.515 9.69097 30.0556 9.98331 28.9245 10.3487C28.7422 10.3853 28.5597 10.4218 28.3774 10.4949H28.4503C28.7422 10.4584 34.069 10.2026 39.0311 13.4915ZM41.8769 38.9619C42.6066 38.231 43.2268 37.4636 43.7741 36.7327C46.9119 32.3476 46.4741 26.3181 42.862 22.2983C42.5701 21.9694 42.2418 21.6039 41.9134 21.275C42.0959 21.6039 46.5836 29.8992 41.8769 38.9619ZM14.9781 8.62969C14.8396 9.15906 13.6096 13.861 17.76 14.0031C15.2791 12.5049 14.9871 8.63131 14.9871 8.59477C14.9851 8.60288 14.9821 8.61459 14.9781 8.62969ZM16.7385 16.3052C16.9938 15.8302 16.7749 15.5014 16.556 15.3186L16.4831 15.2455C16.0452 15.0263 13.3088 14.003 10.6089 13.0529C12.9804 14.6243 15.6074 16.1591 16.0452 16.3784C16.3735 16.5245 16.5925 16.561 16.7385 16.3052Z" fill="#808085"/>
</svg>
