<svg width="142" height="40" viewBox="0 0 142 40" fill="none" xmlns="http://www.w3.org/2000/svg">
    <path d="M19.4929 23.3638C20.6706 23.6712 23.2446 24.343 23.6538 22.718C24.0731 21.0565 21.5768 20.5029 20.3587 20.2328C20.2226 20.2026 20.1024 20.176 20.0041 20.1517L19.2115 23.2916C19.2923 23.3114 19.3869 23.3361 19.4929 23.3638Z" fill="#808085"/>
    <path d="M20.6035 18.7757C21.5854 19.0346 23.7272 19.5995 24.1002 18.1225C24.4812 16.6118 22.3996 16.1564 21.3829 15.934C21.2686 15.909 21.1677 15.8869 21.0853 15.8666L20.3667 18.7144C20.4346 18.7311 20.5142 18.7522 20.6035 18.7757Z" fill="#808085"/>
    <path fill-rule="evenodd" clip-rule="evenodd" d="M17.9704 32.6108C25.0187 34.3475 32.1565 30.1091 33.9135 23.1449C35.6705 16.1802 31.382 9.12531 24.3342 7.38902C17.288 5.65272 10.1502 9.89149 8.39402 16.8566C6.63618 23.8204 10.9251 30.8745 17.9704 32.6108ZM24.0583 14.8681C25.8807 15.4884 27.2135 16.4183 26.9516 18.1481C26.7621 19.4144 26.0517 20.0274 25.1087 20.2423C26.4036 20.9086 27.0626 21.9303 26.4348 23.7015C25.6558 25.9013 23.8051 26.087 21.3439 25.6267L20.7465 27.9923L19.3032 27.6368L19.8927 25.3029C19.5186 25.2111 19.1363 25.1136 18.7425 25.008L18.1509 27.3528L16.7092 26.9974L17.3065 24.6273C17.1718 24.5932 17.0362 24.5583 16.8996 24.5231C16.6946 24.4703 16.4873 24.4168 16.2775 24.3649L14.3993 23.9022L15.1158 22.2695C15.1158 22.2695 16.1793 22.549 16.1649 22.5283C16.5735 22.6282 16.7548 22.365 16.8263 22.1895L17.7702 18.45C17.8056 18.4584 17.8403 18.467 17.8738 18.4753C17.8904 18.4794 17.9068 18.4834 17.9227 18.4873C17.8652 18.4646 17.813 18.45 17.7727 18.4398L18.4461 15.7704C18.4637 15.4673 18.3581 15.085 17.7735 14.9408C17.7961 14.9258 16.7252 14.6833 16.7252 14.6833L17.1092 13.1598L19.0997 13.651L19.0981 13.6583C19.3973 13.7318 19.7057 13.8017 20.0197 13.8724L20.6113 11.53L22.0538 11.8854L21.4742 14.1819C21.8614 14.2693 22.2511 14.3574 22.6306 14.4509L23.2061 12.1694L24.6495 12.5249L24.0583 14.8681Z" fill="#808085"/>
    <path d="M46.5489 14.8672C47.6156 14.8672 48.5373 15.0561 49.3118 15.427C50.09 15.8016 50.7322 16.3061 51.2473 16.9407C51.7554 17.5785 52.1336 18.3239 52.3778 19.1783C52.6203 20.035 52.742 20.956 52.742 21.942C52.742 23.4564 52.4612 24.8872 51.8943 26.236C51.3274 27.5867 50.5583 28.7584 49.5799 29.7577C48.6023 30.7559 47.4479 31.5428 46.1168 32.1241C44.7877 32.7058 43.3427 32.9967 41.7913 32.9967C41.5907 32.9967 41.2379 32.991 40.7397 32.9809C40.2415 32.9707 39.6688 32.9199 39.0275 32.8342C38.3821 32.7453 37.6997 32.6136 36.979 32.4373C36.2588 32.2643 35.5747 32.0217 34.9305 31.7138L40.6908 7.79566L45.85 7.00552L43.7875 15.4932C44.2291 15.2966 44.6739 15.1442 45.1178 15.0333C45.5622 14.9241 46.0391 14.8672 46.5489 14.8672ZM42.2213 28.9521C42.9982 28.9521 43.7304 28.7632 44.4182 28.3923C45.108 28.021 45.7032 27.5197 46.2019 26.8953C46.7006 26.2681 47.0952 25.5616 47.383 24.7723C47.6707 23.9829 47.8163 23.1595 47.8163 22.3027C47.8163 21.2501 47.6383 20.4291 47.2835 19.8356C46.9287 19.2445 46.2722 18.9471 45.3189 18.9471C45.0064 18.9471 44.604 19.006 44.1049 19.1112C43.6042 19.223 43.1561 19.4549 42.7545 19.8039L40.5584 28.8177C40.6908 28.8408 40.8079 28.8628 40.9078 28.8835C41.0057 28.9058 41.1138 28.9217 41.2215 28.9326C41.3354 28.9452 41.4657 28.9517 41.6231 28.9517C41.7806 28.9517 41.9775 28.9521 42.2213 28.9521Z" fill="#808085"/>
    <path d="M58.0936 32.5369H53.1658L57.3273 15.232H62.2888L58.0936 32.5369ZM60.4915 13.1236C59.8038 13.1236 59.1801 12.9213 58.6268 12.5158C58.0689 12.1128 57.7927 11.4925 57.7927 10.6564C57.7927 10.1966 57.8872 9.76514 58.0747 9.35809C58.265 8.95184 58.5137 8.60206 58.8253 8.30469C59.1365 8.00976 59.4971 7.77413 59.9065 7.5966C60.3184 7.42192 60.7567 7.33458 61.2237 7.33458C61.911 7.33458 62.5314 7.53689 63.0867 7.94232C63.6401 8.34978 63.9184 8.97012 63.9184 9.80171C63.9184 10.2632 63.8243 10.6963 63.6351 11.1025C63.4473 11.5088 63.1986 11.8585 62.887 12.1559C62.5782 12.4512 62.2144 12.6861 61.8058 12.862C61.3935 13.0395 60.9569 13.1236 60.4915 13.1236Z" fill="#808085"/>
    <path d="M66.6065 10.9213L71.7678 10.1312L70.5004 15.232H76.028L75.0299 19.2449H69.5356L68.0721 25.298C67.9373 25.8025 67.8608 26.2738 67.8394 26.7117C67.8152 27.1517 67.8715 27.5295 68.0047 27.8476C68.137 28.1665 68.3751 28.4122 68.7204 28.5861C69.0641 28.7628 69.5561 28.8518 70.2016 28.8518C70.7331 28.8518 71.2511 28.8018 71.7518 28.7027C72.2496 28.6052 72.754 28.4695 73.2646 28.292L73.6321 32.0441C72.9662 32.2854 72.2451 32.493 71.4681 32.6677C70.6899 32.8448 69.7687 32.9301 68.7039 32.9301C67.173 32.9301 65.9862 32.7054 65.1406 32.2582C64.2962 31.8076 63.6993 31.1922 63.342 30.413C62.9897 29.6367 62.8323 28.7417 62.8763 27.7334C62.9219 26.7227 63.0761 25.6603 63.342 24.5415L66.6065 10.9213Z" fill="#808085"/>
    <path d="M75.8105 25.6286C75.8105 24.1381 76.0547 22.7325 76.5427 21.4167C77.0298 20.0996 77.7315 18.9479 78.6421 17.9595C79.5494 16.976 80.6548 16.1968 81.9559 15.6248C83.2509 15.0561 84.7008 14.7693 86.2987 14.7693C87.2989 14.7693 88.1922 14.8627 88.9783 15.05C89.7676 15.2389 90.4816 15.4831 91.1275 15.7894L89.428 19.6081C88.984 19.4301 88.5232 19.2733 88.0467 19.1311C87.5699 18.9861 86.9877 18.9162 86.2992 18.9162C84.6544 18.9162 83.3541 19.4765 82.3864 20.5932C81.4223 21.7108 80.9369 23.2151 80.9369 25.1021C80.9369 26.2205 81.181 27.1248 81.6711 27.8167C82.1586 28.5085 83.0593 28.8526 84.367 28.8526C85.0124 28.8526 85.6352 28.786 86.2317 28.656C86.8328 28.5244 87.3635 28.3586 87.8309 28.1628L88.1988 32.0774C87.5756 32.3163 86.8883 32.532 86.1343 32.7209C85.3787 32.9033 84.4792 32.9979 83.4363 32.9979C82.0595 32.9979 80.8941 32.7989 79.9408 32.4069C78.987 32.0087 78.199 31.4802 77.5782 30.8107C76.9542 30.1396 76.5061 29.3559 76.229 28.4565C75.9519 27.5579 75.8105 26.6138 75.8105 25.6286Z" fill="#808085"/>
    <path d="M97.7004 32.9971C96.5243 32.9971 95.5027 32.82 94.6361 32.4694C93.772 32.1188 93.0563 31.6269 92.4902 30.9891C91.9233 30.3545 91.4991 29.6025 91.2085 28.736C90.9178 27.8699 90.778 26.9107 90.778 25.8598C90.778 24.5415 90.9922 23.2237 91.4251 21.9095C91.8559 20.5924 92.4952 19.409 93.3412 18.3572C94.1807 17.3038 95.2162 16.4426 96.4355 15.7711C97.6536 15.104 99.0546 14.7685 100.628 14.7685C101.783 14.7685 102.799 14.946 103.678 15.2966C104.552 15.6464 105.272 16.1424 105.842 16.7769C106.405 17.4148 106.833 18.1635 107.121 19.0312C107.41 19.8957 107.554 20.8573 107.554 21.9091C107.554 23.2233 107.342 24.5411 106.923 25.8594C106.503 27.1712 105.88 28.3574 105.058 29.4116C104.238 30.4634 103.212 31.3242 101.979 31.9929C100.748 32.6616 99.321 32.9971 97.7004 32.9971ZM100.163 18.9158C99.4328 18.9158 98.787 19.1255 98.234 19.5394C97.6791 19.9583 97.2129 20.4848 96.8371 21.1197C96.4573 21.7575 96.1757 22.453 95.9854 23.209C95.7967 23.9667 95.7042 24.6829 95.7042 25.3634C95.7042 26.4614 95.8834 27.3166 96.2357 27.9321C96.593 28.5443 97.2347 28.8522 98.1674 28.8522C98.9004 28.8522 99.543 28.6442 100.099 28.2258C100.651 27.8102 101.117 27.2833 101.496 26.6471C101.873 26.0125 102.158 25.315 102.348 24.5578C102.534 23.8026 102.629 23.0823 102.629 22.403C102.629 21.3078 102.451 20.4506 102.095 19.836C101.74 19.2238 101.095 18.9158 100.163 18.9158Z" fill="#808085"/>
    <path d="M112.925 32.5369H107.993L112.155 15.232H117.118L112.925 32.5369ZM115.319 13.1236C114.632 13.1236 114.009 12.9213 113.456 12.5158C112.901 12.1128 112.622 11.4925 112.622 10.6564C112.622 10.1966 112.718 9.76514 112.906 9.35809C113.094 8.95184 113.344 8.60206 113.656 8.30469C113.965 8.00976 114.329 7.77413 114.738 7.5966C115.147 7.42192 115.585 7.33458 116.051 7.33458C116.74 7.33458 117.362 7.53689 117.916 7.94232C118.471 8.34978 118.751 8.97012 118.751 9.80171C118.751 10.2632 118.651 10.6963 118.465 11.1025C118.279 11.5088 118.029 11.8585 117.718 12.1559C117.406 12.4512 117.047 12.6861 116.637 12.862C116.224 13.0395 115.787 13.1236 115.319 13.1236Z" fill="#808085"/>
    <path d="M120.668 16.0205C121.042 15.9125 121.46 15.7825 121.914 15.6411C122.37 15.4997 122.879 15.3681 123.448 15.2495C124.011 15.1272 124.646 15.0281 125.344 14.9513C126.043 14.8729 126.839 14.8347 127.723 14.8347C130.322 14.8347 132.114 15.5826 133.103 17.0739C134.091 18.5652 134.262 20.6062 133.621 23.1932L131.354 32.5368H126.394L128.59 23.3898C128.724 22.8186 128.83 22.2665 128.907 21.7271C128.986 21.1924 128.981 20.7212 128.89 20.3133C128.802 19.9103 128.596 19.5804 128.276 19.3249C127.95 19.0735 127.459 18.9471 126.793 18.9471C126.15 18.9471 125.497 19.0154 124.829 19.147L121.599 32.5364H116.637L120.668 16.0205Z" fill="#808085"/>
</svg>
