<svg width="239" height="52" viewBox="0 0 239 52" fill="none" xmlns="http://www.w3.org/2000/svg">
    <path d="M118.503 35.503C118.788 35.5206 119.433 35.5604 120.293 35.5604C121.991 35.5604 124.527 35.3858 126.534 34.6656C126.71 34.5783 126.799 34.3819 126.732 34.2073C126.644 34.0327 126.446 33.9454 126.269 34.0109C123.298 35.1578 118.877 34.8502 118.451 34.8205L118.428 34.819L118.423 34.8186C118.42 34.8185 118.419 34.8184 118.418 34.8184C118.372 34.8112 118.324 34.8134 118.279 34.825C118.233 34.8365 118.191 34.8571 118.154 34.8856C118.117 34.914 118.086 34.9496 118.063 34.9903C118.041 35.0309 118.027 35.0757 118.022 35.1219C118.018 35.1681 118.023 35.2147 118.037 35.2589C118.051 35.3031 118.075 35.3439 118.106 35.3788C118.136 35.4138 118.174 35.4421 118.217 35.462C118.259 35.482 118.305 35.4932 118.352 35.4949C118.371 35.4949 118.423 35.4981 118.503 35.503Z" fill="#808085"/>
    <path d="M115.11 11.62H127.328C127.328 11.62 118.573 10.6598 115.11 11.62Z" fill="#808085"/>
    <path d="M118.065 13.0822H124.174C124.174 13.0822 119.786 12.4057 118.065 13.0822Z" fill="#808085"/>
    <path d="M110.655 18.1016C111.581 17.9488 113.853 17.687 116.036 18.058C116.147 18.0798 116.191 17.927 116.081 17.8834C115.066 17.4033 112.772 16.6394 110.589 17.927C110.523 17.9925 110.567 18.1234 110.655 18.1016Z" fill="#808085"/>
    <path d="M125.564 18.058C127.747 17.687 130.019 17.9488 130.945 18.1016C131.055 18.1234 131.099 17.9925 131.011 17.927C128.828 16.6394 126.534 17.4033 125.52 17.8834C125.409 17.927 125.453 18.0798 125.564 18.058Z" fill="#808085"/>
    <path d="M119.94 26.1981C119.631 26.3291 119.344 26.5036 119.146 26.7655C119.08 26.8528 119.058 26.9619 119.168 27.0492C119.234 27.1583 119.389 27.202 119.521 27.1365C119.945 26.8749 120.433 26.7317 120.932 26.7219C121.432 26.7317 121.92 26.8749 122.344 27.1365C122.432 27.1802 122.542 27.1802 122.631 27.1147C122.741 27.0274 122.763 26.8746 122.675 26.7655C122.476 26.5255 122.189 26.3291 121.881 26.1981C121.574 26.0681 121.244 26.001 120.91 26.001C120.577 26.001 120.247 26.0681 119.94 26.1981Z" fill="#808085"/>
    <path d="M122.278 29.2098H124.196C124.307 28.9479 124.152 28.5987 123.888 28.4678C123.623 28.315 123.314 28.3368 123.027 28.4459C122.776 28.5415 122.576 28.6874 122.367 28.8395L122.312 28.8794L122.298 28.8895L122.278 28.9042C122.211 28.9479 122.145 29.0133 122.123 29.1006C122.079 29.1661 122.189 29.2316 122.278 29.2098Z" fill="#808085"/>
    <path d="M117.624 29.2098H119.543C119.631 29.2316 119.741 29.1661 119.697 29.1006C119.675 29.0133 119.609 28.9479 119.543 28.9042C119.513 28.8826 119.483 28.861 119.454 28.8395C119.245 28.6874 119.044 28.5415 118.793 28.4459C118.506 28.3368 118.198 28.315 117.933 28.4678C117.668 28.5987 117.514 28.9479 117.624 29.2098Z" fill="#808085"/>
    <path fill-rule="evenodd" clip-rule="evenodd" d="M108.053 31.8742C109.246 38.6318 114.334 43.4168 120.8 43.4168C127.193 43.4168 132.24 38.7384 133.491 32.0864C134.907 32.7393 135.911 32.767 136.061 32.767C136.238 32.767 136.392 32.6797 136.458 32.5924C136.546 32.4396 136.546 32.265 136.48 32.1123C136.48 32.1074 136.449 32.0418 136.393 31.9245C136.258 31.6405 135.979 31.0542 135.65 30.2967C135.789 30.0702 135.863 29.8255 135.863 29.5807V29.3415L138.156 29.9299C138.377 29.9736 138.597 29.8863 138.708 29.6899C138.818 29.4935 138.774 29.2534 138.62 29.1006C137.98 28.4896 137.362 27.4639 136.789 26.089C139.48 27.1583 141.531 27.3111 141.619 27.3111C141.839 27.3111 142.016 27.202 142.104 27.0056C142.192 26.8092 142.148 26.5909 141.994 26.46L141.99 26.4566L141.974 26.4414C141.74 26.2248 139.526 24.1711 138.289 22.5318L141.619 22.7064C141.839 22.7064 142.038 22.5754 142.104 22.3572C142.17 22.1389 142.104 21.8989 141.906 21.7898C140.031 20.6113 139.7 16.3121 139.744 14.7408V14.6753C139.017 8.54294 135.466 5.88048 132.621 4.70201C132.084 4.48037 131.553 4.30356 131.042 4.16267C128.116 1.66846 124.447 0.342985 120.557 0.402819C117.173 0.45817 113.917 1.59037 111.257 3.60206C110.655 3.75433 110.02 3.9558 109.376 4.22191C106.531 5.37855 102.98 8.06283 102.252 14.1952V14.2607C102.296 15.832 101.966 20.1312 100.091 21.3097C99.9146 21.4406 99.8264 21.6588 99.8926 21.8771C99.9587 22.0953 100.157 22.2481 100.378 22.2263L103.472 22.064C103.463 22.1693 103.456 22.2745 103.452 22.3794C102.188 23.9531 100.24 25.7595 100.023 25.9614L100.007 25.9757L100.003 25.9799C99.8485 26.1108 99.8044 26.3291 99.8926 26.5255C99.9808 26.7219 100.179 26.8528 100.378 26.831C100.479 26.831 102.204 26.7018 104.573 25.849C104.671 26.0378 104.76 26.2335 104.839 26.4325C104.372 27.3985 103.882 28.1385 103.377 28.6205C103.223 28.7733 103.179 29.0133 103.289 29.2098C103.399 29.4062 103.62 29.5153 103.84 29.4498L105.624 28.9922C105.625 29.0027 105.625 29.0133 105.626 29.0242C105.626 29.0349 105.627 29.0458 105.627 29.057V29.5808C105.635 29.9277 105.768 30.2603 106.002 30.5192L106.007 30.5253L106.015 30.5339L106.024 30.5436C105.84 30.9473 105.692 31.2594 105.604 31.4439C105.548 31.5615 105.516 31.6273 105.516 31.6322C105.45 31.7849 105.45 31.9595 105.538 32.1123C105.627 32.265 105.781 32.3523 105.957 32.3523C106.09 32.3523 106.891 32.3308 108.053 31.8742ZM136.058 28.3191L136.988 28.555C136.76 28.204 136.54 27.8121 136.326 27.3793L136.058 28.3191ZM137.275 25.1623C138.407 25.6053 139.421 25.881 140.185 26.0453C139.512 25.379 138.642 24.4831 137.923 23.6103C137.864 23.8966 137.78 24.1783 137.671 24.4522L137.649 24.4959L137.275 25.1623ZM137.912 21.4697L140.34 21.5934C138.708 19.3455 138.708 15.1773 138.73 14.6972C138.2 10.3336 136.162 7.32121 132.635 5.71813C133.759 6.97974 134.67 8.41618 135.33 9.97208C136.136 11.876 136.55 13.9203 136.547 15.9848C136.547 17.2846 136.389 18.5622 136.073 19.8C136.113 19.8076 136.153 19.8162 136.194 19.8257C137.061 20.0351 137.706 20.6668 137.912 21.4697ZM135.803 20.7323C135.621 21.2911 135.406 21.8406 135.157 22.379C134.231 24.3868 133.79 26.5037 133.79 28.6205V28.7733C133.791 29.1884 133.778 29.5985 133.752 30.0029C134.078 30.2062 134.514 30.1499 134.76 29.8863C134.826 29.8208 134.892 29.7117 134.892 29.6026V29.0788C134.892 28.972 134.903 28.8653 134.921 28.7611C134.545 28.0572 134.478 27.1103 134.738 26.0017C134.981 24.976 135.378 24.0594 135.841 23.4047C135.929 23.2738 136.106 23.252 136.238 23.3393C136.37 23.4266 136.392 23.6011 136.304 23.7321C135.863 24.3431 135.51 25.1943 135.29 26.1327C135.176 26.6097 135.099 27.2131 135.194 27.7804L135.466 26.831C135.62 26.2636 135.841 25.7398 136.127 25.2161L136.767 24.0594C136.811 23.9721 136.833 23.8848 136.855 23.7975C137.032 23.2519 137.076 22.6627 136.988 22.0298L136.943 21.7243C136.833 21.2442 136.48 20.8732 135.951 20.7641C135.902 20.7507 135.852 20.7402 135.803 20.7323ZM133.659 31.0029C133.655 31.0296 133.652 31.0561 133.649 31.0827C134.276 31.3992 134.816 31.5765 135.223 31.6758C135.127 31.4673 135.017 31.2241 134.897 30.9535C134.68 31.0468 134.445 31.0923 134.209 31.0866C134.023 31.0866 133.838 31.058 133.659 31.0029ZM101.811 25.6307C102.337 25.1104 102.983 24.4501 103.583 23.7702C103.607 23.8752 103.634 23.979 103.664 24.0812C103.708 24.2122 103.752 24.3431 103.796 24.4522L104.097 24.9895C103.217 25.2985 102.432 25.4973 101.811 25.6307ZM101.657 21.1787L103.688 21.0753C103.974 20.4529 104.545 19.9797 105.274 19.8039C105.348 19.7863 105.423 19.772 105.497 19.7609C105.173 18.48 105.016 17.1597 105.031 15.832C105.074 11.8951 106.594 8.18161 109.335 5.31849C105.819 6.91982 103.776 9.93378 103.267 14.2825L103.267 14.3006C103.267 14.8411 103.269 18.9579 101.657 21.1787ZM105.516 20.7859C105.603 20.7623 105.691 20.7474 105.78 20.741C105.956 21.2821 106.162 21.8144 106.399 22.3354C107.325 24.3868 107.788 26.5255 107.788 28.7297V28.7951C107.788 29.1832 107.8 29.5669 107.824 29.9457L107.788 29.9736C107.457 30.2355 106.972 30.1918 106.707 29.9081C106.641 29.8426 106.575 29.7335 106.575 29.6244V29.1006C106.575 29.0165 106.572 28.9324 106.563 28.8495C106.983 28.1374 107.067 27.1574 106.796 26.0017C106.575 24.9979 106.178 24.0594 105.693 23.4047C105.605 23.2738 105.428 23.252 105.296 23.3393C105.164 23.4266 105.141 23.6011 105.23 23.7321C105.671 24.3213 106.024 25.1943 106.244 26.1327C106.352 26.65 106.438 27.3157 106.308 27.923L106.002 26.8528C105.847 26.2854 105.627 25.7398 105.34 25.2379L104.7 24.0812C104.689 24.0376 104.673 23.9939 104.656 23.9503C104.64 23.9067 104.623 23.863 104.612 23.8194C104.436 23.2738 104.392 22.6845 104.48 22.0517L104.524 21.7461C104.612 21.266 104.987 20.9168 105.516 20.7859ZM107.315 31.0865L107.327 31.0864C107.132 31.1514 106.954 31.2012 106.796 31.2393C106.825 31.1754 106.856 31.1083 106.888 31.0383C107.024 31.0703 107.163 31.0866 107.303 31.0866L107.315 31.0865ZM105.009 28.1404C105.091 28.0175 105.172 27.8883 105.253 27.7531L105.341 28.056L105.009 28.1404ZM120.579 1.38487H120.8C124.679 1.37248 128.405 2.87876 131.165 5.57498C133.988 8.34656 135.554 12.0347 135.554 15.9848C135.554 17.2278 135.399 18.4402 135.093 19.6172C135.036 19.5612 134.944 19.5259 134.804 19.4983C134.679 19.4765 134.554 19.4571 134.429 19.4377C134.179 19.3989 133.93 19.3601 133.68 19.3019C132.4 18.9746 131.099 18.7127 129.754 18.669C127.262 18.5599 124.836 18.8654 122.41 19.3674C121.572 19.542 120.69 19.6074 119.852 19.4547L119.758 19.438C117.937 19.1163 116.137 18.7981 114.294 18.6909C112.839 18.6036 111.383 18.6036 109.949 18.8654C109.023 19.0182 108.097 19.2146 107.193 19.411C107.125 19.4293 107.051 19.4424 106.975 19.4557C106.784 19.4896 106.588 19.5241 106.491 19.6455C106.169 18.4107 106.011 17.1361 106.024 15.8538C106.059 12.0402 107.613 8.39413 110.346 5.70592C113.081 2.97799 116.72 1.42852 120.579 1.38487ZM134.694 20.8296C134.7 20.8256 134.705 20.8216 134.71 20.8176C134.717 20.8128 134.723 20.808 134.73 20.803C134.589 21.2019 134.43 21.5964 134.253 21.9862C133.842 22.8714 133.518 23.7754 133.281 24.6918C133.37 24.2562 133.415 23.8087 133.415 23.3611C133.415 22.2917 133.834 21.4406 134.694 20.8296ZM130.394 27.7912C131.799 27.3909 132.772 26.5228 133.175 25.128C132.991 25.9364 132.874 26.7537 132.825 27.5757L130.085 30.6283C129.136 31.6758 127.548 31.9813 126.247 31.3703L125.056 30.8029C124.681 30.6283 124.284 30.4973 123.865 30.4537L122.675 30.3228C122.256 30.2791 121.836 30.3009 121.417 30.3882C120.976 30.4755 120.491 30.4755 120.05 30.3882C119.631 30.3009 119.212 30.2791 118.793 30.3228L117.602 30.4537C117.183 30.5192 116.786 30.6283 116.411 30.8029L115.22 31.3703L115.242 31.3921C114.647 31.6322 112.794 32.1778 111.405 30.6283L108.732 27.6725C108.616 25.7038 108.126 23.776 107.303 21.9426C107.125 21.5482 106.965 21.1471 106.824 20.7402C106.903 20.8183 106.99 20.8905 107.082 20.9605C107.766 21.4843 108.163 22.1826 108.185 23.0774C108.185 23.492 108.207 23.9067 108.273 24.3213C108.516 26.1108 109.486 27.3111 111.251 27.8131C112.882 28.2781 114.609 28.3082 116.257 27.9003C117.602 27.573 118.573 26.8092 119.036 25.4998C119.212 25.0197 119.322 24.4959 119.411 23.9939C119.476 23.6938 119.519 23.3937 119.563 23.0961C119.608 22.7879 119.652 22.4824 119.719 22.1826C119.763 21.9207 119.962 21.637 120.16 21.5061C120.844 21.0696 121.726 21.4406 121.947 22.2044L122.013 22.4663C122.05 22.7063 122.082 22.9464 122.113 23.1865C122.177 23.6666 122.241 24.1467 122.344 24.6268C122.675 26.3072 123.623 27.4639 125.343 27.8785C127.019 28.2713 128.717 28.2713 130.394 27.7912ZM128.122 19.8257C127.954 19.8257 127.783 19.8233 127.612 19.8209C127.266 19.816 126.917 19.8111 126.578 19.8257C125.895 19.8693 125.233 19.9784 124.637 20.3058C124.064 20.6331 123.667 21.0914 123.557 21.7461C123.402 22.7064 123.447 23.6666 123.799 24.605C124.174 25.6525 124.902 26.3291 126.005 26.5909C126.777 26.7655 127.571 26.831 128.387 26.7655C129.313 26.7001 130.195 26.5255 131.011 26.0235C131.717 25.5871 132.202 24.976 132.246 24.1467C132.312 23.252 132.29 22.3572 132.268 21.4624C132.246 21.026 132.003 20.6331 131.629 20.4149C131.364 20.2621 131.055 20.0876 130.768 20.0439C129.864 19.8693 128.122 19.782 128.122 19.8257ZM113.566 19.782C113.485 19.782 113.405 19.7796 113.327 19.7771C113.173 19.7723 113.021 19.7676 112.861 19.782C112.747 19.7926 112.633 19.8026 112.519 19.8126L112.518 19.8127C111.927 19.8645 111.342 19.9159 110.787 20.0439C109.817 20.284 109.42 20.8732 109.42 21.8553V23.6666C109.42 23.9285 109.442 24.1904 109.508 24.4304C109.773 25.4561 110.523 26.0235 111.471 26.3727C112.772 26.8528 114.118 26.8528 115.485 26.6128C116.742 26.3945 117.536 25.6525 117.933 24.4741C118.22 23.623 118.264 22.75 118.154 21.8553C118.121 21.5442 118.014 21.2453 117.842 20.9834C117.669 20.7215 117.436 20.5041 117.161 20.3494C116.852 20.1748 116.522 20.0221 116.169 19.9566C115.309 19.8693 113.566 19.7602 113.566 19.782ZM124.828 31.7229L125.988 32.2285C127.364 32.8119 129.185 32.6196 130.195 31.6084L132.952 28.5531C132.909 28.8837 132.909 29.2338 132.909 29.5644V29.7005C132.909 37.1291 127.471 42.3019 120.723 42.3019C113.974 42.3019 108.515 37.1485 108.515 29.7199V29.6616C108.515 29.2922 108.493 28.9228 108.472 28.5535L111.229 31.6084C112.239 32.6196 114.081 32.8314 115.457 32.2285L116.617 31.7229C116.94 31.5674 117.305 31.4701 117.692 31.4312L118.853 31.3146C119.24 31.2562 119.626 31.2757 119.992 31.3534C120.486 31.4507 120.98 31.4507 121.453 31.3534C121.819 31.2951 122.206 31.2757 122.592 31.3146L123.753 31.4312C124.118 31.4896 124.484 31.5674 124.828 31.7229Z" fill="#808085"/>
    <path d="M78.1916 20.7859H74.3321V34.4474H74.2218C72.9868 34.4474 71.9944 33.378 71.9944 32.1341V20.7641H68.1349C66.8778 20.7641 65.8413 19.7384 65.8413 18.4726H80.5072C80.5072 19.7384 79.4707 20.7859 78.1916 20.7859Z" fill="#808085"/>
    <path fill-rule="evenodd" clip-rule="evenodd" d="M88.0056 34.5783C83.0435 34.5783 78.9855 30.8683 78.9855 26.3509C78.9855 21.7898 83.0435 18.1234 88.0056 18.1234C92.9898 18.1234 97.0257 21.8116 97.0257 26.3509C97.0257 30.8683 92.9898 34.5783 88.0056 34.5783ZM88.0056 20.4149C84.3006 20.4149 81.3232 23.0555 81.3232 26.3291C81.3232 29.5807 84.3226 32.2432 88.0056 32.2432C91.7107 32.2432 94.688 29.5807 94.688 26.3291C94.688 23.0774 91.7107 20.4149 88.0056 20.4149Z" fill="#808085"/>
    <path d="M163.695 32.9852C163.32 33.9018 162.592 34.4256 161.776 34.4256C160.916 34.4256 160.211 33.9018 159.858 32.9634L156.947 25.4998L156.925 25.4779C156.903 25.4125 156.858 25.347 156.77 25.347C156.738 25.347 156.706 25.3704 156.665 25.4001L156.65 25.4107C156.639 25.4184 156.628 25.4263 156.616 25.4343L153.683 32.9634C153.352 33.88 152.602 34.4037 151.786 34.4037C150.926 34.4037 150.22 33.88 149.867 32.9416L144.221 18.5163L144.266 18.4944C145.412 18.0361 146.758 18.6254 147.199 19.7384C148.158 22.1429 149.628 25.934 150.694 28.6828L150.698 28.6915L150.699 28.6944C151.15 29.8572 151.528 30.8325 151.764 31.4357L155.315 22.3135C155.557 21.8334 156.109 21.4843 156.748 21.4843C157.41 21.4843 157.983 21.8552 158.204 22.3572C159.009 24.3504 159.913 26.6916 160.641 28.5776C161.109 29.789 161.504 30.8127 161.754 31.4357L166.32 19.7166C166.761 18.6036 168.128 18.058 169.253 18.4944L169.297 18.5163L163.695 32.9852Z" fill="#808085"/>
    <path d="M172.429 34.4474C171.171 34.4474 170.091 33.4435 170.091 32.1777V18.3635C171.348 18.3635 172.429 19.3674 172.429 20.6113V34.4474Z" fill="#808085"/>
    <path d="M186.367 33.3126C184.977 34.0546 183.125 34.4692 181.184 34.4692C179.243 34.4692 177.391 34.0546 176.001 33.3126C174.59 32.5924 173.73 31.5885 173.487 30.4537C174.347 29.9736 175.45 29.9954 176.244 30.6937C177.038 31.4139 178.78 32.1559 181.184 32.1559C184.161 32.1559 186.168 31.0647 186.521 30.1482L186.543 30.1263C186.698 29.7335 186.499 29.057 186.279 28.7515C185.595 27.813 183.875 27.4202 180.765 27.0492C179.133 26.8528 177.457 26.6346 176.134 26.1108C173.928 25.2161 173.465 23.6884 173.465 22.5318C173.465 21.2224 174.391 20.1312 176.067 19.3456C177.457 18.6908 179.287 18.3635 181.206 18.3635C183.125 18.3635 184.955 18.6908 186.345 19.3456C187.668 19.913 188.506 20.7423 188.837 21.6807C188.065 22.3135 186.94 22.4227 186.102 21.8552C185.308 21.3315 183.676 20.6768 181.206 20.6768C177.832 20.6768 176.023 21.8334 175.825 22.4445C175.693 22.8355 175.889 23.2265 176.196 23.5099C176.867 24.1736 178.407 24.4553 181.074 24.8014L181.208 24.8182C182.909 25.031 184.683 25.2529 186.08 25.8271C187.977 26.6564 188.947 27.9876 188.947 29.8863C188.925 31.2612 188.021 32.4833 186.367 33.3126Z" fill="#808085"/>
    <path d="M202.797 33.3126C201.408 34.0546 199.555 34.4692 197.614 34.4692C195.674 34.4692 193.821 34.0546 192.432 33.3126C191.02 32.5924 190.16 31.5885 189.917 30.4537C190.778 29.9736 191.88 29.9954 192.674 30.6937C193.468 31.4139 195.21 32.1559 197.614 32.1559C200.592 32.1559 202.599 31.0647 202.951 30.1482L202.973 30.1263C203.128 29.7335 202.929 29.057 202.709 28.7515C202.025 27.813 200.305 27.4202 197.195 27.0492C195.563 26.8528 193.887 26.6346 192.564 26.1108C190.359 25.2161 189.895 23.6884 189.895 22.5318C189.895 21.2224 190.822 20.1312 192.498 19.3456C193.887 18.6908 195.718 18.3635 197.636 18.3635C199.555 18.3635 201.386 18.6908 202.775 19.3456C204.098 19.913 204.936 20.7423 205.267 21.6807C204.495 22.3135 203.37 22.4227 202.532 21.8552C201.738 21.3315 200.106 20.6768 197.636 20.6768C194.262 20.6768 192.454 21.8334 192.255 22.4445C192.123 22.8355 192.32 23.2265 192.626 23.5099C193.297 24.1736 194.837 24.4553 197.504 24.8014L197.638 24.8182C199.34 25.031 201.113 25.2529 202.51 25.8271C204.407 26.6564 205.377 27.9876 205.377 29.8863C205.355 31.2612 204.451 32.4833 202.797 33.3126Z" fill="#808085"/>
    <path d="M219.448 20.7423H209.568C209.413 20.7423 209.303 20.8732 209.303 21.0041V24.9105H219.955C219.911 26.1108 218.941 27.1583 217.684 27.1583H209.281V31.7849C209.281 31.9377 209.413 32.0468 209.546 32.0468H218.985C220.242 32.0468 221.3 33.0507 221.322 34.3164H209.325C208.068 34.3164 206.987 33.3126 206.987 32.0468V20.7641C206.987 19.5201 208.024 18.4944 209.303 18.4944H221.609C221.609 19.6947 220.661 20.7423 219.448 20.7423Z" fill="#808085"/>
    <path d="M235.393 33.749L230.739 28.2059H225.998V27.944C226.13 26.8092 227.079 25.8926 228.203 25.8926H231.401C232.857 25.8926 234.048 25.6525 234.842 25.1942C235.591 24.7578 235.944 24.1685 235.944 23.2738C235.944 22.6409 235.944 20.7641 231.423 20.7641H225.689C225.535 20.7641 225.424 20.895 225.424 21.026V32.1996C225.424 33.4217 224.344 34.4474 223.087 34.4474V20.6113C223.087 19.4547 224.101 18.4726 225.292 18.4726H231.423C237.378 18.4726 238.282 21.4842 238.282 23.2956C238.282 24.9978 237.51 26.3727 236.055 27.2238C235.371 27.6166 234.577 27.8785 233.651 28.0531L238.591 33.9454C237.62 34.6874 236.165 34.6656 235.393 33.749Z" fill="#808085"/>
    <path d="M14.6538 22.7937C13.3967 21.4624 11.5442 20.6113 9.49317 20.6113C5.87631 20.6113 2.92106 23.2083 2.92106 26.4163C2.92106 29.6244 5.85425 32.2432 9.49317 32.2432C11.2134 32.2432 12.8454 31.5885 14.1025 30.5628C14.9626 29.8645 16.2197 29.9081 17.0357 30.6065C16.3804 31.6003 15.5151 32.4416 14.4994 33.0725C13.0218 34.0109 11.2796 34.491 9.49317 34.491C4.59717 34.491 0.627441 30.8902 0.627441 26.4163C0.627441 21.9425 4.59717 18.3417 9.49317 18.3417C12.9777 18.3417 16.1314 20.2185 17.5429 23.0992C16.6387 23.6884 15.4037 23.6229 14.6538 22.7937Z" fill="#808085"/>
    <path d="M30.9738 33.749L26.3204 28.2059H21.5788V27.944C21.7111 26.8092 22.6594 25.8926 23.7842 25.8926H26.982C28.4376 25.8926 29.6285 25.6525 30.4225 25.1942C31.1723 24.7578 31.5252 24.1685 31.5252 23.2738C31.5252 22.6409 31.5252 20.7641 27.0041 20.7641H21.27C21.1157 20.7641 21.0054 20.895 21.0054 21.026V32.1996C21.0054 33.4217 19.9247 34.4474 18.6677 34.4474V20.6113C18.6677 19.4547 19.6822 18.4726 20.8731 18.4726H27.0041C32.9587 18.4726 33.8629 21.4842 33.8629 23.2956C33.8629 24.9978 33.091 26.3727 31.6355 27.2238C30.9518 27.6166 30.1578 27.8785 29.2316 28.0531L33.7306 33.9454C32.7602 34.6874 31.7237 34.6656 30.9738 33.749Z" fill="#808085"/>
    <path d="M43.677 29.1661V34.4474H43.5667C42.3758 34.4474 41.3392 33.4435 41.3392 32.265V29.1006L33.1572 18.8654C34.1276 18.1234 35.5611 18.1671 36.3109 19.0837L42.5081 26.8528L48.7053 19.1055C49.4551 18.1671 50.8886 18.1234 51.859 18.8654H51.8811L43.677 29.1661Z" fill="#808085"/>
    <path d="M64.4519 27.202C63.3051 27.8785 61.7613 28.2059 59.8205 28.2059H55.123C55.123 26.9619 56.1155 25.8926 57.3505 25.8926H59.7985C61.2761 25.8926 62.467 25.6525 63.261 25.1942C64.0108 24.7578 64.3637 24.1685 64.3637 23.2738C64.3637 22.6409 64.3637 20.7641 59.8205 20.7641H54.8363C54.6599 20.7641 54.5496 20.895 54.5496 21.026V32.1996C54.5496 33.4217 53.469 34.4474 52.2119 34.4474V20.6113C52.2119 19.4547 53.2264 18.4726 54.4173 18.4726H59.8205C65.7972 18.4726 66.7014 21.4842 66.7014 23.2956C66.7014 24.9978 65.9295 26.3727 64.4519 27.202Z" fill="#808085"/>
    <path fill-rule="evenodd" clip-rule="evenodd" d="M129.512 51.5351C129.666 51.5788 129.82 51.6006 129.975 51.6006C130.217 51.6006 130.438 51.5569 130.636 51.4478C130.967 51.2951 131.21 51.0114 131.32 50.6622L132.114 48.1743C132.268 47.716 132.334 47.2359 132.334 46.7558V46.3193C132.334 45.8392 132.268 45.3591 132.114 44.9008L131.32 42.4129C131.196 42.0609 130.936 41.7716 130.597 41.6081C130.259 41.4447 129.868 41.4202 129.512 41.54L128.497 41.8673C126.667 42.4566 124.946 43.3077 123.381 44.377C123.345 44.4037 123.31 44.4317 123.277 44.4609C122.962 44.0646 122.473 43.8096 121.925 43.8096H119.697C119.157 43.8096 118.674 44.0575 118.359 44.4443C118.328 44.4206 118.297 44.3982 118.264 44.377C116.698 43.3077 114.978 42.4566 113.147 41.8673L112.133 41.54C111.758 41.4309 111.361 41.4527 111.008 41.6273C110.677 41.78 110.435 42.0638 110.324 42.4129L109.53 44.9008C109.376 45.3591 109.31 45.8392 109.31 46.3193V46.7558C109.31 47.2359 109.376 47.716 109.53 48.1743L110.324 50.6622C110.418 50.94 110.599 51.1809 110.841 51.3497C111.083 51.5185 111.374 51.6064 111.67 51.6006C111.824 51.6006 111.978 51.5788 112.133 51.5351L113.147 51.2078C114.978 50.6185 116.698 49.7674 118.264 48.6981C118.306 48.6665 118.347 48.6329 118.386 48.5976C118.701 48.9659 119.172 49.2 119.697 49.2H121.925C122.452 49.2 122.924 48.9641 123.24 48.5934C123.284 48.6311 123.331 48.6661 123.381 48.6981C124.946 49.7674 126.667 50.6185 128.497 51.2078L129.512 51.5351ZM122.813 45.3457C122.809 45.3861 122.807 45.427 122.807 45.4682V47.6069C122.807 47.6321 122.808 47.6573 122.809 47.6824C122.723 48.0746 122.368 48.3707 121.947 48.3707H119.719C119.234 48.3707 118.837 47.9779 118.837 47.4978V45.5118C118.837 45.0317 119.234 44.6389 119.719 44.6389H121.947C122.375 44.6389 122.734 44.9443 122.813 45.3457ZM127.769 43.264C126.58 43.6507 125.43 44.1539 124.34 44.7537C124.188 44.8515 124.037 44.9515 123.888 45.0536C123.755 45.1409 123.667 45.2936 123.667 45.4464V45.7519L127.24 44.5734C127.461 44.508 127.703 44.6171 127.769 44.8353C127.835 45.0536 127.725 45.2936 127.505 45.3591L123.965 46.5266L127.505 47.6942C127.725 47.7597 127.835 47.9997 127.769 48.218C127.703 48.3925 127.549 48.5017 127.372 48.5017C127.328 48.5017 127.284 48.5017 127.24 48.4798L123.667 47.3014V47.5851C123.667 47.7378 123.755 47.8906 123.888 47.9779C125.393 49.0099 127.042 49.8186 128.784 50.3785L129.798 50.7058C129.953 50.7495 130.129 50.7495 130.283 50.6622C130.301 50.6533 130.318 50.6436 130.335 50.6332C130.341 50.6293 130.347 50.6252 130.353 50.6211L130.857 49.0473C130.989 48.6326 131.055 48.1962 131.055 47.7597V47.3232C131.055 46.8867 130.989 46.4503 130.857 46.0356L130.063 43.5478C129.909 43.0458 129.313 42.7621 128.784 42.9367L127.769 43.264ZM117.779 45.0972C117.877 45.1623 117.951 45.2639 117.983 45.3747C117.979 45.4199 117.977 45.4657 117.977 45.5118V45.7229L114.493 44.5734C114.272 44.508 114.029 44.6171 113.963 44.8353C113.897 45.0536 114.007 45.2936 114.228 45.3591L117.768 46.5266L114.228 47.6942C114.007 47.7597 113.897 47.9997 113.963 48.218C114.029 48.3925 114.184 48.5017 114.36 48.5017C114.404 48.5017 114.448 48.5017 114.493 48.4798L117.977 47.3304V47.4978C117.977 47.5701 117.982 47.6414 117.991 47.7113C117.966 47.8347 117.887 47.9501 117.779 48.0216C116.279 49.0473 114.647 49.8547 112.883 50.4221L111.868 50.7495C111.714 50.7931 111.537 50.7713 111.383 50.7058C111.288 50.659 111.216 50.5899 111.167 50.5065L110.699 49.0473C110.567 48.6326 110.501 48.1962 110.501 47.7597V47.3232C110.501 46.8867 110.567 46.4503 110.699 46.0356L111.493 43.5478C111.648 43.0458 112.243 42.7621 112.773 42.9367L113.787 43.264C115.09 43.6878 116.346 44.2515 117.529 44.9289C117.613 44.9844 117.696 45.0404 117.779 45.0972Z" fill="#808085"/>
</svg>
