<svg width="252" height="64" viewBox="0 0 252 64" fill="none" xmlns="http://www.w3.org/2000/svg">
    <path d="M124.503 41.503C124.788 41.5206 125.433 41.5604 126.293 41.5604C127.991 41.5604 130.527 41.3858 132.534 40.6656C132.71 40.5783 132.799 40.3819 132.732 40.2073C132.644 40.0327 132.446 39.9454 132.269 40.0109C129.298 41.1578 124.877 40.8502 124.451 40.8205L124.428 40.819L124.423 40.8186C124.42 40.8185 124.419 40.8184 124.418 40.8184C124.372 40.8112 124.324 40.8134 124.279 40.825C124.233 40.8365 124.191 40.8571 124.154 40.8856C124.117 40.914 124.086 40.9496 124.063 40.9903C124.041 41.0309 124.027 41.0757 124.022 41.1219C124.018 41.1681 124.023 41.2147 124.037 41.2589C124.051 41.3031 124.075 41.3439 124.106 41.3788C124.136 41.4138 124.174 41.4421 124.217 41.462C124.259 41.482 124.305 41.4932 124.352 41.4949C124.371 41.4949 124.423 41.4981 124.503 41.503Z" fill="#808085"/>
    <path d="M121.11 17.62H133.328C133.328 17.62 124.573 16.6598 121.11 17.62Z" fill="#808085"/>
    <path d="M124.065 19.0822H130.174C130.174 19.0822 125.786 18.4057 124.065 19.0822Z" fill="#808085"/>
    <path d="M116.655 24.1016C117.581 23.9488 119.853 23.687 122.036 24.058C122.147 24.0798 122.191 23.927 122.081 23.8834C121.066 23.4033 118.772 22.6394 116.589 23.927C116.523 23.9925 116.567 24.1234 116.655 24.1016Z" fill="#808085"/>
    <path d="M131.564 24.058C133.747 23.687 136.019 23.9488 136.945 24.1016C137.055 24.1234 137.099 23.9925 137.011 23.927C134.828 22.6394 132.534 23.4033 131.52 23.8834C131.409 23.927 131.453 24.0798 131.564 24.058Z" fill="#808085"/>
    <path d="M125.94 32.1981C125.631 32.3291 125.344 32.5036 125.146 32.7655C125.08 32.8528 125.058 32.9619 125.168 33.0492C125.234 33.1583 125.389 33.202 125.521 33.1365C125.945 32.8749 126.433 32.7317 126.932 32.7219C127.432 32.7317 127.92 32.8749 128.344 33.1365C128.432 33.1802 128.542 33.1802 128.631 33.1147C128.741 33.0274 128.763 32.8746 128.675 32.7655C128.476 32.5255 128.189 32.3291 127.881 32.1981C127.574 32.0681 127.244 32.001 126.91 32.001C126.577 32.001 126.247 32.0681 125.94 32.1981Z" fill="#808085"/>
    <path d="M128.278 35.2098H130.196C130.307 34.9479 130.152 34.5987 129.888 34.4678C129.623 34.315 129.314 34.3368 129.027 34.4459C128.776 34.5415 128.576 34.6874 128.367 34.8395L128.312 34.8794L128.298 34.8895L128.278 34.9042C128.211 34.9479 128.145 35.0133 128.123 35.1006C128.079 35.1661 128.189 35.2316 128.278 35.2098Z" fill="#808085"/>
    <path d="M123.624 35.2098H125.543C125.631 35.2316 125.741 35.1661 125.697 35.1006C125.675 35.0133 125.609 34.9479 125.543 34.9042C125.513 34.8826 125.483 34.861 125.454 34.8395C125.245 34.6874 125.044 34.5415 124.793 34.4459C124.506 34.3368 124.198 34.315 123.933 34.4678C123.668 34.5987 123.514 34.9479 123.624 35.2098Z" fill="#808085"/>
    <path fill-rule="evenodd" clip-rule="evenodd" d="M114.053 37.8742C115.246 44.6318 120.334 49.4168 126.8 49.4168C133.193 49.4168 138.24 44.7384 139.491 38.0864C140.907 38.7393 141.911 38.767 142.061 38.767C142.238 38.767 142.392 38.6797 142.458 38.5924C142.546 38.4396 142.546 38.265 142.48 38.1123C142.48 38.1074 142.449 38.0418 142.393 37.9245C142.258 37.6405 141.979 37.0542 141.65 36.2967C141.789 36.0702 141.863 35.8255 141.863 35.5807V35.3415L144.156 35.9299C144.377 35.9736 144.597 35.8863 144.708 35.6899C144.818 35.4935 144.774 35.2534 144.62 35.1006C143.98 34.4896 143.362 33.4639 142.789 32.089C145.48 33.1583 147.531 33.3111 147.619 33.3111C147.839 33.3111 148.016 33.202 148.104 33.0056C148.192 32.8092 148.148 32.5909 147.994 32.46L147.99 32.4566L147.974 32.4414C147.74 32.2248 145.526 30.1711 144.289 28.5318L147.619 28.7064C147.839 28.7064 148.038 28.5754 148.104 28.3572C148.17 28.1389 148.104 27.8989 147.906 27.7898C146.031 26.6113 145.7 22.3121 145.744 20.7408V20.6753C145.017 14.5429 141.466 11.8805 138.621 10.702C138.084 10.4804 137.553 10.3036 137.042 10.1627C134.116 7.66846 130.447 6.34299 126.557 6.40282C123.173 6.45817 119.917 7.59037 117.257 9.60206C116.655 9.75433 116.02 9.9558 115.376 10.2219C112.531 11.3785 108.98 14.0628 108.252 20.1952V20.2607C108.296 21.832 107.966 26.1312 106.091 27.3097C105.915 27.4406 105.826 27.6588 105.893 27.8771C105.959 28.0953 106.157 28.2481 106.378 28.2263L109.472 28.064C109.463 28.1693 109.456 28.2745 109.452 28.3794C108.188 29.9531 106.24 31.7595 106.023 31.9614L106.007 31.9757L106.003 31.9799C105.848 32.1108 105.804 32.3291 105.893 32.5255C105.981 32.7219 106.179 32.8528 106.378 32.831C106.479 32.831 108.204 32.7018 110.573 31.849C110.671 32.0378 110.76 32.2335 110.839 32.4325C110.372 33.3985 109.882 34.1385 109.377 34.6205C109.223 34.7733 109.179 35.0133 109.289 35.2098C109.399 35.4062 109.62 35.5153 109.84 35.4498L111.624 34.9922C111.625 35.0027 111.625 35.0133 111.626 35.0242C111.626 35.0349 111.627 35.0458 111.627 35.057V35.5808C111.635 35.9277 111.768 36.2603 112.002 36.5192L112.007 36.5253L112.015 36.5339L112.024 36.5436C111.84 36.9473 111.692 37.2594 111.604 37.4439C111.548 37.5615 111.516 37.6273 111.516 37.6322C111.45 37.7849 111.45 37.9595 111.538 38.1123C111.627 38.265 111.781 38.3523 111.957 38.3523C112.09 38.3523 112.891 38.3308 114.053 37.8742ZM142.058 34.3191L142.988 34.555C142.76 34.204 142.54 33.8121 142.326 33.3793L142.058 34.3191ZM143.275 31.1623C144.407 31.6053 145.421 31.881 146.185 32.0453C145.512 31.379 144.642 30.4831 143.923 29.6103C143.864 29.8966 143.78 30.1783 143.671 30.4522L143.649 30.4959L143.275 31.1623ZM143.912 27.4697L146.34 27.5934C144.708 25.3455 144.708 21.1773 144.73 20.6972C144.2 16.3336 142.162 13.3212 138.635 11.7181C139.759 12.9797 140.67 14.4162 141.33 15.9721C142.136 17.876 142.55 19.9203 142.547 21.9848C142.547 23.2846 142.389 24.5622 142.073 25.8C142.113 25.8076 142.153 25.8162 142.194 25.8257C143.061 26.0351 143.706 26.6668 143.912 27.4697ZM141.803 26.7323C141.621 27.2911 141.406 27.8406 141.157 28.379C140.231 30.3868 139.79 32.5037 139.79 34.6205V34.7733C139.791 35.1884 139.778 35.5985 139.752 36.0029C140.078 36.2062 140.514 36.1499 140.76 35.8863C140.826 35.8208 140.892 35.7117 140.892 35.6026V35.0788C140.892 34.972 140.903 34.8653 140.921 34.7611C140.545 34.0572 140.478 33.1103 140.738 32.0017C140.981 30.976 141.378 30.0594 141.841 29.4047C141.929 29.2738 142.106 29.252 142.238 29.3393C142.37 29.4266 142.392 29.6011 142.304 29.7321C141.863 30.3431 141.51 31.1943 141.29 32.1327C141.176 32.6097 141.099 33.2131 141.194 33.7804L141.466 32.831C141.62 32.2636 141.841 31.7398 142.127 31.2161L142.767 30.0594C142.811 29.9721 142.833 29.8848 142.855 29.7975C143.032 29.2519 143.076 28.6627 142.988 28.0298L142.943 27.7243C142.833 27.2442 142.48 26.8732 141.951 26.7641C141.902 26.7507 141.852 26.7402 141.803 26.7323ZM139.659 37.0029C139.655 37.0296 139.652 37.0561 139.649 37.0827C140.276 37.3992 140.816 37.5765 141.223 37.6758C141.127 37.4673 141.017 37.2241 140.897 36.9535C140.68 37.0468 140.445 37.0923 140.209 37.0866C140.023 37.0866 139.838 37.058 139.659 37.0029ZM107.811 31.6307C108.337 31.1104 108.983 30.4501 109.583 29.7702C109.607 29.8752 109.634 29.979 109.664 30.0812C109.708 30.2122 109.752 30.3431 109.796 30.4522L110.097 30.9895C109.217 31.2985 108.432 31.4973 107.811 31.6307ZM107.657 27.1787L109.688 27.0753C109.974 26.4529 110.545 25.9797 111.274 25.8039C111.348 25.7863 111.423 25.772 111.497 25.7609C111.173 24.48 111.016 23.1597 111.031 21.832C111.074 17.8951 112.594 14.1816 115.335 11.3185C111.819 12.9198 109.776 15.9338 109.267 20.2825L109.267 20.3006C109.267 20.8411 109.269 24.9579 107.657 27.1787ZM111.516 26.7859C111.603 26.7623 111.691 26.7474 111.78 26.741C111.956 27.2821 112.162 27.8144 112.399 28.3354C113.325 30.3868 113.788 32.5255 113.788 34.7297V34.7951C113.788 35.1832 113.8 35.5669 113.824 35.9457L113.788 35.9736C113.457 36.2355 112.972 36.1918 112.707 35.9081C112.641 35.8426 112.575 35.7335 112.575 35.6244V35.1006C112.575 35.0165 112.572 34.9324 112.563 34.8495C112.983 34.1374 113.067 33.1574 112.796 32.0017C112.575 30.9979 112.178 30.0594 111.693 29.4047C111.605 29.2738 111.428 29.252 111.296 29.3393C111.164 29.4266 111.141 29.6011 111.23 29.7321C111.671 30.3213 112.024 31.1943 112.244 32.1327C112.352 32.65 112.438 33.3157 112.308 33.923L112.002 32.8528C111.847 32.2854 111.627 31.7398 111.34 31.2379L110.7 30.0812C110.689 30.0376 110.673 29.9939 110.656 29.9503C110.64 29.9067 110.623 29.863 110.612 29.8194C110.436 29.2738 110.392 28.6845 110.48 28.0517L110.524 27.7461C110.612 27.266 110.987 26.9168 111.516 26.7859ZM113.315 37.0865L113.327 37.0864C113.132 37.1514 112.954 37.2012 112.796 37.2393C112.825 37.1754 112.856 37.1083 112.888 37.0383C113.024 37.0703 113.163 37.0866 113.303 37.0866L113.315 37.0865ZM111.009 34.1404C111.091 34.0175 111.172 33.8883 111.253 33.7531L111.341 34.056L111.009 34.1404ZM126.579 7.38487H126.8C130.679 7.37248 134.405 8.87876 137.165 11.575C139.988 14.3466 141.554 18.0347 141.554 21.9848C141.554 23.2278 141.399 24.4402 141.093 25.6172C141.036 25.5612 140.944 25.5259 140.804 25.4983C140.679 25.4765 140.554 25.4571 140.429 25.4377C140.179 25.3989 139.93 25.3601 139.68 25.3019C138.4 24.9746 137.099 24.7127 135.754 24.669C133.262 24.5599 130.836 24.8654 128.41 25.3674C127.572 25.542 126.69 25.6074 125.852 25.4547L125.758 25.438C123.937 25.1163 122.137 24.7981 120.294 24.6909C118.839 24.6036 117.383 24.6036 115.949 24.8654C115.023 25.0182 114.097 25.2146 113.193 25.411C113.125 25.4293 113.051 25.4424 112.975 25.4557C112.784 25.4896 112.588 25.5241 112.491 25.6455C112.169 24.4107 112.011 23.1361 112.024 21.8538C112.059 18.0402 113.613 14.3941 116.346 11.7059C119.081 8.97799 122.72 7.42852 126.579 7.38487ZM140.694 26.8296C140.7 26.8256 140.705 26.8216 140.71 26.8176C140.717 26.8128 140.723 26.808 140.73 26.803C140.589 27.2019 140.43 27.5964 140.253 27.9862C139.842 28.8714 139.518 29.7754 139.281 30.6918C139.37 30.2562 139.415 29.8087 139.415 29.3611C139.415 28.2917 139.834 27.4406 140.694 26.8296ZM136.394 33.7912C137.799 33.3909 138.772 32.5228 139.175 31.128C138.991 31.9364 138.874 32.7537 138.825 33.5757L136.085 36.6283C135.136 37.6758 133.548 37.9813 132.247 37.3703L131.056 36.8029C130.681 36.6283 130.284 36.4973 129.865 36.4537L128.675 36.3228C128.256 36.2791 127.836 36.3009 127.417 36.3882C126.976 36.4755 126.491 36.4755 126.05 36.3882C125.631 36.3009 125.212 36.2791 124.793 36.3228L123.602 36.4537C123.183 36.5192 122.786 36.6283 122.411 36.8029L121.22 37.3703L121.242 37.3921C120.647 37.6322 118.794 38.1778 117.405 36.6283L114.732 33.6725C114.616 31.7038 114.126 29.776 113.303 27.9426C113.125 27.5482 112.965 27.1471 112.824 26.7402C112.903 26.8183 112.99 26.8905 113.082 26.9605C113.766 27.4843 114.163 28.1826 114.185 29.0774C114.185 29.492 114.207 29.9067 114.273 30.3213C114.516 32.1108 115.486 33.3111 117.251 33.8131C118.882 34.2781 120.609 34.3082 122.257 33.9003C123.602 33.573 124.573 32.8092 125.036 31.4998C125.212 31.0197 125.322 30.4959 125.411 29.9939C125.476 29.6938 125.519 29.3937 125.563 29.0961C125.608 28.7879 125.652 28.4824 125.719 28.1826C125.763 27.9207 125.962 27.637 126.16 27.5061C126.844 27.0696 127.726 27.4406 127.947 28.2044L128.013 28.4663C128.05 28.7063 128.082 28.9464 128.113 29.1865C128.177 29.6666 128.241 30.1467 128.344 30.6268C128.675 32.3072 129.623 33.4639 131.343 33.8785C133.019 34.2713 134.717 34.2713 136.394 33.7912ZM134.122 25.8257C133.954 25.8257 133.783 25.8233 133.612 25.8209C133.266 25.816 132.917 25.8111 132.578 25.8257C131.895 25.8693 131.233 25.9784 130.637 26.3058C130.064 26.6331 129.667 27.0914 129.557 27.7461C129.402 28.7064 129.447 29.6666 129.799 30.605C130.174 31.6525 130.902 32.3291 132.005 32.5909C132.777 32.7655 133.571 32.831 134.387 32.7655C135.313 32.7001 136.195 32.5255 137.011 32.0235C137.717 31.5871 138.202 30.976 138.246 30.1467C138.312 29.252 138.29 28.3572 138.268 27.4624C138.246 27.026 138.003 26.6331 137.629 26.4149C137.364 26.2621 137.055 26.0876 136.768 26.0439C135.864 25.8693 134.122 25.782 134.122 25.8257ZM119.566 25.782C119.485 25.782 119.405 25.7796 119.327 25.7771C119.173 25.7723 119.021 25.7676 118.861 25.782C118.747 25.7926 118.633 25.8026 118.519 25.8126L118.518 25.8127C117.927 25.8645 117.342 25.9159 116.787 26.0439C115.817 26.284 115.42 26.8732 115.42 27.8553V29.6666C115.42 29.9285 115.442 30.1904 115.508 30.4304C115.773 31.4561 116.523 32.0235 117.471 32.3727C118.772 32.8528 120.118 32.8528 121.485 32.6128C122.742 32.3945 123.536 31.6525 123.933 30.4741C124.22 29.623 124.264 28.75 124.154 27.8553C124.121 27.5442 124.014 27.2453 123.842 26.9834C123.669 26.7215 123.436 26.5041 123.161 26.3494C122.852 26.1748 122.522 26.0221 122.169 25.9566C121.309 25.8693 119.566 25.7602 119.566 25.782ZM130.828 37.7229L131.988 38.2285C133.364 38.8119 135.185 38.6196 136.195 37.6084L138.952 34.5531C138.909 34.8837 138.909 35.2338 138.909 35.5644V35.7005C138.909 43.1291 133.471 48.3019 126.723 48.3019C119.974 48.3019 114.515 43.1485 114.515 35.7199V35.6616C114.515 35.2922 114.493 34.9228 114.472 34.5535L117.229 37.6084C118.239 38.6196 120.081 38.8314 121.457 38.2285L122.617 37.7229C122.94 37.5674 123.305 37.4701 123.692 37.4312L124.853 37.3146C125.24 37.2562 125.626 37.2757 125.992 37.3534C126.486 37.4507 126.98 37.4507 127.453 37.3534C127.819 37.2951 128.206 37.2757 128.592 37.3146L129.753 37.4312C130.118 37.4896 130.484 37.5674 130.828 37.7229Z" fill="#808085"/>
    <path d="M84.1916 26.7859H80.3321V40.4474H80.2218C78.9868 40.4474 77.9944 39.378 77.9944 38.1341V26.7641H74.1349C72.8778 26.7641 71.8413 25.7384 71.8413 24.4726H86.5072C86.5072 25.7384 85.4707 26.7859 84.1916 26.7859Z" fill="#808085"/>
    <path fill-rule="evenodd" clip-rule="evenodd" d="M94.0056 40.5783C89.0435 40.5783 84.9855 36.8683 84.9855 32.3509C84.9855 27.7898 89.0435 24.1234 94.0056 24.1234C98.9898 24.1234 103.026 27.8116 103.026 32.3509C103.026 36.8683 98.9898 40.5783 94.0056 40.5783ZM94.0056 26.4149C90.3006 26.4149 87.3232 29.0555 87.3232 32.3291C87.3232 35.5807 90.3226 38.2432 94.0056 38.2432C97.7107 38.2432 100.688 35.5807 100.688 32.3291C100.688 29.0774 97.7107 26.4149 94.0056 26.4149Z" fill="#808085"/>
    <path d="M169.695 38.9852C169.32 39.9018 168.592 40.4256 167.776 40.4256C166.916 40.4256 166.211 39.9018 165.858 38.9634L162.947 31.4998L162.925 31.4779C162.903 31.4125 162.858 31.347 162.77 31.347C162.738 31.347 162.706 31.3704 162.665 31.4001L162.65 31.4107C162.639 31.4184 162.628 31.4263 162.616 31.4343L159.683 38.9634C159.352 39.88 158.602 40.4037 157.786 40.4037C156.926 40.4037 156.22 39.88 155.867 38.9416L150.221 24.5163L150.266 24.4944C151.412 24.0361 152.758 24.6254 153.199 25.7384C154.158 28.1429 155.628 31.934 156.694 34.6828L156.698 34.6915L156.699 34.6944C157.15 35.8572 157.528 36.8325 157.764 37.4357L161.315 28.3135C161.557 27.8334 162.109 27.4843 162.748 27.4843C163.41 27.4843 163.983 27.8552 164.204 28.3572C165.009 30.3504 165.913 32.6916 166.641 34.5776C167.109 35.789 167.504 36.8127 167.754 37.4357L172.32 25.7166C172.761 24.6036 174.128 24.058 175.253 24.4944L175.297 24.5163L169.695 38.9852Z" fill="#808085"/>
    <path d="M178.429 40.4474C177.171 40.4474 176.091 39.4435 176.091 38.1777V24.3635C177.348 24.3635 178.429 25.3674 178.429 26.6113V40.4474Z" fill="#808085"/>
    <path d="M192.367 39.3126C190.977 40.0546 189.125 40.4692 187.184 40.4692C185.243 40.4692 183.391 40.0546 182.001 39.3126C180.59 38.5924 179.73 37.5885 179.487 36.4537C180.347 35.9736 181.45 35.9954 182.244 36.6937C183.038 37.4139 184.78 38.1559 187.184 38.1559C190.161 38.1559 192.168 37.0647 192.521 36.1482L192.543 36.1263C192.698 35.7335 192.499 35.057 192.279 34.7515C191.595 33.813 189.875 33.4202 186.765 33.0492C185.133 32.8528 183.457 32.6346 182.134 32.1108C179.928 31.2161 179.465 29.6884 179.465 28.5318C179.465 27.2224 180.391 26.1312 182.067 25.3456C183.457 24.6908 185.287 24.3635 187.206 24.3635C189.125 24.3635 190.955 24.6908 192.345 25.3456C193.668 25.913 194.506 26.7423 194.837 27.6807C194.065 28.3135 192.94 28.4227 192.102 27.8552C191.308 27.3315 189.676 26.6768 187.206 26.6768C183.832 26.6768 182.023 27.8334 181.825 28.4445C181.693 28.8355 181.889 29.2265 182.196 29.5099C182.867 30.1736 184.407 30.4553 187.074 30.8014L187.208 30.8182C188.909 31.031 190.683 31.2529 192.08 31.8271C193.977 32.6564 194.947 33.9876 194.947 35.8863C194.925 37.2612 194.021 38.4833 192.367 39.3126Z" fill="#808085"/>
    <path d="M208.797 39.3126C207.408 40.0546 205.555 40.4692 203.614 40.4692C201.674 40.4692 199.821 40.0546 198.432 39.3126C197.02 38.5924 196.16 37.5885 195.917 36.4537C196.778 35.9736 197.88 35.9954 198.674 36.6937C199.468 37.4139 201.21 38.1559 203.614 38.1559C206.592 38.1559 208.599 37.0647 208.951 36.1482L208.973 36.1263C209.128 35.7335 208.929 35.057 208.709 34.7515C208.025 33.813 206.305 33.4202 203.195 33.0492C201.563 32.8528 199.887 32.6346 198.564 32.1108C196.359 31.2161 195.895 29.6884 195.895 28.5318C195.895 27.2224 196.822 26.1312 198.498 25.3456C199.887 24.6908 201.718 24.3635 203.636 24.3635C205.555 24.3635 207.386 24.6908 208.775 25.3456C210.098 25.913 210.936 26.7423 211.267 27.6807C210.495 28.3135 209.37 28.4227 208.532 27.8552C207.738 27.3315 206.106 26.6768 203.636 26.6768C200.262 26.6768 198.454 27.8334 198.255 28.4445C198.123 28.8355 198.32 29.2265 198.626 29.5099C199.297 30.1736 200.837 30.4553 203.504 30.8014L203.638 30.8182C205.34 31.031 207.113 31.2529 208.51 31.8271C210.407 32.6564 211.377 33.9876 211.377 35.8863C211.355 37.2612 210.451 38.4833 208.797 39.3126Z" fill="#808085"/>
    <path d="M225.448 26.7423H215.568C215.413 26.7423 215.303 26.8732 215.303 27.0041V30.9105H225.955C225.911 32.1108 224.941 33.1583 223.684 33.1583H215.281V37.7849C215.281 37.9377 215.413 38.0468 215.546 38.0468H224.985C226.242 38.0468 227.3 39.0507 227.322 40.3164H215.325C214.068 40.3164 212.987 39.3126 212.987 38.0468V26.7641C212.987 25.5201 214.024 24.4944 215.303 24.4944H227.609C227.609 25.6947 226.661 26.7423 225.448 26.7423Z" fill="#808085"/>
    <path d="M241.393 39.749L236.739 34.2059H231.998V33.944C232.13 32.8092 233.079 31.8926 234.203 31.8926H237.401C238.857 31.8926 240.048 31.6525 240.842 31.1942C241.591 30.7578 241.944 30.1685 241.944 29.2738C241.944 28.6409 241.944 26.7641 237.423 26.7641H231.689C231.535 26.7641 231.424 26.895 231.424 27.026V38.1996C231.424 39.4217 230.344 40.4474 229.087 40.4474V26.6113C229.087 25.4547 230.101 24.4726 231.292 24.4726H237.423C243.378 24.4726 244.282 27.4842 244.282 29.2956C244.282 30.9978 243.51 32.3727 242.055 33.2238C241.371 33.6166 240.577 33.8785 239.651 34.0531L244.591 39.9454C243.62 40.6874 242.165 40.6656 241.393 39.749Z" fill="#808085"/>
    <path d="M20.6538 28.7937C19.3967 27.4624 17.5442 26.6113 15.4932 26.6113C11.8763 26.6113 8.92106 29.2083 8.92106 32.4163C8.92106 35.6244 11.8543 38.2432 15.4932 38.2432C17.2134 38.2432 18.8454 37.5885 20.1025 36.5628C20.9626 35.8645 22.2197 35.9081 23.0357 36.6065C22.3804 37.6003 21.5151 38.4416 20.4994 39.0725C19.0218 40.0109 17.2796 40.491 15.4932 40.491C10.5972 40.491 6.62744 36.8902 6.62744 32.4163C6.62744 27.9425 10.5972 24.3417 15.4932 24.3417C18.9777 24.3417 22.1314 26.2185 23.5429 29.0992C22.6387 29.6884 21.4037 29.6229 20.6538 28.7937Z" fill="#808085"/>
    <path d="M36.9738 39.749L32.3204 34.2059H27.5788V33.944C27.7111 32.8092 28.6594 31.8926 29.7842 31.8926H32.982C34.4376 31.8926 35.6285 31.6525 36.4225 31.1942C37.1723 30.7578 37.5252 30.1685 37.5252 29.2738C37.5252 28.6409 37.5252 26.7641 33.0041 26.7641H27.27C27.1157 26.7641 27.0054 26.895 27.0054 27.026V38.1996C27.0054 39.4217 25.9247 40.4474 24.6677 40.4474V26.6113C24.6677 25.4547 25.6822 24.4726 26.8731 24.4726H33.0041C38.9587 24.4726 39.8629 27.4842 39.8629 29.2956C39.8629 30.9978 39.091 32.3727 37.6355 33.2238C36.9518 33.6166 36.1578 33.8785 35.2316 34.0531L39.7306 39.9454C38.7602 40.6874 37.7237 40.6656 36.9738 39.749Z" fill="#808085"/>
    <path d="M49.677 35.1661V40.4474H49.5667C48.3758 40.4474 47.3392 39.4435 47.3392 38.265V35.1006L39.1572 24.8654C40.1276 24.1234 41.5611 24.1671 42.3109 25.0837L48.5081 32.8528L54.7053 25.1055C55.4551 24.1671 56.8886 24.1234 57.859 24.8654H57.8811L49.677 35.1661Z" fill="#808085"/>
    <path d="M70.4519 33.202C69.3051 33.8785 67.7613 34.2059 65.8205 34.2059H61.123C61.123 32.9619 62.1155 31.8926 63.3505 31.8926H65.7985C67.2761 31.8926 68.467 31.6525 69.261 31.1942C70.0108 30.7578 70.3637 30.1685 70.3637 29.2738C70.3637 28.6409 70.3637 26.7641 65.8205 26.7641H60.8363C60.6599 26.7641 60.5496 26.895 60.5496 27.026V38.1996C60.5496 39.4217 59.469 40.4474 58.2119 40.4474V26.6113C58.2119 25.4547 59.2264 24.4726 60.4173 24.4726H65.8205C71.7972 24.4726 72.7014 27.4842 72.7014 29.2956C72.7014 30.9978 71.9295 32.3727 70.4519 33.202Z" fill="#808085"/>
    <path fill-rule="evenodd" clip-rule="evenodd" d="M135.512 57.5351C135.666 57.5788 135.82 57.6006 135.975 57.6006C136.217 57.6006 136.438 57.5569 136.636 57.4478C136.967 57.2951 137.21 57.0114 137.32 56.6622L138.114 54.1743C138.268 53.716 138.334 53.2359 138.334 52.7558V52.3193C138.334 51.8392 138.268 51.3591 138.114 50.9008L137.32 48.4129C137.196 48.0609 136.936 47.7716 136.597 47.6081C136.259 47.4447 135.868 47.4202 135.512 47.54L134.497 47.8673C132.667 48.4566 130.946 49.3077 129.381 50.377C129.345 50.4037 129.31 50.4317 129.277 50.4609C128.962 50.0646 128.473 49.8096 127.925 49.8096H125.697C125.157 49.8096 124.674 50.0575 124.359 50.4443C124.328 50.4206 124.297 50.3982 124.264 50.377C122.698 49.3077 120.978 48.4566 119.147 47.8673L118.133 47.54C117.758 47.4309 117.361 47.4527 117.008 47.6273C116.677 47.78 116.435 48.0638 116.324 48.4129L115.53 50.9008C115.376 51.3591 115.31 51.8392 115.31 52.3193V52.7558C115.31 53.2359 115.376 53.716 115.53 54.1743L116.324 56.6622C116.418 56.94 116.599 57.1809 116.841 57.3497C117.083 57.5185 117.374 57.6064 117.67 57.6006C117.824 57.6006 117.978 57.5788 118.133 57.5351L119.147 57.2078C120.978 56.6185 122.698 55.7674 124.264 54.6981C124.306 54.6665 124.347 54.6329 124.386 54.5976C124.701 54.9659 125.172 55.2 125.697 55.2H127.925C128.452 55.2 128.924 54.9641 129.24 54.5934C129.284 54.6311 129.331 54.6661 129.381 54.6981C130.946 55.7674 132.667 56.6185 134.497 57.2078L135.512 57.5351ZM128.813 51.3457C128.809 51.3861 128.807 51.427 128.807 51.4682V53.6069C128.807 53.6321 128.808 53.6573 128.809 53.6824C128.723 54.0746 128.368 54.3707 127.947 54.3707H125.719C125.234 54.3707 124.837 53.9779 124.837 53.4978V51.5118C124.837 51.0317 125.234 50.6389 125.719 50.6389H127.947C128.375 50.6389 128.734 50.9443 128.813 51.3457ZM133.769 49.264C132.58 49.6507 131.43 50.1539 130.34 50.7537C130.188 50.8515 130.037 50.9515 129.888 51.0536C129.755 51.1409 129.667 51.2936 129.667 51.4464V51.7519L133.24 50.5734C133.461 50.508 133.703 50.6171 133.769 50.8353C133.835 51.0536 133.725 51.2936 133.505 51.3591L129.965 52.5266L133.505 53.6942C133.725 53.7597 133.835 53.9997 133.769 54.218C133.703 54.3925 133.549 54.5017 133.372 54.5017C133.328 54.5017 133.284 54.5017 133.24 54.4798L129.667 53.3014V53.5851C129.667 53.7378 129.755 53.8906 129.888 53.9779C131.393 55.0099 133.042 55.8186 134.784 56.3785L135.798 56.7058C135.953 56.7495 136.129 56.7495 136.283 56.6622C136.301 56.6533 136.318 56.6436 136.335 56.6332C136.341 56.6293 136.347 56.6252 136.353 56.6211L136.857 55.0473C136.989 54.6326 137.055 54.1962 137.055 53.7597V53.3232C137.055 52.8867 136.989 52.4503 136.857 52.0356L136.063 49.5478C135.909 49.0458 135.313 48.7621 134.784 48.9367L133.769 49.264ZM123.779 51.0972C123.877 51.1623 123.951 51.2639 123.983 51.3747C123.979 51.4199 123.977 51.4657 123.977 51.5118V51.7229L120.493 50.5734C120.272 50.508 120.029 50.6171 119.963 50.8353C119.897 51.0536 120.007 51.2936 120.228 51.3591L123.768 52.5266L120.228 53.6942C120.007 53.7597 119.897 53.9997 119.963 54.218C120.029 54.3925 120.184 54.5017 120.36 54.5017C120.404 54.5017 120.448 54.5017 120.493 54.4798L123.977 53.3304V53.4978C123.977 53.5701 123.982 53.6414 123.991 53.7113C123.966 53.8347 123.887 53.9501 123.779 54.0216C122.279 55.0473 120.647 55.8547 118.883 56.4221L117.868 56.7495C117.714 56.7931 117.537 56.7713 117.383 56.7058C117.288 56.659 117.216 56.5899 117.167 56.5065L116.699 55.0473C116.567 54.6326 116.501 54.1962 116.501 53.7597V53.3232C116.501 52.8867 116.567 52.4503 116.699 52.0356L117.493 49.5478C117.648 49.0458 118.243 48.7621 118.773 48.9367L119.787 49.264C121.09 49.6878 122.346 50.2515 123.529 50.9289C123.613 50.9844 123.696 51.0404 123.779 51.0972Z" fill="#808085"/>
</svg>
