<svg width="157" height="40" viewBox="0 0 157 40" fill="none" xmlns="http://www.w3.org/2000/svg">
    <path d="M77.7086 25.9389C77.8865 25.9498 78.2899 25.9747 78.8274 25.9747C79.8893 25.9747 81.4752 25.8656 82.7301 25.4155C82.8404 25.3609 82.8956 25.2381 82.8542 25.129C82.7991 25.0199 82.675 24.9654 82.5646 25.0063C80.7067 25.7231 77.9421 25.5308 77.6758 25.5123L77.6615 25.5113L77.658 25.5111C77.6565 25.511 77.6556 25.5109 77.6552 25.5109C77.6262 25.5064 77.5966 25.5078 77.5682 25.5151C77.5398 25.5223 77.5132 25.5352 77.49 25.5529C77.4668 25.5707 77.4476 25.593 77.4334 25.6184C77.4192 25.6438 77.4105 25.6718 77.4077 25.7006C77.4048 25.7295 77.408 25.7587 77.417 25.7863C77.426 25.8139 77.4406 25.8394 77.4599 25.8612C77.4792 25.8831 77.5028 25.9008 77.5293 25.9132C77.5557 25.9257 77.5845 25.9327 77.6138 25.9338C77.626 25.9338 77.6583 25.9358 77.7086 25.9389Z" fill="#808085"/>
    <path d="M75.5868 11.012H83.2267C83.2267 11.012 77.7519 10.4118 75.5868 11.012Z" fill="#808085"/>
    <path d="M77.4348 11.9258H81.2548C81.2548 11.9258 78.5104 11.503 77.4348 11.9258Z" fill="#808085"/>
    <path d="M72.8011 15.063C73.3803 14.9675 74.8007 14.8038 76.166 15.0357C76.2349 15.0493 76.2625 14.9538 76.1936 14.9266C75.5592 14.6265 74.125 14.1491 72.7597 14.9538C72.7183 14.9948 72.7459 15.0766 72.8011 15.063Z" fill="#808085"/>
    <path d="M82.1235 15.0357C83.4887 14.8038 84.9092 14.9675 85.4884 15.063C85.5573 15.0766 85.5849 14.9948 85.5297 14.9538C84.1645 14.1491 82.7302 14.6265 82.0959 14.9266C82.0269 14.9538 82.0545 15.0493 82.1235 15.0357Z" fill="#808085"/>
    <path d="M78.6068 20.1233C78.4138 20.2051 78.2345 20.3142 78.1104 20.4779C78.069 20.5325 78.0552 20.6007 78.1242 20.6552C78.1655 20.7234 78.2621 20.7507 78.3448 20.7098C78.61 20.5463 78.915 20.4567 79.2274 20.4506C79.5399 20.4567 79.8448 20.5463 80.11 20.7098C80.1652 20.7371 80.2341 20.7371 80.2893 20.6961C80.3583 20.6416 80.372 20.5461 80.3169 20.4779C80.1928 20.3279 80.0135 20.2051 79.8204 20.1233C79.6287 20.042 79.4222 20.0001 79.2136 20.0001C79.005 20.0001 78.7986 20.042 78.6068 20.1233Z" fill="#808085"/>
    <path d="M80.0687 22.0055H81.2684C81.3374 21.8419 81.2408 21.6236 81.0754 21.5418C80.9099 21.4463 80.7168 21.46 80.5375 21.5282C80.3804 21.5879 80.2551 21.6791 80.1245 21.7741L80.0902 21.799L80.0814 21.8054L80.0687 21.8146C80.0273 21.8419 79.9859 21.8828 79.9721 21.9373C79.9445 21.9783 80.0135 22.0192 80.0687 22.0055Z" fill="#808085"/>
    <path d="M77.1588 22.0055H78.3586C78.4138 22.0192 78.4827 21.9783 78.4552 21.9373C78.4414 21.8828 78.4 21.8419 78.3586 21.8146C78.3398 21.8011 78.3213 21.7876 78.3028 21.7742C78.1721 21.6791 78.0468 21.5879 77.8897 21.5282C77.7105 21.46 77.5174 21.4463 77.3519 21.5418C77.1864 21.6236 77.0899 21.8419 77.1588 22.0055Z" fill="#808085"/>
    <path fill-rule="evenodd" clip-rule="evenodd" d="M71.1741 23.6708C71.9196 27.8943 75.1017 30.885 79.1447 30.885C83.1424 30.885 86.2984 27.9609 87.0805 23.8034C87.9661 24.2115 88.5938 24.2288 88.6877 24.2288C88.798 24.2288 88.8945 24.1743 88.9359 24.1197C88.991 24.0242 88.991 23.9151 88.9497 23.8196C88.9497 23.8166 88.9301 23.7756 88.8952 23.7023C88.8106 23.5248 88.6359 23.1583 88.4305 22.6849C88.5173 22.5433 88.5635 22.3904 88.5635 22.2374V22.0879L89.9978 22.4557C90.1357 22.4829 90.2736 22.4284 90.3425 22.3056C90.4115 22.1829 90.3839 22.0328 90.2874 21.9373C89.8874 21.5554 89.5013 20.9144 89.1427 20.0551C90.8252 20.7234 92.1077 20.8189 92.1629 20.8189C92.3008 20.8189 92.4111 20.7507 92.4663 20.6279C92.5214 20.5052 92.4938 20.3688 92.3973 20.2869L92.3951 20.2848L92.3848 20.2753C92.2388 20.14 90.8542 18.8564 90.0805 17.8318L92.1629 17.9409C92.3008 17.9409 92.4249 17.8591 92.4663 17.7227C92.5076 17.5863 92.4663 17.4363 92.3421 17.3681C91.1699 16.6315 90.9631 13.9445 90.9907 12.9624V12.9215C90.5356 9.08879 88.3153 7.42475 86.5363 6.68821C86.2007 6.54968 85.8688 6.43917 85.5493 6.35112C83.7197 4.79224 81.4254 3.96382 78.993 4.00121C76.8766 4.03581 74.8405 4.74343 73.1773 6.00074C72.801 6.0959 72.4041 6.22183 72.0011 6.38814C70.2221 7.11104 68.0018 8.78872 67.5467 12.6215V12.6624C67.5743 13.6444 67.3674 16.3315 66.1953 17.068C66.0849 17.1498 66.0298 17.2862 66.0711 17.4226C66.1125 17.559 66.2366 17.6545 66.3745 17.6409L68.3095 17.5395C68.3035 17.6053 68.2993 17.671 68.2971 17.7366C67.5066 18.7201 66.2886 19.8491 66.1525 19.9753L66.1429 19.9843L66.1401 19.9869C66.0436 20.0687 66.016 20.2051 66.0711 20.3279C66.1263 20.4506 66.2504 20.5325 66.3745 20.5188C66.438 20.5188 67.5163 20.4381 68.998 19.9051C69.0589 20.0231 69.1146 20.1454 69.164 20.2698C68.8724 20.8735 68.5655 21.336 68.25 21.6373C68.1535 21.7328 68.1259 21.8828 68.1949 22.0056C68.2638 22.1283 68.4017 22.1965 68.5396 22.1556L69.6549 21.8696C69.6555 21.8761 69.656 21.8828 69.6563 21.8895C69.6565 21.8963 69.6567 21.9031 69.6567 21.9101V22.2374C69.662 22.4542 69.7451 22.6621 69.8911 22.8239L69.8946 22.8278L69.8995 22.8332L69.905 22.8392C69.7903 23.0915 69.6973 23.2866 69.6424 23.4019C69.6073 23.4754 69.5877 23.5165 69.5877 23.5196C69.5464 23.615 69.5464 23.7241 69.6015 23.8196C69.6567 23.9151 69.7532 23.9697 69.8635 23.9697C69.9464 23.9697 70.4472 23.9562 71.1741 23.6708ZM88.6858 21.4489L89.2669 21.5964C89.1246 21.3769 88.9871 21.132 88.8533 20.8615L88.6858 21.4489ZM89.4466 19.4759C90.1547 19.7528 90.7888 19.9251 91.2665 20.0278C90.8454 19.6113 90.3016 19.0514 89.8515 18.5059C89.8147 18.6848 89.7622 18.8609 89.6944 19.0321L89.6806 19.0594L89.4466 19.4759ZM89.8451 17.168L91.363 17.2453C90.3425 15.8404 90.3425 13.2352 90.3563 12.9352C90.0249 10.208 88.7505 8.32521 86.5453 7.32328C87.2483 8.11179 87.8178 9.00956 88.2301 9.982C88.7345 11.1719 88.9933 12.4496 88.9911 13.7399C88.9911 14.5524 88.8924 15.3508 88.6949 16.1245C88.72 16.1292 88.7452 16.1346 88.7704 16.1405C89.313 16.2714 89.716 16.6662 89.8451 17.168ZM88.5259 16.7072C88.4122 17.0564 88.2777 17.3998 88.1223 17.7363C87.5431 18.9912 87.2673 20.3142 87.2673 21.6373V21.7328C87.268 21.9922 87.26 22.2485 87.2436 22.5013C87.4474 22.6283 87.7202 22.5931 87.874 22.4284C87.9154 22.3875 87.9567 22.3193 87.9567 22.2511V21.9237C87.9567 21.857 87.9633 21.7903 87.9749 21.7251C87.7394 21.2852 87.6978 20.6934 87.8604 20.0005C88.0121 19.3595 88.2603 18.7866 88.5499 18.3774C88.6051 18.2956 88.7154 18.2819 88.7981 18.3365C88.8809 18.3911 88.8947 18.5002 88.8395 18.582C88.5637 18.9639 88.343 19.4959 88.2051 20.0824C88.1342 20.3805 88.0861 20.7577 88.145 21.1122L88.3153 20.5188C88.4118 20.1642 88.5497 19.8368 88.729 19.5095L89.1289 18.7866C89.1565 18.732 89.1703 18.6775 89.1841 18.6229C89.2944 18.2819 89.322 17.9136 89.2668 17.5181L89.2393 17.3271C89.1703 17.0271 88.9497 16.7952 88.6187 16.727C88.588 16.7187 88.5571 16.712 88.5259 16.7072ZM87.1853 23.1263C87.1833 23.1429 87.1812 23.1595 87.1791 23.1761C87.5715 23.3739 87.909 23.4848 88.1636 23.5468C88.1037 23.4165 88.0346 23.2645 87.9596 23.0954C87.824 23.1537 87.6771 23.1821 87.5292 23.1786C87.4132 23.1786 87.2971 23.1607 87.1853 23.1263ZM67.2709 19.7686C67.5997 19.4435 68.0033 19.0308 68.3788 18.6058C68.3937 18.6715 68.4106 18.7363 68.4293 18.8002C68.4569 18.8821 68.4845 18.9639 68.5121 19.0321L68.7 19.3679C68.1499 19.561 67.6589 19.6852 67.2709 19.7686ZM67.1744 16.9862L68.4442 16.9215C68.6235 16.5325 68.9805 16.2367 69.436 16.1269C69.4827 16.1159 69.5293 16.1069 69.5759 16.1C69.3733 15.2995 69.2748 14.4743 69.2845 13.6444C69.3111 11.1839 70.2617 8.86296 71.9754 7.07351C69.7768 8.07434 68.4997 9.95806 68.1811 12.676L68.1811 12.6873C68.1813 13.0252 68.1826 15.5981 67.1744 16.9862ZM69.5877 16.7406C69.6419 16.7259 69.6972 16.7165 69.7527 16.7126C69.8627 17.0508 69.9918 17.3835 70.1395 17.7091C70.7187 18.9912 71.0083 20.3279 71.0083 21.7055V21.7464C71.0083 21.989 71.0159 22.2288 71.0308 22.4655L71.0082 22.4829C70.8013 22.6466 70.4979 22.6193 70.3324 22.442C70.291 22.4011 70.2497 22.3329 70.2497 22.2647V21.9374C70.2497 21.8848 70.2476 21.8322 70.242 21.7804C70.5047 21.3353 70.5571 20.7228 70.3876 20.0005C70.2497 19.3731 70.0015 18.7866 69.6981 18.3774C69.6429 18.2956 69.5326 18.2819 69.4498 18.3365C69.3671 18.3911 69.3533 18.5002 69.4085 18.582C69.6843 18.9503 69.9049 19.4959 70.0428 20.0824C70.1101 20.4057 70.164 20.8218 70.083 21.2013L69.8911 20.5325C69.7946 20.1778 69.6567 19.8368 69.4774 19.5231L69.0775 18.8002C69.0706 18.773 69.0602 18.7456 69.0499 18.7184C69.0396 18.6911 69.0292 18.6638 69.0223 18.6366C68.912 18.2956 68.8844 17.9273 68.9396 17.5317L68.9672 17.3408C69.0223 17.0407 69.2568 16.8225 69.5877 16.7406ZM70.7126 23.1785L70.7197 23.1785C70.598 23.2191 70.4867 23.2502 70.3876 23.274C70.406 23.2341 70.4252 23.1921 70.4452 23.1484C70.5302 23.1684 70.6175 23.1786 70.7048 23.1786L70.7126 23.1785ZM69.2705 21.3372C69.3217 21.2604 69.3725 21.1796 69.4229 21.0951L69.4783 21.2845L69.2705 21.3372ZM79.0068 4.615H79.1447C81.5701 4.60725 83.9001 5.54867 85.6262 7.23381C87.3914 8.96605 88.3706 11.2712 88.3706 13.7399C88.3706 14.5168 88.2735 15.2746 88.0822 16.0102C88.0465 15.9752 87.9888 15.9531 87.9017 15.9359C87.8235 15.9223 87.7454 15.9101 87.6673 15.898C87.511 15.8738 87.3547 15.8495 87.1984 15.8131C86.3985 15.6086 85.5849 15.4449 84.7437 15.4176C83.1853 15.3494 81.6684 15.5404 80.1514 15.8541C79.6274 15.9632 79.0757 16.0041 78.5517 15.9086L78.4928 15.8982C77.3545 15.6971 76.2288 15.4983 75.0765 15.4312C74.1663 15.3767 73.2561 15.3767 72.3598 15.5404C71.7805 15.6358 71.2013 15.7586 70.6359 15.8813C70.5936 15.8928 70.5471 15.901 70.5001 15.9093C70.3803 15.9304 70.258 15.952 70.1974 16.0279C69.9958 15.2562 69.8969 14.4595 69.905 13.6581C69.9273 11.2746 70.8985 8.99578 72.608 7.31565C74.318 5.61069 76.5934 4.64228 79.0068 4.615ZM87.8327 16.7679C87.8362 16.7655 87.8396 16.763 87.843 16.7604C87.847 16.7575 87.851 16.7544 87.855 16.7513C87.7667 17.0006 87.6674 17.2472 87.5569 17.4908C87.3001 18.0441 87.0975 18.6091 86.9494 19.1818C87.005 18.9096 87.0329 18.6299 87.0329 18.3501C87.0329 17.6818 87.2949 17.1498 87.8327 16.7679ZM85.1436 21.119C86.0223 20.8688 86.6311 20.3262 86.8831 19.4544C86.768 19.9597 86.6949 20.4705 86.6637 20.9843L84.9505 22.8921C84.3575 23.5468 83.3646 23.7378 82.5509 23.3559L81.8062 23.0012C81.5718 22.8921 81.3235 22.8103 81.0615 22.783L80.3168 22.7012C80.0548 22.6739 79.7928 22.6875 79.5308 22.7421C79.255 22.7967 78.9516 22.7967 78.6758 22.7421C78.4137 22.6875 78.1517 22.6739 77.8897 22.7012L77.145 22.783C76.883 22.8239 76.6348 22.8921 76.4003 23.0012L75.6556 23.3559L75.6694 23.3695C75.2971 23.5196 74.1387 23.8605 73.2699 22.8921L71.5987 21.0448C71.5262 19.8143 71.2198 18.6095 70.7049 17.4636C70.5936 17.2171 70.4937 16.9664 70.4053 16.7121C70.4548 16.7609 70.5095 16.806 70.567 16.8498C70.9945 17.1771 71.2427 17.6136 71.2565 18.1728C71.2565 18.432 71.2703 18.6911 71.3117 18.9503C71.4634 20.0687 72.0702 20.8189 73.1734 21.1326C74.1938 21.4233 75.2737 21.4421 76.3038 21.1872C77.1451 20.9826 77.7519 20.5052 78.0415 19.6868C78.1518 19.3867 78.2207 19.0594 78.2759 18.7457C78.3165 18.5581 78.3439 18.3705 78.371 18.1845C78.399 17.9919 78.4269 17.801 78.469 17.6136C78.4965 17.4499 78.6207 17.2726 78.7448 17.1908C79.1723 16.918 79.7239 17.1498 79.8618 17.6272L79.9032 17.7909C79.9262 17.9409 79.9461 18.091 79.966 18.241C80.0058 18.5411 80.0457 18.8411 80.11 19.1412C80.3169 20.1915 80.9099 20.9144 81.9855 21.1735C83.0336 21.419 84.0955 21.419 85.1436 21.119ZM83.7232 16.1405C83.6179 16.1405 83.5112 16.139 83.404 16.1375C83.1879 16.1344 82.9698 16.1314 82.7578 16.1405C82.3303 16.1678 81.9166 16.236 81.5443 16.4406C81.1857 16.6452 80.9375 16.9316 80.8685 17.3408C80.772 17.9409 80.7996 18.5411 81.0202 19.1276C81.2547 19.7823 81.7097 20.2051 82.3993 20.3688C82.8819 20.4779 83.3784 20.5188 83.8886 20.4779C84.4678 20.437 85.0195 20.3279 85.5297 20.0142C85.971 19.7414 86.2744 19.3595 86.302 18.8411C86.3434 18.2819 86.3296 17.7227 86.3158 17.1635C86.302 16.8907 86.1503 16.6452 85.9159 16.5088C85.7504 16.4133 85.5573 16.3042 85.378 16.2769C84.8126 16.1678 83.7232 16.1132 83.7232 16.1405ZM74.6214 16.1132C74.5703 16.1132 74.5208 16.1117 74.4718 16.1101C74.3753 16.1071 74.2807 16.1042 74.1801 16.1132C74.1089 16.1198 74.0376 16.1261 73.9665 16.1323L73.9659 16.1324C73.5966 16.1648 73.2305 16.1969 72.8838 16.2769C72.277 16.4269 72.0288 16.7952 72.0288 17.409V18.5411C72.0288 18.7048 72.0426 18.8684 72.0839 19.0185C72.2494 19.6595 72.7183 20.0142 73.3113 20.2324C74.1249 20.5325 74.9662 20.5325 75.8212 20.3824C76.6072 20.246 77.1037 19.7823 77.3519 19.0457C77.5312 18.5138 77.5588 17.9682 77.4898 17.409C77.4696 17.2146 77.4027 17.0278 77.2948 16.8641C77.1869 16.7004 77.041 16.5645 76.8693 16.4678C76.6762 16.3587 76.4693 16.2633 76.2487 16.2223C75.7109 16.1678 74.6214 16.0996 74.6214 16.1132ZM81.6632 23.5763L82.3889 23.8923C83.249 24.2569 84.3878 24.1367 85.0195 23.5047L86.7433 21.5952C86.7164 21.8018 86.7164 22.0206 86.7164 22.2272V22.3123C86.7164 26.9551 83.3162 30.1881 79.0962 30.1881C74.8763 30.1881 71.4627 26.9673 71.4627 22.3244V22.2879C71.4627 22.0571 71.4492 21.8262 71.4358 21.5954L73.1596 23.5047C73.7912 24.1367 74.9435 24.2691 75.8036 23.8923L76.5293 23.5763C76.7309 23.4791 76.9594 23.4183 77.2013 23.394L77.927 23.321C78.1689 23.2846 78.4108 23.2967 78.6393 23.3454C78.9484 23.4061 79.2575 23.4061 79.5532 23.3454C79.7817 23.3089 80.0236 23.2967 80.2655 23.321L80.9912 23.394C81.2197 23.4304 81.4482 23.4791 81.6632 23.5763Z" fill="#808085"/>
    <path d="M52.5014 16.7406H50.088V25.2791H50.0191C49.2468 25.2791 48.6262 24.6107 48.6262 23.8333V16.727H46.2129C45.4268 16.727 44.7786 16.0859 44.7786 15.2948H53.9494C53.9494 16.0859 53.3012 16.7406 52.5014 16.7406Z" fill="#808085"/>
    <path fill-rule="evenodd" clip-rule="evenodd" d="M58.6381 25.3609C55.5353 25.3609 52.9978 23.0422 52.9978 20.2188C52.9978 17.3681 55.5353 15.0766 58.6381 15.0766C61.7548 15.0766 64.2785 17.3817 64.2785 20.2188C64.2785 23.0422 61.7548 25.3609 58.6381 25.3609ZM58.6381 16.5088C56.3213 16.5088 54.4596 18.1592 54.4596 20.2051C54.4596 22.2374 56.3351 23.9015 58.6381 23.9015C60.955 23.9015 62.8167 22.2374 62.8167 20.2051C62.8167 18.1728 60.955 16.5088 58.6381 16.5088Z" fill="#808085"/>
    <path d="M105.967 24.3652C105.733 24.9381 105.278 25.2654 104.768 25.2654C104.23 25.2654 103.788 24.9381 103.568 24.3516L101.747 19.6868L101.734 19.6732C101.72 19.6322 101.692 19.5913 101.637 19.5913C101.617 19.5913 101.597 19.6059 101.571 19.6245L101.562 19.6311C101.555 19.6359 101.548 19.6409 101.541 19.6459L99.7064 24.3516C99.4995 24.9244 99.0307 25.2518 98.5204 25.2518C97.9826 25.2518 97.5413 24.9244 97.3206 24.3379L93.7903 15.3221L93.8178 15.3085C94.5349 15.022 95.3762 15.3903 95.652 16.0859C96.252 17.5888 97.1713 19.9582 97.8378 21.6762L97.8399 21.6817L97.8406 21.6834C98.1226 22.4102 98.3591 23.0198 98.5066 23.3968L100.727 17.6954C100.879 17.3953 101.223 17.1771 101.623 17.1771C102.037 17.1771 102.396 17.409 102.533 17.7227C103.037 18.9685 103.602 20.4317 104.058 21.6105C104.35 22.3676 104.597 23.0074 104.754 23.3968L107.608 16.0723C107.884 15.3767 108.739 15.0357 109.443 15.3085L109.47 15.3221L105.967 24.3652Z" fill="#808085"/>
    <path d="M111.428 25.2791C110.642 25.2791 109.967 24.6516 109.967 23.8605V15.2266C110.753 15.2266 111.428 15.8541 111.428 16.6315V25.2791Z" fill="#808085"/>
    <path d="M120.144 24.5698C119.275 25.0336 118.117 25.2927 116.903 25.2927C115.69 25.2927 114.531 25.0336 113.662 24.5698C112.78 24.1197 112.242 23.4923 112.09 22.783C112.628 22.4829 113.318 22.4966 113.814 22.933C114.311 23.3832 115.4 23.8469 116.903 23.8469C118.765 23.8469 120.02 23.1649 120.241 22.5921L120.254 22.5784C120.351 22.3329 120.227 21.9101 120.089 21.7191C119.661 21.1326 118.586 20.8871 116.641 20.6552C115.621 20.5325 114.573 20.3961 113.745 20.0687C112.366 19.5095 112.077 18.5547 112.077 17.8318C112.077 17.0134 112.656 16.3315 113.704 15.8404C114.573 15.4312 115.717 15.2266 116.917 15.2266C118.117 15.2266 119.261 15.4312 120.13 15.8404C120.958 16.1951 121.482 16.7134 121.689 17.2999C121.206 17.6954 120.503 17.7636 119.978 17.409C119.482 17.0816 118.462 16.6724 116.917 16.6724C114.807 16.6724 113.676 17.3953 113.552 17.7773C113.47 18.0216 113.592 18.266 113.784 18.4431C114.204 18.8579 115.167 19.034 116.834 19.2503L116.918 19.2608C117.982 19.3939 119.091 19.5325 119.965 19.8914C121.151 20.4097 121.757 21.2417 121.757 22.4284C121.744 23.2877 121.178 24.0515 120.144 24.5698Z" fill="#808085"/>
    <path d="M130.418 24.5698C129.549 25.0336 128.391 25.2927 127.177 25.2927C125.964 25.2927 124.805 25.0336 123.936 24.5698C123.054 24.1197 122.516 23.4923 122.364 22.783C122.902 22.4829 123.592 22.4966 124.088 22.933C124.585 23.3832 125.674 23.8469 127.177 23.8469C129.039 23.8469 130.294 23.1649 130.514 22.5921L130.528 22.5784C130.625 22.3329 130.501 21.9101 130.363 21.7191C129.935 21.1326 128.86 20.8871 126.915 20.6552C125.895 20.5325 124.847 20.3961 124.019 20.0687C122.64 19.5095 122.35 18.5547 122.35 17.8318C122.35 17.0134 122.93 16.3315 123.978 15.8404C124.847 15.4312 125.991 15.2266 127.191 15.2266C128.391 15.2266 129.535 15.4312 130.404 15.8404C131.232 16.1951 131.756 16.7134 131.962 17.2999C131.48 17.6954 130.776 17.7636 130.252 17.409C129.756 17.0816 128.735 16.6724 127.191 16.6724C125.081 16.6724 123.95 17.3953 123.826 17.7773C123.744 18.0216 123.866 18.266 124.058 18.4431C124.478 18.8579 125.441 19.034 127.108 19.2503L127.192 19.2608C128.256 19.3939 129.365 19.5325 130.239 19.8914C131.425 20.4097 132.031 21.2417 132.031 22.4284C132.018 23.2877 131.452 24.0515 130.418 24.5698Z" fill="#808085"/>
    <path d="M140.83 16.7134H134.652C134.555 16.7134 134.486 16.7952 134.486 16.877V19.3185H141.147C141.119 20.0687 140.513 20.7234 139.727 20.7234H134.472V23.615C134.472 23.7105 134.555 23.7787 134.638 23.7787H140.54C141.326 23.7787 141.988 24.4061 142.002 25.1972H134.5C133.714 25.1972 133.038 24.5698 133.038 23.7787V16.727C133.038 15.9495 133.686 15.3085 134.486 15.3085H142.181C142.181 16.0587 141.588 16.7134 140.83 16.7134Z" fill="#808085"/>
    <path d="M150.8 24.8426L147.891 21.3781H144.926V21.2144C145.008 20.5052 145.601 19.9323 146.305 19.9323H148.304C149.214 19.9323 149.959 19.7823 150.456 19.4958C150.924 19.2231 151.145 18.8548 151.145 18.2956C151.145 17.9 151.145 16.727 148.318 16.727H144.733C144.636 16.727 144.567 16.8088 144.567 16.8907V23.8742C144.567 24.638 143.891 25.2791 143.105 25.2791V16.6315C143.105 15.9086 143.74 15.2948 144.484 15.2948H148.318C152.042 15.2948 152.607 17.1771 152.607 18.3092C152.607 19.3731 152.124 20.2324 151.214 20.7643C150.787 21.0099 150.29 21.1735 149.711 21.2826L152.8 24.9654C152.193 25.4291 151.283 25.4155 150.8 24.8426Z" fill="#808085"/>
    <path d="M12.7708 17.9955C11.9847 17.1635 10.8263 16.6315 9.5438 16.6315C7.28215 16.6315 5.43422 18.2546 5.43422 20.2597C5.43422 22.2647 7.26836 23.9015 9.5438 23.9015C10.6195 23.9015 11.64 23.4923 12.426 22.8512C12.9639 22.4147 13.7499 22.442 14.2602 22.8785C13.8504 23.4996 13.3093 24.0255 12.6743 24.4198C11.7503 25.0063 10.6608 25.3063 9.5438 25.3063C6.4823 25.3063 4 23.0558 4 20.2597C4 17.4635 6.4823 15.213 9.5438 15.213C11.7227 15.213 13.6948 16.386 14.5773 18.1864C14.0119 18.5547 13.2397 18.5138 12.7708 17.9955Z" fill="#808085"/>
    <path d="M22.9758 24.8426L20.066 21.3781H17.101V21.2144C17.1838 20.5052 17.7768 19.9323 18.4801 19.9323H20.4797C21.3899 19.9323 22.1346 19.7823 22.631 19.4958C23.0999 19.2231 23.3206 18.8548 23.3206 18.2956C23.3206 17.9 23.3206 16.727 20.4935 16.727H16.908C16.8114 16.727 16.7425 16.8088 16.7425 16.8907V23.8742C16.7425 24.638 16.0667 25.2791 15.2807 25.2791V16.6315C15.2807 15.9086 15.915 15.2948 16.6597 15.2948H20.4935C24.2169 15.2948 24.7824 17.1771 24.7824 18.3092C24.7824 19.3731 24.2997 20.2324 23.3895 20.7643C22.962 21.0099 22.4655 21.1735 21.8863 21.2826L24.6996 24.9654C24.0928 25.4291 23.4447 25.4155 22.9758 24.8426Z" fill="#808085"/>
    <path d="M30.9191 21.9783V25.2791H30.8502C30.1055 25.2791 29.4573 24.6516 29.4573 23.9151V21.9373L24.3411 15.5403C24.9478 15.0766 25.8442 15.1039 26.3131 15.6767L30.1882 20.5325L34.0634 15.6904C34.5323 15.1039 35.4287 15.0766 36.0354 15.5403H36.0492L30.9191 21.9783Z" fill="#808085"/>
    <path d="M43.9098 20.7507C43.1927 21.1735 42.2274 21.3781 41.0138 21.3781H38.0764C38.0764 20.6007 38.697 19.9323 39.4693 19.9323H41C41.924 19.9323 42.6687 19.7823 43.1652 19.4958C43.634 19.2231 43.8547 18.8548 43.8547 18.2956C43.8547 17.9 43.8547 16.727 41.0138 16.727H37.8972C37.7868 16.727 37.7179 16.8088 37.7179 16.8907V23.8742C37.7179 24.638 37.0422 25.2791 36.2561 25.2791V16.6315C36.2561 15.9086 36.8905 15.2948 37.6351 15.2948H41.0138C44.7511 15.2948 45.3165 17.1771 45.3165 18.3092C45.3165 19.3731 44.8338 20.2324 43.9098 20.7507Z" fill="#808085"/>
    <path fill-rule="evenodd" clip-rule="evenodd" d="M84.5921 35.9589C84.6886 35.9862 84.7851 35.9998 84.8817 35.9998C85.0334 35.9998 85.1713 35.9725 85.2954 35.9043C85.5022 35.8089 85.6539 35.6316 85.7229 35.4133L86.2193 33.8584C86.3159 33.572 86.3573 33.2719 86.3573 32.9718V32.699C86.3573 32.399 86.3159 32.0989 86.2193 31.8125L85.7229 30.2575C85.6452 30.0375 85.4828 29.8567 85.271 29.7545C85.0592 29.6524 84.8152 29.6371 84.5921 29.7119L83.9577 29.9165C82.8131 30.2848 81.7374 30.8168 80.7583 31.4851C80.7359 31.5017 80.7143 31.5192 80.6936 31.5375C80.4965 31.2898 80.1907 31.1305 79.8481 31.1305H78.4552C78.1174 31.1305 77.8154 31.2854 77.618 31.5272C77.5991 31.5123 77.5793 31.4983 77.5587 31.4851C76.5796 30.8168 75.5039 30.2848 74.3593 29.9165L73.725 29.7119C73.4905 29.6437 73.2423 29.6574 73.0216 29.7665C72.8148 29.862 72.6631 30.0393 72.5941 30.2575L72.0977 31.8125C72.0011 32.0989 71.9598 32.399 71.9598 32.699V32.9718C71.9598 33.2719 72.0011 33.572 72.0977 33.8584L72.5941 35.4133C72.6529 35.587 72.7662 35.7375 72.9175 35.843C73.0688 35.9485 73.2502 36.0035 73.4354 35.9998C73.5319 35.9998 73.6284 35.9862 73.725 35.9589L74.3593 35.7543C75.5039 35.386 76.5796 34.8541 77.5587 34.1858C77.5854 34.166 77.6108 34.145 77.6349 34.123C77.8324 34.3531 78.1269 34.4995 78.4552 34.4995H79.8481C80.1776 34.4995 80.4731 34.352 80.6706 34.1203C80.6979 34.1439 80.7271 34.1658 80.7583 34.1858C81.7374 34.8541 82.8131 35.386 83.9577 35.7543L84.5921 35.9589ZM80.4034 32.0905C80.401 32.1158 80.3997 32.1413 80.3997 32.1671V33.5038C80.3997 33.5195 80.4002 33.5353 80.401 33.5509C80.3471 33.7961 80.1253 33.9812 79.8619 33.9812H78.469C78.1656 33.9812 77.9174 33.7356 77.9174 33.4356V32.1944C77.9174 31.8943 78.1656 31.6488 78.469 31.6488H79.8619C80.1294 31.6488 80.354 31.8397 80.4034 32.0905ZM83.5026 30.7895C82.759 31.0311 82.0399 31.3457 81.358 31.7205C81.263 31.7816 81.1688 31.8441 81.0755 31.9079C80.9927 31.9625 80.9376 32.058 80.9376 32.1534V32.3444L83.1717 31.6079C83.3096 31.5669 83.4613 31.6351 83.5026 31.7715C83.544 31.9079 83.475 32.058 83.3371 32.0989L81.1238 32.8286L83.3371 33.5583C83.475 33.5992 83.544 33.7493 83.5026 33.8857C83.4613 33.9948 83.3647 34.063 83.2544 34.063C83.2268 34.063 83.1992 34.063 83.1717 34.0494L80.9376 33.3128V33.4901C80.9376 33.5856 80.9927 33.6811 81.0755 33.7356C82.0166 34.3806 83.048 34.8861 84.137 35.236L84.7713 35.4406C84.8679 35.4679 84.9782 35.4679 85.0747 35.4133C85.086 35.4078 85.0966 35.4017 85.1068 35.3952C85.1107 35.3928 85.1145 35.3902 85.1182 35.3876L85.4333 34.404C85.5161 34.1448 85.5574 33.872 85.5574 33.5993V33.3265C85.5574 33.0537 85.5161 32.7809 85.4333 32.5217L84.9369 30.9668C84.8403 30.6531 84.468 30.4758 84.137 30.5849L83.5026 30.7895ZM77.2553 31.9352C77.3171 31.9759 77.3634 32.0394 77.383 32.1086C77.3807 32.1369 77.3796 32.1655 77.3796 32.1944V32.3262L75.2006 31.6079C75.0626 31.5669 74.911 31.6351 74.8696 31.7715C74.8282 31.9079 74.8972 32.058 75.0351 32.0989L77.2484 32.8286L75.0351 33.5583C74.8972 33.5992 74.8282 33.7493 74.8696 33.8857C74.911 33.9948 75.0075 34.063 75.1178 34.063C75.1454 34.063 75.173 34.063 75.2006 34.0494L77.3796 33.331V33.4356C77.3796 33.4808 77.3824 33.5253 77.388 33.569C77.3724 33.6461 77.3231 33.7182 77.2553 33.7629C76.3176 34.404 75.2971 34.9087 74.1938 35.2633L73.5595 35.4679C73.4629 35.4952 73.3526 35.4815 73.2561 35.4406C73.1969 35.4113 73.1519 35.3682 73.1209 35.316L72.8288 34.404C72.746 34.1448 72.7046 33.872 72.7046 33.5993V33.3265C72.7046 33.0537 72.746 32.7809 72.8288 32.5217L73.3252 30.9668C73.4218 30.6531 73.7941 30.4758 74.1251 30.5849L74.7594 30.7895C75.5744 31.0543 76.3598 31.4066 77.0992 31.83C77.1515 31.8647 77.2036 31.8997 77.2553 31.9352Z" fill="#808085"/>
</svg>
