<svg width="154" height="40" viewBox="0 0 154 40" fill="none" xmlns="http://www.w3.org/2000/svg">
    <path d="M33.4845 0.799316H15.3753L13.8745 8.77404L30.2158 8.79277C38.2638 8.79277 40.6437 11.5703 40.5758 16.1816C40.5408 18.5439 39.4636 22.537 38.9984 23.8316C37.7581 27.2825 35.2108 31.2204 25.6587 31.2048L9.7738 31.1986L8.26972 39.1764H26.3384C32.7117 39.1764 35.4243 38.4719 38.2923 37.2106C44.6557 34.4174 48.4422 28.447 49.9583 20.6555C52.2177 9.05294 49.4044 0.799316 33.4845 0.799316Z" fill="#808085"/>
    <path d="M89.4906 39.1952L90.767 32.2611H106.237C107.452 32.2611 108.304 31.567 108.485 30.4118C108.728 29.2556 108.121 28.5625 106.906 28.5625H99.5091C93.6734 28.5625 90.8776 25.3271 91.911 19.7792C92.9443 14.2314 96.9563 10.9969 102.791 10.9969H119.597L118.261 17.931H103.449C102.233 17.931 101.382 18.6241 101.199 19.7792C100.956 20.9354 101.564 21.6285 102.78 21.6285H110.177C116.011 21.6285 118.807 24.865 117.775 30.4118C116.743 35.9586 112.79 39.1952 106.955 39.1952H89.4906Z" fill="#808085"/>
    <path d="M65.9306 39.1941C56.3259 39.1941 52.0096 34.2238 53.7118 25.0929C55.3538 15.9631 61.5541 10.9928 71.1577 10.9928H88.1788L82.9506 39.1952L65.9306 39.1941ZM76.9934 17.9279H72.6147C67.3876 17.9279 64.2952 20.1237 63.3877 25.0929C62.4156 30.0632 64.3608 32.259 69.5879 32.259H74.3782L76.9934 17.9279Z" fill="#808085"/>
    <path d="M140.691 39.1941L143.731 22.7816C144.278 19.5451 142.897 18.1589 139.492 18.1589H134.652L130.761 39.1941H120.909L128.032 0.799316H137.884L135.988 10.998H143.366C151.998 10.998 155.098 14.581 153.578 22.7868L150.539 39.1993L140.691 39.1941Z" fill="#808085"/>
    <path d="M7.56153 15.9818C2.81829 15.9818 2.1385 18.9207 1.68968 20.6961C1.10184 23.022 0.90918 23.9638 0.90918 23.9638H19.4508C24.194 23.9638 24.8738 21.0249 25.3227 19.2495C25.9105 16.9236 26.1032 15.9818 26.1032 15.9818H7.56153Z" fill="#808085"/>
</svg>
