<svg width="101" height="40" viewBox="0 0 101 40" fill="none" xmlns="http://www.w3.org/2000/svg">
    <path d="M22.2516 8H10.9934L10.0603 12.9842L20.2195 12.9959C25.2229 12.9959 26.7024 14.7319 26.6602 17.6139C26.6384 19.0904 25.9687 21.5861 25.6795 22.3952C24.9084 24.552 23.3248 27.0132 17.3864 27.0034L7.51101 26.9995L6.57594 31.9857H17.809C21.7711 31.9857 23.4575 31.5454 25.2406 30.757C29.1966 29.0113 31.5506 25.2798 32.4931 20.4101C33.8978 13.1585 32.1488 8 22.2516 8Z" fill="#808085"/>
    <path d="M57.0698 31.9974L57.8633 27.6636H67.4808C68.2362 27.6636 68.7656 27.2298 68.8786 26.5078C69.0297 25.7852 68.652 25.352 67.8966 25.352H63.2981C59.6702 25.352 57.9321 23.3298 58.5745 19.8624C59.2169 16.395 61.7111 14.3735 65.3384 14.3735H75.7868L74.9559 18.7073H65.7474C64.9913 18.7073 64.4626 19.1405 64.3489 19.8624C64.1978 20.5851 64.5755 21.0182 65.3316 21.0182H69.93C73.5573 21.0182 75.2955 23.0411 74.6537 26.5078C74.0119 29.9746 71.5545 31.9974 67.9272 31.9974H57.0698Z" fill="#808085"/>
    <path d="M42.4229 31.9968C36.4518 31.9968 33.7684 28.8903 34.8266 23.1835C35.8475 17.4773 39.7021 14.3709 45.6725 14.3709H56.2543L53.004 31.9974L42.4229 31.9968ZM49.3005 18.7053H46.5783C43.3287 18.7053 41.4061 20.0777 40.842 23.1835C40.2376 26.2899 41.447 27.6623 44.6966 27.6623H47.6746L49.3005 18.7053Z" fill="#808085"/>
    <path d="M88.9003 31.9967L90.7901 21.7389C91.1304 19.7161 90.2716 18.8497 88.1551 18.8497H85.1457L82.7271 31.9967H76.6021L81.0304 8H87.1553L85.9766 14.3742H90.5635C95.9296 14.3742 97.8569 16.6136 96.9123 21.7422L95.0224 32L88.9003 31.9967Z" fill="#808085"/>
    <path d="M6.13567 17.4891C3.18687 17.4891 2.76425 19.3259 2.48523 20.4355C2.11978 21.8892 2 22.4778 2 22.4778H13.5271C16.4759 22.4778 16.8985 20.641 17.1775 19.5314C17.543 18.0777 17.6627 17.4891 17.6627 17.4891H6.13567Z" fill="#808085"/>
</svg>
