<svg width="164" height="64" viewBox="0 0 164 64" fill="none" xmlns="http://www.w3.org/2000/svg">
    <path d="M36.4855 12.7993H18.3762L16.8754 20.774L33.2168 20.7928C41.2648 20.7928 43.6447 23.5703 43.5768 28.1816C43.5418 30.5439 42.4646 34.537 41.9994 35.8316C40.7591 39.2825 38.2118 43.2204 28.6596 43.2048L12.7748 43.1986L11.2707 51.1764H29.3394C35.7126 51.1764 38.4252 50.4719 41.2933 49.2106C47.6566 46.4174 51.4431 40.447 52.9593 32.6555C55.2187 21.0529 52.4053 12.7993 36.4855 12.7993Z" fill="#808085"/>
    <path d="M92.4916 51.1952L93.768 44.2611H109.238C110.453 44.2611 111.305 43.567 111.486 42.4118C111.729 41.2556 111.122 40.5625 109.907 40.5625H102.51C96.6744 40.5625 93.8786 37.3271 94.9119 31.7792C95.9453 26.2314 99.9573 22.9969 105.792 22.9969H122.598L121.262 29.931H106.45C105.234 29.931 104.383 30.6241 104.2 31.7792C103.957 32.9354 104.565 33.6285 105.781 33.6285H113.178C119.012 33.6285 121.808 36.865 120.776 42.4118C119.744 47.9586 115.791 51.1952 109.956 51.1952H92.4916Z" fill="#808085"/>
    <path d="M68.9316 51.1941C59.3269 51.1941 55.0106 46.2238 56.7128 37.0929C58.3548 27.9631 64.5551 22.9928 74.1587 22.9928H91.1798L85.9516 51.1952L68.9316 51.1941ZM79.9944 29.9279H75.6157C70.3886 29.9279 67.2961 32.1237 66.3886 37.0929C65.4166 42.0632 67.3618 44.259 72.5889 44.259H77.3792L79.9944 29.9279Z" fill="#808085"/>
    <path d="M143.692 51.1941L146.732 34.7816C147.279 31.5451 145.898 30.1589 142.493 30.1589H137.653L133.762 51.1941H123.91L131.033 12.7993H140.885L138.989 22.998H146.367C154.999 22.998 158.099 26.581 156.579 34.7868L153.54 51.1993L143.692 51.1941Z" fill="#808085"/>
    <path d="M10.5625 27.9818C5.81927 27.9818 5.13948 30.9207 4.69066 32.6961C4.10282 35.022 3.91016 35.9638 3.91016 35.9638H22.4518C27.195 35.9638 27.8748 33.0249 28.3236 31.2495C28.9115 28.9236 29.1041 27.9818 29.1041 27.9818H10.5625Z" fill="#808085"/>
</svg>
