<svg width="157" height="40" viewBox="0 0 157 40" fill="none" xmlns="http://www.w3.org/2000/svg">
    <path fill-rule="evenodd" clip-rule="evenodd" d="M18.6325 15.1648C20.4616 16.9209 21.303 18.8877 21.303 21.4164C21.303 26.3335 17.5839 29.752 12.2552 29.752H7.03626L4 26.8369V10.2126H9.3165C12.1698 10.2126 14.572 11.196 16.206 12.8467L18.6325 15.1648ZM6.87774 12.835H6.84115V13.4204L9.43843 15.8906V15.2936L6.87774 12.835ZM9.87741 15.2116L7.40207 12.835H7.04845L9.52379 15.2116H9.87741ZM10.7432 15.2116L8.26782 12.835H7.57279L10.0481 15.2116H10.7432ZM9.35307 12.835H8.43854L10.9139 15.2116H11.8284L9.35307 12.835ZM12.7186 15.2233L10.292 12.8936C10.0359 12.8584 9.79205 12.8467 9.52379 12.835L11.9991 15.2116H12.2552C12.4137 15.2116 12.5722 15.2116 12.7186 15.2233ZM13.499 15.3053L11.1334 13.0341C10.9261 12.9872 10.7066 12.9521 10.4871 12.917L12.9015 15.235C13.1088 15.2467 13.316 15.2818 13.499 15.3053ZM14.2062 15.4692L11.9016 13.2565C11.7309 13.198 11.548 13.1394 11.365 13.0926L13.7184 15.3521C13.8892 15.3872 14.0477 15.4223 14.2062 15.4692ZM14.4745 15.5511C14.633 15.6214 14.8037 15.6916 14.95 15.7618L12.7064 13.6077C12.5478 13.5258 12.3771 13.4438 12.2064 13.3736L14.4745 15.5511ZM6.84115 18.0447L7.28013 18.4662L7.18258 18.5599L6.84115 18.2321V24.3666H9.43843V16.0545L6.84115 13.6077V14.1814L9.3043 16.5345L9.20675 16.6165L6.84115 14.357V14.9423L8.88971 16.9209L8.80435 17.0145L6.84115 15.1179V15.715L8.48731 17.3072L8.40196 17.4008L6.84115 15.8906V16.4877L8.08492 17.6935L7.99957 17.7872L6.84115 16.6633V17.2721L7.68253 18.0799L7.58497 18.1735L6.84115 17.4477V18.0447ZM14.7549 15.4106C14.3403 14.7901 13.7916 14.2633 13.1331 13.8536L14.7549 15.4106ZM18.3887 15.3989L17.401 14.4272C18.0594 15.6096 18.4862 17.073 18.4862 18.595C18.4862 18.7589 18.4862 18.9228 18.474 19.075L20.9616 21.475V21.4164C20.9616 18.9696 20.1324 17.1199 18.3887 15.3989ZM9.77986 24.3549C13.3282 24.1676 15.6207 21.9315 15.6207 18.595C15.6207 17.7287 15.4622 16.9326 15.1695 16.2301C14.4257 15.7384 13.5721 15.5394 12.2552 15.5394H9.77986V24.3549ZM17.9619 21.6037L20.547 24.0857C20.7908 23.3247 20.9372 22.5052 20.9616 21.6389L18.4618 19.2389C18.4009 20.0818 18.2301 20.8662 17.9619 21.6037ZM20.4982 24.2027L17.9131 21.7208C17.6814 22.3062 17.3888 22.8564 17.0352 23.3481L19.669 25.8769C20.0104 25.3618 20.2909 24.7998 20.4982 24.2027ZM18.596 27.1413C18.974 26.79 19.3032 26.392 19.5959 25.9705L16.9742 23.4535C16.6693 23.8632 16.3279 24.2496 15.9377 24.5891L18.596 27.1413ZM14.7793 25.4671L17.4497 28.031C17.8278 27.7852 18.1814 27.5159 18.5106 27.2232L15.8524 24.671C15.5231 24.9637 15.1695 25.233 14.7793 25.4671ZM13.6087 26.0876L16.2791 28.6515C16.645 28.4876 16.9986 28.3003 17.34 28.1012L14.6696 25.5374C14.3403 25.7481 13.9867 25.9237 13.6087 26.0876ZM12.4625 26.4974L15.1207 29.0495C15.4744 28.9559 15.828 28.8271 16.1572 28.6983L13.4868 26.1344C13.1575 26.2749 12.8161 26.4037 12.4625 26.4974ZM11.3529 26.7549L13.9989 29.2954C14.3403 29.2369 14.6696 29.1666 14.9866 29.0847L12.3405 26.5442C12.0235 26.6261 11.6943 26.6964 11.3529 26.7549ZM11.1943 26.7783C10.9017 26.8369 10.5968 26.872 10.292 26.8954L12.9137 29.4008C13.2307 29.389 13.5355 29.3539 13.8404 29.3188L11.1943 26.7783ZM11.9016 29.4242H12.2552C12.4259 29.4242 12.5844 29.4242 12.7429 29.4125L10.1335 26.9071C9.86521 26.9188 9.59695 26.9305 9.3165 26.9305H9.3043L11.9016 29.4242ZM4.5853 26.9305L7.18258 29.4242H7.3533L4.76821 26.9305H4.5853ZM4.93893 26.9305L7.5362 29.4242H7.75569L5.15841 26.9305H4.93893ZM5.32912 26.9305L7.9264 29.4242H8.20686L5.60958 26.9305H5.32912ZM5.7803 26.9305L8.37757 29.4242H8.73119L6.13392 26.9305H5.7803ZM6.30463 26.9305L8.9019 29.4242H9.32868L6.73142 26.9305H6.30463ZM6.90212 26.9305L9.4994 29.4242H10.0115L7.41427 26.9305H6.90212ZM7.59717 26.9305L10.1944 29.4242H10.8163L8.21905 26.9305H7.59717ZM8.38976 26.9305L10.987 29.4242H11.7309L9.12139 26.9305H8.38976ZM34.7284 24.3901L37.7646 27.3052V29.752H26.0342L22.9979 26.8369V10.2126H34.3747L37.411 13.1277V15.434H28.7656L28.7534 17.1082H32.9846L36.0209 20.0233V22.3764H28.7534V24.3901H34.7284ZM37.0696 13.2682L34.4723 10.7746V12.7297L37.0696 15.1062V13.2682ZM28.668 15.1062L26.083 12.7297H25.9001L28.4851 15.1062H28.668ZM29.1558 15.1062L26.5585 12.7297H26.2659L28.8509 15.1062H29.1558ZM29.7655 15.1062L27.1682 12.7297H26.7414L29.3387 15.1062H29.7655ZM30.4971 15.1062L27.912 12.7297H27.3511L29.9484 15.1062H30.4971ZM31.4726 15.1062L28.8631 12.7297H28.0949L30.68 15.1062H31.4726ZM32.4481 15.1062L29.8386 12.7297H29.0582L31.6555 15.1062H32.4481ZM33.4602 15.1062L30.8629 12.7297H30.0337L32.631 15.1062H33.4602ZM34.4357 15.1062L31.8628 12.7297H31.0458L33.6431 15.1062H34.4357ZM35.2893 15.1062L32.7042 12.7297H32.0335L34.6308 15.1062H35.2893ZM36.0209 15.1062L33.4358 12.7297H32.8749L35.4844 15.1062H36.0209ZM36.5086 15.1062L33.9358 12.7297H33.6065L36.216 15.1062H36.5086ZM36.8745 15.1062L34.3016 12.7297H34.1065L36.7037 15.1062H36.8745ZM25.8147 16.1482L26.4122 16.6984L26.3146 16.7804L25.8147 16.3238V17.1082H28.412V15.1999L25.8147 12.8233V13.315L28.0705 15.3872L27.9608 15.4575L25.8147 13.4906V14.0292L27.656 15.715L27.5462 15.797L25.8147 14.1931V14.7316L27.2414 16.0428L27.1316 16.1248L25.8147 14.9072V15.4457L26.8268 16.3706L26.7292 16.4526L25.8147 15.6096V16.1482ZM33.0822 17.6701V19.6721H33.07L35.6795 22.0486V20.1638L33.0822 17.6701ZM28.4973 22.0486H28.7168L26.1195 19.6721H25.9001L28.4973 22.0486ZM26.3025 19.6721L28.8997 22.0486H29.3265L26.7414 19.6721H26.3025ZM26.9243 19.6721L29.5094 22.0486H30.1801L27.5706 19.6721H26.9243ZM27.7657 19.6721L30.363 22.0486H31.2775L28.6924 19.6721H27.7657ZM32.4481 22.0486L29.8752 19.6721H28.8753L31.4604 22.0486H32.4481ZM33.6187 22.0486L31.0214 19.6721H30.0459L32.6432 22.0486H33.6187ZM34.4601 22.0486L31.8872 19.6721H31.2044L33.8016 22.0486H34.4601ZM35.0698 22.0486L32.4847 19.6721H32.0579L34.6552 22.0486H35.0698ZM32.6554 19.6721L35.2649 22.0486H35.4844L32.8993 19.6721H32.6554ZM25.8147 23.8281L26.1317 24.1208L26.0342 24.2145L25.8147 24.0154V24.3901H28.412V22.1306L25.8147 19.754V20.2691L28.0705 22.353L27.9852 22.435L25.8147 20.4447V20.995L27.6925 22.7159L27.595 22.7979L25.8147 21.1589V21.6974L27.3023 23.0671L27.2048 23.1491L25.8147 21.873V22.4115L26.9121 23.4184L26.8146 23.5003L25.8147 22.5871V23.1257L26.5219 23.7696L26.4244 23.8515L25.8147 23.2896V23.8281ZM34.8259 24.952V26.9305L37.4232 29.4242V27.4456L34.8259 24.952ZM24.766 26.9305H23.5832L26.1805 29.4242H27.3633L24.766 26.9305ZM25.9976 26.9305H24.9368L27.534 29.4242H28.6071L25.9976 26.9305ZM26.1683 26.9305L28.7778 29.4242H29.7289L27.1194 26.9305H26.1683ZM27.2901 26.9305L29.8996 29.4242H30.741L28.1437 26.9305H27.2901ZM29.0582 26.9305H28.3144L30.9117 29.4242H31.6677L29.0582 26.9305ZM32.4969 29.4242L29.8996 26.9305H29.229L31.8384 29.4242H32.4969ZM30.0703 26.9305L32.6676 29.4242H33.2529L30.6556 26.9305H30.0703ZM30.8263 26.9305L33.4236 29.4242H33.948L31.3385 26.9305H30.8263ZM31.5092 26.9305L34.1187 29.4242H34.5698L31.9604 26.9305H31.5092ZM32.1311 26.9305L34.7405 29.4242H35.1307L32.5213 26.9305H32.1311ZM32.692 26.9305L35.3015 29.4242H35.6429L33.0334 26.9305H32.692ZM33.2041 26.9305L35.8136 29.4242H36.1063L33.4968 26.9305H33.2041ZM33.6675 26.9305L36.277 29.4242H36.5208L33.9236 26.9305H33.6675ZM34.0943 26.9305L36.6916 29.4242H36.911L34.3016 26.9305H34.0943ZM34.4723 26.9305L37.0818 29.4242H37.2525L34.643 26.9305H34.4723ZM54.0433 15.5277H45.0565V17.6701H49.495L52.5313 20.5852V22.9735H45.0565V29.752H42.3495L39.3132 26.8369V10.2126H51.0071L54.0433 13.1277V15.5277ZM51.1046 10.7746V12.8233L53.6897 15.1999H53.7019V13.2682L51.1046 10.7746ZM44.7882 15.1999H44.9833L42.3861 12.8233H42.2154L44.7882 15.1999ZM45.4589 15.1999L42.8494 12.8233H42.5812L45.154 15.1999H45.4589ZM46.0808 15.1999L43.4713 12.8233H43.0445L45.6296 15.1999H46.0808ZM46.8734 15.1999L44.2761 12.8233H43.6664L46.2515 15.1999H46.8734ZM47.9708 15.1999L45.3735 12.8233H44.4712L47.0441 15.1999H47.9708ZM49.0195 15.1999L46.4222 12.8233H45.5565L48.1537 15.1999H49.0195ZM50.1657 15.1999L47.5684 12.8233H46.6051L49.2024 15.1999H50.1657ZM51.2509 15.1999L48.6659 12.8233H47.7391L50.3486 15.1999H51.2509ZM52.0557 15.1999L49.4585 12.8233H48.8488L51.4338 15.1999H52.0557ZM52.6776 15.1999L50.0803 12.8233H49.6414L52.2386 15.1999H52.6776ZM53.141 15.1999L50.5559 12.8233H50.2632L52.8605 15.1999H53.141ZM50.7388 12.8233L53.3239 15.1999H53.5068L50.9217 12.8233H50.7388ZM42.1178 17.6701H44.7151V15.2936L42.1178 12.9053V13.3033L44.4346 15.4457L44.3493 15.5277L42.1178 13.4789V14.0175L44.0566 15.8087L43.9591 15.9023L42.1178 14.1931V14.7316L43.6786 16.1716L43.5811 16.2653L42.1178 14.9072V15.4457L43.3006 16.5345L43.2152 16.6165L42.1178 15.6096V16.1599L42.9226 16.8974L42.8372 16.9794L42.1178 16.3238V16.8623L42.5446 17.2604L42.4592 17.3423L42.1178 17.0262V17.6701ZM49.5926 18.2321V20.2691L52.1899 22.6457V20.7257L49.5926 18.2321ZM42.191 20.2691L44.776 22.6457H45.0199L42.4226 20.2691H42.191ZM42.6055 20.2691L45.1906 22.6457H45.6052L43.0201 20.2691H42.6055ZM43.203 20.2691L45.7759 22.6457H46.5441L43.9347 20.2691H43.203ZM44.1176 20.2691L46.7149 22.6457H47.666L45.0809 20.2691H44.1176ZM45.2638 20.2691L47.8367 22.6457H48.9341L46.3612 20.2691H45.2638ZM46.5319 20.2691L49.117 22.6457H50.0803L47.4831 20.2691H46.5319ZM47.6538 20.2691L50.2632 22.6457H50.9949L48.422 20.2691H47.6538ZM48.5927 20.2691L51.1778 22.6457H51.5924L49.0073 20.2691H48.5927ZM49.178 20.2691L51.7753 22.6457H52.007L49.4219 20.2691H49.178ZM42.1178 26.9305L44.7151 29.4242V22.7042L44.6907 22.7276L42.1178 20.3745V20.7608L44.4468 22.915L44.3615 22.9969L42.1178 20.9364V21.475L44.0688 23.2779L43.9713 23.3715L42.1178 21.6506V22.1891L43.6908 23.6408L43.5933 23.7345L42.1178 22.3647V22.9032L43.3128 24.0037L43.2274 24.0857L42.1178 23.0671V23.6174L42.9348 24.3666L42.8494 24.4486L42.1178 23.7813V24.3315L42.5568 24.7296L42.4714 24.8115L42.1178 24.4837V26.9305ZM39.8985 26.9305L42.4958 29.4242H42.9958L40.4107 26.9305H39.8985ZM41.0204 26.9305H40.5814L43.1787 29.4242H43.6176L41.0204 26.9305ZM41.1911 26.9305L43.8005 29.4242H44.1176L41.5325 26.9305H41.1911ZM41.7032 26.9305L44.3005 29.4242H44.5322L41.9471 26.9305H41.7032ZM58.1161 10.2126L61.1523 13.1277V29.752H58.3965L55.3603 26.8369V10.2126H58.1161ZM58.2136 10.9619L60.8109 13.4555V13.2682L58.2136 10.7746V10.9619ZM58.2136 11.4653L60.8109 13.9589V13.6311L58.2136 11.1375V11.4653ZM58.2136 12.156L60.8109 14.6497V14.1228L58.2136 11.6292V12.156ZM58.2136 13.1277L60.8109 15.6214V14.8253L58.2136 12.3316V13.1277ZM58.2136 14.4506L60.8109 16.9443V15.7853L58.2136 13.2916V14.4506ZM58.2136 16.277L60.8109 18.7706V17.1082L58.2136 14.6145V16.277ZM58.2136 26.9305L60.8109 29.4242V18.9345L58.2136 16.4409V26.9305ZM56.5065 26.9305H55.9456L58.5428 29.4242H59.0916L56.5065 26.9305ZM59.7134 29.4242L57.1162 26.9305H56.6772L59.2745 29.4242H59.7134ZM57.2869 26.9305L59.8963 29.4242H60.2134L57.6283 26.9305H57.2869ZM57.799 26.9305L60.3963 29.4242H60.628L58.0429 26.9305H57.799ZM84.6254 14.158C85.8082 15.2818 86.3691 16.5579 86.3691 18.1384C86.3691 21.4164 83.7596 23.8047 80.138 23.8047H77.0408V29.752H74.2972L71.261 26.8369V10.2126H77.4066C79.5527 10.2126 81.2721 10.9502 82.1988 11.8399L84.6254 14.158ZM74.1021 16.8857L74.3582 17.1316L74.2606 17.2252L74.1021 17.073V18.7004H76.5775V15.0945L74.1021 12.718V13.2214L76.236 15.317L76.1507 15.3989L74.1021 13.4087V13.9706L75.858 15.6799L75.7727 15.7618L74.1021 14.1462V14.6965L75.4922 16.0428L75.3947 16.1248L74.1021 14.8721V15.4223L75.1142 16.4057L75.0167 16.4877L74.1021 15.5979V16.1482L74.7362 16.7687L74.6386 16.8506L74.1021 16.3355V16.8857ZM76.8823 14.9775L74.5411 12.718H74.2728L76.6384 14.9892L76.7482 14.9775H76.8823ZM77.431 14.9775L75.0776 12.718H74.7118L77.0652 14.9775H77.431ZM78.1261 14.9775L75.7727 12.718H75.2483L77.6017 14.9775H78.1261ZM78.9309 14.9775L76.5775 12.718H75.9434L78.2968 14.9775H78.9309ZM77.4554 12.718H76.7482L79.1016 14.9775H79.8088L77.4554 12.718ZM80.5039 14.9775L78.2236 12.7882C78.0407 12.7531 77.8334 12.7414 77.6383 12.7297L79.9795 14.9775H80.5039ZM80.7599 14.7082L78.9552 12.9755C78.7967 12.917 78.6138 12.8702 78.4431 12.835L80.699 15.0009C80.7477 15.0009 80.7965 15.0009 80.8453 15.0126C80.8209 14.9072 80.7965 14.8136 80.7599 14.7082ZM80.6502 14.4389C80.3819 13.8536 79.9063 13.397 79.2723 13.1043L80.6502 14.4389ZM84.3815 14.3921L83.3084 13.3502C83.6011 13.9823 83.7962 14.7667 83.7962 15.5511C83.7962 15.6916 83.7962 15.8321 83.784 15.9609L86.0276 17.916C85.9789 16.5228 85.4301 15.4223 84.3815 14.3921ZM77.3335 18.7004C79.443 18.7004 80.9184 17.4477 80.9184 15.6682C80.9184 15.5628 80.9184 15.4575 80.9062 15.3521C80.699 15.317 80.4795 15.3053 80.2722 15.3053H76.9189V18.7004H77.3335ZM85.6862 20.0584C85.9057 19.473 86.0276 18.8291 86.0276 18.1384V18.0799L83.7718 16.1013C83.7108 16.7687 83.5401 17.3891 83.2719 17.9511L85.6862 20.0584ZM83.2109 18.0565C82.9914 18.4896 82.7231 18.876 82.3939 19.2272L84.9058 21.4164C85.1985 21.0418 85.4545 20.6203 85.6374 20.1755L83.2109 18.0565ZM83.9425 22.3179C84.2717 22.072 84.5644 21.8028 84.8327 21.4984L82.3085 19.3091C82.0281 19.6018 81.7232 19.8477 81.3818 20.0818L83.9425 22.3179ZM80.3453 20.632L82.9426 22.9032C83.2719 22.751 83.5645 22.5872 83.8449 22.3881L81.2721 20.152C80.9794 20.3277 80.6746 20.4916 80.3453 20.632ZM79.3211 20.9716L81.9427 23.2545C82.2476 23.1725 82.5524 23.0671 82.8329 22.9501L80.2234 20.6789C79.9307 20.7959 79.6259 20.8896 79.3211 20.9716ZM78.3334 21.1472L80.9672 23.4301C81.2599 23.3949 81.5403 23.3481 81.8086 23.2896L79.1869 20.995C78.9065 21.0652 78.626 21.112 78.3334 21.1472ZM80.0039 23.4769H80.138C80.3575 23.4769 80.577 23.4652 80.7843 23.4535L78.1627 21.1706C77.9188 21.194 77.6627 21.2057 77.4066 21.2174L80.0039 23.4769ZM76.5531 21.2174L79.1504 23.4769H79.8088L77.2237 21.2174H76.5531ZM76.6994 29.4242V23.4769H76.7116L74.1143 21.2174H74.1021V21.8145L76.358 23.7813L76.2604 23.8632L74.1021 21.9784V22.5989L75.9312 24.191L75.8336 24.273L74.1021 22.7628V23.3715L75.5044 24.6008L75.4191 24.6827L74.1021 23.5354V24.1559L75.0776 25.0105L74.9923 25.0925L74.1021 24.3198V24.9169L74.663 25.4086L74.5777 25.5022L74.1021 25.0925V26.9305L76.6994 29.4242ZM74.2972 21.2174L76.8823 23.4769H77.1506L74.5533 21.2174H74.2972ZM74.724 21.2174L77.3213 23.4769H77.6505L75.0532 21.2174H74.724ZM75.2483 21.2174L77.8334 23.4769H78.248L75.6629 21.2174H75.2483ZM75.8214 21.2174L78.4309 23.4769H78.9674L76.3824 21.2174H75.8214ZM71.8463 26.9305L74.4435 29.4242H74.9801L72.395 26.9305H71.8463ZM73.0047 26.9305H72.5657L75.163 29.4242H75.602L73.0047 26.9305ZM73.1754 26.9305L75.7849 29.4242H76.1019L73.5168 26.9305H73.1754ZM73.6875 26.9305L76.2848 29.4242H76.5165L73.9314 26.9305H73.6875ZM102.501 10.2009L105.416 12.9989V22.2476C105.416 26.9305 102.514 29.9978 98.1117 29.9978C95.7827 29.9978 94.1121 29.3656 92.6001 27.9139L90.1004 25.5374C88.7225 24.2379 87.9787 22.2828 87.9787 19.7774V10.2009H90.7223L93.7585 13.116V22.5052C93.7585 23.231 93.8439 23.9335 94.039 24.5657C94.4414 24.6593 94.8803 24.7179 95.3437 24.7179C98.0995 24.7179 99.7579 22.8447 99.7579 19.6838V10.2009H102.501ZM93.4171 13.2565L90.8198 10.7629V10.9502L93.4171 13.4438V13.2565ZM102.599 10.9619L105.074 13.3384V13.1394L102.599 10.7746V10.9619ZM93.4171 13.9472V13.6194L90.8198 11.1258V11.4536L93.4171 13.9472ZM102.599 11.4653L105.074 13.8419V13.5141L102.599 11.1375V11.4653ZM93.4171 14.6379V14.1111L90.8198 11.6175V12.1443L93.4171 14.6379ZM102.599 12.156L105.074 14.5326V14.0058L102.599 11.6292V12.156ZM93.4171 15.6096V14.8136L90.8198 12.3199V13.116L93.4171 15.6096ZM102.599 13.1277L105.074 15.5043V14.7082L102.599 12.3316V13.1277ZM93.4171 16.9326V15.7735L90.8198 13.2799V14.4389L93.4171 16.9326ZM102.599 14.4506L105.074 16.8272V15.6682L102.599 13.2916V14.4506ZM93.4171 18.7589V17.0965L90.8198 14.6028V16.2653L93.4171 18.7589ZM105.074 16.9911L102.599 14.6145V16.277L105.074 18.6535V16.9911ZM90.8198 16.4292V19.6838C90.8198 22.1189 91.8685 23.8164 93.661 24.4486C93.5024 23.8398 93.4171 23.1842 93.4171 22.5052V18.9228L90.8198 16.4292ZM104.66 25.0808C104.928 24.2262 105.074 23.2779 105.074 22.2476V18.8174L102.599 16.4409V19.7774C102.599 20.8662 102.465 21.8496 102.197 22.7159L104.66 25.0808ZM102.148 22.833C101.965 23.4067 101.721 23.9335 101.416 24.3901L103.867 26.7432C104.172 26.2749 104.428 25.7598 104.611 25.1979L102.148 22.833ZM102.928 27.8905C103.257 27.5744 103.55 27.2349 103.806 26.8486L101.355 24.4954C101.099 24.8818 100.807 25.2213 100.477 25.5374L102.928 27.8905ZM99.453 26.2866L101.928 28.6632C102.258 28.4642 102.562 28.23 102.843 27.9725L100.38 25.6076C100.099 25.8652 99.7944 26.0876 99.453 26.2866ZM98.4409 26.7783L100.928 29.1666C101.233 29.0378 101.538 28.8973 101.819 28.7217L99.3433 26.3452C99.0628 26.5091 98.758 26.6496 98.4409 26.7783ZM91.5149 26.4622L92.844 27.6798C93.1001 27.9139 93.3561 28.1247 93.6122 28.312L91.8319 26.6027L91.5149 26.4622ZM92.4782 26.8369C92.3562 26.79 92.2343 26.7549 92.1124 26.7081L94.1609 28.6749C94.3438 28.7803 94.5145 28.8856 94.6974 28.9676L92.4782 26.8369ZM97.441 27.071L99.9408 29.471C100.233 29.4008 100.514 29.3188 100.794 29.2134L98.3068 26.8252C98.0263 26.9188 97.7337 27.0008 97.441 27.071ZM92.722 26.9071L95.0267 29.1198C95.1852 29.1783 95.3437 29.2486 95.5144 29.2954L93.1488 27.0242C93.0025 26.9891 92.8684 26.9539 92.722 26.9071ZM93.3927 27.0827L95.7827 29.3773C95.9534 29.4242 96.1241 29.471 96.307 29.5061L93.8805 27.1764C93.7097 27.1413 93.5512 27.1178 93.3927 27.0827ZM96.4899 27.2232L98.9897 29.6232C99.2701 29.5998 99.5384 29.5529 99.7944 29.4944L97.2947 27.0944C97.0387 27.153 96.7704 27.1998 96.4899 27.2232ZM94.0756 27.1998L96.5143 29.5412C96.7094 29.5764 96.9045 29.5998 97.0996 29.6232L94.6487 27.27C94.4536 27.2583 94.2707 27.2349 94.0756 27.1998ZM95.6364 27.2935L98.1117 29.67C98.3556 29.67 98.5994 29.6583 98.8311 29.6349L96.3436 27.2466C96.1119 27.27 95.868 27.2817 95.6364 27.2935ZM94.8316 27.2817L97.2825 29.6349C97.502 29.6583 97.7093 29.67 97.941 29.67L95.4656 27.2935H95.2949C95.1364 27.2935 94.9901 27.2935 94.8316 27.2817ZM118.951 24.3315L121.987 27.2466V29.752H110.879L107.842 26.8369V10.2126H110.586L113.622 13.1277V24.3315H118.951ZM113.281 13.2682L110.684 10.7746V10.9502L113.281 13.4438V13.2682ZM113.281 13.9472V13.6194L110.684 11.1258V11.4536L113.281 13.9472ZM113.281 14.6379V14.1111L110.684 11.6175V12.1443L113.281 14.6379ZM113.281 15.6096V14.8136L110.684 12.3199V13.116L113.281 15.6096ZM113.281 16.9326V15.7735L110.684 13.2799V14.4389L113.281 16.9326ZM113.281 18.7589V17.0965L110.684 14.6028V16.2653L113.281 18.7589ZM110.684 24.3315H113.281V18.9228L110.684 16.4292V24.3315ZM121.646 29.4242V27.3871L119.048 24.8935V26.9305L121.646 29.4242ZM108.428 26.9305L111.025 29.4242H112.159L109.549 26.9305H108.428ZM109.72 26.9305L112.33 29.4242H113.354L110.744 26.9305H109.72ZM110.915 26.9305L113.525 29.4242H114.439L111.83 26.9305H110.915ZM112 26.9305L114.61 29.4242H115.415L112.817 26.9305H112ZM112.988 26.9305L115.598 29.4242H116.317L113.72 26.9305H112.988ZM113.89 26.9305L116.488 29.4242H117.134L114.525 26.9305H113.89ZM114.695 26.9305L117.305 29.4242H117.878L115.268 26.9305H114.695ZM115.439 26.9305L118.049 29.4242H118.548L115.939 26.9305H115.439ZM116.11 26.9305L118.719 29.4242H119.158L116.561 26.9305H116.11ZM116.732 26.9305L119.329 29.4242H119.719L117.11 26.9305H116.732ZM117.28 26.9305L119.89 29.4242H120.219L117.622 26.9305H117.28ZM117.792 26.9305L120.39 29.4242H120.682L118.073 26.9305H117.792ZM118.256 26.9305L120.853 29.4242H121.097L118.5 26.9305H118.256ZM118.67 26.9305L121.268 29.4242H121.475L118.878 26.9305H118.67ZM135.083 21.7559C136.022 22.6574 136.425 23.6525 136.425 25.0223C136.425 27.9608 134.01 29.9978 130.511 29.9978C127.974 30.0446 126.084 29.3305 124.901 28.4642L121.902 25.5842V22.8213L122.194 22.7042C123.511 23.8867 125.34 24.554 127.243 24.554C128.828 24.554 130.108 24.0037 130.608 23.1725C128.706 22.2828 126.474 21.7911 125.219 20.2574L123.377 18.0096C122.499 16.9326 122.073 16.1482 122.073 14.8604C122.073 11.9804 124.462 10.0019 127.95 10.0019C129.718 9.96677 131.51 10.4233 132.803 11.2311L135.815 14.1228V16.7452L135.547 16.874C134.169 15.9023 132.596 15.3521 131.132 15.3521C129.45 15.3521 128.194 15.996 127.865 17.0028C129.572 17.5882 131.401 18.1735 132.559 19.3091L135.083 21.7559ZM132.876 11.7697V13.9238H132.864L135.473 16.4292V14.2633L132.876 11.7697ZM128.474 12.5424C128.377 12.5306 128.279 12.5306 128.194 12.5306C128.011 12.5306 127.828 12.5424 127.645 12.5541L130.279 15.0828C130.523 15.0477 130.791 15.0243 131.059 15.0243L128.474 12.5424ZM131.925 15.0711L129.401 12.6477C129.157 12.6009 128.901 12.5658 128.645 12.5424L131.23 15.0243C131.462 15.0243 131.693 15.0477 131.925 15.0711ZM130.133 15.1062L127.487 12.5658C127.17 12.6126 126.877 12.6711 126.596 12.7531L129.267 15.317C129.535 15.2233 129.828 15.1531 130.133 15.1062ZM132.742 15.2233L130.303 12.8819C130.084 12.8116 129.852 12.7414 129.62 12.6945L132.132 15.1062C132.327 15.1297 132.535 15.1765 132.742 15.2233ZM129.145 15.3638L126.474 12.7999C126.121 12.917 125.828 13.0809 125.584 13.2799L128.279 15.8672C128.523 15.6682 128.816 15.5043 129.145 15.3638ZM133.522 15.4575L131.218 13.2448C131.011 13.1511 130.791 13.0575 130.572 12.9755L132.974 15.2818C133.157 15.3287 133.34 15.3872 133.522 15.4575ZM127.535 16.8857C127.657 16.5228 127.877 16.2067 128.182 15.9374L125.487 13.3502C125.145 13.6545 124.926 14.0292 124.865 14.4389L127.34 16.8155L127.535 16.8857ZM134.254 15.7501L132.206 13.7833C131.998 13.6545 131.791 13.5258 131.571 13.4204L133.803 15.5628C133.949 15.6214 134.108 15.6799 134.254 15.7501ZM132.645 14.0409L134.608 15.9257C134.73 15.9843 134.864 16.0545 134.998 16.1365L132.754 13.9823L132.645 14.0409ZM124.853 14.6848C124.853 15.6682 125.792 16.2184 127.06 16.7101L124.853 14.5911V14.6848ZM125.755 20.3394C126.194 20.7959 126.804 21.1589 127.499 21.4867L124.694 18.794C124.548 18.7121 124.402 18.6301 124.267 18.5482C124.706 19.1335 125.194 19.754 125.755 20.3394ZM125.914 19.356C125.621 19.2389 125.328 19.1101 125.06 18.9813L127.828 21.6389C128.096 21.7559 128.377 21.873 128.669 21.9901L125.914 19.356ZM126.194 19.4613L128.962 22.1072C129.181 22.2008 129.401 22.2828 129.62 22.3764L126.828 19.6955C126.621 19.6252 126.414 19.5433 126.194 19.4613ZM127.096 19.7891L129.925 22.5052C130.108 22.5754 130.291 22.6574 130.474 22.7393L127.584 19.953C127.426 19.9062 127.255 19.8477 127.096 19.7891ZM130.767 22.8447C130.779 22.7862 130.803 22.7276 130.815 22.6691L128.243 20.1872C128.121 20.1403 127.987 20.0935 127.865 20.0584L130.767 22.8447ZM128.535 20.2925L130.84 22.5052C130.852 22.4584 130.852 22.3998 130.852 22.353V22.3413L128.852 20.4213L128.535 20.2925ZM130.84 22.1657L130.803 21.9901L129.438 20.6789C129.352 20.632 129.255 20.5969 129.157 20.5501L130.84 22.1657ZM134.839 21.9901L133.462 20.6672C133.632 21.112 133.73 21.6155 133.73 22.2008C133.73 22.4935 133.705 22.7745 133.657 23.0554L136.071 25.3735C136.083 25.2564 136.083 25.1393 136.083 25.0223C136.083 23.7227 135.717 22.833 134.839 21.9901ZM130.706 21.7208C130.535 21.4047 130.23 21.1355 129.84 20.9013L130.706 21.7208ZM136.059 25.5257L133.632 23.1959C133.51 23.7345 133.303 24.2379 133.01 24.6827L135.571 27.1413C135.827 26.6496 135.998 26.111 136.059 25.5257ZM134.705 28.23C135.022 27.9373 135.291 27.6095 135.498 27.2466L132.937 24.7881C132.705 25.1393 132.425 25.4437 132.096 25.7247L134.705 28.23ZM131.084 26.3803L133.73 28.9325C134.059 28.7451 134.352 28.5461 134.62 28.312L131.998 25.7949C131.718 26.0174 131.413 26.2164 131.084 26.3803ZM123.17 26.3335L125.121 28.2066C125.304 28.3354 125.487 28.4642 125.694 28.5812L123.487 26.4739L123.17 26.3335ZM130.059 26.8018L132.718 29.3539C133.035 29.2486 133.34 29.1315 133.62 28.9793L130.974 26.4388C130.694 26.5793 130.389 26.7081 130.059 26.8018ZM123.792 26.591L126.084 28.792C126.218 28.8505 126.353 28.9208 126.499 28.9793L124.133 26.7081L123.792 26.591ZM124.389 26.7783L126.792 29.0964C126.938 29.1432 127.096 29.2017 127.255 29.2486L124.792 26.8837L124.389 26.7783ZM129.072 27.0359L131.718 29.5764C132.023 29.5295 132.315 29.471 132.584 29.389L129.938 26.8486C129.657 26.9188 129.377 26.9891 129.072 27.0359ZM125.023 26.9422L127.499 29.3188C127.669 29.3656 127.84 29.4125 128.023 29.4476L125.499 27.0242C125.34 27.0008 125.182 26.9657 125.023 26.9422ZM125.706 27.0593L128.23 29.4827C128.425 29.5178 128.608 29.5529 128.803 29.5764L126.255 27.1178C126.06 27.1061 125.889 27.0827 125.706 27.0593ZM131.559 29.5998L128.925 27.0593C128.669 27.1061 128.401 27.1296 128.133 27.153L130.754 29.67C131.035 29.6583 131.303 29.6349 131.559 29.5998ZM126.45 27.1413L129.023 29.5998C129.242 29.6232 129.45 29.6466 129.669 29.6583L127.072 27.1647C126.865 27.1647 126.657 27.153 126.45 27.1413ZM129.84 29.6583C130.059 29.67 130.291 29.67 130.511 29.67H130.572L127.962 27.153C127.828 27.1647 127.706 27.1647 127.572 27.1647H127.243L129.84 29.6583ZM150.13 24.3901L153.167 27.3052V29.752H141.436L138.4 26.8369V10.2126H149.777L152.813 13.1277V15.434H144.168L144.155 17.1082H148.387L151.423 20.0233V22.3764H144.155V24.3901H150.13ZM152.472 13.2682L149.874 10.7746V12.7297L152.472 15.1062V13.2682ZM144.07 15.1062L141.485 12.7297H141.302L143.887 15.1062H144.07ZM144.558 15.1062L141.961 12.7297H141.668L144.253 15.1062H144.558ZM145.168 15.1062L142.57 12.7297H142.143L144.741 15.1062H145.168ZM145.899 15.1062L143.314 12.7297H142.753L145.35 15.1062H145.899ZM146.875 15.1062L144.265 12.7297H143.497L146.082 15.1062H146.875ZM147.85 15.1062L145.241 12.7297H144.46L147.058 15.1062H147.85ZM148.862 15.1062L146.265 12.7297H145.436L148.033 15.1062H148.862ZM149.838 15.1062L147.265 12.7297H146.448L149.045 15.1062H149.838ZM150.691 15.1062L148.106 12.7297H147.436L150.033 15.1062H150.691ZM151.423 15.1062L148.838 12.7297H148.277L150.886 15.1062H151.423ZM151.911 15.1062L149.338 12.7297H149.009L151.618 15.1062H151.911ZM152.277 15.1062L149.704 12.7297H149.509L152.106 15.1062H152.277ZM141.217 16.1482L141.814 16.6984L141.717 16.7804L141.217 16.3238V17.1082H143.814V15.1999L141.217 12.8233V13.315L143.473 15.3872L143.363 15.4575L141.217 13.4906V14.0292L143.058 15.715L142.948 15.797L141.217 14.1931V14.7316L142.643 16.0428L142.534 16.1248L141.217 14.9072V15.4457L142.229 16.3706L142.131 16.4526L141.217 15.6096V16.1482ZM148.484 17.6701V19.6721H148.472L151.082 22.0486V20.1638L148.484 17.6701ZM143.899 22.0486H144.119L141.522 19.6721H141.302L143.899 22.0486ZM141.705 19.6721L144.302 22.0486H144.729L142.143 19.6721H141.705ZM142.326 19.6721L144.911 22.0486H145.582L142.973 19.6721H142.326ZM143.168 19.6721L145.765 22.0486H146.68L144.094 19.6721H143.168ZM147.85 22.0486L145.277 19.6721H144.277L146.863 22.0486H147.85ZM149.021 22.0486L146.424 19.6721H145.448L148.045 22.0486H149.021ZM149.862 22.0486L147.289 19.6721H146.606L149.204 22.0486H149.862ZM150.472 22.0486L147.887 19.6721H147.46L150.057 22.0486H150.472ZM148.057 19.6721L150.667 22.0486H150.886L148.301 19.6721H148.057ZM141.217 23.8281L141.534 24.1208L141.436 24.2145L141.217 24.0154V24.3901H143.814V22.1306L141.217 19.754V20.2691L143.473 22.353L143.387 22.435L141.217 20.4447V20.995L143.095 22.7159L142.997 22.7979L141.217 21.1589V21.6974L142.704 23.0671L142.607 23.1491L141.217 21.873V22.4115L142.314 23.4184L142.217 23.5003L141.217 22.5871V23.1257L141.924 23.7696L141.826 23.8515L141.217 23.2896V23.8281ZM150.228 24.952V26.9305L152.825 29.4242V27.4456L150.228 24.952ZM140.168 26.9305H138.985L141.583 29.4242H142.765L140.168 26.9305ZM141.4 26.9305H140.339L142.936 29.4242H144.009L141.4 26.9305ZM141.57 26.9305L144.18 29.4242H145.131L142.522 26.9305H141.57ZM142.692 26.9305L145.302 29.4242H146.143L143.546 26.9305H142.692ZM144.46 26.9305H143.716L146.314 29.4242H147.07L144.46 26.9305ZM147.899 29.4242L145.302 26.9305H144.631L147.24 29.4242H147.899ZM145.472 26.9305L148.07 29.4242H148.655L146.058 26.9305H145.472ZM146.228 26.9305L148.826 29.4242H149.35L146.741 26.9305H146.228ZM146.911 26.9305L149.521 29.4242H149.972L147.362 26.9305H146.911ZM147.533 26.9305L150.143 29.4242H150.533L147.923 26.9305H147.533ZM148.094 26.9305L150.704 29.4242H151.045L148.435 26.9305H148.094ZM148.606 26.9305L151.216 29.4242H151.508L148.899 26.9305H148.606ZM149.07 26.9305L151.679 29.4242H151.923L149.326 26.9305H149.07ZM149.496 26.9305L152.094 29.4242H152.313L149.704 26.9305H149.496ZM149.874 26.9305L152.484 29.4242H152.655L150.045 26.9305H149.874Z" fill="#808085"/>
</svg>
