<svg width="252" height="64" viewBox="0 0 252 64" fill="none" xmlns="http://www.w3.org/2000/svg">
    <path fill-rule="evenodd" clip-rule="evenodd" d="M29.9514 24.2636C32.8764 27.0734 34.222 30.2203 34.222 34.2663C34.222 42.1335 28.2743 47.6031 19.7526 47.6031H11.4064L6.55078 42.939V16.3402H15.053C19.6161 16.3402 23.4577 17.9136 26.0708 20.5548L29.9514 24.2636ZM11.1529 20.5361H11.0944V21.4726L15.248 25.425V24.4697L11.1529 20.5361ZM15.95 24.3386L11.9914 20.5361H11.4259L15.3845 24.3386H15.95ZM17.3346 24.3386L13.3759 20.5361H12.2644L16.223 24.3386H17.3346ZM15.1115 20.5361H13.649L17.6076 24.3386H19.0701L15.1115 20.5361ZM20.4936 24.3573L16.613 20.6297C16.2035 20.5735 15.8135 20.5548 15.3845 20.5361L19.3431 24.3386H19.7526C20.0061 24.3386 20.2596 24.3386 20.4936 24.3573ZM21.7417 24.4884L17.9586 20.8545C17.6271 20.7796 17.276 20.7234 16.925 20.6672L20.7861 24.376C21.1177 24.3948 21.4492 24.451 21.7417 24.4884ZM22.8727 24.7507L19.1871 21.2104C18.9141 21.1167 18.6216 21.0231 18.3291 20.9482L22.0927 24.5633C22.3657 24.6195 22.6192 24.6757 22.8727 24.7507ZM23.3017 24.8818C23.5552 24.9942 23.8282 25.1066 24.0622 25.2189L20.4741 21.7723C20.2206 21.6412 19.9476 21.5101 19.6746 21.3977L23.3017 24.8818ZM11.0944 28.8716L11.7964 29.5459L11.6404 29.6958L11.0944 29.1713V38.9866H15.248V25.6872L11.0944 21.7723V22.6902L15.0335 26.4552L14.8775 26.5863L11.0944 22.9712V23.9077L14.3705 27.0734L14.234 27.2232L11.0944 24.1887V25.144L13.727 27.6915L13.5905 27.8414L11.0944 25.425V26.3803L13.0835 28.3096L12.947 28.4595L11.0944 26.6613V27.6353L12.4399 28.9278L12.2839 29.0776L11.0944 27.9163V28.8716ZM23.7502 24.657C23.0872 23.6642 22.2097 22.8213 21.1566 22.1657L23.7502 24.657ZM29.5614 24.6383L27.9818 23.0835C29.0348 24.9754 29.7174 27.3169 29.7174 29.752C29.7174 30.0142 29.7174 30.2765 29.6979 30.52L33.676 34.3599V34.2663C33.676 30.3514 32.3499 27.3918 29.5614 24.6383ZM15.794 38.9679C21.4687 38.6682 25.1347 35.0905 25.1347 29.752C25.1347 28.3658 24.8813 27.0921 24.4132 25.9682C23.2237 25.1815 21.8587 24.863 19.7526 24.863H15.794V38.9679ZM28.8788 34.566L33.013 38.5371C33.403 37.3195 33.637 36.0083 33.676 34.6222L29.6784 30.7822C29.5809 32.1309 29.3079 33.3859 28.8788 34.566ZM32.9349 38.7244L28.8008 34.7533C28.4303 35.6899 27.9623 36.5703 27.3968 37.357L31.6089 41.403C32.1549 40.5788 32.6034 39.6797 32.9349 38.7244ZM29.8929 43.426C30.4974 42.8641 31.0239 42.2272 31.4919 41.5529L27.2993 37.5256C26.8118 38.1812 26.2658 38.7993 25.6418 39.3425L29.8929 43.426ZM23.7892 40.7474L28.0598 44.8496C28.6643 44.4562 29.2298 44.0254 29.7564 43.5571L25.5053 39.4737C24.9788 39.9419 24.4132 40.3728 23.7892 40.7474ZM21.9172 41.7402L26.1878 45.8424C26.7728 45.5801 27.3383 45.2804 27.8843 44.962L23.6137 40.8598C23.0872 41.197 22.5217 41.4779 21.9172 41.7402ZM20.0841 42.3958L24.3352 46.4793C24.9008 46.3294 25.4663 46.1234 25.9928 45.9173L21.7222 41.8151C21.1957 42.0399 20.6496 42.2459 20.0841 42.3958ZM18.3096 42.8079L22.5412 46.8726C23.0872 46.779 23.6137 46.6666 24.1207 46.5355L19.8891 42.4707C19.3821 42.6018 18.8556 42.7142 18.3096 42.8079ZM18.0561 42.8453C17.5881 42.939 17.1005 42.9952 16.613 43.0326L20.8056 47.0412C21.3126 47.0225 21.8002 46.9663 22.2877 46.9101L18.0561 42.8453ZM19.1871 47.0787H19.7526C20.0256 47.0787 20.2791 47.0787 20.5326 47.0599L16.3595 43.0514C15.9305 43.0701 15.5015 43.0888 15.053 43.0888H15.0335L19.1871 47.0787ZM7.48681 43.0888L11.6404 47.0787H11.9134L7.77932 43.0888H7.48681ZM8.05233 43.0888L12.2059 47.0787H12.5569L8.40333 43.0888H8.05233ZM8.67634 43.0888L12.8299 47.0787H13.2785L9.12485 43.0888H8.67634ZM9.39787 43.0888L13.5515 47.0787H14.117L9.96337 43.0888H9.39787ZM10.2364 43.0888L14.39 47.0787H15.0725L10.9189 43.0888H10.2364ZM11.1919 43.0888L15.3455 47.0787H16.1645L12.0109 43.0888H11.1919ZM12.3034 43.0888L16.457 47.0787H17.4516L13.2979 43.0888H12.3034ZM13.571 43.0888L17.7246 47.0787H18.9141L14.741 43.0888H13.571ZM55.692 39.0241L60.5477 43.6883V47.6031H41.7882L36.9326 42.939V16.3402H55.1265L59.9822 21.0043V24.6945H46.1563L46.1368 27.3731H52.9035L57.7591 32.0372V35.8023H46.1368V39.0241H55.692ZM59.4361 21.2291L55.2825 17.2393V20.3675L59.4361 24.17V21.2291ZM46.0003 24.17L41.8662 20.3675H41.5737L45.7078 24.17H46.0003ZM46.7803 24.17L42.6267 20.3675H42.1587L46.2928 24.17H46.7803ZM47.7553 24.17L43.6017 20.3675H42.9192L47.0728 24.17H47.7553ZM48.9254 24.17L44.7913 20.3675H43.8943L48.0479 24.17H48.9254ZM50.4854 24.17L46.3123 20.3675H45.0838L49.2179 24.17H50.4854ZM52.0455 24.17L47.8724 20.3675H46.6243L50.7779 24.17H52.0455ZM53.664 24.17L49.5104 20.3675H48.1844L52.338 24.17H53.664ZM55.224 24.17L51.1094 20.3675H49.8029L53.9565 24.17H55.224ZM56.5891 24.17L52.455 20.3675H51.3824L55.536 24.17H56.5891ZM57.7591 24.17L53.625 20.3675H52.728L56.9011 24.17H57.7591ZM58.5391 24.17L54.4245 20.3675H53.898L58.0711 24.17H58.5391ZM59.1241 24.17L55.0095 20.3675H54.6975L58.8511 24.17H59.1241ZM41.4372 25.8371L42.3927 26.7175L42.2367 26.8486L41.4372 26.1181V27.3731H45.5908V24.3198L41.4372 20.5173V21.3041L45.0448 24.6195L44.8693 24.7319L41.4372 21.585V22.4467L44.3818 25.144L44.2063 25.2751L41.4372 22.7089V23.5706L43.7188 25.6685L43.5432 25.7996L41.4372 23.8515V24.7132L43.0557 26.193L42.8997 26.3241L41.4372 24.9754V25.8371ZM53.0595 28.2722V31.4753H53.04L57.2131 35.2778V32.262L53.0595 28.2722ZM45.7273 35.2778H46.0783L41.9247 31.4753H41.5737L45.7273 35.2778ZM42.2172 31.4753L46.3708 35.2778H47.0533L42.9192 31.4753H42.2172ZM43.2117 31.4753L47.3458 35.2778H48.4184L44.2453 31.4753H43.2117ZM44.5573 31.4753L48.7109 35.2778H50.1734L46.0393 31.4753H44.5573ZM52.0455 35.2778L47.9309 31.4753H46.3318L50.4659 35.2778H52.0455ZM53.9175 35.2778L49.7639 31.4753H48.2039L52.3575 35.2778H53.9175ZM55.263 35.2778L51.1484 31.4753H50.0564L54.21 35.2778H55.263ZM56.2381 35.2778L52.104 31.4753H51.4214L55.575 35.2778H56.2381ZM52.377 31.4753L56.5501 35.2778H56.9011L52.767 31.4753H52.377ZM41.4372 38.125L41.9442 38.5933L41.7882 38.7431L41.4372 38.4247V39.0241H45.5908V35.4089L41.4372 31.6064V32.4306L45.0448 35.7648L44.9083 35.8959L41.4372 32.7116V33.5919L44.4403 36.3455L44.2843 36.4766L41.4372 33.8542V34.7158L43.8163 36.9074L43.6603 37.0386L41.4372 34.9968V35.8585L43.1922 37.4694L43.0362 37.6005L41.4372 36.1394V37.0011L42.5682 38.0313L42.4122 38.1624L41.4372 37.2633V38.125ZM55.848 39.9232V43.0888L60.0017 47.0787V43.913L55.848 39.9232ZM39.7602 43.0888H37.8686L42.0222 47.0787H43.9138L39.7602 43.0888ZM41.7297 43.0888H40.0332L44.1868 47.0787H45.9028L41.7297 43.0888ZM42.0027 43.0888L46.1758 47.0787H47.6969L43.5237 43.0888H42.0027ZM43.7968 43.0888L47.9699 47.0787H49.3154L45.1618 43.0888H43.7968ZM46.6243 43.0888H45.4348L49.5884 47.0787H50.7974L46.6243 43.0888ZM52.1235 47.0787L47.9699 43.0888H46.8973L51.0704 47.0787H52.1235ZM48.2429 43.0888L52.3965 47.0787H53.3325L49.1789 43.0888H48.2429ZM49.4519 43.0888L53.6055 47.0787H54.444L50.2709 43.0888H49.4519ZM50.5439 43.0888L54.717 47.0787H55.4385L51.2654 43.0888H50.5439ZM51.5384 43.0888L55.7116 47.0787H56.3356L52.1625 43.0888H51.5384ZM52.4355 43.0888L56.6086 47.0787H57.1546L52.9815 43.0888H52.4355ZM53.2545 43.0888L57.4276 47.0787H57.8956L53.7225 43.0888H53.2545ZM53.9955 43.0888L58.1686 47.0787H58.5586L54.405 43.0888H53.9955ZM54.678 43.0888L58.8316 47.0787H59.1826L55.0095 43.0888H54.678ZM55.2825 43.0888L59.4557 47.0787H59.7286L55.5555 43.0888H55.2825ZM86.5809 24.8443H72.209V28.2722H79.3072L84.1628 32.9363V36.7576H72.209V47.6031H67.8799L63.0243 42.939V16.3402H81.7252L86.5809 21.0043V24.8443ZM81.8812 17.2393V20.5173L86.0153 24.3198H86.0348V21.2291L81.8812 17.2393ZM71.78 24.3198H72.092L67.9384 20.5173H67.6654L71.78 24.3198ZM72.8525 24.3198L68.6794 20.5173H68.2504L72.365 24.3198H72.8525ZM73.847 24.3198L69.6739 20.5173H68.9914L73.1255 24.3198H73.847ZM75.1146 24.3198L70.961 20.5173H69.9859L74.12 24.3198H75.1146ZM76.8696 24.3198L72.716 20.5173H71.273L75.3876 24.3198H76.8696ZM78.5466 24.3198L74.393 20.5173H73.0085L77.1621 24.3198H78.5466ZM80.3797 24.3198L76.2261 20.5173H74.6856L78.8392 24.3198H80.3797ZM82.1152 24.3198L77.9811 20.5173H76.4991L80.6722 24.3198H82.1152ZM83.4023 24.3198L79.2487 20.5173H78.2736L82.4077 24.3198H83.4023ZM84.3968 24.3198L80.2432 20.5173H79.5412L83.6948 24.3198H84.3968ZM85.1378 24.3198L81.0037 20.5173H80.5357L84.6893 24.3198H85.1378ZM81.2962 20.5173L85.4303 24.3198H85.7228L81.5887 20.5173H81.2962ZM67.5094 28.2722H71.663V24.4697L67.5094 20.6484V21.2853L71.2145 24.7132L71.078 24.8443L67.5094 21.5663V22.4279L70.61 25.2939L70.4539 25.4437L67.5094 22.7089V23.5706L70.0054 25.8745L69.8494 26.0244L67.5094 23.8515V24.7132L69.4009 26.4552L69.2644 26.5863L67.5094 24.9754V25.8558L68.7964 27.0359L68.6599 27.167L67.5094 26.1181V26.9797L68.1919 27.6166L68.0554 27.7477L67.5094 27.242V28.2722ZM79.4632 29.1713V32.4306L83.6168 36.2331V33.1611L79.4632 29.1713ZM67.6264 32.4306L71.7605 36.2331H72.1505L67.9969 32.4306H67.6264ZM68.2894 32.4306L72.4235 36.2331H73.0865L68.9524 32.4306H68.2894ZM69.2449 32.4306L73.3595 36.2331H74.5881L70.4149 32.4306H69.2449ZM70.7075 32.4306L74.8611 36.2331H76.3821L72.248 32.4306H70.7075ZM72.5405 32.4306L76.6551 36.2331H78.4102L74.2955 32.4306H72.5405ZM74.5686 32.4306L78.7027 36.2331H80.2432L76.0896 32.4306H74.5686ZM76.3626 32.4306L80.5357 36.2331H81.7057L77.5911 32.4306H76.3626ZM77.8641 32.4306L81.9982 36.2331H82.6612L78.5271 32.4306H77.8641ZM78.8002 32.4306L82.9538 36.2331H83.3243L79.1902 32.4306H78.8002ZM67.5094 43.0888L71.663 47.0787V36.3268L71.624 36.3642L67.5094 32.5992V33.2173L71.234 36.6639L71.0975 36.795L67.5094 33.4983V34.3599L70.6295 37.2446L70.4735 37.3945L67.5094 34.6409V35.5026L70.0249 37.8253L69.8689 37.9751L67.5094 35.7835V36.6452L69.4204 38.406L69.2839 38.5371L67.5094 36.9074V37.7878L68.8159 38.9866L68.6794 39.1178L67.5094 38.0501V38.9304L68.2114 39.5673L68.0749 39.6984L67.5094 39.174V43.0888ZM63.9603 43.0888L68.1139 47.0787H68.9134L64.7793 43.0888H63.9603ZM65.7543 43.0888H65.0523L69.2059 47.0787H69.9079L65.7543 43.0888ZM66.0273 43.0888L70.2004 47.0787H70.7075L66.5734 43.0888H66.0273ZM66.8463 43.0888L71 47.0787H71.3705L67.2364 43.0888H66.8463ZM93.094 16.3402L97.9497 21.0043V47.6031H93.5426L88.6869 42.939V16.3402H93.094ZM93.25 17.539L97.4036 21.5288V21.2291L93.25 17.2393V17.539ZM93.25 18.3445L97.4036 22.3343V21.8098L93.25 17.82V18.3445ZM93.25 19.4496L97.4036 23.4394V22.5965L93.25 18.6067V19.4496ZM93.25 21.0043L97.4036 24.9942V23.7204L93.25 19.7306V21.0043ZM93.25 23.121L97.4036 27.1108V25.2564L93.25 21.2666V23.121ZM93.25 26.0431L97.4036 30.033V27.3731L93.25 23.3833V26.0431ZM93.25 43.0888L97.4036 47.0787V30.2952L93.25 26.3054V43.0888ZM90.52 43.0888H89.6229L93.7766 47.0787H94.6541L90.52 43.0888ZM95.6486 47.0787L91.495 43.0888H90.793L94.9466 47.0787H95.6486ZM91.768 43.0888L95.9411 47.0787H96.4481L92.314 43.0888H91.768ZM92.587 43.0888L96.7406 47.0787H97.1111L92.977 43.0888H92.587ZM135.488 22.6527C137.38 24.451 138.277 26.4927 138.277 29.0214C138.277 34.2663 134.104 38.0875 128.312 38.0875H123.359V47.6031H118.971L114.116 42.939V16.3402H123.944C127.376 16.3402 130.126 17.5203 131.608 18.9439L135.488 22.6527ZM118.659 27.0172L119.069 27.4105L118.913 27.5604L118.659 27.3169V29.9206H122.618V24.1512L118.659 20.3487V21.1542L122.072 24.5071L121.935 24.6383L118.659 21.4539V22.353L121.467 25.0878L121.331 25.2189L118.659 22.634V23.5144L120.882 25.6685L120.726 25.7996L118.659 23.7953V24.6757L120.278 26.2492L120.122 26.3803L118.659 24.9567V25.8371L119.673 26.8299L119.517 26.961L118.659 26.1368V27.0172ZM123.105 23.9639L119.361 20.3487H118.932L122.715 23.9827L122.891 23.9639H123.105ZM123.983 23.9639L120.219 20.3487H119.634L123.398 23.9639H123.983ZM125.094 23.9639L121.331 20.3487H120.492L124.256 23.9639H125.094ZM126.381 23.9639L122.618 20.3487H121.604L125.367 23.9639H126.381ZM124.022 20.3487H122.891L126.654 23.9639H127.785L124.022 20.3487ZM128.897 23.9639L125.25 20.4611C124.958 20.4049 124.626 20.3862 124.314 20.3675L128.058 23.9639H128.897ZM129.306 23.5331L126.42 20.7608C126.167 20.6672 125.874 20.5923 125.601 20.5361L129.209 24.0014C129.287 24.0014 129.365 24.0014 129.443 24.0201C129.404 23.8515 129.365 23.7017 129.306 23.5331ZM129.131 23.1023C128.702 22.1657 127.941 21.4352 126.927 20.9669L129.131 23.1023ZM135.098 23.0274L133.382 21.3602C133.85 22.3717 134.162 23.6268 134.162 24.8818C134.162 25.1066 134.162 25.3313 134.143 25.5374L137.731 28.6656C137.653 26.4365 136.775 24.6757 135.098 23.0274ZM123.827 29.9206C127.2 29.9206 129.56 27.9163 129.56 25.0691C129.56 24.9005 129.56 24.7319 129.54 24.5633C129.209 24.5071 128.858 24.4884 128.526 24.4884H123.164V29.9206H123.827ZM137.185 32.0934C137.536 31.1568 137.731 30.1266 137.731 29.0214V28.9278L134.123 25.7622C134.026 26.8299 133.753 27.8226 133.324 28.7217L137.185 32.0934ZM133.226 28.8903C132.875 29.5834 132.446 30.2015 131.92 30.7635L135.937 34.2663C136.405 33.6669 136.814 32.9925 137.107 32.2807L133.226 28.8903ZM134.396 35.7086C134.923 35.3153 135.391 34.8844 135.82 34.3974L131.783 30.8946C131.335 31.3629 130.847 31.7563 130.301 32.1309L134.396 35.7086ZM128.643 33.0113L132.797 36.6452C133.324 36.4017 133.792 36.1394 134.24 35.821L130.126 32.2433C129.658 32.5242 129.17 32.7865 128.643 33.0113ZM127.005 33.5545L131.198 37.2071C131.686 37.076 132.173 36.9074 132.622 36.7201L128.448 33.0862C127.98 33.2735 127.493 33.4234 127.005 33.5545ZM125.426 33.8355L129.638 37.4881C130.106 37.4319 130.554 37.357 130.983 37.2633L126.791 33.5919C126.342 33.7043 125.894 33.7793 125.426 33.8355ZM128.097 37.563H128.312C128.663 37.563 129.014 37.5443 129.345 37.5256L125.153 33.8729C124.763 33.9104 124.353 33.9291 123.944 33.9478L128.097 37.563ZM122.579 33.9478L126.732 37.563H127.785L123.651 33.9478H122.579ZM122.813 47.0787V37.563H122.832L118.679 33.9478H118.659V34.9032L122.267 38.0501L122.111 38.1812L118.659 35.1654V36.1582L121.584 38.7057L121.428 38.8368L118.659 36.4204V37.3945L120.902 39.3613L120.765 39.4924L118.659 37.6567V38.6495L120.219 40.0169L120.083 40.148L118.659 38.9117V39.867L119.556 40.6537L119.42 40.8036L118.659 40.148V43.0888L122.813 47.0787ZM118.971 33.9478L123.105 37.563H123.534L119.381 33.9478H118.971ZM119.654 33.9478L123.807 37.563H124.334L120.18 33.9478H119.654ZM120.492 33.9478L124.626 37.563H125.289L121.155 33.9478H120.492ZM121.409 33.9478L125.582 37.563H126.44L122.306 33.9478H121.409ZM115.052 43.0888L119.205 47.0787H120.063L115.929 43.0888H115.052ZM116.904 43.0888H116.202L120.356 47.0787H121.058L116.904 43.0888ZM117.177 43.0888L121.35 47.0787H121.857L117.723 43.0888H117.177ZM117.996 43.0888L122.15 47.0787H122.52L118.386 43.0888H117.996ZM164.076 16.3215L168.736 20.7983V35.5962C168.736 43.0888 164.095 47.9965 157.056 47.9965C153.331 47.9965 150.66 46.985 148.241 44.6623L144.244 40.8598C142.04 38.7806 140.851 35.6524 140.851 31.6439V16.3215H145.238L150.094 20.9856V36.0083C150.094 37.1697 150.231 38.2936 150.543 39.3051C151.186 39.4549 151.888 39.5486 152.629 39.5486C157.036 39.5486 159.688 36.5515 159.688 31.494V16.3215H164.076ZM149.548 21.2104L145.394 17.2206V17.5203L149.548 21.5101V21.2104ZM164.232 17.539L168.19 21.3415V21.0231L164.232 17.2393V17.539ZM149.548 22.3156V21.7911L145.394 17.8013V18.3257L149.548 22.3156ZM164.232 18.3445L168.19 22.147V21.6225L164.232 17.82V18.3445ZM149.548 23.4207V22.5778L145.394 18.588V19.4309L149.548 23.4207ZM164.232 19.4496L168.19 23.2521V22.4092L164.232 18.6067V19.4496ZM149.548 24.9754V23.7017L145.394 19.7119V20.9856L149.548 24.9754ZM164.232 21.0043L168.19 24.8069V23.5331L164.232 19.7306V21.0043ZM149.548 27.0921V25.2377L145.394 21.2479V23.1023L149.548 27.0921ZM164.232 23.121L168.19 26.9235V25.0691L164.232 21.2666V23.121ZM149.548 30.0142V27.3543L145.394 23.3645V26.0244L149.548 30.0142ZM168.19 27.1858L164.232 23.3833V26.0431L168.19 29.8456V27.1858ZM145.394 26.2866V31.494C145.394 35.3902 147.071 38.1063 149.938 39.1178C149.685 38.1437 149.548 37.0947 149.548 36.0083V30.2765L145.394 26.2866ZM167.527 40.1293C167.956 38.7619 168.19 37.2446 168.19 35.5962V30.1079L164.232 26.3054V31.6439C164.232 33.3859 164.017 34.9594 163.588 36.3455L167.527 40.1293ZM163.51 36.5328C163.218 37.4506 162.828 38.2936 162.34 39.0241L166.26 42.7891C166.747 42.0399 167.157 41.2157 167.449 40.3166L163.51 36.5328ZM164.758 44.6248C165.285 44.1191 165.753 43.5759 166.162 42.9577L162.243 39.1927C161.833 39.8108 161.365 40.354 160.839 40.8598L164.758 44.6248ZM159.201 42.0586L163.159 45.8611C163.686 45.5427 164.173 45.168 164.622 44.756L160.683 40.9722C160.234 41.3843 159.747 41.7402 159.201 42.0586ZM157.582 42.8453L161.56 46.6666C162.048 46.4605 162.535 46.2357 162.984 45.9548L159.025 42.1523C158.577 42.4145 158.089 42.6393 157.582 42.8453ZM146.506 42.3396L148.632 44.2877C149.041 44.6623 149.45 44.9995 149.86 45.2992L147.013 42.5644L146.506 42.3396ZM148.046 42.939C147.851 42.8641 147.656 42.8079 147.461 42.7329L150.738 45.8798C151.03 46.0484 151.303 46.217 151.596 46.3481L148.046 42.939ZM155.983 43.3136L159.981 47.1536C160.449 47.0412 160.897 46.9101 161.346 46.7415L157.368 42.9203C156.919 43.0701 156.451 43.2012 155.983 43.3136ZM148.436 43.0514L152.122 46.5916C152.376 46.6853 152.629 46.7977 152.902 46.8726L149.119 43.2387C148.885 43.1825 148.67 43.1263 148.436 43.0514ZM149.509 43.3324L153.331 47.0037C153.604 47.0787 153.877 47.1536 154.17 47.2098L150.289 43.4822C150.016 43.426 149.763 43.3886 149.509 43.3324ZM154.462 43.5571L158.46 47.3971C158.908 47.3596 159.337 47.2847 159.747 47.1911L155.749 43.3511C155.34 43.4447 154.911 43.5197 154.462 43.5571ZM150.601 43.5197L154.501 47.266C154.813 47.3222 155.125 47.3596 155.437 47.3971L151.518 43.6321C151.206 43.6133 150.913 43.5759 150.601 43.5197ZM153.097 43.6695L157.056 47.472C157.446 47.472 157.836 47.4533 158.206 47.4158L154.228 43.5946C153.858 43.6321 153.468 43.6508 153.097 43.6695ZM151.81 43.6508L155.73 47.4158C156.081 47.4533 156.412 47.472 156.783 47.472L152.824 43.6695H152.551C152.298 43.6695 152.064 43.6695 151.81 43.6508ZM190.382 38.9304L195.238 43.5946V47.6031H177.473L172.617 42.939V16.3402H177.005L181.86 21.0043V38.9304H190.382ZM181.314 21.2291L177.161 17.2393V17.5203L181.314 21.5101V21.2291ZM181.314 22.3156V21.7911L177.161 17.8013V18.3257L181.314 22.3156ZM181.314 23.4207V22.5778L177.161 18.588V19.4309L181.314 23.4207ZM181.314 24.9754V23.7017L177.161 19.7119V20.9856L181.314 24.9754ZM181.314 27.0921V25.2377L177.161 21.2479V23.1023L181.314 27.0921ZM181.314 30.0142V27.3543L177.161 23.3645V26.0244L181.314 30.0142ZM177.161 38.9304H181.314V30.2765L177.161 26.2866V38.9304ZM194.692 47.0787V43.8194L190.538 39.8296V43.0888L194.692 47.0787ZM173.553 43.0888L177.707 47.0787H179.52L175.347 43.0888H173.553ZM175.62 43.0888L179.793 47.0787H181.431L177.258 43.0888H175.62ZM177.531 43.0888L181.704 47.0787H183.167L178.994 43.0888H177.531ZM179.267 43.0888L183.44 47.0787H184.727L180.573 43.0888H179.267ZM180.846 43.0888L185.019 47.0787H186.17L182.016 43.0888H180.846ZM182.289 43.0888L186.443 47.0787H187.477L183.303 43.0888H182.289ZM183.576 43.0888L187.749 47.0787H188.666L184.493 43.0888H183.576ZM184.766 43.0888L188.939 47.0787H189.739L185.565 43.0888H184.766ZM185.838 43.0888L190.012 47.0787H190.714L186.56 43.0888H185.838ZM186.833 43.0888L190.987 47.0787H191.611L187.438 43.0888H186.833ZM187.71 43.0888L191.884 47.0787H192.41L188.257 43.0888H187.71ZM188.53 43.0888L192.683 47.0787H193.151L188.978 43.0888H188.53ZM189.271 43.0888L193.424 47.0787H193.814L189.661 43.0888H189.271ZM189.934 43.0888L194.087 47.0787H194.419L190.265 43.0888H189.934ZM216.181 34.8095C217.683 36.2518 218.326 37.844 218.326 40.0356C218.326 44.7372 214.465 47.9965 208.869 47.9965C204.812 48.0714 201.79 46.9288 199.898 45.5427L195.101 40.9347V36.5141L195.569 36.3268C197.675 38.2186 200.6 39.2863 203.642 39.2863C206.178 39.2863 208.225 38.406 209.025 37.076C205.982 35.6524 202.414 34.8657 200.405 32.4119L197.461 28.8154C196.057 27.0921 195.374 25.8371 195.374 23.7766C195.374 19.1687 199.196 16.003 204.773 16.003C207.601 15.9468 210.468 16.6774 212.535 17.9698L217.351 22.5965V26.7924L216.922 26.9984C214.719 25.4437 212.203 24.5633 209.863 24.5633C207.172 24.5633 205.163 25.5936 204.637 27.2045C207.367 28.1411 210.292 29.0776 212.145 30.8946L216.181 34.8095ZM212.652 18.8315V22.2781H212.632L216.805 26.2866V22.8213L212.652 18.8315ZM205.612 20.0678C205.456 20.049 205.3 20.049 205.163 20.049C204.871 20.049 204.578 20.0678 204.286 20.0865L208.498 24.1325C208.888 24.0763 209.317 24.0389 209.746 24.0389L205.612 20.0678ZM211.131 24.1138L207.094 20.2364C206.704 20.1614 206.294 20.1052 205.885 20.0678L210.019 24.0389C210.39 24.0389 210.76 24.0763 211.131 24.1138ZM208.264 24.17L204.032 20.1052C203.525 20.1802 203.057 20.2738 202.609 20.4049L206.879 24.5071C207.309 24.3573 207.777 24.2449 208.264 24.17ZM212.437 24.3573L208.537 20.611C208.186 20.4986 207.816 20.3862 207.445 20.3113L211.462 24.17C211.774 24.2074 212.106 24.2824 212.437 24.3573ZM206.685 24.5821L202.414 20.4799C201.848 20.6672 201.38 20.9294 200.99 21.2479L205.3 25.3875C205.69 25.0691 206.158 24.8069 206.685 24.5821ZM213.685 24.7319L210 21.1917C209.668 21.0418 209.317 20.892 208.966 20.7608L212.808 24.451C213.1 24.5259 213.393 24.6195 213.685 24.7319ZM204.11 27.0172C204.305 26.4365 204.656 25.9307 205.144 25.4999L200.834 21.3602C200.288 21.8473 199.937 22.4467 199.84 23.1023L203.798 26.9048L204.11 27.0172ZM214.855 25.2002L211.579 22.0533C211.248 21.8473 210.916 21.6412 210.565 21.4726L214.134 24.9005C214.368 24.9942 214.621 25.0878 214.855 25.2002ZM212.281 22.4654L215.421 25.4812C215.616 25.5748 215.83 25.6872 216.045 25.8184L212.457 22.3717L212.281 22.4654ZM199.82 23.4956C199.82 25.0691 201.322 25.9495 203.35 26.7362L199.82 23.3458V23.4956ZM201.263 32.543C201.965 33.2735 202.94 33.8542 204.052 34.3787L199.567 30.0704C199.333 29.9393 199.099 29.8082 198.884 29.6771C199.586 30.6136 200.366 31.6064 201.263 32.543ZM201.517 30.9695C201.049 30.7822 200.581 30.5762 200.152 30.3701L204.578 34.6222C205.007 34.8095 205.456 34.9968 205.924 35.1841L201.517 30.9695ZM201.965 31.1381L206.392 35.3714C206.743 35.5213 207.094 35.6524 207.445 35.8023L202.979 31.5127C202.648 31.4004 202.316 31.2692 201.965 31.1381ZM203.408 31.6626L207.933 36.0083C208.225 36.1207 208.518 36.2518 208.81 36.3829L204.188 31.9248C203.935 31.8499 203.662 31.7563 203.408 31.6626ZM209.278 36.5515C209.298 36.4579 209.337 36.3642 209.356 36.2706L205.241 32.2995C205.046 32.2245 204.832 32.1496 204.637 32.0934L209.278 36.5515ZM205.709 32.4681L209.395 36.0083C209.415 35.9334 209.415 35.8397 209.415 35.7648V35.7461L206.216 32.6741L205.709 32.4681ZM209.395 35.4651L209.337 35.1841L207.153 33.0862C207.016 33.0113 206.86 32.9551 206.704 32.8801L209.395 35.4651ZM215.791 35.1841L213.588 33.0675C213.861 33.7793 214.017 34.5847 214.017 35.5213C214.017 35.9896 213.978 36.4391 213.9 36.8887L217.761 40.5975C217.78 40.4102 217.78 40.2229 217.78 40.0356C217.78 37.9564 217.195 36.5328 215.791 35.1841ZM209.181 34.7533C208.908 34.2476 208.42 33.8167 207.796 33.4421L209.181 34.7533ZM217.741 40.8411L213.861 37.1135C213.666 37.9751 213.334 38.7806 212.866 39.4924L216.961 43.426C217.371 42.6393 217.644 41.7776 217.741 40.8411ZM215.577 45.168C216.084 44.6998 216.513 44.1753 216.844 43.5946L212.749 39.661C212.379 40.2229 211.93 40.7099 211.404 41.1595L215.577 45.168ZM209.785 42.2085L214.017 46.2919C214.543 45.9922 215.011 45.6738 215.44 45.2992L211.248 41.2719C210.799 41.6278 210.312 41.9462 209.785 42.2085ZM197.129 42.1335L200.249 45.1306C200.542 45.3366 200.834 45.5427 201.166 45.73L197.636 42.3583L197.129 42.1335ZM208.147 42.8828L212.398 46.9663C212.905 46.7977 213.393 46.6104 213.841 46.3669L209.61 42.3021C209.161 42.5269 208.674 42.7329 208.147 42.8828ZM198.124 42.5456L201.79 46.0672C202.004 46.1608 202.219 46.2732 202.453 46.3669L198.67 42.7329L198.124 42.5456ZM199.079 42.8453L202.921 46.5542C203.155 46.6291 203.408 46.7228 203.662 46.7977L199.723 43.0139L199.079 42.8453ZM206.567 43.2574L210.799 47.3222C211.287 47.2473 211.755 47.1536 212.184 47.0225L207.952 42.9577C207.504 43.0701 207.055 43.1825 206.567 43.2574ZM200.093 43.1076L204.052 46.9101C204.325 46.985 204.598 47.0599 204.89 47.1161L200.854 43.2387C200.6 43.2012 200.347 43.145 200.093 43.1076ZM201.185 43.2949L205.222 47.1723C205.534 47.2285 205.826 47.2847 206.138 47.3222L202.063 43.3886C201.751 43.3698 201.478 43.3324 201.185 43.2949ZM210.546 47.3596L206.333 43.2949C205.924 43.3698 205.495 43.4073 205.066 43.4447L209.259 47.472C209.707 47.4533 210.136 47.4158 210.546 47.3596ZM202.375 43.426L206.49 47.3596C206.841 47.3971 207.172 47.4346 207.523 47.4533L203.369 43.4635C203.038 43.4635 202.706 43.4447 202.375 43.426ZM207.796 47.4533C208.147 47.472 208.518 47.472 208.869 47.472H208.966L204.793 43.4447C204.578 43.4635 204.383 43.4635 204.169 43.4635H203.642L207.796 47.4533ZM240.245 39.0241L245.1 43.6883V47.6031H226.341L221.485 42.939V16.3402H239.679L244.535 21.0043V24.6945H230.709L230.69 27.3731H237.456L242.312 32.0372V35.8023H230.69V39.0241H240.245ZM243.989 21.2291L239.835 17.2393V20.3675L243.989 24.17V21.2291ZM230.553 24.17L226.419 20.3675H226.127L230.261 24.17H230.553ZM231.333 24.17L227.18 20.3675H226.712L230.846 24.17H231.333ZM232.308 24.17L228.155 20.3675H227.472L231.626 24.17H232.308ZM233.478 24.17L229.344 20.3675H228.447L232.601 24.17H233.478ZM235.038 24.17L230.865 20.3675H229.637L233.771 24.17H235.038ZM236.598 24.17L232.425 20.3675H231.177L235.331 24.17H236.598ZM238.217 24.17L234.063 20.3675H232.737L236.891 24.17H238.217ZM239.777 24.17L235.662 20.3675H234.356L238.509 24.17H239.777ZM241.142 24.17L237.008 20.3675H235.935L240.089 24.17H241.142ZM242.312 24.17L238.178 20.3675H237.281L241.454 24.17H242.312ZM243.092 24.17L238.977 20.3675H238.451L242.624 24.17H243.092ZM243.677 24.17L239.562 20.3675H239.25L243.404 24.17H243.677ZM225.99 25.8371L226.946 26.7175L226.79 26.8486L225.99 26.1181V27.3731H230.144V24.3198L225.99 20.5173V21.3041L229.598 24.6195L229.422 24.7319L225.99 21.585V22.4467L228.935 25.144L228.759 25.2751L225.99 22.7089V23.5706L228.272 25.6685L228.096 25.7996L225.99 23.8515V24.7132L227.609 26.193L227.453 26.3241L225.99 24.9754V25.8371ZM237.612 28.2722V31.4753H237.593L241.766 35.2778V32.262L237.612 28.2722ZM230.28 35.2778H230.631L226.478 31.4753H226.127L230.28 35.2778ZM226.77 31.4753L230.924 35.2778H231.606L227.472 31.4753H226.77ZM227.765 31.4753L231.899 35.2778H232.971L228.798 31.4753H227.765ZM229.11 31.4753L233.264 35.2778H234.726L230.592 31.4753H229.11ZM236.598 35.2778L232.484 31.4753H230.885L235.019 35.2778H236.598ZM238.47 35.2778L234.317 31.4753H232.757L236.91 35.2778H238.47ZM239.816 35.2778L235.701 31.4753H234.609L238.763 35.2778H239.816ZM240.791 35.2778L236.657 31.4753H235.974L240.128 35.2778H240.791ZM236.93 31.4753L241.103 35.2778H241.454L237.32 31.4753H236.93ZM225.99 38.125L226.497 38.5933L226.341 38.7431L225.99 38.4247V39.0241H230.144V35.4089L225.99 31.6064V32.4306L229.598 35.7648L229.461 35.8959L225.99 32.7116V33.5919L228.993 36.3455L228.837 36.4766L225.99 33.8542V34.7158L228.369 36.9074L228.213 37.0386L225.99 34.9968V35.8585L227.745 37.4694L227.589 37.6005L225.99 36.1394V37.0011L227.121 38.0313L226.965 38.1624L225.99 37.2633V38.125ZM240.401 39.9232V43.0888L244.554 47.0787V43.913L240.401 39.9232ZM224.313 43.0888H222.421L226.575 47.0787H228.467L224.313 43.0888ZM226.283 43.0888H224.586L228.74 47.0787H230.456L226.283 43.0888ZM226.556 43.0888L230.729 47.0787H232.25L228.077 43.0888H226.556ZM228.35 43.0888L232.523 47.0787H233.868L229.715 43.0888H228.35ZM231.177 43.0888H229.988L234.141 47.0787H235.35L231.177 43.0888ZM236.676 47.0787L232.523 43.0888H231.45L235.623 47.0787H236.676ZM232.796 43.0888L236.949 47.0787H237.885L233.732 43.0888H232.796ZM234.005 43.0888L238.158 47.0787H238.997L234.824 43.0888H234.005ZM235.097 43.0888L239.27 47.0787H239.991L235.818 43.0888H235.097ZM236.091 43.0888L240.264 47.0787H240.888L236.715 43.0888H236.091ZM236.988 43.0888L241.161 47.0787H241.707L237.534 43.0888H236.988ZM237.807 43.0888L241.98 47.0787H242.448L238.275 43.0888H237.807ZM238.548 43.0888L242.721 47.0787H243.111L238.958 43.0888H238.548ZM239.231 43.0888L243.384 47.0787H243.735L239.562 43.0888H239.231ZM239.835 43.0888L244.008 47.0787H244.281L240.108 43.0888H239.835Z" fill="#808085"/>
</svg>
