<svg width="240" height="32" viewBox="0 0 240 32" fill="none" xmlns="http://www.w3.org/2000/svg">
    <path fill-rule="evenodd" clip-rule="evenodd" d="M23.9514 8.26364C26.8764 11.0734 28.222 14.2203 28.222 18.2663C28.222 26.1335 22.2743 31.6031 13.7526 31.6031H5.40641L0.550781 26.939V0.340189H9.05301C13.6161 0.340189 17.4577 1.91364 20.0708 4.55479L23.9514 8.26364ZM5.15291 4.53606H5.09439V5.47263L9.248 9.42499V8.46968L5.15291 4.53606ZM9.95002 8.33856L5.99143 4.53606H5.42592L9.38451 8.33856H9.95002ZM11.3346 8.33856L7.37595 4.53606H6.26444L10.223 8.33856H11.3346ZM9.1115 4.53606H7.64896L11.6076 8.33856H13.0701L9.1115 4.53606ZM14.4936 8.3573L10.613 4.62971C10.2035 4.57352 9.81352 4.55479 9.38451 4.53606L13.3431 8.33856H13.7526C14.0061 8.33856 14.2596 8.33856 14.4936 8.3573ZM15.7417 8.48842L11.9586 4.85449C11.6271 4.77957 11.276 4.72337 10.925 4.66718L14.7861 8.37603C15.1177 8.39476 15.4492 8.45095 15.7417 8.48842ZM16.8727 8.75066L13.1871 5.21039C12.9141 5.11674 12.6216 5.02308 12.3291 4.94815L16.0927 8.56334C16.3657 8.61954 16.6192 8.67573 16.8727 8.75066ZM17.3017 8.88178C17.5552 8.99417 17.8282 9.10656 18.0622 9.21895L14.4741 5.77234C14.2206 5.64122 13.9476 5.5101 13.6746 5.39771L17.3017 8.88178ZM5.09439 12.8716L5.79641 13.5459L5.64041 13.6958L5.09439 13.1713V22.9866H9.248V9.68723L5.09439 5.77234V6.69019L9.0335 10.4552L8.8775 10.5863L5.09439 6.97116V7.90774L8.37049 11.0734L8.23397 11.2232L5.09439 8.18871V9.14402L7.72696 11.6915L7.59046 11.8414L5.09439 9.42499V10.3803L7.08345 12.3096L6.94695 12.4595L5.09439 10.6613V11.6353L6.43994 12.9278L6.28392 13.0776L5.09439 11.9163V12.8716ZM17.7502 8.657C17.0872 7.66423 16.2097 6.82131 15.1566 6.1657L17.7502 8.657ZM23.5614 8.63827L21.9818 7.08355C23.0348 8.97543 23.7174 11.3169 23.7174 13.752C23.7174 14.0142 23.7174 14.2765 23.6979 14.52L27.676 18.3599V18.2663C27.676 14.3514 26.3499 11.3918 23.5614 8.63827ZM9.79402 22.9679C15.4687 22.6682 19.1347 19.0905 19.1347 13.752C19.1347 12.3658 18.8813 11.0921 18.4132 9.96821C17.2237 9.18148 15.8587 8.86305 13.7526 8.86305H9.79402V22.9679ZM22.8788 18.566L27.013 22.5371C27.403 21.3195 27.637 20.0083 27.676 18.6222L23.6784 14.7822C23.5809 16.1309 23.3079 17.3859 22.8788 18.566ZM26.9349 22.7244L22.8008 18.7533C22.4303 19.6899 21.9623 20.5703 21.3968 21.357L25.6089 25.403C26.1549 24.5788 26.6034 23.6797 26.9349 22.7244ZM23.8929 27.426C24.4974 26.8641 25.0239 26.2272 25.4919 25.5529L21.2993 21.5256C20.8118 22.1812 20.2658 22.7993 19.6418 23.3425L23.8929 27.426ZM17.7892 24.7474L22.0598 28.8496C22.6643 28.4562 23.2298 28.0254 23.7564 27.5571L19.5053 23.4737C18.9788 23.9419 18.4132 24.3728 17.7892 24.7474ZM15.9172 25.7402L20.1878 29.8424C20.7728 29.5801 21.3383 29.2804 21.8843 28.962L17.6137 24.8598C17.0872 25.197 16.5217 25.4779 15.9172 25.7402ZM14.0841 26.3958L18.3352 30.4793C18.9008 30.3294 19.4663 30.1234 19.9928 29.9173L15.7222 25.8151C15.1957 26.0399 14.6496 26.2459 14.0841 26.3958ZM12.3096 26.8079L16.5412 30.8726C17.0872 30.779 17.6137 30.6666 18.1207 30.5355L13.8891 26.4707C13.3821 26.6018 12.8556 26.7142 12.3096 26.8079ZM12.0561 26.8453C11.5881 26.939 11.1005 26.9952 10.613 27.0326L14.8056 31.0412C15.3126 31.0225 15.8002 30.9663 16.2877 30.9101L12.0561 26.8453ZM13.1871 31.0787H13.7526C14.0256 31.0787 14.2791 31.0787 14.5326 31.0599L10.3595 27.0514C9.93052 27.0701 9.50152 27.0888 9.05301 27.0888H9.0335L13.1871 31.0787ZM1.48681 27.0888L5.64041 31.0787H5.91342L1.77932 27.0888H1.48681ZM2.05233 27.0888L6.20592 31.0787H6.55693L2.40333 27.0888H2.05233ZM2.67634 27.0888L6.82995 31.0787H7.27846L3.12485 27.0888H2.67634ZM3.39787 27.0888L7.55146 31.0787H8.11698L3.96337 27.0888H3.39787ZM4.23639 27.0888L8.38997 31.0787H9.07249L4.9189 27.0888H4.23639ZM5.1919 27.0888L9.3455 31.0787H10.1645L6.01093 27.0888H5.1919ZM6.30343 27.0888L10.457 31.0787H11.4516L7.29795 27.0888H6.30343ZM7.57096 27.0888L11.7246 31.0787H12.9141L8.74099 27.0888H7.57096ZM49.692 23.0241L54.5477 27.6883V31.6031H35.7882L30.9326 26.939V0.340189H49.1265L53.9822 5.00435V8.69446H40.1563L40.1368 11.3731H46.9035L51.7591 16.0372V19.8023H40.1368V23.0241H49.692ZM53.4361 5.22912L49.2825 1.23931V4.36747L53.4361 8.16998V5.22912ZM40.0003 8.16998L35.8662 4.36747H35.5737L39.7078 8.16998H40.0003ZM40.7803 8.16998L36.6267 4.36747H36.1587L40.2928 8.16998H40.7803ZM41.7553 8.16998L37.6017 4.36747H36.9192L41.0728 8.16998H41.7553ZM42.9254 8.16998L38.7913 4.36747H37.8943L42.0479 8.16998H42.9254ZM44.4854 8.16998L40.3123 4.36747H39.0838L43.2179 8.16998H44.4854ZM46.0455 8.16998L41.8724 4.36747H40.6243L44.7779 8.16998H46.0455ZM47.664 8.16998L43.5104 4.36747H42.1844L46.338 8.16998H47.664ZM49.224 8.16998L45.1094 4.36747H43.8029L47.9565 8.16998H49.224ZM50.5891 8.16998L46.455 4.36747H45.3824L49.536 8.16998H50.5891ZM51.7591 8.16998L47.625 4.36747H46.728L50.9011 8.16998H51.7591ZM52.5391 8.16998L48.4245 4.36747H47.898L52.0711 8.16998H52.5391ZM53.1241 8.16998L49.0095 4.36747H48.6975L52.8511 8.16998H53.1241ZM35.4372 9.83709L36.3927 10.7175L36.2367 10.8486L35.4372 10.1181V11.3731H39.5908V8.31983L35.4372 4.51733V5.30405L39.0448 8.61954L38.8693 8.73193L35.4372 5.58502V6.44668L38.3818 9.14402L38.2063 9.27514L35.4372 6.70892V7.57057L37.7188 9.6685L37.5432 9.79962L35.4372 7.85154V8.71319L37.0557 10.193L36.8997 10.3241L35.4372 8.97544V9.83709ZM47.0595 12.2722V15.4753H47.04L51.2131 19.2778V16.262L47.0595 12.2722ZM39.7273 19.2778H40.0783L35.9247 15.4753H35.5737L39.7273 19.2778ZM36.2172 15.4753L40.3708 19.2778H41.0533L36.9192 15.4753H36.2172ZM37.2117 15.4753L41.3458 19.2778H42.4184L38.2453 15.4753H37.2117ZM38.5573 15.4753L42.7109 19.2778H44.1734L40.0393 15.4753H38.5573ZM46.0455 19.2778L41.9309 15.4753H40.3318L44.4659 19.2778H46.0455ZM47.9175 19.2778L43.7639 15.4753H42.2039L46.3575 19.2778H47.9175ZM49.263 19.2778L45.1484 15.4753H44.0564L48.21 19.2778H49.263ZM50.2381 19.2778L46.104 15.4753H45.4214L49.575 19.2778H50.2381ZM46.377 15.4753L50.5501 19.2778H50.9011L46.767 15.4753H46.377ZM35.4372 22.125L35.9442 22.5933L35.7882 22.7431L35.4372 22.4247V23.0241H39.5908V19.4089L35.4372 15.6064V16.4306L39.0448 19.7648L38.9083 19.8959L35.4372 16.7116V17.5919L38.4403 20.3455L38.2843 20.4766L35.4372 17.8542V18.7158L37.8163 20.9074L37.6603 21.0386L35.4372 18.9968V19.8585L37.1922 21.4694L37.0362 21.6005L35.4372 20.1394V21.0011L36.5682 22.0313L36.4122 22.1624L35.4372 21.2633V22.125ZM49.848 23.9232V27.0888L54.0017 31.0787V27.913L49.848 23.9232ZM33.7602 27.0888H31.8686L36.0222 31.0787H37.9138L33.7602 27.0888ZM35.7297 27.0888H34.0332L38.1868 31.0787H39.9028L35.7297 27.0888ZM36.0027 27.0888L40.1758 31.0787H41.6969L37.5237 27.0888H36.0027ZM37.7968 27.0888L41.9699 31.0787H43.3154L39.1618 27.0888H37.7968ZM40.6243 27.0888H39.4348L43.5884 31.0787H44.7974L40.6243 27.0888ZM46.1235 31.0787L41.9699 27.0888H40.8973L45.0704 31.0787H46.1235ZM42.2429 27.0888L46.3965 31.0787H47.3325L43.1789 27.0888H42.2429ZM43.4519 27.0888L47.6055 31.0787H48.444L44.2709 27.0888H43.4519ZM44.5439 27.0888L48.717 31.0787H49.4385L45.2654 27.0888H44.5439ZM45.5384 27.0888L49.7116 31.0787H50.3356L46.1625 27.0888H45.5384ZM46.4355 27.0888L50.6086 31.0787H51.1546L46.9815 27.0888H46.4355ZM47.2545 27.0888L51.4276 31.0787H51.8956L47.7225 27.0888H47.2545ZM47.9955 27.0888L52.1686 31.0787H52.5586L48.405 27.0888H47.9955ZM48.678 27.0888L52.8316 31.0787H53.1826L49.0095 27.0888H48.678ZM49.2825 27.0888L53.4557 31.0787H53.7286L49.5555 27.0888H49.2825ZM80.5809 8.84432H66.209V12.2722H73.3072L78.1628 16.9363V20.7576H66.209V31.6031H61.8799L57.0243 26.939V0.340189H75.7252L80.5809 5.00435V8.84432ZM75.8812 1.23931V4.51733L80.0153 8.31983H80.0348V5.22912L75.8812 1.23931ZM65.78 8.31983H66.092L61.9384 4.51733H61.6654L65.78 8.31983ZM66.8525 8.31983L62.6794 4.51733H62.2504L66.365 8.31983H66.8525ZM67.847 8.31983L63.6739 4.51733H62.9914L67.1255 8.31983H67.847ZM69.1146 8.31983L64.961 4.51733H63.9859L68.12 8.31983H69.1146ZM70.8696 8.31983L66.716 4.51733H65.273L69.3876 8.31983H70.8696ZM72.5466 8.31983L68.393 4.51733H67.0085L71.1621 8.31983H72.5466ZM74.3797 8.31983L70.2261 4.51733H68.6856L72.8392 8.31983H74.3797ZM76.1152 8.31983L71.9811 4.51733H70.4991L74.6722 8.31983H76.1152ZM77.4023 8.31983L73.2487 4.51733H72.2736L76.4077 8.31983H77.4023ZM78.3968 8.31983L74.2432 4.51733H73.5412L77.6948 8.31983H78.3968ZM79.1378 8.31983L75.0037 4.51733H74.5357L78.6893 8.31983H79.1378ZM75.2962 4.51733L79.4303 8.31983H79.7228L75.5887 4.51733H75.2962ZM61.5094 12.2722H65.663V8.46968L61.5094 4.64845V5.28532L65.2145 8.71319L65.078 8.84432L61.5094 5.56629V6.42794L64.61 9.29387L64.4539 9.44372L61.5094 6.70892V7.57057L64.0054 9.87455L63.8494 10.0244L61.5094 7.85154V8.71319L63.4009 10.4552L63.2644 10.5863L61.5094 8.97544V9.85582L62.7964 11.0359L62.6599 11.167L61.5094 10.1181V10.9797L62.1919 11.6166L62.0554 11.7477L61.5094 11.242V12.2722ZM73.4632 13.1713V16.4306L77.6168 20.2331V17.1611L73.4632 13.1713ZM61.6264 16.4306L65.7605 20.2331H66.1505L61.9969 16.4306H61.6264ZM62.2894 16.4306L66.4235 20.2331H67.0865L62.9524 16.4306H62.2894ZM63.2449 16.4306L67.3595 20.2331H68.5881L64.4149 16.4306H63.2449ZM64.7075 16.4306L68.8611 20.2331H70.3821L66.248 16.4306H64.7075ZM66.5405 16.4306L70.6551 20.2331H72.4102L68.2955 16.4306H66.5405ZM68.5686 16.4306L72.7027 20.2331H74.2432L70.0896 16.4306H68.5686ZM70.3626 16.4306L74.5357 20.2331H75.7057L71.5911 16.4306H70.3626ZM71.8641 16.4306L75.9982 20.2331H76.6612L72.5271 16.4306H71.8641ZM72.8002 16.4306L76.9538 20.2331H77.3243L73.1902 16.4306H72.8002ZM61.5094 27.0888L65.663 31.0787V20.3268L65.624 20.3642L61.5094 16.5992V17.2173L65.234 20.6639L65.0975 20.795L61.5094 17.4983V18.3599L64.6295 21.2446L64.4735 21.3945L61.5094 18.6409V19.5026L64.0249 21.8253L63.8689 21.9751L61.5094 19.7835V20.6452L63.4204 22.406L63.2839 22.5371L61.5094 20.9074V21.7878L62.8159 22.9866L62.6794 23.1178L61.5094 22.0501V22.9304L62.2114 23.5673L62.0749 23.6984L61.5094 23.174V27.0888ZM57.9603 27.0888L62.1139 31.0787H62.9134L58.7793 27.0888H57.9603ZM59.7543 27.0888H59.0523L63.2059 31.0787H63.9079L59.7543 27.0888ZM60.0273 27.0888L64.2004 31.0787H64.7075L60.5734 27.0888H60.0273ZM60.8463 27.0888L65 31.0787H65.3705L61.2364 27.0888H60.8463ZM87.094 0.340189L91.9497 5.00435V31.6031H87.5426L82.6869 26.939V0.340189H87.094ZM87.25 1.53901L91.4036 5.52883V5.22912L87.25 1.23931V1.53901ZM87.25 2.34447L91.4036 6.33429V5.8098L87.25 1.81998V2.34447ZM87.25 3.44963L91.4036 7.43945V6.59653L87.25 2.60671V3.44963ZM87.25 5.00435L91.4036 8.99417V7.72042L87.25 3.7306V5.00435ZM87.25 7.12101L91.4036 11.1108V9.25641L87.25 5.26659V7.12101ZM87.25 10.0431L91.4036 14.033V11.3731L87.25 7.38325V10.0431ZM87.25 27.0888L91.4036 31.0787V14.2952L87.25 10.3054V27.0888ZM84.52 27.0888H83.6229L87.7766 31.0787H88.6541L84.52 27.0888ZM89.6486 31.0787L85.495 27.0888H84.793L88.9466 31.0787H89.6486ZM85.768 27.0888L89.9411 31.0787H90.4481L86.314 27.0888H85.768ZM86.587 27.0888L90.7406 31.0787H91.1111L86.977 27.0888H86.587ZM129.488 6.65272C131.38 8.45095 132.277 10.4927 132.277 13.0214C132.277 18.2663 128.104 22.0875 122.312 22.0875H117.359V31.6031H112.971L108.116 26.939V0.340189H117.944C121.376 0.340189 124.126 1.52028 125.608 2.94387L129.488 6.65272ZM112.659 11.0172L113.069 11.4105L112.913 11.5604L112.659 11.3169V13.9206H116.618V8.15125L112.659 4.34874V5.1542L116.072 8.50715L115.935 8.63827L112.659 5.4539V6.35302L115.467 9.08782L115.331 9.21895L112.659 6.63399V7.51437L114.882 9.6685L114.726 9.79962L112.659 7.79535V8.67573L114.278 10.2492L114.122 10.3803L112.659 8.9567V9.83709L113.673 10.8299L113.517 10.961L112.659 10.1368V11.0172ZM117.105 7.96393L113.361 4.34874H112.932L116.715 7.98266L116.891 7.96393H117.105ZM117.983 7.96393L114.219 4.34874H113.634L117.398 7.96393H117.983ZM119.094 7.96393L115.331 4.34874H114.492L118.256 7.96393H119.094ZM120.381 7.96393L116.618 4.34874H115.604L119.367 7.96393H120.381ZM118.022 4.34874H116.891L120.654 7.96393H121.785L118.022 4.34874ZM122.897 7.96393L119.25 4.46113C118.958 4.40494 118.626 4.3862 118.314 4.36747L122.058 7.96393H122.897ZM123.306 7.53311L120.42 4.76084C120.167 4.66718 119.874 4.59225 119.601 4.53606L123.209 8.0014C123.287 8.0014 123.365 8.00139 123.443 8.02013C123.404 7.85154 123.365 7.70169 123.306 7.53311ZM123.131 7.10228C122.702 6.1657 121.941 5.43517 120.927 4.96688L123.131 7.10228ZM129.098 7.02735L127.382 5.36025C127.85 6.37175 128.162 7.62676 128.162 8.88178C128.162 9.10656 128.162 9.33133 128.143 9.53738L131.731 12.6656C131.653 10.4365 130.775 8.67573 129.098 7.02735ZM117.827 13.9206C121.2 13.9206 123.56 11.9163 123.56 9.06909C123.56 8.90051 123.56 8.73192 123.54 8.56334C123.209 8.50715 122.858 8.48842 122.526 8.48842H117.164V13.9206H117.827ZM131.185 16.0934C131.536 15.1568 131.731 14.1266 131.731 13.0214V12.9278L128.123 9.76216C128.026 10.8299 127.753 11.8226 127.324 12.7217L131.185 16.0934ZM127.226 12.8903C126.875 13.5834 126.446 14.2015 125.92 14.7635L129.937 18.2663C130.405 17.6669 130.814 16.9925 131.107 16.2807L127.226 12.8903ZM128.396 19.7086C128.923 19.3153 129.391 18.8844 129.82 18.3974L125.783 14.8946C125.335 15.3629 124.847 15.7563 124.301 16.1309L128.396 19.7086ZM122.643 17.0113L126.797 20.6452C127.324 20.4017 127.792 20.1394 128.24 19.821L124.126 16.2433C123.658 16.5242 123.17 16.7865 122.643 17.0113ZM121.005 17.5545L125.198 21.2071C125.686 21.076 126.173 20.9074 126.622 20.7201L122.448 17.0862C121.98 17.2735 121.493 17.4234 121.005 17.5545ZM119.426 17.8355L123.638 21.4881C124.106 21.4319 124.554 21.357 124.983 21.2633L120.791 17.5919C120.342 17.7043 119.894 17.7793 119.426 17.8355ZM122.097 21.563H122.312C122.663 21.563 123.014 21.5443 123.345 21.5256L119.153 17.8729C118.763 17.9104 118.353 17.9291 117.944 17.9478L122.097 21.563ZM116.579 17.9478L120.732 21.563H121.785L117.651 17.9478H116.579ZM116.813 31.0787V21.563H116.832L112.679 17.9478H112.659V18.9032L116.267 22.0501L116.111 22.1812L112.659 19.1654V20.1582L115.584 22.7057L115.428 22.8368L112.659 20.4204V21.3945L114.902 23.3613L114.765 23.4924L112.659 21.6567V22.6495L114.219 24.0169L114.083 24.148L112.659 22.9117V23.867L113.556 24.6537L113.42 24.8036L112.659 24.148V27.0888L116.813 31.0787ZM112.971 17.9478L117.105 21.563H117.534L113.381 17.9478H112.971ZM113.654 17.9478L117.807 21.563H118.334L114.18 17.9478H113.654ZM114.492 17.9478L118.626 21.563H119.289L115.155 17.9478H114.492ZM115.409 17.9478L119.582 21.563H120.44L116.306 17.9478H115.409ZM109.052 27.0888L113.205 31.0787H114.063L109.929 27.0888H109.052ZM110.904 27.0888H110.202L114.356 31.0787H115.058L110.904 27.0888ZM111.177 27.0888L115.35 31.0787H115.857L111.723 27.0888H111.177ZM111.996 27.0888L116.15 31.0787H116.52L112.386 27.0888H111.996ZM158.076 0.321458L162.736 4.7983V19.5962C162.736 27.0888 158.095 31.9965 151.056 31.9965C147.331 31.9965 144.66 30.985 142.241 28.6623L138.244 24.8598C136.04 22.7806 134.851 19.6524 134.851 15.6439V0.321458H139.238L144.094 4.98561V20.0083C144.094 21.1697 144.231 22.2936 144.543 23.3051C145.186 23.4549 145.888 23.5486 146.629 23.5486C151.036 23.5486 153.688 20.5515 153.688 15.494V0.321458H158.076ZM143.548 5.21039L139.394 1.22057V1.52028L143.548 5.5101V5.21039ZM158.232 1.53901L162.19 5.34151V5.02308L158.232 1.23931V1.53901ZM143.548 6.31556V5.79107L139.394 1.80125V2.32573L143.548 6.31556ZM158.232 2.34447L162.19 6.14697V5.62249L158.232 1.81998V2.34447ZM143.548 7.42072V6.5778L139.394 2.58798V3.43089L143.548 7.42072ZM158.232 3.44963L162.19 7.25213V6.40921L158.232 2.60671V3.44963ZM143.548 8.97544V7.70169L139.394 3.71187V4.98561L143.548 8.97544ZM158.232 5.00435L162.19 8.80685V7.53311L158.232 3.7306V5.00435ZM143.548 11.0921V9.23768L139.394 5.24786V7.10228L143.548 11.0921ZM158.232 7.12101L162.19 10.9235V9.06909L158.232 5.26659V7.12101ZM143.548 14.0142V11.3543L139.394 7.36452V10.0244L143.548 14.0142ZM162.19 11.1858L158.232 7.38325V10.0431L162.19 13.8456V11.1858ZM139.394 10.2866V15.494C139.394 19.3902 141.071 22.1063 143.938 23.1178C143.685 22.1437 143.548 21.0947 143.548 20.0083V14.2765L139.394 10.2866ZM161.527 24.1293C161.956 22.7619 162.19 21.2446 162.19 19.5962V14.1079L158.232 10.3054V15.6439C158.232 17.3859 158.017 18.9594 157.588 20.3455L161.527 24.1293ZM157.51 20.5328C157.218 21.4506 156.828 22.2936 156.34 23.0241L160.26 26.7891C160.747 26.0399 161.157 25.2157 161.449 24.3166L157.51 20.5328ZM158.758 28.6248C159.285 28.1191 159.753 27.5759 160.162 26.9577L156.243 23.1927C155.833 23.8108 155.365 24.354 154.839 24.8598L158.758 28.6248ZM153.201 26.0586L157.159 29.8611C157.686 29.5427 158.173 29.168 158.622 28.756L154.683 24.9722C154.234 25.3843 153.747 25.7402 153.201 26.0586ZM151.582 26.8453L155.56 30.6666C156.048 30.4605 156.535 30.2357 156.984 29.9548L153.025 26.1523C152.577 26.4145 152.089 26.6393 151.582 26.8453ZM140.506 26.3396L142.632 28.2877C143.041 28.6623 143.45 28.9995 143.86 29.2992L141.013 26.5644L140.506 26.3396ZM142.046 26.939C141.851 26.8641 141.656 26.8079 141.461 26.7329L144.738 29.8798C145.03 30.0484 145.303 30.217 145.596 30.3481L142.046 26.939ZM149.983 27.3136L153.981 31.1536C154.449 31.0412 154.897 30.9101 155.346 30.7415L151.368 26.9203C150.919 27.0701 150.451 27.2012 149.983 27.3136ZM142.436 27.0514L146.122 30.5916C146.376 30.6853 146.629 30.7977 146.902 30.8726L143.119 27.2387C142.885 27.1825 142.67 27.1263 142.436 27.0514ZM143.509 27.3324L147.331 31.0037C147.604 31.0787 147.877 31.1536 148.17 31.2098L144.289 27.4822C144.016 27.426 143.763 27.3886 143.509 27.3324ZM148.462 27.5571L152.46 31.3971C152.908 31.3596 153.337 31.2847 153.747 31.1911L149.749 27.3511C149.34 27.4447 148.911 27.5197 148.462 27.5571ZM144.601 27.5197L148.501 31.266C148.813 31.3222 149.125 31.3596 149.437 31.3971L145.518 27.6321C145.206 27.6133 144.913 27.5759 144.601 27.5197ZM147.097 27.6695L151.056 31.472C151.446 31.472 151.836 31.4533 152.206 31.4158L148.228 27.5946C147.858 27.6321 147.468 27.6508 147.097 27.6695ZM145.81 27.6508L149.73 31.4158C150.081 31.4533 150.412 31.472 150.783 31.472L146.824 27.6695H146.551C146.298 27.6695 146.064 27.6695 145.81 27.6508ZM184.382 22.9304L189.238 27.5946V31.6031H171.473L166.617 26.939V0.340189H171.005L175.86 5.00435V22.9304H184.382ZM175.314 5.22912L171.161 1.23931V1.52028L175.314 5.5101V5.22912ZM175.314 6.31556V5.79107L171.161 1.80125V2.32573L175.314 6.31556ZM175.314 7.42072V6.5778L171.161 2.58798V3.43089L175.314 7.42072ZM175.314 8.97544V7.70169L171.161 3.71187V4.98561L175.314 8.97544ZM175.314 11.0921V9.23768L171.161 5.24786V7.10228L175.314 11.0921ZM175.314 14.0142V11.3543L171.161 7.36452V10.0244L175.314 14.0142ZM171.161 22.9304H175.314V14.2765L171.161 10.2866V22.9304ZM188.692 31.0787V27.8194L184.538 23.8296V27.0888L188.692 31.0787ZM167.553 27.0888L171.707 31.0787H173.52L169.347 27.0888H167.553ZM169.62 27.0888L173.793 31.0787H175.431L171.258 27.0888H169.62ZM171.531 27.0888L175.704 31.0787H177.167L172.994 27.0888H171.531ZM173.267 27.0888L177.44 31.0787H178.727L174.573 27.0888H173.267ZM174.846 27.0888L179.019 31.0787H180.17L176.016 27.0888H174.846ZM176.289 27.0888L180.443 31.0787H181.477L177.303 27.0888H176.289ZM177.576 27.0888L181.749 31.0787H182.666L178.493 27.0888H177.576ZM178.766 27.0888L182.939 31.0787H183.739L179.565 27.0888H178.766ZM179.838 27.0888L184.012 31.0787H184.714L180.56 27.0888H179.838ZM180.833 27.0888L184.987 31.0787H185.611L181.438 27.0888H180.833ZM181.71 27.0888L185.884 31.0787H186.41L182.257 27.0888H181.71ZM182.53 27.0888L186.683 31.0787H187.151L182.978 27.0888H182.53ZM183.271 27.0888L187.424 31.0787H187.814L183.661 27.0888H183.271ZM183.934 27.0888L188.087 31.0787H188.419L184.265 27.0888H183.934ZM210.181 18.8095C211.683 20.2518 212.326 21.844 212.326 24.0356C212.326 28.7372 208.465 31.9965 202.869 31.9965C198.812 32.0714 195.79 30.9288 193.898 29.5427L189.101 24.9347V20.5141L189.569 20.3268C191.675 22.2186 194.6 23.2863 197.642 23.2863C200.178 23.2863 202.225 22.406 203.025 21.076C199.982 19.6524 196.414 18.8657 194.405 16.4119L191.461 12.8154C190.057 11.0921 189.374 9.83709 189.374 7.77662C189.374 3.16865 193.196 0.00302074 198.773 0.00302074C201.601 -0.0531739 204.468 0.677359 206.535 1.96984L211.351 6.59653V10.7924L210.922 10.9984C208.719 9.44372 206.203 8.56334 203.863 8.56334C201.172 8.56334 199.163 9.59358 198.637 11.2045C201.367 12.1411 204.292 13.0776 206.145 14.8946L210.181 18.8095ZM206.652 2.83149V6.27809H206.632L210.805 10.2866V6.82131L206.652 2.83149ZM199.612 4.06777C199.456 4.04904 199.3 4.04904 199.163 4.04904C198.871 4.04904 198.578 4.06777 198.286 4.0865L202.498 8.13252C202.888 8.07632 203.317 8.03886 203.746 8.03886L199.612 4.06777ZM205.131 8.11378L201.094 4.23635C200.704 4.16143 200.294 4.10523 199.885 4.06777L204.019 8.03886C204.39 8.03886 204.76 8.07632 205.131 8.11378ZM202.264 8.16998L198.032 4.10523C197.525 4.18016 197.057 4.27381 196.609 4.40494L200.879 8.50715C201.309 8.35729 201.777 8.2449 202.264 8.16998ZM206.437 8.3573L202.537 4.61098C202.186 4.49859 201.816 4.38621 201.445 4.31128L205.462 8.16998C205.774 8.20744 206.106 8.28237 206.437 8.3573ZM200.685 8.58207L196.414 4.47986C195.848 4.66718 195.38 4.92942 194.99 5.24786L199.3 9.38753C199.69 9.06909 200.158 8.80685 200.685 8.58207ZM207.685 8.73193L204 5.19166C203.668 5.04181 203.317 4.89196 202.966 4.76084L206.808 8.45095C207.1 8.52588 207.393 8.61954 207.685 8.73193ZM198.11 11.0172C198.305 10.4365 198.656 9.93074 199.144 9.49992L194.834 5.36025C194.288 5.84727 193.937 6.44667 193.84 7.10228L197.798 10.9048L198.11 11.0172ZM208.855 9.20021L205.579 6.05331C205.248 5.84727 204.916 5.64122 204.565 5.47263L208.134 8.90051C208.368 8.99417 208.621 9.08782 208.855 9.20021ZM206.281 6.46541L209.421 9.48119C209.616 9.57484 209.83 9.68723 210.045 9.81836L206.457 6.37175L206.281 6.46541ZM193.82 7.49564C193.82 9.06909 195.322 9.94948 197.35 10.7362L193.82 7.34579V7.49564ZM195.263 16.543C195.965 17.2735 196.94 17.8542 198.052 18.3787L193.567 14.0704C193.333 13.9393 193.099 13.8082 192.884 13.6771C193.586 14.6136 194.366 15.6064 195.263 16.543ZM195.517 14.9695C195.049 14.7822 194.581 14.5762 194.152 14.3701L198.578 18.6222C199.007 18.8095 199.456 18.9968 199.924 19.1841L195.517 14.9695ZM195.965 15.1381L200.392 19.3714C200.743 19.5213 201.094 19.6524 201.445 19.8023L196.979 15.5127C196.648 15.4004 196.316 15.2692 195.965 15.1381ZM197.408 15.6626L201.933 20.0083C202.225 20.1207 202.518 20.2518 202.81 20.3829L198.188 15.9248C197.935 15.8499 197.662 15.7563 197.408 15.6626ZM203.278 20.5515C203.298 20.4579 203.337 20.3642 203.356 20.2706L199.241 16.2995C199.046 16.2245 198.832 16.1496 198.637 16.0934L203.278 20.5515ZM199.709 16.4681L203.395 20.0083C203.415 19.9334 203.415 19.8397 203.415 19.7648V19.7461L200.216 16.6741L199.709 16.4681ZM203.395 19.4651L203.337 19.1841L201.153 17.0862C201.016 17.0113 200.86 16.9551 200.704 16.8801L203.395 19.4651ZM209.791 19.1841L207.588 17.0675C207.861 17.7793 208.017 18.5847 208.017 19.5213C208.017 19.9896 207.978 20.4391 207.9 20.8887L211.761 24.5975C211.78 24.4102 211.78 24.2229 211.78 24.0356C211.78 21.9564 211.195 20.5328 209.791 19.1841ZM203.181 18.7533C202.908 18.2476 202.42 17.8167 201.796 17.4421L203.181 18.7533ZM211.741 24.8411L207.861 21.1135C207.666 21.9751 207.334 22.7806 206.866 23.4924L210.961 27.426C211.371 26.6393 211.644 25.7776 211.741 24.8411ZM209.577 29.168C210.084 28.6998 210.513 28.1753 210.844 27.5946L206.749 23.661C206.379 24.2229 205.93 24.7099 205.404 25.1595L209.577 29.168ZM203.785 26.2085L208.017 30.2919C208.543 29.9922 209.011 29.6738 209.44 29.2992L205.248 25.2719C204.799 25.6278 204.312 25.9462 203.785 26.2085ZM191.129 26.1335L194.249 29.1306C194.542 29.3366 194.834 29.5427 195.166 29.73L191.636 26.3583L191.129 26.1335ZM202.147 26.8828L206.398 30.9663C206.905 30.7977 207.393 30.6104 207.841 30.3669L203.61 26.3021C203.161 26.5269 202.674 26.7329 202.147 26.8828ZM192.124 26.5456L195.79 30.0672C196.004 30.1608 196.219 30.2732 196.453 30.3669L192.67 26.7329L192.124 26.5456ZM193.079 26.8453L196.921 30.5542C197.155 30.6291 197.408 30.7228 197.662 30.7977L193.723 27.0139L193.079 26.8453ZM200.567 27.2574L204.799 31.3222C205.287 31.2473 205.755 31.1536 206.184 31.0225L201.952 26.9577C201.504 27.0701 201.055 27.1825 200.567 27.2574ZM194.093 27.1076L198.052 30.9101C198.325 30.985 198.598 31.0599 198.89 31.1161L194.854 27.2387C194.6 27.2012 194.347 27.145 194.093 27.1076ZM195.185 27.2949L199.222 31.1723C199.534 31.2285 199.826 31.2847 200.138 31.3222L196.063 27.3886C195.751 27.3698 195.478 27.3324 195.185 27.2949ZM204.546 31.3596L200.333 27.2949C199.924 27.3698 199.495 27.4073 199.066 27.4447L203.259 31.472C203.707 31.4533 204.136 31.4158 204.546 31.3596ZM196.375 27.426L200.49 31.3596C200.841 31.3971 201.172 31.4346 201.523 31.4533L197.369 27.4635C197.038 27.4635 196.706 27.4447 196.375 27.426ZM201.796 31.4533C202.147 31.472 202.518 31.472 202.869 31.472H202.966L198.793 27.4447C198.578 27.4635 198.383 27.4635 198.169 27.4635H197.642L201.796 31.4533ZM234.245 23.0241L239.1 27.6883V31.6031H220.341L215.485 26.939V0.340189H233.679L238.535 5.00435V8.69446H224.709L224.69 11.3731H231.456L236.312 16.0372V19.8023H224.69V23.0241H234.245ZM237.989 5.22912L233.835 1.23931V4.36747L237.989 8.16998V5.22912ZM224.553 8.16998L220.419 4.36747H220.127L224.261 8.16998H224.553ZM225.333 8.16998L221.18 4.36747H220.712L224.846 8.16998H225.333ZM226.308 8.16998L222.155 4.36747H221.472L225.626 8.16998H226.308ZM227.478 8.16998L223.344 4.36747H222.447L226.601 8.16998H227.478ZM229.038 8.16998L224.865 4.36747H223.637L227.771 8.16998H229.038ZM230.598 8.16998L226.425 4.36747H225.177L229.331 8.16998H230.598ZM232.217 8.16998L228.063 4.36747H226.737L230.891 8.16998H232.217ZM233.777 8.16998L229.662 4.36747H228.356L232.509 8.16998H233.777ZM235.142 8.16998L231.008 4.36747H229.935L234.089 8.16998H235.142ZM236.312 8.16998L232.178 4.36747H231.281L235.454 8.16998H236.312ZM237.092 8.16998L232.977 4.36747H232.451L236.624 8.16998H237.092ZM237.677 8.16998L233.562 4.36747H233.25L237.404 8.16998H237.677ZM219.99 9.83709L220.946 10.7175L220.79 10.8486L219.99 10.1181V11.3731H224.144V8.31983L219.99 4.51733V5.30405L223.598 8.61954L223.422 8.73193L219.99 5.58502V6.44668L222.935 9.14402L222.759 9.27514L219.99 6.70892V7.57057L222.272 9.6685L222.096 9.79962L219.99 7.85154V8.71319L221.609 10.193L221.453 10.3241L219.99 8.97544V9.83709ZM231.612 12.2722V15.4753H231.593L235.766 19.2778V16.262L231.612 12.2722ZM224.28 19.2778H224.631L220.478 15.4753H220.127L224.28 19.2778ZM220.77 15.4753L224.924 19.2778H225.606L221.472 15.4753H220.77ZM221.765 15.4753L225.899 19.2778H226.971L222.798 15.4753H221.765ZM223.11 15.4753L227.264 19.2778H228.726L224.592 15.4753H223.11ZM230.598 19.2778L226.484 15.4753H224.885L229.019 19.2778H230.598ZM232.47 19.2778L228.317 15.4753H226.757L230.91 19.2778H232.47ZM233.816 19.2778L229.701 15.4753H228.609L232.763 19.2778H233.816ZM234.791 19.2778L230.657 15.4753H229.974L234.128 19.2778H234.791ZM230.93 15.4753L235.103 19.2778H235.454L231.32 15.4753H230.93ZM219.99 22.125L220.497 22.5933L220.341 22.7431L219.99 22.4247V23.0241H224.144V19.4089L219.99 15.6064V16.4306L223.598 19.7648L223.461 19.8959L219.99 16.7116V17.5919L222.993 20.3455L222.837 20.4766L219.99 17.8542V18.7158L222.369 20.9074L222.213 21.0386L219.99 18.9968V19.8585L221.745 21.4694L221.589 21.6005L219.99 20.1394V21.0011L221.121 22.0313L220.965 22.1624L219.99 21.2633V22.125ZM234.401 23.9232V27.0888L238.554 31.0787V27.913L234.401 23.9232ZM218.313 27.0888H216.421L220.575 31.0787H222.467L218.313 27.0888ZM220.283 27.0888H218.586L222.74 31.0787H224.456L220.283 27.0888ZM220.556 27.0888L224.729 31.0787H226.25L222.077 27.0888H220.556ZM222.35 27.0888L226.523 31.0787H227.868L223.715 27.0888H222.35ZM225.177 27.0888H223.988L228.141 31.0787H229.35L225.177 27.0888ZM230.676 31.0787L226.523 27.0888H225.45L229.623 31.0787H230.676ZM226.796 27.0888L230.949 31.0787H231.885L227.732 27.0888H226.796ZM228.005 27.0888L232.158 31.0787H232.997L228.824 27.0888H228.005ZM229.097 27.0888L233.27 31.0787H233.991L229.818 27.0888H229.097ZM230.091 27.0888L234.264 31.0787H234.888L230.715 27.0888H230.091ZM230.988 27.0888L235.161 31.0787H235.707L231.534 27.0888H230.988ZM231.807 27.0888L235.98 31.0787H236.448L232.275 27.0888H231.807ZM232.548 27.0888L236.721 31.0787H237.111L232.958 27.0888H232.548ZM233.231 27.0888L237.384 31.0787H237.735L233.562 27.0888H233.231ZM233.835 27.0888L238.008 31.0787H238.281L234.108 27.0888H233.835Z" fill="#808085"/>
</svg>
