<svg width="174" height="64" viewBox="0 0 174 64" fill="none" xmlns="http://www.w3.org/2000/svg">
    <path d="M110.333 15.3548L110.551 22.83H106.167V9.59912H112.31L114.844 16.7202H114.944L117.137 9.59912H123.483V22.83H118.902L119.041 15.3918L118.922 15.3742L116.316 22.83H112.999L110.432 15.3548H110.333Z" fill="#808085"/>
    <path d="M129.961 9.59912H134.955L140.406 22.83H135.292L134.562 20.8921H130.119L129.428 22.83H124.453L129.961 9.59912ZM132.381 14.215L131.236 17.4866H133.507L132.381 14.215Z" fill="#808085"/>
    <path d="M145.993 17.5606H145.953V22.83H141.391V9.59912H145.933V14.4757H145.968L149.704 9.59912H155.233L149.982 15.6526L155.49 22.83H149.719L145.993 17.5606Z" fill="#808085"/>
    <path d="M156.456 9.59912H166.072V13.2988H160.879V14.4405H165.756V17.8971H160.879V19.1303H166.407V22.83H156.456V9.59912Z" fill="#808085"/>
    <path d="M112.447 38.7758C111.476 38.7942 110.51 38.6487 109.593 38.346C108.839 38.0925 108.15 37.6916 107.57 37.1691C107.033 36.6755 106.621 36.0732 106.366 35.4073C106.097 34.7019 105.963 33.9567 105.971 33.2069V25.1714H110.669V32.7206C110.669 33.356 110.831 33.8517 111.153 34.2076C111.519 34.5496 112.012 34.7414 112.526 34.7414C113.04 34.7414 113.533 34.5496 113.899 34.2076C114.222 33.8552 114.382 33.3596 114.381 32.7206V25.1714H119.061V33.2069C119.067 33.958 118.923 34.7035 118.636 35.4038C118.36 36.071 117.931 36.6724 117.382 37.1656C116.787 37.6885 116.085 38.0892 115.319 38.3424C114.396 38.6452 113.424 38.792 112.447 38.7758Z" fill="#808085"/>
    <path d="M126.051 38.7758C125.489 38.7771 124.928 38.7305 124.375 38.6366C123.837 38.5457 123.308 38.4089 122.795 38.2278C122.301 38.0533 121.822 37.8425 121.363 37.5971C120.934 37.3662 120.531 37.0947 120.159 36.7867L123.022 33.8428C123.4 34.213 123.845 34.5172 124.334 34.7413C124.857 34.9963 125.435 35.1303 126.023 35.1324C126.27 35.1356 126.515 35.0906 126.743 35.0003C126.846 34.9634 126.933 34.8961 126.992 34.8085C127.051 34.7209 127.079 34.6177 127.071 34.514C127.074 34.399 127.035 34.2865 126.961 34.1951C126.853 34.0821 126.722 33.9905 126.576 33.9256C126.331 33.8058 126.077 33.7027 125.816 33.6173C125.492 33.4998 125.088 33.3683 124.602 33.2226C124.135 33.0776 123.68 32.9009 123.24 32.6941C122.817 32.4974 122.427 32.2421 122.084 31.9366C121.745 31.6314 121.473 31.2655 121.285 30.8601C121.074 30.3837 120.973 29.8702 120.987 29.3538C120.964 28.6217 121.148 27.897 121.522 27.2555C121.865 26.6964 122.333 26.2153 122.894 25.8461C123.465 25.4727 124.104 25.2027 124.779 25.0498C125.458 24.8899 126.154 24.8083 126.853 24.8067C127.815 24.8145 128.767 24.9851 129.666 25.3105C130.601 25.6307 131.461 26.1236 132.194 26.7605L129.271 29.5793C128.959 29.2106 128.556 28.9197 128.098 28.7319C127.71 28.5544 127.286 28.4554 126.855 28.4412C126.571 28.4309 126.287 28.479 126.025 28.5821C125.929 28.6184 125.847 28.6819 125.791 28.7639C125.734 28.846 125.706 28.9424 125.71 29.0402C125.71 29.1373 125.741 29.2321 125.798 29.3123C125.856 29.3925 125.938 29.4542 126.034 29.4894C126.378 29.6339 126.731 29.7581 127.091 29.8612C127.588 30.0127 128.114 30.1889 128.67 30.3897C129.213 30.586 129.728 30.847 130.202 31.1667C130.664 31.4796 131.056 31.876 131.356 32.3329C131.676 32.8548 131.833 33.4514 131.81 34.0542C131.828 34.7771 131.656 35.4929 131.307 36.1366C130.984 36.7138 130.533 37.2181 129.984 37.6147C129.429 38.011 128.804 38.3094 128.137 38.4956C127.46 38.6838 126.757 38.7782 126.051 38.7758Z" fill="#808085"/>
    <path d="M133.651 25.1714H143.267V28.8711H138.074V30.0128H142.951V33.4694H138.074V34.7026H143.602V38.4024H133.651V25.1714Z" fill="#808085"/>
    <path d="M105.537 47.2852C105.522 46.3001 105.725 45.323 106.134 44.417C106.507 43.5902 107.062 42.848 107.761 42.2394C108.476 41.629 109.312 41.159 110.22 40.8565C112.217 40.2081 114.385 40.2081 116.382 40.8565C117.292 41.1609 118.13 41.6307 118.85 42.2394C119.554 42.8466 120.112 43.589 120.488 44.417C120.894 45.3237 121.096 46.3006 121.08 47.2852C121.093 48.2787 120.892 49.2644 120.488 50.1815C120.113 51.0261 119.555 51.787 118.85 52.4155C118.131 53.0412 117.289 53.5267 116.372 53.8443C114.38 54.5185 112.203 54.5185 110.211 53.8443C109.3 53.5255 108.466 53.0379 107.757 52.4102C107.059 51.7815 106.507 51.0227 106.134 50.1815C105.727 49.265 105.524 48.2792 105.537 47.2852ZM110.533 47.2852C110.528 47.6923 110.598 48.0971 110.739 48.4814C110.866 48.8243 111.061 49.1413 111.313 49.4152C111.555 49.6766 111.855 49.8841 112.191 50.023C112.54 50.1672 112.917 50.2404 113.297 50.2379C113.669 50.2422 114.038 50.171 114.379 50.0291C114.72 49.8872 115.024 49.6778 115.272 49.4152C115.528 49.1425 115.726 48.8254 115.855 48.4814C115.997 48.0971 116.067 47.6923 116.061 47.2852C116.066 46.8873 115.996 46.4918 115.855 46.1171C115.729 45.7828 115.531 45.4773 115.272 45.2204C115.021 44.9781 114.723 44.7842 114.394 44.6496C114.047 44.5108 113.674 44.4413 113.297 44.4452C112.918 44.4417 112.542 44.5113 112.191 44.6496C111.86 44.7805 111.561 44.9748 111.313 45.2204C111.058 45.4787 110.863 45.784 110.739 46.1171C110.598 46.4918 110.528 46.8873 110.533 47.2852Z" fill="#808085"/>
    <path d="M127.65 45.8458H131.915V49.4909H127.67V53.9747H123.05V40.7437H132.488V44.4628H127.648L127.65 45.8458Z" fill="#808085"/>
    <path d="M133.627 51.3884H143.492V54.3482H133.627V51.3884Z" fill="#808085"/>
    <path d="M87.5488 54.3991H101.313V41.3726L87.5488 54.3991Z" fill="#808085"/>
    <path fill-rule="evenodd" clip-rule="evenodd" d="M6.54395 27.9375L25.8419 9.67317H101.239V36.061L81.9933 54.276H6.54395V27.9375ZM46.0915 38.0904C46.0915 39.4011 46.8863 40.1534 48.2713 40.1534H60.8213C62.2267 40.1534 63.0328 39.4011 63.0328 38.0904V24.19C63.0443 24.0328 63.0202 23.8752 62.9619 23.7276C62.9036 23.5801 62.8125 23.4461 62.6948 23.3347C62.5771 23.2233 62.4356 23.1371 62.2797 23.0819C62.1238 23.0268 61.9572 23.0039 61.7912 23.0149C61 23.0149 60.4881 23.4853 60.4881 24.19V37.8349H48.6361V24.19C48.6477 24.0328 48.6235 23.8752 48.5652 23.7276C48.5069 23.5801 48.4159 23.4461 48.2982 23.3347C48.1805 23.2233 48.0389 23.1371 47.883 23.0819C47.7271 23.0268 47.5605 23.0039 47.3945 23.0149C46.6052 23.0149 46.0915 23.4853 46.0915 24.19V38.0904ZM42.9935 40.2401C43.1493 40.2952 43.3158 40.3181 43.4818 40.3071C44.2766 40.3071 44.7885 39.8455 44.7885 39.1338V28.6001C44.7885 27.7157 44.1594 27.6717 44.0328 27.6717C43.7405 27.6717 43.56 27.8426 43.331 28.0593L43.2845 28.1086L42.767 28.7199C42.4238 29.1175 42.2381 29.616 42.242 30.1293V39.132C42.2302 39.2891 42.2541 39.4467 42.3122 39.5942C42.3702 39.7418 42.4611 39.8758 42.5787 39.9872C42.6962 40.0986 42.8377 40.1849 42.9935 40.2401ZM26.7221 40.24C26.878 40.2952 27.0446 40.3181 27.2106 40.3071H27.2069C28.0036 40.3071 28.5099 39.8455 28.5099 39.132V27.0004L34.2247 33.5366C34.6547 34.0035 35.0437 34.2308 35.5054 34.2308C35.967 34.2308 36.4026 34 36.8084 33.526L44.5949 24.3243C44.7157 24.1922 44.7818 24.0233 44.7811 23.8486C44.7834 23.758 44.7662 23.6679 44.7306 23.5838C44.6951 23.4997 44.6418 23.4233 44.5741 23.3592C44.5064 23.2951 44.4257 23.2447 44.3368 23.211C44.2479 23.1774 44.1527 23.1611 44.057 23.1633H43.411C43.1241 23.1606 42.8404 23.2207 42.582 23.339C42.3237 23.4573 42.0978 23.6305 41.9219 23.8451L35.5128 31.4207L29.0423 23.986C28.8204 23.7284 28.5404 23.5209 28.2228 23.3789C27.9052 23.2369 27.5581 23.1638 27.2069 23.165C27.0408 23.1545 26.8743 23.1779 26.7186 23.2335C26.5629 23.2891 26.4216 23.3757 26.3042 23.4874C26.1869 23.5992 26.0963 23.7334 26.0384 23.8811C25.9806 24.0288 25.9569 24.1866 25.969 24.3437V39.132C25.9574 39.2892 25.9816 39.4468 26.0399 39.5944C26.0982 39.7419 26.1893 39.8759 26.307 39.9873C26.4246 40.0987 26.5662 40.1849 26.7221 40.24ZM66.4671 40.1532C65.0821 40.1532 64.2873 39.4009 64.2873 38.0902V25.2292C64.2873 23.9185 65.0821 23.1662 66.4671 23.1662H79.6333C81.0182 23.1662 81.8131 23.9185 81.8131 25.2292V38.0902C81.8131 39.4009 81.0182 40.1532 79.6333 40.1532H66.4671ZM79.2666 37.8347V25.4865H66.8356V37.8347H79.2666Z" fill="#808085"/>
</svg>
