<svg width="107" height="40" viewBox="0 0 107 40" fill="none" xmlns="http://www.w3.org/2000/svg">
    <path d="M68.1934 9.59732L68.3281 14.2693H65.6167V6H69.4161L70.983 10.4507H71.0452L72.4014 6H76.3263V14.2693H73.4929L73.5792 9.62045L73.5055 9.60944L71.8937 14.2693H69.842L68.2544 9.59732H68.1934Z" fill="#808085"/>
    <path d="M80.333 6H83.422L86.793 14.2693H83.6304L83.1791 13.0581H80.4309L80.0037 14.2693H76.9262L80.333 6ZM81.8297 8.88491L81.1216 10.9297H82.5263L81.8297 8.88491Z" fill="#808085"/>
    <path d="M90.2486 10.9759H90.2244V14.2693H87.4025V6H90.2117V9.04787H90.2336L92.5443 6H95.9637L92.7158 9.78341L96.1226 14.2693H92.5535L90.2486 10.9759Z" fill="#808085"/>
    <path d="M96.7201 6H102.668V8.31233H99.4556V9.02585H102.472V11.1862H99.4556V11.957H102.875V14.2693H96.7201V6Z" fill="#808085"/>
    <path d="M69.5007 24.2355C68.9004 24.2469 68.3027 24.156 67.7357 23.9668C67.2692 23.8084 66.8428 23.5578 66.4842 23.2312C66.1521 22.9227 65.8975 22.5463 65.7394 22.1301C65.5732 21.6892 65.4905 21.2235 65.4953 20.7548V15.7327H68.4012V20.4509C68.4012 20.8481 68.501 21.1579 68.7005 21.3803C68.9266 21.594 69.2317 21.7139 69.5496 21.7139C69.8675 21.7139 70.1726 21.594 70.3987 21.3803C70.5983 21.1601 70.6977 20.8503 70.6969 20.4509V15.7327H73.5913V20.7548C73.5954 21.2243 73.5064 21.6902 73.3288 22.1279C73.1577 22.5449 72.8928 22.9208 72.5528 23.229C72.1853 23.5558 71.751 23.8063 71.2772 23.9646C70.7062 24.1538 70.1049 24.2455 69.5007 24.2355Z" fill="#808085"/>
    <path d="M77.9146 24.2354C77.5671 24.2362 77.2203 24.2071 76.8784 24.1484C76.5452 24.0916 76.218 24.0061 75.9009 23.893C75.5955 23.7839 75.2994 23.6521 75.0155 23.4988C74.75 23.3544 74.5004 23.1847 74.2706 22.9922L76.0414 21.1523C76.2753 21.3837 76.55 21.5738 76.8531 21.7139C77.176 21.8732 77.5339 21.957 77.8973 21.9583C78.0502 21.9603 78.2018 21.9322 78.3428 21.8757C78.4063 21.8527 78.4603 21.8106 78.4968 21.7559C78.5333 21.7011 78.5504 21.6366 78.5455 21.5718C78.5472 21.4999 78.5233 21.4296 78.4776 21.3725C78.4105 21.3019 78.3295 21.2446 78.2392 21.204C78.0877 21.1292 77.9307 21.0648 77.7695 21.0114C77.5692 20.9379 77.3189 20.8557 77.0188 20.7647C76.73 20.674 76.4484 20.5636 76.1761 20.4344C75.9145 20.3114 75.6735 20.1519 75.4611 19.9609C75.2514 19.7702 75.0835 19.5415 74.9672 19.2881C74.8367 18.9903 74.7739 18.6694 74.783 18.3467C74.7683 17.8891 74.8824 17.4362 75.1134 17.0352C75.3255 16.6858 75.6151 16.3851 75.9619 16.1544C76.3152 15.921 76.7106 15.7522 77.1282 15.6567C77.5478 15.5568 77.9784 15.5057 78.4108 15.5047C79.0057 15.5096 79.5948 15.6162 80.1504 15.8196C80.7292 16.0197 81.2606 16.3278 81.7139 16.7258L79.9063 18.4876C79.7133 18.2572 79.4643 18.0753 79.181 17.958C78.9406 17.8471 78.6787 17.7852 78.4119 17.7763C78.2361 17.7699 78.061 17.7999 77.8984 17.8644C77.8391 17.8871 77.7885 17.9268 77.7537 17.978C77.7188 18.0293 77.7014 18.0896 77.7039 18.1507C77.7037 18.2113 77.7228 18.2706 77.7586 18.3207C77.7943 18.3709 77.8451 18.4095 77.9042 18.4315C78.1169 18.5218 78.3354 18.5993 78.5582 18.6638C78.8652 18.7585 79.1906 18.8686 79.5345 18.9941C79.8706 19.1168 80.189 19.28 80.482 19.4797C80.7679 19.6753 81.0105 19.923 81.1958 20.2086C81.3935 20.5348 81.4909 20.9077 81.4767 21.2844C81.4881 21.7363 81.3812 22.1836 81.1659 22.5859C80.9658 22.9467 80.6866 23.2618 80.3473 23.5098C80.0043 23.7574 79.6174 23.9439 79.2052 24.0603C78.7861 24.178 78.3514 24.2369 77.9146 24.2354Z" fill="#808085"/>
    <path d="M82.6152 15.7327H88.5629V18.045H85.3507V18.7585H88.3671V20.9189H85.3507V21.6897H88.7701V24.002H82.6152V15.7327Z" fill="#808085"/>
    <path d="M65.2267 29.5538C65.2175 28.9381 65.3434 28.3274 65.5963 27.7612C65.827 27.2444 66.17 26.7805 66.6025 26.4002C67.0447 26.0187 67.5616 25.7249 68.1234 25.5358C69.3584 25.1306 70.6993 25.1306 71.9343 25.5358C72.4971 25.7261 73.0157 26.0198 73.4609 26.4002C73.8961 26.7797 74.2415 27.2437 74.4741 27.7612C74.7252 28.3278 74.8498 28.9384 74.8402 29.5538C74.8485 30.1748 74.7239 30.7908 74.4741 31.364C74.2418 31.8919 73.8967 32.3675 73.4609 32.7602C73.0164 33.1513 72.4957 33.4547 71.9285 33.6532C70.6964 34.0746 69.3497 34.0746 68.1176 33.6532C67.5545 33.454 67.0386 33.1493 66.6002 32.7569C66.1684 32.364 65.8266 31.8897 65.5963 31.364C65.3447 30.7912 65.2189 30.175 65.2267 29.5538ZM68.3168 29.5538C68.3136 29.8082 68.3569 30.0612 68.4446 30.3014C68.5229 30.5158 68.6433 30.7138 68.7992 30.885C68.9489 31.0484 69.1344 31.1781 69.3426 31.2649C69.5582 31.355 69.7912 31.4008 70.0265 31.3992C70.2567 31.4019 70.4849 31.3574 70.6956 31.2687C70.9063 31.18 71.0947 31.0492 71.2481 30.885C71.4066 30.7146 71.5289 30.5164 71.6084 30.3014C71.6962 30.0612 71.7394 29.8082 71.7362 29.5538C71.7392 29.3051 71.6959 29.0579 71.6084 28.8237C71.5308 28.6148 71.408 28.4238 71.2481 28.2633C71.0928 28.1118 70.9082 27.9907 70.7047 27.9065C70.4902 27.8198 70.2593 27.7763 70.0265 27.7788C69.7919 27.7766 69.5592 27.8201 69.3426 27.9065C69.1377 27.9884 68.9527 28.1098 68.7992 28.2633C68.6419 28.4247 68.5212 28.6155 68.4446 28.8237C68.3571 29.0579 68.3139 29.3051 68.3168 29.5538Z" fill="#808085"/>
    <path d="M78.9037 28.6542H81.5414V30.9324H78.9164V33.7347H76.0588V25.4654H81.896V27.7898H78.9026L78.9037 28.6542Z" fill="#808085"/>
    <path d="M82.6002 32.1183H88.7022V33.9682H82.6002V32.1183Z" fill="#808085"/>
    <path d="M54.1013 34H62.6141V25.8584L54.1013 34Z" fill="#808085"/>
    <path fill-rule="evenodd" clip-rule="evenodd" d="M4 17.4615L15.9357 6.04628H62.5687V22.5387L50.6652 33.9231H4V17.4615ZM28.46 23.807C28.46 24.6263 28.9516 25.0964 29.8082 25.0964H37.5704C38.4396 25.0964 38.9382 24.6263 38.9382 23.807V15.1193C38.9453 15.0211 38.9304 14.9225 38.8943 14.8303C38.8583 14.7381 38.8019 14.6543 38.7292 14.5847C38.6564 14.5151 38.5688 14.4612 38.4724 14.4268C38.376 14.3923 38.2729 14.378 38.1702 14.3848C37.6809 14.3848 37.3643 14.6788 37.3643 15.1193V23.6474H30.0339V15.1193C30.041 15.0211 30.0261 14.9225 29.99 14.8303C29.954 14.7381 29.8977 14.6543 29.8249 14.5847C29.7521 14.5151 29.6645 14.4612 29.5681 14.4268C29.4717 14.3923 29.3686 14.378 29.266 14.3848C28.7778 14.3848 28.46 14.6788 28.46 15.1193V23.807ZM26.5439 25.1506C26.6403 25.1851 26.7433 25.1994 26.8459 25.1925C27.3376 25.1925 27.6542 24.904 27.6542 24.4592V17.8756C27.6542 17.3229 27.265 17.2953 27.1867 17.2953C27.006 17.2953 26.8943 17.4021 26.7527 17.5376L26.7239 17.5684L26.4038 17.9505C26.1916 18.199 26.0767 18.5105 26.0792 18.8314V24.4581C26.0718 24.5562 26.0866 24.6547 26.1225 24.7469C26.1585 24.8392 26.2147 24.9229 26.2874 24.9926C26.3601 25.0622 26.4476 25.1161 26.5439 25.1506ZM16.4801 25.1506C16.5766 25.1851 16.6796 25.1994 16.7823 25.1925H16.78C17.2727 25.1925 17.5859 24.904 17.5859 24.4581V16.8758L21.1204 20.9609C21.3864 21.2527 21.627 21.3948 21.9125 21.3948C22.1981 21.3948 22.4675 21.2505 22.7185 20.9543L27.5344 15.2032C27.6091 15.1207 27.65 15.0151 27.6496 14.9059C27.651 14.8493 27.6404 14.793 27.6184 14.7404C27.5964 14.6878 27.5634 14.6401 27.5215 14.6C27.4797 14.56 27.4297 14.5285 27.3748 14.5074C27.3198 14.4864 27.2609 14.4762 27.2017 14.4776H26.8022C26.6247 14.4759 26.4492 14.5135 26.2894 14.5874C26.1297 14.6614 25.9899 14.7696 25.8811 14.9037L21.9172 19.6385L17.9152 14.9918C17.7779 14.8308 17.6047 14.7011 17.4083 14.6124C17.2119 14.5236 16.9972 14.4779 16.78 14.4787C16.6773 14.4721 16.5743 14.4867 16.478 14.5215C16.3816 14.5563 16.2943 14.6104 16.2217 14.6802C16.1491 14.75 16.093 14.8339 16.0573 14.9262C16.0215 15.0186 16.0069 15.1172 16.0143 15.2153V24.4581C16.0072 24.5563 16.0221 24.6548 16.0582 24.747C16.0942 24.8392 16.1506 24.923 16.2234 24.9926C16.2962 25.0622 16.3837 25.1161 16.4801 25.1506ZM41.0623 25.0963C40.2057 25.0963 39.7141 24.6261 39.7141 23.8069V15.7688C39.7141 14.9496 40.2057 14.4794 41.0623 14.4794H49.2055C50.0621 14.4794 50.5537 14.9496 50.5537 15.7688V23.8069C50.5537 24.6261 50.0621 25.0963 49.2055 25.0963H41.0623ZM48.9787 23.6473V15.9296H41.2902V23.6473H48.9787Z" fill="#808085"/>
</svg>
