<svg width="161" height="46" viewBox="0 0 161 46" fill="none" xmlns="http://www.w3.org/2000/svg">
    <path d="M104.333 6.35484L104.551 13.83H100.167V0.599121H106.31L108.844 7.72021H108.944L111.137 0.599121H117.483V13.83H112.902L113.041 6.39184L112.922 6.37422L110.316 13.83H106.999L104.432 6.35484H104.333Z" fill="#808085"/>
    <path d="M123.961 0.599121H128.955L134.406 13.83H129.292L128.562 11.8921H124.119L123.428 13.83H118.453L123.961 0.599121ZM126.381 5.21497L125.236 8.48659H127.507L126.381 5.21497Z" fill="#808085"/>
    <path d="M139.993 8.56058H139.953V13.83H135.391V0.599121H139.933V5.47571H139.968L143.704 0.599121H149.233L143.982 6.65258L149.49 13.83H143.719L139.993 8.56058Z" fill="#808085"/>
    <path d="M150.456 0.599121H160.072V4.29885H154.879V5.44048H159.756V8.89708H154.879V10.1303H160.407V13.83H150.456V0.599121Z" fill="#808085"/>
    <path d="M106.447 29.7758C105.476 29.7942 104.51 29.6487 103.593 29.346C102.839 29.0925 102.15 28.6916 101.57 28.1691C101.033 27.6755 100.621 27.0732 100.366 26.4073C100.097 25.7019 99.9632 24.9567 99.9709 24.2069V16.1714H104.669V23.7206C104.669 24.356 104.831 24.8517 105.153 25.2076C105.519 25.5496 106.012 25.7414 106.526 25.7414C107.04 25.7414 107.533 25.5496 107.899 25.2076C108.222 24.8552 108.382 24.3596 108.381 23.7206V16.1714H113.061V24.2069C113.067 24.958 112.923 25.7035 112.636 26.4038C112.36 27.071 111.931 27.6724 111.382 28.1656C110.787 28.6885 110.085 29.0892 109.319 29.3424C108.396 29.6452 107.424 29.792 106.447 29.7758Z" fill="#808085"/>
    <path d="M120.051 29.7758C119.489 29.7771 118.928 29.7305 118.375 29.6366C117.837 29.5457 117.308 29.4089 116.795 29.2278C116.301 29.0533 115.822 28.8425 115.363 28.5971C114.934 28.3662 114.531 28.0947 114.159 27.7867L117.022 24.8428C117.4 25.213 117.845 25.5172 118.334 25.7413C118.857 25.9963 119.435 26.1303 120.023 26.1324C120.27 26.1356 120.515 26.0906 120.743 26.0003C120.846 25.9634 120.933 25.8961 120.992 25.8085C121.051 25.7209 121.079 25.6177 121.071 25.514C121.074 25.399 121.035 25.2865 120.961 25.1951C120.853 25.0821 120.722 24.9905 120.576 24.9256C120.331 24.8058 120.077 24.7027 119.816 24.6173C119.492 24.4998 119.088 24.3683 118.602 24.2226C118.135 24.0776 117.68 23.9009 117.24 23.6941C116.817 23.4974 116.427 23.2421 116.084 22.9366C115.745 22.6314 115.473 22.2655 115.285 21.8601C115.074 21.3837 114.973 20.8702 114.987 20.3538C114.964 19.6217 115.148 18.897 115.522 18.2555C115.865 17.6964 116.333 17.2153 116.894 16.8461C117.465 16.4727 118.104 16.2027 118.779 16.0498C119.458 15.8899 120.154 15.8083 120.853 15.8067C121.815 15.8145 122.767 15.9851 123.666 16.3105C124.601 16.6307 125.461 17.1236 126.194 17.7605L123.271 20.5793C122.959 20.2106 122.556 19.9197 122.098 19.7319C121.71 19.5544 121.286 19.4554 120.855 19.4412C120.571 19.4309 120.287 19.479 120.025 19.5821C119.929 19.6184 119.847 19.6819 119.791 19.7639C119.734 19.846 119.706 19.9424 119.71 20.0402C119.71 20.1373 119.741 20.2321 119.798 20.3123C119.856 20.3925 119.938 20.4542 120.034 20.4894C120.378 20.6339 120.731 20.7581 121.091 20.8612C121.588 21.0127 122.114 21.1889 122.67 21.3897C123.213 21.586 123.728 21.847 124.202 22.1667C124.664 22.4796 125.056 22.876 125.356 23.3329C125.676 23.8548 125.833 24.4514 125.81 25.0542C125.828 25.7771 125.656 26.4929 125.307 27.1366C124.984 27.7138 124.533 28.2181 123.984 28.6147C123.429 29.011 122.804 29.3094 122.137 29.4956C121.46 29.6838 120.757 29.7782 120.051 29.7758Z" fill="#808085"/>
    <path d="M127.651 16.1714H137.267V19.8711H132.074V21.0128H136.951V24.4694H132.074V25.7026H137.602V29.4024H127.651V16.1714Z" fill="#808085"/>
    <path d="M99.5366 38.2852C99.5218 37.3001 99.7253 36.323 100.134 35.417C100.507 34.5902 101.062 33.848 101.761 33.2394C102.476 32.629 103.312 32.159 104.22 31.8565C106.217 31.2081 108.385 31.2081 110.382 31.8565C111.292 32.1609 112.13 32.6307 112.85 33.2394C113.554 33.8466 114.112 34.589 114.488 35.417C114.894 36.3237 115.096 37.3006 115.08 38.2852C115.093 39.2787 114.892 40.2644 114.488 41.1815C114.113 42.0261 113.555 42.787 112.85 43.4155C112.131 44.0412 111.289 44.5267 110.372 44.8443C108.38 45.5185 106.203 45.5185 104.211 44.8443C103.3 44.5255 102.466 44.0379 101.757 43.4102C101.059 42.7815 100.507 42.0227 100.134 41.1815C99.7274 40.265 99.524 39.2792 99.5366 38.2852ZM104.533 38.2852C104.528 38.6923 104.598 39.0971 104.739 39.4814C104.866 39.8243 105.061 40.1413 105.313 40.4152C105.555 40.6766 105.855 40.8841 106.191 41.023C106.54 41.1672 106.917 41.2404 107.297 41.2379C107.669 41.2422 108.038 41.171 108.379 41.0291C108.72 40.8872 109.024 40.6778 109.272 40.4152C109.528 40.1425 109.726 39.8254 109.855 39.4814C109.997 39.0971 110.067 38.6923 110.061 38.2852C110.066 37.8873 109.996 37.4918 109.855 37.1171C109.729 36.7828 109.531 36.4773 109.272 36.2204C109.021 35.9781 108.723 35.7842 108.394 35.6496C108.047 35.5108 107.674 35.4413 107.297 35.4452C106.918 35.4417 106.542 35.5113 106.191 35.6496C105.86 35.7805 105.561 35.9748 105.313 36.2204C105.058 36.4787 104.863 36.784 104.739 37.1171C104.598 37.4918 104.528 37.8873 104.533 38.2852Z" fill="#808085"/>
    <path d="M121.65 36.8458H125.915V40.4909H121.67V44.9747H117.05V31.7437H126.488V35.4628H121.648L121.65 36.8458Z" fill="#808085"/>
    <path d="M127.627 42.3884H137.492V45.3482H127.627V42.3884Z" fill="#808085"/>
    <path d="M81.5488 45.3991H95.3125V32.3726L81.5488 45.3991Z" fill="#808085"/>
    <path fill-rule="evenodd" clip-rule="evenodd" d="M0.543945 18.9375L19.8419 0.673174H95.2391V27.061L75.9933 45.276H0.543945V18.9375ZM40.0915 29.0904C40.0915 30.4011 40.8863 31.1534 42.2713 31.1534H54.8213C56.2267 31.1534 57.0328 30.4011 57.0328 29.0904V15.19C57.0443 15.0328 57.0202 14.8752 56.9619 14.7276C56.9036 14.5801 56.8125 14.4461 56.6948 14.3347C56.5771 14.2233 56.4356 14.1371 56.2797 14.0819C56.1238 14.0268 55.9572 14.0039 55.7912 14.0149C55 14.0149 54.4881 14.4853 54.4881 15.19V28.8349H42.6361V15.19C42.6477 15.0328 42.6235 14.8752 42.5652 14.7276C42.5069 14.5801 42.4159 14.4461 42.2982 14.3347C42.1805 14.2233 42.0389 14.1371 41.883 14.0819C41.7271 14.0268 41.5605 14.0039 41.3945 14.0149C40.6052 14.0149 40.0915 14.4853 40.0915 15.19V29.0904ZM36.9935 31.2401C37.1493 31.2952 37.3158 31.3181 37.4818 31.3071C38.2766 31.3071 38.7885 30.8455 38.7885 30.1338V19.6001C38.7885 18.7157 38.1594 18.6717 38.0328 18.6717C37.7405 18.6717 37.56 18.8426 37.331 19.0593L37.2845 19.1086L36.767 19.7199C36.4238 20.1175 36.2381 20.616 36.242 21.1293V30.132C36.2302 30.2891 36.2541 30.4467 36.3122 30.5942C36.3702 30.7418 36.4611 30.8758 36.5787 30.9872C36.6962 31.0986 36.8377 31.1849 36.9935 31.2401ZM20.7221 31.24C20.878 31.2952 21.0446 31.3181 21.2106 31.3071H21.2069C22.0036 31.3071 22.5099 30.8455 22.5099 30.132V18.0004L28.2247 24.5366C28.6547 25.0035 29.0437 25.2308 29.5054 25.2308C29.967 25.2308 30.4026 25 30.8084 24.526L38.5949 15.3243C38.7157 15.1922 38.7818 15.0233 38.7811 14.8486C38.7834 14.758 38.7662 14.6679 38.7306 14.5838C38.6951 14.4997 38.6418 14.4233 38.5741 14.3592C38.5064 14.2951 38.4257 14.2447 38.3368 14.211C38.2479 14.1774 38.1527 14.1611 38.057 14.1633H37.411C37.1241 14.1606 36.8404 14.2207 36.582 14.339C36.3237 14.4573 36.0978 14.6305 35.9219 14.8451L29.5128 22.4207L23.0423 14.986C22.8204 14.7284 22.5404 14.5209 22.2228 14.3789C21.9052 14.2369 21.5581 14.1638 21.2069 14.165C21.0408 14.1545 20.8743 14.1779 20.7186 14.2335C20.5629 14.2891 20.4216 14.3757 20.3042 14.4874C20.1869 14.5992 20.0963 14.7334 20.0384 14.8811C19.9806 15.0288 19.9569 15.1866 19.969 15.3437V30.132C19.9574 30.2892 19.9816 30.4468 20.0399 30.5944C20.0982 30.7419 20.1893 30.8759 20.307 30.9873C20.4246 31.0987 20.5662 31.1849 20.7221 31.24ZM60.4671 31.1532C59.0821 31.1532 58.2873 30.4009 58.2873 29.0902V16.2292C58.2873 14.9185 59.0821 14.1662 60.4671 14.1662H73.6333C75.0182 14.1662 75.8131 14.9185 75.8131 16.2292V29.0902C75.8131 30.4009 75.0182 31.1532 73.6333 31.1532H60.4671ZM73.2666 28.8347V16.4865H60.8356V28.8347H73.2666Z" fill="#808085"/>
</svg>
