<svg width="60" height="40" viewBox="0 0 60 40" fill="none" xmlns="http://www.w3.org/2000/svg">
    <path d="M14.6455 10.8615C23.1256 3.04617 36.8745 3.04617 45.3546 10.8615L46.3752 11.8021C46.7992 12.1928 46.7992 12.8264 46.3752 13.2171L42.8839 16.4347C42.6719 16.6301 42.3282 16.6301 42.1162 16.4347L40.7117 15.1403C34.7958 9.68819 25.2042 9.68819 19.2883 15.1403L17.7843 16.5265C17.5723 16.7219 17.2285 16.7219 17.0165 16.5265L13.5253 13.3089C13.1013 12.9182 13.1013 12.2846 13.5253 11.8939L14.6455 10.8615ZM52.5748 17.5157L55.682 20.3793C56.106 20.7701 56.106 21.4037 55.682 21.7944L41.6714 34.7069C41.2474 35.0977 40.5599 35.0977 40.1359 34.7069C40.1359 34.7069 40.1359 34.7069 40.1359 34.7069L30.192 25.5426C30.086 25.4449 29.9142 25.4449 29.8082 25.5426C29.8082 25.5426 29.8082 25.5426 29.8082 25.5426L19.8645 34.7069C19.4405 35.0977 18.753 35.0977 18.329 34.7069C18.329 34.7069 18.329 34.7069 18.329 34.7069L4.318 21.7943C3.894 21.4035 3.894 20.7699 4.318 20.3792L7.42522 17.5155C7.84922 17.1248 8.53667 17.1248 8.96067 17.5155L18.9047 26.68C19.0107 26.7777 19.1826 26.7777 19.2886 26.68C19.2886 26.68 19.2886 26.68 19.2886 26.68L29.2321 17.5155C29.6561 17.1248 30.3436 17.1248 30.7676 17.5155C30.7676 17.5155 30.7676 17.5155 30.7676 17.5155L40.7116 26.68C40.8176 26.7777 40.9895 26.7777 41.0955 26.68L51.0393 17.5157C51.4633 17.1249 52.1508 17.1249 52.5748 17.5157Z" fill="#808085"/>
</svg>
