<svg width="97" height="64" viewBox="0 0 97 64" fill="none" xmlns="http://www.w3.org/2000/svg">
    <path d="M23.6631 17.3784C37.2313 4.87388 59.2296 4.87388 72.7977 17.3784L74.4306 18.8833C75.109 19.5085 75.109 20.5222 74.4306 21.1474L68.8446 26.2955C68.5054 26.6081 67.9555 26.6081 67.6163 26.2955L65.3692 24.2245C55.9037 15.5011 40.5571 15.5011 31.0917 24.2245L28.6852 26.4424C28.346 26.755 27.796 26.755 27.4568 26.4424L21.8708 21.2943C21.1924 20.6691 21.1924 19.6554 21.8708 19.0302L23.6631 17.3784ZM84.35 28.0251L89.3216 32.607C90 33.2322 90 34.2459 89.3216 34.8711L66.9046 55.5311C66.2262 56.1563 65.1263 56.1563 64.4478 55.5311C64.4478 55.5311 64.4478 55.5311 64.4478 55.5311L48.5376 40.8681C48.368 40.7118 48.093 40.7118 47.9234 40.8681C47.9234 40.8681 47.9234 40.8681 47.9234 40.8681L32.0135 55.5311C31.3351 56.1563 30.2352 56.1563 29.5568 55.5311C29.5568 55.5311 29.5568 55.5311 29.5568 55.5311L7.13918 34.8708C6.46077 34.2456 6.46077 33.2319 7.13918 32.6067L12.1107 28.0249C12.7891 27.3997 13.889 27.3997 14.5674 28.0249L30.4779 42.6881C30.6475 42.8444 30.9225 42.8444 31.0921 42.6881C31.0921 42.6881 31.0921 42.6881 31.0921 42.6881L47.0018 28.0249C47.6801 27.3996 48.7801 27.3996 49.4585 28.0248C49.4585 28.0248 49.4585 28.0248 49.4585 28.0248L65.3689 42.6881C65.5385 42.8444 65.8135 42.8444 65.9831 42.6881L81.8933 28.0251C82.5717 27.3999 83.6716 27.3999 84.35 28.0251Z" fill="#808085"/>
</svg>
