<svg width="128" height="64" viewBox="0 0 128 64" fill="none" xmlns="http://www.w3.org/2000/svg">
    <g clip-path="url(#clip0)">
        <path d="M30.9014 38.8217V42.5003C29.3859 41.5957 27.7794 41.1434 26.0517 41.1434C25.1121 41.1434 24.3543 41.3545 23.8391 41.7766C23.2935 42.1988 23.0207 42.7415 23.0207 43.4049C23.0207 44.0682 23.3238 44.611 23.8997 45.0331C24.4756 45.4854 25.3243 45.9679 26.4761 46.4805C27.2944 46.8423 27.931 47.1438 28.4462 47.4152C28.9615 47.6866 29.5071 48.0785 30.1133 48.561C30.6892 49.0434 31.1439 49.6163 31.447 50.2797C31.7198 50.9732 31.8713 51.727 31.8713 52.6015C31.8713 54.4106 31.2348 55.8579 29.9314 56.9133C28.6281 57.9988 26.9004 58.5415 24.7787 58.5415C22.4751 58.5415 20.5655 58.1194 19.05 57.245V53.3553C20.7777 54.5915 22.6873 55.2247 24.7484 55.2247C25.688 55.2247 26.4154 54.9835 26.9913 54.5312C27.5672 54.1091 27.84 53.4759 27.84 52.7221C27.84 52.3602 27.7794 52.0286 27.6279 51.7572C27.4763 51.4858 27.2035 51.1843 26.7792 50.9129C26.3245 50.6415 25.9911 50.4305 25.7789 50.3098C25.5364 50.1892 25.0515 49.9782 24.324 49.6465C24.1119 49.556 23.9603 49.4656 23.8694 49.4354C23.1116 49.1037 22.5054 48.7721 22.0507 48.5007C21.5961 48.2293 21.0808 47.8675 20.5352 47.4152C19.9896 46.9629 19.5653 46.39 19.3228 45.7568C19.05 45.1236 18.8985 44.3698 18.8985 43.5556C18.8985 41.8369 19.535 40.4499 20.8383 39.3946C22.1114 38.3392 23.8087 37.8266 25.9305 37.8266C27.84 37.8266 29.5071 38.1583 30.9014 38.8217Z" fill="#808085"/>
        <path d="M37.9943 50.7031C38.0247 52.1505 38.4793 53.3264 39.328 54.2008C40.1464 55.0753 41.2982 55.5276 42.7228 55.5276C43.9655 55.5276 45.1476 55.1959 46.2085 54.5024V57.6382C45.1476 58.2715 43.8139 58.573 42.2075 58.573C39.8433 58.573 37.9337 57.8192 36.4788 56.3417C34.9936 54.8642 34.2662 52.9646 34.2662 50.7031C34.2965 48.4718 35.0239 46.6023 36.4788 45.0646C37.9034 43.5268 39.8736 42.773 42.3894 42.773C43.8746 42.773 45.1476 43.0443 46.2085 43.6172V46.8134C45.2082 46.1802 44.0564 45.8485 42.7531 45.8485C41.3285 45.8485 40.207 46.3008 39.328 47.1753C38.449 48.0497 38.0247 49.2256 37.9943 50.7031Z" fill="#808085"/>
        <path d="M52.9659 43.0134V45.7272C53.663 43.8276 54.9663 42.8928 56.8456 42.8928C57.2699 42.8928 57.6033 42.923 57.8761 42.9833V46.481C57.4215 46.2699 56.9062 46.1795 56.3303 46.1795C55.3301 46.1795 54.542 46.5715 53.9055 47.3856C53.269 48.1997 52.9659 49.1947 52.9659 50.4008V58.3009H49.2983L49.3286 43.0134H52.9659Z" fill="#808085"/>
        <path d="M69.548 43.0137H73.2156V58.3011H69.548V55.7985C68.7297 57.5775 67.1535 58.4519 64.8196 58.4519C63.2738 58.4519 62.0614 57.9996 61.1824 57.1252C60.3034 56.2507 59.879 54.9843 59.879 53.3561V43.0137H63.5163V52.5118C63.5163 53.4767 63.7588 54.2004 64.2437 54.713C64.6984 55.2256 65.3652 55.4668 66.1836 55.4668C67.2445 55.4668 68.0628 55.1049 68.6691 54.4114C69.2449 53.7179 69.548 52.6324 69.548 51.2152V43.0137Z" fill="#808085"/>
        <path d="M81.579 45.7279V53.5073C81.579 54.1405 81.7609 54.623 82.0943 54.9546C82.4277 55.3165 82.9127 55.4672 83.5189 55.4672C84.2767 55.4672 85.0041 55.2562 85.6406 54.834V57.9398C84.9435 58.2714 84.0342 58.4524 82.9127 58.4524C79.6088 58.4524 77.9418 56.794 77.9418 53.447V45.7279H75.6382V43.0142H77.9418V39.3355H81.579V43.0142H85.3981V45.7279H81.579Z" fill="#808085"/>
        <path d="M88.7929 58.3009V45.7875H92.4302V58.3009H88.7929ZM88.4292 41.6264C88.4292 41.0233 88.6414 40.5107 89.0657 40.0886C89.4901 39.6665 90.0054 39.4554 90.6116 39.4554C91.2178 39.4554 91.733 39.6665 92.1574 40.0886C92.5817 40.5107 92.7939 41.0233 92.7939 41.6264C92.7939 42.2596 92.5817 42.7722 92.1574 43.1943C91.733 43.6165 91.2178 43.8275 90.6116 43.8275C90.0054 43.8275 89.4901 43.6165 89.0657 43.1943C88.6414 42.7722 88.4292 42.2596 88.4292 41.6264Z" fill="#808085"/>
        <path d="M100.159 43.014V45.6373C101.038 43.7678 102.615 42.8331 104.888 42.8331C106.434 42.8331 107.646 43.2854 108.525 44.2201C109.404 45.1549 109.859 46.4514 109.859 48.14V58.3014H106.222V48.8938C106.222 47.8987 105.979 47.1148 105.494 46.6022C105.009 46.0896 104.342 45.8484 103.524 45.8484C102.584 45.8484 101.766 46.2102 101.129 46.9339C100.493 47.6877 100.159 48.743 100.159 50.0999V58.3014H96.5222V43.014H100.159Z" fill="#808085"/>
        <path d="M117.923 57.9996L111.861 43.0137H115.892L117.681 47.8984C118.226 49.3458 118.681 50.5519 119.014 51.5469C119.348 52.542 119.53 53.145 119.62 53.4164L119.711 53.8385C119.924 53.145 120.56 51.1549 121.651 47.8984L123.258 43.0137H127.077L121.53 57.879C119.984 61.9496 117.65 64 114.498 64C113.922 64 113.407 63.9397 112.983 63.8492V60.8641C113.316 60.9546 113.649 60.9847 114.013 60.9847C115.862 60.9847 117.165 59.9897 117.923 57.9996Z" fill="#808085"/>
        <path fill-rule="evenodd" clip-rule="evenodd" d="M3.05677 47.517C2.99394 47.7268 2.78161 47.8551 2.56565 47.8138C2.34947 47.7725 2.20005 47.5752 2.21994 47.3572C2.41099 45.4139 2.84985 43.4629 3.55544 41.5449C8.04764 29.3336 21.6608 23.0476 33.9361 27.5166C36.4238 28.4222 38.6668 29.7006 40.625 31.2649C40.7946 31.4046 40.8298 31.6496 40.706 31.8308C40.5823 32.0119 40.3405 32.0698 40.1474 31.9643C23.8215 23.0567 8.24897 30.6444 3.05677 47.517Z" fill="#808085"/>
        <path fill-rule="evenodd" clip-rule="evenodd" d="M23.8611 11.6078L28.9018 9.05143L27.9331 14.5968L23.8611 11.6078Z" fill="#808085"/>
        <path fill-rule="evenodd" clip-rule="evenodd" d="M17.5842 24.637C18.2625 24.4005 18.8659 23.9795 19.3223 23.4162C19.6142 23.0557 19.5571 22.527 19.1947 22.2365C18.8322 21.9458 18.3009 22.0028 18.0088 22.3633C17.7508 22.6818 17.4095 22.9199 17.0261 23.0536C16.587 23.2068 16.3552 23.6858 16.5093 24.123C16.6634 24.5598 17.145 24.7902 17.5842 24.637ZM12.3329 22.7447C12.7937 23.1222 13.2308 23.4804 13.635 23.8115C13.9941 24.1059 14.5262 24.0549 14.822 23.6972C15.1179 23.3399 15.0667 22.8107 14.7073 22.5164C14.3034 22.1852 13.866 21.8271 13.4053 21.4494C13.0459 21.155 12.514 21.2062 12.2181 21.5635C11.9221 21.9211 11.9736 22.4502 12.3329 22.7447ZM21.3494 20.6889C21.6742 20.2511 22.0095 19.7991 22.3509 19.3388C22.6273 18.9661 22.5476 18.4404 22.173 18.1655C21.7986 17.8906 21.2701 17.9699 20.9937 18.3426C20.6522 18.8026 20.317 19.2546 19.9922 19.6928C19.7158 20.0653 19.7954 20.5911 20.1701 20.8661C20.5445 21.141 21.0731 21.0617 21.3494 20.6889ZM8.42679 19.5442C8.86234 19.9011 9.29828 20.2583 9.72872 20.6109C10.088 20.9054 10.62 20.854 10.9159 20.4967C11.2119 20.1392 11.1606 19.6102 10.8013 19.3157C10.3707 18.9629 9.93496 18.6059 9.49921 18.2489C9.13984 17.9545 8.60789 18.0057 8.31199 18.363C8.01598 18.7205 8.06752 19.2497 8.42679 19.5442ZM4.52082 16.3435C4.93712 16.6846 5.37332 17.0421 5.82265 17.4104C6.18202 17.7047 6.71396 17.6535 7.00987 17.2962C7.30587 16.9387 7.25434 16.4096 6.89526 16.1151C6.44583 15.7471 6.00944 15.3895 5.59314 15.0484C5.23387 14.7538 4.70192 14.805 4.40592 15.1625C4.11001 15.5198 4.16144 16.0491 4.52082 16.3435ZM24.354 16.6382C24.6913 16.1835 25.0264 15.7317 25.3555 15.288C25.5712 14.9973 25.5701 14.6132 25.3813 14.328C25.3281 14.2477 25.2601 14.1751 25.1777 14.1147C24.8032 13.8399 24.2746 13.9191 23.9982 14.2918C23.6691 14.7355 23.3341 15.1874 22.9968 15.642C22.7205 16.0145 22.8001 16.5404 23.1745 16.8153C23.5491 17.0902 24.0776 17.0109 24.354 16.6382ZM0.614745 13.143C0.614745 13.143 1.10677 13.5462 1.91657 14.2099C2.27595 14.5042 2.80789 14.453 3.1038 14.0957C3.3998 13.7382 3.34837 13.2089 2.98919 12.9146C2.17919 12.2509 1.68707 11.8478 1.68707 11.8478C1.3278 11.5533 0.79585 11.6045 0.499843 11.962C0.20394 12.3193 0.255372 12.8486 0.614745 13.143Z" fill="#808085"/>
        <path fill-rule="evenodd" clip-rule="evenodd" d="M40.6346 2.55612L45.6752 0L44.7066 5.54512L40.6346 2.55612Z" fill="#808085"/>
        <path fill-rule="evenodd" clip-rule="evenodd" d="M28.3854 23.6415C29.0638 23.4049 29.6673 22.9838 30.1236 22.4205C30.4156 22.0601 30.3585 21.5313 29.996 21.2408C29.6335 20.9501 29.1022 21.0072 28.8102 21.3676C28.5522 21.6861 28.2109 21.9241 27.8274 22.0579C27.3883 22.2112 27.1566 22.6902 27.3108 23.1272C27.4647 23.5643 27.9463 23.7946 28.3854 23.6415ZM23.1341 21.749C23.5951 22.1266 24.032 22.4848 24.4364 22.8159C24.7955 23.1103 25.3275 23.0593 25.6234 22.7015C25.9193 22.3443 25.868 21.8151 25.5086 21.5207C25.1047 21.1896 24.6673 20.8313 24.2066 20.4538C23.8472 20.1594 23.3152 20.2107 23.0193 20.5679C22.7234 20.9254 22.775 21.4544 23.1341 21.749ZM32.1507 19.6933C32.4721 19.2604 32.8069 18.8088 33.1522 18.3432C33.4286 17.9707 33.3489 17.4448 32.9744 17.1698C32.6 16.8951 32.0714 16.9742 31.795 17.3469C31.4495 17.8125 31.1147 18.2638 30.7935 18.697C30.5173 19.0695 30.5968 19.5956 30.9715 19.8704C31.3459 20.1454 31.8745 20.066 32.1507 19.6933ZM19.6883 18.9256L19.2281 18.5485C18.869 18.2539 18.8174 17.7249 19.1133 17.3674C19.4092 17.0102 19.9412 16.9589 20.3006 17.2533L20.7752 17.6422C20.6541 17.724 20.5272 17.8396 20.4 18.0009C20.1464 18.3229 19.8962 18.6501 19.6883 18.9256ZM15.322 15.3478C15.7385 15.6891 16.1747 16.0466 16.624 16.4147C16.9834 16.7091 17.5154 16.658 17.8113 16.3005C18.1072 15.943 18.0557 15.4141 17.6965 15.1195C17.2472 14.7516 16.8108 14.3938 16.3945 14.0528C16.0352 13.7582 15.5032 13.8095 15.2073 14.1669C14.9114 14.5242 14.9627 15.0534 15.322 15.3478ZM35.1554 15.6426C35.4856 15.1976 35.8199 14.7467 36.1569 14.2925C36.4331 13.92 36.3536 13.3942 35.9789 13.1191C35.6045 12.8441 35.0759 12.9235 34.7994 13.2962C34.4627 13.7502 34.1281 14.2013 33.798 14.6463C33.5217 15.0188 33.6015 15.5447 33.9759 15.8197C34.3504 16.0947 34.8789 16.0154 35.1554 15.6426ZM11.416 12.1473C11.416 12.1473 11.9081 12.5505 12.7178 13.2142C13.0774 13.5086 13.6091 13.4573 13.905 13.1C14.2012 12.7425 14.1496 12.2133 13.7905 11.919C12.9806 11.2552 12.4885 10.8523 12.4885 10.8523C12.1291 10.5577 11.5971 10.609 11.3012 10.9665C11.0053 11.3237 11.0566 11.8529 11.416 12.1473ZM38.1601 11.5919C38.4956 11.1396 38.8302 10.6885 39.1616 10.2418C39.438 9.86906 39.3583 9.34322 38.9836 9.06845C38.6092 8.79344 38.0806 8.87277 37.8042 9.2455C37.4728 9.69225 37.1384 10.1431 36.8027 10.5957C36.5262 10.9684 36.606 11.494 36.9804 11.769C37.3551 12.0438 37.8837 11.9647 38.1601 11.5919ZM41.1646 7.54125C41.5074 7.07878 41.8422 6.62793 42.1661 6.19086C42.4425 5.81837 42.363 5.29253 41.9883 5.01752C41.6137 4.74275 41.0853 4.82208 40.8089 5.19481C40.485 5.6314 40.1502 6.08274 39.8074 6.54496C39.5309 6.91745 39.6104 7.44329 39.9851 7.7183C40.3598 7.99307 40.8881 7.91374 41.1646 7.54125Z" fill="#808085"/>
        <path d="M60.81 35.534H60.0004L56.9002 24.7102C56.6435 23.8262 56.446 23.0994 56.3275 22.5297C56.2288 23.0798 56.0708 23.728 55.8931 24.4548C55.6956 25.162 54.6688 28.8551 52.7731 35.534H51.9438L48.0734 21.5082H49.1003L51.5686 30.5445C51.6673 30.9177 51.766 31.2517 51.845 31.566C51.924 31.8606 52.003 32.1553 52.0623 32.4303C52.1412 32.7053 52.2005 32.9607 52.2597 33.2161C52.2992 33.4714 52.3585 33.7268 52.3979 33.9822C52.5559 33.1178 52.8916 31.782 53.3853 30.0141L55.7944 21.5082H56.8804L59.7042 31.2713C60.0399 32.391 60.2769 33.3143 60.4151 34.0018C60.4941 33.5304 60.6126 33.0589 60.731 32.5285C60.8693 32.0178 61.8566 28.3443 63.7128 21.5082H64.7001L60.81 35.534Z" fill="#808085"/>
        <path d="M72.9188 35.5334L72.6818 33.8833H72.6028C72.0697 34.5512 71.5365 35.0227 70.9836 35.3174C70.4307 35.5924 69.7593 35.7299 69.0089 35.7299C67.9821 35.7299 67.1725 35.4549 66.5998 34.9441C66.0272 34.4137 65.7507 33.6869 65.7507 32.7636C65.7507 31.7421 66.1654 30.9564 67.0343 30.3867C67.8834 29.8367 69.1077 29.5224 70.7269 29.5027L72.7213 29.4438V28.7563C72.7213 27.7544 72.5238 27.008 72.1092 26.5169C71.7142 26.0061 71.0626 25.7507 70.1542 25.7507C69.1867 25.7507 68.1796 26.0258 67.133 26.5561L66.7776 25.7311C67.9229 25.2007 69.0682 24.9257 70.1937 24.9257C71.339 24.9257 72.2079 25.2203 72.7806 25.8097C73.3335 26.4186 73.6297 27.3419 73.6297 28.5991V35.5334H72.9188ZM69.0682 34.8655C70.174 34.8655 71.0626 34.5512 71.7142 33.903C72.3659 33.2744 72.6818 32.3904 72.6818 31.251V30.2296L70.8454 30.3081C69.3841 30.3671 68.3178 30.6028 67.7057 30.9957C67.0738 31.3689 66.7578 31.9779 66.7578 32.8029C66.7578 33.4512 66.9553 33.9619 67.37 34.3155C67.7649 34.6887 68.3375 34.8655 69.0682 34.8655Z" fill="#808085"/>
        <path fill-rule="evenodd" clip-rule="evenodd" d="M77.0228 20.604H77.9706V35.5334H77.0228V20.604Z" fill="#808085"/>
        <path fill-rule="evenodd" clip-rule="evenodd" d="M81.4855 20.604H82.4334V35.5334H81.4855V20.604Z" fill="#808085"/>
        <path d="M90.1744 35.7308C88.6539 35.7308 87.4691 35.2593 86.62 34.3164C85.7709 33.3931 85.3365 32.077 85.3365 30.4072C85.3365 28.7375 85.7512 27.4017 86.5805 26.3999C87.3901 25.398 88.4959 24.9069 89.898 24.9069C91.142 24.9069 92.1096 25.3391 92.8205 26.1838C93.5313 27.0481 93.8868 28.2071 93.8868 29.6804V30.4465H86.3436C86.3633 31.8805 86.699 32.9806 87.3506 33.7271C88.0023 34.4932 88.9501 34.8664 90.1744 34.8664C90.7668 34.8664 91.3 34.8271 91.7542 34.7289C92.2083 34.6503 92.781 34.4735 93.4721 34.1985V35.0629C92.8797 35.3182 92.3465 35.495 91.8331 35.5932C91.3395 35.6718 90.7866 35.7308 90.1744 35.7308ZM89.898 25.7516C88.8909 25.7516 88.0813 26.0856 87.4691 26.7338C86.857 27.4017 86.5015 28.3643 86.4028 29.6018H92.8797C92.8797 28.4035 92.623 27.4606 92.0898 26.7731C91.5567 26.0856 90.8261 25.7516 89.898 25.7516Z" fill="#808085"/>
        <path d="M99.5531 34.8852C100.165 34.8852 100.679 34.8263 101.133 34.728V35.4942C100.679 35.6513 100.146 35.7299 99.5334 35.7299C98.6053 35.7299 97.9339 35.4745 97.4797 34.9834C97.0453 34.4923 96.8281 33.7262 96.8281 32.6654V25.9275H95.2681V25.3775L96.8281 24.9453L97.302 22.5881H97.7957V25.1025H100.876V25.9275H97.7957V32.5279C97.7957 33.3333 97.9339 33.9226 98.2301 34.2959C98.5066 34.6887 98.941 34.8852 99.5531 34.8852Z" fill="#808085"/>
    </g>
    <defs>
        <clipPath id="clip0">
            <rect width="126.769" height="64" fill="white" transform="translate(0.307617)"/>
        </clipPath>
    </defs>
</svg>
