<svg width="79" height="40" viewBox="0 0 79 40" fill="none" xmlns="http://www.w3.org/2000/svg">
    <path d="M19.0654 24.2635V26.5627C18.121 25.9973 17.1199 25.7146 16.0432 25.7146C15.4576 25.7146 14.9854 25.8466 14.6643 26.1104C14.3243 26.3742 14.1543 26.7134 14.1543 27.128C14.1543 27.5426 14.3432 27.8819 14.7021 28.1457C15.061 28.4284 15.5899 28.7299 16.3076 29.0503C16.8176 29.2764 17.2143 29.4649 17.5354 29.6345C17.8565 29.8041 18.1965 30.0491 18.5743 30.3506C18.9332 30.6521 19.2165 31.0102 19.4054 31.4248C19.5754 31.8583 19.6698 32.3294 19.6698 32.8759C19.6698 34.0066 19.2732 34.9112 18.461 35.5708C17.6487 36.2492 16.5721 36.5885 15.2499 36.5885C13.8143 36.5885 12.6243 36.3246 11.6799 35.7781V33.347C12.7565 34.1197 13.9465 34.5155 15.231 34.5155C15.8165 34.5155 16.2699 34.3647 16.6288 34.082C16.9876 33.8182 17.1576 33.4224 17.1576 32.9513C17.1576 32.7251 17.1199 32.5178 17.0254 32.3482C16.931 32.1786 16.761 31.9902 16.4965 31.8206C16.2132 31.651 16.0054 31.519 15.8732 31.4437C15.7221 31.3683 15.4199 31.2364 14.9665 31.0291C14.8343 30.9725 14.7399 30.916 14.6832 30.8971C14.211 30.6898 13.8332 30.4825 13.5499 30.3129C13.2665 30.1433 12.9454 29.9172 12.6054 29.6345C12.2654 29.3518 12.001 28.9937 11.8499 28.598C11.6799 28.2022 11.5854 27.7311 11.5854 27.2223C11.5854 26.1481 11.9821 25.2812 12.7943 24.6216C13.5877 23.962 14.6454 23.6416 15.9676 23.6416C17.1576 23.6416 18.1965 23.8489 19.0654 24.2635Z" fill="#808085"/>
    <path d="M23.4856 31.6894C23.5045 32.594 23.7878 33.329 24.3167 33.8755C24.8267 34.422 25.5445 34.7047 26.4323 34.7047C27.2067 34.7047 27.9434 34.4974 28.6045 34.064V36.0239C27.9434 36.4197 27.1123 36.6081 26.1111 36.6081C24.6378 36.6081 23.4478 36.137 22.5412 35.2136C21.6156 34.2901 21.1623 33.1029 21.1623 31.6894C21.1812 30.2949 21.6345 29.1265 22.5412 28.1653C23.4289 27.2042 24.6567 26.7331 26.2245 26.7331C27.15 26.7331 27.9434 26.9027 28.6045 27.2608V29.2584C27.9811 28.8626 27.2634 28.6553 26.4511 28.6553C25.5634 28.6553 24.8645 28.938 24.3167 29.4845C23.7689 30.031 23.5045 30.766 23.4856 31.6894Z" fill="#808085"/>
    <path d="M32.8155 26.8834V28.5795C33.25 27.3922 34.0622 26.808 35.2333 26.808C35.4977 26.808 35.7055 26.8269 35.8755 26.8645V29.0506C35.5922 28.9187 35.2711 28.8622 34.9122 28.8622C34.2889 28.8622 33.7978 29.1072 33.4011 29.616C33.0044 30.1248 32.8155 30.7467 32.8155 31.5005V36.438H30.53L30.5489 26.8834H32.8155Z" fill="#808085"/>
    <path d="M43.1492 26.8836H45.4348V36.4382H43.1492V34.874C42.6392 35.9859 41.657 36.5324 40.2026 36.5324C39.2392 36.5324 38.4837 36.2498 37.9359 35.7032C37.3881 35.1567 37.1237 34.3652 37.1237 33.3476V26.8836H39.3904V32.8199C39.3904 33.4229 39.5415 33.8752 39.8437 34.1956C40.127 34.516 40.5426 34.6667 41.0526 34.6667C41.7137 34.6667 42.2237 34.4406 42.6015 34.0071C42.9603 33.5737 43.1492 32.8953 43.1492 32.0095V26.8836Z" fill="#808085"/>
    <path d="M50.6467 28.5799V33.4421C50.6467 33.8378 50.76 34.1394 50.9678 34.3467C51.1756 34.5728 51.4778 34.667 51.8556 34.667C52.3278 34.667 52.7811 34.5351 53.1778 34.2713V36.2124C52.7433 36.4197 52.1767 36.5327 51.4778 36.5327C49.4189 36.5327 48.38 35.4962 48.38 33.4044V28.5799H46.9445V26.8839H48.38V24.5847H50.6467V26.8839H53.0267V28.5799H50.6467Z" fill="#808085"/>
    <path d="M55.1423 36.438V28.6172H57.4089V36.438H55.1423ZM54.9156 26.0165C54.9156 25.6396 55.0478 25.3192 55.3122 25.0554C55.5767 24.7915 55.8978 24.6596 56.2756 24.6596C56.6534 24.6596 56.9745 24.7915 57.2389 25.0554C57.5034 25.3192 57.6356 25.6396 57.6356 26.0165C57.6356 26.4123 57.5034 26.7326 57.2389 26.9965C56.9745 27.2603 56.6534 27.3922 56.2756 27.3922C55.8978 27.3922 55.5767 27.2603 55.3122 26.9965C55.0478 26.7326 54.9156 26.4123 54.9156 26.0165Z" fill="#808085"/>
    <path d="M62.2256 26.8838V28.5233C62.7734 27.3549 63.7556 26.7707 65.1723 26.7707C66.1356 26.7707 66.8912 27.0534 67.4389 27.6376C67.9867 28.2218 68.27 29.0321 68.27 30.0875V36.4384H66.0034V30.5586C66.0034 29.9367 65.8523 29.4467 65.55 29.1264C65.2478 28.806 64.8323 28.6552 64.3223 28.6552C63.7367 28.6552 63.2267 28.8814 62.8301 29.3337C62.4334 29.8048 62.2256 30.4644 62.2256 31.3124V36.4384H59.959V26.8838H62.2256Z" fill="#808085"/>
    <path d="M73.2956 36.2498L69.5178 26.8836H72.03L73.1445 29.9365C73.4845 30.8411 73.7678 31.5949 73.9756 32.2168C74.1833 32.8387 74.2967 33.2156 74.3533 33.3852L74.41 33.6491C74.5422 33.2156 74.9389 31.9718 75.6189 29.9365L76.62 26.8836H79L75.5434 36.1744C74.58 38.7185 73.1256 40 71.1611 40C70.8023 40 70.4811 39.9623 70.2167 39.9058V38.0401C70.4245 38.0966 70.6323 38.1155 70.8589 38.1155C72.0111 38.1155 72.8234 37.4936 73.2956 36.2498Z" fill="#808085"/>
    <path fill-rule="evenodd" clip-rule="evenodd" d="M1.71321 29.6981C1.67406 29.8292 1.54174 29.9094 1.40716 29.8836C1.27244 29.8578 1.17933 29.7345 1.19172 29.5982C1.31078 28.3837 1.58427 27.1643 2.02398 25.9656C4.82343 18.3335 13.3069 14.4048 20.9566 17.1978C22.5069 17.7639 23.9047 18.5629 25.125 19.5406C25.2307 19.6279 25.2526 19.781 25.1755 19.8942C25.0984 20.0075 24.9477 20.0436 24.8274 19.9777C14.6534 14.4104 4.94889 19.1527 1.71321 29.6981Z" fill="#808085"/>
    <path fill-rule="evenodd" clip-rule="evenodd" d="M14.678 7.25485L17.8193 5.65715L17.2156 9.12298L14.678 7.25485Z" fill="#808085"/>
    <path fill-rule="evenodd" clip-rule="evenodd" d="M10.7664 15.3981C11.1891 15.2503 11.5652 14.9872 11.8496 14.6351C12.0315 14.4098 11.9959 14.0794 11.7701 13.8978C11.5441 13.7162 11.213 13.7518 11.031 13.9771C10.8702 14.1761 10.6576 14.3249 10.4186 14.4085C10.145 14.5042 10.0005 14.8036 10.0966 15.0769C10.1926 15.3499 10.4927 15.4939 10.7664 15.3981ZM7.49389 14.2154C7.78109 14.4514 8.05344 14.6752 8.30534 14.8822C8.52911 15.0662 8.86073 15.0343 9.04508 14.8108C9.22948 14.5875 9.19754 14.2567 8.97359 14.0727C8.72188 13.8657 8.44934 13.6419 8.1622 13.4059C7.93824 13.2219 7.60675 13.2539 7.42235 13.4772C7.23788 13.7007 7.27 14.0314 7.49389 14.2154ZM13.1128 12.9306C13.3152 12.6569 13.5242 12.3744 13.7369 12.0867C13.9092 11.8538 13.8595 11.5253 13.6261 11.3534C13.3927 11.1816 13.0634 11.2312 12.8911 11.4641C12.6784 11.7516 12.4694 12.0341 12.267 12.308C12.0948 12.5408 12.1444 12.8695 12.3779 13.0413C12.6112 13.2131 12.9406 13.1636 13.1128 12.9306ZM5.0597 12.2151C5.33113 12.4382 5.6028 12.6614 5.87104 12.8818C6.09493 13.0659 6.42649 13.0338 6.61089 12.8105C6.79536 12.587 6.76336 12.2564 6.53947 12.0723C6.27111 11.8518 5.99956 11.6287 5.72801 11.4055C5.50406 11.2216 5.17256 11.2536 4.98816 11.4769C4.8037 11.7003 4.83581 12.031 5.0597 12.2151ZM2.62558 10.2147C2.88501 10.4279 3.15685 10.6513 3.43685 10.8815C3.66081 11.0654 3.99231 11.0335 4.17671 10.8101C4.36117 10.5867 4.32906 10.256 4.10528 10.072C3.82521 9.84192 3.55326 9.61842 3.29383 9.40522C3.06994 9.22114 2.73844 9.25312 2.55398 9.47657C2.36958 9.69989 2.40163 10.0307 2.62558 10.2147ZM14.9852 10.3989C15.1954 10.1147 15.4043 9.83234 15.6094 9.55503C15.7437 9.37333 15.7431 9.13327 15.6254 8.95501C15.5923 8.9048 15.5498 8.85943 15.4985 8.8217C15.2652 8.64991 14.9357 8.69942 14.7635 8.93237C14.5584 9.20967 14.3496 9.49209 14.1395 9.77628C13.9673 10.0091 14.0169 10.3378 14.2502 10.5095C14.4836 10.6814 14.813 10.6318 14.9852 10.3989ZM0.191396 8.21435C0.191396 8.21435 0.498014 8.46638 1.00267 8.88118C1.22662 9.06513 1.55812 9.03314 1.74252 8.80982C1.92699 8.58637 1.89494 8.25554 1.6711 8.07165C1.16633 7.6568 0.859644 7.4049 0.859644 7.4049C0.635754 7.22082 0.304257 7.2528 0.119791 7.47625C-0.0646093 7.69958 -0.0325584 8.0304 0.191396 8.21435Z" fill="#808085"/>
    <path fill-rule="evenodd" clip-rule="evenodd" d="M25.131 1.59757L28.2722 0L27.6685 3.4657L25.131 1.59757Z" fill="#808085"/>
    <path fill-rule="evenodd" clip-rule="evenodd" d="M17.4975 14.7759C17.9203 14.6281 18.2963 14.3649 18.5807 14.0128C18.7627 13.7875 18.7271 13.4571 18.5012 13.2755C18.2753 13.0938 17.9442 13.1295 17.7622 13.3547C17.6015 13.5538 17.3887 13.7026 17.1498 13.7862C16.8761 13.882 16.7317 14.1813 16.8278 14.4545C16.9237 14.7277 17.2239 14.8716 17.4975 14.7759ZM14.225 13.5931C14.5123 13.8291 14.7846 14.053 15.0365 14.26C15.2603 14.4439 15.5919 14.412 15.7763 14.1885C15.9607 13.9652 15.9287 13.6344 15.7047 13.4504C15.4531 13.2435 15.1805 13.0196 14.8934 12.7836C14.6694 12.5996 14.3379 12.6317 14.1535 12.855C13.9691 13.0784 14.0012 13.409 14.225 13.5931ZM19.8439 12.3083C20.0443 12.0377 20.2529 11.7555 20.4681 11.4645C20.6403 11.2317 20.5906 10.903 20.3573 10.7311C20.124 10.5594 19.7946 10.6088 19.6223 10.8418C19.407 11.1328 19.1983 11.4149 18.9982 11.6856C18.826 11.9184 18.8756 12.2472 19.1091 12.419C19.3424 12.5909 19.6718 12.5413 19.8439 12.3083ZM12.0777 11.8285L11.7908 11.5928C11.567 11.4087 11.5349 11.0781 11.7193 10.8547C11.9037 10.6314 12.2352 10.5993 12.4592 10.7833L12.755 11.0264C12.6795 11.0775 12.6004 11.1497 12.5212 11.2506C12.3631 11.4518 12.2072 11.6563 12.0777 11.8285ZM9.35668 9.59236C9.61623 9.80567 9.88806 10.0291 10.1681 10.2592C10.392 10.4432 10.7235 10.4113 10.9079 10.1878C11.0923 9.9644 11.0602 9.63379 10.8364 9.44966C10.5564 9.21972 10.2844 8.99614 10.025 8.78299C9.80109 8.59886 9.46956 8.63091 9.28516 8.85434C9.10076 9.07762 9.13273 9.40839 9.35668 9.59236ZM21.7164 9.77664C21.9222 9.49849 22.1305 9.2167 22.3405 8.9328C22.5127 8.69999 22.4631 8.37135 22.2296 8.19946C21.9963 8.02758 21.6669 8.07716 21.4946 8.31012C21.2847 8.59387 21.0763 8.87581 20.8705 9.15396C20.6984 9.38677 20.7481 9.71542 20.9814 9.8873C21.2147 10.0592 21.5441 10.0096 21.7164 9.77664ZM6.92252 7.59205C6.92252 7.59205 7.2292 7.84406 7.73376 8.25887C7.95785 8.44285 8.28923 8.4108 8.47363 8.18752C8.65818 7.96409 8.62605 7.63332 8.40226 7.44935C7.89755 7.03453 7.59087 6.78268 7.59087 6.78268C7.36693 6.59855 7.0354 6.6306 6.851 6.85403C6.6666 7.07731 6.69857 7.40808 6.92252 7.59205ZM23.5889 7.24496C23.798 6.96227 24.0065 6.68033 24.213 6.40112C24.3853 6.16816 24.3356 5.83951 24.1021 5.66778C23.8688 5.4959 23.5394 5.54548 23.3671 5.77844C23.1606 6.05765 22.9522 6.33944 22.743 6.62228C22.5707 6.85524 22.6204 7.18374 22.8537 7.35562C23.0872 7.52735 23.4166 7.47792 23.5889 7.24496ZM25.4612 4.71328C25.6749 4.42424 25.8835 4.14245 26.0853 3.86929C26.2576 3.63648 26.2081 3.30783 25.9746 3.13595C25.7411 2.96422 25.4118 3.0138 25.2396 3.24676C25.0377 3.51962 24.8291 3.80171 24.6154 4.0906C24.4432 4.32341 24.4927 4.65205 24.7262 4.82394C24.9597 4.99567 25.2889 4.94608 25.4612 4.71328Z" fill="#808085"/>
    <path d="M37.7039 22.2088H37.1993L35.2673 15.4439C35.1074 14.8914 34.9843 14.4371 34.9105 14.0811C34.8489 14.4249 34.7505 14.83 34.6397 15.2843C34.5167 15.7263 33.8768 18.0344 32.6954 22.2088H32.1786L29.7667 13.4427H30.4066L31.9448 19.0903C32.0063 19.3236 32.0678 19.5323 32.1171 19.7287C32.1663 19.9129 32.2155 20.097 32.2524 20.2689C32.3017 20.4408 32.3386 20.6004 32.3755 20.76C32.4001 20.9196 32.437 21.0792 32.4616 21.2389C32.5601 20.6986 32.7693 19.8638 33.0769 18.7588L34.5782 13.4427H35.255L37.0147 19.5446C37.2239 20.2444 37.3716 20.8214 37.4578 21.2511C37.507 20.9565 37.5808 20.6618 37.6546 20.3303C37.7408 20.0111 38.3561 17.7152 39.5128 13.4427H40.1281L37.7039 22.2088Z" fill="#808085"/>
    <path d="M45.2498 22.2084L45.1021 21.1771H45.0529C44.7207 21.5945 44.3884 21.8892 44.0438 22.0733C43.6993 22.2452 43.2809 22.3312 42.8133 22.3312C42.1734 22.3312 41.6688 22.1593 41.312 21.8401C40.9551 21.5086 40.7828 21.0543 40.7828 20.4773C40.7828 19.8388 41.0412 19.3477 41.5827 18.9917C42.1118 18.6479 42.8748 18.4515 43.8839 18.4392L45.1267 18.4024V17.9727C45.1267 17.3465 45.0037 16.88 44.7453 16.573C44.4991 16.2538 44.0931 16.0942 43.527 16.0942C42.924 16.0942 42.2964 16.2661 41.6442 16.5976L41.4227 16.0819C42.1364 15.7504 42.8502 15.5786 43.5516 15.5786C44.2653 15.5786 44.8068 15.7627 45.1637 16.131C45.5082 16.5116 45.6928 17.0887 45.6928 17.8744V22.2084H45.2498ZM42.8502 21.791C43.5393 21.791 44.0931 21.5945 44.4991 21.1894C44.9052 20.7965 45.1021 20.244 45.1021 19.5319V18.8935L43.9577 18.9426C43.0471 18.9794 42.3826 19.1267 42.0011 19.3723C41.6073 19.6056 41.4104 19.9862 41.4104 20.5018C41.4104 20.907 41.5335 21.2262 41.7919 21.4472C42.038 21.6805 42.3949 21.791 42.8502 21.791Z" fill="#808085"/>
    <path fill-rule="evenodd" clip-rule="evenodd" d="M47.8073 12.8775H48.398V22.2084H47.8073V12.8775Z" fill="#808085"/>
    <path fill-rule="evenodd" clip-rule="evenodd" d="M50.5884 12.8775H51.1791V22.2084H50.5884V12.8775Z" fill="#808085"/>
    <path d="M56.0032 22.3317C55.0556 22.3317 54.3173 22.0371 53.7881 21.4477C53.259 20.8707 52.9883 20.0481 52.9883 19.0045C52.9883 17.9609 53.2467 17.1261 53.7635 16.4999C54.2681 15.8738 54.9572 15.5668 55.8309 15.5668C56.6061 15.5668 57.2091 15.8369 57.6521 16.3649C58.0951 16.9051 58.3166 17.6294 58.3166 18.5503V19.0291H53.6158C53.6282 19.9253 53.8373 20.6129 54.2434 21.0794C54.6495 21.5582 55.2402 21.7915 56.0032 21.7915C56.3723 21.7915 56.7046 21.767 56.9876 21.7056C57.2706 21.6565 57.6275 21.546 58.0582 21.3741V21.9143C57.689 22.0739 57.3568 22.1844 57.0368 22.2458C56.7292 22.2949 56.3846 22.3317 56.0032 22.3317ZM55.8309 16.0948C55.2033 16.0948 54.6987 16.3035 54.3173 16.7086C53.9358 17.1261 53.7143 17.7277 53.6528 18.5011H57.689C57.689 17.7522 57.5291 17.1629 57.1968 16.7332C56.8646 16.3035 56.4092 16.0948 55.8309 16.0948Z" fill="#808085"/>
    <path d="M61.8478 21.8032C62.2293 21.8032 62.5492 21.7664 62.8322 21.705V22.1838C62.5492 22.2821 62.217 22.3312 61.8355 22.3312C61.2571 22.3312 60.8387 22.1716 60.5557 21.8646C60.285 21.5577 60.1496 21.0789 60.1496 20.4159V16.2047H59.1774V15.8609L60.1496 15.5908L60.4449 14.1175H60.7526V15.6891H62.6723V16.2047H60.7526V20.3299C60.7526 20.8333 60.8387 21.2016 61.0233 21.4349C61.1956 21.6805 61.4663 21.8032 61.8478 21.8032Z" fill="#808085"/>
</svg>
