<svg width="84" height="48" viewBox="0 0 84 48" fill="none" xmlns="http://www.w3.org/2000/svg">
    <path d="M17.6631 9.37836C31.2313 -3.12612 53.2296 -3.12612 66.7977 9.37836L68.4306 10.8833C69.109 11.5085 69.109 12.5222 68.4306 13.1474L62.8446 18.2955C62.5054 18.6081 61.9555 18.6081 61.6163 18.2955L59.3692 16.2245C49.9037 7.50111 34.5571 7.50111 25.0917 16.2245L22.6852 18.4424C22.346 18.755 21.796 18.755 21.4568 18.4424L15.8708 13.2943C15.1924 12.6691 15.1924 11.6554 15.8708 11.0302L17.6631 9.37836ZM78.35 20.0251L83.3216 24.607C84 25.2322 84 26.2459 83.3216 26.8711L60.9046 47.5311C60.2262 48.1563 59.1263 48.1563 58.4478 47.5311C58.4478 47.5311 58.4478 47.5311 58.4478 47.5311L42.5376 32.8681C42.368 32.7118 42.093 32.7118 41.9234 32.8681C41.9234 32.8681 41.9234 32.8681 41.9234 32.8681L26.0135 47.5311C25.3351 48.1563 24.2352 48.1563 23.5568 47.5311C23.5568 47.5311 23.5568 47.5311 23.5568 47.5311L1.13918 26.8708C0.46077 26.2456 0.46077 25.2319 1.13918 24.6067L6.11072 20.0249C6.78913 19.3997 7.88904 19.3997 8.56745 20.0249L24.4779 34.6881C24.6475 34.8444 24.9225 34.8444 25.0921 34.6881C25.0921 34.6881 25.0921 34.6881 25.0921 34.6881L41.0018 20.0249C41.6801 19.3996 42.7801 19.3996 43.4585 20.0248C43.4585 20.0248 43.4585 20.0248 43.4585 20.0248L59.3689 34.6881C59.5385 34.8444 59.8135 34.8444 59.9831 34.6881L75.8933 20.0251C76.5717 19.3999 77.6716 19.3999 78.35 20.0251Z" fill="#808085"/>
</svg>
