<svg width="142" height="58" viewBox="0 0 142 58" fill="none" xmlns="http://www.w3.org/2000/svg">
    <path d="M82.035 18.1991V20.0076L67.9228 37.9322H82.3298V39.6792H65.6383V37.8707L79.7505 19.9461H66.5963V18.1991H82.035Z" fill="#808085"/>
    <path d="M93.7153 26.2941C93.0153 25.6298 92.0327 25.2976 90.7676 25.2976C89.9447 25.2853 89.1218 25.4822 88.3972 25.8759C87.7339 26.2449 87.1444 26.7616 86.7022 27.3768C86.2478 28.0165 85.8916 28.73 85.6828 29.4928C85.2284 31.0798 85.2284 32.7529 85.6828 34.3399C85.9039 35.1027 86.2478 35.8162 86.7022 36.456C87.1567 37.0711 87.7339 37.5878 88.3972 37.9569C89.1218 38.3505 89.9447 38.5474 90.7676 38.5228C91.3326 38.5228 91.8976 38.412 92.4257 38.1906C92.9416 37.9692 93.4083 37.6616 93.8013 37.2679C94.2066 36.8619 94.5505 36.3944 94.7962 35.8654C95.0541 35.3118 95.2261 34.709 95.2752 34.0939H97.1666C96.9087 35.9762 96.2209 37.4525 95.0909 38.4982C93.961 39.5439 92.524 40.0729 90.7676 40.0729C89.5885 40.0729 88.5445 39.8514 87.6357 39.4331C86.7513 39.0272 85.9653 38.4243 85.3389 37.6739C84.7002 36.9111 84.2212 36.0254 83.9264 35.0781C83.2878 33.0113 83.2878 30.7968 83.9264 28.73C84.2212 27.7827 84.7002 26.897 85.3389 26.1342C85.9653 25.3838 86.7513 24.7809 87.6357 24.3627C88.5445 23.9198 89.5885 23.6983 90.7676 23.6983C92.4257 23.6983 93.8382 24.1412 94.9804 25.027C96.1349 25.9128 96.8227 27.2414 97.0315 29.0253H95.1401C94.8944 27.8689 94.4154 26.9585 93.7153 26.2941Z" fill="#808085"/>
    <path d="M99.8933 26.5648C100.188 25.9251 100.643 25.3715 101.195 24.9409C101.772 24.5103 102.436 24.1904 103.136 24.0059C103.934 23.7968 104.769 23.6984 105.592 23.7107C106.28 23.7107 106.968 23.7845 107.643 23.9075C108.294 24.0305 108.921 24.2766 109.473 24.6456C110.038 25.027 110.493 25.556 110.8 26.1711C111.144 26.8232 111.316 27.672 111.316 28.7054V36.9481C111.316 37.7108 111.684 38.0922 112.421 38.0922C112.63 38.0922 112.826 38.0553 113.023 37.9692V39.5562C112.802 39.5931 112.605 39.63 112.433 39.6423C112.225 39.6669 112.004 39.6792 111.795 39.6669C111.402 39.6792 111.009 39.6177 110.64 39.4701C110.37 39.3593 110.137 39.1625 109.965 38.9165C109.793 38.6581 109.694 38.3628 109.645 38.0553C109.596 37.6862 109.572 37.3294 109.572 36.9604H109.51C109.191 37.4279 108.847 37.8708 108.479 38.3013C108.135 38.6827 107.742 39.0149 107.312 39.2732C106.857 39.5439 106.354 39.753 105.838 39.876C105.199 40.0237 104.536 40.0975 103.873 40.0852C103.185 40.0852 102.509 39.9991 101.846 39.8268C101.244 39.6669 100.679 39.3962 100.2 39.0149C99.7213 38.6335 99.3529 38.1537 99.095 37.6001C98.8125 36.9604 98.6774 36.2714 98.6896 35.5702C98.6896 34.4876 98.9353 33.6387 99.4143 33.0359C99.9179 32.4085 100.569 31.9287 101.318 31.6334C102.178 31.3013 103.074 31.0675 103.996 30.9568C104.99 30.8215 105.985 30.6984 107.017 30.5877C107.422 30.5508 107.766 30.5016 108.073 30.4401C108.343 30.3909 108.601 30.2802 108.822 30.1202C109.031 29.9603 109.191 29.7511 109.289 29.5051C109.412 29.1729 109.461 28.8285 109.449 28.484C109.449 27.8443 109.338 27.3153 109.13 26.9093C108.933 26.5156 108.626 26.1711 108.257 25.9374C107.864 25.6913 107.422 25.5191 106.968 25.4453C106.452 25.3469 105.924 25.31 105.396 25.31C104.192 25.31 103.209 25.5929 102.448 26.1711C101.687 26.7494 101.293 27.6597 101.244 28.9269H99.3529C99.3652 28.1026 99.5617 27.303 99.8933 26.5648ZM109.351 31.1905C109.228 31.412 108.994 31.5719 108.663 31.6703C108.368 31.7564 108.061 31.8303 107.766 31.8795C106.968 32.0148 106.145 32.1501 105.285 32.2485C104.499 32.347 103.713 32.5069 102.964 32.7406C102.325 32.9252 101.736 33.245 101.232 33.6879C100.778 34.0939 100.557 34.6844 100.557 35.4472C100.544 35.8901 100.643 36.3329 100.839 36.7266C101.023 37.0957 101.281 37.4279 101.601 37.6862C101.932 37.9569 102.301 38.166 102.706 38.3013C103.124 38.4367 103.553 38.5105 103.996 38.5105C104.696 38.5105 105.396 38.3998 106.071 38.1783C106.71 37.9692 107.287 37.6493 107.803 37.2187C108.847 36.333 109.437 35.0166 109.412 33.6387V31.1782L109.351 31.1905Z" fill="#808085"/>
    <path d="M123.708 27.1799C123.5 26.7617 123.193 26.3926 122.824 26.1096C122.443 25.8267 122.014 25.6175 121.547 25.4945C121.043 25.3592 120.527 25.2977 120.012 25.2977C119.582 25.2977 119.152 25.3469 118.734 25.433C118.317 25.5191 117.911 25.6667 117.543 25.8882C117.187 26.085 116.892 26.368 116.671 26.7125C116.437 27.0938 116.327 27.5367 116.339 27.9796C116.327 28.361 116.437 28.73 116.658 29.0499C116.867 29.3452 117.15 29.5912 117.457 29.7881C117.788 29.9972 118.145 30.1571 118.501 30.2802C118.882 30.4155 119.238 30.5139 119.557 30.6L122.075 31.1659C122.628 31.2521 123.168 31.3997 123.684 31.5965C124.2 31.7934 124.666 32.0763 125.096 32.4208C125.514 32.7653 125.858 33.1958 126.103 33.6879C126.374 34.2415 126.509 34.8444 126.497 35.4595C126.497 36.2961 126.3 37.0219 125.919 37.6124C125.551 38.1906 125.047 38.695 124.458 39.0641C123.844 39.4455 123.168 39.7161 122.456 39.8638C121.731 40.0237 121.006 40.1098 120.269 40.1098C118.452 40.1098 116.978 39.6792 115.848 38.8181C114.718 37.9569 114.079 36.579 113.907 34.6721H115.799C115.885 35.9516 116.351 36.9235 117.199 37.5755C118.046 38.2275 119.103 38.5474 120.368 38.5474C120.847 38.5474 121.326 38.4982 121.792 38.3998C122.271 38.3013 122.738 38.1291 123.156 37.8831C123.561 37.6493 123.917 37.3418 124.187 36.9604C124.47 36.5544 124.605 36.0746 124.593 35.5948C124.605 35.1888 124.507 34.7829 124.31 34.4384C124.114 34.1185 123.856 33.8602 123.549 33.651C123.205 33.4296 122.836 33.2573 122.456 33.122C122.05 32.9867 121.633 32.8637 121.203 32.7653L118.771 32.2239C118.181 32.0763 117.616 31.8795 117.051 31.658C116.56 31.4612 116.106 31.2028 115.688 30.8707C115.307 30.5631 114.988 30.1694 114.767 29.7265C114.534 29.1975 114.423 28.6316 114.435 28.0534C114.411 27.3399 114.595 26.6509 114.964 26.0358C115.307 25.4822 115.774 25.0147 116.327 24.6825C116.904 24.3381 117.543 24.0797 118.206 23.9321C118.882 23.7722 119.569 23.6861 120.257 23.6861C120.994 23.6737 121.731 23.7845 122.431 23.9813C123.082 24.1658 123.684 24.4857 124.2 24.9163C124.716 25.3469 125.133 25.8759 125.416 26.4787C125.735 27.1676 125.907 27.9181 125.932 28.6685H124.04C124.052 28.1641 123.93 27.6474 123.708 27.1799Z" fill="#808085"/>
    <path d="M130.795 18.1991V26.8354H130.857C131.225 25.8882 131.901 25.0885 132.773 24.5595C133.682 23.9936 134.738 23.686 135.806 23.6983C136.887 23.6983 137.796 23.8337 138.521 24.1166C139.196 24.3627 139.798 24.7686 140.277 25.3099C140.732 25.8512 141.051 26.491 141.211 27.1922C141.395 28.0165 141.493 28.853 141.481 29.6896V39.6792H139.589V29.9972C139.589 29.382 139.528 28.7546 139.405 28.1518C139.295 27.6228 139.086 27.1061 138.779 26.6632C138.472 26.2326 138.054 25.8882 137.563 25.6667C137.047 25.4207 136.421 25.3099 135.659 25.3099C134.959 25.2976 134.271 25.433 133.633 25.7159C133.055 25.9743 132.552 26.3556 132.134 26.8354C131.704 27.3275 131.385 27.9058 131.176 28.5209C130.943 29.1975 130.808 29.9234 130.795 30.6369V39.6915H128.904V18.1991H130.795Z" fill="#808085"/>
    <path d="M28.9635 0.200684C13.1072 0.200684 0.210938 13.1182 0.210938 29.0007C0.210938 44.8831 13.1072 57.8007 28.9635 57.8007C44.8198 57.8007 57.7161 44.8831 57.7161 29.0007C57.7161 13.1182 44.8198 0.200684 28.9635 0.200684ZM28.9635 53.0519C15.7233 53.0519 4.95186 42.2627 4.95186 29.0007C4.95186 15.7387 15.7233 4.96173 28.9635 4.96173C42.2037 4.96173 52.9752 15.751 52.9752 29.013C52.9752 42.275 42.2037 53.0519 28.9635 53.0519ZM31.3708 15.6402H39.2192V20.0322L27.0598 36.5667H39.2192V42.3857H31.3708V47.196H26.5562V42.3857H18.7079V37.9938L30.8673 21.4593H18.7079V15.6402H26.5562V10.8054H31.3708V15.6402Z" fill="#808085"/>
</svg>
