<svg width="148" height="64" viewBox="0 0 148 64" fill="none" xmlns="http://www.w3.org/2000/svg">
    <path d="M85.035 21.1991V23.0076L70.9228 40.9322H85.3298V42.6792H68.6383V40.8707L82.7505 22.9461H69.5963V21.1991H85.035Z" fill="#808085"/>
    <path d="M96.7153 29.2941C96.0153 28.6298 95.0327 28.2976 93.7676 28.2976C92.9447 28.2853 92.1218 28.4822 91.3972 28.8759C90.7339 29.2449 90.1444 29.7616 89.7022 30.3768C89.2478 31.0165 88.8916 31.73 88.6828 32.4928C88.2284 34.0798 88.2284 35.7529 88.6828 37.3399C88.9039 38.1027 89.2478 38.8162 89.7022 39.456C90.1567 40.0711 90.7339 40.5878 91.3972 40.9569C92.1218 41.3505 92.9447 41.5474 93.7676 41.5228C94.3326 41.5228 94.8976 41.412 95.4257 41.1906C95.9416 40.9692 96.4083 40.6616 96.8013 40.2679C97.2066 39.8619 97.5505 39.3944 97.7962 38.8654C98.0541 38.3118 98.2261 37.709 98.2752 37.0939H100.167C99.9087 38.9762 99.2209 40.4525 98.0909 41.4982C96.961 42.5439 95.524 43.0729 93.7676 43.0729C92.5885 43.0729 91.5445 42.8514 90.6357 42.4331C89.7513 42.0272 88.9653 41.4243 88.3389 40.6739C87.7002 39.9111 87.2212 39.0254 86.9264 38.0781C86.2878 36.0113 86.2878 33.7968 86.9264 31.73C87.2212 30.7827 87.7002 29.897 88.3389 29.1342C88.9653 28.3838 89.7513 27.7809 90.6357 27.3627C91.5445 26.9198 92.5885 26.6983 93.7676 26.6983C95.4257 26.6983 96.8382 27.1412 97.9804 28.027C99.1349 28.9128 99.8227 30.2414 100.032 32.0253H98.1401C97.8944 30.8689 97.4154 29.9585 96.7153 29.2941Z" fill="#808085"/>
    <path d="M102.893 29.5648C103.188 28.9251 103.643 28.3715 104.195 27.9409C104.772 27.5103 105.436 27.1904 106.136 27.0059C106.934 26.7968 107.769 26.6984 108.592 26.7107C109.28 26.7107 109.968 26.7845 110.643 26.9075C111.294 27.0305 111.921 27.2766 112.473 27.6456C113.038 28.027 113.493 28.556 113.8 29.1711C114.144 29.8232 114.316 30.672 114.316 31.7054V39.9481C114.316 40.7108 114.684 41.0922 115.421 41.0922C115.63 41.0922 115.826 41.0553 116.023 40.9692V42.5562C115.802 42.5931 115.605 42.63 115.433 42.6423C115.225 42.6669 115.004 42.6792 114.795 42.6669C114.402 42.6792 114.009 42.6177 113.64 42.4701C113.37 42.3593 113.137 42.1625 112.965 41.9165C112.793 41.6581 112.694 41.3628 112.645 41.0553C112.596 40.6862 112.572 40.3294 112.572 39.9604H112.51C112.191 40.4279 111.847 40.8708 111.479 41.3013C111.135 41.6827 110.742 42.0149 110.312 42.2732C109.857 42.5439 109.354 42.753 108.838 42.876C108.199 43.0237 107.536 43.0975 106.873 43.0852C106.185 43.0852 105.509 42.9991 104.846 42.8268C104.244 42.6669 103.679 42.3962 103.2 42.0149C102.721 41.6335 102.353 41.1537 102.095 40.6001C101.812 39.9604 101.677 39.2714 101.69 38.5702C101.69 37.4876 101.935 36.6387 102.414 36.0359C102.918 35.4085 103.569 34.9287 104.318 34.6334C105.178 34.3013 106.074 34.0675 106.996 33.9568C107.99 33.8215 108.985 33.6984 110.017 33.5877C110.422 33.5508 110.766 33.5016 111.073 33.4401C111.343 33.3909 111.601 33.2802 111.822 33.1202C112.031 32.9603 112.191 32.7511 112.289 32.5051C112.412 32.1729 112.461 31.8285 112.449 31.484C112.449 30.8443 112.338 30.3153 112.13 29.9093C111.933 29.5156 111.626 29.1711 111.257 28.9374C110.864 28.6913 110.422 28.5191 109.968 28.4453C109.452 28.3469 108.924 28.31 108.396 28.31C107.192 28.31 106.209 28.5929 105.448 29.1711C104.687 29.7494 104.293 30.6597 104.244 31.9269H102.353C102.365 31.1026 102.562 30.303 102.893 29.5648ZM112.351 34.1905C112.228 34.412 111.994 34.5719 111.663 34.6703C111.368 34.7564 111.061 34.8303 110.766 34.8795C109.968 35.0148 109.145 35.1501 108.285 35.2485C107.499 35.347 106.713 35.5069 105.964 35.7406C105.325 35.9252 104.736 36.245 104.232 36.6879C103.778 37.0939 103.557 37.6844 103.557 38.4472C103.544 38.8901 103.643 39.3329 103.839 39.7266C104.023 40.0957 104.281 40.4279 104.601 40.6862C104.932 40.9569 105.301 41.166 105.706 41.3013C106.124 41.4367 106.553 41.5105 106.996 41.5105C107.696 41.5105 108.396 41.3998 109.071 41.1783C109.71 40.9692 110.287 40.6493 110.803 40.2187C111.847 39.333 112.437 38.0166 112.412 36.6387V34.1782L112.351 34.1905Z" fill="#808085"/>
    <path d="M126.708 30.1799C126.5 29.7617 126.193 29.3926 125.824 29.1096C125.443 28.8267 125.014 28.6175 124.547 28.4945C124.043 28.3592 123.527 28.2977 123.012 28.2977C122.582 28.2977 122.152 28.3469 121.734 28.433C121.317 28.5191 120.911 28.6667 120.543 28.8882C120.187 29.085 119.892 29.368 119.671 29.7125C119.437 30.0938 119.327 30.5367 119.339 30.9796C119.327 31.361 119.437 31.73 119.658 32.0499C119.867 32.3452 120.15 32.5912 120.457 32.7881C120.788 32.9972 121.145 33.1571 121.501 33.2802C121.882 33.4155 122.238 33.5139 122.557 33.6L125.075 34.1659C125.628 34.2521 126.168 34.3997 126.684 34.5965C127.2 34.7934 127.666 35.0763 128.096 35.4208C128.514 35.7653 128.858 36.1958 129.103 36.6879C129.374 37.2415 129.509 37.8444 129.497 38.4595C129.497 39.2961 129.3 40.0219 128.919 40.6124C128.551 41.1906 128.047 41.695 127.458 42.0641C126.844 42.4455 126.168 42.7161 125.456 42.8638C124.731 43.0237 124.006 43.1098 123.269 43.1098C121.452 43.1098 119.978 42.6792 118.848 41.8181C117.718 40.9569 117.079 39.579 116.907 37.6721H118.799C118.885 38.9516 119.351 39.9235 120.199 40.5755C121.046 41.2275 122.103 41.5474 123.368 41.5474C123.847 41.5474 124.326 41.4982 124.792 41.3998C125.271 41.3013 125.738 41.1291 126.156 40.8831C126.561 40.6493 126.917 40.3418 127.187 39.9604C127.47 39.5544 127.605 39.0746 127.593 38.5948C127.605 38.1888 127.507 37.7829 127.31 37.4384C127.114 37.1185 126.856 36.8602 126.549 36.651C126.205 36.4296 125.836 36.2573 125.456 36.122C125.05 35.9867 124.633 35.8637 124.203 35.7653L121.771 35.2239C121.181 35.0763 120.616 34.8795 120.051 34.658C119.56 34.4612 119.106 34.2028 118.688 33.8707C118.307 33.5631 117.988 33.1694 117.767 32.7265C117.534 32.1975 117.423 31.6316 117.435 31.0534C117.411 30.3399 117.595 29.6509 117.964 29.0358C118.307 28.4822 118.774 28.0147 119.327 27.6825C119.904 27.3381 120.543 27.0797 121.206 26.9321C121.882 26.7722 122.569 26.6861 123.257 26.6861C123.994 26.6737 124.731 26.7845 125.431 26.9813C126.082 27.1658 126.684 27.4857 127.2 27.9163C127.716 28.3469 128.133 28.8759 128.416 29.4787C128.735 30.1676 128.907 30.9181 128.932 31.6685H127.04C127.052 31.1641 126.93 30.6474 126.708 30.1799Z" fill="#808085"/>
    <path d="M133.795 21.1991V29.8354H133.857C134.225 28.8882 134.901 28.0885 135.773 27.5595C136.682 26.9936 137.738 26.686 138.806 26.6983C139.887 26.6983 140.796 26.8337 141.521 27.1166C142.196 27.3627 142.798 27.7686 143.277 28.3099C143.732 28.8512 144.051 29.491 144.211 30.1922C144.395 31.0165 144.493 31.853 144.481 32.6896V42.6792H142.589V32.9972C142.589 32.382 142.528 31.7546 142.405 31.1518C142.295 30.6228 142.086 30.1061 141.779 29.6632C141.472 29.2326 141.054 28.8882 140.563 28.6667C140.047 28.4207 139.421 28.3099 138.659 28.3099C137.959 28.2976 137.271 28.433 136.633 28.7159C136.055 28.9743 135.552 29.3556 135.134 29.8354C134.704 30.3275 134.385 30.9058 134.176 31.5209C133.943 32.1975 133.808 32.9234 133.795 33.6369V42.6915H131.904V21.1991H133.795Z" fill="#808085"/>
    <path d="M31.9635 3.20068C16.1072 3.20068 3.21094 16.1182 3.21094 32.0007C3.21094 47.8831 16.1072 60.8007 31.9635 60.8007C47.8198 60.8007 60.7161 47.8831 60.7161 32.0007C60.7161 16.1182 47.8198 3.20068 31.9635 3.20068ZM31.9635 56.0519C18.7233 56.0519 7.95186 45.2627 7.95186 32.0007C7.95186 18.7387 18.7233 7.96173 31.9635 7.96173C45.2037 7.96173 55.9752 18.751 55.9752 32.013C55.9752 45.275 45.2037 56.0519 31.9635 56.0519ZM34.3708 18.6402H42.2192V23.0322L30.0598 39.5667H42.2192V45.3857H34.3708V50.196H29.5562V45.3857H21.7079V40.9938L33.8673 24.4593H21.7079V18.6402H29.5562V13.8054H34.3708V18.6402Z" fill="#808085"/>
</svg>
