<svg width="159" height="48" viewBox="0 0 159 48" fill="none" xmlns="http://www.w3.org/2000/svg">
    <path d="M54.5864 23.6978C54.5441 22.5536 54.7376 21.4127 55.1551 20.3437C55.5727 19.2747 56.2058 18.2997 57.0163 17.4773C57.8268 16.6549 58.798 16.002 59.8717 15.5578C60.9454 15.1136 62.0994 14.8873 63.2642 14.8925C67.6534 14.8925 70.2512 17.424 71.035 20.3959L68.2805 21.3094C68.0381 20.2014 67.3974 19.2164 66.4762 18.5351C65.5547 17.8538 64.4144 17.5219 63.2642 17.6001C60.4201 17.6001 57.5761 19.6363 57.5761 23.7529C57.5761 27.8694 60.353 29.8286 63.2977 29.8286C64.4543 29.8615 65.5886 29.5117 66.5186 28.8351C67.4487 28.1584 68.1204 27.1942 68.4261 26.0973L71.1021 26.9559C70.644 28.6306 69.6167 30.1007 68.1908 31.1219C66.7648 32.1431 65.0263 32.6538 63.2642 32.5692C62.0888 32.5908 60.9216 32.3736 59.8357 31.9309C58.7498 31.4882 57.7687 30.8298 56.954 29.9968C56.1392 29.1639 55.5083 28.1744 55.1009 27.0904C54.6935 26.0064 54.5183 24.8515 54.5864 23.6978Z" fill="#808085"/>
    <path d="M76.4087 32.1609H73.5871V14.8473H76.4087V21.6384C76.8197 21.1607 77.3354 20.7808 77.9172 20.5273C78.4991 20.2737 79.1319 20.1531 79.7679 20.1745C82.6903 20.1745 84.1011 22.2328 84.1011 24.7974V32.1609H81.3579V25.2706C81.4093 24.9355 81.3833 24.5932 81.2816 24.2693C81.18 23.9453 81.0055 23.6481 80.771 23.3996C80.5364 23.1512 80.248 22.9578 79.927 22.8338C79.606 22.71 79.2608 22.6587 78.9168 22.6841C78.5756 22.6844 78.2382 22.7543 77.9258 22.8895C77.6136 23.0248 77.3332 23.2223 77.1027 23.4697C76.8721 23.7169 76.6964 24.0086 76.5866 24.3263C76.4767 24.6439 76.4353 24.9805 76.4647 25.3147L76.4087 32.1609Z" fill="#808085"/>
    <path d="M90.4062 25.4922L93.4406 25.0299C94.1236 24.9418 94.3139 24.6006 94.3139 24.1933C94.3139 23.2137 93.6421 22.4212 92.0745 22.4212C91.7723 22.3957 91.4678 22.4309 91.1798 22.5244C90.8916 22.6181 90.6259 22.7682 90.3988 22.9658C90.1715 23.1635 89.9876 23.4044 89.8579 23.6741C89.7284 23.9438 89.6558 24.2365 89.6448 24.5345L87.0694 23.9622C87.2821 21.948 89.1408 20.1539 92.0521 20.1539C95.7024 20.1539 97.0908 22.1901 97.0908 24.5565V30.3351C97.0844 30.9618 97.133 31.5879 97.2364 32.2062H94.6051C94.5148 31.7162 94.4772 31.2181 94.4931 30.7204C94.1001 31.3125 93.5566 31.7936 92.9164 32.116C92.2761 32.4383 91.5614 32.5909 90.8428 32.5584C90.3419 32.5989 89.8377 32.5391 89.361 32.3827C88.8842 32.2263 88.4446 31.9763 88.0689 31.6482C87.6931 31.3199 87.389 30.9202 87.1748 30.4732C86.9607 30.0262 86.8411 29.5411 86.8231 29.0473C86.8231 26.923 88.3795 25.7783 90.4062 25.4922ZM94.3139 27.3632V26.835L91.2236 27.2862C90.8036 27.3004 90.4053 27.4729 90.1114 27.7679C89.8174 28.0631 89.6503 28.4581 89.6448 28.8712C89.6483 29.0844 89.6968 29.2946 89.7873 29.4884C89.8777 29.6823 90.0082 29.8554 90.1702 29.9972C90.3323 30.1389 90.5226 30.2461 90.7289 30.3118C90.9353 30.3775 91.1532 30.4004 91.3692 30.3791C91.7768 30.42 92.1888 30.369 92.5735 30.23C92.9583 30.0911 93.3058 29.8677 93.5897 29.577C93.8736 29.2863 94.0862 28.9359 94.2117 28.5523C94.3373 28.1688 94.3722 27.7621 94.3139 27.3632Z" fill="#808085"/>
    <path d="M101.883 14.6056C102.127 14.6027 102.37 14.6475 102.597 14.7376C102.823 14.8275 103.03 14.9607 103.204 15.1298C103.378 15.2987 103.516 15.4998 103.61 15.7217C103.704 15.9434 103.753 16.1814 103.753 16.4218C103.753 16.9004 103.559 17.3596 103.215 17.6981C102.87 18.0367 102.403 18.2269 101.916 18.2269C101.429 18.2269 100.962 18.0367 100.618 17.6981C100.273 17.3596 100.08 16.9004 100.08 16.4218C100.08 15.9476 100.268 15.4922 100.605 15.1528C100.942 14.8136 101.401 14.6171 101.883 14.6056ZM100.506 32.2163V20.5163H103.294V32.1613L100.506 32.2163Z" fill="#808085"/>
    <path d="M109.767 32.1608H106.945V20.5157H109.699V22.0676C110.057 21.4719 110.571 20.9816 111.188 20.6486C111.804 20.3154 112.501 20.1516 113.204 20.1744C116.093 20.1744 117.481 22.2327 117.481 24.7973V32.1608H114.66V25.2705C114.66 23.8397 113.999 22.684 112.23 22.684C111.878 22.6861 111.53 22.7614 111.21 22.905C110.889 23.0485 110.603 23.2571 110.371 23.5168C110.138 23.7767 109.964 24.0821 109.86 24.4128C109.756 24.7434 109.724 25.0921 109.767 25.4357V32.1608Z" fill="#808085"/>
    <path d="M120.918 32.1609V14.8473H123.739V32.1609H120.918Z" fill="#808085"/>
    <path d="M128.778 14.6055C129.268 14.6055 129.738 14.7969 130.084 15.1375C130.431 15.4781 130.625 15.94 130.625 16.4217C130.622 16.7777 130.513 17.1252 130.311 17.4204C130.108 17.7155 129.822 17.9451 129.486 18.0804C129.151 18.2157 128.783 18.2505 128.428 18.1805C128.073 18.1104 127.746 17.9388 127.49 17.6869C127.234 17.4352 127.06 17.1146 126.988 16.7655C126.917 16.4163 126.953 16.0544 127.09 15.7249C127.228 15.3956 127.461 15.1136 127.762 14.9144C128.062 14.7152 128.415 14.6077 128.778 14.6055ZM127.389 32.2163V20.5162H130.188V32.1612L127.389 32.2163Z" fill="#808085"/>
    <path d="M136.662 32.1622H133.84V20.5172H136.584V22.0691C136.942 21.4749 137.457 20.9861 138.073 20.6531C138.69 20.3202 139.386 20.1555 140.088 20.1759C142.988 20.1759 144.376 22.2342 144.376 24.7988V32.1622H141.554V25.272C141.606 24.9369 141.58 24.5945 141.479 24.2706C141.377 23.9467 141.202 23.6495 140.968 23.4009C140.733 23.1525 140.445 22.9591 140.123 22.8352C139.803 22.7114 139.457 22.6601 139.113 22.6855C138.763 22.6874 138.415 22.7627 138.095 22.9063C137.775 23.05 137.489 23.2587 137.257 23.5188C137.025 23.7788 136.853 24.0843 136.75 24.4151C136.647 24.7458 136.617 25.0941 136.662 25.4372V32.1622Z" fill="#808085"/>
    <path d="M154.028 25.4358L159 32.1609H155.54L152.057 27.3619L150.602 28.8698V32.1718H147.802V14.8473H150.602V25.2266L155.149 20.5158H158.9L154.028 25.4358Z" fill="#808085"/>
    <path d="M21.1514 10.1702L33.3563 17.0603V30.8957L21.185 37.83L8.98012 30.9508V17.1153L21.1514 10.1702ZM21.1514 0L0 12.0523V36.0468L21.1626 48L37.8129 38.5014L42.2917 35.9588V11.9532L21.1291 0H21.1514Z" fill="#808085"/>
</svg>
