<svg width="205" height="48" viewBox="0 0 205 48" fill="none" xmlns="http://www.w3.org/2000/svg">
    <path fill-rule="evenodd" clip-rule="evenodd" d="M25.0094 18.1977C27.3861 20.305 28.4793 22.6652 28.4793 25.6997C28.4793 31.6002 23.6468 35.7024 16.723 35.7024H9.94166L5.99646 32.2042V12.2551H12.9045C16.6121 12.2551 19.7333 13.4352 21.8565 15.4161L25.0094 18.1977ZM9.73569 15.402H9.68814V16.1045L13.063 19.0687V18.3523L9.73569 15.402ZM13.6333 18.2539L10.417 15.402H9.95751L13.1739 18.2539H13.6333ZM14.7583 18.2539L11.5419 15.402H10.6388L13.8552 18.2539H14.7583ZM12.952 15.402H11.7637L14.9801 18.2539H16.1684L12.952 15.402ZM17.325 18.268L14.172 15.4723C13.8393 15.4301 13.5224 15.4161 13.1739 15.402L16.3902 18.2539H16.723C16.9289 18.2539 17.1349 18.2539 17.325 18.268ZM18.3391 18.3663L15.2653 15.6409C14.9959 15.5847 14.7107 15.5425 14.4255 15.5004L17.5627 18.282C17.832 18.2961 18.1014 18.3382 18.3391 18.3663ZM19.258 18.563L16.2635 15.9078C16.0417 15.8376 15.804 15.7673 15.5663 15.7111L18.6242 18.4225C18.8461 18.4647 19.052 18.5068 19.258 18.563ZM19.6066 18.6613C19.8126 18.7456 20.0344 18.8299 20.2245 18.9142L17.3092 16.3293C17.1032 16.2309 16.8814 16.1326 16.6596 16.0483L19.6066 18.6613ZM9.68814 21.6537L10.2585 22.1594L10.1318 22.2718L9.68814 21.8785V29.24H13.063V19.2654L9.68814 16.3293V17.0176L12.8887 19.8414L12.7619 19.9398L9.68814 17.2284V17.9308L12.35 20.305L12.2391 20.4174L9.68814 18.1415V18.858L11.8271 20.7686L11.7162 20.881L9.68814 19.0687V19.7852L11.3043 21.2322L11.1934 21.3446L9.68814 19.996V20.7265L10.7814 21.6958L10.6546 21.8082L9.68814 20.9372V21.6537ZM19.971 18.4927C19.4323 17.7482 18.7193 17.116 17.8637 16.6243L19.971 18.4927ZM24.6926 18.4787L23.4092 17.3127C24.2648 18.7316 24.8193 20.4877 24.8193 22.314C24.8193 22.5107 24.8193 22.7073 24.8035 22.89L28.0357 25.77V25.6997C28.0357 22.7635 26.9583 20.5439 24.6926 18.4787ZM13.5066 29.2259C18.1172 29.0012 21.0959 26.3179 21.0959 22.314C21.0959 21.2744 20.89 20.3191 20.5097 19.4762C19.5432 18.8861 18.4341 18.6473 16.723 18.6473H13.5066V29.2259ZM24.138 25.9245L27.497 28.9028C27.8139 27.9896 28.004 27.0062 28.0357 25.9666L24.7876 23.0867C24.7084 24.0982 24.4866 25.0394 24.138 25.9245ZM27.4336 29.0433L24.0746 26.065C23.7736 26.7674 23.3933 27.4277 22.9339 28.0177L26.3562 31.0523C26.7998 30.4341 27.1643 29.7598 27.4336 29.0433ZM24.9619 32.5695C25.4531 32.1481 25.8809 31.6704 26.2611 31.1646L22.8546 28.1442C22.4585 28.6359 22.0149 29.0995 21.5079 29.5069L24.9619 32.5695ZM20.0027 30.5606L23.4726 33.6372C23.9637 33.3422 24.4232 33.0191 24.851 32.6679L21.397 29.6052C20.9692 29.9565 20.5097 30.2796 20.0027 30.5606ZM18.4816 31.3051L21.9515 34.3818C22.4269 34.1851 22.8863 33.9603 23.33 33.7215L19.8601 30.6448C19.4323 30.8977 18.9728 31.1084 18.4816 31.3051ZM16.9923 31.7968L20.4463 34.8594C20.9058 34.7471 21.3653 34.5925 21.7931 34.438L18.3232 31.3613C17.8954 31.5299 17.4518 31.6844 16.9923 31.7968ZM15.5505 32.1059L18.9887 35.1545C19.4323 35.0842 19.8601 34.9999 20.272 34.9016L16.8339 31.853C16.4219 31.9514 15.9941 32.0357 15.5505 32.1059ZM15.3445 32.134C14.9643 32.2042 14.5681 32.2464 14.172 32.2745L17.5785 35.2809C17.9905 35.2669 18.3866 35.2247 18.7827 35.1826L15.3445 32.134ZM16.2635 35.309H16.723C16.9448 35.309 17.1508 35.309 17.3567 35.295L13.9661 32.2885C13.6175 32.3026 13.2689 32.3166 12.9045 32.3166H12.8887L16.2635 35.309ZM6.75698 32.3166L10.1318 35.309H10.3536L6.99465 32.3166H6.75698ZM7.21647 32.3166L10.5913 35.309H10.8765L7.50165 32.3166H7.21647ZM7.72347 32.3166L11.0983 35.309H11.4627L8.08789 32.3166H7.72347ZM8.30972 32.3166L11.6845 35.309H12.144L8.76919 32.3166H8.30972ZM8.99101 32.3166L12.3658 35.309H12.9204L9.54556 32.3166H8.99101ZM9.76737 32.3166L13.1422 35.309H13.8076L10.4328 32.3166H9.76737ZM10.6705 32.3166L14.0453 35.309H14.8533L11.4785 32.3166H10.6705ZM11.7004 32.3166L15.0752 35.309H16.0417L12.651 32.3166H11.7004ZM45.9237 29.2681L49.8689 32.7662V35.7024H34.6269L30.6817 32.2042V12.2551H45.4643L49.4095 15.7533V18.5208H38.176L38.1601 20.5298H43.658L47.6032 24.0279V26.8517H38.1601V29.2681H45.9237ZM48.9658 15.9218L45.591 12.9295V15.2756L48.9658 18.1275V15.9218ZM38.0492 18.1275L34.6902 15.2756H34.4526L37.8115 18.1275H38.0492ZM38.683 18.1275L35.3082 15.2756H34.9279L38.2869 18.1275H38.683ZM39.4752 18.1275L36.1004 15.2756H35.5458L38.9206 18.1275H39.4752ZM40.4258 18.1275L37.0669 15.2756H36.338L39.7128 18.1275H40.4258ZM41.6934 18.1275L38.3027 15.2756H37.3045L40.6635 18.1275H41.6934ZM42.9609 18.1275L39.5702 15.2756H38.5562L41.931 18.1275H42.9609ZM44.276 18.1275L40.9011 15.2756H39.8237L43.1986 18.1275H44.276ZM45.5435 18.1275L42.2004 15.2756H41.1388L44.5136 18.1275H45.5435ZM46.6526 18.1275L43.2936 15.2756H42.4222L45.797 18.1275H46.6526ZM47.6032 18.1275L44.2443 15.2756H43.5154L46.9061 18.1275H47.6032ZM48.237 18.1275L44.8939 15.2756H44.4661L47.8567 18.1275H48.237ZM48.7123 18.1275L45.3692 15.2756H45.1157L48.4905 18.1275H48.7123ZM34.3417 19.3778L35.118 20.0381L34.9913 20.1364L34.3417 19.5885V20.5298H37.7165V18.2399L34.3417 15.388V15.978L37.2728 18.4647L37.1302 18.5489L34.3417 16.1888V16.835L36.7341 18.858L36.5915 18.9564L34.3417 17.0317V17.6779L36.1954 19.2514L36.0528 19.3497L34.3417 17.8887V18.5349L35.6567 19.6447L35.53 19.7431L34.3417 18.7316V19.3778ZM43.7848 21.2041V23.6065H43.769L47.1596 26.4583V24.1965L43.7848 21.2041ZM37.8274 26.4583H38.1126L34.7378 23.6065H34.4526L37.8274 26.4583ZM34.9754 23.6065L38.3502 26.4583H38.9048L35.5458 23.6065H34.9754ZM35.7835 23.6065L39.1425 26.4583H40.0139L36.6232 23.6065H35.7835ZM36.8767 23.6065L40.2515 26.4583H41.4398L38.0809 23.6065H36.8767ZM42.9609 26.4583L39.6178 23.6065H38.3186L41.6775 26.4583H42.9609ZM44.4819 26.4583L41.1071 23.6065H39.8396L43.2144 26.4583H44.4819ZM45.5752 26.4583L42.2321 23.6065H41.3448L44.7196 26.4583H45.5752ZM46.3674 26.4583L43.0084 23.6065H42.4539L45.8287 26.4583H46.3674ZM43.2302 23.6065L46.6209 26.4583H46.9061L43.5471 23.6065H43.2302ZM34.3417 28.5937L34.7536 28.945L34.6269 29.0573L34.3417 28.8185V29.2681H37.7165V26.5567L34.3417 23.7048V24.3229L37.2728 26.8236L37.1619 26.9219L34.3417 24.5337V25.194L36.7817 27.2591L36.6549 27.3575L34.3417 25.3906V26.0369L36.2747 27.6806L36.1479 27.7789L34.3417 26.2476V26.8938L35.7676 28.102L35.6409 28.2004L34.3417 27.1046V27.7508L35.2606 28.5235L35.1339 28.6218L34.3417 27.9475V28.5937ZM46.0505 29.9424V32.3166L49.4253 35.309V32.9348L46.0505 29.9424ZM32.9791 32.3166H31.4422L34.817 35.309H36.3539L32.9791 32.3166ZM34.5793 32.3166H33.2009L36.5757 35.309H37.97L34.5793 32.3166ZM34.8012 32.3166L38.1918 35.309H39.4277L36.037 32.3166H34.8012ZM36.2588 32.3166L39.6495 35.309H40.7427L37.3679 32.3166H36.2588ZM38.5562 32.3166H37.5897L40.9645 35.309H41.9469L38.5562 32.3166ZM43.0243 35.309L39.6495 32.3166H38.778L42.1687 35.309H43.0243ZM39.8713 32.3166L43.2461 35.309H44.0066L40.6318 32.3166H39.8713ZM40.8536 32.3166L44.2284 35.309H44.9097L41.5191 32.3166H40.8536ZM41.7409 32.3166L45.1315 35.309H45.7178L42.3271 32.3166H41.7409ZM42.5489 32.3166L45.9396 35.309H46.4466L43.056 32.3166H42.5489ZM43.2778 32.3166L46.6684 35.309H47.1121L43.7214 32.3166H43.2778ZM43.9432 32.3166L47.3339 35.309H47.7141L44.3235 32.3166H43.9432ZM44.5453 32.3166L47.936 35.309H48.2528L44.878 32.3166H44.5453ZM45.0998 32.3166L48.4747 35.309H48.7599L45.3692 32.3166H45.0998ZM45.591 32.3166L48.9817 35.309H49.2035L45.8128 32.3166H45.591ZM71.0209 18.6332H59.3438V21.2041H65.111L69.0562 24.7023V27.5682H59.3438V35.7024H55.8264L51.8812 32.2042V12.2551H67.0757L71.0209 15.7533V18.6332ZM67.2025 12.9295V15.388L70.5614 18.2399H70.5773V15.9218L67.2025 12.9295ZM58.9952 18.2399H59.2487L55.8739 15.388H55.6521L58.9952 18.2399ZM59.8666 18.2399L56.476 15.388H56.1274L59.4705 18.2399H59.8666ZM60.6747 18.2399L57.284 15.388H56.7295L60.0884 18.2399H60.6747ZM61.7045 18.2399L58.3297 15.388H57.5375L60.8965 18.2399H61.7045ZM63.1305 18.2399L59.7557 15.388H58.5832L61.9264 18.2399H63.1305ZM64.4931 18.2399L61.1183 15.388H59.9934L63.3682 18.2399H64.4931ZM65.9825 18.2399L62.6077 15.388H61.356L64.7308 18.2399H65.9825ZM67.3926 18.2399L64.0336 15.388H62.8295L66.2201 18.2399H67.3926ZM68.4383 18.2399L65.0635 15.388H64.2713L67.6303 18.2399H68.4383ZM69.2464 18.2399L65.8716 15.388H65.3012L68.676 18.2399H69.2464ZM69.8484 18.2399L66.4895 15.388H66.1092L69.484 18.2399H69.8484ZM66.7271 15.388L70.0861 18.2399H70.3238L66.9648 15.388H66.7271ZM55.5253 21.2041H58.9001V18.3523L55.5253 15.4863V15.964L58.5357 18.5349L58.4248 18.6332L55.5253 16.1747V16.821L58.0445 18.9704L57.9178 19.0828L55.5253 17.0317V17.6779L57.5534 19.4059L57.4266 19.5183L55.5253 17.8887V18.5349L57.0622 19.8414L56.9513 19.9398L55.5253 18.7316V19.3919L56.571 20.2769L56.4601 20.3753L55.5253 19.5885V20.2348L56.0799 20.7124L55.969 20.8108L55.5253 20.4315V21.2041ZM65.2378 21.8785V24.3229L68.6126 27.1748V24.8708L65.2378 21.8785ZM55.6204 24.3229L58.9793 27.1748H59.2962L55.9214 24.3229H55.6204ZM56.1591 24.3229L59.518 27.1748H60.0568L56.6978 24.3229H56.1591ZM56.9355 24.3229L60.2786 27.1748H61.2768L57.8861 24.3229H56.9355ZM58.1238 24.3229L61.4986 27.1748H62.7344L59.3755 24.3229H58.1238ZM59.6131 24.3229L62.9562 27.1748H64.3822L61.0391 24.3229H59.6131ZM61.2609 24.3229L64.6199 27.1748H65.8716L62.4967 24.3229H61.2609ZM62.7186 24.3229L66.1092 27.1748H67.0599L63.7167 24.3229H62.7186ZM63.9386 24.3229L67.2975 27.1748H67.8362L64.4773 24.3229H63.9386ZM64.6991 24.3229L68.0739 27.1748H68.3749L65.016 24.3229H64.6991ZM55.5253 32.3166L58.9001 35.309V27.2451L58.8684 27.2732L55.5253 24.4494V24.913L58.5516 27.4979L58.4406 27.5963L55.5253 25.1237V25.77L58.0604 27.9335L57.9336 28.0458L55.5253 25.9807V26.6269L57.5692 28.369L57.4425 28.4813L55.5253 26.8377V27.4839L57.078 28.8045L56.9671 28.9028L55.5253 27.6806V28.3409L56.5869 29.24L56.476 29.3383L55.5253 28.5375V29.1978L56.0957 29.6755L55.9848 29.7738L55.5253 29.3805V32.3166ZM52.6417 32.3166L56.0165 35.309H56.6661L53.3071 32.3166H52.6417ZM54.0993 32.3166H53.529L56.9038 35.309H57.4742L54.0993 32.3166ZM54.3212 32.3166L57.7118 35.309H58.1238L54.7648 32.3166H54.3212ZM54.9866 32.3166L58.3614 35.309H58.6625L55.3035 32.3166H54.9866ZM76.3129 12.2551L80.2581 15.7533V35.7024H76.6773L72.7321 32.2042V12.2551H76.3129ZM76.4396 13.1543L79.8144 16.1466V15.9218L76.4396 12.9295V13.1543ZM76.4396 13.7583L79.8144 16.7507V16.3574L76.4396 13.365V13.7583ZM76.4396 14.5872L79.8144 17.5796V16.9474L76.4396 13.955V14.5872ZM76.4396 15.7533L79.8144 18.7456V17.7903L76.4396 14.798V15.7533ZM76.4396 17.3408L79.8144 20.3331V18.9423L76.4396 15.9499V17.3408ZM76.4396 19.5323L79.8144 22.5247V20.5298L76.4396 17.5374V19.5323ZM76.4396 32.3166L79.8144 35.309V22.7214L76.4396 19.729V32.3166ZM74.2215 32.3166H73.4926L76.8674 35.309H77.5804L74.2215 32.3166ZM78.3885 35.309L75.0136 32.3166H74.4433L77.8181 35.309H78.3885ZM75.2355 32.3166L78.6261 35.309H79.0381L75.6791 32.3166H75.2355ZM75.9009 32.3166L79.2757 35.309H79.5768L76.2178 32.3166H75.9009ZM110.758 16.9895C112.295 18.3382 113.024 19.8695 113.024 21.7661C113.024 25.6997 109.633 28.5656 104.927 28.5656H100.903V35.7024H97.3381L93.3929 32.2042V12.2551H101.378C104.167 12.2551 106.401 13.1402 107.605 14.2079L110.758 16.9895ZM97.0846 20.2629L97.4173 20.5579L97.2906 20.6703L97.0846 20.4877V22.4404H100.301V18.1134L97.0846 15.2616V15.8656L99.8573 18.3804L99.7464 18.4787L97.0846 16.0904V16.7648L99.3661 18.8159L99.2552 18.9142L97.0846 16.9755V17.6358L98.8908 19.2514L98.764 19.3497L97.0846 17.8465V18.5068L98.3996 19.6869L98.2729 19.7852L97.0846 18.7175V19.3778L97.9085 20.1224L97.7817 20.2207L97.0846 19.6026V20.2629ZM100.697 17.9729L97.655 15.2616H97.3064L100.38 17.987L100.523 17.9729H100.697ZM101.41 17.9729L98.3521 15.2616H97.8768L100.935 17.9729H101.41ZM102.313 17.9729L99.2552 15.2616H98.5739L101.632 17.9729H102.313ZM103.359 17.9729L100.301 15.2616H99.477L102.535 17.9729H103.359ZM101.442 15.2616H100.523L103.581 17.9729H104.5L101.442 15.2616ZM105.403 17.9729L102.44 15.3458C102.202 15.3037 101.933 15.2897 101.679 15.2756L104.721 17.9729H105.403ZM105.735 17.6498L103.391 15.5706C103.185 15.5004 102.947 15.4442 102.725 15.402L105.656 18.001C105.72 18.001 105.783 18.001 105.846 18.0151C105.815 17.8887 105.783 17.7763 105.735 17.6498ZM105.593 17.3267C105.244 16.6243 104.626 16.0764 103.802 15.7252L105.593 17.3267ZM110.441 17.2705L109.047 16.0202C109.427 16.7788 109.681 17.7201 109.681 18.6613C109.681 18.8299 109.681 18.9985 109.665 19.153L112.58 21.4992C112.517 19.8274 111.804 18.5068 110.441 17.2705ZM101.283 22.4404C104.024 22.4404 105.941 20.9372 105.941 18.8018C105.941 18.6754 105.941 18.5489 105.926 18.4225C105.656 18.3804 105.371 18.3663 105.102 18.3663H100.745V22.4404H101.283ZM112.137 24.0701C112.422 23.3676 112.58 22.595 112.58 21.7661V21.6958L109.649 19.3216C109.57 20.1224 109.348 20.867 108.999 21.5413L112.137 24.0701ZM108.92 21.6677C108.635 22.1875 108.286 22.6512 107.859 23.0726L111.122 25.6997C111.503 25.2502 111.835 24.7444 112.073 24.2106L108.92 21.6677ZM109.871 26.7815C110.299 26.4864 110.679 26.1633 111.027 25.7981L107.748 23.171C107.383 23.5222 106.987 23.8172 106.544 24.0982L109.871 26.7815ZM105.197 24.7585L108.572 27.4839C108.999 27.3013 109.38 27.1046 109.744 26.8658L106.401 24.1825C106.021 24.3932 105.625 24.5899 105.197 24.7585ZM103.866 25.1659L107.272 27.9054C107.668 27.807 108.065 27.6806 108.429 27.5401L105.038 24.8146C104.658 24.9551 104.262 25.0675 103.866 25.1659ZM102.582 25.3766L106.005 28.1161C106.385 28.0739 106.749 28.0177 107.098 27.9475L103.692 25.194C103.327 25.2783 102.963 25.3344 102.582 25.3766ZM104.753 28.1723H104.927C105.213 28.1723 105.498 28.1582 105.767 28.1442L102.361 25.4047C102.044 25.4328 101.711 25.4468 101.378 25.4609L104.753 28.1723ZM100.269 25.4609L103.644 28.1723H104.5L101.141 25.4609H100.269ZM100.459 35.309V28.1723H100.475L97.1004 25.4609H97.0846V26.1774L100.016 28.5375L99.889 28.6359L97.0846 26.374V27.1186L99.4612 29.0292L99.3344 29.1276L97.0846 27.3153V28.0458L98.9066 29.5209L98.7957 29.6193L97.0846 28.2425V28.9871L98.3521 30.0127L98.2412 30.111L97.0846 29.1838V29.9003L97.8134 30.4903L97.7025 30.6027L97.0846 30.111V32.3166L100.459 35.309ZM97.3381 25.4609L100.697 28.1723H101.046L97.6708 25.4609H97.3381ZM97.8926 25.4609L101.267 28.1723H101.695L98.3204 25.4609H97.8926ZM98.5739 25.4609L101.933 28.1723H102.472L99.1126 25.4609H98.5739ZM99.3186 25.4609L102.709 28.1723H103.406L100.047 25.4609H99.3186ZM94.1534 32.3166L97.5282 35.309H98.2253L94.8664 32.3166H94.1534ZM95.6586 32.3166H95.0882L98.463 35.309H99.0334L95.6586 32.3166ZM95.8804 32.3166L99.2711 35.309H99.683L96.3241 32.3166H95.8804ZM96.5459 32.3166L99.9207 35.309H100.222L96.8628 32.3166H96.5459ZM133.986 12.2411L137.772 15.5987V26.6972C137.772 32.3166 134.001 35.9974 128.282 35.9974C125.255 35.9974 123.085 35.2388 121.12 33.4967L117.872 30.6448C116.082 29.0854 115.115 26.7393 115.115 23.7329V12.2411H118.68L122.625 15.7392V27.0062C122.625 27.8773 122.736 28.7202 122.99 29.4788C123.513 29.5912 124.083 29.6614 124.685 29.6614C128.266 29.6614 130.421 27.4136 130.421 23.6205V12.2411H133.986ZM122.182 15.9078L118.807 12.9154V13.1402L122.182 16.1326V15.9078ZM134.112 13.1543L137.329 16.0061V15.7673L134.112 12.9295V13.1543ZM122.182 16.7367V16.3433L118.807 13.3509V13.7443L122.182 16.7367ZM134.112 13.7583L137.329 16.6102V16.2169L134.112 13.365V13.7583ZM122.182 17.5655V16.9333L118.807 13.941V14.5732L122.182 17.5655ZM134.112 14.5872L137.329 17.4391V16.8069L134.112 13.955V14.5872ZM122.182 18.7316V17.7763L118.807 14.7839V15.7392L122.182 18.7316ZM134.112 15.7533L137.329 18.6051V17.6498L134.112 14.798V15.7533ZM122.182 20.3191V18.9283L118.807 15.9359V17.3267L122.182 20.3191ZM134.112 17.3408L137.329 20.1926V18.8018L134.112 15.9499V17.3408ZM122.182 22.5107V20.5158L118.807 17.5234V19.5183L122.182 22.5107ZM137.329 20.3893L134.112 17.5374V19.5323L137.329 22.3842V20.3893ZM118.807 19.715V23.6205C118.807 26.5426 120.17 28.5797 122.499 29.3383C122.293 28.6078 122.182 27.8211 122.182 27.0062V22.7073L118.807 19.715ZM136.79 30.0969C137.139 29.0714 137.329 27.9335 137.329 26.6972V22.5809L134.112 19.729V23.7329C134.112 25.0394 133.938 26.2195 133.59 27.2591L136.79 30.0969ZM133.526 27.3996C133.288 28.088 132.972 28.7202 132.576 29.2681L135.76 32.0919C136.156 31.5299 136.489 30.9118 136.727 30.2374L133.526 27.3996ZM134.54 33.4686C134.968 33.0893 135.348 32.6819 135.681 32.2183L132.496 29.3945C132.164 29.8581 131.783 30.2655 131.355 30.6448L134.54 33.4686ZM130.025 31.544L133.241 34.3958C133.669 34.157 134.065 33.876 134.429 33.567L131.229 30.7291C130.864 31.0382 130.468 31.3051 130.025 31.544ZM128.71 32.134L131.942 34.9999C132.338 34.8454 132.734 34.6768 133.098 34.4661L129.882 31.6142C129.518 31.8109 129.121 31.9795 128.71 32.134ZM119.71 31.7547L121.437 33.2157C121.77 33.4967 122.102 33.7496 122.435 33.9744L120.122 31.9233L119.71 31.7547ZM120.962 32.2042C120.803 32.1481 120.645 32.1059 120.486 32.0497L123.148 34.4099C123.386 34.5363 123.608 34.6628 123.845 34.7611L120.962 32.2042ZM127.41 32.4852L130.658 35.3652C131.039 35.2809 131.403 35.1826 131.767 35.0561L128.535 32.1902C128.171 32.3026 127.791 32.4009 127.41 32.4852ZM121.279 32.2885L124.273 34.9437C124.479 35.014 124.685 35.0983 124.907 35.1545L121.833 32.429C121.643 32.3869 121.469 32.3447 121.279 32.2885ZM122.15 32.4993L125.255 35.2528C125.477 35.309 125.699 35.3652 125.937 35.4073L122.784 32.6117C122.562 32.5695 122.356 32.5414 122.15 32.4993ZM126.174 32.6679L129.423 35.5478C129.787 35.5197 130.135 35.4635 130.468 35.3933L127.22 32.5133C126.887 32.5836 126.539 32.6398 126.174 32.6679ZM123.037 32.6398L126.206 35.4495C126.46 35.4916 126.713 35.5197 126.967 35.5478L123.782 32.724C123.528 32.71 123.291 32.6819 123.037 32.6398ZM125.065 32.7521L128.282 35.604C128.599 35.604 128.915 35.59 129.217 35.5619L125.984 32.6959C125.683 32.724 125.366 32.7381 125.065 32.7521ZM124.02 32.7381L127.204 35.5619C127.49 35.59 127.759 35.604 128.06 35.604L124.844 32.7521H124.622C124.416 32.7521 124.226 32.7521 124.02 32.7381ZM155.359 29.1978L159.305 32.6959V35.7024H144.871L140.925 32.2042V12.2551H144.49L148.436 15.7533V29.1978H155.359ZM147.992 15.9218L144.617 12.9295V13.1402L147.992 16.1326V15.9218ZM147.992 16.7367V16.3433L144.617 13.3509V13.7443L147.992 16.7367ZM147.992 17.5655V16.9333L144.617 13.941V14.5732L147.992 17.5655ZM147.992 18.7316V17.7763L144.617 14.7839V15.7392L147.992 18.7316ZM147.992 20.3191V18.9283L144.617 15.9359V17.3267L147.992 20.3191ZM147.992 22.5107V20.5158L144.617 17.5234V19.5183L147.992 22.5107ZM144.617 29.1978H147.992V22.7073L144.617 19.715V29.1978ZM158.861 35.309V32.8645L155.486 29.8722V32.3166L158.861 35.309ZM141.686 32.3166L145.061 35.309H146.534L143.144 32.3166H141.686ZM143.365 32.3166L146.756 35.309H148.087L144.696 32.3166H143.365ZM144.918 32.3166L148.309 35.309H149.497L146.106 32.3166H144.918ZM146.328 32.3166L149.719 35.309H150.765L147.39 32.3166H146.328ZM147.612 32.3166L151.002 35.309H151.937L148.562 32.3166H147.612ZM148.784 32.3166L152.159 35.309H152.999L149.608 32.3166H148.784ZM149.83 32.3166L153.22 35.309H153.965L150.574 32.3166H149.83ZM150.796 32.3166L154.187 35.309H154.837L151.446 32.3166H150.796ZM151.668 32.3166L155.058 35.309H155.629L152.254 32.3166H151.668ZM152.476 32.3166L155.851 35.309H156.358L152.967 32.3166H152.476ZM153.189 32.3166L156.579 35.309H157.007L153.632 32.3166H153.189ZM153.854 32.3166L157.229 35.309H157.609L154.219 32.3166H153.854ZM154.456 32.3166L157.831 35.309H158.148L154.773 32.3166H154.456ZM154.995 32.3166L158.37 35.309H158.639L155.264 32.3166H154.995ZM176.321 26.1071C177.541 27.1889 178.064 28.383 178.064 30.0267C178.064 33.5529 174.927 35.9974 170.38 35.9974C167.084 36.0536 164.628 35.1966 163.091 34.157L159.194 30.701V27.3856L159.574 27.2451C161.285 28.664 163.662 29.4648 166.133 29.4648C168.193 29.4648 169.857 28.8045 170.506 27.807C168.035 26.7393 165.135 26.1493 163.503 24.3089L161.111 21.6116C159.97 20.3191 159.416 19.3778 159.416 17.8325C159.416 14.3765 162.521 12.0023 167.052 12.0023C169.35 11.9601 171.679 12.508 173.358 13.4774L177.272 16.9474V20.0943L176.923 20.2488C175.133 19.0828 173.089 18.4225 171.188 18.4225C169.001 18.4225 167.369 19.1952 166.941 20.4034C169.16 21.1058 171.536 21.8082 173.041 23.171L176.321 26.1071ZM173.453 14.1236V16.7086H173.438L176.828 19.715V17.116L173.453 14.1236ZM167.734 15.0508C167.607 15.0368 167.48 15.0368 167.369 15.0368C167.132 15.0368 166.894 15.0508 166.656 15.0649L170.079 18.0994C170.396 18.0572 170.744 18.0291 171.093 18.0291L167.734 15.0508ZM172.218 18.0853L168.938 15.1773C168.621 15.1211 168.288 15.0789 167.956 15.0508L171.314 18.0291C171.616 18.0291 171.917 18.0572 172.218 18.0853ZM169.889 18.1275L166.45 15.0789C166.038 15.1351 165.658 15.2054 165.294 15.3037L168.764 18.3804C169.112 18.268 169.492 18.1837 169.889 18.1275ZM173.279 18.268L170.11 15.4582C169.825 15.3739 169.524 15.2897 169.223 15.2335L172.487 18.1275C172.74 18.1556 173.01 18.2118 173.279 18.268ZM168.605 18.4366L165.135 15.3599C164.676 15.5004 164.296 15.6971 163.979 15.9359L167.48 19.0406C167.797 18.8018 168.177 18.6051 168.605 18.4366ZM174.293 18.5489L171.299 15.8937C171.029 15.7814 170.744 15.669 170.459 15.5706L173.58 18.3382C173.818 18.3944 174.056 18.4647 174.293 18.5489ZM166.514 20.2629C166.672 19.8274 166.957 19.4481 167.353 19.1249L163.852 16.0202C163.408 16.3854 163.123 16.835 163.044 17.3267L166.26 20.1786L166.514 20.2629ZM175.244 18.9002L172.582 16.54C172.313 16.3854 172.043 16.2309 171.758 16.1045L174.658 18.6754C174.848 18.7456 175.054 18.8159 175.244 18.9002ZM173.152 16.8491L175.703 19.1109C175.862 19.1811 176.036 19.2654 176.21 19.3638L173.295 16.7788L173.152 16.8491ZM163.028 17.6217C163.028 18.8018 164.248 19.4621 165.896 20.0522L163.028 17.5093V17.6217ZM164.2 24.4072C164.771 24.9551 165.563 25.3906 166.466 25.784L162.822 22.5528C162.632 22.4545 162.442 22.3561 162.267 22.2578C162.838 22.9602 163.472 23.7048 164.2 24.4072ZM164.406 23.2271C164.026 23.0867 163.646 22.9321 163.297 22.7776L166.894 25.9666C167.243 26.1071 167.607 26.2476 167.987 26.3881L164.406 23.2271ZM164.771 23.3536L168.367 26.5286C168.653 26.641 168.938 26.7393 169.223 26.8517L165.595 23.6346C165.325 23.5503 165.056 23.4519 164.771 23.3536ZM165.943 23.7469L169.619 27.0062C169.857 27.0905 170.094 27.1889 170.332 27.2872L166.577 23.9436C166.371 23.8874 166.149 23.8172 165.943 23.7469ZM170.712 27.4137C170.728 27.3434 170.76 27.2732 170.776 27.2029L167.433 24.2246C167.274 24.1684 167.1 24.1122 166.941 24.0701L170.712 27.4137ZM167.813 24.351L170.807 27.0062C170.823 26.95 170.823 26.8798 170.823 26.8236V26.8096L168.225 24.5056L167.813 24.351ZM170.807 26.5988L170.76 26.3881L168.985 24.8146C168.874 24.7585 168.748 24.7163 168.621 24.6601L170.807 26.5988ZM176.004 26.3881L174.214 24.8006C174.436 25.3344 174.563 25.9385 174.563 26.641C174.563 26.9922 174.531 27.3294 174.467 27.6665L177.605 30.4482C177.62 30.3077 177.62 30.1672 177.62 30.0267C177.62 28.4673 177.145 27.3996 176.004 26.3881ZM170.633 26.065C170.411 25.6857 170.015 25.3625 169.508 25.0816L170.633 26.065ZM177.589 30.6308L174.436 27.8351C174.277 28.4813 174.008 29.0854 173.628 29.6193L176.955 32.5695C177.288 31.9795 177.51 31.3332 177.589 30.6308ZM175.83 33.876C176.242 33.5248 176.591 33.1315 176.86 32.6959L173.533 29.7457C173.232 30.1672 172.867 30.5325 172.439 30.8696L175.83 33.876ZM171.124 31.6563L174.563 34.719C174.99 34.4942 175.371 34.2554 175.719 33.9744L172.313 30.9539C171.948 31.2208 171.552 31.4597 171.124 31.6563ZM160.841 31.6002L163.377 33.8479C163.614 34.0025 163.852 34.157 164.121 34.2975L161.253 31.7687L160.841 31.6002ZM169.793 32.1621L173.247 35.2247C173.659 35.0983 174.056 34.9578 174.42 34.7752L170.982 31.7266C170.617 31.8952 170.221 32.0497 169.793 32.1621ZM161.65 31.9092L164.628 34.5504C164.803 34.6206 164.977 34.7049 165.167 34.7752L162.093 32.0497L161.65 31.9092ZM162.426 32.134L165.547 34.9156C165.737 34.9718 165.943 35.0421 166.149 35.0983L162.949 32.2604L162.426 32.134ZM168.51 32.4431L171.948 35.4916C172.344 35.4354 172.725 35.3652 173.073 35.2669L169.635 32.2183C169.271 32.3026 168.906 32.3869 168.51 32.4431ZM163.25 32.3307L166.466 35.1826C166.688 35.2388 166.91 35.295 167.147 35.3371L163.868 32.429C163.662 32.4009 163.456 32.3588 163.25 32.3307ZM164.137 32.4712L167.417 35.3792C167.67 35.4214 167.908 35.4635 168.161 35.4916L164.85 32.5414C164.597 32.5274 164.375 32.4993 164.137 32.4712ZM171.742 35.5197L168.32 32.4712C167.987 32.5274 167.639 32.5555 167.29 32.5836L170.697 35.604C171.061 35.59 171.41 35.5619 171.742 35.5197ZM165.104 32.5695L168.447 35.5197C168.732 35.5478 169.001 35.5759 169.286 35.59L165.912 32.5976C165.642 32.5976 165.373 32.5836 165.104 32.5695ZM169.508 35.59C169.793 35.604 170.094 35.604 170.38 35.604H170.459L167.068 32.5836C166.894 32.5976 166.736 32.5976 166.561 32.5976H166.133L169.508 35.59ZM195.873 29.2681L199.818 32.7662V35.7024H184.576L180.631 32.2042V12.2551H195.413L199.359 15.7533V18.5208H188.125L188.109 20.5298H193.607L197.552 24.0279V26.8517H188.109V29.2681H195.873ZM198.915 15.9218L195.54 12.9295V15.2756L198.915 18.1275V15.9218ZM187.998 18.1275L184.639 15.2756H184.402L187.761 18.1275H187.998ZM188.632 18.1275L185.257 15.2756H184.877L188.236 18.1275H188.632ZM189.424 18.1275L186.05 15.2756H185.495L188.87 18.1275H189.424ZM190.375 18.1275L187.016 15.2756H186.287L189.662 18.1275H190.375ZM191.643 18.1275L188.252 15.2756H187.254L190.613 18.1275H191.643ZM192.91 18.1275L189.519 15.2756H188.505L191.88 18.1275H192.91ZM194.225 18.1275L190.85 15.2756H189.773L193.148 18.1275H194.225ZM195.493 18.1275L192.15 15.2756H191.088L194.463 18.1275H195.493ZM196.602 18.1275L193.243 15.2756H192.371L195.746 18.1275H196.602ZM197.552 18.1275L194.193 15.2756H193.465L196.855 18.1275H197.552ZM198.186 18.1275L194.843 15.2756H194.415L197.806 18.1275H198.186ZM198.661 18.1275L195.318 15.2756H195.065L198.44 18.1275H198.661ZM184.291 19.3778L185.067 20.0381L184.94 20.1364L184.291 19.5885V20.5298H187.666V18.2399L184.291 15.388V15.978L187.222 18.4647L187.079 18.5489L184.291 16.1888V16.835L186.683 18.858L186.541 18.9564L184.291 17.0317V17.6779L186.145 19.2514L186.002 19.3497L184.291 17.8887V18.5349L185.606 19.6447L185.479 19.7431L184.291 18.7316V19.3778ZM193.734 21.2041V23.6065H193.718L197.109 26.4583V24.1965L193.734 21.2041ZM187.777 26.4583H188.062L184.687 23.6065H184.402L187.777 26.4583ZM184.925 23.6065L188.299 26.4583H188.854L185.495 23.6065H184.925ZM185.733 23.6065L189.092 26.4583H189.963L186.572 23.6065H185.733ZM186.826 23.6065L190.201 26.4583H191.389L188.03 23.6065H186.826ZM192.91 26.4583L189.567 23.6065H188.268L191.627 26.4583H192.91ZM194.431 26.4583L191.056 23.6065H189.789L193.164 26.4583H194.431ZM195.524 26.4583L192.181 23.6065H191.294L194.669 26.4583H195.524ZM196.317 26.4583L192.958 23.6065H192.403L195.778 26.4583H196.317ZM193.179 23.6065L196.57 26.4583H196.855L193.496 23.6065H193.179ZM184.291 28.5937L184.703 28.945L184.576 29.0573L184.291 28.8185V29.2681H187.666V26.5567L184.291 23.7048V24.3229L187.222 26.8236L187.111 26.9219L184.291 24.5337V25.194L186.731 27.2591L186.604 27.3575L184.291 25.3906V26.0369L186.224 27.6806L186.097 27.7789L184.291 26.2476V26.8938L185.717 28.102L185.59 28.2004L184.291 27.1046V27.7508L185.21 28.5235L185.083 28.6218L184.291 27.9475V28.5937ZM196 29.9424V32.3166L199.374 35.309V32.9348L196 29.9424ZM182.928 32.3166H181.391L184.766 35.309H186.303L182.928 32.3166ZM184.529 32.3166H183.15L186.525 35.309H187.919L184.529 32.3166ZM184.75 32.3166L188.141 35.309H189.377L185.986 32.3166H184.75ZM186.208 32.3166L189.599 35.309H190.692L187.317 32.3166H186.208ZM188.505 32.3166H187.539L190.914 35.309H191.896L188.505 32.3166ZM192.973 35.309L189.599 32.3166H188.727L192.118 35.309H192.973ZM189.82 32.3166L193.195 35.309H193.956L190.581 32.3166H189.82ZM190.803 32.3166L194.178 35.309H194.859L191.468 32.3166H190.803ZM191.69 32.3166L195.081 35.309H195.667L192.276 32.3166H191.69ZM192.498 32.3166L195.889 35.309H196.396L193.005 32.3166H192.498ZM193.227 32.3166L196.618 35.309H197.061L193.671 32.3166H193.227ZM193.892 32.3166L197.283 35.309H197.663L194.273 32.3166H193.892ZM194.495 32.3166L197.885 35.309H198.202L194.827 32.3166H194.495ZM195.049 32.3166L198.424 35.309H198.709L195.318 32.3166H195.049ZM195.54 32.3166L198.931 35.309H199.153L195.762 32.3166H195.54Z" fill="#808085"/>
</svg>
