<svg width="112" height="40" viewBox="0 0 112 40" fill="none" xmlns="http://www.w3.org/2000/svg">
    <path d="M4.68941 9.43792C5.06393 8.74122 5.60445 8.14726 6.26328 7.70846L17.32 0L5.99107 18.7029C5.99107 18.7029 5.00121 17.0327 4.61517 16.1878C4.1341 15.1253 3.89148 13.9706 3.9043 12.8046C3.91713 11.6387 4.18508 10.4896 4.68941 9.43792ZM0.126177 22.3397C0.251013 24.1282 0.757159 25.8695 1.61072 27.4469C2.46428 29.0243 3.64556 30.4015 5.07545 31.4861L17.3051 40C17.3051 40 9.65353 28.9907 3.19968 18.0358C2.54629 16.8784 2.10704 15.613 1.90297 14.3002C1.81263 13.7057 1.81263 13.101 1.90297 12.5065C1.73469 12.8178 1.40804 13.4552 1.40804 13.4552C0.753641 14.7877 0.307967 16.2126 0.0865826 17.68C-0.0408444 19.2313 -0.0275925 20.7908 0.126177 22.3397ZM31.3066 23.8221C30.9107 22.9771 29.9307 21.307 29.9307 21.307L18.6216 40L29.6783 32.2965C30.3371 31.8577 30.8776 31.2637 31.2522 30.567C31.7565 29.5153 32.0244 28.3662 32.0373 27.2003C32.0501 26.0343 31.8075 24.8797 31.3264 23.8172L31.3066 23.8221ZM35.7956 17.6652C35.6707 15.8767 35.1646 14.1354 34.311 12.558C33.4575 10.9806 32.2762 9.60346 30.8463 8.51883L18.6365 0C18.6365 0 26.2831 11.0093 32.7419 21.9642C33.3935 23.1219 33.8311 24.3873 34.0336 25.6998C34.124 26.2943 34.124 26.899 34.0336 27.4935C34.2019 27.1822 34.5286 26.5448 34.5286 26.5448C35.183 25.2123 35.6286 23.7874 35.85 22.3199C35.9791 20.7688 35.9675 19.2093 35.8154 17.6603L35.7956 17.6652Z" fill="#808085"/>
    <path d="M53.3457 29.5816V9.44241C53.3481 9.41686 53.3599 9.39302 53.379 9.37533C53.398 9.35763 53.4231 9.34729 53.4494 9.34623H66.5857C66.6145 9.34623 66.6421 9.35738 66.6625 9.37722C66.6829 9.39706 66.6943 9.42397 66.6943 9.45203V12.0151C66.6943 12.0432 66.6829 12.0701 66.6625 12.0899C66.6421 12.1098 66.6145 12.1209 66.5857 12.1209H56.515V18.055H65.08C65.1088 18.055 65.1365 18.0661 65.1568 18.0859C65.1772 18.1058 65.1886 18.1327 65.1886 18.1608V20.695C65.1886 20.723 65.1772 20.75 65.1568 20.7698C65.1365 20.7896 65.1088 20.8008 65.08 20.8008H56.515V26.9128H66.5857C66.6145 26.9128 66.6421 26.9239 66.6625 26.9437C66.6829 26.9636 66.6943 26.9905 66.6943 27.0185V29.5816C66.6943 29.6097 66.6829 29.6366 66.6625 29.6564C66.6421 29.6763 66.6145 29.6874 66.5857 29.6874H53.4494C53.4214 29.6862 53.3951 29.6745 53.3757 29.6548C53.3564 29.6351 53.3457 29.6089 53.3457 29.5816ZM86.0113 29.6345L76.3997 15.3765V29.5768C76.3997 29.6049 76.3882 29.6318 76.3679 29.6516C76.3475 29.6715 76.3199 29.6826 76.2911 29.6826H73.3291C73.3003 29.6826 73.2727 29.6715 73.2523 29.6516C73.232 29.6318 73.2205 29.6049 73.2205 29.5768V9.45683C73.2205 9.42878 73.232 9.40187 73.2523 9.38203C73.2727 9.36219 73.3003 9.35104 73.3291 9.35104H76.0689C76.0866 9.35139 76.104 9.35595 76.1195 9.36433C76.135 9.37272 76.1481 9.38466 76.1578 9.39913L85.7793 23.6283V9.45683C85.7793 9.42878 85.7907 9.40187 85.8111 9.38203C85.8314 9.36219 85.8591 9.35104 85.8879 9.35104H88.8498C88.8786 9.35104 88.9063 9.36219 88.9266 9.38203C88.947 9.40187 88.9584 9.42878 88.9584 9.45683V29.5768C88.9584 29.6049 88.947 29.6318 88.9266 29.6516C88.9063 29.6715 88.8786 29.6826 88.8498 29.6826H86.1001C86.0824 29.6823 86.0651 29.6777 86.0496 29.6693C86.0341 29.6609 86.0209 29.649 86.0113 29.6345ZM98.649 25.7779V26.7396C99.9182 27.008 101.211 27.1562 102.509 27.182C103.793 27.1565 105.071 27.01 106.325 26.7444V22.1857L95.5735 18.5262C95.5535 18.5186 95.5363 18.5054 95.524 18.4883C95.5117 18.4712 95.5049 18.4509 95.5044 18.43V10.0579C95.5025 10.0365 95.5083 10.0152 95.521 9.9976C95.5336 9.98002 95.5522 9.96733 95.5735 9.96176C97.8148 9.35176 100.128 9.02846 102.455 9C104.792 9.02991 107.115 9.35316 109.366 9.96176C109.388 9.96733 109.406 9.98002 109.419 9.9976C109.432 10.0152 109.437 10.0365 109.436 10.0579V13.2173C109.436 13.2454 109.424 13.2723 109.404 13.2921C109.383 13.312 109.356 13.3231 109.327 13.3231H106.419C106.39 13.3231 106.363 13.312 106.342 13.2921C106.322 13.2723 106.311 13.2454 106.311 13.2173V12.2556C105.041 11.989 103.748 11.8424 102.45 11.818C101.167 11.8426 99.889 11.9875 98.6342 12.2507L98.649 16.5594L109.361 20.2141C109.381 20.2217 109.399 20.2349 109.411 20.252C109.423 20.2691 109.43 20.2894 109.431 20.3103V28.9421C109.432 28.9635 109.427 28.9848 109.414 29.0024C109.401 29.02 109.383 29.0327 109.361 29.0382C107.12 29.6481 104.807 29.9714 102.48 30C100.143 29.9699 97.8203 29.6466 95.5686 29.0382C95.5473 29.0327 95.5287 29.02 95.516 29.0024C95.5034 28.9848 95.4975 28.9635 95.4994 28.9421V25.7779C95.4994 25.7498 95.5109 25.7229 95.5312 25.7031C95.5516 25.6832 95.5792 25.6721 95.608 25.6721H98.5108C98.5273 25.6675 98.5446 25.6668 98.5615 25.67C98.5783 25.6733 98.5941 25.6803 98.6076 25.6907C98.6211 25.701 98.6318 25.7143 98.639 25.7294C98.6462 25.7446 98.6497 25.7612 98.649 25.7779Z" fill="#808085"/>
</svg>
