<svg width="183" height="44" viewBox="0 0 183 44" fill="none" xmlns="http://www.w3.org/2000/svg">
    <g clip-path="url(#clip0)">
        <path d="M51.8792 23.3531C51.8792 23.6705 51.6169 23.9289 51.3035 23.9289H40.2115C40.4884 26.7049 42.5509 29.2373 45.4514 29.2373C47.4337 29.2373 48.9058 28.4695 50.0136 26.8674C50.1739 26.6459 50.4144 26.5056 50.7205 26.6385C50.8881 26.7123 51.0047 26.8674 51.0338 27.0445C51.063 27.2291 51.012 27.3325 50.961 27.4358C49.8459 29.4071 47.6232 30.3742 45.4441 30.3742C41.7128 30.3742 39.0527 26.9929 39.0527 23.3752C39.0527 19.7576 41.7128 16.3762 45.4441 16.3762C49.1755 16.3688 51.8719 19.7428 51.8792 23.3531ZM50.6913 22.8067C50.4508 20.0308 48.3519 17.4984 45.4514 17.4984C42.5509 17.4984 40.4884 20.0308 40.2115 22.8067H50.6913ZM65.3398 16.6494C65.6604 16.6494 65.8936 16.9299 65.8936 17.2105C65.8936 17.5353 65.6531 17.7716 65.3398 17.7716H62.3664V29.5917C62.3664 29.8722 62.1259 30.1528 61.8125 30.1528C61.4918 30.1528 61.2586 29.8722 61.2586 29.5917V17.7716H58.4018C58.0811 17.7716 57.8479 17.5279 57.8479 17.2105C57.8479 16.9299 58.0884 16.6494 58.4018 16.6494H61.2586V12.323C61.2586 12.0498 61.4408 11.7988 61.7032 11.7545C62.0748 11.6954 62.3664 11.9538 62.3664 12.3082V16.6494H65.3398ZM83.4791 22.3638V29.5252C83.4791 29.8501 83.2021 30.0863 82.9252 30.0863C82.6045 30.0863 82.3713 29.8427 82.3713 29.5252V22.3638C82.3713 19.9495 81.0231 17.5353 78.363 17.5353C74.9524 17.5353 73.4802 20.5549 73.677 23.6484C73.677 23.7296 73.7134 24.0914 73.7134 24.1283V29.5031C73.7134 29.7762 73.5312 30.0273 73.2689 30.0715C72.8972 30.1306 72.6057 29.8722 72.6057 29.5178V5.99579C72.6057 5.71524 72.8462 5.43469 73.1596 5.43469C73.4802 5.43469 73.7134 5.71524 73.7134 5.99579V19.3072C74.6681 17.5796 76.3735 16.4131 78.3557 16.4131C81.6134 16.4131 83.4791 19.3072 83.4791 22.3638ZM103.367 23.3531C103.367 23.6705 103.105 23.9289 102.792 23.9289H91.6924C91.9693 26.7049 94.0318 29.2373 96.9323 29.2373C98.9146 29.2373 100.387 28.4695 101.494 26.8674C101.655 26.6459 101.895 26.5056 102.201 26.6385C102.369 26.7123 102.486 26.8674 102.515 27.0445C102.544 27.2291 102.493 27.3325 102.442 27.4358C101.327 29.4071 99.1041 30.3742 96.925 30.3742C93.1937 30.3742 90.5336 26.9929 90.5336 23.3752C90.5336 19.7576 93.1937 16.3762 96.925 16.3762C100.664 16.3688 103.36 19.7428 103.367 23.3531ZM102.172 22.8067C101.932 20.0308 99.8328 17.4984 96.9323 17.4984C94.0318 17.4984 91.9693 20.0308 91.6924 22.8067H102.172ZM116.981 17.1736C116.981 17.5353 116.784 17.7347 116.464 17.779C113.206 18.2589 111.741 20.9536 111.741 24.0914V29.4661C111.741 29.7393 111.559 29.9903 111.297 30.0346C110.925 30.0937 110.633 29.8353 110.633 29.4809V17.2326C110.633 16.9595 110.816 16.7084 111.078 16.6641C111.45 16.6051 111.741 16.8635 111.741 17.2179V19.7133C112.652 18.1481 114.481 16.6567 116.383 16.6567C116.66 16.6494 116.981 16.8561 116.981 17.1736ZM135.2 23.3531C135.2 23.6705 134.938 23.9289 134.625 23.9289H123.533C123.81 26.7049 125.872 29.2373 128.773 29.2373C130.755 29.2373 132.227 28.4695 133.335 26.8674C133.495 26.6459 133.736 26.5056 134.042 26.6385C134.209 26.7123 134.326 26.8674 134.355 27.0445C134.384 27.2291 134.333 27.3325 134.282 27.4358C133.167 29.4071 130.944 30.3742 128.765 30.3742C125.034 30.3742 122.374 26.9929 122.374 23.3752C122.374 19.7576 125.034 16.3762 128.765 16.3762C132.497 16.3688 135.193 19.7428 135.2 23.3531ZM134.013 22.8067C133.772 20.0308 131.673 17.4984 128.773 17.4984C125.872 17.4984 123.81 20.0308 123.533 22.8067H134.013ZM153.107 17.3138V29.5917C153.107 29.9165 152.83 30.1528 152.553 30.1528C152.232 30.1528 151.999 29.9091 151.999 29.5917V27.2587C151.088 29.1118 149.455 30.4333 147.393 30.4333C144.099 30.4333 142.27 27.5392 142.27 24.4827V17.2843C142.27 17.0037 142.51 16.7232 142.823 16.7232C143.144 16.7232 143.377 17.0037 143.377 17.2843V24.4827C143.377 26.8969 144.726 29.3111 147.386 29.3111C151.117 29.3111 151.992 25.7747 151.992 21.8691V17.2843C151.992 16.9594 152.312 16.6272 152.706 16.7454C152.946 16.8266 153.107 17.0628 153.107 17.3138ZM181.165 22.3195V29.5178C181.165 29.8427 180.888 30.0789 180.611 30.0789C180.29 30.0789 180.057 29.8353 180.057 29.5178V22.3195C180.057 19.9052 178.709 17.5353 176.048 17.5353C172.711 17.5353 171.443 21.153 171.443 23.9659V29.5178C171.443 29.8427 171.166 30.0789 170.889 30.0789C170.568 30.0789 170.335 29.8353 170.335 29.5178V22.3195C170.335 19.9052 168.987 17.5353 166.327 17.5353C162.952 17.5353 161.56 20.2301 161.684 23.8108C161.684 23.892 161.721 24.0545 161.684 24.0914V29.5031C161.684 29.7762 161.502 30.0273 161.232 30.0715C160.861 30.1306 160.569 29.8722 160.569 29.5178V17.2326C160.569 16.9595 160.751 16.7084 161.014 16.6641C161.385 16.6051 161.677 16.8635 161.677 17.2179V19.2703C162.632 17.5427 164.337 16.4131 166.319 16.4131C168.578 16.4131 170.328 17.8602 171.042 19.9938C171.953 17.9045 173.738 16.4131 176.041 16.4131C179.299 16.4131 181.165 19.2629 181.165 22.3195Z" fill="#808085"/>
        <path d="M13.5629 16.3602L0 22.5404L13.5629 30.5687L27.1206 22.5404L13.5629 16.3602Z" fill="#808085" fill-opacity="0.5"/>
        <path opacity="0.45" d="M0 22.5422L13.5603 30.569V2.07309e-06L0 22.5422Z" fill="#808085" fill-opacity="0.5"/>
        <path d="M27.1211 22.5422L13.5608 30.569V2.07309e-06L27.1211 22.5422Z" fill="#808085" fill-opacity="0.8"/>
        <path opacity="0.45" d="M13.5603 43.7001V32.6009L0 24.5913L13.5603 43.7001Z" fill="#808085" fill-opacity="0.5"/>
        <path d="M13.5608 43.7001V32.6009L27.1211 24.5913L13.5608 43.7001Z" fill="#808085" fill-opacity="0.8"/>
    </g>
    <defs>
        <clipPath id="clip0">
            <rect width="182.098" height="43.7" fill="white"/>
        </clipPath>
    </defs>
</svg>
