<svg width="285" height="68" viewBox="0 0 285 68" fill="none" xmlns="http://www.w3.org/2000/svg">
    <g clip-path="url(#clip0)">
        <path d="M81.1684 36.3392C81.1684 36.8332 80.7594 37.2353 80.2708 37.2353H62.9779C63.4097 41.5549 66.6251 45.4954 71.1472 45.4954C74.2376 45.4954 76.5327 44.3006 78.2597 41.8076C78.5097 41.463 78.8846 41.2447 79.3618 41.4515C79.6232 41.5664 79.805 41.8076 79.8504 42.0833C79.8959 42.3705 79.8163 42.5314 79.7368 42.6922C77.9984 45.7596 74.533 47.2646 71.1358 47.2646C65.3185 47.2646 61.1714 42.0029 61.1714 36.3736C61.1714 30.7444 65.3185 25.4827 71.1358 25.4827C76.9531 25.4712 81.157 30.7214 81.1684 36.3392ZM79.3164 35.489C78.9415 31.1694 75.6692 27.2289 71.1472 27.2289C66.6251 27.2289 63.4097 31.1694 62.9779 35.489H79.3164ZM102.154 25.9078C102.654 25.9078 103.017 26.3443 103.017 26.7809C103.017 27.2864 102.642 27.654 102.154 27.654H97.5182V46.0468C97.5182 46.4834 97.1433 46.9199 96.6547 46.9199C96.1548 46.9199 95.7912 46.4834 95.7912 46.0468V27.654H91.3373C90.8374 27.654 90.4738 27.2749 90.4738 26.7809C90.4738 26.3443 90.8488 25.9078 91.3373 25.9078H95.7912V19.1756C95.7912 18.7506 96.0753 18.36 96.4843 18.291C97.0637 18.1991 97.5182 18.6012 97.5182 19.1527V25.9078H102.154ZM130.434 34.7997V45.9434C130.434 46.4489 130.002 46.8165 129.57 46.8165C129.07 46.8165 128.707 46.4374 128.707 45.9434V34.7997C128.707 31.0431 126.605 27.2864 122.458 27.2864C117.14 27.2864 114.845 31.9851 115.152 36.7987C115.152 36.9251 115.209 37.488 115.209 37.5455V45.9089C115.209 46.334 114.925 46.7246 114.516 46.7935C113.936 46.8855 113.482 46.4834 113.482 45.9319V9.33014C113.482 8.89358 113.857 8.45703 114.345 8.45703C114.845 8.45703 115.209 8.89358 115.209 9.33014V30.0436C116.697 27.3553 119.356 25.5402 122.446 25.5402C127.525 25.5402 130.434 30.0436 130.434 34.7997ZM161.44 36.3392C161.44 36.8332 161.031 37.2353 160.543 37.2353H143.239C143.67 41.5549 146.886 45.4954 151.408 45.4954C154.498 45.4954 156.793 44.3006 158.52 41.8076C158.77 41.463 159.145 41.2447 159.623 41.4515C159.884 41.5664 160.066 41.8076 160.111 42.0833C160.157 42.3705 160.077 42.5314 159.998 42.6922C158.259 45.7596 154.794 47.2646 151.397 47.2646C145.579 47.2646 141.432 42.0029 141.432 36.3736C141.432 30.7444 145.579 25.4827 151.397 25.4827C157.225 25.4712 161.429 30.7214 161.44 36.3392ZM159.577 35.489C159.202 31.1694 155.93 27.2289 151.408 27.2289C146.886 27.2289 143.67 31.1694 143.239 35.489H159.577ZM182.665 26.7235C182.665 27.2864 182.358 27.5966 181.858 27.6655C176.779 28.4122 174.495 32.6055 174.495 37.488V45.8515C174.495 46.2766 174.211 46.6672 173.802 46.7361C173.223 46.828 172.768 46.4259 172.768 45.8745V26.8154C172.768 26.3903 173.052 25.9997 173.461 25.9308C174.041 25.8389 174.495 26.241 174.495 26.7924V30.6754C175.916 28.2399 178.767 25.9193 181.733 25.9193C182.165 25.9078 182.665 26.2295 182.665 26.7235ZM211.069 36.3392C211.069 36.8332 210.66 37.2353 210.172 37.2353H192.879C193.311 41.5549 196.526 45.4954 201.048 45.4954C204.139 45.4954 206.434 44.3006 208.161 41.8076C208.411 41.463 208.786 41.2447 209.263 41.4515C209.524 41.5664 209.706 41.8076 209.751 42.0833C209.797 42.3705 209.717 42.5314 209.638 42.6922C207.899 45.7596 204.434 47.2646 201.037 47.2646C195.219 47.2646 191.072 42.0029 191.072 36.3736C191.072 30.7444 195.219 25.4827 201.037 25.4827C206.854 25.4712 211.058 30.7214 211.069 36.3392ZM209.217 35.489C208.842 31.1694 205.57 27.2289 201.048 27.2289C196.526 27.2289 193.311 31.1694 192.879 35.489H209.217ZM238.986 26.9417V46.0468C238.986 46.5523 238.554 46.9199 238.122 46.9199C237.622 46.9199 237.259 46.5408 237.259 46.0468V42.4165C235.838 45.3001 233.293 47.3565 230.078 47.3565C224.942 47.3565 222.09 42.8531 222.09 38.0969V26.8958C222.09 26.4592 222.465 26.0227 222.954 26.0227C223.454 26.0227 223.818 26.4592 223.818 26.8958V38.0969C223.818 41.8536 225.919 45.6102 230.067 45.6102C235.884 45.6102 237.247 40.1074 237.247 34.03V26.8958C237.247 26.3903 237.747 25.8733 238.361 26.0571C238.736 26.1835 238.986 26.5511 238.986 26.9417ZM282.729 34.7308V45.9319C282.729 46.4374 282.297 46.805 281.866 46.805C281.366 46.805 281.002 46.4259 281.002 45.9319V34.7308C281.002 30.9741 278.9 27.2864 274.753 27.2864C269.549 27.2864 267.572 32.9157 267.572 37.2927V45.9319C267.572 46.4374 267.141 46.805 266.709 46.805C266.209 46.805 265.845 46.4259 265.845 45.9319V34.7308C265.845 30.9741 263.743 27.2864 259.596 27.2864C254.336 27.2864 252.166 31.4796 252.359 37.0515C252.359 37.1778 252.415 37.4306 252.359 37.488V45.9089C252.359 46.334 252.075 46.7246 251.654 46.7935C251.075 46.8855 250.62 46.4834 250.62 45.9319V26.8154C250.62 26.3903 250.904 25.9997 251.313 25.9308C251.893 25.8389 252.347 26.241 252.347 26.7924V29.9861C253.836 27.2979 256.494 25.5402 259.585 25.5402C263.107 25.5402 265.834 27.7919 266.947 31.112C268.368 27.8608 271.151 25.5402 274.742 25.5402C279.82 25.5402 282.729 29.9747 282.729 34.7308Z" fill="#808085"/>
        <path d="M21.4308 25.4575L0.285645 35.0742L21.4308 47.5668L42.5677 35.0742L21.4308 25.4575Z" fill="#808085" fill-opacity="0.5"/>
        <path opacity="0.45" d="M0.285645 35.0771L21.4267 47.5673V3.22586e-06L0.285645 35.0771Z" fill="#808085" fill-opacity="0.5"/>
        <path d="M42.5674 35.0771L21.4264 47.5673V3.22586e-06L42.5674 35.0771Z" fill="#808085" fill-opacity="0.8"/>
        <path opacity="0.45" d="M21.4267 68.0001V50.7291L0.285645 38.2656L21.4267 68.0001Z" fill="#808085" fill-opacity="0.5"/>
        <path d="M21.4264 68.0001V50.7291L42.5674 38.2656L21.4264 68.0001Z" fill="#808085" fill-opacity="0.8"/>
    </g>
    <defs>
        <clipPath id="clip0">
            <rect width="283.899" height="68" fill="white" transform="translate(0.285645)"/>
        </clipPath>
    </defs>
</svg>
