<svg width="192" height="42" viewBox="0 0 192 42" fill="none" xmlns="http://www.w3.org/2000/svg">
    <path d="M69.2841 22.0569L66.6877 31.4196H63.9853L60.3716 17.7103H63.3389L65.4902 27.6362H65.5644L68.1184 17.7103H70.5347L73.0887 27.6362H73.1629L75.3248 17.7103H78.2921L74.6677 31.4196H71.9653L69.3689 22.0569H69.2841ZM82.2344 29.5704C83.432 29.5704 84.4281 28.784 84.4281 27.6788V26.9348L82.2874 27.0624C81.2594 27.1368 80.666 27.6044 80.666 28.327C80.666 29.1028 81.2912 29.5704 82.2344 29.5704ZM81.323 31.579C79.3943 31.579 77.9212 30.325 77.9212 28.4971C77.9212 26.6479 79.3413 25.5745 81.8741 25.4151L84.4281 25.2664V24.5968C84.4281 23.651 83.7605 23.0984 82.7219 23.0984C81.6939 23.0984 81.0369 23.6085 80.8991 24.363H78.3663C78.4723 22.3864 80.1467 21.0261 82.8385 21.0261C85.4455 21.0261 87.1411 22.3757 87.1411 24.4268V31.4302H84.4705V29.868H84.4175C83.8453 30.9413 82.5947 31.579 81.323 31.579ZM88.9957 17.7103H91.7617V31.4196H88.9957V17.7103ZM93.6904 17.7103H96.4564V31.4196H93.6904V17.7103ZM102.879 23.0665C101.67 23.0665 100.791 23.9911 100.695 25.2557H105.009C104.956 23.9592 104.108 23.0665 102.879 23.0665ZM105.051 28.3058H107.595C107.287 30.3037 105.475 31.6427 102.963 31.6427C99.8371 31.6427 97.9613 29.6342 97.9613 26.3822C97.9613 23.1303 99.8583 21.0261 102.857 21.0261C105.814 21.0261 107.679 23.0346 107.679 26.1272V26.9774H100.685V27.1474C100.685 28.6033 101.607 29.6023 103.016 29.6023C104.013 29.581 104.786 29.0816 105.051 28.3058ZM109.831 18.89H112.597V21.2386H114.472V23.3322H112.597V28.1995C112.597 28.9753 112.978 29.3472 113.794 29.3472C114.038 29.3472 114.292 29.326 114.462 29.3047V31.3452C114.176 31.4089 113.699 31.4621 113.148 31.4621C110.763 31.4621 109.831 30.665 109.831 28.6777V23.3322H108.4V21.2386H109.831V18.89ZM122.262 31.6534C118.287 31.6534 115.797 28.9859 115.797 24.5543C115.797 20.1334 118.309 17.4659 122.262 17.4659C125.547 17.4659 128.048 19.5595 128.27 22.6202H125.483C125.218 20.941 123.925 19.8358 122.262 19.8358C120.1 19.8358 118.711 21.6531 118.711 24.5331C118.711 27.4556 120.089 29.2622 122.272 29.2622C123.968 29.2622 125.187 28.2633 125.494 26.6373H128.281C127.953 29.7192 125.621 31.6534 122.262 31.6534ZM134.459 31.6321C131.386 31.6321 129.426 29.6554 129.426 26.3185C129.426 23.024 131.418 21.0154 134.459 21.0154C137.501 21.0154 139.493 23.0134 139.493 26.3185C139.493 29.6661 137.533 31.6321 134.459 31.6321ZM134.459 29.5173C135.816 29.5173 136.674 28.3695 136.674 26.3291C136.674 24.3099 135.805 23.1409 134.459 23.1409C133.114 23.1409 132.234 24.3099 132.234 26.3291C132.234 28.3695 133.103 29.5173 134.459 29.5173ZM140.913 31.4196V21.2386H143.584V23.0559H143.637C144.177 21.7912 145.248 21.0473 146.816 21.0473C149.074 21.0473 150.335 22.4714 150.335 24.8519V31.4196H147.569V25.4364C147.569 24.108 146.943 23.3428 145.704 23.3428C144.464 23.3428 143.679 24.2568 143.679 25.5745V31.4196H140.913ZM152.083 31.4196V21.2386H154.754V23.0559H154.807C155.347 21.7912 156.418 21.0473 157.976 21.0473C160.233 21.0473 161.494 22.4714 161.494 24.8519V31.4196H158.728V25.4364C158.728 24.108 158.103 23.3428 156.863 23.3428C155.623 23.3428 154.839 24.2568 154.839 25.5745V31.4196H152.083ZM167.821 23.0665C166.613 23.0665 165.733 23.9911 165.638 25.2557H169.951C169.898 23.9592 169.05 23.0665 167.821 23.0665ZM169.983 28.3058H172.526C172.219 30.3037 170.407 31.6427 167.895 31.6427C164.769 31.6427 162.893 29.6342 162.893 26.3822C162.893 23.1303 164.79 21.0261 167.789 21.0261C170.746 21.0261 172.611 23.0346 172.611 26.1272V26.9774H165.616V27.1474C165.616 28.6033 166.538 29.6023 167.948 29.6023C168.955 29.581 169.728 29.0816 169.983 28.3058ZM183.251 25.0219H180.686C180.527 23.9486 179.817 23.194 178.683 23.194C177.316 23.194 176.468 24.3524 176.468 26.3185C176.468 28.327 177.316 29.4641 178.694 29.4641C179.807 29.4641 180.517 28.7946 180.697 27.6894H183.272C183.134 30.0912 181.343 31.6427 178.673 31.6427C175.61 31.6427 173.671 29.6448 173.671 26.3291C173.671 23.0665 175.61 21.0261 178.651 21.0261C181.386 21.0154 183.134 22.7158 183.251 25.0219ZM185.339 18.89H188.105V21.2386H189.98V23.3322H188.105V28.1995C188.105 28.9753 188.486 29.3472 189.302 29.3472C189.546 29.3472 189.8 29.326 189.97 29.3047V31.3452C189.684 31.4089 189.217 31.4621 188.656 31.4621C186.271 31.4621 185.339 30.665 185.339 28.6777V23.3322H183.908V21.2386H185.339V18.89Z" fill="#808085"/>
    <path d="M11.3203 11.1795C19.5122 3.13466 32.791 3.13466 40.9936 11.1795L41.9792 12.1466C42.3925 12.5505 42.3925 13.1987 41.9792 13.6026L38.6091 16.9183C38.4078 17.1202 38.0686 17.1202 37.8673 16.9183L36.5108 15.5899C30.7987 9.97864 21.5258 9.97864 15.8137 15.5899L14.3618 17.0139C14.1604 17.2158 13.8213 17.2158 13.62 17.0139L10.2393 13.6982C9.82601 13.2944 9.82601 12.6461 10.2393 12.2423L11.3203 11.1795ZM47.9668 18.0235L50.9659 20.9673C51.3792 21.3711 51.3792 22.0194 50.9659 22.4232L37.4328 35.718C37.0195 36.1218 36.3624 36.1218 35.9491 35.718L26.3371 26.2809C26.2311 26.1853 26.0721 26.1853 25.9662 26.2809L16.3647 35.718C15.9514 36.1218 15.2944 36.1218 14.8811 35.718L1.33732 22.4339C0.924017 22.03 0.924017 21.3818 1.33732 20.9779L4.33645 18.0341C4.74975 17.6303 5.40681 17.6303 5.82011 18.0341L15.4321 27.4712C15.5381 27.5668 15.6971 27.5668 15.8031 27.4712L25.4045 18.0341C25.8178 17.6303 26.4749 17.6303 26.8882 18.0341L36.5002 27.4712C36.6062 27.5668 36.7651 27.5668 36.8711 27.4712L46.4831 18.0341C46.8859 17.6197 47.5535 17.6197 47.9668 18.0235Z" fill="#808085"/>
</svg>
