<svg width="92" height="40" viewBox="0 0 92 40" fill="none" xmlns="http://www.w3.org/2000/svg">
    <path d="M52.9696 13.249V14.3793L44.1788 25.5822H53.1532V26.6741H42.7558V25.5438L51.5465 14.3409H43.3525V13.249H52.9696Z" fill="#808085"/>
    <path d="M60.2454 18.3084C59.8094 17.8932 59.1973 17.6856 58.4093 17.6856C57.8967 17.6779 57.3841 17.8009 56.9327 18.047C56.5195 18.2777 56.1523 18.6006 55.8769 18.985C55.5938 19.3849 55.3719 19.8308 55.2418 20.3076C54.9588 21.2994 54.9588 22.3452 55.2418 23.337C55.3796 23.8138 55.5938 24.2597 55.8769 24.6595C56.1599 25.044 56.5195 25.3669 56.9327 25.5976C57.3841 25.8437 57.8967 25.9667 58.4093 25.9513C58.7612 25.9513 59.1131 25.8821 59.4421 25.7437C59.7634 25.6053 60.0542 25.4131 60.299 25.167C60.5515 24.9133 60.7657 24.6211 60.9187 24.2905C61.0794 23.9445 61.1865 23.5677 61.2171 23.1833H62.3953C62.2346 24.3597 61.8062 25.2824 61.1023 25.9359C60.3985 26.5895 59.5033 26.9201 58.4093 26.9201C57.6748 26.9201 57.0245 26.7817 56.4583 26.5203C55.9075 26.2666 55.4178 25.8898 55.0276 25.4208C54.6298 24.944 54.3314 24.3904 54.1478 23.7984C53.7499 22.5066 53.7499 21.1226 54.1478 19.8308C54.3314 19.2388 54.6298 18.6852 55.0276 18.2085C55.4178 17.7394 55.9075 17.3627 56.4583 17.1012C57.0245 16.8244 57.6748 16.686 58.4093 16.686C59.4421 16.686 60.322 16.9628 61.0335 17.5164C61.7527 18.0701 62.1811 18.9005 62.3112 20.0154H61.1329C60.9799 19.2926 60.6815 18.7236 60.2454 18.3084Z" fill="#808085"/>
    <path d="M64.0938 18.4776C64.2774 18.0778 64.5605 17.7317 64.9048 17.4626C65.2644 17.1935 65.6775 16.9936 66.1136 16.8783C66.6109 16.7476 67.1312 16.686 67.6438 16.6937C68.0722 16.6937 68.5006 16.7399 68.9214 16.8168C69.3269 16.8936 69.7171 17.0474 70.0614 17.2781C70.4133 17.5165 70.6964 17.8471 70.8877 18.2315C71.1019 18.6391 71.209 19.1696 71.209 19.8155V24.9671C71.209 25.4438 71.4386 25.6822 71.8976 25.6822C72.0277 25.6822 72.1501 25.6591 72.2725 25.6053V26.5972C72.1348 26.6203 72.0124 26.6433 71.9052 26.651C71.7752 26.6664 71.6375 26.6741 71.5074 26.6664C71.2626 26.6741 71.0178 26.6356 70.7882 26.5434C70.6199 26.4742 70.4746 26.3511 70.3674 26.1974C70.2603 26.0359 70.1991 25.8514 70.1685 25.6591C70.1379 25.4285 70.1226 25.2055 70.1226 24.9748H70.0844C69.8854 25.267 69.6712 25.5438 69.4417 25.8129C69.2275 26.0513 68.9826 26.2589 68.7149 26.4203C68.4318 26.5895 68.1181 26.7202 67.7968 26.7971C67.3989 26.8894 66.9858 26.9355 66.5727 26.9278C66.1442 26.9278 65.7234 26.874 65.3103 26.7663C64.9354 26.6664 64.5835 26.4972 64.2851 26.2589C63.9867 26.0205 63.7572 25.7206 63.5965 25.3746C63.4205 24.9748 63.3364 24.5442 63.344 24.1059C63.344 23.4293 63.497 22.8988 63.7954 22.522C64.1091 22.1299 64.5146 21.83 64.9813 21.6455C65.5168 21.4379 66.0753 21.2918 66.6492 21.2226C67.2689 21.138 67.8886 21.0611 68.5312 20.9919C68.7837 20.9688 68.9979 20.9381 69.1892 20.8996C69.3575 20.8689 69.5182 20.7997 69.6559 20.6997C69.786 20.5998 69.8854 20.469 69.9466 20.3153C70.0232 20.1077 70.0538 19.8924 70.0461 19.6771C70.0461 19.2772 69.9772 18.9466 69.8472 18.6929C69.7248 18.4468 69.5335 18.2315 69.304 18.0854C69.0592 17.9317 68.7837 17.824 68.5006 17.7779C68.1793 17.7164 67.8503 17.6933 67.5213 17.6933C66.7716 17.6933 66.1595 17.8702 65.6852 18.2315C65.2108 18.5929 64.966 19.1619 64.9354 19.9539H63.7572C63.7648 19.4387 63.8872 18.9389 64.0938 18.4776ZM69.9849 21.3687C69.9084 21.5071 69.763 21.607 69.5565 21.6685C69.3728 21.7224 69.1816 21.7685 68.9979 21.7992C68.5006 21.8838 67.988 21.9684 67.4525 22.0299C66.9628 22.0914 66.4732 22.1914 66.0065 22.3375C65.6087 22.4528 65.2414 22.6527 64.9277 22.9295C64.6447 23.1833 64.5069 23.5523 64.5069 24.0291C64.4993 24.3059 64.5605 24.5827 64.6829 24.8287C64.7977 25.0594 64.9583 25.267 65.1573 25.4285C65.3638 25.5976 65.5934 25.7283 65.8458 25.8129C66.106 25.8975 66.3737 25.9436 66.6492 25.9436C67.0853 25.9436 67.5213 25.8744 67.9421 25.736C68.34 25.6053 68.6996 25.4054 69.0209 25.1363C69.6712 24.5827 70.0385 23.7599 70.0232 22.8988V21.361L69.9849 21.3687Z" fill="#808085"/>
    <path d="M78.9287 18.862C78.7986 18.6006 78.6073 18.3699 78.3778 18.1931C78.1406 18.0162 77.8728 17.8855 77.5821 17.8086C77.2684 17.7241 76.9471 17.6856 76.6258 17.6856C76.358 17.6856 76.0902 17.7164 75.8301 17.7702C75.57 17.824 75.3175 17.9163 75.088 18.0547C74.8661 18.1777 74.6825 18.3546 74.5448 18.5699C74.3994 18.8082 74.3305 19.085 74.3382 19.3618C74.3305 19.6002 74.3994 19.8309 74.5371 20.0308C74.6672 20.2153 74.8431 20.3691 75.0344 20.4921C75.241 20.6228 75.4629 20.7228 75.6847 20.7997C75.9219 20.8843 76.1438 20.9458 76.3427 20.9996L77.9111 21.3533C78.2554 21.4071 78.592 21.4994 78.9134 21.6224C79.2347 21.7454 79.5254 21.9223 79.7932 22.1376C80.0533 22.3529 80.2675 22.622 80.4206 22.9295C80.5889 23.2755 80.673 23.6523 80.6654 24.0368C80.6654 24.5596 80.543 25.0133 80.3058 25.3823C80.0763 25.7437 79.7626 26.059 79.3954 26.2896C79.0128 26.528 78.592 26.6972 78.1483 26.7894C77.6969 26.8894 77.2455 26.9432 76.7864 26.9432C75.6541 26.9432 74.736 26.6741 74.0322 26.1359C73.3283 25.5976 72.9304 24.7365 72.8233 23.5447H74.0015C74.0551 24.3443 74.3458 24.9517 74.8737 25.3593C75.4016 25.7668 76.0596 25.9667 76.8476 25.9667C77.146 25.9667 77.4444 25.9359 77.7351 25.8744C78.0335 25.8129 78.3242 25.7053 78.5844 25.5515C78.8368 25.4054 79.0587 25.2132 79.227 24.9748C79.403 24.7211 79.4872 24.4212 79.4795 24.1213C79.4872 23.8676 79.426 23.6139 79.3035 23.3986C79.1811 23.1986 79.0205 23.0372 78.8292 22.9065C78.615 22.7681 78.3855 22.6604 78.1483 22.5758C77.8958 22.4913 77.6357 22.4144 77.3679 22.3529L75.853 22.0145C75.4858 21.9223 75.1339 21.7992 74.7819 21.6608C74.4759 21.5378 74.1928 21.3764 73.9327 21.1687C73.6955 20.9765 73.4966 20.7305 73.3589 20.4537C73.2135 20.123 73.1447 19.7693 73.1523 19.408C73.137 18.962 73.2518 18.5314 73.4813 18.147C73.6955 17.801 73.9863 17.5088 74.3305 17.3012C74.6901 17.0859 75.088 16.9244 75.5011 16.8321C75.9219 16.7322 76.3503 16.6784 76.7788 16.6784C77.2378 16.6707 77.6969 16.7399 78.133 16.8629C78.5385 16.9782 78.9134 17.1781 79.2347 17.4473C79.556 17.7164 79.8161 18.047 79.9921 18.4238C80.191 18.8543 80.2981 19.3234 80.3135 19.7924H79.1352C79.1429 19.4772 79.0664 19.1542 78.9287 18.862Z" fill="#808085"/>
    <path d="M83.3432 13.249V18.6467H83.3814C83.611 18.0547 84.0318 17.5549 84.575 17.2243C85.1411 16.8706 85.7991 16.6783 86.4647 16.686C87.138 16.686 87.7041 16.7706 88.1555 16.9475C88.5763 17.1012 88.9512 17.355 89.2496 17.6933C89.5327 18.0316 89.7316 18.4314 89.831 18.8697C89.9458 19.3849 90.007 19.9077 89.9994 20.4306V26.6741H88.8211V20.6228C88.8211 20.2384 88.7829 19.8462 88.7064 19.4695C88.6375 19.1388 88.5075 18.8159 88.3162 18.5391C88.1249 18.27 87.8648 18.0547 87.5588 17.9163C87.2374 17.7625 86.8472 17.6933 86.3729 17.6933C85.9368 17.6856 85.5084 17.7702 85.1105 17.947C84.7509 18.1085 84.4373 18.3469 84.1771 18.6467C83.9094 18.9543 83.7104 19.3157 83.5804 19.7001C83.435 20.123 83.3508 20.5767 83.3432 21.0226V26.6818H82.165V13.249H83.3432Z" fill="#808085"/>
    <path d="M19.9105 2C10.0333 2 2 10.0735 2 20C2 29.9265 10.0333 38 19.9105 38C29.7876 38 37.8209 29.9265 37.8209 20C37.8209 10.0735 29.7876 2 19.9105 2ZM19.9105 35.032C11.6629 35.032 4.9532 28.2888 4.9532 20C4.9532 11.7112 11.6629 4.97565 19.9105 4.97565C28.158 4.97565 34.8677 11.7189 34.8677 20.0077C34.8677 28.2965 28.158 35.032 19.9105 35.032ZM21.41 11.6497H26.2989V14.3947L18.7246 24.7288H26.2989V28.3657H21.41V31.3721H18.4109V28.3657H13.5221V25.6207L21.0963 15.2866H13.5221V11.6497H18.4109V8.62794H21.41V11.6497Z" fill="#808085"/>
</svg>
