<svg width="117" height="51" viewBox="0 0 117 51" fill="none" xmlns="http://www.w3.org/2000/svg">
    <path d="M67.0122 16.8926V18.3337L55.8908 32.6174H67.2445V34.0095H54.0904V32.5684L65.2118 18.2847H54.8454V16.8926H67.0122Z" fill="#808085"/>
    <path d="M76.2171 23.3433C75.6653 22.8139 74.891 22.5492 73.8941 22.5492C73.2455 22.5394 72.597 22.6962 72.026 23.01C71.5033 23.3041 71.0387 23.7158 70.6902 24.206C70.3321 24.7158 70.0514 25.2844 69.8869 25.8922C69.5287 27.1568 69.5287 28.4901 69.8869 29.7548C70.0611 30.3626 70.3321 30.9312 70.6902 31.441C71.0484 31.9311 71.5033 32.3429 72.026 32.637C72.597 32.9507 73.2455 33.1076 73.8941 33.088C74.3393 33.088 74.7845 32.9997 75.2007 32.8233C75.6073 32.6468 75.9751 32.4017 76.2848 32.088C76.6042 31.7645 76.8752 31.392 77.0688 30.9704C77.2721 30.5292 77.4076 30.0489 77.4463 29.5587H78.9369C78.7336 31.0586 78.1916 32.2351 77.3011 33.0684C76.4106 33.9017 75.2782 34.3232 73.8941 34.3232C72.9649 34.3232 72.1421 34.1467 71.4259 33.8134C70.729 33.4899 70.1095 33.0095 69.6159 32.4115C69.1125 31.8037 68.735 31.0978 68.5027 30.343C67.9994 28.696 67.9994 26.9314 68.5027 25.2844C68.735 24.5295 69.1125 23.8237 69.6159 23.2158C70.1095 22.6178 70.729 22.1374 71.4259 21.8041C72.1421 21.4512 72.9649 21.2747 73.8941 21.2747C75.2007 21.2747 76.3139 21.6277 77.214 22.3335C78.1239 23.0394 78.6659 24.0981 78.8304 25.5197H77.3398C77.1463 24.5981 76.7688 23.8727 76.2171 23.3433Z" fill="#808085"/>
    <path d="M81.0857 23.559C81.318 23.0492 81.6761 22.608 82.1117 22.2649C82.5666 21.9218 83.0893 21.6669 83.641 21.5198C84.2701 21.3532 84.9283 21.2748 85.5768 21.2846C86.1189 21.2846 86.6609 21.3434 87.1933 21.4414C87.7063 21.5394 88.1999 21.7355 88.6355 22.0296C89.0807 22.3335 89.4388 22.7551 89.6808 23.2453C89.9518 23.7648 90.0873 24.4413 90.0873 25.2648V31.8331C90.0873 32.4409 90.3777 32.7448 90.9585 32.7448C91.123 32.7448 91.2779 32.7154 91.4328 32.6468V33.9115C91.2585 33.9409 91.1037 33.9703 90.9682 33.9801C90.8036 33.9997 90.6294 34.0095 90.4648 33.9997C90.1551 34.0095 89.8454 33.9605 89.555 33.8428C89.3421 33.7546 89.1581 33.5978 89.0226 33.4017C88.8871 33.1958 88.8097 32.9605 88.771 32.7154C88.7323 32.4213 88.7129 32.137 88.7129 31.8429H88.6645C88.4128 32.2155 88.1418 32.5684 87.8514 32.9115C87.5804 33.2154 87.2707 33.4801 86.9319 33.686C86.5738 33.9017 86.1769 34.0683 85.7704 34.1664C85.2671 34.284 84.7444 34.3428 84.2218 34.333C83.6797 34.333 83.1474 34.2644 82.6247 34.1271C82.1504 33.9997 81.7052 33.784 81.3277 33.4801C80.9502 33.1762 80.6598 32.7939 80.4566 32.3527C80.2339 31.8429 80.1275 31.2939 80.1371 30.7351C80.1371 29.8724 80.3307 29.196 80.7082 28.7156C81.1051 28.2156 81.6181 27.8333 82.2085 27.598C82.886 27.3333 83.5926 27.147 84.3186 27.0588C85.1026 26.951 85.8866 26.8529 86.6996 26.7647C87.019 26.7353 87.2901 26.6961 87.532 26.6471C87.745 26.6079 87.9482 26.5196 88.1225 26.3922C88.287 26.2647 88.4128 26.0981 88.4903 25.902C88.5871 25.6373 88.6258 25.3628 88.6161 25.0883C88.6161 24.5785 88.529 24.157 88.3644 23.8335C88.2096 23.5198 87.9676 23.2453 87.6772 23.059C87.3675 22.8629 87.019 22.7257 86.6609 22.6669C86.2544 22.5884 85.8382 22.559 85.422 22.559C84.4734 22.559 83.6991 22.7845 83.099 23.2453C82.4989 23.706 82.1891 24.4315 82.1504 25.4412H80.6598C80.6695 24.7844 80.8244 24.1472 81.0857 23.559ZM88.5387 27.2451C88.4419 27.4215 88.258 27.549 87.9966 27.6274C87.7643 27.696 87.5224 27.7549 87.2901 27.7941C86.6609 27.9019 86.0124 28.0098 85.3349 28.0882C84.7154 28.1666 84.0959 28.2941 83.5055 28.4803C83.0022 28.6274 82.5376 28.8823 82.1407 29.2352C81.7826 29.5587 81.6084 30.0293 81.6084 30.6371C81.5987 30.99 81.6761 31.3429 81.831 31.6567C81.9762 31.9508 82.1795 32.2155 82.4311 32.4213C82.6924 32.637 82.9828 32.8037 83.3022 32.9115C83.6313 33.0193 83.9701 33.0782 84.3186 33.0782C84.8703 33.0782 85.422 32.9899 85.9543 32.8135C86.4576 32.6468 86.9126 32.3919 87.3191 32.0488C88.1418 31.3429 88.6064 30.294 88.5871 29.196V27.2353L88.5387 27.2451Z" fill="#808085"/>
    <path d="M99.8536 24.0491C99.6891 23.7158 99.4471 23.4217 99.1567 23.1962C98.8567 22.9708 98.5179 22.8041 98.1501 22.7061C97.7533 22.5982 97.3467 22.5492 96.9402 22.5492C96.6014 22.5492 96.2627 22.5884 95.9336 22.657C95.6045 22.7257 95.2851 22.8433 94.9947 23.0198C94.714 23.1766 94.4817 23.4021 94.3075 23.6766C94.1236 23.9805 94.0364 24.3335 94.0461 24.6864C94.0364 24.9903 94.1236 25.2844 94.2978 25.5393C94.4623 25.7746 94.685 25.9706 94.9269 26.1275C95.1883 26.2941 95.469 26.4216 95.7497 26.5196C96.0497 26.6275 96.3304 26.7059 96.5821 26.7745L98.5663 27.2255C99.0019 27.2941 99.4278 27.4118 99.8343 27.5686C100.241 27.7255 100.609 27.9509 100.947 28.2254C101.276 28.4999 101.548 28.8431 101.741 29.2352C101.954 29.6764 102.061 30.1567 102.051 30.6469C102.051 31.3135 101.896 31.892 101.596 32.3625C101.306 32.8233 100.909 33.2252 100.444 33.5193C99.9601 33.8232 99.4278 34.0389 98.8664 34.1566C98.2953 34.284 97.7242 34.3526 97.1435 34.3526C95.7109 34.3526 94.5494 34.0095 93.659 33.3233C92.7685 32.637 92.2652 31.539 92.1296 30.0195H93.6202C93.688 31.039 94.0558 31.8135 94.7237 32.3331C95.3915 32.8527 96.2239 33.1076 97.2209 33.1076C97.5984 33.1076 97.9759 33.0684 98.3437 32.9899C98.7212 32.9115 99.089 32.7743 99.4181 32.5782C99.7375 32.3919 100.018 32.1468 100.231 31.8429C100.454 31.5194 100.56 31.1371 100.551 30.7547C100.56 30.4312 100.483 30.1077 100.328 29.8332C100.173 29.5783 99.9698 29.3725 99.7278 29.2058C99.4568 29.0293 99.1664 28.8921 98.8664 28.7842C98.547 28.6764 98.2179 28.5784 97.8791 28.4999L95.9626 28.0686C95.498 27.9509 95.0528 27.7941 94.6075 27.6176C94.2204 27.4608 93.8622 27.2549 93.5331 26.9902C93.2331 26.7451 92.9814 26.4314 92.8072 26.0785C92.6233 25.6569 92.5362 25.206 92.5459 24.7452C92.5265 24.1766 92.6717 23.6276 92.9621 23.1374C93.2331 22.6963 93.6009 22.3237 94.0364 22.059C94.4914 21.7845 94.9947 21.5787 95.5174 21.461C96.0497 21.3336 96.5918 21.265 97.1338 21.265C97.7145 21.2551 98.2953 21.3434 98.847 21.5002C99.36 21.6473 99.8343 21.9022 100.241 22.2453C100.647 22.5884 100.976 23.01 101.199 23.4903C101.451 24.0393 101.586 24.6374 101.606 25.2354H100.115C100.125 24.8334 100.028 24.4217 99.8536 24.0491Z" fill="#808085"/>
    <path d="M105.439 16.8926V23.7746H105.487C105.777 23.0198 106.31 22.3825 106.997 21.961C107.713 21.51 108.546 21.2649 109.388 21.2747C110.239 21.2747 110.956 21.3826 111.527 21.6081C112.059 21.8041 112.533 22.1276 112.911 22.559C113.269 22.9903 113.521 23.5001 113.647 24.0589C113.792 24.7158 113.869 25.3824 113.859 26.049V34.0095H112.369V26.2941C112.369 25.8039 112.32 25.304 112.224 24.8236C112.137 24.4021 111.972 23.9903 111.73 23.6374C111.488 23.2943 111.159 23.0198 110.772 22.8433C110.365 22.6472 109.872 22.559 109.272 22.559C108.72 22.5492 108.178 22.657 107.674 22.8825C107.22 23.0884 106.823 23.3923 106.494 23.7746C106.155 24.1668 105.903 24.6275 105.739 25.1177C105.555 25.6569 105.448 26.2353 105.439 26.8039V34.0193H103.948V16.8926H105.439Z" fill="#808085"/>
    <path d="M25.1883 2.55005C12.6924 2.55005 2.5293 12.8437 2.5293 25.5C2.5293 38.1564 12.6924 48.4501 25.1883 48.4501C37.6841 48.4501 47.8473 38.1564 47.8473 25.5C47.8473 12.8437 37.6841 2.55005 25.1883 2.55005ZM25.1883 44.6659C14.7541 44.6659 6.26546 36.0682 6.26546 25.5C6.26546 14.9319 14.7541 6.344 25.1883 6.344C35.6224 6.344 44.1111 14.9417 44.1111 25.5099C44.1111 36.078 35.6224 44.6659 25.1883 44.6659ZM27.0854 14.8534H33.2704V18.3533L23.688 31.5292H33.2704V36.1663H27.0854V39.9994H23.2912V36.1663H17.1062V32.6664L26.6886 19.4905H17.1062V14.8534H23.2912V11.0007H27.0854V14.8534Z" fill="#808085"/>
</svg>
