<svg width="20" height="21" viewBox="0 0 20 21" fill="none" xmlns="http://www.w3.org/2000/svg">
    <path fill-rule="evenodd" clip-rule="evenodd" d="M17 2.75C17.4142 2.75 17.75 3.08579 17.75 3.5V13.25C17.75 13.6642 17.4142 14 17 14H12.79C12.7427 14 12.6963 14.0135 12.6563 14.0388L10.4108 15.4609C10.1748 15.6157 9.82519 15.6157 9.58919 15.4609L7.34375 14.0388C7.30374 14.0135 7.25735 14 7.20999 14H3.00002C2.5858 14 2.25002 13.6642 2.25002 13.25V3.5C2.25002 3.08579 2.5858 2.75 3.00002 2.75H7.18507C8.26914 2.75 9.2927 3.21858 10 4.02233C10.7073 3.21858 11.7309 2.75 12.815 2.75H17ZM9.25002 13.4706V5.52744L9.03035 5.21259C8.60954 4.60943 7.92052 4.25 7.18507 4.25H3.75002V12.5H7.20999C7.54152 12.5 7.86624 12.5942 8.14633 12.7716L9.25002 13.4706ZM10.75 13.4706L11.8537 12.7716C12.1338 12.5942 12.4585 12.5 12.79 12.5H16.25V4.25H12.815C12.0795 4.25 11.3905 4.60943 10.9697 5.21259L10.75 5.52744V13.4706Z" fill="#FFA800"/>
    <path d="M3 16C2.58579 16 2.25 16.3358 2.25 16.75C2.25 17.1642 2.58579 17.5 3 17.5H6.77293L9.57877 19.2703C9.8307 19.4383 10.1589 19.4383 10.4108 19.2703L13.2271 17.5H17C17.4142 17.5 17.75 17.1642 17.75 16.75C17.75 16.3358 17.4142 16 17 16H13C12.8519 16 12.7072 16.0438 12.584 16.126L9.9948 17.7449L7.41604 16.126C7.29284 16.0438 7.14808 16 7.00002 16H3Z" fill="#FFA800"/>
</svg>
