<svg width="20" height="21" viewBox="0 0 20 21" fill="none" xmlns="http://www.w3.org/2000/svg">
    <path d="M10 6.116L6.8928 9.2232L5.0848 7.4152L10 2.5L14.9168 7.4168L13.1088 9.2248L10 6.116Z" fill="#FFA800"/>
    <path d="M3.808 12.308L2 10.5L3.808 8.692L5.616 10.5L3.808 12.308Z" fill="#FFA800"/>
    <path d="M5.0824 13.5824L6.8928 11.7768L10 14.884L13.1088 11.7744L14.9168 13.5832L10 18.5L5.0848 13.5848L5.0824 13.5824Z" fill="#FFA800"/>
    <path d="M16.192 12.308L14.384 10.5L16.192 8.692L18 10.5L16.192 12.308Z" fill="#FFA800"/>
    <path d="M10 8.6648L11.8336 10.4984L11.8344 10.5008L9.9992 12.3352L8.1672 10.5024L8.164 10.5L8.1672 10.4976L8.488 10.176L8.644 10.02L10 8.6648Z" fill="#FFA800"/>
</svg>
