<svg width="20" height="21" viewBox="0 0 20 21" fill="none" xmlns="http://www.w3.org/2000/svg">
    <path fill-rule="evenodd" clip-rule="evenodd" d="M16.4452 9.49371C16.3204 9.84981 16.1231 10.1653 15.8544 10.4383C15.5891 10.7031 15.2672 10.9151 14.8902 11.0561C14.5157 11.1973 14.0611 11.2695 13.5331 11.2652C13.9931 11.5687 14.3309 11.8521 14.546 12.1051C14.8564 12.4599 15.0611 12.871 15.1535 13.3475C15.2413 13.8187 15.2015 14.2946 15.0335 14.7824C14.8314 15.3577 14.4651 15.8282 13.951 16.1805C13.4322 16.5542 12.8076 16.748 12.0841 16.7761C11.8173 16.7811 11.5187 16.7667 11.1942 16.7207L10.5071 18.6566L8.66668 18.0121L9.29897 16.2213C9.26956 16.2044 9.2407 16.196 9.21095 16.1873C9.1957 16.1829 9.18012 16.1784 9.16421 16.1726L8.11519 15.8044L7.48658 17.5909L5.64589 16.9424L6.27574 15.1515L3.47314 14.1611L4.00145 12.6577L4.43314 12.8046C4.71727 12.9118 4.91649 12.9561 5.03826 12.9355C5.15891 12.9256 5.25435 12.8784 5.32575 12.8072C5.40138 12.7309 5.49505 12.5337 5.60283 12.2157L7.74016 6.16017C7.85431 5.84215 7.90695 5.62627 7.89562 5.52122C7.88469 5.41767 7.83994 5.32237 7.75511 5.24182C7.67629 5.15085 7.48777 5.05085 7.2037 4.95883L6.7741 4.80173L7.30486 3.2984L10.1111 4.29344L10.7475 2.5L12.5888 3.15391L11.9536 4.93664L13.1363 5.35552L13.7692 3.5702L15.6084 4.21909L14.9341 6.13079C15.1888 6.27789 15.4188 6.43085 15.5909 6.5921C16.0476 7.00857 16.3522 7.46736 16.5001 7.98339C16.6417 8.49708 16.6221 9.00355 16.4452 9.49371ZM11.846 6.86847C12.5457 7.11333 13.0085 7.32877 13.2477 7.50728C13.4896 7.69868 13.6449 7.91086 13.7157 8.16011C13.7912 8.4121 13.7745 8.68158 13.6718 8.96451C13.5765 9.24545 13.4098 9.45987 13.1912 9.61531C12.9639 9.77072 12.6885 9.8517 12.3548 9.84344C12.0168 9.84275 11.5361 9.73697 10.9147 9.51838L9.72141 9.09593L10.6556 6.44766L11.846 6.86847ZM10.5652 11.2021C11.1836 11.4215 11.6192 11.6339 11.8809 11.8544C12.1422 12.071 12.3042 12.3198 12.3811 12.5979C12.4508 12.873 12.4272 13.1676 12.3197 13.4894C12.1807 13.8701 11.9637 14.1477 11.6574 14.3522C11.3479 14.5449 11.028 14.633 10.6932 14.6114C10.3611 14.5939 9.96211 14.4975 9.49913 14.3413L8.70871 14.0567C8.44213 13.9672 8.28647 13.8912 8.235 13.8426C8.18827 13.7966 8.16184 13.7309 8.16084 13.6495C8.16287 13.5913 8.2209 13.3836 8.32792 13.0538L9.15573 10.7079L10.5652 11.2021Z" fill="#FFA800"/>
</svg>
