<svg width="20" height="21" viewBox="0 0 20 21" fill="none" xmlns="http://www.w3.org/2000/svg">
    <path fill-rule="evenodd" clip-rule="evenodd" d="M14.5134 6.64957C14.5834 7.02034 14.5703 7.3922 14.474 7.76297C14.3767 8.12499 14.2039 8.46951 13.948 8.78013C13.6942 9.08965 13.3366 9.37949 12.8773 9.63979C13.4274 9.6726 13.8616 9.74916 14.1744 9.86072C14.6206 10.0127 15.0034 10.2665 15.3217 10.6329C15.6333 10.9971 15.8368 11.4291 15.9352 11.9355C16.0479 12.5349 15.9658 13.1255 15.6968 13.6876C15.4343 14.2706 14.9903 14.7507 14.3778 15.1368C14.1492 15.2746 13.8835 15.4113 13.5794 15.5338L13.9524 17.5539L12.0362 17.916L11.6884 16.049C11.6545 16.049 11.6253 16.0561 11.5952 16.0635C11.5798 16.0673 11.564 16.0712 11.5473 16.0741L10.4547 16.2798L10.8036 18.1413L8.88531 18.5L8.53533 16.6341L5.613 17.1777L5.3188 15.6115L5.76612 15.5229C6.06579 15.4737 6.26046 15.4124 6.35561 15.3337C6.45514 15.2648 6.5142 15.1762 6.54045 15.0788C6.56779 14.9749 6.55029 14.7573 6.48467 14.4281L5.30786 8.11515C5.24771 7.78266 5.18537 7.56938 5.12303 7.48407C5.06178 7.39986 4.97538 7.3397 4.86164 7.31236C4.7479 7.27298 4.53463 7.28064 4.24261 7.34298L3.79201 7.42173L3.5 5.85443L6.4278 5.31304L6.08219 3.44169L8.0038 3.08733L8.34503 4.94883L9.57871 4.72025L9.2342 2.85765L11.1514 2.5L11.5233 4.49275C11.8175 4.49275 12.0931 4.51025 12.3228 4.56385C12.9265 4.69619 13.4197 4.94118 13.8058 5.31414C14.1853 5.68819 14.4215 6.13661 14.5134 6.64957ZM9.21777 6.67565C9.94616 6.53784 10.4547 6.493 10.7511 6.52799C11.0563 6.57284 11.2969 6.67893 11.4828 6.85939C11.6742 7.03985 11.7945 7.28157 11.847 7.57796C11.905 7.86889 11.8678 8.13795 11.7562 8.38185C11.637 8.63012 11.439 8.83793 11.1459 8.99761C10.8528 9.16604 10.3836 9.31479 9.73617 9.43619L8.49156 9.66697L7.97643 6.90642L9.21777 6.67565ZM10.2754 11.0691C10.9207 10.9499 11.4041 10.916 11.7409 10.9761C12.0756 11.033 12.3403 11.1675 12.5459 11.3699C12.7438 11.5733 12.8707 11.8402 12.9385 12.1727C13.0085 12.5719 12.9593 12.9208 12.7963 13.2511C12.6246 13.5726 12.3917 13.8089 12.0909 13.9576C11.7945 14.1085 11.4008 14.2245 10.9218 14.3207L10.0949 14.4695C9.81931 14.5253 9.64651 14.5373 9.57761 14.5209C9.51418 14.5045 9.4584 14.4607 9.41684 14.3907C9.3895 14.3393 9.33591 14.1304 9.26372 13.7914L8.80765 11.3458L10.2754 11.0691Z" fill="#FFA800"/>
</svg>
