<svg width="20" height="21" viewBox="0 0 20 21" fill="none" xmlns="http://www.w3.org/2000/svg">
    <path fill-rule="evenodd" clip-rule="evenodd" d="M10 2.13397L13.6368 4.23365V8.43301L10 10.5327L6.36328 8.43301V4.23365L10 2.13397ZM10 3.86602L7.86328 5.09968V7.56699L10 8.80064L12.1368 7.56699V5.09968L10 3.86602Z" fill="#FFA800"/>
    <path fill-rule="evenodd" clip-rule="evenodd" d="M15 10.4673L18.6368 12.567V16.7664L15 18.866L11.3633 16.7664V12.567L15 10.4673ZM12.8633 13.433V15.9003L15 17.134L17.1368 15.9003V13.433L15 12.1994L12.8633 13.433Z" fill="#FFA800"/>
    <path fill-rule="evenodd" clip-rule="evenodd" d="M8.63678 12.567L5.00003 10.4673L1.36328 12.567V16.7664L5.00003 18.866L8.63678 16.7664V12.567ZM2.86328 15.9003V13.433L5.00003 12.1994L7.13678 13.433V15.9003L5.00003 17.134L2.86328 15.9003Z" fill="#FFA800"/>
</svg>
