<svg width="20" height="21" viewBox="0 0 20 21" fill="none" xmlns="http://www.w3.org/2000/svg">
    <path d="M8.26564 9.96893H2.74198L2 12.0272H7.58202L8.26564 9.96893Z" fill="#FFA800"/>
    <path d="M15.7735 13.1592L17.1481 8.83511C17.2732 8.55166 17.3149 8.23578 17.2649 7.92547C17.2482 7.66609 17.1732 7.40858 17.0398 7.18348C16.923 6.95005 16.7146 6.76756 16.4729 6.67586C16.2227 6.5508 15.9476 6.49244 15.6734 6.50078H5.30882L4.56684 8.72581H13.957L12.4739 13.2759H3.0838L2.34181 15.5H12.7574C13.0668 15.4917 13.3743 15.4324 13.6652 15.3249C13.956 15.1582 14.2895 14.9914 14.573 14.758C14.8481 14.5413 15.0982 14.2921 15.315 14.017C15.4984 13.7418 15.6484 13.4593 15.7735 13.1592Z" fill="#FFA800"/>
</svg>
