<svg width="20" height="21" viewBox="0 0 20 21" fill="none" xmlns="http://www.w3.org/2000/svg">
    <path fill-rule="evenodd" clip-rule="evenodd" d="M18 10.5C18 14.9183 14.4183 18.5 10 18.5C5.58172 18.5 2 14.9183 2 10.5C2 6.08172 5.58172 2.5 10 2.5C14.4183 2.5 18 6.08172 18 10.5ZM11.9936 16.6885C14.3791 15.9207 16.1629 13.8119 16.4572 11.25H13.7277C13.6061 13.2777 12.9926 15.1168 11.9936 16.6885ZM8.00635 16.6885C5.62093 15.9207 3.83713 13.8119 3.5428 11.25H6.27233C6.39388 13.2777 7.00736 15.1168 8.00635 16.6885ZM7.7754 11.25C7.92487 13.438 8.72724 15.3513 10 16.8816C11.2728 15.3513 12.0751 13.438 12.2246 11.25H7.7754ZM12.2246 9.75H7.7754C7.92486 7.56203 8.72724 5.64867 10 4.11833C11.2728 5.64867 12.0751 7.56203 12.2246 9.75ZM13.7277 9.75H16.4572C16.1629 7.18813 14.3791 5.07934 11.9937 4.31146C12.9926 5.88325 13.6061 7.72234 13.7277 9.75ZM8.00633 4.31146C7.00735 5.88325 6.39387 7.72234 6.27233 9.75H3.5428C3.83713 7.18813 5.62092 5.07934 8.00633 4.31146Z" fill="#FFA800"/>
</svg>
