<svg width="20" height="21" viewBox="0 0 20 21" fill="none" xmlns="http://www.w3.org/2000/svg">
    <path d="M16.1806 16.0396L16.0938 16.7846C16.3884 16.8189 16.6755 16.6765 16.8263 16.4212L16.1806 16.0396ZM18 12.9604L18.6457 13.342C18.8013 13.0787 18.7814 12.7473 18.5955 12.5045L18 12.9604ZM11.8193 18.5V19.25C12.1171 19.25 12.3866 19.0739 12.5062 18.8012L11.8193 18.5ZM8.18058 18.5L7.49374 18.8012C7.61333 19.0739 7.88286 19.25 8.18058 19.25V18.5ZM3.81938 16.0396L3.17367 16.4211C3.32452 16.6764 3.61164 16.8189 3.90619 16.7846L3.81938 16.0396ZM2 12.9604L1.4045 12.5045C1.21859 12.7473 1.19873 13.0786 1.35429 13.3419L2 12.9604ZM16.1806 4.96035L16.8263 4.57883C16.6755 4.32352 16.3884 4.18107 16.0938 4.2154L16.1806 4.96035ZM18 8.03956L18.5955 8.49549C18.7814 8.25268 18.8013 7.92132 18.6457 7.65804L18 8.03956ZM11.8193 2.5L12.5062 2.19875C12.3866 1.9261 12.1171 1.75 11.8193 1.75V2.5ZM8.18058 2.5V1.75C7.88286 1.75 7.61333 1.9261 7.49374 2.19875L8.18058 2.5ZM3.81938 4.96039L3.90619 4.21543C3.61164 4.18111 3.32452 4.32356 3.17367 4.57887L3.81938 4.96039ZM2 8.0396L1.35429 7.65807C1.19873 7.92136 1.21859 8.25273 1.4045 8.49554L2 8.0396ZM6.20734 5.23869L6.12052 5.98365L6.20734 5.23869ZM7.23888 4.64707L6.55204 4.34583L7.23888 4.64707ZM16.5816 11.1079L17.1771 10.652L16.5816 11.1079ZM16.5816 9.8921L15.9861 9.43616L16.5816 9.8921ZM6.20734 15.7613L6.12052 15.0164L6.20734 15.7613ZM12.761 4.64705L13.4479 4.3458L12.761 4.64705ZM3.41834 11.1079L2.82284 10.652L3.41834 11.1079ZM3.41834 9.89207L2.82284 10.348L3.41834 9.89207ZM13.7926 15.7613L13.7058 16.5063L13.7926 15.7613ZM16.8263 16.4212L18.6457 13.342L17.3543 12.5789L15.5349 15.6581L16.8263 16.4212ZM11.8193 17.75H8.18058V19.25H11.8193V17.75ZM12.5062 18.8012L13.4479 16.6542L12.0742 16.0517L11.1325 18.1988L12.5062 18.8012ZM16.2674 15.2947L13.8794 15.0164L13.7058 16.5063L16.0938 16.7846L16.2674 15.2947ZM4.46508 15.6581L2.64571 12.5789L1.35429 13.3419L3.17367 16.4211L4.46508 15.6581ZM3.90619 16.7846L6.29415 16.5063L6.12052 15.0164L3.73256 15.2947L3.90619 16.7846ZM8.86742 18.1988L7.92572 16.0517L6.55204 16.6542L7.49374 18.8012L8.86742 18.1988ZM18.5955 12.5045L17.1771 10.652L15.9861 11.5639L17.4045 13.4164L18.5955 12.5045ZM2.5955 13.4163L4.01384 11.5638L2.82284 10.652L1.4045 12.5045L2.5955 13.4163ZM15.5349 5.34188L17.3543 8.42108L18.6457 7.65804L16.8263 4.57883L15.5349 5.34188ZM11.8193 1.75H8.18058V3.25H11.8193V1.75ZM11.1325 2.80125L12.0742 4.94829L13.4479 4.3458L12.5062 2.19875L11.1325 2.80125ZM16.0938 4.2154L13.7058 4.4937L13.8794 5.98362L16.2674 5.70531L16.0938 4.2154ZM3.17367 4.57887L1.35429 7.65807L2.64571 8.42112L4.46508 5.34192L3.17367 4.57887ZM3.73256 5.70535L6.12052 5.98365L6.29415 4.49373L3.90619 4.21543L3.73256 5.70535ZM7.49374 2.19875L6.55204 4.34583L7.92572 4.94832L8.86742 2.80125L7.49374 2.19875ZM17.4045 7.58362L15.9861 9.43616L17.1771 10.348L18.5955 8.49549L17.4045 7.58362ZM1.4045 8.49554L2.82284 10.348L4.01384 9.43613L2.5955 7.58366L1.4045 8.49554ZM6.12052 5.98365C6.88437 6.07267 7.61683 5.65258 7.92572 4.94832L6.55204 4.34583C6.50791 4.44644 6.40328 4.50645 6.29415 4.49373L6.12052 5.98365ZM17.1771 10.652C17.1085 10.5623 17.1085 10.4377 17.1771 10.348L15.9861 9.43616C15.5055 10.064 15.5055 10.9361 15.9861 11.5639L17.1771 10.652ZM6.29415 16.5063C6.40328 16.4936 6.50791 16.5536 6.55204 16.6542L7.92572 16.0517C7.61683 15.3474 6.88437 14.9273 6.12052 15.0164L6.29415 16.5063ZM12.0742 4.94829C12.3831 5.65255 13.1155 6.07264 13.8794 5.98362L13.7058 4.4937C13.5966 4.50642 13.492 4.44641 13.4479 4.3458L12.0742 4.94829ZM4.01384 11.5638C4.49451 10.936 4.49451 10.0639 4.01384 9.43613L2.82284 10.348C2.89151 10.4377 2.89151 10.5623 2.82284 10.652L4.01384 11.5638ZM13.4479 16.6542C13.492 16.5536 13.5966 16.4936 13.7058 16.5063L13.8794 15.0164C13.1155 14.9274 12.3831 15.3474 12.0742 16.0517L13.4479 16.6542Z" fill="#FFA800"/>
    <circle cx="10" cy="10.5" r="2.25" stroke="#FFA800" stroke-width="1.5"/>
</svg>
