<svg width="20" height="21" viewBox="0 0 20 21" fill="none" xmlns="http://www.w3.org/2000/svg">
    <path fill-rule="evenodd" clip-rule="evenodd" d="M10 0.75C10.4142 0.75 10.75 1.08579 10.75 1.5V6.50003C10.75 6.91424 10.4142 7.25003 10 7.25003C9.58579 7.25003 9.25 6.91424 9.25 6.50003V1.5C9.25 1.08579 9.58579 0.75 10 0.75Z" fill="#FFA800"/>
    <path fill-rule="evenodd" clip-rule="evenodd" d="M10 14.5C11.1046 14.5 12 13.6046 12 12.5C12 11.3955 11.1046 10.5 10 10.5C8.89543 10.5 8 11.3955 8 12.5C8 13.6046 8.89543 14.5 10 14.5ZM10 16C11.933 16 13.5 14.433 13.5 12.5C13.5 10.567 11.933 9.00003 10 9.00003C8.067 9.00003 6.5 10.567 6.5 12.5C6.5 14.433 8.067 16 10 16Z" fill="#FFA800"/>
    <path fill-rule="evenodd" clip-rule="evenodd" d="M5.19392 2.31532C5.57207 2.14629 6.01566 2.31581 6.18469 2.69397L7.81181 6.33411C7.97848 6.70697 7.81617 7.14464 7.44669 7.31867C5.40831 8.2788 4 10.3507 4 12.75C4 16.0637 6.68629 18.75 10 18.75C13.3137 18.75 16 16.0638 16 12.7501C16 10.3507 14.5917 8.27881 12.5533 7.31868C12.1838 7.14465 12.0215 6.70698 12.1882 6.33412L13.8153 2.69398C13.9843 2.31583 14.4279 2.1463 14.8061 2.31533C15.1842 2.48436 15.3538 2.92795 15.1847 3.3061L13.8428 6.30817C16.0322 7.61694 17.5 10.0115 17.5 12.7501C17.5 16.8922 14.1421 20.25 10 20.25C5.85786 20.25 2.5 16.8922 2.5 12.75C2.5 10.0114 3.96783 7.61693 6.15718 6.30816L4.81527 3.30609C4.64624 2.92794 4.81576 2.48435 5.19392 2.31532Z" fill="#FFA800"/>
</svg>
