<svg width="20" height="21" viewBox="0 0 20 21" fill="none" xmlns="http://www.w3.org/2000/svg">
    <path fill-rule="evenodd" clip-rule="evenodd" d="M10 10.5C12.2091 10.5 14 8.70914 14 6.5C14 4.29086 12.2091 2.5 10 2.5C7.79086 2.5 6 4.29086 6 6.5C6 8.70914 7.79086 10.5 10 10.5ZM12.5 6.5C12.5 7.88071 11.3807 9 10 9C8.61929 9 7.5 7.88071 7.5 6.5C7.5 5.11929 8.61929 4 10 4C11.3807 4 12.5 5.11929 12.5 6.5Z" fill="#FFA800"/>
    <path d="M7 12C4.92893 12 3.25 13.6789 3.25 15.75V17.75C3.25 18.1642 3.58579 18.5 4 18.5C4.41421 18.5 4.75 18.1642 4.75 17.75V15.75C4.75 14.5074 5.75736 13.5 7 13.5H13C14.2426 13.5 15.25 14.5074 15.25 15.75V17.75C15.25 18.1642 15.5858 18.5 16 18.5C16.4142 18.5 16.75 18.1642 16.75 17.75V15.75C16.75 13.6789 15.0711 12 13 12H7Z" fill="#FFA800"/>
</svg>
