<svg width="20" height="21" viewBox="0 0 20 21" fill="none" xmlns="http://www.w3.org/2000/svg">
    <path d="M7.86926 7.45514C8.54657 7.15412 9.27044 7 10 7C10.7296 7 11.4535 7.15412 12.1308 7.45514C12.8083 7.75624 13.4274 8.19915 13.9514 8.76134C14.2338 9.06436 14.7084 9.08107 15.0114 8.79866C15.3144 8.51625 15.3311 8.04168 15.0487 7.73866C14.3908 7.0327 13.6068 6.46965 12.74 6.08442C11.8731 5.69913 10.9419 5.5 10 5.5C9.05819 5.5 8.12697 5.69913 7.26005 6.08442C6.3933 6.46965 5.60932 7.0327 4.95138 7.73866C4.66897 8.04168 4.68568 8.51626 4.9887 8.79866C5.29172 9.08107 5.7663 9.06436 6.0487 8.76134C6.57266 8.19915 7.19179 7.75624 7.86926 7.45514Z" fill="#FFA800"/>
    <path d="M16.408 10.2896C16.6623 9.9626 17.1335 9.9037 17.4605 10.158C17.7874 10.4123 17.8464 10.8835 17.592 11.2105L14.092 15.7105C13.95 15.8932 13.7315 16 13.5 16C13.2686 16 13.0501 15.8932 12.908 15.7105L10 11.9716L7.09205 15.7105C6.94996 15.8932 6.73148 16 6.50003 16C6.26859 16 6.05011 15.8932 5.90802 15.7105L2.40802 11.2105C2.15372 10.8835 2.21262 10.4123 2.53958 10.158C2.86654 9.9037 3.33775 9.9626 3.59205 10.2896L6.50003 14.0284L9.40802 10.2896C9.55011 10.1069 9.76859 10 10 10C10.2315 10 10.45 10.1069 10.592 10.2896L13.5 14.0284L16.408 10.2896Z" fill="#FFA800"/>
</svg>
