<svg width="20" height="21" viewBox="0 0 20 21" fill="none" xmlns="http://www.w3.org/2000/svg">
    <path d="M14.4151 16.2574V13.5769L9.08174 13.5759C9.5485 13.0814 9.95781 12.6464 10.364 12.1571L10.3748 12.1447C11.4369 10.917 12.4736 9.71866 13.5093 8.49077C13.8375 8.10916 14.3289 7.72652 14.412 7.28849C14.5751 6.46474 14.4653 5.59073 14.4653 4.68799H11.1539V2.49988H8.50009V4.74236H5.46464V7.42288H10.5795C10.1148 7.94195 9.70545 8.37998 9.29409 8.84469C8.22824 10.0767 7.18907 11.279 6.14887 12.511C5.84727 12.8926 5.3559 13.2753 5.2728 13.7133C5.1097 14.534 5.21946 15.408 5.21946 16.2841H8.50317V18.4999H11.2668C11.2134 17.7346 11.1837 17.0247 11.1303 16.2574H14.4151Z" fill="#FFA800"/>
</svg>
