<svg width="24" height="24" viewBox="0 0 24 24" fill="none" xmlns="http://www.w3.org/2000/svg">
    <path d="M4.1999 12C4.1999 7.6922 7.69208 4.20002 11.9999 4.20002C13.2993 4.20002 14.522 4.51705 15.5975 5.07721C16.0383 5.30682 16.5818 5.13559 16.8115 4.69475C17.0411 4.25391 16.8698 3.71039 16.429 3.48078C15.1029 2.79006 13.5956 2.40002 11.9999 2.40002C6.69797 2.40002 2.3999 6.69809 2.3999 12C2.3999 17.302 6.69797 21.6 11.9999 21.6C17.3018 21.6 21.5999 17.302 21.5999 12V11.4C21.5999 10.903 21.197 10.5 20.6999 10.5C20.2028 10.5 19.7999 10.903 19.7999 11.4V12C19.7999 16.3078 16.3077 19.8 11.9999 19.8C7.69208 19.8 4.1999 16.3078 4.1999 12Z" fill="#FFA800"/>
    <path d="M21.3551 5.92764C21.7065 5.57616 21.7065 5.00632 21.3551 4.65484C21.0036 4.30337 20.4337 4.30337 20.0823 4.65485L11.9999 12.7372L9.6363 10.3736C9.28483 10.0222 8.71498 10.0222 8.36351 10.3736C8.01204 10.7251 8.01204 11.2949 8.36351 11.6464L11.3635 14.6464C11.5323 14.8152 11.7612 14.91 11.9999 14.91C12.2386 14.91 12.4675 14.8152 12.6363 14.6464L21.3551 5.92764Z" fill="#FFA800"/>
</svg>
